<svg xmlns="http://www.w3.org/2000/svg" width="800" height="600" data-software-used-string="@tscircuit/core@0.0.1112"><style></style><rect class="boundary" x="0" y="0" fill="#000" width="800" height="600" data-type="pcb_background" data-pcb-layer="global"/><rect class="pcb-boundary" fill="none" stroke="#fff" stroke-width="0.3" x="134.80278422273784" y="34.80278422273784" width="530.3944315545243" height="530.3944315545243" data-type="pcb_boundary" data-pcb-layer="global"/><path class="pcb-board" d="M 134.80278422273784 520.997679814385 L 665.1972157772622 520.997679814385 L 665.1972157772622 79.0023201856149 L 134.80278422273784 79.0023201856149 Z" fill="none" stroke="rgba(255, 255, 255, 0.5)" stroke-width="3.4802784222737815" data-type="pcb_board" data-pcb-layer="board"/><path class="pcb-trace" stroke="rgb(77, 127, 196)" fill="none" d="M 444.199535962877 476.79814385150803 L 444.199535962877 476.7981438515081" stroke-width="5.220417633410672" stroke-linecap="round" stroke-linejoin="round" shape-rendering="crispEdges" data-type="pcb_trace" data-pcb-layer="bottom"/><path class="pcb-copper-pour pcb-copper-pour-brep" d="M 658.2366589327146 136.4600345108424 L 658.2366589327146 463.53996548915774 L 657.6527610346704 461.6151120801786 L 653.9863813697762 454.7557981795007 L 649.052264404385 448.74355926150827 L 643.0400254863926 443.80944229611714 L 636.1807115857147 440.14306263122273 L 628.7379222888069 437.88531718121754 L 620.997679814385 437.122969837587 L 613.2574373399633 437.88531718121754 L 605.8146480430555 440.14306263122273 L 598.9553341423778 443.80944229611714 L 592.9430952243852 448.7435592615082 L 588.0089782589941 454.7557981795007 L 584.3425985940997 461.6151120801786 L 582.0848531440945 469.0579013770863 L 581.322505800464 476.79814385150814 L 582.0848531440945 484.5383863259299 L 584.3425985940997 491.98117562283767 L 588.0089782589941 498.84048952351554 L 592.9430952243852 504.852728441508 L 598.9553341423776 509.78684540689915 L 605.8146480430555 513.4532250717934 L 607.7395014520343 514.0371229698376 L 545.8567862509817 514.0371229698376 L 547.7816396599605 513.4532250717934 L 554.6409535606384 509.78684540689915 L 560.6531924786309 504.852728441508 L 565.587309444022 498.84048952351554 L 569.2536891089164 491.98117562283767 L 571.5114345589216 484.53838632592993 L 572.2737819025522 476.79814385150814 L 571.5114345589216 469.0579013770863 L 569.2536891089164 461.6151120801786 L 565.587309444022 454.7557981795007 L 560.653192478631 448.74355926150827 L 554.6409535606385 443.80944229611714 L 547.7816396599605 440.14306263122273 L 540.3388503630529 437.88531718121754 L 532.598607888631 437.122969837587 L 524.8583654142093 437.88531718121754 L 517.4155761173015 440.14306263122273 L 510.5562622166236 443.80944229611714 L 504.54402329863115 448.7435592615082 L 499.6099063332401 454.7557981795007 L 495.94352666834567 461.6151120801786 L 493.6857812183405 469.0579013770863 L 492.92343387471 476.79814385150814 L 493.6857812183405 484.5383863259299 L 495.94352666834567 491.98117562283767 L 499.60990633324 498.84048952351554 L 504.54402329863115 504.852728441508 L 510.5562622166236 509.78684540689915 L 517.4155761173015 513.4532250717934 L 519.3404295262804 514.0371229698376 L 369.0586423994735 514.0371229698376 L 370.9834958084525 513.4532250717934 L 377.84280970913034 509.78684540689915 L 383.85504862712287 504.852728441508 L 388.78916559251394 498.84048952351554 L 392.45554525740835 491.98117562283767 L 394.71329070741353 484.5383863259299 L 395.4756380510441 476.7981438515081 L 394.71329070741353 469.0579013770863 L 392.45554525740835 461.6151120801785 L 388.78916559251394 454.75579817950063 L 383.85504862712287 448.7435592615082 L 377.8428097091304 443.8094422961171 L 370.9834958084525 440.14306263122273 L 363.5407065115447 437.8853171812175 L 355.800464037123 437.122969837587 L 348.06022156270114 437.8853171812175 L 340.6174322657934 440.14306263122273 L 333.75811836511554 443.8094422961171 L 327.74587944712306 448.74355926150815 L 322.811762481732 454.75579817950063 L 319.1453828168376 461.6151120801785 L 316.8876373668324 469.0579013770863 L 316.12529002320184 476.7981438515081 L 316.8876373668324 484.5383863259299 L 319.1453828168376 491.98117562283767 L 322.81176248173193 498.8404895235155 L 327.74587944712306 504.852728441508 L 333.75811836511554 509.78684540689915 L 340.6174322657934 513.4532250717934 L 342.54228567477236 514.0371229698376 L 280.6595704737194 514.0371229698376 L 282.58442388269845 513.4532250717934 L 289.4437377833763 509.7868454068991 L 295.4559767013688 504.852728441508 L 300.3900936667599 498.8404895235155 L 304.0564733316543 491.98117562283767 L 306.3142187816595 484.5383863259299 L 307.07656612529 476.79814385150803 L 306.3142187816595 469.0579013770863 L 304.0564733316543 461.6151120801785 L 300.3900936667599 454.75579817950063 L 295.45597670136885 448.74355926150815 L 289.4437377833763 443.8094422961171 L 282.58442388269845 440.1430626312227 L 275.1416345857907 437.8853171812175 L 267.4013921113689 437.122969837587 L 259.66114963694713 437.8853171812175 L 252.21836034003937 440.1430626312227 L 245.35904643936152 443.809442296117 L 239.34680752136902 448.74355926150815 L 234.4126905559779 454.75579817950063 L 230.74631089108354 461.6151120801785 L 228.48856544107835 469.05790137708624 L 227.72621809744783 476.79814385150803 L 228.48856544107835 484.5383863259299 L 230.74631089108354 491.9811756228376 L 234.4126905559779 498.84048952351543 L 239.346807521369 504.85272844150796 L 245.3590464393615 509.78684540689903 L 252.21836034003934 513.4532250717934 L 254.14321374901846 514.0371229698376 L 192.26049854796543 514.0371229698376 L 194.18535195694446 513.4532250717934 L 201.0446658576223 509.7868454068991 L 207.05690477561478 504.852728441508 L 211.9910217410059 498.8404895235155 L 215.6574014059003 491.98117562283767 L 217.91514685590548 484.5383863259299 L 218.677494199536 476.79814385150803 L 217.91514685590548 469.0579013770863 L 215.6574014059003 461.6151120801785 L 211.9910217410059 454.75579817950063 L 207.0569047756148 448.74355926150815 L 201.04466585762233 443.8094422961171 L 194.18535195694446 440.1430626312227 L 186.7425626600367 437.8853171812175 L 179.0023201856149 437.122969837587 L 171.26207771119311 437.8853171812175 L 163.81928841428535 440.1430626312227 L 156.9599745136075 443.809442296117 L 150.947735595615 448.74355926150815 L 146.01361863022387 454.75579817950063 L 142.3472389653295 461.6151120801785 L 141.7633410672854 463.53996548915757 L 141.7633410672854 136.4600345108424 L 142.3472389653295 138.38488791982147 L 146.01361863022387 145.2442018204993 L 150.94773559561497 151.2564407384918 L 156.95997451360748 156.19055770388292 L 163.81928841428532 159.8569373687773 L 171.2620777111931 162.11468281878248 L 179.0023201856149 162.877030162413 L 186.7425626600367 162.11468281878248 L 194.18535195694446 159.8569373687773 L 201.0446658576223 156.19055770388292 L 207.05690477561478 151.25644073849182 L 211.9910217410059 145.24420182049934 L 215.6574014059003 138.3848879198215 L 217.91514685590548 130.94209862291373 L 218.677494199536 123.20185614849191 L 217.91514685590548 115.46161367407012 L 215.6574014059003 108.01882437716236 L 211.9910217410059 101.15951047648448 L 207.0569047756148 95.14727155849201 L 201.04466585762233 90.21315459310088 L 194.18535195694446 86.54677492820653 L 192.26049854796548 85.96287703016247 L 254.14321374901837 85.96287703016247 L 252.2183603400394 86.54677492820653 L 245.35904643936155 90.21315459310088 L 239.34680752136904 95.14727155849198 L 234.41269055597795 101.15951047648448 L 230.74631089108357 108.01882437716236 L 228.48856544107838 115.4616136740701 L 227.72621809744786 123.20185614849191 L 228.48856544107838 130.9420986229137 L 230.74631089108357 138.38488791982147 L 234.41269055597795 145.2442018204993 L 239.34680752136902 151.2564407384918 L 245.35904643936152 156.19055770388292 L 252.21836034003937 159.8569373687773 L 259.66114963694713 162.11468281878248 L 267.401392111369 162.877030162413 L 275.1416345857907 162.11468281878248 L 282.5844238826985 159.8569373687773 L 289.4437377833763 156.19055770388292 L 295.45597670136885 151.25644073849182 L 300.3900936667599 145.24420182049934 L 304.05647333165433 138.3848879198215 L 306.3142187816595 130.94209862291373 L 307.07656612529 123.20185614849191 L 306.3142187816595 115.46161367407012 L 304.05647333165433 108.01882437716236 L 300.3900936667599 101.15951047648448 L 295.45597670136885 95.14727155849201 L 289.4437377833764 90.21315459310088 L 282.5844238826985 86.54677492820653 L 280.6595704737196 85.96287703016247 L 342.5422856747725 85.96287703016247 L 340.61743226579347 86.54677492820653 L 333.7581183651156 90.21315459310088 L 327.7458794471231 95.14727155849198 L 322.811762481732 101.15951047648448 L 319.1453828168376 108.01882437716236 L 316.88763736683245 115.4616136740701 L 316.1252900232019 123.20185614849191 L 316.88763736683245 130.9420986229137 L 319.1453828168376 138.38488791982147 L 322.811762481732 145.2442018204993 L 327.74587944712306 151.2564407384918 L 333.7581183651156 156.19055770388292 L 340.6174322657934 159.8569373687773 L 348.0602215627012 162.11468281878248 L 355.800464037123 162.877030162413 L 363.5407065115448 162.11468281878248 L 370.9834958084525 159.8569373687773 L 377.8428097091304 156.19055770388292 L 383.85504862712287 151.25644073849182 L 388.789165592514 145.24420182049934 L 392.45554525740835 138.3848879198215 L 394.71329070741353 130.94209862291373 L 395.4756380510441 123.20185614849191 L 394.71329070741353 115.46161367407012 L 392.4555452574084 108.01882437716236 L 388.789165592514 101.15951047648448 L 383.8550486271229 95.14727155849201 L 377.8428097091304 90.21315459310088 L 370.9834958084525 86.54677492820653 L 369.0586423994736 85.96287703016247 L 519.3404295262806 85.96287703016247 L 517.4155761173015 86.54677492820653 L 510.5562622166237 90.21315459310088 L 504.54402329863115 95.14727155849198 L 499.6099063332401 101.15951047648448 L 495.9435266683457 108.01882437716236 L 493.6857812183405 115.4616136740701 L 492.92343387471 123.20185614849191 L 493.6857812183405 130.9420986229137 L 495.9435266683457 138.38488791982147 L 499.6099063332401 145.2442018204993 L 504.54402329863115 151.2564407384918 L 510.5562622166237 156.19055770388292 L 517.4155761173015 159.8569373687773 L 524.8583654142093 162.11468281878248 L 532.598607888631 162.877030162413 L 540.3388503630529 162.11468281878248 L 547.7816396599607 159.8569373687773 L 554.6409535606385 156.19055770388292 L 560.653192478631 151.25644073849182 L 565.5873094440221 145.24420182049934 L 569.2536891089164 138.3848879198215 L 571.5114345589217 130.94209862291373 L 572.2737819025522 123.20185614849191 L 571.5114345589217 115.46161367407012 L 569.2536891089164 108.01882437716236 L 565.5873094440221 101.15951047648448 L 560.653192478631 95.14727155849201 L 554.6409535606385 90.21315459310088 L 547.7816396599607 86.54677492820653 L 545.8567862509816 85.96287703016247 L 607.7395014520346 85.96287703016247 L 605.8146480430555 86.54677492820653 L 598.9553341423778 90.21315459310088 L 592.9430952243852 95.14727155849198 L 588.0089782589941 101.15951047648448 L 584.3425985940997 108.01882437716236 L 582.0848531440945 115.4616136740701 L 581.322505800464 123.20185614849191 L 582.0848531440945 130.9420986229137 L 584.3425985940997 138.38488791982147 L 588.0089782589941 145.2442018204993 L 592.9430952243852 151.2564407384918 L 598.9553341423776 156.19055770388292 L 605.8146480430555 159.8569373687773 L 613.2574373399633 162.11468281878248 L 620.997679814385 162.877030162413 L 628.7379222888069 162.11468281878248 L 636.1807115857147 159.8569373687773 L 643.0400254863926 156.19055770388292 L 649.052264404385 151.25644073849182 L 653.9863813697762 145.24420182049934 L 657.6527610346704 138.3848879198215 L 658.2366589327146 136.4600345108424 Z" fill="rgb(77, 127, 196)" fill-rule="evenodd" fill-opacity="0.5" data-type="pcb_copper_pour" data-pcb-layer="bottom"/><path class="pcb-copper-pour pcb-copper-pour-brep" d="M 141.7633410672854 490.05632221385855 L 142.3472389653295 491.9811756228376 L 146.01361863022387 498.84048952351543 L 150.94773559561497 504.85272844150796 L 156.95997451360748 509.78684540689903 L 163.81928841428532 513.4532250717934 L 165.74414182326439 514.0371229698376 L 141.7633410672854 514.0371229698376 L 141.7633410672854 490.05632221385855 Z" fill="rgb(77, 127, 196)" fill-rule="evenodd" fill-opacity="0.5" data-type="pcb_copper_pour" data-pcb-layer="bottom"/><path class="pcb-copper-pour pcb-copper-pour-brep" d="M 165.74414182326436 85.96287703016247 L 163.81928841428535 86.54677492820653 L 156.9599745136075 90.21315459310088 L 150.947735595615 95.14727155849198 L 146.01361863022387 101.15951047648448 L 142.3472389653295 108.01882437716236 L 141.7633410672854 109.94367778614131 L 141.7633410672854 85.96287703016247 L 165.74414182326436 85.96287703016247 Z" fill="rgb(77, 127, 196)" fill-rule="evenodd" fill-opacity="0.5" data-type="pcb_copper_pour" data-pcb-layer="bottom"/><path class="pcb-copper-pour pcb-copper-pour-brep" d="M 658.2366589327146 109.94367778614145 L 657.6527610346704 108.01882437716236 L 653.9863813697762 101.15951047648448 L 649.052264404385 95.14727155849201 L 643.0400254863926 90.21315459310088 L 636.1807115857147 86.54677492820653 L 634.2558581767356 85.96287703016247 L 658.2366589327146 85.96287703016247 L 658.2366589327146 109.94367778614145 Z" fill="rgb(77, 127, 196)" fill-rule="evenodd" fill-opacity="0.5" data-type="pcb_copper_pour" data-pcb-layer="bottom"/><path class="pcb-copper-pour pcb-copper-pour-brep" d="M 634.2558581767357 514.0371229698376 L 636.1807115857147 513.4532250717934 L 643.0400254863926 509.78684540689915 L 649.052264404385 504.852728441508 L 653.9863813697762 498.84048952351554 L 657.6527610346704 491.98117562283767 L 658.2366589327146 490.05632221385855 L 658.2366589327146 514.0371229698376 L 634.2558581767357 514.0371229698376 Z" fill="rgb(77, 127, 196)" fill-rule="evenodd" fill-opacity="0.5" data-type="pcb_copper_pour" data-pcb-layer="bottom"/><text x="0" y="0" dx="0" dy="0" fill="#5da9e9" font-family="Arial, sans-serif" font-size="20.046403712296982" text-anchor="end" dominant-baseline="central" transform="matrix(1.8369701987210297e-16,-1,-1,-1.8369701987210297e-16,620.997679814385,427.7262180974478)" class="pcb-silkscreen-text pcb-silkscreen-bottom" data-pcb-silkscreen-text-id="pcb_component_12" stroke="none" data-type="pcb_silkscreen_text" data-pcb-layer="bottom">LV4</text><text x="0" y="0" dx="0" dy="0" fill="#5da9e9" font-family="Arial, sans-serif" font-size="20.046403712296982" text-anchor="end" dominant-baseline="central" transform="matrix(1.8369701987210297e-16,-1,-1,-1.8369701987210297e-16,532.598607888631,427.7262180974478)" class="pcb-silkscreen-text pcb-silkscreen-bottom" data-pcb-silkscreen-text-id="pcb_component_12" stroke="none" data-type="pcb_silkscreen_text" data-pcb-layer="bottom">LV3</text><text x="0" y="0" dx="0" dy="0" fill="#5da9e9" font-family="Arial, sans-serif" font-size="20.046403712296982" text-anchor="end" dominant-baseline="central" transform="matrix(1.8369701987210297e-16,-1,-1,-1.8369701987210297e-16,444.199535962877,427.72621809744777)" class="pcb-silkscreen-text pcb-silkscreen-bottom" data-pcb-silkscreen-text-id="pcb_component_12" stroke="none" data-type="pcb_silkscreen_text" data-pcb-layer="bottom">GND</text><text x="0" y="0" dx="0" dy="0" fill="#5da9e9" font-family="Arial, sans-serif" font-size="20.046403712296982" text-anchor="end" dominant-baseline="central" transform="matrix(1.8369701987210297e-16,-1,-1,-1.8369701987210297e-16,355.800464037123,427.72621809744777)" class="pcb-silkscreen-text pcb-silkscreen-bottom" data-pcb-silkscreen-text-id="pcb_component_12" stroke="none" data-type="pcb_silkscreen_text" data-pcb-layer="bottom">LV</text><text x="0" y="0" dx="0" dy="0" fill="#5da9e9" font-family="Arial, sans-serif" font-size="20.046403712296982" text-anchor="end" dominant-baseline="central" transform="matrix(1.8369701987210297e-16,-1,-1,-1.8369701987210297e-16,267.4013921113689,427.72621809744777)" class="pcb-silkscreen-text pcb-silkscreen-bottom" data-pcb-silkscreen-text-id="pcb_component_12" stroke="none" data-type="pcb_silkscreen_text" data-pcb-layer="bottom">LV2</text><text x="0" y="0" dx="0" dy="0" fill="#5da9e9" font-family="Arial, sans-serif" font-size="20.046403712296982" text-anchor="end" dominant-baseline="central" transform="matrix(1.8369701987210297e-16,-1,-1,-1.8369701987210297e-16,179.0023201856149,427.7262180974477)" class="pcb-silkscreen-text pcb-silkscreen-bottom" data-pcb-silkscreen-text-id="pcb_component_12" stroke="none" data-type="pcb_silkscreen_text" data-pcb-layer="bottom">LV1</text><text x="0" y="0" dx="0" dy="0" fill="#5da9e9" font-family="Arial, sans-serif" font-size="20.046403712296982" text-anchor="middle" dominant-baseline="central" transform="matrix(-1,0,0,1,179.0023201856149,74.1299303944316)" class="pcb-silkscreen-text pcb-silkscreen-bottom" data-pcb-silkscreen-text-id="pcb_component_13" stroke="none" data-type="pcb_silkscreen_text" data-pcb-layer="bottom">HV1</text><text x="0" y="0" dx="0" dy="0" fill="#5da9e9" font-family="Arial, sans-serif" font-size="20.046403712296982" text-anchor="middle" dominant-baseline="central" transform="matrix(-1,0,0,1,267.401392111369,74.1299303944316)" class="pcb-silkscreen-text pcb-silkscreen-bottom" data-pcb-silkscreen-text-id="pcb_component_13" stroke="none" data-type="pcb_silkscreen_text" data-pcb-layer="bottom">HV2</text><text x="0" y="0" dx="0" dy="0" fill="#5da9e9" font-family="Arial, sans-serif" font-size="20.046403712296982" text-anchor="middle" dominant-baseline="central" transform="matrix(-1,0,0,1,355.800464037123,74.1299303944316)" class="pcb-silkscreen-text pcb-silkscreen-bottom" data-pcb-silkscreen-text-id="pcb_component_13" stroke="none" data-type="pcb_silkscreen_text" data-pcb-layer="bottom">HV</text><text x="0" y="0" dx="0" dy="0" fill="#5da9e9" font-family="Arial, sans-serif" font-size="20.046403712296982" text-anchor="middle" dominant-baseline="central" transform="matrix(-1,0,0,1,444.199535962877,74.1299303944316)" class="pcb-silkscreen-text pcb-silkscreen-bottom" data-pcb-silkscreen-text-id="pcb_component_13" stroke="none" data-type="pcb_silkscreen_text" data-pcb-layer="bottom">GND</text><text x="0" y="0" dx="0" dy="0" fill="#5da9e9" font-family="Arial, sans-serif" font-size="20.046403712296982" text-anchor="middle" dominant-baseline="central" transform="matrix(-1,0,0,1,532.598607888631,74.1299303944316)" class="pcb-silkscreen-text pcb-silkscreen-bottom" data-pcb-silkscreen-text-id="pcb_component_13" stroke="none" data-type="pcb_silkscreen_text" data-pcb-layer="bottom">HV3</text><text x="0" y="0" dx="0" dy="0" fill="#5da9e9" font-family="Arial, sans-serif" font-size="20.046403712296982" text-anchor="middle" dominant-baseline="central" transform="matrix(-1,0,0,1,620.997679814385,74.1299303944316)" class="pcb-silkscreen-text pcb-silkscreen-bottom" data-pcb-silkscreen-text-id="pcb_component_13" stroke="none" data-type="pcb_silkscreen_text" data-pcb-layer="bottom">HV4</text><rect class="pcb-pad" fill="rgb(200, 52, 52)" x="157.6000208816734" y="324.36455220417815" width="20.881628770301617" height="37.23899303944315" data-type="pcb_smtpad" data-pcb-layer="top"/><rect class="pcb-pad" fill="rgb(200, 52, 52)" x="223.7225266821318" y="324.36455220417815" width="20.881628770301617" height="37.23899303944315" data-type="pcb_smtpad" data-pcb-layer="top"/><rect class="pcb-pad" fill="rgb(200, 52, 52)" x="190.6612737819026" y="238.3964547563827" width="20.881628770301617" height="37.23899303944315" data-type="pcb_smtpad" data-pcb-layer="top"/><rect class="pcb-pad" fill="rgb(200, 52, 52)" x="290.1986287703045" y="324.36455220417815" width="20.881628770301617" height="37.23899303944315" data-type="pcb_smtpad" data-pcb-layer="top"/><rect class="pcb-pad" fill="rgb(200, 52, 52)" x="356.32113457076287" y="324.36455220417815" width="20.881628770301617" height="37.23899303944315" data-type="pcb_smtpad" data-pcb-layer="top"/><rect class="pcb-pad" fill="rgb(200, 52, 52)" x="323.2598816705337" y="238.3964547563827" width="20.881628770301617" height="37.23899303944315" data-type="pcb_smtpad" data-pcb-layer="top"/><rect class="pcb-pad" fill="rgb(200, 52, 52)" x="422.7972366589355" y="324.36455220417815" width="20.881628770301617" height="37.23899303944315" data-type="pcb_smtpad" data-pcb-layer="top"/><rect class="pcb-pad" fill="rgb(200, 52, 52)" x="488.91974245939394" y="324.36455220417815" width="20.881628770301617" height="37.23899303944315" data-type="pcb_smtpad" data-pcb-layer="top"/><rect class="pcb-pad" fill="rgb(200, 52, 52)" x="455.8584895591647" y="238.3964547563827" width="20.881628770301617" height="37.23899303944315" data-type="pcb_smtpad" data-pcb-layer="top"/><rect class="pcb-pad" fill="rgb(200, 52, 52)" x="555.3958445475666" y="324.36455220417815" width="20.881628770301617" height="37.23899303944315" data-type="pcb_smtpad" data-pcb-layer="top"/><rect class="pcb-pad" fill="rgb(200, 52, 52)" x="621.518350348025" y="324.36455220417815" width="20.881628770301617" height="37.23899303944315" data-type="pcb_smtpad" data-pcb-layer="top"/><rect class="pcb-pad" fill="rgb(200, 52, 52)" x="588.4570974477958" y="238.3964547563827" width="20.881628770301617" height="37.23899303944315" data-type="pcb_smtpad" data-pcb-layer="top"/><rect class="pcb-pad" fill="rgb(200, 52, 52)" x="158.46867749419957" y="195.0696055684455" width="27.842227378190252" height="33.06264501160092" data-type="pcb_smtpad" data-pcb-layer="top"/><rect class="pcb-pad" fill="rgb(200, 52, 52)" x="215.89327146171698" y="195.0696055684455" width="27.842227378190252" height="33.06264501160092" data-type="pcb_smtpad" data-pcb-layer="top"/><rect class="pcb-pad" fill="rgb(200, 52, 52)" x="291.0672853828306" y="195.0696055684455" width="27.842227378190252" height="33.06264501160092" data-type="pcb_smtpad" data-pcb-layer="top"/><rect class="pcb-pad" fill="rgb(200, 52, 52)" x="348.49187935034803" y="195.0696055684455" width="27.842227378190252" height="33.06264501160092" data-type="pcb_smtpad" data-pcb-layer="top"/><rect class="pcb-pad" fill="rgb(200, 52, 52)" x="423.6658932714617" y="195.0696055684455" width="27.842227378190252" height="33.06264501160092" data-type="pcb_smtpad" data-pcb-layer="top"/><rect class="pcb-pad" fill="rgb(200, 52, 52)" x="481.0904872389791" y="195.0696055684455" width="27.842227378190252" height="33.06264501160092" data-type="pcb_smtpad" data-pcb-layer="top"/><rect class="pcb-pad" fill="rgb(200, 52, 52)" x="556.2645011600928" y="195.0696055684455" width="27.842227378190252" height="33.06264501160092" data-type="pcb_smtpad" data-pcb-layer="top"/><rect class="pcb-pad" fill="rgb(200, 52, 52)" x="613.6890951276101" y="195.0696055684455" width="27.842227378190252" height="33.06264501160092" data-type="pcb_smtpad" data-pcb-layer="top"/><rect class="pcb-pad" fill="rgb(200, 52, 52)" x="158.46867749419957" y="371.86774941995355" width="27.842227378190252" height="33.06264501160092" data-type="pcb_smtpad" data-pcb-layer="top"/><rect class="pcb-pad" fill="rgb(200, 52, 52)" x="215.89327146171698" y="371.86774941995355" width="27.842227378190252" height="33.06264501160092" data-type="pcb_smtpad" data-pcb-layer="top"/><rect class="pcb-pad" fill="rgb(200, 52, 52)" x="291.0672853828306" y="371.86774941995355" width="27.842227378190252" height="33.06264501160092" data-type="pcb_smtpad" data-pcb-layer="top"/><rect class="pcb-pad" fill="rgb(200, 52, 52)" x="348.49187935034803" y="371.86774941995355" width="27.842227378190252" height="33.06264501160092" data-type="pcb_smtpad" data-pcb-layer="top"/><rect class="pcb-pad" fill="rgb(200, 52, 52)" x="423.6658932714617" y="371.86774941995355" width="27.842227378190252" height="33.06264501160092" data-type="pcb_smtpad" data-pcb-layer="top"/><rect class="pcb-pad" fill="rgb(200, 52, 52)" x="481.0904872389791" y="371.86774941995355" width="27.842227378190252" height="33.06264501160092" data-type="pcb_smtpad" data-pcb-layer="top"/><rect class="pcb-pad" fill="rgb(200, 52, 52)" x="556.2645011600928" y="371.86774941995355" width="27.842227378190252" height="33.06264501160092" data-type="pcb_smtpad" data-pcb-layer="top"/><rect class="pcb-pad" fill="rgb(200, 52, 52)" x="613.6890951276101" y="371.86774941995355" width="27.842227378190252" height="33.06264501160092" data-type="pcb_smtpad" data-pcb-layer="top"/><path class="pcb-trace" stroke="rgb(200, 52, 52)" fill="none" d="M 355.800464037123 123.20185614849191 L 396.1168366785413 163.51822878991024" stroke-width="5.220417633410672" stroke-linecap="round" stroke-linejoin="round" shape-rendering="crispEdges" data-type="pcb_trace" data-pcb-layer="top"/><path class="pcb-trace" stroke="rgb(200, 52, 52)" fill="none" d="M 396.1168366785413 163.51822878991024 L 396.1168366785413 233.78477160997278" stroke-width="5.220417633410672" stroke-linecap="round" stroke-linejoin="round" shape-rendering="crispEdges" data-type="pcb_trace" data-pcb-layer="top"/><path class="pcb-trace" stroke="rgb(200, 52, 52)" fill="none" d="M 396.1168366785413 233.78477160997278 L 396.1168366785413 233.78477160997278" stroke-width="5.220417633410672" stroke-linecap="round" stroke-linejoin="round" shape-rendering="crispEdges" data-type="pcb_trace" data-pcb-layer="top"/><path class="pcb-trace" stroke="rgb(200, 52, 52)" fill="none" d="M 396.1168366785413 233.78477160997278 L 334.60010382068236 295.3015044678317" stroke-width="5.220417633410672" stroke-linecap="round" stroke-linejoin="round" shape-rendering="crispEdges" data-type="pcb_trace" data-pcb-layer="top"/><path class="pcb-trace" stroke="rgb(200, 52, 52)" fill="none" d="M 334.60010382068236 295.3015044678317 L 326.81425602868256 295.3015044678317" stroke-width="5.220417633410672" stroke-linecap="round" stroke-linejoin="round" shape-rendering="crispEdges" data-type="pcb_trace" data-pcb-layer="top"/><path class="pcb-trace" stroke="rgb(200, 52, 52)" fill="none" d="M 326.81425602868256 295.3015044678317 L 304.98839907192576 273.47564751107495" stroke-width="5.220417633410672" stroke-linecap="round" stroke-linejoin="round" shape-rendering="crispEdges" data-type="pcb_trace" data-pcb-layer="top"/><path class="pcb-trace" stroke="rgb(200, 52, 52)" fill="none" d="M 304.98839907192576 273.47564751107495 L 304.98839907192576 211.60092807424596" stroke-width="5.220417633410672" stroke-linecap="round" stroke-linejoin="round" shape-rendering="crispEdges" data-type="pcb_trace" data-pcb-layer="top"/><path class="pcb-trace" stroke="rgb(200, 52, 52)" fill="none" d="M 304.98839907192576 211.60092807424596 L 304.98839907192576 211.60092807424596" stroke-width="5.220417633410672" stroke-linecap="round" stroke-linejoin="round" shape-rendering="crispEdges" data-type="pcb_trace" data-pcb-layer="top"/><path class="pcb-trace" stroke="rgb(200, 52, 52)" fill="none" d="M 355.800464037123 123.20185614849191 L 355.800464037123 129.81438515081211" stroke-width="5.220417633410672" stroke-linecap="round" stroke-linejoin="round" shape-rendering="crispEdges" data-type="pcb_trace" data-pcb-layer="top"/><path class="pcb-trace" stroke="rgb(200, 52, 52)" fill="none" d="M 355.800464037123 129.81438515081211 L 437.58700696055683 211.60092807424596" stroke-width="5.220417633410672" stroke-linecap="round" stroke-linejoin="round" shape-rendering="crispEdges" data-type="pcb_trace" data-pcb-layer="top"/><path class="pcb-trace" stroke="rgb(200, 52, 52)" fill="none" d="M 570.1856148491879 211.60092807424596 L 497.49254502136085 284.293997902073" stroke-width="5.220417633410672" stroke-linecap="round" stroke-linejoin="round" shape-rendering="crispEdges" data-type="pcb_trace" data-pcb-layer="top"/><path class="pcb-trace" stroke="rgb(200, 52, 52)" fill="none" d="M 497.49254502136085 284.293997902073 L 451.0423047414054 284.29399790207304" stroke-width="5.220417633410672" stroke-linecap="round" stroke-linejoin="round" shape-rendering="crispEdges" data-type="pcb_trace" data-pcb-layer="top"/><path class="pcb-trace" stroke="rgb(200, 52, 52)" fill="none" d="M 451.0423047414054 284.29399790207304 L 437.58700696055683 270.8387001212244" stroke-width="5.220417633410672" stroke-linecap="round" stroke-linejoin="round" shape-rendering="crispEdges" data-type="pcb_trace" data-pcb-layer="top"/><path class="pcb-trace" stroke="rgb(200, 52, 52)" fill="none" d="M 437.58700696055683 270.8387001212244 L 437.58700696055683 211.60092807424596" stroke-width="5.220417633410672" stroke-linecap="round" stroke-linejoin="round" shape-rendering="crispEdges" data-type="pcb_trace" data-pcb-layer="top"/><path class="pcb-trace" stroke="rgb(200, 52, 52)" fill="none" d="M 304.98839907192576 211.60092807424596 L 269.8039630080089 211.60092807424596" stroke-width="5.220417633410672" stroke-linecap="round" stroke-linejoin="round" shape-rendering="crispEdges" data-type="pcb_trace" data-pcb-layer="top"/><path class="pcb-trace" stroke="rgb(200, 52, 52)" fill="none" d="M 269.8039630080089 211.60092807424596 L 251.61910435157958 193.41606941781663" stroke-width="5.220417633410672" stroke-linecap="round" stroke-linejoin="round" shape-rendering="crispEdges" data-type="pcb_trace" data-pcb-layer="top"/><path class="pcb-trace" stroke="rgb(200, 52, 52)" fill="none" d="M 251.61910435157958 193.41606941781663 L 239.90719257540593 191.58932714617174" stroke-width="5.220417633410672" stroke-linecap="round" stroke-linejoin="round" shape-rendering="crispEdges" data-type="pcb_trace" data-pcb-layer="top"/><path class="pcb-trace" stroke="rgb(200, 52, 52)" fill="none" d="M 239.90719257540593 191.58932714617174 L 232.9466357308584 191.58932714617174" stroke-width="5.220417633410672" stroke-linecap="round" stroke-linejoin="round" shape-rendering="crispEdges" data-type="pcb_trace" data-pcb-layer="top"/><path class="pcb-trace" stroke="rgb(200, 52, 52)" fill="none" d="M 232.9466357308584 191.58932714617174 L 222.50580046403707 191.58932714617174" stroke-width="5.220417633410672" stroke-linecap="round" stroke-linejoin="round" shape-rendering="crispEdges" data-type="pcb_trace" data-pcb-layer="top"/><path class="pcb-trace" stroke="rgb(200, 52, 52)" fill="none" d="M 222.50580046403707 191.58932714617174 L 215.54524361948953 191.58932714617174" stroke-width="5.220417633410672" stroke-linecap="round" stroke-linejoin="round" shape-rendering="crispEdges" data-type="pcb_trace" data-pcb-layer="top"/><path class="pcb-trace" stroke="rgb(200, 52, 52)" fill="none" d="M 215.54524361948953 191.58932714617174 L 208.58468677494199 191.58932714617174" stroke-width="5.220417633410672" stroke-linecap="round" stroke-linejoin="round" shape-rendering="crispEdges" data-type="pcb_trace" data-pcb-layer="top"/><path class="pcb-trace" stroke="rgb(200, 52, 52)" fill="none" d="M 208.58468677494199 191.58932714617174 L 208.94113940190556 191.58932714617174" stroke-width="5.220417633410672" stroke-linecap="round" stroke-linejoin="round" shape-rendering="crispEdges" data-type="pcb_trace" data-pcb-layer="top"/><path class="pcb-trace" stroke="rgb(200, 52, 52)" fill="none" d="M 208.94113940190556 191.58932714617174 L 192.40139211136895 191.58932714617174" stroke-width="5.220417633410672" stroke-linecap="round" stroke-linejoin="round" shape-rendering="crispEdges" data-type="pcb_trace" data-pcb-layer="top"/><path class="pcb-trace" stroke="rgb(200, 52, 52)" fill="none" d="M 192.40139211136895 191.58932714617174 L 172.3897911832947 211.60092807424596" stroke-width="5.220417633410672" stroke-linecap="round" stroke-linejoin="round" shape-rendering="crispEdges" data-type="pcb_trace" data-pcb-layer="top"/><path class="pcb-trace" stroke="rgb(200, 52, 52)" fill="none" d="M 627.6102088167053 211.60092807424596 L 627.6102088167053 228.30365429234556" stroke-width="5.220417633410672" stroke-linecap="round" stroke-linejoin="round" shape-rendering="crispEdges" data-type="pcb_trace" data-pcb-layer="top"/><path class="pcb-trace" stroke="rgb(200, 52, 52)" fill="none" d="M 627.6102088167053 228.30365429234556 L 598.8979118329466 257.01595127610426" stroke-width="5.220417633410672" stroke-linecap="round" stroke-linejoin="round" shape-rendering="crispEdges" data-type="pcb_trace" data-pcb-layer="top"/><path class="pcb-trace" stroke="rgb(200, 52, 52)" fill="none" d="M 620.997679814385 123.20185614849191 L 620.997679814385 204.98839907192576" stroke-width="5.220417633410672" stroke-linecap="round" stroke-linejoin="round" shape-rendering="crispEdges" data-type="pcb_trace" data-pcb-layer="top"/><path class="pcb-trace" stroke="rgb(200, 52, 52)" fill="none" d="M 620.997679814385 204.98839907192576 L 627.6102088167053 211.60092807424596" stroke-width="5.220417633410672" stroke-linecap="round" stroke-linejoin="round" shape-rendering="crispEdges" data-type="pcb_trace" data-pcb-layer="top"/><path class="pcb-trace" stroke="rgb(200, 52, 52)" fill="none" d="M 627.6102088167053 388.399071925754 L 627.6102088167053 347.3330046403702" stroke-width="5.220417633410672" stroke-linecap="round" stroke-linejoin="round" shape-rendering="crispEdges" data-type="pcb_trace" data-pcb-layer="top"/><path class="pcb-trace" stroke="rgb(200, 52, 52)" fill="none" d="M 627.6102088167053 347.3330046403702 L 631.9591647331758 342.9840487238997" stroke-width="5.220417633410672" stroke-linecap="round" stroke-linejoin="round" shape-rendering="crispEdges" data-type="pcb_trace" data-pcb-layer="top"/><path class="pcb-trace" stroke="rgb(200, 52, 52)" fill="none" d="M 620.997679814385 476.79814385150814 L 620.997679814385 395.01160092807424" stroke-width="5.220417633410672" stroke-linecap="round" stroke-linejoin="round" shape-rendering="crispEdges" data-type="pcb_trace" data-pcb-layer="top"/><path class="pcb-trace" stroke="rgb(200, 52, 52)" fill="none" d="M 620.997679814385 395.01160092807424 L 627.6102088167053 388.399071925754" stroke-width="5.220417633410672" stroke-linecap="round" stroke-linejoin="round" shape-rendering="crispEdges" data-type="pcb_trace" data-pcb-layer="top"/><path class="pcb-trace" stroke="rgb(200, 52, 52)" fill="none" d="M 495.01160092807424 211.60092807424596 L 495.01160092807424 228.30365429234556" stroke-width="5.220417633410672" stroke-linecap="round" stroke-linejoin="round" shape-rendering="crispEdges" data-type="pcb_trace" data-pcb-layer="top"/><path class="pcb-trace" stroke="rgb(200, 52, 52)" fill="none" d="M 495.01160092807424 228.30365429234556 L 466.2993039443155 257.01595127610426" stroke-width="5.220417633410672" stroke-linecap="round" stroke-linejoin="round" shape-rendering="crispEdges" data-type="pcb_trace" data-pcb-layer="top"/><path class="pcb-trace" stroke="rgb(200, 52, 52)" fill="none" d="M 532.598607888631 123.20185614849191 L 532.598607888631 174.0139211136891" stroke-width="5.220417633410672" stroke-linecap="round" stroke-linejoin="round" shape-rendering="crispEdges" data-type="pcb_trace" data-pcb-layer="top"/><path class="pcb-trace" stroke="rgb(200, 52, 52)" fill="none" d="M 532.598607888631 174.0139211136891 L 495.01160092807424 211.60092807424596" stroke-width="5.220417633410672" stroke-linecap="round" stroke-linejoin="round" shape-rendering="crispEdges" data-type="pcb_trace" data-pcb-layer="top"/><path class="pcb-trace" stroke="rgb(200, 52, 52)" fill="none" d="M 495.01160092807424 388.399071925754 L 495.01160092807424 347.33300464037023" stroke-width="5.220417633410672" stroke-linecap="round" stroke-linejoin="round" shape-rendering="crispEdges" data-type="pcb_trace" data-pcb-layer="top"/><path class="pcb-trace" stroke="rgb(200, 52, 52)" fill="none" d="M 495.01160092807424 347.33300464037023 L 499.36055684454476 342.9840487238997" stroke-width="5.220417633410672" stroke-linecap="round" stroke-linejoin="round" shape-rendering="crispEdges" data-type="pcb_trace" data-pcb-layer="top"/><path class="pcb-trace" stroke="rgb(200, 52, 52)" fill="none" d="M 532.598607888631 476.79814385150814 L 532.598607888631 425.9860788863109" stroke-width="5.220417633410672" stroke-linecap="round" stroke-linejoin="round" shape-rendering="crispEdges" data-type="pcb_trace" data-pcb-layer="top"/><path class="pcb-trace" stroke="rgb(200, 52, 52)" fill="none" d="M 532.598607888631 425.9860788863109 L 495.01160092807424 388.399071925754" stroke-width="5.220417633410672" stroke-linecap="round" stroke-linejoin="round" shape-rendering="crispEdges" data-type="pcb_trace" data-pcb-layer="top"/><path class="pcb-trace" stroke="rgb(200, 52, 52)" fill="none" d="M 362.41299303944317 211.60092807424596 L 362.41299303944317 228.30365429234556" stroke-width="5.220417633410672" stroke-linecap="round" stroke-linejoin="round" shape-rendering="crispEdges" data-type="pcb_trace" data-pcb-layer="top"/><path class="pcb-trace" stroke="rgb(200, 52, 52)" fill="none" d="M 362.41299303944317 228.30365429234556 L 333.7006960556845 257.01595127610426" stroke-width="5.220417633410672" stroke-linecap="round" stroke-linejoin="round" shape-rendering="crispEdges" data-type="pcb_trace" data-pcb-layer="top"/><path class="pcb-trace" stroke="rgb(200, 52, 52)" fill="none" d="M 267.401392111369 123.20185614849191 L 274.0139211136891 123.20185614849191" stroke-width="5.220417633410672" stroke-linecap="round" stroke-linejoin="round" shape-rendering="crispEdges" data-type="pcb_trace" data-pcb-layer="top"/><path class="pcb-trace" stroke="rgb(200, 52, 52)" fill="none" d="M 274.0139211136891 123.20185614849191 L 362.41299303944317 211.60092807424596" stroke-width="5.220417633410672" stroke-linecap="round" stroke-linejoin="round" shape-rendering="crispEdges" data-type="pcb_trace" data-pcb-layer="top"/><path class="pcb-trace" stroke="rgb(200, 52, 52)" fill="none" d="M 362.41299303944317 388.399071925754 L 362.41299303944317 347.33300464037023" stroke-width="5.220417633410672" stroke-linecap="round" stroke-linejoin="round" shape-rendering="crispEdges" data-type="pcb_trace" data-pcb-layer="top"/><path class="pcb-trace" stroke="rgb(200, 52, 52)" fill="none" d="M 362.41299303944317 347.33300464037023 L 366.7619489559137 342.9840487238997" stroke-width="5.220417633410672" stroke-linecap="round" stroke-linejoin="round" shape-rendering="crispEdges" data-type="pcb_trace" data-pcb-layer="top"/><path class="pcb-trace" stroke="rgb(200, 52, 52)" fill="none" d="M 267.4013921113689 476.79814385150803 L 274.01392111368915 476.79814385150803" stroke-width="5.220417633410672" stroke-linecap="round" stroke-linejoin="round" shape-rendering="crispEdges" data-type="pcb_trace" data-pcb-layer="top"/><path class="pcb-trace" stroke="rgb(200, 52, 52)" fill="none" d="M 274.01392111368915 476.79814385150803 L 362.41299303944317 388.399071925754" stroke-width="5.220417633410672" stroke-linecap="round" stroke-linejoin="round" shape-rendering="crispEdges" data-type="pcb_trace" data-pcb-layer="top"/><path class="pcb-trace" stroke="rgb(200, 52, 52)" fill="none" d="M 229.81438515081211 211.60092807424596 L 229.81438515081211 228.30365429234556" stroke-width="5.220417633410672" stroke-linecap="round" stroke-linejoin="round" shape-rendering="crispEdges" data-type="pcb_trace" data-pcb-layer="top"/><path class="pcb-trace" stroke="rgb(200, 52, 52)" fill="none" d="M 229.81438515081211 228.30365429234556 L 201.1020881670534 257.01595127610426" stroke-width="5.220417633410672" stroke-linecap="round" stroke-linejoin="round" shape-rendering="crispEdges" data-type="pcb_trace" data-pcb-layer="top"/><path class="pcb-trace" stroke="rgb(200, 52, 52)" fill="none" d="M 179.0023201856149 123.20185614849191 L 149.90931629414027 152.29486003996652" stroke-width="5.220417633410672" stroke-linecap="round" stroke-linejoin="round" shape-rendering="crispEdges" data-type="pcb_trace" data-pcb-layer="top"/><path class="pcb-trace" stroke="rgb(200, 52, 52)" fill="none" d="M 149.90931629414027 152.29486003996652 L 149.90931629414027 232.95760070517517" stroke-width="5.220417633410672" stroke-linecap="round" stroke-linejoin="round" shape-rendering="crispEdges" data-type="pcb_trace" data-pcb-layer="top"/><path class="pcb-trace" stroke="rgb(200, 52, 52)" fill="none" d="M 149.90931629414027 232.95760070517517 L 153.08418014620963 236.13246455724453" stroke-width="5.220417633410672" stroke-linecap="round" stroke-linejoin="round" shape-rendering="crispEdges" data-type="pcb_trace" data-pcb-layer="top"/><path class="pcb-trace" stroke="rgb(200, 52, 52)" fill="none" d="M 153.08418014620963 236.13246455724453 L 205.2828486678135 236.13246455724453" stroke-width="5.220417633410672" stroke-linecap="round" stroke-linejoin="round" shape-rendering="crispEdges" data-type="pcb_trace" data-pcb-layer="top"/><path class="pcb-trace" stroke="rgb(200, 52, 52)" fill="none" d="M 205.2828486678135 236.13246455724453 L 205.2828486678135 236.13246455724453" stroke-width="5.220417633410672" stroke-linecap="round" stroke-linejoin="round" shape-rendering="crispEdges" data-type="pcb_trace" data-pcb-layer="top"/><path class="pcb-trace" stroke="rgb(200, 52, 52)" fill="none" d="M 205.2828486678135 236.13246455724453 L 229.81438515081211 211.60092807424596" stroke-width="5.220417633410672" stroke-linecap="round" stroke-linejoin="round" shape-rendering="crispEdges" data-type="pcb_trace" data-pcb-layer="top"/><path class="pcb-trace" stroke="rgb(200, 52, 52)" fill="none" d="M 229.81438515081211 388.399071925754 L 229.81438515081211 347.3330046403702" stroke-width="5.220417633410672" stroke-linecap="round" stroke-linejoin="round" shape-rendering="crispEdges" data-type="pcb_trace" data-pcb-layer="top"/><path class="pcb-trace" stroke="rgb(200, 52, 52)" fill="none" d="M 229.81438515081211 347.3330046403702 L 234.1633410672826 342.9840487238997" stroke-width="5.220417633410672" stroke-linecap="round" stroke-linejoin="round" shape-rendering="crispEdges" data-type="pcb_trace" data-pcb-layer="top"/><path class="pcb-trace" stroke="rgb(200, 52, 52)" fill="none" d="M 179.0023201856149 476.79814385150803 L 179.0023201856149 439.21113689095125" stroke-width="5.220417633410672" stroke-linecap="round" stroke-linejoin="round" shape-rendering="crispEdges" data-type="pcb_trace" data-pcb-layer="top"/><path class="pcb-trace" stroke="rgb(200, 52, 52)" fill="none" d="M 179.0023201856149 439.21113689095125 L 229.81438515081211 388.399071925754" stroke-width="5.220417633410672" stroke-linecap="round" stroke-linejoin="round" shape-rendering="crispEdges" data-type="pcb_trace" data-pcb-layer="top"/><path class="pcb-trace" stroke="rgb(200, 52, 52)" fill="none" d="M 172.3897911832947 388.399071925754 L 172.3897911832947 347.3330046403702" stroke-width="5.220417633410672" stroke-linecap="round" stroke-linejoin="round" shape-rendering="crispEdges" data-type="pcb_trace" data-pcb-layer="top"/><path class="pcb-trace" stroke="rgb(200, 52, 52)" fill="none" d="M 172.3897911832947 347.3330046403702 L 168.04083526682422 342.9840487238997" stroke-width="5.220417633410672" stroke-linecap="round" stroke-linejoin="round" shape-rendering="crispEdges" data-type="pcb_trace" data-pcb-layer="top"/><path class="pcb-trace" stroke="rgb(200, 52, 52)" fill="none" d="M 304.98839907192576 388.399071925754 L 304.98839907192576 347.3330046403702" stroke-width="5.220417633410672" stroke-linecap="round" stroke-linejoin="round" shape-rendering="crispEdges" data-type="pcb_trace" data-pcb-layer="top"/><path class="pcb-trace" stroke="rgb(200, 52, 52)" fill="none" d="M 304.98839907192576 347.3330046403702 L 300.6394431554553 342.9840487238997" stroke-width="5.220417633410672" stroke-linecap="round" stroke-linejoin="round" shape-rendering="crispEdges" data-type="pcb_trace" data-pcb-layer="top"/><path class="pcb-trace" stroke="rgb(200, 52, 52)" fill="none" d="M 437.58700696055683 388.399071925754 L 437.58700696055683 347.3330046403702" stroke-width="5.220417633410672" stroke-linecap="round" stroke-linejoin="round" shape-rendering="crispEdges" data-type="pcb_trace" data-pcb-layer="top"/><path class="pcb-trace" stroke="rgb(200, 52, 52)" fill="none" d="M 437.58700696055683 347.3330046403702 L 433.2380510440863 342.9840487238997" stroke-width="5.220417633410672" stroke-linecap="round" stroke-linejoin="round" shape-rendering="crispEdges" data-type="pcb_trace" data-pcb-layer="top"/><path class="pcb-trace" stroke="rgb(200, 52, 52)" fill="none" d="M 570.1856148491879 388.399071925754 L 570.1856148491879 347.3330046403702" stroke-width="5.220417633410672" stroke-linecap="round" stroke-linejoin="round" shape-rendering="crispEdges" data-type="pcb_trace" data-pcb-layer="top"/><path class="pcb-trace" stroke="rgb(200, 52, 52)" fill="none" d="M 570.1856148491879 347.3330046403702 L 565.8366589327175 342.9840487238997" stroke-width="5.220417633410672" stroke-linecap="round" stroke-linejoin="round" shape-rendering="crispEdges" data-type="pcb_trace" data-pcb-layer="top"/><path class="pcb-trace" stroke="rgb(200, 52, 52)" fill="none" d="M 355.800464037123 476.7981438515081 L 384.91601680750455 447.6825910811265" stroke-width="5.220417633410672" stroke-linecap="round" stroke-linejoin="round" shape-rendering="crispEdges" data-type="pcb_trace" data-pcb-layer="top"/><path class="pcb-trace" stroke="rgb(200, 52, 52)" fill="none" d="M 384.91601680750455 447.6825910811265 L 384.91601680750455 322.9205186712439" stroke-width="5.220417633410672" stroke-linecap="round" stroke-linejoin="round" shape-rendering="crispEdges" data-type="pcb_trace" data-pcb-layer="top"/><path class="pcb-trace" stroke="rgb(200, 52, 52)" fill="none" d="M 384.91601680750455 322.9205186712439 L 376.55026720696344 314.5547690707027" stroke-width="5.220417633410672" stroke-linecap="round" stroke-linejoin="round" shape-rendering="crispEdges" data-type="pcb_trace" data-pcb-layer="top"/><path class="pcb-trace" stroke="rgb(200, 52, 52)" fill="none" d="M 376.55026720696344 314.5547690707027 L 354.1227251288332 314.5547690707027" stroke-width="5.220417633410672" stroke-linecap="round" stroke-linejoin="round" shape-rendering="crispEdges" data-type="pcb_trace" data-pcb-layer="top"/><path class="pcb-trace" stroke="rgb(200, 52, 52)" fill="none" d="M 354.1227251288332 314.5547690707027 L 304.98839907192576 363.6890951276102" stroke-width="5.220417633410672" stroke-linecap="round" stroke-linejoin="round" shape-rendering="crispEdges" data-type="pcb_trace" data-pcb-layer="top"/><path class="pcb-trace" stroke="rgb(200, 52, 52)" fill="none" d="M 304.98839907192576 363.6890951276102 L 304.98839907192576 388.399071925754" stroke-width="5.220417633410672" stroke-linecap="round" stroke-linejoin="round" shape-rendering="crispEdges" data-type="pcb_trace" data-pcb-layer="top"/><path class="pcb-trace" stroke="rgb(200, 52, 52)" fill="none" d="M 355.800464037123 476.7981438515081 L 355.800464037123 470.1856148491879" stroke-width="5.220417633410672" stroke-linecap="round" stroke-linejoin="round" shape-rendering="crispEdges" data-type="pcb_trace" data-pcb-layer="top"/><path class="pcb-trace" stroke="rgb(200, 52, 52)" fill="none" d="M 355.800464037123 470.1856148491879 L 437.58700696055683 388.399071925754" stroke-width="5.220417633410672" stroke-linecap="round" stroke-linejoin="round" shape-rendering="crispEdges" data-type="pcb_trace" data-pcb-layer="top"/><path class="pcb-trace" stroke="rgb(200, 52, 52)" fill="none" d="M 565.8366589327175 342.9840487238997 L 538.548172704549 315.6955624957312" stroke-width="5.220417633410672" stroke-linecap="round" stroke-linejoin="round" shape-rendering="crispEdges" data-type="pcb_trace" data-pcb-layer="top"/><path class="pcb-trace" stroke="rgb(200, 52, 52)" fill="none" d="M 538.548172704549 315.6955624957312 L 464.03904516132854 315.6955624957312" stroke-width="5.220417633410672" stroke-linecap="round" stroke-linejoin="round" shape-rendering="crispEdges" data-type="pcb_trace" data-pcb-layer="top"/><path class="pcb-trace" stroke="rgb(200, 52, 52)" fill="none" d="M 464.03904516132854 315.6955624957312 L 460.5265372722548 315.6955624957312" stroke-width="5.220417633410672" stroke-linecap="round" stroke-linejoin="round" shape-rendering="crispEdges" data-type="pcb_trace" data-pcb-layer="top"/><path class="pcb-trace" stroke="rgb(200, 52, 52)" fill="none" d="M 460.5265372722548 315.6955624957312 L 433.2380510440863 342.9840487238997" stroke-width="5.220417633410672" stroke-linecap="round" stroke-linejoin="round" shape-rendering="crispEdges" data-type="pcb_trace" data-pcb-layer="top"/><path class="pcb-trace" stroke="rgb(200, 52, 52)" fill="none" d="M 300.6394431554553 342.9840487238997 L 273.44465554841344 315.78926111685786" stroke-width="5.220417633410672" stroke-linecap="round" stroke-linejoin="round" shape-rendering="crispEdges" data-type="pcb_trace" data-pcb-layer="top"/><path class="pcb-trace" stroke="rgb(200, 52, 52)" fill="none" d="M 273.44465554841344 315.78926111685786 L 198.80312224495674 315.78926111685786" stroke-width="5.220417633410672" stroke-linecap="round" stroke-linejoin="round" shape-rendering="crispEdges" data-type="pcb_trace" data-pcb-layer="top"/><path class="pcb-trace" stroke="rgb(200, 52, 52)" fill="none" d="M 198.80312224495674 315.78926111685786 L 195.23562287386605 315.78926111685786" stroke-width="5.220417633410672" stroke-linecap="round" stroke-linejoin="round" shape-rendering="crispEdges" data-type="pcb_trace" data-pcb-layer="top"/><path class="pcb-trace" stroke="rgb(200, 52, 52)" fill="none" d="M 195.23562287386605 315.78926111685786 L 168.04083526682422 342.9840487238997" stroke-width="5.220417633410672" stroke-linecap="round" stroke-linejoin="round" shape-rendering="crispEdges" data-type="pcb_trace" data-pcb-layer="top"/><path class="pcb-copper-pour pcb-copper-pour-brep" d="M 180.0857820306548 317.4039953596306 L 150.63946403712583 317.4039953596306 L 150.63946403712583 368.56410208816885 L 151.508120649652 368.56410208816885 L 151.508120649652 411.8909512761021 L 192.78739920002556 411.8909512761021 L 172.23476688539563 432.443583590732 L 171.04451937181443 433.89390438235296 L 170.1600856807215 435.54856343734104 L 169.61545410286936 437.34397313615654 L 169.5097829876216 438.41686997431555 L 163.81928841428535 440.1430626312227 L 156.9599745136075 443.809442296117 L 150.947735595615 448.74355926150815 L 146.01361863022387 454.75579817950063 L 142.3472389653295 461.6151120801785 L 141.7633410672854 463.53996548915757 L 141.7633410672854 237.922783648483 L 141.95151548033982 238.27483321377343 L 143.14176299392102 239.72515400539444 L 146.31662684599036 242.9000178574638 L 147.76694763761137 244.090265371045 L 149.42160669259945 244.97469906213794 L 151.2170163914149 245.51933063999007 L 153.08418014620963 245.70323021849742 L 183.70071693735503 245.70323021849742 L 183.70071693735503 282.5960046403734 L 218.5034593967518 282.5960046403734 L 218.5034593967518 253.1496866468444 L 236.56033861900218 235.09280742459399 L 250.69605568445482 235.09280742459399 L 250.69605568445482 206.02812735113042 L 263.03640970778963 218.36848137446523 L 264.4867304994106 219.5587288880464 L 266.1413895543987 220.44316257913937 L 267.9367992532142 220.9877941569915 L 269.8039630080089 221.17169373549885 L 284.10672853828305 221.17169373549885 L 284.10672853828305 235.09280742459399 L 295.41763341067286 235.09280742459399 L 295.41763341067286 273.47564751107495 L 295.6015329891802 275.34281126586967 L 296.1461645670324 277.13822096468516 L 297.03059825812534 278.79288001967325 L 298.22084577170654 280.24320081129423 L 320.0467027284633 302.069057768051 L 321.49702352008427 303.2593052816322 L 323.15168257507236 304.14373897272515 L 324.94709227388785 304.68837055057725 L 326.81425602868256 304.87227012908465 L 334.60010382068236 304.87227012908465 L 336.4672675754771 304.68837055057725 L 338.26267727429257 304.14373897272515 L 339.91733632928066 303.2593052816322 L 341.36765712090164 302.069057768051 L 402.88438997876057 240.55232491019206 L 404.07463749234176 239.10200411857107 L 404.95907118343473 237.447345063583 L 405.50370276128683 235.65193536476755 L 405.68760233979424 233.78477160997278 L 405.68760233979424 193.23663005392189 L 416.70533642691413 204.2543641410418 L 416.70533642691413 235.09280742459399 L 428.01624129930394 235.09280742459399 L 428.01624129930394 270.8387001212244 L 428.2001408778113 272.7058638760192 L 428.74477245566345 274.5012735748346 L 429.62920614675636 276.1559326298227 L 430.81945366033756 277.6062534214437 L 444.27475144118614 291.0615512022923 L 445.7250722328072 292.25179871587346 L 447.37973128779527 293.1362324069664 L 449.1751409866107 293.68086398481853 L 451.0423047414054 293.86476356332594 L 497.49254502136085 293.86476356332594 L 499.35970877615557 293.68086398481853 L 501.155118474971 293.1362324069664 L 502.8097775299591 292.25179871587346 L 504.26009832158013 291.0615512022923 L 560.2288420992784 235.09280742459399 L 581.4965406032481 235.09280742459399 L 581.4965406032481 282.5960046403734 L 616.2992830626449 282.5960046403734 L 616.2992830626449 253.1496866468444 L 634.3561622848954 235.09280742459399 L 648.491879350348 235.09280742459399 L 648.491879350348 188.1090487238979 L 630.568445475638 188.1090487238979 L 630.568445475638 161.5593996807909 L 636.1807115857147 159.8569373687773 L 643.0400254863926 156.19055770388292 L 649.052264404385 151.25644073849182 L 653.9863813697762 145.24420182049934 L 657.6527610346704 138.3848879198215 L 658.2366589327146 136.4600345108424 L 658.2366589327146 463.53996548915774 L 657.6527610346704 461.6151120801786 L 653.9863813697762 454.7557981795007 L 649.052264404385 448.74355926150827 L 643.0400254863926 443.80944229611714 L 636.1807115857147 440.14306263122273 L 630.568445475638 438.4406003192091 L 630.568445475638 411.8909512761021 L 648.491879350348 411.8909512761021 L 648.491879350348 368.56410208816885 L 649.3605359628741 368.56410208816885 L 649.3605359628741 317.4039953596306 L 614.5577935034775 317.4039953596306 L 614.5577935034775 364.90719257540604 L 606.7285382830626 364.90719257540604 L 606.7285382830626 411.8909512761021 L 611.4269141531322 411.8909512761021 L 611.4269141531322 438.4406003192091 L 605.8146480430555 440.14306263122273 L 598.9553341423778 443.80944229611714 L 592.9430952243852 448.7435592615082 L 588.0089782589941 454.7557981795007 L 584.3425985940997 461.6151120801786 L 582.0848531440945 469.0579013770863 L 581.322505800464 476.79814385150814 L 582.0848531440945 484.5383863259299 L 584.3425985940997 491.98117562283767 L 588.0089782589941 498.84048952351554 L 592.9430952243852 504.852728441508 L 598.9553341423776 509.78684540689915 L 605.8146480430555 513.4532250717934 L 607.7395014520343 514.0371229698376 L 545.8567862509817 514.0371229698376 L 547.7816396599605 513.4532250717934 L 554.6409535606384 509.78684540689915 L 560.6531924786309 504.852728441508 L 565.587309444022 498.84048952351554 L 569.2536891089164 491.98117562283767 L 571.5114345589216 484.53838632592993 L 572.2737819025522 476.79814385150814 L 571.5114345589216 469.0579013770863 L 569.2536891089164 461.6151120801786 L 565.587309444022 454.7557981795007 L 560.653192478631 448.74355926150827 L 554.6409535606385 443.80944229611714 L 547.7816396599605 440.14306263122273 L 542.169373549884 438.4406003192091 L 542.169373549884 425.9860788863109 L 541.9854739713766 424.11891513151613 L 541.4408423935245 422.3235054327007 L 540.5564087024316 420.6688463777126 L 539.3661611888504 419.2185255860916 L 515.893271461717 395.74563585895817 L 515.893271461717 368.56410208816885 L 516.7619280742431 368.56410208816885 L 516.7619280742431 325.2663281569841 L 534.5838317653634 325.2663281569841 L 548.435287703019 339.1177840946399 L 548.435287703019 368.56410208816885 L 549.3039443155452 368.56410208816885 L 549.3039443155452 411.8909512761021 L 591.0672853828306 411.8909512761021 L 591.0672853828306 364.90719257540604 L 583.2380301624157 364.90719257540604 L 583.2380301624157 317.4039953596306 L 553.7917121688868 317.4039953596306 L 545.3157260047682 308.92800919551195 L 543.8654052131471 307.73776168193075 L 542.210746158159 306.85332799083784 L 540.4153364593437 306.3086964129857 L 538.548172704549 306.12479683447833 L 464.03904516132854 306.12479683447833 L 460.5265372722548 306.12479683447833 L 458.6593735174601 306.3086964129857 L 456.8639638186446 306.85332799083784 L 455.2093047636565 307.73776168193075 L 453.75898397203554 308.92800919551195 L 445.28299780791696 317.4039953596306 L 415.836679814388 317.4039953596306 L 415.836679814388 368.56410208816885 L 416.70533642691413 368.56410208816885 L 416.70533642691413 395.74563585895817 L 394.48678246875744 417.96418981711486 L 394.48678246875744 322.9205186712439 L 394.3028828902501 321.0533549164491 L 393.75825131239793 319.2579452176337 L 392.873817621305 317.6032861626456 L 391.6835701077238 316.1529653710246 L 383.31782050718266 307.78721577048344 L 381.8674997155617 306.59696825690224 L 380.2128406605736 305.71253456580934 L 378.41743096175816 305.1679029879572 L 376.5502672069634 304.9840034094498 L 354.1227251288332 304.9840034094498 L 352.2555613740385 305.1679029879572 L 350.460151675223 305.71253456580934 L 348.805492620235 306.59696825690224 L 347.35517182861395 307.78721577048344 L 318.0408143851537 337.10157321394377 L 318.0408143851537 317.4039953596306 L 288.5944963916247 317.4039953596306 L 280.2122088486327 309.0217078166386 L 278.76188805701173 307.83146030305744 L 277.10722900202364 306.9470266119645 L 275.31181930320815 306.4023950341123 L 273.44465554841344 306.21849545560497 L 198.80312224495674 306.21849545560497 L 195.23562287386605 306.21849545560497 L 193.36845911907133 306.4023950341123 L 191.57304942025584 306.9470266119645 L 189.91839036526775 307.8314603030574 L 188.46806957364677 309.0217078166386 L 180.0857820306548 317.4039953596306 Z" fill="rgb(200, 52, 52)" fill-rule="evenodd" fill-opacity="0.5" data-type="pcb_copper_pour" data-pcb-layer="top"/><path class="pcb-copper-pour pcb-copper-pour-brep" d="M 450.6394222737847 339.1177840946399 L 464.4908782114405 325.2663281569841 L 481.9591856148464 325.2663281569841 L 481.9591856148464 364.90719257540604 L 474.12993039443154 364.90719257540604 L 474.12993039443154 411.8909512761021 L 504.9683736779837 411.8909512761021 L 523.0278422273782 429.9504198254965 L 523.0278422273782 438.4406003192091 L 517.4155761173015 440.14306263122273 L 510.5562622166236 443.80944229611714 L 504.54402329863115 448.7435592615082 L 499.6099063332401 454.7557981795007 L 495.94352666834567 461.6151120801786 L 493.6857812183405 469.0579013770863 L 492.92343387471 476.79814385150814 L 493.6857812183405 484.5383863259299 L 495.94352666834567 491.98117562283767 L 499.60990633324 498.84048952351554 L 504.54402329863115 504.852728441508 L 510.5562622166236 509.78684540689915 L 517.4155761173015 513.4532250717934 L 519.3404295262804 514.0371229698376 L 369.0586423994735 514.0371229698376 L 370.9834958084525 513.4532250717934 L 377.84280970913034 509.78684540689915 L 383.85504862712287 504.852728441508 L 388.78916559251394 498.84048952351554 L 392.45554525740835 491.98117562283767 L 394.71329070741353 484.5383863259299 L 395.4756380510441 476.7981438515081 L 394.71329070741353 469.0579013770863 L 392.45554525740835 461.6151120801785 L 389.69089647868907 456.44281801038056 L 391.6835701077238 454.4501443813458 L 392.873817621305 452.99982358972477 L 393.75825131239793 451.34516453473674 L 394.3028828902501 449.54975483592125 L 394.48678246875744 447.6825910811265 L 394.48678246875744 445.03440301799196 L 427.63023421064736 411.8909512761021 L 458.46867749419954 411.8909512761021 L 458.46867749419954 364.90719257540604 L 450.6394222737847 364.90719257540604 L 450.6394222737847 339.1177840946399 Z" fill="rgb(200, 52, 52)" fill-rule="evenodd" fill-opacity="0.5" data-type="pcb_copper_pour" data-pcb-layer="top"/><path class="pcb-copper-pour pcb-copper-pour-brep" d="M 523.0278422273782 170.04958017450343 L 504.9683736779837 188.1090487238979 L 474.12993039443154 188.1090487238979 L 474.12993039443154 231.43589791183513 L 458.46867749419954 231.43589791183513 L 458.46867749419954 188.1090487238979 L 427.63023421064736 188.1090487238979 L 405.68760233979424 166.16641685304478 L 405.68760233979424 163.51822878991024 L 405.50370276128683 161.6510650351155 L 404.95907118343473 159.85565533630003 L 404.07463749234176 158.20099628131197 L 402.88438997876057 156.75067548969096 L 389.6908964786891 143.55718198961944 L 392.45554525740835 138.3848879198215 L 394.71329070741353 130.94209862291373 L 395.4756380510441 123.20185614849191 L 394.71329070741353 115.46161367407012 L 392.4555452574084 108.01882437716236 L 388.789165592514 101.15951047648448 L 383.8550486271229 95.14727155849201 L 377.8428097091304 90.21315459310088 L 370.9834958084525 86.54677492820653 L 369.0586423994736 85.96287703016247 L 519.3404295262806 85.96287703016247 L 517.4155761173015 86.54677492820653 L 510.5562622166237 90.21315459310088 L 504.54402329863115 95.14727155849198 L 499.6099063332401 101.15951047648448 L 495.9435266683457 108.01882437716236 L 493.6857812183405 115.4616136740701 L 492.92343387471 123.20185614849191 L 493.6857812183405 130.9420986229137 L 495.9435266683457 138.38488791982147 L 499.6099063332401 145.2442018204993 L 504.54402329863115 151.2564407384918 L 510.5562622166237 156.19055770388292 L 517.4155761173015 159.8569373687773 L 523.0278422273782 161.5593996807909 L 523.0278422273782 170.04958017450343 Z" fill="rgb(200, 52, 52)" fill-rule="evenodd" fill-opacity="0.5" data-type="pcb_copper_pour" data-pcb-layer="top"/><path class="pcb-copper-pour pcb-copper-pour-brep" d="M 269.4803146092278 325.36002677811075 L 283.2380719257569 339.1177840946399 L 283.2380719257569 368.56410208816885 L 284.10672853828305 368.56410208816885 L 284.10672853828305 411.8909512761021 L 325.3860070886566 411.8909512761021 L 291.6537807110659 445.6231776536928 L 289.4437377833763 443.8094422961171 L 282.58442388269845 440.1430626312227 L 275.1416345857907 437.8853171812175 L 267.4013921113689 437.122969837587 L 259.66114963694713 437.8853171812175 L 252.21836034003937 440.1430626312227 L 245.35904643936152 443.809442296117 L 239.34680752136902 448.74355926150815 L 234.4126905559779 454.75579817950063 L 230.74631089108354 461.6151120801785 L 228.48856544107835 469.05790137708624 L 227.72621809744783 476.79814385150803 L 228.48856544107835 484.5383863259299 L 230.74631089108354 491.9811756228376 L 234.4126905559779 498.84048952351543 L 239.346807521369 504.85272844150796 L 245.3590464393615 509.78684540689903 L 252.21836034003934 513.4532250717934 L 254.14321374901846 514.0371229698376 L 192.26049854796543 514.0371229698376 L 194.18535195694446 513.4532250717934 L 201.0446658576223 509.7868454068991 L 207.05690477561478 504.852728441508 L 211.9910217410059 498.8404895235155 L 215.6574014059003 491.98117562283767 L 217.91514685590548 484.5383863259299 L 218.677494199536 476.79814385150803 L 217.91514685590548 469.0579013770863 L 215.6574014059003 461.6151120801785 L 211.9910217410059 454.75579817950063 L 207.0569047756148 448.74355926150815 L 201.04466585762233 443.8094422961171 L 194.18535195694446 440.1430626312227 L 192.20594698080868 439.542616696196 L 219.8576124009026 411.8909512761021 L 250.69605568445482 411.8909512761021 L 250.69605568445482 368.56410208816885 L 251.56471229698099 368.56410208816885 L 251.56471229698099 325.36002677811075 L 269.4803146092278 325.36002677811075 Z" fill="rgb(200, 52, 52)" fill-rule="evenodd" fill-opacity="0.5" data-type="pcb_copper_pour" data-pcb-layer="top"/><path class="pcb-copper-pour pcb-copper-pour-brep" d="M 539.3661611888504 180.78147441390837 L 540.5564087024316 179.3311536222874 L 541.4408423935245 177.6764945672993 L 541.9854739713767 175.8810848684838 L 542.169373549884 174.0139211136891 L 542.169373549884 161.5593996807909 L 547.7816396599607 159.8569373687773 L 554.6409535606385 156.19055770388292 L 560.653192478631 151.25644073849182 L 565.5873094440221 145.24420182049934 L 569.2536891089164 138.3848879198215 L 571.5114345589217 130.94209862291373 L 572.2737819025522 123.20185614849191 L 571.5114345589217 115.46161367407012 L 569.2536891089164 108.01882437716236 L 565.5873094440221 101.15951047648448 L 560.653192478631 95.14727155849201 L 554.6409535606385 90.21315459310088 L 547.7816396599607 86.54677492820653 L 545.8567862509816 85.96287703016247 L 607.7395014520346 85.96287703016247 L 605.8146480430555 86.54677492820653 L 598.9553341423778 90.21315459310088 L 592.9430952243852 95.14727155849198 L 588.0089782589941 101.15951047648448 L 584.3425985940997 108.01882437716236 L 582.0848531440945 115.4616136740701 L 581.322505800464 123.20185614849191 L 582.0848531440945 130.9420986229137 L 584.3425985940997 138.38488791982147 L 588.0089782589941 145.2442018204993 L 592.9430952243852 151.2564407384918 L 598.9553341423776 156.19055770388292 L 605.8146480430555 159.8569373687773 L 611.4269141531322 161.55939968079093 L 611.4269141531322 188.1090487238979 L 606.7285382830626 188.1090487238979 L 606.7285382830626 231.43589791183513 L 591.0672853828306 231.43589791183513 L 591.0672853828306 188.1090487238979 L 549.3039443155452 188.1090487238979 L 549.3039443155452 218.94749200745014 L 493.5282040821752 274.7232322408201 L 483.7006751740139 274.7232322408201 L 483.7006751740139 253.14968664684443 L 501.75755439626437 235.09280742459399 L 515.893271461717 235.09280742459399 L 515.893271461717 204.25436414104183 L 539.3661611888504 180.78147441390837 Z" fill="rgb(200, 52, 52)" fill-rule="evenodd" fill-opacity="0.5" data-type="pcb_copper_pour" data-pcb-layer="top"/><path class="pcb-copper-pour pcb-copper-pour-brep" d="M 159.4800819553932 188.1090487238979 L 159.4800819553932 157.53758319530985 L 163.81928841428532 159.8569373687773 L 171.2620777111931 162.11468281878248 L 179.0023201856149 162.877030162413 L 186.7425626600367 162.11468281878248 L 194.18535195694446 159.8569373687773 L 201.0446658576223 156.19055770388292 L 207.05690477561478 151.25644073849182 L 211.9910217410059 145.24420182049934 L 215.6574014059003 138.3848879198215 L 217.91514685590548 130.94209862291373 L 218.677494199536 123.20185614849191 L 217.91514685590548 115.46161367407012 L 215.6574014059003 108.01882437716236 L 211.9910217410059 101.15951047648448 L 207.0569047756148 95.14727155849201 L 201.04466585762233 90.21315459310088 L 194.18535195694446 86.54677492820653 L 192.26049854796548 85.96287703016247 L 254.14321374901837 85.96287703016247 L 252.2183603400394 86.54677492820653 L 245.35904643936155 90.21315459310088 L 239.34680752136904 95.14727155849198 L 234.41269055597795 101.15951047648448 L 230.74631089108357 108.01882437716236 L 228.48856544107838 115.4616136740701 L 227.72621809744786 123.20185614849191 L 228.48856544107838 130.9420986229137 L 230.74631089108357 138.38488791982147 L 234.41269055597795 145.2442018204993 L 239.34680752136902 151.2564407384918 L 245.35904643936152 156.19055770388292 L 252.21836034003937 159.8569373687773 L 259.66114963694713 162.11468281878248 L 267.401392111369 162.877030162413 L 275.1416345857907 162.11468281878248 L 282.5844238826985 159.8569373687773 L 289.4437377833763 156.19055770388292 L 291.6537807110659 154.37682234630722 L 325.3860070886566 188.1090487238979 L 284.10672853828305 188.1090487238979 L 284.10672853828305 202.03016241299306 L 273.76830394719457 202.03016241299306 L 258.3866576517988 186.64851611759735 L 256.93633686017785 185.45826860401615 L 255.28167780518976 184.5738349129232 L 253.48626810637433 184.0292033350711 L 253.08930043845973 183.99010543237074 L 253.09405243963363 183.9596386175536 L 241.38214066345998 182.1328963459087 L 241.3773886622861 182.16336316072588 L 239.90719257540593 182.01856148491882 L 232.9466357308584 182.01856148491882 L 222.50580046403707 182.01856148491882 L 215.54524361948953 182.01856148491882 L 208.94113940190553 182.01856148491882 L 208.58468677494199 182.01856148491882 L 192.40139211136895 182.01856148491882 L 190.53422835657423 182.2024610634262 L 188.73881865775877 182.7470926412783 L 187.08415960277065 183.63152633237127 L 185.6338388111497 184.82177384595246 L 182.34656393320424 188.1090487238979 L 159.4800819553932 188.1090487238979 Z" fill="rgb(200, 52, 52)" fill-rule="evenodd" fill-opacity="0.5" data-type="pcb_copper_pour" data-pcb-layer="top"/><path class="pcb-copper-pour pcb-copper-pour-brep" d="M 352.4562202895337 188.1090487238979 L 303.59514468253957 139.2479731169038 L 304.05647333165433 138.3848879198215 L 306.3142187816595 130.94209862291373 L 307.07656612529 123.20185614849191 L 306.3142187816595 115.46161367407012 L 304.05647333165433 108.01882437716236 L 300.3900936667599 101.15951047648448 L 295.45597670136885 95.14727155849201 L 289.4437377833764 90.21315459310088 L 282.5844238826985 86.54677492820653 L 280.6595704737196 85.96287703016247 L 342.5422856747725 85.96287703016247 L 340.61743226579347 86.54677492820653 L 333.7581183651156 90.21315459310088 L 327.7458794471231 95.14727155849198 L 322.811762481732 101.15951047648448 L 319.1453828168376 108.01882437716236 L 316.88763736683245 115.4616136740701 L 316.1252900232019 123.20185614849191 L 316.88763736683245 130.9420986229137 L 319.1453828168376 138.38488791982147 L 322.811762481732 145.2442018204993 L 327.74587944712306 151.2564407384918 L 333.7581183651156 156.19055770388292 L 340.6174322657934 159.8569373687773 L 348.0602215627012 162.11468281878248 L 355.800464037123 162.877030162413 L 363.5407065115448 162.11468281878248 L 370.9834958084525 159.8569373687773 L 371.84658100553486 159.3956087196625 L 386.5460710172884 174.09509873141607 L 386.5460710172884 229.82043067078712 L 383.29466357308587 233.0718381149897 L 383.29466357308587 188.1090487238979 L 352.4562202895337 188.1090487238979 Z" fill="rgb(200, 52, 52)" fill-rule="evenodd" fill-opacity="0.5" data-type="pcb_copper_pour" data-pcb-layer="top"/><path class="pcb-copper-pour pcb-copper-pour-brep" d="M 371.84658100553486 440.6043912803375 L 370.9834958084525 440.14306263122273 L 363.5407065115447 437.8853171812175 L 355.800464037123 437.122969837587 L 348.06022156270114 437.8853171812175 L 340.6174322657934 440.14306263122273 L 333.75811836511554 443.8094422961171 L 327.74587944712306 448.74355926150815 L 322.811762481732 454.75579817950063 L 319.1453828168376 461.6151120801785 L 316.8876373668324 469.0579013770863 L 316.12529002320184 476.7981438515081 L 316.8876373668324 484.5383863259299 L 319.1453828168376 491.98117562283767 L 322.81176248173193 498.8404895235155 L 327.74587944712306 504.852728441508 L 333.75811836511554 509.78684540689915 L 340.6174322657934 513.4532250717934 L 342.54228567477236 514.0371229698376 L 280.6595704737194 514.0371229698376 L 282.58442388269845 513.4532250717934 L 289.4437377833763 509.7868454068991 L 295.4559767013688 504.852728441508 L 300.3900936667599 498.8404895235155 L 304.0564733316543 491.98117562283767 L 306.3142187816595 484.5383863259299 L 307.07656612529 476.79814385150803 L 306.3142187816595 469.0579013770863 L 304.0564733316543 461.6151120801785 L 303.5951446825395 460.7520268830962 L 352.4562202895337 411.8909512761021 L 375.34525114625166 411.8909512761021 L 375.34525114625166 437.1057211396207 L 371.84658100553486 440.6043912803375 Z" fill="rgb(200, 52, 52)" fill-rule="evenodd" fill-opacity="0.5" data-type="pcb_copper_pour" data-pcb-layer="top"/><path class="pcb-copper-pour pcb-copper-pour-brep" d="M 185.44220649652257 339.11778409463983 L 199.19996381305165 325.36002677811075 L 216.76196983758422 325.36002677811075 L 216.76196983758422 364.90719257540604 L 208.9327146171694 364.90719257540604 L 208.9327146171694 395.7456358589582 L 193.2714617169374 411.4068887591902 L 193.2714617169374 364.90719257540604 L 185.44220649652257 364.90719257540604 L 185.44220649652257 339.11778409463983 Z" fill="rgb(200, 52, 52)" fill-rule="evenodd" fill-opacity="0.5" data-type="pcb_copper_pour" data-pcb-layer="top"/><path class="pcb-copper-pour pcb-copper-pour-brep" d="M 318.0408143851537 364.1717864148209 L 349.3605777262153 332.8520230737592 L 349.3605777262153 364.90719257540604 L 341.53132250580046 364.90719257540604 L 341.53132250580046 395.74563585895817 L 325.87006960556846 411.40688875919017 L 325.87006960556846 364.90719257540604 L 318.0408143851537 364.90719257540604 L 318.0408143851537 364.1717864148209 Z" fill="rgb(200, 52, 52)" fill-rule="evenodd" fill-opacity="0.5" data-type="pcb_copper_pour" data-pcb-layer="top"/><path class="pcb-copper-pour pcb-copper-pour-brep" d="M 325.87006960556846 188.59311124080983 L 341.53132250580046 204.25436414104183 L 341.53132250580046 231.43589791183513 L 325.87006960556846 231.43589791183513 L 325.87006960556846 188.59311124080983 Z" fill="rgb(200, 52, 52)" fill-rule="evenodd" fill-opacity="0.5" data-type="pcb_copper_pour" data-pcb-layer="top"/><path class="pcb-copper-pour pcb-copper-pour-brep" d="M 208.9327146171694 218.9474920074501 L 201.3185077286279 226.56169889599164 L 193.2714617169374 226.56169889599164 L 193.2714617169374 204.25436414104183 L 196.36573305055467 201.16009280742463 L 208.58468677494199 201.16009280742463 L 208.9327146171694 201.16009280742463 L 208.9327146171694 218.9474920074501 Z" fill="rgb(200, 52, 52)" fill-rule="evenodd" fill-opacity="0.5" data-type="pcb_copper_pour" data-pcb-layer="top"/><path class="pcb-copper-pour pcb-copper-pour-brep" d="M 351.1020672853828 253.14968664684443 L 369.1589465076333 235.09280742459399 L 381.27369426348156 235.09280742459399 L 351.1020672853828 265.2644344026927 L 351.1020672853828 253.14968664684443 Z" fill="rgb(200, 52, 52)" fill-rule="evenodd" fill-opacity="0.5" data-type="pcb_copper_pour" data-pcb-layer="top"/><path class="pcb-copper-pour pcb-copper-pour-brep" d="M 141.7633410672854 490.05632221385855 L 142.3472389653295 491.9811756228376 L 146.01361863022387 498.84048952351543 L 150.94773559561497 504.85272844150796 L 156.95997451360748 509.78684540689903 L 163.81928841428532 513.4532250717934 L 165.74414182326439 514.0371229698376 L 141.7633410672854 514.0371229698376 L 141.7633410672854 490.05632221385855 Z" fill="rgb(200, 52, 52)" fill-rule="evenodd" fill-opacity="0.5" data-type="pcb_copper_pour" data-pcb-layer="top"/><path class="pcb-copper-pour pcb-copper-pour-brep" d="M 165.74414182326436 85.96287703016247 L 163.81928841428535 86.54677492820653 L 156.9599745136075 90.21315459310088 L 150.947735595615 95.14727155849198 L 146.01361863022387 101.15951047648448 L 142.3472389653295 108.01882437716236 L 141.7633410672854 109.94367778614131 L 141.7633410672854 85.96287703016247 L 165.74414182326436 85.96287703016247 Z" fill="rgb(200, 52, 52)" fill-rule="evenodd" fill-opacity="0.5" data-type="pcb_copper_pour" data-pcb-layer="top"/><path class="pcb-copper-pour pcb-copper-pour-brep" d="M 658.2366589327146 109.94367778614145 L 657.6527610346704 108.01882437716236 L 653.9863813697762 101.15951047648448 L 649.052264404385 95.14727155849201 L 643.0400254863926 90.21315459310088 L 636.1807115857147 86.54677492820653 L 634.2558581767356 85.96287703016247 L 658.2366589327146 85.96287703016247 L 658.2366589327146 109.94367778614145 Z" fill="rgb(200, 52, 52)" fill-rule="evenodd" fill-opacity="0.5" data-type="pcb_copper_pour" data-pcb-layer="top"/><path class="pcb-copper-pour pcb-copper-pour-brep" d="M 634.2558581767357 514.0371229698376 L 636.1807115857147 513.4532250717934 L 643.0400254863926 509.78684540689915 L 649.052264404385 504.852728441508 L 653.9863813697762 498.84048952351554 L 657.6527610346704 491.98117562283767 L 658.2366589327146 490.05632221385855 L 658.2366589327146 514.0371229698376 L 634.2558581767357 514.0371229698376 Z" fill="rgb(200, 52, 52)" fill-rule="evenodd" fill-opacity="0.5" data-type="pcb_copper_pour" data-pcb-layer="top"/><path class="pcb-copper-pour pcb-copper-pour-brep" d="M 314.55916473317865 269.5113065718893 L 314.55916473317865 235.09280742459399 L 316.2993248259861 235.09280742459399 L 316.2993248259861 271.2514666646967 L 314.55916473317865 269.5113065718893 Z" fill="rgb(200, 52, 52)" fill-rule="evenodd" fill-opacity="0.5" data-type="pcb_copper_pour" data-pcb-layer="top"/><path class="pcb-copper-pour pcb-copper-pour-brep" d="M 447.1577726218097 266.87435918203875 L 447.1577726218097 235.09280742459399 L 448.8979327146172 235.09280742459399 L 448.8979327146172 268.6145192748462 L 447.1577726218097 266.87435918203875 Z" fill="rgb(200, 52, 52)" fill-rule="evenodd" fill-opacity="0.5" data-type="pcb_copper_pour" data-pcb-layer="top"/><path class="pcb-copper-pour pcb-copper-pour-brep" d="M 145.1118877440488 143.55718198961958 L 143.14176299392102 145.52730673974727 L 141.95151548033982 146.97762753136826 L 141.7633410672854 147.32967709665863 L 141.7633410672854 136.4600345108424 L 142.3472389653295 138.38488791982147 L 145.1118877440488 143.55718198961958 Z" fill="rgb(200, 52, 52)" fill-rule="evenodd" fill-opacity="0.5" data-type="pcb_copper_pour" data-pcb-layer="top"/><path class="pcb-copper-pour pcb-copper-pour-brep" d="M 330.70717992468246 285.6593217633931 L 327.64386280166275 282.5960046403734 L 333.7704970477022 282.5960046403734 L 330.70717992468246 285.6593217633931 Z" fill="rgb(200, 52, 52)" fill-rule="evenodd" fill-opacity="0.5" data-type="pcb_copper_pour" data-pcb-layer="top"/><path class="pcb-silkscreen pcb-silkscreen-top" d="M 254.56584686774647 330.48972389791976 L 254.56584686774647 269.50143619490206 L 218.31515545243533 269.50143619490206" fill="none" stroke="#f2eda1" stroke-width="3.4802784222737815" stroke-linecap="round" stroke-linejoin="round" data-pcb-component-id="pcb_component_0" data-pcb-silkscreen-path-id="pcb_silkscreen_path_0" data-type="pcb_silkscreen_path" data-pcb-layer="top"/><path class="pcb-silkscreen pcb-silkscreen-top" d="M 147.63832946635637 330.48972389791976 L 147.63832946635637 269.50143619490206 L 183.88902088167148 269.50143619490206" fill="none" stroke="#f2eda1" stroke-width="3.4802784222737815" stroke-linecap="round" stroke-linejoin="round" data-pcb-component-id="pcb_component_0" data-pcb-silkscreen-path-id="pcb_silkscreen_path_1" data-type="pcb_silkscreen_path" data-pcb-layer="top"/><path class="pcb-silkscreen pcb-silkscreen-top" d="M 216.95115777262086 330.48972389791976 L 185.2530185614899 330.48972389791976" fill="none" stroke="#f2eda1" stroke-width="3.4802784222737815" stroke-linecap="round" stroke-linejoin="round" data-pcb-component-id="pcb_component_0" data-pcb-silkscreen-path-id="pcb_silkscreen_path_2" data-type="pcb_silkscreen_path" data-pcb-layer="top"/><path class="pcb-silkscreen pcb-silkscreen-top" d="M 387.16445475637755 330.48972389791976 L 387.16445475637755 269.50143619490206 L 350.9137633410664 269.50143619490206" fill="none" stroke="#f2eda1" stroke-width="3.4802784222737815" stroke-linecap="round" stroke-linejoin="round" data-pcb-component-id="pcb_component_1" data-pcb-silkscreen-path-id="pcb_silkscreen_path_3" data-type="pcb_silkscreen_path" data-pcb-layer="top"/><path class="pcb-silkscreen pcb-silkscreen-top" d="M 280.23693735498745 330.48972389791976 L 280.23693735498745 269.50143619490206 L 316.48762877030254 269.50143619490206" fill="none" stroke="#f2eda1" stroke-width="3.4802784222737815" stroke-linecap="round" stroke-linejoin="round" data-pcb-component-id="pcb_component_1" data-pcb-silkscreen-path-id="pcb_silkscreen_path_4" data-type="pcb_silkscreen_path" data-pcb-layer="top"/><path class="pcb-silkscreen pcb-silkscreen-top" d="M 349.5497656612519 330.48972389791976 L 317.851626450121 330.48972389791976" fill="none" stroke="#f2eda1" stroke-width="3.4802784222737815" stroke-linecap="round" stroke-linejoin="round" data-pcb-component-id="pcb_component_1" data-pcb-silkscreen-path-id="pcb_silkscreen_path_5" data-type="pcb_silkscreen_path" data-pcb-layer="top"/><path class="pcb-silkscreen pcb-silkscreen-top" d="M 519.7630626450086 330.48972389791976 L 519.7630626450086 269.50143619490206 L 483.51237122969746 269.50143619490206" fill="none" stroke="#f2eda1" stroke-width="3.4802784222737815" stroke-linecap="round" stroke-linejoin="round" data-pcb-component-id="pcb_component_2" data-pcb-silkscreen-path-id="pcb_silkscreen_path_6" data-type="pcb_silkscreen_path" data-pcb-layer="top"/><path class="pcb-silkscreen pcb-silkscreen-top" d="M 412.8355452436185 330.48972389791976 L 412.8355452436185 269.50143619490206 L 449.0862366589336 269.50143619490206" fill="none" stroke="#f2eda1" stroke-width="3.4802784222737815" stroke-linecap="round" stroke-linejoin="round" data-pcb-component-id="pcb_component_2" data-pcb-silkscreen-path-id="pcb_silkscreen_path_7" data-type="pcb_silkscreen_path" data-pcb-layer="top"/><path class="pcb-silkscreen pcb-silkscreen-top" d="M 482.148373549883 330.48972389791976 L 450.450234338752 330.48972389791976" fill="none" stroke="#f2eda1" stroke-width="3.4802784222737815" stroke-linecap="round" stroke-linejoin="round" data-pcb-component-id="pcb_component_2" data-pcb-silkscreen-path-id="pcb_silkscreen_path_8" data-type="pcb_silkscreen_path" data-pcb-layer="top"/><path class="pcb-silkscreen pcb-silkscreen-top" d="M 652.3616705336397 330.48972389791976 L 652.3616705336397 269.50143619490206 L 616.1109791183285 269.50143619490206" fill="none" stroke="#f2eda1" stroke-width="3.4802784222737815" stroke-linecap="round" stroke-linejoin="round" data-pcb-component-id="pcb_component_3" data-pcb-silkscreen-path-id="pcb_silkscreen_path_9" data-type="pcb_silkscreen_path" data-pcb-layer="top"/><path class="pcb-silkscreen pcb-silkscreen-top" d="M 545.4341531322495 330.48972389791976 L 545.4341531322495 269.50143619490206 L 581.6848445475647 269.50143619490206" fill="none" stroke="#f2eda1" stroke-width="3.4802784222737815" stroke-linecap="round" stroke-linejoin="round" data-pcb-component-id="pcb_component_3" data-pcb-silkscreen-path-id="pcb_silkscreen_path_10" data-type="pcb_silkscreen_path" data-pcb-layer="top"/><path class="pcb-silkscreen pcb-silkscreen-top" d="M 614.746981438514 330.48972389791976 L 583.0488422273831 330.48972389791976" fill="none" stroke="#f2eda1" stroke-width="3.4802784222737815" stroke-linecap="round" stroke-linejoin="round" data-pcb-component-id="pcb_component_3" data-pcb-silkscreen-path-id="pcb_silkscreen_path_11" data-type="pcb_silkscreen_path" data-pcb-layer="top"/><path class="pcb-silkscreen pcb-silkscreen-top" d="M 229.81438515081211 181.1484918793504 L 151.50812064965203 181.1484918793504 L 151.50812064965203 242.05336426914153 L 229.81438515081211 242.05336426914153" fill="none" stroke="#f2eda1" stroke-width="3.4802784222737815" stroke-linecap="round" stroke-linejoin="round" data-pcb-component-id="pcb_component_4" data-pcb-silkscreen-path-id="pcb_silkscreen_path_12" data-type="pcb_silkscreen_path" data-pcb-layer="top"/><text x="0" y="0" dx="0" dy="0" fill="#f2eda1" font-family="Arial, sans-serif" font-size="13.921113689095126" text-anchor="middle" dominant-baseline="central" transform="matrix(1,0,0,1,201.1020881670534,163.74709976798147)" class="pcb-silkscreen-text pcb-silkscreen-top" data-pcb-silkscreen-text-id="pcb_component_4" stroke="none" data-type="pcb_silkscreen_text" data-pcb-layer="top">R2</text><path class="pcb-silkscreen pcb-silkscreen-top" d="M 362.41299303944317 181.1484918793504 L 284.10672853828305 181.1484918793504 L 284.10672853828305 242.05336426914153 L 362.41299303944317 242.05336426914153" fill="none" stroke="#f2eda1" stroke-width="3.4802784222737815" stroke-linecap="round" stroke-linejoin="round" data-pcb-component-id="pcb_component_5" data-pcb-silkscreen-path-id="pcb_silkscreen_path_13" data-type="pcb_silkscreen_path" data-pcb-layer="top"/><text x="0" y="0" dx="0" dy="0" fill="#f2eda1" font-family="Arial, sans-serif" font-size="13.921113689095126" text-anchor="middle" dominant-baseline="central" transform="matrix(1,0,0,1,333.7006960556845,163.74709976798147)" class="pcb-silkscreen-text pcb-silkscreen-top" data-pcb-silkscreen-text-id="pcb_component_5" stroke="none" data-type="pcb_silkscreen_text" data-pcb-layer="top">R4</text><path class="pcb-silkscreen pcb-silkscreen-top" d="M 495.01160092807424 181.1484918793504 L 416.70533642691413 181.1484918793504 L 416.70533642691413 242.05336426914153 L 495.01160092807424 242.05336426914153" fill="none" stroke="#f2eda1" stroke-width="3.4802784222737815" stroke-linecap="round" stroke-linejoin="round" data-pcb-component-id="pcb_component_6" data-pcb-silkscreen-path-id="pcb_silkscreen_path_14" data-type="pcb_silkscreen_path" data-pcb-layer="top"/><text x="0" y="0" dx="0" dy="0" fill="#f2eda1" font-family="Arial, sans-serif" font-size="13.921113689095126" text-anchor="middle" dominant-baseline="central" transform="matrix(1,0,0,1,466.2993039443155,163.74709976798147)" class="pcb-silkscreen-text pcb-silkscreen-top" data-pcb-silkscreen-text-id="pcb_component_6" stroke="none" data-type="pcb_silkscreen_text" data-pcb-layer="top">R6</text><path class="pcb-silkscreen pcb-silkscreen-top" d="M 627.6102088167053 181.1484918793504 L 549.3039443155452 181.1484918793504 L 549.3039443155452 242.05336426914153 L 627.6102088167053 242.05336426914153" fill="none" stroke="#f2eda1" stroke-width="3.4802784222737815" stroke-linecap="round" stroke-linejoin="round" data-pcb-component-id="pcb_component_7" data-pcb-silkscreen-path-id="pcb_silkscreen_path_15" data-type="pcb_silkscreen_path" data-pcb-layer="top"/><text x="0" y="0" dx="0" dy="0" fill="#f2eda1" font-family="Arial, sans-serif" font-size="13.921113689095126" text-anchor="middle" dominant-baseline="central" transform="matrix(1,0,0,1,598.8979118329466,163.74709976798147)" class="pcb-silkscreen-text pcb-silkscreen-top" data-pcb-silkscreen-text-id="pcb_component_7" stroke="none" data-type="pcb_silkscreen_text" data-pcb-layer="top">R8</text><path class="pcb-silkscreen pcb-silkscreen-top" d="M 229.81438515081211 357.9466357308585 L 151.50812064965203 357.9466357308585 L 151.50812064965203 418.8515081206496 L 229.81438515081211 418.8515081206496" fill="none" stroke="#f2eda1" stroke-width="3.4802784222737815" stroke-linecap="round" stroke-linejoin="round" data-pcb-component-id="pcb_component_8" data-pcb-silkscreen-path-id="pcb_silkscreen_path_16" data-type="pcb_silkscreen_path" data-pcb-layer="top"/><text x="0" y="0" dx="0" dy="0" fill="#f2eda1" font-family="Arial, sans-serif" font-size="13.921113689095126" text-anchor="middle" dominant-baseline="central" transform="matrix(1,0,0,1,201.1020881670534,436.25290023201853)" class="pcb-silkscreen-text pcb-silkscreen-top" data-pcb-silkscreen-text-id="pcb_component_8" stroke="none" data-type="pcb_silkscreen_text" data-pcb-layer="top">R3</text><path class="pcb-silkscreen pcb-silkscreen-top" d="M 362.41299303944317 357.9466357308585 L 284.10672853828305 357.9466357308585 L 284.10672853828305 418.8515081206496 L 362.41299303944317 418.8515081206496" fill="none" stroke="#f2eda1" stroke-width="3.4802784222737815" stroke-linecap="round" stroke-linejoin="round" data-pcb-component-id="pcb_component_9" data-pcb-silkscreen-path-id="pcb_silkscreen_path_17" data-type="pcb_silkscreen_path" data-pcb-layer="top"/><text x="0" y="0" dx="0" dy="0" fill="#f2eda1" font-family="Arial, sans-serif" font-size="13.921113689095126" text-anchor="middle" dominant-baseline="central" transform="matrix(1,0,0,1,333.7006960556845,436.25290023201853)" class="pcb-silkscreen-text pcb-silkscreen-top" data-pcb-silkscreen-text-id="pcb_component_9" stroke="none" data-type="pcb_silkscreen_text" data-pcb-layer="top">R5</text><path class="pcb-silkscreen pcb-silkscreen-top" d="M 495.01160092807424 357.9466357308585 L 416.70533642691413 357.9466357308585 L 416.70533642691413 418.8515081206496 L 495.01160092807424 418.8515081206496" fill="none" stroke="#f2eda1" stroke-width="3.4802784222737815" stroke-linecap="round" stroke-linejoin="round" data-pcb-component-id="pcb_component_10" data-pcb-silkscreen-path-id="pcb_silkscreen_path_18" data-type="pcb_silkscreen_path" data-pcb-layer="top"/><text x="0" y="0" dx="0" dy="0" fill="#f2eda1" font-family="Arial, sans-serif" font-size="13.921113689095126" text-anchor="middle" dominant-baseline="central" transform="matrix(1,0,0,1,466.2993039443155,436.25290023201853)" class="pcb-silkscreen-text pcb-silkscreen-top" data-pcb-silkscreen-text-id="pcb_component_10" stroke="none" data-type="pcb_silkscreen_text" data-pcb-layer="top">R7</text><path class="pcb-silkscreen pcb-silkscreen-top" d="M 627.6102088167053 357.9466357308585 L 549.3039443155452 357.9466357308585 L 549.3039443155452 418.8515081206496 L 627.6102088167053 418.8515081206496" fill="none" stroke="#f2eda1" stroke-width="3.4802784222737815" stroke-linecap="round" stroke-linejoin="round" data-pcb-component-id="pcb_component_11" data-pcb-silkscreen-path-id="pcb_silkscreen_path_19" data-type="pcb_silkscreen_path" data-pcb-layer="top"/><text x="0" y="0" dx="0" dy="0" fill="#f2eda1" font-family="Arial, sans-serif" font-size="13.921113689095126" text-anchor="middle" dominant-baseline="central" transform="matrix(1,0,0,1,598.8979118329466,436.25290023201853)" class="pcb-silkscreen-text pcb-silkscreen-top" data-pcb-silkscreen-text-id="pcb_component_11" stroke="none" data-type="pcb_silkscreen_text" data-pcb-layer="top">R9</text><text x="0" y="0" dx="0" dy="0" fill="#f2eda1" font-family="Arial, sans-serif" font-size="20.046403712296982" text-anchor="start" dominant-baseline="central" transform="matrix(-1.8369701987210297e-16,1,-1,-1.8369701987210297e-16,620.997679814385,427.7262180974478)" class="pcb-silkscreen-text pcb-silkscreen-top" data-pcb-silkscreen-text-id="pcb_component_12" stroke="none" data-type="pcb_silkscreen_text" data-pcb-layer="top">LV4</text><text x="0" y="0" dx="0" dy="0" fill="#f2eda1" font-family="Arial, sans-serif" font-size="20.046403712296982" text-anchor="start" dominant-baseline="central" transform="matrix(-1.8369701987210297e-16,1,-1,-1.8369701987210297e-16,532.598607888631,427.7262180974478)" class="pcb-silkscreen-text pcb-silkscreen-top" data-pcb-silkscreen-text-id="pcb_component_12" stroke="none" data-type="pcb_silkscreen_text" data-pcb-layer="top">LV3</text><text x="0" y="0" dx="0" dy="0" fill="#f2eda1" font-family="Arial, sans-serif" font-size="20.046403712296982" text-anchor="start" dominant-baseline="central" transform="matrix(-1.8369701987210297e-16,1,-1,-1.8369701987210297e-16,444.199535962877,427.72621809744777)" class="pcb-silkscreen-text pcb-silkscreen-top" data-pcb-silkscreen-text-id="pcb_component_12" stroke="none" data-type="pcb_silkscreen_text" data-pcb-layer="top">GND</text><text x="0" y="0" dx="0" dy="0" fill="#f2eda1" font-family="Arial, sans-serif" font-size="20.046403712296982" text-anchor="start" dominant-baseline="central" transform="matrix(-1.8369701987210297e-16,1,-1,-1.8369701987210297e-16,355.800464037123,427.72621809744777)" class="pcb-silkscreen-text pcb-silkscreen-top" data-pcb-silkscreen-text-id="pcb_component_12" stroke="none" data-type="pcb_silkscreen_text" data-pcb-layer="top">LV</text><text x="0" y="0" dx="0" dy="0" fill="#f2eda1" font-family="Arial, sans-serif" font-size="20.046403712296982" text-anchor="start" dominant-baseline="central" transform="matrix(-1.8369701987210297e-16,1,-1,-1.8369701987210297e-16,267.4013921113689,427.72621809744777)" class="pcb-silkscreen-text pcb-silkscreen-top" data-pcb-silkscreen-text-id="pcb_component_12" stroke="none" data-type="pcb_silkscreen_text" data-pcb-layer="top">LV2</text><text x="0" y="0" dx="0" dy="0" fill="#f2eda1" font-family="Arial, sans-serif" font-size="20.046403712296982" text-anchor="start" dominant-baseline="central" transform="matrix(-1.8369701987210297e-16,1,-1,-1.8369701987210297e-16,179.0023201856149,427.7262180974477)" class="pcb-silkscreen-text pcb-silkscreen-top" data-pcb-silkscreen-text-id="pcb_component_12" stroke="none" data-type="pcb_silkscreen_text" data-pcb-layer="top">LV1</text><text x="0" y="0" dx="0" dy="0" fill="#f2eda1" font-family="Arial, sans-serif" font-size="24.361948955916468" text-anchor="middle" dominant-baseline="central" transform="matrix(-1,-1.2246467991473532e-16,1.2246467991473532e-16,-1,400,565.1972157772622)" class="pcb-silkscreen-text pcb-silkscreen-top" data-pcb-silkscreen-text-id="pcb_component_12" stroke="none" data-type="pcb_silkscreen_text" data-pcb-layer="top">JP1</text><text x="0" y="0" dx="0" dy="0" fill="#f2eda1" font-family="Arial, sans-serif" font-size="20.046403712296982" text-anchor="middle" dominant-baseline="central" transform="matrix(1,0,0,1,179.0023201856149,74.1299303944316)" class="pcb-silkscreen-text pcb-silkscreen-top" data-pcb-silkscreen-text-id="pcb_component_13" stroke="none" data-type="pcb_silkscreen_text" data-pcb-layer="top">HV1</text><text x="0" y="0" dx="0" dy="0" fill="#f2eda1" font-family="Arial, sans-serif" font-size="20.046403712296982" text-anchor="middle" dominant-baseline="central" transform="matrix(1,0,0,1,267.401392111369,74.1299303944316)" class="pcb-silkscreen-text pcb-silkscreen-top" data-pcb-silkscreen-text-id="pcb_component_13" stroke="none" data-type="pcb_silkscreen_text" data-pcb-layer="top">HV2</text><text x="0" y="0" dx="0" dy="0" fill="#f2eda1" font-family="Arial, sans-serif" font-size="20.046403712296982" text-anchor="middle" dominant-baseline="central" transform="matrix(1,0,0,1,355.800464037123,74.1299303944316)" class="pcb-silkscreen-text pcb-silkscreen-top" data-pcb-silkscreen-text-id="pcb_component_13" stroke="none" data-type="pcb_silkscreen_text" data-pcb-layer="top">HV</text><text x="0" y="0" dx="0" dy="0" fill="#f2eda1" font-family="Arial, sans-serif" font-size="20.046403712296982" text-anchor="middle" dominant-baseline="central" transform="matrix(1,0,0,1,444.199535962877,74.1299303944316)" class="pcb-silkscreen-text pcb-silkscreen-top" data-pcb-silkscreen-text-id="pcb_component_13" stroke="none" data-type="pcb_silkscreen_text" data-pcb-layer="top">GND</text><text x="0" y="0" dx="0" dy="0" fill="#f2eda1" font-family="Arial, sans-serif" font-size="20.046403712296982" text-anchor="middle" dominant-baseline="central" transform="matrix(1,0,0,1,532.598607888631,74.1299303944316)" class="pcb-silkscreen-text pcb-silkscreen-top" data-pcb-silkscreen-text-id="pcb_component_13" stroke="none" data-type="pcb_silkscreen_text" data-pcb-layer="top">HV3</text><text x="0" y="0" dx="0" dy="0" fill="#f2eda1" font-family="Arial, sans-serif" font-size="20.046403712296982" text-anchor="middle" dominant-baseline="central" transform="matrix(1,0,0,1,620.997679814385,74.1299303944316)" class="pcb-silkscreen-text pcb-silkscreen-top" data-pcb-silkscreen-text-id="pcb_component_13" stroke="none" data-type="pcb_silkscreen_text" data-pcb-layer="top">HV4</text><text x="0" y="0" dx="0" dy="0" fill="#f2eda1" font-family="Arial, sans-serif" font-size="24.361948955916468" text-anchor="middle" dominant-baseline="central" transform="matrix(1,0,0,1,400,34.80278422273784)" class="pcb-silkscreen-text pcb-silkscreen-top" data-pcb-silkscreen-text-id="pcb_component_13" stroke="none" data-type="pcb_silkscreen_text" data-pcb-layer="top">JP2</text><g data-type="pcb_plated_hole" data-pcb-layer="through"><circle class="pcb-hole-outer" fill="rgb(200, 52, 52)" cx="620.997679814385" cy="476.79814385150814" r="32.71461716937354" data-type="pcb_plated_hole" data-pcb-layer="top"/><circle class="pcb-hole-inner" fill="#FF26E2" cx="620.997679814385" cy="476.79814385150814" r="17.67981438515081" data-type="pcb_plated_hole_drill" data-pcb-layer="drill"/></g><g data-type="pcb_plated_hole" data-pcb-layer="through"><circle class="pcb-hole-outer" fill="rgb(200, 52, 52)" cx="532.598607888631" cy="476.79814385150814" r="32.71461716937354" data-type="pcb_plated_hole" data-pcb-layer="top"/><circle class="pcb-hole-inner" fill="#FF26E2" cx="532.598607888631" cy="476.79814385150814" r="17.67981438515081" data-type="pcb_plated_hole_drill" data-pcb-layer="drill"/></g><g data-type="pcb_plated_hole" data-pcb-layer="through"><circle class="pcb-hole-outer" fill="rgb(200, 52, 52)" cx="444.199535962877" cy="476.7981438515081" r="32.71461716937354" data-type="pcb_plated_hole" data-pcb-layer="top"/><circle class="pcb-hole-inner" fill="#FF26E2" cx="444.199535962877" cy="476.7981438515081" r="17.67981438515081" data-type="pcb_plated_hole_drill" data-pcb-layer="drill"/></g><g data-type="pcb_plated_hole" data-pcb-layer="through"><circle class="pcb-hole-outer" fill="rgb(200, 52, 52)" cx="355.800464037123" cy="476.7981438515081" r="32.71461716937354" data-type="pcb_plated_hole" data-pcb-layer="top"/><circle class="pcb-hole-inner" fill="#FF26E2" cx="355.800464037123" cy="476.7981438515081" r="17.67981438515081" data-type="pcb_plated_hole_drill" data-pcb-layer="drill"/></g><g data-type="pcb_plated_hole" data-pcb-layer="through"><circle class="pcb-hole-outer" fill="rgb(200, 52, 52)" cx="267.4013921113689" cy="476.79814385150803" r="32.71461716937354" data-type="pcb_plated_hole" data-pcb-layer="top"/><circle class="pcb-hole-inner" fill="#FF26E2" cx="267.4013921113689" cy="476.79814385150803" r="17.67981438515081" data-type="pcb_plated_hole_drill" data-pcb-layer="drill"/></g><g data-type="pcb_plated_hole" data-pcb-layer="through"><circle class="pcb-hole-outer" fill="rgb(200, 52, 52)" cx="179.0023201856149" cy="476.79814385150803" r="32.71461716937354" data-type="pcb_plated_hole" data-pcb-layer="top"/><circle class="pcb-hole-inner" fill="#FF26E2" cx="179.0023201856149" cy="476.79814385150803" r="17.67981438515081" data-type="pcb_plated_hole_drill" data-pcb-layer="drill"/></g><g data-type="pcb_plated_hole" data-pcb-layer="through"><circle class="pcb-hole-outer" fill="rgb(200, 52, 52)" cx="179.0023201856149" cy="123.20185614849191" r="32.71461716937354" data-type="pcb_plated_hole" data-pcb-layer="top"/><circle class="pcb-hole-inner" fill="#FF26E2" cx="179.0023201856149" cy="123.20185614849191" r="17.67981438515081" data-type="pcb_plated_hole_drill" data-pcb-layer="drill"/></g><g data-type="pcb_plated_hole" data-pcb-layer="through"><circle class="pcb-hole-outer" fill="rgb(200, 52, 52)" cx="267.401392111369" cy="123.20185614849191" r="32.71461716937354" data-type="pcb_plated_hole" data-pcb-layer="top"/><circle class="pcb-hole-inner" fill="#FF26E2" cx="267.401392111369" cy="123.20185614849191" r="17.67981438515081" data-type="pcb_plated_hole_drill" data-pcb-layer="drill"/></g><g data-type="pcb_plated_hole" data-pcb-layer="through"><circle class="pcb-hole-outer" fill="rgb(200, 52, 52)" cx="355.800464037123" cy="123.20185614849191" r="32.71461716937354" data-type="pcb_plated_hole" data-pcb-layer="top"/><circle class="pcb-hole-inner" fill="#FF26E2" cx="355.800464037123" cy="123.20185614849191" r="17.67981438515081" data-type="pcb_plated_hole_drill" data-pcb-layer="drill"/></g><g data-type="pcb_plated_hole" data-pcb-layer="through"><circle class="pcb-hole-outer" fill="rgb(200, 52, 52)" cx="444.199535962877" cy="123.20185614849191" r="32.71461716937354" data-type="pcb_plated_hole" data-pcb-layer="top"/><circle class="pcb-hole-inner" fill="#FF26E2" cx="444.199535962877" cy="123.20185614849191" r="17.67981438515081" data-type="pcb_plated_hole_drill" data-pcb-layer="drill"/></g><g data-type="pcb_plated_hole" data-pcb-layer="through"><circle class="pcb-hole-outer" fill="rgb(200, 52, 52)" cx="532.598607888631" cy="123.20185614849191" r="32.71461716937354" data-type="pcb_plated_hole" data-pcb-layer="top"/><circle class="pcb-hole-inner" fill="#FF26E2" cx="532.598607888631" cy="123.20185614849191" r="17.67981438515081" data-type="pcb_plated_hole_drill" data-pcb-layer="drill"/></g><g data-type="pcb_plated_hole" data-pcb-layer="through"><circle class="pcb-hole-outer" fill="rgb(200, 52, 52)" cx="620.997679814385" cy="123.20185614849191" r="32.71461716937354" data-type="pcb_plated_hole" data-pcb-layer="top"/><circle class="pcb-hole-inner" fill="#FF26E2" cx="620.997679814385" cy="123.20185614849191" r="17.67981438515081" data-type="pcb_plated_hole_drill" data-pcb-layer="drill"/></g></svg>