<svg xmlns="http://www.w3.org/2000/svg" width="800" height="600"><style></style><rect class="boundary" x="0" y="0" fill="#000" width="800" height="600" data-type="pcb_background" data-pcb-layer="global"/><rect class="pcb-boundary" fill="none" stroke="#fff" stroke-width="0.3" x="142.84336533333374" y="17.77777777777777" width="514.3132693333325" height="564.4444444444443" data-type="pcb_boundary" data-pcb-layer="global"/><path class="pcb-board" d="M 250.75663466666626 582.2222222222222 L 657.1566346666663 582.2222222222222 L 657.1566346666663 17.77777777777777 L 250.75663466666626 17.77777777777777 Z" fill="none" stroke="rgba(255, 255, 255, 0.5)" stroke-width="1.777777777777778" data-type="pcb_board" data-pcb-layer="board"/><path class="pcb-trace" stroke="rgb(77, 127, 196)" fill="none" d="M 631.734412444444 164.5333333333333 L 448.46699282685404 164.5101301194663" stroke-width="2.6666666666666665" stroke-linecap="round" stroke-linejoin="round" shape-rendering="crispEdges" data-type="pcb_trace" data-pcb-layer="bottom"/><path class="pcb-trace" stroke="rgb(77, 127, 196)" fill="none" d="M 448.46699282685404 164.5101301194663 L 424.06550037220444 188.91162257411588" stroke-width="2.6666666666666665" stroke-linecap="round" stroke-linejoin="round" shape-rendering="crispEdges" data-type="pcb_trace" data-pcb-layer="bottom"/><path class="pcb-trace" stroke="rgb(77, 127, 196)" fill="none" d="M 424.06550037220444 188.91162257411588 L 424.08870358607146 244.5345977472615" stroke-width="2.6666666666666665" stroke-linecap="round" stroke-linejoin="round" shape-rendering="crispEdges" data-type="pcb_trace" data-pcb-layer="bottom"/><path class="pcb-trace" stroke="rgb(77, 127, 196)" fill="none" d="M 424.08870358607146 244.5345977472615 L 393.15663466666626 275.4666666666667" stroke-width="2.6666666666666665" stroke-linecap="round" stroke-linejoin="round" shape-rendering="crispEdges" data-type="pcb_trace" data-pcb-layer="bottom"/><path class="pcb-trace" stroke="rgb(77, 127, 196)" fill="none" d="M 631.734412444444 300 L 533.6010791111107 201.86666666666667" stroke-width="2.6666666666666665" stroke-linecap="round" stroke-linejoin="round" shape-rendering="crispEdges" data-type="pcb_trace" data-pcb-layer="bottom"/><path class="pcb-trace" stroke="rgb(77, 127, 196)" fill="none" d="M 533.6010791111107 201.86666666666667 L 443.64552355555514 201.86666666666667" stroke-width="2.6666666666666665" stroke-linecap="round" stroke-linejoin="round" shape-rendering="crispEdges" data-type="pcb_trace" data-pcb-layer="bottom"/><path class="pcb-trace" stroke="rgb(77, 127, 196)" fill="none" d="M 631.734412444444 345.15555555555557 L 537.8677457777774 345.15555555555557" stroke-width="2.6666666666666665" stroke-linecap="round" stroke-linejoin="round" shape-rendering="crispEdges" data-type="pcb_trace" data-pcb-layer="bottom"/><path class="pcb-trace" stroke="rgb(77, 127, 196)" fill="none" d="M 537.8677457777774 345.15555555555557 L 443.64552355555514 250.93333333333334" stroke-width="2.6666666666666665" stroke-linecap="round" stroke-linejoin="round" shape-rendering="crispEdges" data-type="pcb_trace" data-pcb-layer="bottom"/><path class="pcb-trace" stroke="rgb(77, 127, 196)" fill="none" d="M 631.734412444444 390.31111111111113 L 533.9566346666663 390.31111111111113" stroke-width="2.6666666666666665" stroke-linecap="round" stroke-linejoin="round" shape-rendering="crispEdges" data-type="pcb_trace" data-pcb-layer="bottom"/><path class="pcb-trace" stroke="rgb(77, 127, 196)" fill="none" d="M 533.9566346666663 390.31111111111113 L 443.64552355555514 300" stroke-width="2.6666666666666665" stroke-linecap="round" stroke-linejoin="round" shape-rendering="crispEdges" data-type="pcb_trace" data-pcb-layer="bottom"/><path class="pcb-copper-pour pcb-copper-pour-brep" d="M 653.6010791111107 578.6666666666667 L 254.3121902222218 578.6666666666667 L 254.3121902222218 21.333333333333314 L 653.6010791111107 21.333333333333314 L 653.6010791111107 578.6666666666667 Z M 418.40107911111073 125.77813333333333 L 427.7653991111107 124.8558222222222 L 436.76984355555516 122.12435555555555 L 445.06840355555516 117.68869333333333 L 452.3421457777774 111.71928888888888 L 458.31155022222185 104.44554666666664 L 462.7472124444441 96.14698666666666 L 465.4786791111107 87.14254222222223 L 466.4009902222218 77.77822222222224 L 465.4786791111107 68.41390222222219 L 462.7472124444441 59.40945777777776 L 458.31155022222185 51.11089777777778 L 452.3421457777774 43.83715555555557 L 445.06840355555516 37.86775111111109 L 436.76984355555516 33.43208888888887 L 427.7653991111107 30.700622222222194 L 418.40107911111073 29.778311111111066 L 409.0367591111107 30.700622222222194 L 400.03231466666625 33.43208888888887 L 391.7337546666663 37.86775111111109 L 384.46001244444403 43.83715555555557 L 378.4906079999996 51.11089777777778 L 374.0549457777774 59.40945777777776 L 371.3234791111107 68.41390222222219 L 370.4011679999996 77.77822222222224 L 371.3234791111107 87.14254222222223 L 374.0549457777774 96.14698666666666 L 378.4906079999996 104.44554666666664 L 384.46001244444403 111.71928888888888 L 391.7337546666663 117.68869333333333 L 400.03231466666625 122.12435555555555 L 409.0367591111107 124.8558222222222 L 418.40107911111073 125.77813333333333 Z M 544.2677457777773 107.12888888888887 L 550.6875146666663 106.49660444444444 L 556.8605813333329 104.62401777777777 L 562.5497191111108 101.5831111111111 L 567.5362791111107 97.49075555555555 L 571.6286346666662 92.50419555555553 L 574.669541333333 86.81505777777778 L 576.5421279999996 80.64199111111108 L 577.1744124444441 74.22222222222223 L 576.5421279999996 67.80245333333332 L 574.669541333333 61.629386666666676 L 571.6286346666662 55.940248888888874 L 567.5362791111107 50.95368888888888 L 562.5497191111108 46.861333333333306 L 556.8605813333329 43.82042666666666 L 550.6875146666663 41.947839999999985 L 544.2677457777773 41.315555555555534 L 537.8479768888885 41.947839999999985 L 531.6749102222218 43.82042666666666 L 525.985772444444 46.861333333333306 L 520.9992124444441 50.95368888888888 L 516.9068568888885 55.940248888888874 L 513.8659502222218 61.629386666666676 L 511.99336355555516 67.80245333333332 L 511.3610791111107 74.22222222222223 L 511.99336355555516 80.64199111111108 L 513.8659502222218 86.81505777777778 L 516.9068568888885 92.50419555555553 L 520.9992124444441 97.49075555555555 L 525.985772444444 101.5831111111111 L 531.6749102222218 104.62401777777777 L 537.8479768888885 106.49660444444444 L 544.2677457777773 107.12888888888887 Z M 631.734412444444 139.64444444444445 L 635.6882435555551 139.2550222222222 L 639.4901279999996 138.10174222222224 L 642.9939679999997 136.2288888888889 L 646.0651146666662 133.70848 L 648.5855235555551 130.63733333333332 L 650.4583768888886 127.13349333333332 L 651.6116568888885 123.33160888888887 L 652.0010791111107 119.37777777777777 L 651.6116568888885 115.42394666666667 L 650.4583768888886 111.62206222222221 L 648.5855235555551 108.11822222222222 L 646.0651146666662 105.04707555555555 L 642.9939679999997 102.52666666666667 L 639.4901279999996 100.65381333333335 L 635.6882435555551 99.50053333333332 L 631.734412444444 99.11111111111109 L 627.780581333333 99.50053333333332 L 623.9786968888885 100.65381333333335 L 620.4748568888886 102.52666666666667 L 617.4037102222219 105.04707555555555 L 614.883301333333 108.11822222222222 L 613.0104479999997 111.62206222222221 L 611.8571679999995 115.42394666666667 L 611.4677457777774 119.37777777777777 L 611.8571679999995 123.33160888888887 L 613.0104479999997 127.13349333333332 L 614.883301333333 130.63733333333332 L 617.4037102222219 133.70848 L 620.4748568888886 136.2288888888889 L 623.9786968888885 138.10174222222224 L 627.780581333333 139.2550222222222 L 631.734412444444 139.64444444444445 Z M 631.734412444444 365.4222222222222 L 635.6882435555551 365.0328 L 639.4901279999996 363.87952 L 642.9939679999997 362.00666666666666 L 646.0651146666662 359.4862577777778 L 648.5855235555551 356.4151111111111 L 650.4583768888886 352.9112711111111 L 651.6116568888885 349.10938666666664 L 652.0010791111107 345.15555555555557 L 651.6116568888885 341.20172444444444 L 650.4583768888886 337.39984 L 648.5855235555551 333.896 L 646.0651146666662 330.82485333333335 L 642.9939679999997 328.30444444444447 L 639.4901279999996 326.4315911111111 L 635.6882435555551 325.2783111111111 L 631.734412444444 324.8888888888889 L 627.780581333333 325.2783111111111 L 623.9786968888885 326.4315911111111 L 620.4748568888886 328.30444444444447 L 617.4037102222219 330.82485333333335 L 614.883301333333 333.896 L 613.0104479999997 337.39984 L 612.140812444444 340.26666666666665 L 539.8927768888885 340.26666666666665 L 458.96010133333294 259.3339911111111 L 459.8606168888885 257.6492622222222 L 460.85951466666626 254.35628444444444 L 461.19681244444405 250.93171555555554 L 460.85951466666626 247.50714666666667 L 459.8606168888885 244.21416888888888 L 458.2384657777774 241.17936 L 456.0554257777774 238.51932444444444 L 453.3953902222218 236.33628444444443 L 450.36058133333296 234.71413333333334 L 447.06760355555514 233.71523555555555 L 443.64303466666627 233.3779377777778 L 440.2184657777774 233.71523555555555 L 436.92548799999963 234.71413333333334 L 433.8906791111107 236.33628444444443 L 431.23064355555516 238.51932444444444 L 429.04760355555516 241.17936 L 428.9762435555552 241.31285333333332 L 428.9637991111107 211.46126222222222 L 429.04760355555516 211.61804444444442 L 431.23064355555516 214.27808 L 433.8906791111107 216.46112 L 436.92548799999963 218.08327111111112 L 440.2184657777774 219.08216888888887 L 443.64303466666627 219.41946666666666 L 447.06760355555514 219.08216888888887 L 450.36058133333296 218.08327111111112 L 453.3953902222218 216.46112 L 456.0554257777774 214.27808 L 458.2384657777774 211.61804444444442 L 459.8606168888885 208.58323555555558 L 460.41503466666626 206.75555555555553 L 531.5760479999997 206.75555555555553 L 614.4226791111107 289.6021866666667 L 613.0104479999997 292.2442844444444 L 611.8571679999995 296.0461688888889 L 611.4677457777774 300 L 611.8571679999995 303.9538311111111 L 613.0104479999997 307.7557155555556 L 614.883301333333 311.25955555555555 L 617.4037102222219 314.3307022222222 L 620.4748568888886 316.8511111111111 L 623.9786968888885 318.72396444444445 L 627.780581333333 319.87724444444444 L 631.734412444444 320.26666666666665 L 635.6882435555551 319.87724444444444 L 639.4901279999996 318.72396444444445 L 642.9939679999997 316.8511111111111 L 646.0651146666662 314.3307022222222 L 648.5855235555551 311.25955555555555 L 650.4583768888886 307.7557155555556 L 651.6116568888885 303.9538311111111 L 652.0010791111107 300 L 651.6116568888885 296.0461688888889 L 650.4583768888886 292.2442844444444 L 648.5855235555551 288.74044444444445 L 646.0651146666662 285.6692977777778 L 642.9939679999997 283.1488888888889 L 639.4901279999996 281.27603555555555 L 635.6882435555551 280.12275555555556 L 631.734412444444 279.73333333333335 L 627.780581333333 280.12275555555556 L 623.9786968888885 281.27603555555555 L 621.3365991111107 282.68826666666666 L 537.0580391111107 198.40970666666666 L 536.3172035555551 197.80170666666666 L 535.4719768888885 197.34992 L 534.5548568888885 197.07171555555556 L 533.6010791111107 196.97777777777776 L 460.4156213333329 196.97777777777776 L 459.8606168888885 195.14814222222222 L 458.2384657777774 192.11333333333334 L 456.0554257777774 189.45329777777778 L 453.3953902222218 187.27025777777777 L 450.36058133333296 185.64810666666665 L 447.06760355555514 184.6492088888889 L 443.64303466666627 184.3119111111111 L 440.2184657777774 184.6492088888889 L 436.92548799999963 185.64810666666665 L 433.8906791111107 187.27025777777777 L 431.23064355555516 189.45329777777778 L 429.04760355555516 192.11333333333334 L 428.9557991111107 192.28508444444446 L 428.9552479999996 190.93580444444444 L 450.49178133333294 169.39927111111112 L 612.1400657777774 169.41973333333334 L 613.0104479999997 172.28904888888889 L 614.883301333333 175.79288888888888 L 617.4037102222219 178.86403555555555 L 620.4748568888886 181.38444444444445 L 623.9786968888885 183.25729777777775 L 627.780581333333 184.41057777777777 L 631.734412444444 184.79999999999998 L 635.6882435555551 184.41057777777777 L 639.4901279999996 183.25729777777775 L 642.9939679999997 181.38444444444445 L 646.0651146666662 178.86403555555555 L 648.5855235555551 175.79288888888888 L 650.4583768888886 172.28904888888889 L 651.6116568888885 168.48716444444443 L 652.0010791111107 164.53333333333333 L 651.6116568888885 160.5795022222222 L 650.4583768888886 156.77761777777775 L 648.5855235555551 153.27377777777778 L 646.0651146666662 150.2026311111111 L 642.9939679999997 147.6822222222222 L 639.4901279999996 145.80936888888888 L 635.6882435555551 144.6560888888889 L 631.734412444444 144.26666666666665 L 627.780581333333 144.6560888888889 L 623.9786968888885 145.80936888888888 L 620.4748568888886 147.6822222222222 L 617.4037102222219 150.2026311111111 L 614.883301333333 153.27377777777778 L 613.0104479999997 156.77761777777775 L 612.1415591111107 159.64195555555557 L 448.4676035555552 159.62124444444444 L 448.4676035555552 159.62129777777776 L 448.46699911111074 159.62124444444444 L 447.5132213333329 159.7151822222222 L 446.59610133333297 159.99338666666668 L 445.7508746666663 160.44517333333332 L 445.01002133333293 161.05315555555555 L 420.60852799999964 185.45464888888887 L 420.0005457777774 186.19550222222222 L 419.5487591111107 187.0407288888889 L 419.27055466666627 187.9578488888889 L 419.1766168888885 188.91162666666668 L 419.17681244444407 188.91365333333334 L 419.1766168888885 188.91365333333334 L 419.19896355555517 242.51041777777777 L 401.5600302222218 260.1493511111111 L 399.8721546666663 259.24714666666665 L 396.57917688888847 258.2482488888889 L 393.1546079999996 257.9109511111111 L 389.7300391111107 258.2482488888889 L 386.43706133333296 259.24714666666665 L 383.40225244444406 260.8692977777778 L 380.7422168888885 263.0523377777778 L 378.5591768888885 265.71237333333335 L 376.93702577777736 268.74718222222225 L 375.9381279999996 272.04016 L 375.6008302222218 275.4647288888889 L 375.9381279999996 278.88929777777776 L 376.93702577777736 282.1822755555556 L 378.5591768888885 285.2170844444444 L 380.7422168888885 287.87712 L 383.40225244444406 290.06016 L 386.43706133333296 291.6823111111111 L 389.7300391111107 292.6812088888889 L 393.1546079999996 293.01850666666667 L 396.57917688888847 292.6812088888889 L 399.8721546666663 291.6823111111111 L 402.90696355555514 290.06016 L 405.5669991111107 287.87712 L 407.7500391111107 285.2170844444444 L 409.37219022222183 282.1822755555556 L 410.3710879999996 278.88929777777776 L 410.7083857777774 275.4647288888889 L 410.3710879999996 272.04016 L 409.37219022222183 268.74718222222225 L 408.4727591111107 267.06446222222223 L 426.25135466666626 249.28586666666666 L 426.0892568888885 250.93171555555554 L 426.4265546666663 254.35628444444444 L 427.42545244444403 257.6492622222222 L 429.04760355555516 260.6840711111111 L 431.23064355555516 263.3441066666667 L 433.8906791111107 265.5271466666667 L 436.92548799999963 267.14929777777775 L 440.2184657777774 268.14819555555556 L 443.64303466666627 268.48549333333335 L 447.06760355555514 268.14819555555556 L 450.36058133333296 267.14929777777775 L 452.0464479999996 266.24817777777776 L 534.4107857777774 348.61251555555555 L 535.151621333333 349.22051555555555 L 535.9968479999995 349.67230222222224 L 536.9139679999996 349.9505066666667 L 537.8677457777774 350.0444444444444 L 612.140812444444 350.0444444444444 L 613.0104479999997 352.9112711111111 L 614.883301333333 356.4151111111111 L 617.4037102222219 359.4862577777778 L 620.4748568888886 362.00666666666666 L 623.9786968888885 363.87952 L 627.780581333333 365.0328 L 631.734412444444 365.4222222222222 Z M 631.734412444444 229.95555555555555 L 635.6882435555551 229.56613333333334 L 639.4901279999996 228.41285333333332 L 642.9939679999997 226.54 L 646.0651146666662 224.0195911111111 L 648.5855235555551 220.94844444444445 L 650.4583768888886 217.44460444444445 L 651.6116568888885 213.64272 L 652.0010791111107 209.68888888888887 L 651.6116568888885 205.73505777777777 L 650.4583768888886 201.93317333333334 L 648.5855235555551 198.42933333333332 L 646.0651146666662 195.35818666666665 L 642.9939679999997 192.83777777777777 L 639.4901279999996 190.96492444444442 L 635.6882435555551 189.81164444444443 L 631.734412444444 189.42222222222222 L 627.780581333333 189.81164444444443 L 623.9786968888885 190.96492444444442 L 620.4748568888886 192.83777777777777 L 617.4037102222219 195.35818666666665 L 614.883301333333 198.42933333333332 L 613.0104479999997 201.93317333333334 L 611.8571679999995 205.73505777777777 L 611.4677457777774 209.68888888888887 L 611.8571679999995 213.64272 L 613.0104479999997 217.44460444444445 L 614.883301333333 220.94844444444445 L 617.4037102222219 224.0195911111111 L 620.4748568888886 226.54 L 623.9786968888885 228.41285333333332 L 627.780581333333 229.56613333333334 L 631.734412444444 229.95555555555555 Z M 393.1546079999996 243.95247999999998 L 396.57917688888847 243.61518222222222 L 399.8721546666663 242.61628444444443 L 402.90696355555514 240.99413333333334 L 405.5669991111107 238.81109333333333 L 407.7500391111107 236.1510577777778 L 409.37219022222183 233.1162488888889 L 410.3710879999996 229.82327111111113 L 410.7083857777774 226.3987022222222 L 410.3710879999996 222.97413333333333 L 409.37219022222183 219.68115555555556 L 407.7500391111107 216.64634666666666 L 405.5669991111107 213.98631111111112 L 402.90696355555514 211.80327111111112 L 399.8721546666663 210.18112000000002 L 396.57917688888847 209.1822222222222 L 393.1546079999996 208.84492444444442 L 389.7300391111107 209.1822222222222 L 386.43706133333296 210.18112000000002 L 383.40225244444406 211.80327111111112 L 380.7422168888885 213.98631111111112 L 378.5591768888885 216.64634666666666 L 376.93702577777736 219.68115555555556 L 375.9381279999996 222.97413333333333 L 375.6008302222218 226.3987022222222 L 375.9381279999996 229.82327111111113 L 376.93702577777736 233.1162488888889 L 378.5591768888885 236.1510577777778 L 380.7422168888885 238.81109333333333 L 383.40225244444406 240.99413333333334 L 386.43706133333296 242.61628444444443 L 389.7300391111107 243.61518222222222 L 393.1546079999996 243.95247999999998 Z M 631.734412444444 275.1111111111111 L 635.6882435555551 274.7216888888889 L 639.4901279999996 273.5684088888889 L 642.9939679999997 271.69555555555553 L 646.0651146666662 269.17514666666665 L 648.5855235555551 266.104 L 650.4583768888886 262.60016 L 651.6116568888885 258.79827555555556 L 652.0010791111107 254.84444444444443 L 651.6116568888885 250.89061333333333 L 650.4583768888886 247.08872888888888 L 648.5855235555551 243.58488888888888 L 646.0651146666662 240.51374222222222 L 642.9939679999997 237.99333333333334 L 639.4901279999996 236.12048 L 635.6882435555551 234.9672 L 631.734412444444 234.57777777777778 L 627.780581333333 234.9672 L 623.9786968888885 236.12048 L 620.4748568888886 237.99333333333334 L 617.4037102222219 240.51374222222222 L 614.883301333333 243.58488888888888 L 613.0104479999997 247.08872888888888 L 611.8571679999995 250.89061333333333 L 611.4677457777774 254.84444444444443 L 611.8571679999995 258.79827555555556 L 613.0104479999997 262.60016 L 614.883301333333 266.104 L 617.4037102222219 269.17514666666665 L 620.4748568888886 271.69555555555553 L 623.9786968888885 273.5684088888889 L 627.780581333333 274.7216888888889 L 631.734412444444 275.1111111111111 Z M 631.734412444444 410.5777777777778 L 635.6882435555551 410.1883555555556 L 639.4901279999996 409.0350755555556 L 642.9939679999997 407.1622222222222 L 646.0651146666662 404.64181333333335 L 648.5855235555551 401.5706666666667 L 650.4583768888886 398.06682666666666 L 651.6116568888885 394.2649422222222 L 652.0010791111107 390.31111111111113 L 651.6116568888885 386.35728 L 650.4583768888886 382.55539555555555 L 648.5855235555551 379.0515555555555 L 646.0651146666662 375.98040888888886 L 642.9939679999997 373.46000000000004 L 639.4901279999996 371.5871466666667 L 635.6882435555551 370.43386666666663 L 631.734412444444 370.0444444444445 L 627.780581333333 370.43386666666663 L 623.9786968888885 371.5871466666667 L 620.4748568888886 373.46000000000004 L 617.4037102222219 375.98040888888886 L 614.883301333333 379.0515555555555 L 613.0104479999997 382.55539555555555 L 612.140812444444 385.4222222222222 L 535.9816657777774 385.4222222222222 L 458.95988799999964 308.4004444444444 L 459.8606168888885 306.7152888888889 L 460.85951466666626 303.4223111111111 L 461.19681244444405 299.9977422222222 L 460.85951466666626 296.57317333333333 L 459.8606168888885 293.28019555555557 L 458.2384657777774 290.24538666666666 L 456.0554257777774 287.5853511111111 L 453.3953902222218 285.4023111111111 L 450.36058133333296 283.78016 L 447.06760355555514 282.7812622222222 L 443.64303466666627 282.4439644444444 L 440.2184657777774 282.7812622222222 L 436.92548799999963 283.78016 L 433.8906791111107 285.4023111111111 L 431.23064355555516 287.5853511111111 L 429.04760355555516 290.24538666666666 L 427.42545244444403 293.28019555555557 L 426.4265546666663 296.57317333333333 L 426.0892568888885 299.9977422222222 L 426.4265546666663 303.4223111111111 L 427.42545244444403 306.7152888888889 L 429.04760355555516 309.7500977777778 L 431.23064355555516 312.4101333333333 L 433.8906791111107 314.5931733333333 L 436.92548799999963 316.21532444444443 L 440.2184657777774 317.21422222222225 L 443.64303466666627 317.55152 L 447.06760355555514 317.21422222222225 L 450.36058133333296 316.21532444444443 L 452.04602133333293 315.3144177777778 L 530.4996746666662 393.7680711111111 L 531.2405102222218 394.3760711111111 L 532.0857368888885 394.8278577777778 L 533.0028568888885 395.10606222222225 L 533.9566346666663 395.20000000000005 L 612.140812444444 395.20000000000005 L 613.0104479999997 398.06682666666666 L 614.883301333333 401.5706666666667 L 617.4037102222219 404.64181333333335 L 620.4748568888886 407.1622222222222 L 623.9786968888885 409.0350755555556 L 627.780581333333 410.1883555555556 L 631.734412444444 410.5777777777778 Z M 393.1546079999996 342.08453333333335 L 396.57917688888847 341.74723555555556 L 399.8721546666663 340.7483377777778 L 402.90696355555514 339.1261866666667 L 405.5669991111107 336.9431466666667 L 407.7500391111107 334.2831111111111 L 409.37219022222183 331.2483022222222 L 410.3710879999996 327.95532444444444 L 410.7083857777774 324.5307555555556 L 410.3710879999996 321.10618666666664 L 409.37219022222183 317.8132088888889 L 407.7500391111107 314.7784 L 405.5669991111107 312.11836444444447 L 402.90696355555514 309.93532444444446 L 399.8721546666663 308.31317333333334 L 396.57917688888847 307.3142755555556 L 393.1546079999996 306.9769777777778 L 389.7300391111107 307.3142755555556 L 386.43706133333296 308.31317333333334 L 383.40225244444406 309.93532444444446 L 380.7422168888885 312.11836444444447 L 378.5591768888885 314.7784 L 376.93702577777736 317.8132088888889 L 375.9381279999996 321.10618666666664 L 375.6008302222218 324.5307555555556 L 375.9381279999996 327.95532444444444 L 376.93702577777736 331.2483022222222 L 378.5591768888885 334.2831111111111 L 380.7422168888885 336.9431466666667 L 383.40225244444406 339.1261866666667 L 386.43706133333296 340.7483377777778 L 389.7300391111107 341.74723555555556 L 393.1546079999996 342.08453333333335 Z M 443.64303466666627 366.61754666666667 L 447.06760355555514 366.2802488888889 L 450.36058133333296 365.2813511111111 L 453.3953902222218 363.6592 L 456.0554257777774 361.47616 L 458.2384657777774 358.8161244444444 L 459.8606168888885 355.7813155555556 L 460.85951466666626 352.48833777777776 L 461.19681244444405 349.0637688888889 L 460.85951466666626 345.6392 L 459.8606168888885 342.3462222222222 L 458.2384657777774 339.31141333333335 L 456.0554257777774 336.6513777777778 L 453.3953902222218 334.4683377777778 L 450.36058133333296 332.84618666666665 L 447.06760355555514 331.8472888888889 L 443.64303466666627 331.5099911111111 L 440.2184657777774 331.8472888888889 L 436.92548799999963 332.84618666666665 L 433.8906791111107 334.4683377777778 L 431.23064355555516 336.6513777777778 L 429.04760355555516 339.31141333333335 L 427.42545244444403 342.3462222222222 L 426.4265546666663 345.6392 L 426.0892568888885 349.0637688888889 L 426.4265546666663 352.48833777777776 L 427.42545244444403 355.7813155555556 L 429.04760355555516 358.8161244444444 L 431.23064355555516 361.47616 L 433.8906791111107 363.6592 L 436.92548799999963 365.2813511111111 L 440.2184657777774 366.2802488888889 L 443.64303466666627 366.61754666666667 Z M 393.1546079999996 391.15056000000004 L 396.57917688888847 390.81326222222225 L 399.8721546666663 389.81436444444444 L 402.90696355555514 388.1922133333333 L 405.5669991111107 386.00917333333337 L 407.7500391111107 383.3491377777778 L 409.37219022222183 380.3143288888889 L 410.3710879999996 377.02135111111113 L 410.7083857777774 373.59678222222226 L 410.3710879999996 370.17221333333333 L 409.37219022222183 366.87923555555557 L 407.7500391111107 363.84442666666666 L 405.5669991111107 361.1843911111111 L 402.90696355555514 359.0013511111111 L 399.8721546666663 357.3792 L 396.57917688888847 356.3803022222222 L 393.1546079999996 356.0430044444445 L 389.7300391111107 356.3803022222222 L 386.43706133333296 357.3792 L 383.40225244444406 359.0013511111111 L 380.7422168888885 361.1843911111111 L 378.5591768888885 363.84442666666666 L 376.93702577777736 366.87923555555557 L 375.9381279999996 370.17221333333333 L 375.6008302222218 373.59678222222226 L 375.9381279999996 377.02135111111113 L 376.93702577777736 380.3143288888889 L 378.5591768888885 383.3491377777778 L 380.7422168888885 386.00917333333337 L 383.40225244444406 388.1922133333333 L 386.43706133333296 389.81436444444444 L 389.7300391111107 390.81326222222225 L 393.1546079999996 391.15056000000004 Z M 443.64303466666627 415.68357333333336 L 447.06760355555514 415.34627555555556 L 450.36058133333296 414.34737777777775 L 453.3953902222218 412.7252266666667 L 456.0554257777774 410.5421866666667 L 458.2384657777774 407.8821511111111 L 459.8606168888885 404.8473422222222 L 460.85951466666626 401.55436444444445 L 461.19681244444405 398.1297955555556 L 460.85951466666626 394.70522666666665 L 459.8606168888885 391.4122488888889 L 458.2384657777774 388.37744 L 456.0554257777774 385.71740444444447 L 453.3953902222218 383.53436444444446 L 450.36058133333296 381.91221333333334 L 447.06760355555514 380.9133155555555 L 443.64303466666627 380.5760177777778 L 440.2184657777774 380.9133155555555 L 436.92548799999963 381.91221333333334 L 433.8906791111107 383.53436444444446 L 431.23064355555516 385.71740444444447 L 429.04760355555516 388.37744 L 427.42545244444403 391.4122488888889 L 426.4265546666663 394.70522666666665 L 426.0892568888885 398.1297955555556 L 426.4265546666663 401.55436444444445 L 427.42545244444403 404.8473422222222 L 429.04760355555516 407.8821511111111 L 431.23064355555516 410.5421866666667 L 433.8906791111107 412.7252266666667 L 436.92548799999963 414.34737777777775 L 440.2184657777774 415.34627555555556 L 443.64303466666627 415.68357333333336 Z M 631.734412444444 455.73333333333335 L 635.6882435555551 455.3439111111111 L 639.4901279999996 454.1906311111111 L 642.9939679999997 452.3177777777778 L 646.0651146666662 449.7973688888889 L 648.5855235555551 446.7262222222222 L 650.4583768888886 443.2223822222222 L 651.6116568888885 439.42049777777777 L 652.0010791111107 435.4666666666667 L 651.6116568888885 431.51283555555557 L 650.4583768888886 427.7109511111111 L 648.5855235555551 424.2071111111111 L 646.0651146666662 421.1359644444444 L 642.9939679999997 418.61555555555555 L 639.4901279999996 416.74270222222225 L 635.6882435555551 415.5894222222222 L 631.734412444444 415.20000000000005 L 627.780581333333 415.5894222222222 L 623.9786968888885 416.74270222222225 L 620.4748568888886 418.61555555555555 L 617.4037102222219 421.1359644444444 L 614.883301333333 424.2071111111111 L 613.0104479999997 427.7109511111111 L 611.8571679999995 431.51283555555557 L 611.4677457777774 435.4666666666667 L 611.8571679999995 439.42049777777777 L 613.0104479999997 443.2223822222222 L 614.883301333333 446.7262222222222 L 617.4037102222219 449.7973688888889 L 620.4748568888886 452.3177777777778 L 623.9786968888885 454.1906311111111 L 627.780581333333 455.3439111111111 L 631.734412444444 455.73333333333335 Z M 631.734412444444 500.8888888888889 L 635.6882435555551 500.49946666666665 L 639.4901279999996 499.34618666666665 L 642.9939679999997 497.47333333333336 L 646.0651146666662 494.9529244444444 L 648.5855235555551 491.88177777777776 L 650.4583768888886 488.3779377777778 L 651.6116568888885 484.57605333333333 L 652.0010791111107 480.62222222222226 L 651.6116568888885 476.66839111111113 L 650.4583768888886 472.8665066666667 L 648.5855235555551 469.36266666666666 L 646.0651146666662 466.29152 L 642.9939679999997 463.7711111111111 L 639.4901279999996 461.89825777777776 L 635.6882435555551 460.74497777777776 L 631.734412444444 460.35555555555555 L 627.780581333333 460.74497777777776 L 623.9786968888885 461.89825777777776 L 620.4748568888886 463.7711111111111 L 617.4037102222219 466.29152 L 614.883301333333 469.36266666666666 L 613.0104479999997 472.8665066666667 L 611.8571679999995 476.66839111111113 L 611.4677457777774 480.62222222222226 L 611.8571679999995 484.57605333333333 L 613.0104479999997 488.3779377777778 L 614.883301333333 491.88177777777776 L 617.4037102222219 494.9529244444444 L 620.4748568888886 497.47333333333336 L 623.9786968888885 499.34618666666665 L 627.780581333333 500.49946666666665 L 631.734412444444 500.8888888888889 Z M 418.40107911111073 570.2216888888889 L 427.7653991111107 569.2993777777779 L 436.76984355555516 566.5679111111111 L 445.06840355555516 562.1322488888889 L 452.3421457777774 556.1628444444444 L 458.31155022222185 548.8891022222222 L 462.7472124444441 540.5905422222222 L 465.4786791111107 531.5860977777778 L 466.4009902222218 522.2217777777778 L 465.4786791111107 512.8574577777778 L 462.7472124444441 503.85301333333337 L 458.31155022222185 495.55445333333336 L 452.3421457777774 488.28071111111115 L 445.06840355555516 482.31130666666667 L 436.76984355555516 477.87564444444445 L 427.7653991111107 475.1441777777778 L 418.40107911111073 474.22186666666664 L 409.0367591111107 475.1441777777778 L 400.03231466666625 477.87564444444445 L 391.7337546666663 482.31130666666667 L 384.46001244444403 488.28071111111115 L 378.4906079999996 495.55445333333336 L 374.0549457777774 503.85301333333337 L 371.3234791111107 512.8574577777778 L 370.4011679999996 522.2217777777778 L 371.3234791111107 531.5860977777778 L 374.0549457777774 540.5905422222222 L 378.4906079999996 548.8891022222222 L 384.46001244444403 556.1628444444444 L 391.7337546666663 562.1322488888889 L 400.03231466666625 566.5679111111111 L 409.0367591111107 569.2993777777779 L 418.40107911111073 570.2216888888889 Z M 544.2677457777773 558.6844444444445 L 550.6875146666663 558.05216 L 556.8605813333329 556.1795733333333 L 562.5497191111108 553.1386666666667 L 567.5362791111107 549.0463111111111 L 571.6286346666662 544.0597511111112 L 574.669541333333 538.3706133333333 L 576.5421279999996 532.1975466666667 L 577.1744124444441 525.7777777777778 L 576.5421279999996 519.3580088888889 L 574.669541333333 513.1849422222222 L 571.6286346666662 507.4958044444445 L 567.5362791111107 502.50924444444445 L 562.5497191111108 498.41688888888893 L 556.8605813333329 495.3759822222222 L 550.6875146666663 493.5033955555556 L 544.2677457777773 492.87111111111113 L 537.8479768888885 493.5033955555556 L 531.6749102222218 495.3759822222222 L 525.985772444444 498.41688888888893 L 520.9992124444441 502.50924444444445 L 516.9068568888885 507.4958044444445 L 513.8659502222218 513.1849422222222 L 511.99336355555516 519.3580088888889 L 511.3610791111107 525.7777777777778 L 511.99336355555516 532.1975466666667 L 513.8659502222218 538.3706133333333 L 516.9068568888885 544.0597511111112 L 520.9992124444441 549.0463111111111 L 525.985772444444 553.1386666666667 L 531.6749102222218 556.1795733333333 L 537.8479768888885 558.05216 L 544.2677457777773 558.6844444444445 Z" fill="rgb(77, 127, 196)" fill-rule="evenodd" fill-opacity="0.5" data-type="pcb_copper_pour" data-pcb-layer="bottom"/><path class="pcb-trace" stroke="rgb(200, 52, 52)" fill="none" d="M 631.734412444444 119.37777777777777 L 524.7121902222218 226.4" stroke-width="2.6666666666666665" stroke-linecap="round" stroke-linejoin="round" shape-rendering="crispEdges" data-type="pcb_trace" data-pcb-layer="top"/><path class="pcb-trace" stroke="rgb(200, 52, 52)" fill="none" d="M 524.7121902222218 226.4 L 393.15663466666626 226.4" stroke-width="2.6666666666666665" stroke-linecap="round" stroke-linejoin="round" shape-rendering="crispEdges" data-type="pcb_trace" data-pcb-layer="top"/><path class="pcb-trace" stroke="rgb(200, 52, 52)" fill="none" d="M 631.734412444444 209.68888888888887 L 521.241476605968 320.18182472736487" stroke-width="2.6666666666666665" stroke-linecap="round" stroke-linejoin="round" shape-rendering="crispEdges" data-type="pcb_trace" data-pcb-layer="top"/><path class="pcb-trace" stroke="rgb(200, 52, 52)" fill="none" d="M 521.241476605968 320.18182472736487 L 397.50814327263475 320.18182472736487" stroke-width="2.6666666666666665" stroke-linecap="round" stroke-linejoin="round" shape-rendering="crispEdges" data-type="pcb_trace" data-pcb-layer="top"/><path class="pcb-trace" stroke="rgb(200, 52, 52)" fill="none" d="M 397.50814327263475 320.18182472736487 L 393.15663466666626 324.5333333333333" stroke-width="2.6666666666666665" stroke-linecap="round" stroke-linejoin="round" shape-rendering="crispEdges" data-type="pcb_trace" data-pcb-layer="top"/><path class="pcb-trace" stroke="rgb(200, 52, 52)" fill="none" d="M 631.734412444444 254.84444444444446 L 558.2131039915453 328.3657528973433" stroke-width="2.6666666666666665" stroke-linecap="round" stroke-linejoin="round" shape-rendering="crispEdges" data-type="pcb_trace" data-pcb-layer="top"/><path class="pcb-trace" stroke="rgb(200, 52, 52)" fill="none" d="M 558.2131039915453 328.3657528973433 L 431.0818921179408 328.3657528973433" stroke-width="2.6666666666666665" stroke-linecap="round" stroke-linejoin="round" shape-rendering="crispEdges" data-type="pcb_trace" data-pcb-layer="top"/><path class="pcb-trace" stroke="rgb(200, 52, 52)" fill="none" d="M 431.0818921179408 328.3657528973433 L 393.15663466666626 366.2910103486179" stroke-width="2.6666666666666665" stroke-linecap="round" stroke-linejoin="round" shape-rendering="crispEdges" data-type="pcb_trace" data-pcb-layer="top"/><path class="pcb-trace" stroke="rgb(200, 52, 52)" fill="none" d="M 393.15663466666626 366.2910103486179 L 393.15663466666626 373.6" stroke-width="2.6666666666666665" stroke-linecap="round" stroke-linejoin="round" shape-rendering="crispEdges" data-type="pcb_trace" data-pcb-layer="top"/><path class="pcb-trace" stroke="rgb(200, 52, 52)" fill="none" d="M 631.734412444444 435.4666666666667 L 530.0455235555552 435.4666666666667" stroke-width="2.6666666666666665" stroke-linecap="round" stroke-linejoin="round" shape-rendering="crispEdges" data-type="pcb_trace" data-pcb-layer="top"/><path class="pcb-trace" stroke="rgb(200, 52, 52)" fill="none" d="M 530.0455235555552 435.4666666666667 L 443.64552355555514 349.06666666666666" stroke-width="2.6666666666666665" stroke-linecap="round" stroke-linejoin="round" shape-rendering="crispEdges" data-type="pcb_trace" data-pcb-layer="top"/><path class="pcb-trace" stroke="rgb(200, 52, 52)" fill="none" d="M 631.734412444444 480.62222222222226 L 526.134412444444 480.62222222222226" stroke-width="2.6666666666666665" stroke-linecap="round" stroke-linejoin="round" shape-rendering="crispEdges" data-type="pcb_trace" data-pcb-layer="top"/><path class="pcb-trace" stroke="rgb(200, 52, 52)" fill="none" d="M 526.134412444444 480.62222222222226 L 443.64552355555514 398.1333333333333" stroke-width="2.6666666666666665" stroke-linecap="round" stroke-linejoin="round" shape-rendering="crispEdges" data-type="pcb_trace" data-pcb-layer="top"/><path class="pcb-copper-pour pcb-copper-pour-brep" d="M 653.6010791111107 578.6666666666667 L 254.3121902222218 578.6666666666667 L 254.3121902222218 21.333333333333314 L 653.6010791111107 21.333333333333314 L 653.6010791111107 578.6666666666667 Z M 418.40107911111073 125.77813333333333 L 427.7653991111107 124.8558222222222 L 436.76984355555516 122.12435555555555 L 445.06840355555516 117.68869333333333 L 452.3421457777774 111.71928888888888 L 458.31155022222185 104.44554666666664 L 462.7472124444441 96.14698666666666 L 465.4786791111107 87.14254222222223 L 466.4009902222218 77.77822222222224 L 465.4786791111107 68.41390222222219 L 462.7472124444441 59.40945777777776 L 458.31155022222185 51.11089777777778 L 452.3421457777774 43.83715555555557 L 445.06840355555516 37.86775111111109 L 436.76984355555516 33.43208888888887 L 427.7653991111107 30.700622222222194 L 418.40107911111073 29.778311111111066 L 409.0367591111107 30.700622222222194 L 400.03231466666625 33.43208888888887 L 391.7337546666663 37.86775111111109 L 384.46001244444403 43.83715555555557 L 378.4906079999996 51.11089777777778 L 374.0549457777774 59.40945777777776 L 371.3234791111107 68.41390222222219 L 370.4011679999996 77.77822222222224 L 371.3234791111107 87.14254222222223 L 374.0549457777774 96.14698666666666 L 378.4906079999996 104.44554666666664 L 384.46001244444403 111.71928888888888 L 391.7337546666663 117.68869333333333 L 400.03231466666625 122.12435555555555 L 409.0367591111107 124.8558222222222 L 418.40107911111073 125.77813333333333 Z M 544.2677457777773 107.12888888888887 L 550.6875146666663 106.49660444444444 L 556.8605813333329 104.62401777777777 L 562.5497191111108 101.5831111111111 L 567.5362791111107 97.49075555555555 L 571.6286346666662 92.50419555555553 L 574.669541333333 86.81505777777778 L 576.5421279999996 80.64199111111108 L 577.1744124444441 74.22222222222223 L 576.5421279999996 67.80245333333332 L 574.669541333333 61.629386666666676 L 571.6286346666662 55.940248888888874 L 567.5362791111107 50.95368888888888 L 562.5497191111108 46.861333333333306 L 556.8605813333329 43.82042666666666 L 550.6875146666663 41.947839999999985 L 544.2677457777773 41.315555555555534 L 537.8479768888885 41.947839999999985 L 531.6749102222218 43.82042666666666 L 525.985772444444 46.861333333333306 L 520.9992124444441 50.95368888888888 L 516.9068568888885 55.940248888888874 L 513.8659502222218 61.629386666666676 L 511.99336355555516 67.80245333333332 L 511.3610791111107 74.22222222222223 L 511.99336355555516 80.64199111111108 L 513.8659502222218 86.81505777777778 L 516.9068568888885 92.50419555555553 L 520.9992124444441 97.49075555555555 L 525.985772444444 101.5831111111111 L 531.6749102222218 104.62401777777777 L 537.8479768888885 106.49660444444444 L 544.2677457777773 107.12888888888887 Z M 393.1546079999996 243.95247999999998 L 396.57917688888847 243.61518222222222 L 399.8721546666663 242.61628444444443 L 402.90696355555514 240.99413333333334 L 405.5669991111107 238.81109333333333 L 407.7500391111107 236.1510577777778 L 409.37219022222183 233.1162488888889 L 409.92650133333296 231.2888888888889 L 524.7121902222218 231.2888888888889 L 525.6659679999996 231.1949511111111 L 526.5830879999996 230.91674666666665 L 527.4283146666662 230.46496 L 528.1691502222218 229.85696 L 621.3365991111107 136.6895111111111 L 623.9786968888885 138.10174222222224 L 627.780581333333 139.2550222222222 L 631.734412444444 139.64444444444445 L 635.6882435555551 139.2550222222222 L 639.4901279999996 138.10174222222224 L 642.9939679999997 136.2288888888889 L 646.0651146666662 133.70848 L 648.5855235555551 130.63733333333332 L 650.4583768888886 127.13349333333332 L 651.6116568888885 123.33160888888887 L 652.0010791111107 119.37777777777777 L 651.6116568888885 115.42394666666667 L 650.4583768888886 111.62206222222221 L 648.5855235555551 108.11822222222222 L 646.0651146666662 105.04707555555555 L 642.9939679999997 102.52666666666667 L 639.4901279999996 100.65381333333335 L 635.6882435555551 99.50053333333332 L 631.734412444444 99.11111111111109 L 627.780581333333 99.50053333333332 L 623.9786968888885 100.65381333333335 L 620.4748568888886 102.52666666666667 L 617.4037102222219 105.04707555555555 L 614.883301333333 108.11822222222222 L 613.0104479999997 111.62206222222221 L 611.8571679999995 115.42394666666667 L 611.4677457777774 119.37777777777777 L 611.8571679999995 123.33160888888887 L 613.0104479999997 127.13349333333332 L 614.4226791111107 129.7755911111111 L 522.6871591111108 221.51111111111112 L 409.92728355555516 221.51111111111112 L 409.37219022222183 219.68115555555556 L 407.7500391111107 216.64634666666666 L 405.5669991111107 213.98631111111112 L 402.90696355555514 211.80327111111112 L 399.8721546666663 210.18112000000002 L 396.57917688888847 209.1822222222222 L 393.1546079999996 208.84492444444442 L 389.7300391111107 209.1822222222222 L 386.43706133333296 210.18112000000002 L 383.40225244444406 211.80327111111112 L 380.7422168888885 213.98631111111112 L 378.5591768888885 216.64634666666666 L 376.93702577777736 219.68115555555556 L 375.9381279999996 222.97413333333333 L 375.6008302222218 226.3987022222222 L 375.9381279999996 229.82327111111113 L 376.93702577777736 233.1162488888889 L 378.5591768888885 236.1510577777778 L 380.7422168888885 238.81109333333333 L 383.40225244444406 240.99413333333334 L 386.43706133333296 242.61628444444443 L 389.7300391111107 243.61518222222222 L 393.1546079999996 243.95247999999998 Z M 631.734412444444 184.79999999999998 L 635.6882435555551 184.41057777777777 L 639.4901279999996 183.25729777777775 L 642.9939679999997 181.38444444444445 L 646.0651146666662 178.86403555555555 L 648.5855235555551 175.79288888888888 L 650.4583768888886 172.28904888888889 L 651.6116568888885 168.48716444444443 L 652.0010791111107 164.53333333333333 L 651.6116568888885 160.5795022222222 L 650.4583768888886 156.77761777777775 L 648.5855235555551 153.27377777777778 L 646.0651146666662 150.2026311111111 L 642.9939679999997 147.6822222222222 L 639.4901279999996 145.80936888888888 L 635.6882435555551 144.6560888888889 L 631.734412444444 144.26666666666665 L 627.780581333333 144.6560888888889 L 623.9786968888885 145.80936888888888 L 620.4748568888886 147.6822222222222 L 617.4037102222219 150.2026311111111 L 614.883301333333 153.27377777777778 L 613.0104479999997 156.77761777777775 L 611.8571679999995 160.5795022222222 L 611.4677457777774 164.53333333333333 L 611.8571679999995 168.48716444444443 L 613.0104479999997 172.28904888888889 L 614.883301333333 175.79288888888888 L 617.4037102222219 178.86403555555555 L 620.4748568888886 181.38444444444445 L 623.9786968888885 183.25729777777775 L 627.780581333333 184.41057777777777 L 631.734412444444 184.79999999999998 Z M 443.64303466666627 219.41946666666666 L 447.06760355555514 219.08216888888887 L 450.36058133333296 218.08327111111112 L 453.3953902222218 216.46112 L 456.0554257777774 214.27808 L 458.2384657777774 211.61804444444442 L 459.8606168888885 208.58323555555558 L 460.85951466666626 205.29025777777778 L 461.19681244444405 201.86568888888888 L 460.85951466666626 198.44112 L 459.8606168888885 195.14814222222222 L 458.2384657777774 192.11333333333334 L 456.0554257777774 189.45329777777778 L 453.3953902222218 187.27025777777777 L 450.36058133333296 185.64810666666665 L 447.06760355555514 184.6492088888889 L 443.64303466666627 184.3119111111111 L 440.2184657777774 184.6492088888889 L 436.92548799999963 185.64810666666665 L 433.8906791111107 187.27025777777777 L 431.23064355555516 189.45329777777778 L 429.04760355555516 192.11333333333334 L 427.42545244444403 195.14814222222222 L 426.4265546666663 198.44112 L 426.0892568888885 201.86568888888888 L 426.4265546666663 205.29025777777778 L 427.42545244444403 208.58323555555558 L 429.04760355555516 211.61804444444442 L 431.23064355555516 214.27808 L 433.8906791111107 216.46112 L 436.92548799999963 218.08327111111112 L 440.2184657777774 219.08216888888887 L 443.64303466666627 219.41946666666666 Z M 631.734412444444 455.73333333333335 L 635.6882435555551 455.3439111111111 L 639.4901279999996 454.1906311111111 L 642.9939679999997 452.3177777777778 L 646.0651146666662 449.7973688888889 L 648.5855235555551 446.7262222222222 L 650.4583768888886 443.2223822222222 L 651.6116568888885 439.42049777777777 L 652.0010791111107 435.4666666666667 L 651.6116568888885 431.51283555555557 L 650.4583768888886 427.7109511111111 L 648.5855235555551 424.2071111111111 L 646.0651146666662 421.1359644444444 L 642.9939679999997 418.61555555555555 L 639.4901279999996 416.74270222222225 L 635.6882435555551 415.5894222222222 L 631.734412444444 415.20000000000005 L 627.780581333333 415.5894222222222 L 623.9786968888885 416.74270222222225 L 620.4748568888886 418.61555555555555 L 617.4037102222219 421.1359644444444 L 614.883301333333 424.2071111111111 L 613.0104479999997 427.7109511111111 L 612.140812444444 430.5777777777778 L 532.0705546666662 430.5777777777778 L 458.9596568888885 357.46688 L 459.8606168888885 355.7813155555556 L 460.85951466666626 352.48833777777776 L 461.19681244444405 349.0637688888889 L 460.85951466666626 345.6392 L 459.8606168888885 342.3462222222222 L 458.2384657777774 339.31141333333335 L 456.0554257777774 336.6513777777778 L 453.3953902222218 334.4683377777778 L 451.12475911111073 333.2546488888889 L 558.2130968888885 333.2546488888889 L 559.1668746666663 333.16071111111114 L 560.0839946666663 332.8824888888889 L 560.929221333333 332.43072 L 561.6700746666663 331.82272 L 621.3365991111107 272.15617777777777 L 623.9786968888885 273.5684088888889 L 627.780581333333 274.7216888888889 L 631.734412444444 275.1111111111111 L 635.6882435555551 274.7216888888889 L 639.4901279999996 273.5684088888889 L 642.9939679999997 271.69555555555553 L 646.0651146666662 269.17514666666665 L 648.5855235555551 266.104 L 650.4583768888886 262.60016 L 651.6116568888885 258.79827555555556 L 652.0010791111107 254.84444444444443 L 651.6116568888885 250.89061333333333 L 650.4583768888886 247.08872888888888 L 648.5855235555551 243.58488888888888 L 646.0651146666662 240.51374222222222 L 642.9939679999997 237.99333333333334 L 639.4901279999996 236.12048 L 635.6882435555551 234.9672 L 631.734412444444 234.57777777777778 L 627.780581333333 234.9672 L 623.9786968888885 236.12048 L 620.4748568888886 237.99333333333334 L 617.4037102222219 240.51374222222222 L 614.883301333333 243.58488888888888 L 613.0104479999997 247.08872888888888 L 611.8571679999995 250.89061333333333 L 611.4677457777774 254.84444444444443 L 611.8571679999995 258.79827555555556 L 613.0104479999997 262.60016 L 614.4226791111107 265.2422577777778 L 556.1880479999996 323.4768711111111 L 524.8603679999997 323.4768711111111 L 621.3365991111107 227.0006222222222 L 623.9786968888885 228.41285333333332 L 627.780581333333 229.56613333333334 L 631.734412444444 229.95555555555555 L 635.6882435555551 229.56613333333334 L 639.4901279999996 228.41285333333332 L 642.9939679999997 226.54 L 646.0651146666662 224.0195911111111 L 648.5855235555551 220.94844444444445 L 650.4583768888886 217.44460444444445 L 651.6116568888885 213.64272 L 652.0010791111107 209.68888888888887 L 651.6116568888885 205.73505777777777 L 650.4583768888886 201.93317333333334 L 648.5855235555551 198.42933333333332 L 646.0651146666662 195.35818666666665 L 642.9939679999997 192.83777777777777 L 639.4901279999996 190.96492444444442 L 635.6882435555551 189.81164444444443 L 631.734412444444 189.42222222222222 L 627.780581333333 189.81164444444443 L 623.9786968888885 190.96492444444442 L 620.4748568888886 192.83777777777777 L 617.4037102222219 195.35818666666665 L 614.883301333333 198.42933333333332 L 613.0104479999997 201.93317333333334 L 611.8571679999995 205.73505777777777 L 611.4677457777774 209.68888888888887 L 611.8571679999995 213.64272 L 613.0104479999997 217.44460444444445 L 614.4226791111107 220.08670222222221 L 519.216421333333 315.2929422222222 L 452.0862168888885 315.2929422222222 L 453.3953902222218 314.5931733333333 L 456.0554257777774 312.4101333333333 L 458.2384657777774 309.7500977777778 L 459.8606168888885 306.7152888888889 L 460.85951466666626 303.4223111111111 L 461.19681244444405 299.9977422222222 L 460.85951466666626 296.57317333333333 L 459.8606168888885 293.28019555555557 L 458.2384657777774 290.24538666666666 L 456.0554257777774 287.5853511111111 L 453.3953902222218 285.4023111111111 L 450.36058133333296 283.78016 L 447.06760355555514 282.7812622222222 L 443.64303466666627 282.4439644444444 L 440.2184657777774 282.7812622222222 L 436.92548799999963 283.78016 L 433.8906791111107 285.4023111111111 L 431.23064355555516 287.5853511111111 L 429.04760355555516 290.24538666666666 L 427.42545244444403 293.28019555555557 L 426.4265546666663 296.57317333333333 L 426.0892568888885 299.9977422222222 L 426.4265546666663 303.4223111111111 L 427.42545244444403 306.7152888888889 L 429.04760355555516 309.7500977777778 L 431.23064355555516 312.4101333333333 L 433.8906791111107 314.5931733333333 L 435.19985244444405 315.2929422222222 L 408.0250613333329 315.2929422222222 L 407.7500391111107 314.7784 L 405.5669991111107 312.11836444444447 L 402.90696355555514 309.93532444444446 L 399.8721546666663 308.31317333333334 L 396.57917688888847 307.3142755555556 L 393.1546079999996 306.9769777777778 L 389.7300391111107 307.3142755555556 L 386.43706133333296 308.31317333333334 L 383.40225244444406 309.93532444444446 L 380.7422168888885 312.11836444444447 L 378.5591768888885 314.7784 L 376.93702577777736 317.8132088888889 L 375.9381279999996 321.10618666666664 L 375.6008302222218 324.5307555555556 L 375.9381279999996 327.95532444444444 L 376.93702577777736 331.2483022222222 L 378.5591768888885 334.2831111111111 L 380.7422168888885 336.9431466666667 L 383.40225244444406 339.1261866666667 L 386.43706133333296 340.7483377777778 L 389.7300391111107 341.74723555555556 L 393.1546079999996 342.08453333333335 L 396.57917688888847 341.74723555555556 L 399.8721546666663 340.7483377777778 L 402.90696355555514 339.1261866666667 L 405.5669991111107 336.9431466666667 L 407.7500391111107 334.2831111111111 L 409.37219022222183 331.2483022222222 L 410.3710879999996 327.95532444444444 L 410.65519466666626 325.07072 L 427.46298133333295 325.07072 L 396.1915857777774 356.3421333333333 L 393.1546079999996 356.0430044444445 L 389.7300391111107 356.3803022222222 L 386.43706133333296 357.3792 L 383.40225244444406 359.0013511111111 L 380.7422168888885 361.1843911111111 L 378.5591768888885 363.84442666666666 L 376.93702577777736 366.87923555555557 L 375.9381279999996 370.17221333333333 L 375.6008302222218 373.59678222222226 L 375.9381279999996 377.02135111111113 L 376.93702577777736 380.3143288888889 L 378.5591768888885 383.3491377777778 L 380.7422168888885 386.00917333333337 L 383.40225244444406 388.1922133333333 L 386.43706133333296 389.81436444444444 L 389.7300391111107 390.81326222222225 L 393.1546079999996 391.15056000000004 L 396.57917688888847 390.81326222222225 L 399.8721546666663 389.81436444444444 L 402.90696355555514 388.1922133333333 L 405.5669991111107 386.00917333333337 L 407.7500391111107 383.3491377777778 L 409.37219022222183 380.3143288888889 L 410.3710879999996 377.02135111111113 L 410.7083857777774 373.59678222222226 L 410.3710879999996 370.17221333333333 L 409.37219022222183 366.87923555555557 L 407.7500391111107 363.84442666666666 L 405.5669991111107 361.1843911111111 L 405.35290133333297 361.00867555555556 L 433.1069279999996 333.2546488888889 L 436.1613102222218 333.2546488888889 L 433.8906791111107 334.4683377777778 L 431.23064355555516 336.6513777777778 L 429.04760355555516 339.31141333333335 L 427.42545244444403 342.3462222222222 L 426.4265546666663 345.6392 L 426.0892568888885 349.0637688888889 L 426.4265546666663 352.48833777777776 L 427.42545244444403 355.7813155555556 L 429.04760355555516 358.8161244444444 L 431.23064355555516 361.47616 L 433.8906791111107 363.6592 L 436.92548799999963 365.2813511111111 L 440.2184657777774 366.2802488888889 L 443.64303466666627 366.61754666666667 L 447.06760355555514 366.2802488888889 L 450.36058133333296 365.2813511111111 L 452.04561244444403 364.38067555555557 L 526.5885635555552 438.9236266666667 L 527.3293991111107 439.5316266666667 L 528.1746257777774 439.9834133333334 L 529.0917457777774 440.2616177777778 L 530.0455235555552 440.35555555555555 L 612.140812444444 440.35555555555555 L 613.0104479999997 443.2223822222222 L 614.883301333333 446.7262222222222 L 617.4037102222219 449.7973688888889 L 620.4748568888886 452.3177777777778 L 623.9786968888885 454.1906311111111 L 627.780581333333 455.3439111111111 L 631.734412444444 455.73333333333335 Z M 443.64303466666627 268.48549333333335 L 447.06760355555514 268.14819555555556 L 450.36058133333296 267.14929777777775 L 453.3953902222218 265.5271466666667 L 456.0554257777774 263.3441066666667 L 458.2384657777774 260.6840711111111 L 459.8606168888885 257.6492622222222 L 460.85951466666626 254.35628444444444 L 461.19681244444405 250.93171555555554 L 460.85951466666626 247.50714666666667 L 459.8606168888885 244.21416888888888 L 458.2384657777774 241.17936 L 456.0554257777774 238.51932444444444 L 453.3953902222218 236.33628444444443 L 450.36058133333296 234.71413333333334 L 447.06760355555514 233.71523555555555 L 443.64303466666627 233.3779377777778 L 440.2184657777774 233.71523555555555 L 436.92548799999963 234.71413333333334 L 433.8906791111107 236.33628444444443 L 431.23064355555516 238.51932444444444 L 429.04760355555516 241.17936 L 427.42545244444403 244.21416888888888 L 426.4265546666663 247.50714666666667 L 426.0892568888885 250.93171555555554 L 426.4265546666663 254.35628444444444 L 427.42545244444403 257.6492622222222 L 429.04760355555516 260.6840711111111 L 431.23064355555516 263.3441066666667 L 433.8906791111107 265.5271466666667 L 436.92548799999963 267.14929777777775 L 440.2184657777774 268.14819555555556 L 443.64303466666627 268.48549333333335 Z M 393.1546079999996 293.01850666666667 L 396.57917688888847 292.6812088888889 L 399.8721546666663 291.6823111111111 L 402.90696355555514 290.06016 L 405.5669991111107 287.87712 L 407.7500391111107 285.2170844444444 L 409.37219022222183 282.1822755555556 L 410.3710879999996 278.88929777777776 L 410.7083857777774 275.4647288888889 L 410.3710879999996 272.04016 L 409.37219022222183 268.74718222222225 L 407.7500391111107 265.71237333333335 L 405.5669991111107 263.0523377777778 L 402.90696355555514 260.8692977777778 L 399.8721546666663 259.24714666666665 L 396.57917688888847 258.2482488888889 L 393.1546079999996 257.9109511111111 L 389.7300391111107 258.2482488888889 L 386.43706133333296 259.24714666666665 L 383.40225244444406 260.8692977777778 L 380.7422168888885 263.0523377777778 L 378.5591768888885 265.71237333333335 L 376.93702577777736 268.74718222222225 L 375.9381279999996 272.04016 L 375.6008302222218 275.4647288888889 L 375.9381279999996 278.88929777777776 L 376.93702577777736 282.1822755555556 L 378.5591768888885 285.2170844444444 L 380.7422168888885 287.87712 L 383.40225244444406 290.06016 L 386.43706133333296 291.6823111111111 L 389.7300391111107 292.6812088888889 L 393.1546079999996 293.01850666666667 Z M 631.734412444444 320.26666666666665 L 635.6882435555551 319.87724444444444 L 639.4901279999996 318.72396444444445 L 642.9939679999997 316.8511111111111 L 646.0651146666662 314.3307022222222 L 648.5855235555551 311.25955555555555 L 650.4583768888886 307.7557155555556 L 651.6116568888885 303.9538311111111 L 652.0010791111107 300 L 651.6116568888885 296.0461688888889 L 650.4583768888886 292.2442844444444 L 648.5855235555551 288.74044444444445 L 646.0651146666662 285.6692977777778 L 642.9939679999997 283.1488888888889 L 639.4901279999996 281.27603555555555 L 635.6882435555551 280.12275555555556 L 631.734412444444 279.73333333333335 L 627.780581333333 280.12275555555556 L 623.9786968888885 281.27603555555555 L 620.4748568888886 283.1488888888889 L 617.4037102222219 285.6692977777778 L 614.883301333333 288.74044444444445 L 613.0104479999997 292.2442844444444 L 611.8571679999995 296.0461688888889 L 611.4677457777774 300 L 611.8571679999995 303.9538311111111 L 613.0104479999997 307.7557155555556 L 614.883301333333 311.25955555555555 L 617.4037102222219 314.3307022222222 L 620.4748568888886 316.8511111111111 L 623.9786968888885 318.72396444444445 L 627.780581333333 319.87724444444444 L 631.734412444444 320.26666666666665 Z M 631.734412444444 365.4222222222222 L 635.6882435555551 365.0328 L 639.4901279999996 363.87952 L 642.9939679999997 362.00666666666666 L 646.0651146666662 359.4862577777778 L 648.5855235555551 356.4151111111111 L 650.4583768888886 352.9112711111111 L 651.6116568888885 349.10938666666664 L 652.0010791111107 345.15555555555557 L 651.6116568888885 341.20172444444444 L 650.4583768888886 337.39984 L 648.5855235555551 333.896 L 646.0651146666662 330.82485333333335 L 642.9939679999997 328.30444444444447 L 639.4901279999996 326.4315911111111 L 635.6882435555551 325.2783111111111 L 631.734412444444 324.8888888888889 L 627.780581333333 325.2783111111111 L 623.9786968888885 326.4315911111111 L 620.4748568888886 328.30444444444447 L 617.4037102222219 330.82485333333335 L 614.883301333333 333.896 L 613.0104479999997 337.39984 L 611.8571679999995 341.20172444444444 L 611.4677457777774 345.15555555555557 L 611.8571679999995 349.10938666666664 L 613.0104479999997 352.9112711111111 L 614.883301333333 356.4151111111111 L 617.4037102222219 359.4862577777778 L 620.4748568888886 362.00666666666666 L 623.9786968888885 363.87952 L 627.780581333333 365.0328 L 631.734412444444 365.4222222222222 Z M 631.734412444444 410.5777777777778 L 635.6882435555551 410.1883555555556 L 639.4901279999996 409.0350755555556 L 642.9939679999997 407.1622222222222 L 646.0651146666662 404.64181333333335 L 648.5855235555551 401.5706666666667 L 650.4583768888886 398.06682666666666 L 651.6116568888885 394.2649422222222 L 652.0010791111107 390.31111111111113 L 651.6116568888885 386.35728 L 650.4583768888886 382.55539555555555 L 648.5855235555551 379.0515555555555 L 646.0651146666662 375.98040888888886 L 642.9939679999997 373.46000000000004 L 639.4901279999996 371.5871466666667 L 635.6882435555551 370.43386666666663 L 631.734412444444 370.0444444444445 L 627.780581333333 370.43386666666663 L 623.9786968888885 371.5871466666667 L 620.4748568888886 373.46000000000004 L 617.4037102222219 375.98040888888886 L 614.883301333333 379.0515555555555 L 613.0104479999997 382.55539555555555 L 611.8571679999995 386.35728 L 611.4677457777774 390.31111111111113 L 611.8571679999995 394.2649422222222 L 613.0104479999997 398.06682666666666 L 614.883301333333 401.5706666666667 L 617.4037102222219 404.64181333333335 L 620.4748568888886 407.1622222222222 L 623.9786968888885 409.0350755555556 L 627.780581333333 410.1883555555556 L 631.734412444444 410.5777777777778 Z M 631.734412444444 500.8888888888889 L 635.6882435555551 500.49946666666665 L 639.4901279999996 499.34618666666665 L 642.9939679999997 497.47333333333336 L 646.0651146666662 494.9529244444444 L 648.5855235555551 491.88177777777776 L 650.4583768888886 488.3779377777778 L 651.6116568888885 484.57605333333333 L 652.0010791111107 480.62222222222226 L 651.6116568888885 476.66839111111113 L 650.4583768888886 472.8665066666667 L 648.5855235555551 469.36266666666666 L 646.0651146666662 466.29152 L 642.9939679999997 463.7711111111111 L 639.4901279999996 461.89825777777776 L 635.6882435555551 460.74497777777776 L 631.734412444444 460.35555555555555 L 627.780581333333 460.74497777777776 L 623.9786968888885 461.89825777777776 L 620.4748568888886 463.7711111111111 L 617.4037102222219 466.29152 L 614.883301333333 469.36266666666666 L 613.0104479999997 472.8665066666667 L 612.140812444444 475.73333333333335 L 528.1594435555552 475.73333333333335 L 458.95942577777737 406.53331555555553 L 459.8606168888885 404.8473422222222 L 460.85951466666626 401.55436444444445 L 461.19681244444405 398.1297955555556 L 460.85951466666626 394.70522666666665 L 459.8606168888885 391.4122488888889 L 458.2384657777774 388.37744 L 456.0554257777774 385.71740444444447 L 453.3953902222218 383.53436444444446 L 450.36058133333296 381.91221333333334 L 447.06760355555514 380.9133155555555 L 443.64303466666627 380.5760177777778 L 440.2184657777774 380.9133155555555 L 436.92548799999963 381.91221333333334 L 433.8906791111107 383.53436444444446 L 431.23064355555516 385.71740444444447 L 429.04760355555516 388.37744 L 427.42545244444403 391.4122488888889 L 426.4265546666663 394.70522666666665 L 426.0892568888885 398.1297955555556 L 426.4265546666663 401.55436444444445 L 427.42545244444403 404.8473422222222 L 429.04760355555516 407.8821511111111 L 431.23064355555516 410.5421866666667 L 433.8906791111107 412.7252266666667 L 436.92548799999963 414.34737777777775 L 440.2184657777774 415.34627555555556 L 443.64303466666627 415.68357333333336 L 447.06760355555514 415.34627555555556 L 450.36058133333296 414.34737777777775 L 452.0452035555552 413.44693333333333 L 522.677452444444 484.07918222222224 L 523.4182879999996 484.68718222222225 L 524.2635146666663 485.1389688888889 L 525.1806346666663 485.4171733333334 L 526.134412444444 485.5111111111111 L 612.140812444444 485.5111111111111 L 613.0104479999997 488.3779377777778 L 614.883301333333 491.88177777777776 L 617.4037102222219 494.9529244444444 L 620.4748568888886 497.47333333333336 L 623.9786968888885 499.34618666666665 L 627.780581333333 500.49946666666665 L 631.734412444444 500.8888888888889 Z M 418.40107911111073 570.2216888888889 L 427.7653991111107 569.2993777777779 L 436.76984355555516 566.5679111111111 L 445.06840355555516 562.1322488888889 L 452.3421457777774 556.1628444444444 L 458.31155022222185 548.8891022222222 L 462.7472124444441 540.5905422222222 L 465.4786791111107 531.5860977777778 L 466.4009902222218 522.2217777777778 L 465.4786791111107 512.8574577777778 L 462.7472124444441 503.85301333333337 L 458.31155022222185 495.55445333333336 L 452.3421457777774 488.28071111111115 L 445.06840355555516 482.31130666666667 L 436.76984355555516 477.87564444444445 L 427.7653991111107 475.1441777777778 L 418.40107911111073 474.22186666666664 L 409.0367591111107 475.1441777777778 L 400.03231466666625 477.87564444444445 L 391.7337546666663 482.31130666666667 L 384.46001244444403 488.28071111111115 L 378.4906079999996 495.55445333333336 L 374.0549457777774 503.85301333333337 L 371.3234791111107 512.8574577777778 L 370.4011679999996 522.2217777777778 L 371.3234791111107 531.5860977777778 L 374.0549457777774 540.5905422222222 L 378.4906079999996 548.8891022222222 L 384.46001244444403 556.1628444444444 L 391.7337546666663 562.1322488888889 L 400.03231466666625 566.5679111111111 L 409.0367591111107 569.2993777777779 L 418.40107911111073 570.2216888888889 Z M 544.2677457777773 558.6844444444445 L 550.6875146666663 558.05216 L 556.8605813333329 556.1795733333333 L 562.5497191111108 553.1386666666667 L 567.5362791111107 549.0463111111111 L 571.6286346666662 544.0597511111112 L 574.669541333333 538.3706133333333 L 576.5421279999996 532.1975466666667 L 577.1744124444441 525.7777777777778 L 576.5421279999996 519.3580088888889 L 574.669541333333 513.1849422222222 L 571.6286346666662 507.4958044444445 L 567.5362791111107 502.50924444444445 L 562.5497191111108 498.41688888888893 L 556.8605813333329 495.3759822222222 L 550.6875146666663 493.5033955555556 L 544.2677457777773 492.87111111111113 L 537.8479768888885 493.5033955555556 L 531.6749102222218 495.3759822222222 L 525.985772444444 498.41688888888893 L 520.9992124444441 502.50924444444445 L 516.9068568888885 507.4958044444445 L 513.8659502222218 513.1849422222222 L 511.99336355555516 519.3580088888889 L 511.3610791111107 525.7777777777778 L 511.99336355555516 532.1975466666667 L 513.8659502222218 538.3706133333333 L 516.9068568888885 544.0597511111112 L 520.9992124444441 549.0463111111111 L 525.985772444444 553.1386666666667 L 531.6749102222218 556.1795733333333 L 537.8479768888885 558.05216 L 544.2677457777773 558.6844444444445 Z" fill="rgb(200, 52, 52)" fill-rule="evenodd" fill-opacity="0.5" data-type="pcb_copper_pour" data-pcb-layer="top"/><path class="pcb-silkscreen pcb-silkscreen-top" d="M 249.51027022222215 26.220963555555613 L 471.7324995555556 26.220963555555613 L 471.73249955555553 573.776327111111 L 249.5102702222221 573.776327111111 L 249.51027022222215 26.220963555555613 Z" fill="none" stroke="#f2eda1" stroke-width="1.777777777777778" stroke-linecap="round" stroke-linejoin="round" data-pcb-component-id="pcb_component_0" data-pcb-silkscreen-path-id="pcb_silkscreen_path_0" data-type="pcb_silkscreen_path" data-pcb-layer="top"/><path class="pcb-silkscreen pcb-silkscreen-top" d="M 155.64361066666663 299.90968888888875 L 143.1991911111113 299.90968888888875" fill="none" stroke="#f2eda1" stroke-width="1.777777777777778" stroke-linecap="round" stroke-linejoin="round" data-pcb-component-id="pcb_component_0" data-pcb-silkscreen-path-id="pcb_silkscreen_path_1" data-type="pcb_silkscreen_path" data-pcb-layer="top"/><path class="pcb-silkscreen pcb-silkscreen-top" d="M 249.5102702222221 448.7988444444444 L 142.84336533333374 448.7988444444444 L 142.84336533333374 151.02098488888862 L 249.51027022222215 151.02098488888862" fill="none" stroke="#f2eda1" stroke-width="1.777777777777778" stroke-linecap="round" stroke-linejoin="round" data-pcb-component-id="pcb_component_0" data-pcb-silkscreen-path-id="pcb_silkscreen_path_2" data-type="pcb_silkscreen_path" data-pcb-layer="top"/><path class="pcb-silkscreen pcb-silkscreen-top" d="M 249.5102702222221 485.4209031111112 L 142.84336533333374 485.4209031111112" fill="none" stroke="#f2eda1" stroke-width="1.777777777777778" stroke-linecap="round" stroke-linejoin="round" data-pcb-component-id="pcb_component_0" data-pcb-silkscreen-path-id="pcb_silkscreen_path_3" data-type="pcb_silkscreen_path" data-pcb-layer="top"/><path class="pcb-silkscreen pcb-silkscreen-top" d="M 249.5102702222221 559.020846222222 L 142.84336533333374 559.020846222222 L 142.84336533333374 485.95419022222256" fill="none" stroke="#f2eda1" stroke-width="1.777777777777778" stroke-linecap="round" stroke-linejoin="round" data-pcb-component-id="pcb_component_0" data-pcb-silkscreen-path-id="pcb_silkscreen_path_4" data-type="pcb_silkscreen_path" data-pcb-layer="top"/><path class="pcb-silkscreen pcb-silkscreen-top" d="M 142.84336533333374 41.50973155555545 L 142.84336533333374 114.57638755555533 L 249.51027022222215 114.57638755555533" fill="none" stroke="#f2eda1" stroke-width="1.777777777777778" stroke-linecap="round" stroke-linejoin="round" data-pcb-component-id="pcb_component_0" data-pcb-silkscreen-path-id="pcb_silkscreen_path_5" data-type="pcb_silkscreen_path" data-pcb-layer="top"/><path class="pcb-silkscreen pcb-silkscreen-top" d="M 249.51027022222215 40.97644444444461 L 142.84336533333374 40.97644444444461" fill="none" stroke="#f2eda1" stroke-width="1.777777777777778" stroke-linecap="round" stroke-linejoin="round" data-pcb-component-id="pcb_component_0" data-pcb-silkscreen-path-id="pcb_silkscreen_path_6" data-type="pcb_silkscreen_path" data-pcb-layer="top"/><text x="0" y="0" dx="0" dy="0" fill="#f2eda1" font-family="Arial, sans-serif" font-size="22.57777777777778" text-anchor="start" dominant-baseline="text-after-edge" transform="matrix(-1,-1.2246467991473532e-16,1.2246467991473532e-16,-1,453.5772568888883,430.64179555555506)" class="pcb-silkscreen-text pcb-silkscreen-top" data-pcb-silkscreen-text-id="pcb_silkscreen_text_0" stroke="none" data-type="pcb_silkscreen_text" data-pcb-layer="top">1</text><text x="0" y="0" dx="0" dy="0" fill="#f2eda1" font-family="Arial, sans-serif" font-size="22.57777777777778" text-anchor="start" dominant-baseline="text-after-edge" transform="matrix(-1,-1.2246467991473532e-16,1.2246467991473532e-16,-1,451.7710346666663,179.12535111111134)" class="pcb-silkscreen-text pcb-silkscreen-top" data-pcb-silkscreen-text-id="pcb_silkscreen_text_1" stroke="none" data-type="pcb_silkscreen_text" data-pcb-layer="top">5</text><text x="0" y="0" dx="0" dy="0" fill="#f2eda1" font-family="Arial, sans-serif" font-size="22.57777777777778" text-anchor="start" dominant-baseline="text-after-edge" transform="matrix(-1,-1.2246467991473532e-16,1.2246467991473532e-16,-1,397.5843679999996,180.93157333333312)" class="pcb-silkscreen-text pcb-silkscreen-top" data-pcb-silkscreen-text-id="pcb_silkscreen_text_2" stroke="none" data-type="pcb_silkscreen_text" data-pcb-layer="top">9</text><text x="0" y="0" dx="0" dy="0" fill="#f2eda1" font-family="Arial, sans-serif" font-size="22.57777777777778" text-anchor="start" dominant-baseline="text-after-edge" transform="matrix(-1,-1.2246467991473532e-16,1.2246467991473532e-16,-1,400.2937013333329,431.0933511111115)" class="pcb-silkscreen-text pcb-silkscreen-top" data-pcb-silkscreen-text-id="pcb_silkscreen_text_3" stroke="none" data-type="pcb_silkscreen_text" data-pcb-layer="top">6</text><text x="0" y="0" dx="0" dy="0" fill="#f2eda1" font-family="Arial, sans-serif" font-size="10.240000000000002" text-anchor="middle" dominant-baseline="central" transform="matrix(-1.8369701987210297e-16,1,-1,-1.8369701987210297e-16,606.6677457777773,480.62222222222226)" class="pcb-silkscreen-text pcb-silkscreen-top" data-pcb-silkscreen-text-id="pcb_silkscreen_text_4" stroke="none" data-type="pcb_silkscreen_text" data-pcb-layer="top">pin1</text><text x="0" y="0" dx="0" dy="0" fill="#f2eda1" font-family="Arial, sans-serif" font-size="10.240000000000002" text-anchor="middle" dominant-baseline="central" transform="matrix(-1.8369701987210297e-16,1,-1,-1.8369701987210297e-16,606.6677457777773,435.4666666666667)" class="pcb-silkscreen-text pcb-silkscreen-top" data-pcb-silkscreen-text-id="pcb_silkscreen_text_5" stroke="none" data-type="pcb_silkscreen_text" data-pcb-layer="top">pin2</text><text x="0" y="0" dx="0" dy="0" fill="#f2eda1" font-family="Arial, sans-serif" font-size="10.240000000000002" text-anchor="middle" dominant-baseline="central" transform="matrix(-1.8369701987210297e-16,1,-1,-1.8369701987210297e-16,606.6677457777773,390.31111111111113)" class="pcb-silkscreen-text pcb-silkscreen-top" data-pcb-silkscreen-text-id="pcb_silkscreen_text_6" stroke="none" data-type="pcb_silkscreen_text" data-pcb-layer="top">pin3</text><text x="0" y="0" dx="0" dy="0" fill="#f2eda1" font-family="Arial, sans-serif" font-size="10.240000000000002" text-anchor="middle" dominant-baseline="central" transform="matrix(-1.8369701987210297e-16,1,-1,-1.8369701987210297e-16,606.6677457777773,345.15555555555557)" class="pcb-silkscreen-text pcb-silkscreen-top" data-pcb-silkscreen-text-id="pcb_silkscreen_text_7" stroke="none" data-type="pcb_silkscreen_text" data-pcb-layer="top">pin4</text><text x="0" y="0" dx="0" dy="0" fill="#f2eda1" font-family="Arial, sans-serif" font-size="10.240000000000002" text-anchor="middle" dominant-baseline="central" transform="matrix(-1.8369701987210297e-16,1,-1,-1.8369701987210297e-16,606.6677457777773,300)" class="pcb-silkscreen-text pcb-silkscreen-top" data-pcb-silkscreen-text-id="pcb_silkscreen_text_8" stroke="none" data-type="pcb_silkscreen_text" data-pcb-layer="top">pin5</text><text x="0" y="0" dx="0" dy="0" fill="#f2eda1" font-family="Arial, sans-serif" font-size="10.240000000000002" text-anchor="middle" dominant-baseline="central" transform="matrix(-1.8369701987210297e-16,1,-1,-1.8369701987210297e-16,606.6677457777773,254.84444444444446)" class="pcb-silkscreen-text pcb-silkscreen-top" data-pcb-silkscreen-text-id="pcb_silkscreen_text_9" stroke="none" data-type="pcb_silkscreen_text" data-pcb-layer="top">pin6</text><text x="0" y="0" dx="0" dy="0" fill="#f2eda1" font-family="Arial, sans-serif" font-size="10.240000000000002" text-anchor="middle" dominant-baseline="central" transform="matrix(-1.8369701987210297e-16,1,-1,-1.8369701987210297e-16,606.6677457777773,209.68888888888887)" class="pcb-silkscreen-text pcb-silkscreen-top" data-pcb-silkscreen-text-id="pcb_silkscreen_text_10" stroke="none" data-type="pcb_silkscreen_text" data-pcb-layer="top">pin7</text><text x="0" y="0" dx="0" dy="0" fill="#f2eda1" font-family="Arial, sans-serif" font-size="10.240000000000002" text-anchor="middle" dominant-baseline="central" transform="matrix(-1.8369701987210297e-16,1,-1,-1.8369701987210297e-16,606.6677457777773,164.5333333333333)" class="pcb-silkscreen-text pcb-silkscreen-top" data-pcb-silkscreen-text-id="pcb_silkscreen_text_11" stroke="none" data-type="pcb_silkscreen_text" data-pcb-layer="top">pin8</text><text x="0" y="0" dx="0" dy="0" fill="#f2eda1" font-family="Arial, sans-serif" font-size="10.240000000000002" text-anchor="middle" dominant-baseline="central" transform="matrix(-1.8369701987210297e-16,1,-1,-1.8369701987210297e-16,606.6677457777773,119.37777777777777)" class="pcb-silkscreen-text pcb-silkscreen-top" data-pcb-silkscreen-text-id="pcb_silkscreen_text_12" stroke="none" data-type="pcb_silkscreen_text" data-pcb-layer="top">pin9</text><text x="0" y="0" dx="0" dy="0" fill="#f2eda1" font-family="Arial, sans-serif" font-size="12.444444444444445" text-anchor="middle" dominant-baseline="central" transform="matrix(6.123233995736766e-17,-1,1,6.123233995736766e-17,586.5788568888885,300)" class="pcb-silkscreen-text pcb-silkscreen-top" data-pcb-silkscreen-text-id="pcb_silkscreen_text_13" stroke="none" data-type="pcb_silkscreen_text" data-pcb-layer="top">J2</text><text x="0" y="0" dx="0" dy="0" fill="#f2eda1" font-family="Arial, sans-serif" font-size="10.240000000000002" text-anchor="middle" dominant-baseline="central" transform="matrix(-1.8369701987210297e-16,1,-1,-1.8369701987210297e-16,606.6677457777773,73.33333333333331)" class="pcb-silkscreen-text pcb-silkscreen-top" data-pcb-silkscreen-text-id="pcb_silkscreen_text_14" stroke="none" data-type="pcb_silkscreen_text" data-pcb-layer="top">GND</text><text x="0" y="0" dx="0" dy="0" fill="#f2eda1" font-family="Arial, sans-serif" font-size="12.444444444444445" text-anchor="middle" dominant-baseline="central" transform="matrix(6.123233995736766e-17,-1,1,6.123233995736766e-17,586.5788568888885,73.33333333333331)" class="pcb-silkscreen-text pcb-silkscreen-top" data-pcb-silkscreen-text-id="pcb_silkscreen_text_15" stroke="none" data-type="pcb_silkscreen_text" data-pcb-layer="top">J3</text><text x="0" y="0" dx="0" dy="0" fill="#f2eda1" font-family="Arial, sans-serif" font-size="10.240000000000002" text-anchor="middle" dominant-baseline="central" transform="matrix(-1.8369701987210297e-16,1,-1,-1.8369701987210297e-16,606.6677457777773,526.6666666666667)" class="pcb-silkscreen-text pcb-silkscreen-top" data-pcb-silkscreen-text-id="pcb_silkscreen_text_16" stroke="none" data-type="pcb_silkscreen_text" data-pcb-layer="top">GND</text><text x="0" y="0" dx="0" dy="0" fill="#f2eda1" font-family="Arial, sans-serif" font-size="12.444444444444445" text-anchor="middle" dominant-baseline="central" transform="matrix(6.123233995736766e-17,-1,1,6.123233995736766e-17,586.5788568888885,526.6666666666667)" class="pcb-silkscreen-text pcb-silkscreen-top" data-pcb-silkscreen-text-id="pcb_silkscreen_text_17" stroke="none" data-type="pcb_silkscreen_text" data-pcb-layer="top">J4</text><text x="0" y="0" dx="0" dy="0" fill="#f2eda1" font-family="Arial, sans-serif" font-size="35.55555555555556" text-anchor="middle" dominant-baseline="central" transform="matrix(6.123233995736766e-17,-1,1,6.123233995736766e-17,516.1788568888885,300)" class="pcb-silkscreen-text pcb-silkscreen-top" data-pcb-silkscreen-text-id="pcb_silkscreen_text_18" stroke="none" data-type="pcb_silkscreen_text" data-pcb-layer="top"><tspan x="0"> Sparkfun </tspan><tspan x="0" dy="35.55555555555556"> Female DE9</tspan></text><g data-type="pcb_plated_hole" data-pcb-layer="through"><circle class="pcb-hole-outer" fill="rgb(200, 52, 52)" cx="443.6430346666673" cy="299.9977422222221" r="13.998222222222223" data-type="pcb_plated_hole" data-pcb-layer="top"/><circle class="pcb-hole-inner" fill="#FF26E2" cx="443.6430346666673" cy="299.9977422222221" r="8.888871111111111" data-type="pcb_plated_hole_drill" data-pcb-layer="drill"/></g><g data-type="pcb_plated_hole" data-pcb-layer="through"><circle class="pcb-hole-outer" fill="rgb(200, 52, 52)" cx="418.40107911111073" cy="77.7782222222221" r="44.44435555555555" data-type="pcb_plated_hole" data-pcb-layer="top"/><circle class="pcb-hole-inner" fill="#FF26E2" cx="418.40107911111073" cy="77.7782222222221" r="28.88916977777778" data-type="pcb_plated_hole_drill" data-pcb-layer="drill"/></g><g data-type="pcb_plated_hole" data-pcb-layer="through"><circle class="pcb-hole-outer" fill="rgb(200, 52, 52)" cx="443.6430346666673" cy="398.1297955555558" r="13.998222222222223" data-type="pcb_plated_hole" data-pcb-layer="top"/><circle class="pcb-hole-inner" fill="#FF26E2" cx="443.6430346666673" cy="398.1297955555558" r="8.888871111111111" data-type="pcb_plated_hole_drill" data-pcb-layer="drill"/></g><g data-type="pcb_plated_hole" data-pcb-layer="through"><circle class="pcb-hole-outer" fill="rgb(200, 52, 52)" cx="443.6430346666673" cy="349.06376888888923" r="13.998222222222223" data-type="pcb_plated_hole" data-pcb-layer="top"/><circle class="pcb-hole-inner" fill="#FF26E2" cx="443.6430346666673" cy="349.06376888888923" r="8.888871111111111" data-type="pcb_plated_hole_drill" data-pcb-layer="drill"/></g><g data-type="pcb_plated_hole" data-pcb-layer="through"><circle class="pcb-hole-outer" fill="rgb(200, 52, 52)" cx="443.6430346666673" cy="250.9317155555555" r="13.998222222222223" data-type="pcb_plated_hole" data-pcb-layer="top"/><circle class="pcb-hole-inner" fill="#FF26E2" cx="443.6430346666673" cy="250.9317155555555" r="8.888871111111111" data-type="pcb_plated_hole_drill" data-pcb-layer="drill"/></g><g data-type="pcb_plated_hole" data-pcb-layer="through"><circle class="pcb-hole-outer" fill="rgb(200, 52, 52)" cx="443.6430346666673" cy="201.86568888888888" r="13.998222222222223" data-type="pcb_plated_hole" data-pcb-layer="top"/><circle class="pcb-hole-inner" fill="#FF26E2" cx="443.6430346666673" cy="201.86568888888888" r="8.888871111111111" data-type="pcb_plated_hole_drill" data-pcb-layer="drill"/></g><g data-type="pcb_plated_hole" data-pcb-layer="through"><circle class="pcb-hole-outer" fill="rgb(200, 52, 52)" cx="393.1546079999999" cy="373.59678222222254" r="13.998222222222223" data-type="pcb_plated_hole" data-pcb-layer="top"/><circle class="pcb-hole-inner" fill="#FF26E2" cx="393.1546079999999" cy="373.59678222222254" r="8.888871111111111" data-type="pcb_plated_hole_drill" data-pcb-layer="drill"/></g><g data-type="pcb_plated_hole" data-pcb-layer="through"><circle class="pcb-hole-outer" fill="rgb(200, 52, 52)" cx="393.1546079999999" cy="324.5307555555559" r="13.998222222222223" data-type="pcb_plated_hole" data-pcb-layer="top"/><circle class="pcb-hole-inner" fill="#FF26E2" cx="393.1546079999999" cy="324.5307555555559" r="8.888871111111111" data-type="pcb_plated_hole_drill" data-pcb-layer="drill"/></g><g data-type="pcb_plated_hole" data-pcb-layer="through"><circle class="pcb-hole-outer" fill="rgb(200, 52, 52)" cx="393.1546079999999" cy="275.4647288888888" r="13.998222222222223" data-type="pcb_plated_hole" data-pcb-layer="top"/><circle class="pcb-hole-inner" fill="#FF26E2" cx="393.1546079999999" cy="275.4647288888888" r="8.888871111111111" data-type="pcb_plated_hole_drill" data-pcb-layer="drill"/></g><g data-type="pcb_plated_hole" data-pcb-layer="through"><circle class="pcb-hole-outer" fill="rgb(200, 52, 52)" cx="393.1546079999999" cy="226.3987022222222" r="13.998222222222223" data-type="pcb_plated_hole" data-pcb-layer="top"/><circle class="pcb-hole-inner" fill="#FF26E2" cx="393.1546079999999" cy="226.3987022222222" r="8.888871111111111" data-type="pcb_plated_hole_drill" data-pcb-layer="drill"/></g><g data-type="pcb_plated_hole" data-pcb-layer="through"><circle class="pcb-hole-outer" fill="rgb(200, 52, 52)" cx="418.4010791111107" cy="522.2217777777773" r="44.44435555555555" data-type="pcb_plated_hole" data-pcb-layer="top"/><circle class="pcb-hole-inner" fill="#FF26E2" cx="418.4010791111107" cy="522.2217777777773" r="28.88916977777778" data-type="pcb_plated_hole_drill" data-pcb-layer="drill"/></g><g data-type="pcb_plated_hole" data-pcb-layer="through"><circle class="pcb-hole-outer" fill="rgb(200, 52, 52)" cx="631.734412444444" cy="480.62222222222226" r="16.711111111111112" data-type="pcb_plated_hole" data-pcb-layer="top"/><circle class="pcb-hole-inner" fill="#FF26E2" cx="631.734412444444" cy="480.62222222222226" r="9.031111111111112" data-type="pcb_plated_hole_drill" data-pcb-layer="drill"/></g><g data-type="pcb_plated_hole" data-pcb-layer="through"><circle class="pcb-hole-outer" fill="rgb(200, 52, 52)" cx="631.734412444444" cy="435.4666666666667" r="16.711111111111112" data-type="pcb_plated_hole" data-pcb-layer="top"/><circle class="pcb-hole-inner" fill="#FF26E2" cx="631.734412444444" cy="435.4666666666667" r="9.031111111111112" data-type="pcb_plated_hole_drill" data-pcb-layer="drill"/></g><g data-type="pcb_plated_hole" data-pcb-layer="through"><circle class="pcb-hole-outer" fill="rgb(200, 52, 52)" cx="631.734412444444" cy="390.31111111111113" r="16.711111111111112" data-type="pcb_plated_hole" data-pcb-layer="top"/><circle class="pcb-hole-inner" fill="#FF26E2" cx="631.734412444444" cy="390.31111111111113" r="9.031111111111112" data-type="pcb_plated_hole_drill" data-pcb-layer="drill"/></g><g data-type="pcb_plated_hole" data-pcb-layer="through"><circle class="pcb-hole-outer" fill="rgb(200, 52, 52)" cx="631.734412444444" cy="345.15555555555557" r="16.711111111111112" data-type="pcb_plated_hole" data-pcb-layer="top"/><circle class="pcb-hole-inner" fill="#FF26E2" cx="631.734412444444" cy="345.15555555555557" r="9.031111111111112" data-type="pcb_plated_hole_drill" data-pcb-layer="drill"/></g><g data-type="pcb_plated_hole" data-pcb-layer="through"><circle class="pcb-hole-outer" fill="rgb(200, 52, 52)" cx="631.734412444444" cy="300" r="16.711111111111112" data-type="pcb_plated_hole" data-pcb-layer="top"/><circle class="pcb-hole-inner" fill="#FF26E2" cx="631.734412444444" cy="300" r="9.031111111111112" data-type="pcb_plated_hole_drill" data-pcb-layer="drill"/></g><g data-type="pcb_plated_hole" data-pcb-layer="through"><circle class="pcb-hole-outer" fill="rgb(200, 52, 52)" cx="631.734412444444" cy="254.84444444444446" r="16.711111111111112" data-type="pcb_plated_hole" data-pcb-layer="top"/><circle class="pcb-hole-inner" fill="#FF26E2" cx="631.734412444444" cy="254.84444444444446" r="9.031111111111112" data-type="pcb_plated_hole_drill" data-pcb-layer="drill"/></g><g data-type="pcb_plated_hole" data-pcb-layer="through"><circle class="pcb-hole-outer" fill="rgb(200, 52, 52)" cx="631.734412444444" cy="209.68888888888887" r="16.711111111111112" data-type="pcb_plated_hole" data-pcb-layer="top"/><circle class="pcb-hole-inner" fill="#FF26E2" cx="631.734412444444" cy="209.68888888888887" r="9.031111111111112" data-type="pcb_plated_hole_drill" data-pcb-layer="drill"/></g><g data-type="pcb_plated_hole" data-pcb-layer="through"><circle class="pcb-hole-outer" fill="rgb(200, 52, 52)" cx="631.734412444444" cy="164.5333333333333" r="16.711111111111112" data-type="pcb_plated_hole" data-pcb-layer="top"/><circle class="pcb-hole-inner" fill="#FF26E2" cx="631.734412444444" cy="164.5333333333333" r="9.031111111111112" data-type="pcb_plated_hole_drill" data-pcb-layer="drill"/></g><g data-type="pcb_plated_hole" data-pcb-layer="through"><circle class="pcb-hole-outer" fill="rgb(200, 52, 52)" cx="631.734412444444" cy="119.37777777777777" r="16.711111111111112" data-type="pcb_plated_hole" data-pcb-layer="top"/><circle class="pcb-hole-inner" fill="#FF26E2" cx="631.734412444444" cy="119.37777777777777" r="9.031111111111112" data-type="pcb_plated_hole_drill" data-pcb-layer="drill"/></g><g data-type="pcb_plated_hole" data-pcb-layer="through"><circle class="pcb-hole-outer" fill="rgb(200, 52, 52)" cx="631.734412444444" cy="73.33333333333331" r="16.711111111111112" data-type="pcb_plated_hole" data-pcb-layer="top"/><circle class="pcb-hole-inner" fill="#FF26E2" cx="631.734412444444" cy="73.33333333333331" r="9.031111111111112" data-type="pcb_plated_hole_drill" data-pcb-layer="drill"/></g><g data-type="pcb_plated_hole" data-pcb-layer="through"><circle class="pcb-hole-outer" fill="rgb(200, 52, 52)" cx="631.734412444444" cy="526.6666666666667" r="16.711111111111112" data-type="pcb_plated_hole" data-pcb-layer="top"/><circle class="pcb-hole-inner" fill="#FF26E2" cx="631.734412444444" cy="526.6666666666667" r="9.031111111111112" data-type="pcb_plated_hole_drill" data-pcb-layer="drill"/></g><circle class="pcb-hole" cx="544.2677457777773" cy="74.22222222222223" r="29.351111111111113" fill="#FF26E2" data-type="pcb_hole" data-pcb-layer="drill"/><circle class="pcb-hole" cx="544.2677457777773" cy="525.7777777777778" r="29.351111111111113" fill="#FF26E2" data-type="pcb_hole" data-pcb-layer="drill"/></svg>