<svg xmlns="http://www.w3.org/2000/svg" width="800" height="600" data-software-used-string="@tscircuit/core@0.0.611"><style></style><rect class="boundary" x="0" y="0" fill="#000" width="800" height="600"/><rect class="pcb-boundary" fill="none" stroke="#fff" stroke-width="0.3" x="43.859649122807014" y="77.19298245614036" width="712.280701754386" height="445.61403508771923"/><path class="pcb-board" d="M 87.71929824561408 522.8070175438596 L 756.140350877193 522.8070175438596 L 756.140350877193 77.19298245614036 L 87.71929824561408 77.19298245614036 Z" fill="none" stroke="rgba(255, 255, 255, 0.5)" stroke-width="4.385964912280701"/><rect class="pcb-pad" fill="rgb(200, 52, 52)" x="226.9736842105263" y="250.54824561403507" width="96.49122807017544" height="15.350877192982454" data-layer="top"/><rect class="pcb-pad" fill="rgb(200, 52, 52)" x="226.9736842105263" y="278.39912280701753" width="96.49122807017544" height="15.350877192982454" data-layer="top"/><rect class="pcb-pad" fill="rgb(200, 52, 52)" x="226.9736842105263" y="306.25" width="96.49122807017544" height="15.350877192982454" data-layer="top"/><rect class="pcb-pad" fill="rgb(200, 52, 52)" x="226.9736842105263" y="334.10087719298247" width="96.49122807017544" height="15.350877192982454" data-layer="top"/><rect class="pcb-pad" fill="rgb(200, 52, 52)" x="520.3947368421053" y="334.10087719298247" width="96.49122807017544" height="15.350877192982454" data-layer="top"/><rect class="pcb-pad" fill="rgb(200, 52, 52)" x="520.3947368421053" y="306.25" width="96.49122807017544" height="15.350877192982454" data-layer="top"/><rect class="pcb-pad" fill="rgb(200, 52, 52)" x="520.3947368421053" y="278.39912280701753" width="96.49122807017544" height="15.350877192982454" data-layer="top"/><rect class="pcb-pad" fill="rgb(200, 52, 52)" x="520.3947368421053" y="250.54824561403507" width="96.49122807017544" height="15.350877192982454" data-layer="top"/><path class="pcb-silkscreen pcb-silkscreen-top" d="M 327.85087719298247 356.4144736842105 L 327.85087719298247 243.58552631578948 L 390.5701754385965 243.58552631578948 L 392.9572865901066 255.58634447987015 L 399.7552040110359 265.7601468661571 L 409.92900639732284 272.55806428708644 L 421.9298245614035 274.9451754385965 L 433.9306427254842 272.55806428708644 L 444.1044451117711 265.7601468661571 L 450.9023625327004 255.58634447987015 L 453.2894736842105 243.58552631578948 L 516.0087719298245 243.58552631578948 L 516.0087719298245 356.4144736842105 L 327.85087719298247 356.4144736842105 Z" fill="none" stroke="#f2eda1" stroke-width="4.385964912280701" stroke-linecap="round" stroke-linejoin="round" data-pcb-component-id="pcb_component_0" data-pcb-silkscreen-path-id="pcb_silkscreen_path_0"/><text x="0" y="0" dx="0" dy="0" fill="#f2eda1" font-family="Arial, sans-serif" font-size="18.174342105263158" text-anchor="middle" dominant-baseline="central" transform="matrix(1,0,0,1,421.9298245614035,226.04166666666669)" class="pcb-silkscreen-text pcb-silkscreen-top" data-pcb-silkscreen-text-id="pcb_component_0" stroke="none">U1</text><text x="0" y="0" dx="0" dy="0" fill="#f2eda1" font-family="Arial, sans-serif" font-size="30.701754385964907" text-anchor="middle" dominant-baseline="central" transform="matrix(-1.8369701987210297e-16,-1,1,-1.8369701987210297e-16,43.859649122807014,300)" class="pcb-silkscreen-text pcb-silkscreen-top" data-pcb-silkscreen-text-id="pcb_component_1" stroke="none">JP2</text><text x="0" y="0" dx="0" dy="0" fill="#f2eda1" font-family="Arial, sans-serif" font-size="30.701754385964907" text-anchor="middle" dominant-baseline="central" transform="matrix(-1.8369701987210297e-16,-1,1,-1.8369701987210297e-16,577.1929824561403,300)" class="pcb-silkscreen-text pcb-silkscreen-top" data-pcb-silkscreen-text-id="pcb_component_2" stroke="none">JP1</text><text x="0" y="0" dx="0" dy="0" fill="#f2eda1" font-family="Arial, sans-serif" font-size="43.859649122807014" text-anchor="middle" dominant-baseline="central" transform="matrix(1,0,0,1,211.40350877192984,124.56140350877195)" class="pcb-silkscreen-text pcb-silkscreen-top" data-pcb-silkscreen-text-id="null" stroke="none">1</text><text x="0" y="0" dx="0" dy="0" fill="#f2eda1" font-family="Arial, sans-serif" font-size="43.859649122807014" text-anchor="middle" dominant-baseline="central" transform="matrix(1,0,0,1,632.4561403508771,124.56140350877195)" class="pcb-silkscreen-text pcb-silkscreen-top" data-pcb-silkscreen-text-id="null" stroke="none">8</text><text x="0" y="0" dx="0" dy="0" fill="#5da9e9" font-family="Arial, sans-serif" font-size="43.859649122807014" text-anchor="middle" dominant-baseline="central" transform="matrix(-1,0,0,1,421.9298245614035,102.63157894736844)" class="pcb-silkscreen-text pcb-silkscreen-bottom" data-pcb-silkscreen-text-id="null" stroke="none">SSOP8</text><text x="0" y="0" dx="0" dy="0" fill="#5da9e9" font-family="Arial, sans-serif" font-size="43.859649122807014" text-anchor="middle" dominant-baseline="central" transform="matrix(-1,0,0,1,421.9298245614035,146.49122807017545)" class="pcb-silkscreen-text pcb-silkscreen-bottom" data-pcb-silkscreen-text-id="null" stroke="none">Adapter</text><g><rect class="pcb-hole-outer-pad" fill="rgb(200, 52, 52)" x="122.36842105263162" y="434.2105263157894" width="65.78947368421052" height="65.78947368421052"/><circle class="pcb-hole-inner" fill="#FF26E2" cx="155.26315789473688" cy="467.1052631578947" r="21.929824561403507"/></g><g><circle class="pcb-hole-outer" fill="rgb(200, 52, 52)" cx="155.26315789473688" cy="355.70175438596493" r="32.89473684210526"/><circle class="pcb-hole-inner" fill="#FF26E2" cx="155.26315789473688" cy="355.70175438596493" r="21.929824561403507"/></g><g><circle class="pcb-hole-outer" fill="rgb(200, 52, 52)" cx="155.26315789473688" cy="244.2982456140351" r="32.89473684210526"/><circle class="pcb-hole-inner" fill="#FF26E2" cx="155.26315789473688" cy="244.2982456140351" r="21.929824561403507"/></g><g><circle class="pcb-hole-outer" fill="rgb(200, 52, 52)" cx="155.26315789473688" cy="132.8947368421053" r="32.89473684210526"/><circle class="pcb-hole-inner" fill="#FF26E2" cx="155.26315789473688" cy="132.8947368421053" r="21.929824561403507"/></g><g><rect class="pcb-hole-outer-pad" fill="rgb(200, 52, 52)" x="655.7017543859649" y="434.2105263157894" width="65.78947368421052" height="65.78947368421052"/><circle class="pcb-hole-inner" fill="#FF26E2" cx="688.5964912280701" cy="467.1052631578947" r="21.929824561403507"/></g><g><circle class="pcb-hole-outer" fill="rgb(200, 52, 52)" cx="688.5964912280701" cy="355.70175438596493" r="32.89473684210526"/><circle class="pcb-hole-inner" fill="#FF26E2" cx="688.5964912280701" cy="355.70175438596493" r="21.929824561403507"/></g><g><circle class="pcb-hole-outer" fill="rgb(200, 52, 52)" cx="688.5964912280701" cy="244.2982456140351" r="32.89473684210526"/><circle class="pcb-hole-inner" fill="#FF26E2" cx="688.5964912280701" cy="244.2982456140351" r="21.929824561403507"/></g><g><circle class="pcb-hole-outer" fill="rgb(200, 52, 52)" cx="688.5964912280701" cy="132.8947368421053" r="32.89473684210526"/><circle class="pcb-hole-inner" fill="#FF26E2" cx="688.5964912280701" cy="132.8947368421053" r="21.929824561403507"/></g></svg>