<svg xmlns="http://www.w3.org/2000/svg" width="800" height="600" data-software-used-string="@tscircuit/core@0.0.862"><style></style><rect class="boundary" x="0" y="0" fill="#000" width="800" height="600" data-type="pcb_background" data-pcb-layer="global"/><rect class="pcb-boundary" fill="none" stroke="#fff" stroke-width="0.3" x="121.89781021897812" y="21.89781021897801" width="556.2043795620439" height="556.2043795620439" data-type="pcb_boundary" data-pcb-layer="global"/><rect class="pcb-pad" fill="rgb(77, 127, 196)" x="170.29197080291974" y="202.6642335766423" width="14.45255474452555" height="27.810218978102192" data-type="pcb_smtpad" data-pcb-layer="bottom"/><rect class="pcb-pad" fill="rgb(77, 127, 196)" x="147.49635036496352" y="202.6642335766423" width="14.45255474452555" height="27.810218978102192" data-type="pcb_smtpad" data-pcb-layer="bottom"/><path class="pcb-trace" stroke="rgb(77, 127, 196)" fill="none" d="M 170.29197080291974 216.56934306569337 L 161.94890510948906 216.56934306569337" stroke-width="6.952554744525548" stroke-linecap="round" stroke-linejoin="round" shape-rendering="crispEdges" data-type="pcb_trace" data-pcb-layer="bottom"/><rect class="pcb-pad" fill="rgb(77, 127, 196)" x="270.4087591240876" y="388.992700729927" width="14.45255474452555" height="27.810218978102192" data-type="pcb_smtpad" data-pcb-layer="bottom"/><rect class="pcb-pad" fill="rgb(77, 127, 196)" x="247.61313868613144" y="388.992700729927" width="14.45255474452555" height="27.810218978102192" data-type="pcb_smtpad" data-pcb-layer="bottom"/><rect class="pcb-pad" fill="rgb(77, 127, 196)" x="457.2846715328468" y="404.3430656934306" width="14.45255474452555" height="27.810218978102192" data-type="pcb_smtpad" data-pcb-layer="bottom"/><rect class="pcb-pad" fill="rgb(77, 127, 196)" x="434.4890510948906" y="404.3430656934306" width="14.45255474452555" height="27.810218978102192" data-type="pcb_smtpad" data-pcb-layer="bottom"/><rect class="pcb-pad" fill="rgb(77, 127, 196)" x="411.69343065693437" y="404.3430656934306" width="14.45255474452555" height="27.810218978102192" data-type="pcb_smtpad" data-pcb-layer="bottom"/><path class="pcb-trace" stroke="rgb(77, 127, 196)" fill="none" d="M 457.2846715328468 418.2481751824817 L 448.9416058394161 418.2481751824817" stroke-width="6.952554744525548" stroke-linecap="round" stroke-linejoin="round" shape-rendering="crispEdges" data-type="pcb_trace" data-pcb-layer="bottom"/><path class="pcb-trace" stroke="rgb(77, 127, 196)" fill="none" d="M 434.48905109489056 418.2481751824817 L 426.14598540145994 418.2481751824817" stroke-width="6.952554744525548" stroke-linecap="round" stroke-linejoin="round" shape-rendering="crispEdges" data-type="pcb_trace" data-pcb-layer="bottom"/><path class="pcb-copper-pour pcb-copper-pour-brep" d="M 502.8988687968278 573.7226277372263 L 463.9624450717854 573.7226277372263 L 465.1735572167052 573.3552408845883 L 469.48941749581786 571.0483655041949 L 473.2723006690365 567.9438335157517 L 476.37683265747967 564.1609503425332 L 478.6837080378731 559.8450900634205 L 480.1042748830588 555.1621087685778 L 480.58394160583947 550.2919708029196 L 480.1042748830588 545.4218328372616 L 478.6837080378731 540.7388515424188 L 476.37683265747967 536.4229912633062 L 473.2723006690365 532.6401080900876 L 469.48941749581786 529.5355761016444 L 465.1735572167052 527.228700721251 L 460.49057592186256 525.8081338760653 L 455.62043795620446 525.3284671532847 L 450.75029999054635 525.8081338760653 L 446.06731869570365 527.228700721251 L 441.75145841659105 529.5355761016444 L 437.96857524337236 532.6401080900876 L 434.86404325492924 536.4229912633062 L 432.5571678745358 540.7388515424188 L 431.13660102935006 545.4218328372616 L 430.6569343065694 550.2919708029196 L 431.13660102935006 555.1621087685778 L 432.5571678745358 559.8450900634205 L 434.86404325492924 564.1609503425332 L 437.96857524337236 567.9438335157517 L 441.75145841659105 571.0483655041949 L 446.06731869570365 573.3552408845883 L 447.2784308406234 573.7226277372263 L 408.34200711558105 573.7226277372263 L 409.55311926050086 573.3552408845883 L 413.86897953961346 571.0483655041949 L 417.6518627128321 567.9438335157517 L 420.75639470127527 564.1609503425332 L 423.0632700816687 559.8450900634205 L 424.48383692685445 555.1621087685778 L 424.9635036496351 550.2919708029196 L 424.48383692685445 545.4218328372616 L 423.0632700816687 540.7388515424188 L 420.75639470127527 536.4229912633062 L 417.6518627128321 532.6401080900876 L 413.86897953961346 529.5355761016444 L 409.55311926050086 527.228700721251 L 404.87013796565816 525.8081338760653 L 400.00000000000006 525.3284671532847 L 395.12986203434195 525.8081338760653 L 390.44688073949925 527.228700721251 L 386.13102046038665 529.5355761016444 L 382.348137287168 532.6401080900876 L 379.24360529872484 536.4229912633062 L 376.9367299183314 540.7388515424188 L 375.51616307314566 545.4218328372616 L 375.03649635036504 550.2919708029196 L 375.51616307314566 555.1621087685778 L 376.9367299183314 559.8450900634205 L 379.24360529872484 564.1609503425332 L 382.348137287168 567.9438335157517 L 386.13102046038665 571.0483655041949 L 390.44688073949925 573.3552408845883 L 391.65799288441895 573.7226277372263 L 352.7215691593767 573.7226277372263 L 353.93268130429647 573.3552408845883 L 358.24854158340906 571.0483655041949 L 362.03142475662776 567.9438335157517 L 365.13595674507087 564.1609503425332 L 367.4428321254643 559.8450900634205 L 368.86339897065005 555.1621087685778 L 369.34306569343073 550.2919708029196 L 368.86339897065005 545.4218328372616 L 367.4428321254643 540.7388515424188 L 365.13595674507087 536.4229912633062 L 362.03142475662776 532.6401080900876 L 358.2485415834091 529.5355761016444 L 353.93268130429647 527.228700721251 L 349.24970000945376 525.8081338760653 L 344.37956204379566 525.3284671532847 L 339.5094240781376 525.8081338760653 L 334.8264427832949 527.228700721251 L 330.51058250418225 529.5355761016444 L 326.7276993309636 532.6401080900876 L 323.62316734252045 536.4229912633062 L 321.316291962127 540.7388515424188 L 319.8957251169413 545.4218328372616 L 319.41605839416064 550.2919708029196 L 319.8957251169413 555.1621087685778 L 321.316291962127 559.8450900634205 L 323.62316734252045 564.1609503425332 L 326.7276993309636 567.9438335157517 L 330.51058250418225 571.0483655041949 L 334.82644278329485 573.3552408845883 L 336.03755492821455 573.7226277372263 L 297.1011312031723 573.7226277372263 L 298.31224334809207 573.3552408845883 L 302.6281036272047 571.0483655041949 L 306.4109868004233 567.9438335157517 L 309.51551878886653 564.1609503425332 L 311.8223941692599 559.8450900634205 L 313.24296101444565 555.1621087685778 L 313.72262773722633 550.2919708029196 L 313.24296101444565 545.4218328372616 L 311.8223941692599 540.7388515424188 L 309.51551878886653 536.4229912633062 L 306.41098680042336 532.6401080900876 L 302.6281036272047 529.5355761016444 L 298.31224334809207 527.228700721251 L 293.62926205324936 525.8081338760653 L 288.7591240875913 525.3284671532847 L 283.8889861219332 525.8081338760653 L 279.2060048270905 527.228700721251 L 274.89014454797785 529.5355761016444 L 271.1072613747592 532.6401080900876 L 268.00272938631605 536.4229912633062 L 265.6958540059227 540.7388515424188 L 264.2752871607369 545.4218328372616 L 263.79562043795625 550.2919708029196 L 264.2752871607369 555.1621087685778 L 265.6958540059227 559.8450900634205 L 268.00272938631605 564.1609503425332 L 271.1072613747592 567.9438335157517 L 274.89014454797785 571.0483655041949 L 279.2060048270905 573.3552408845883 L 280.4171169720102 573.7226277372263 L 126.27737226277372 573.7226277372263 L 126.27737226277372 26.27737226277361 L 673.7226277372264 26.27737226277361 L 673.7226277372264 573.7226277372263 L 519.58288302799 573.7226277372263 L 520.7939951729096 573.3552408845883 L 525.1098554520222 571.0483655041949 L 528.8927386252409 567.9438335157517 L 531.9972706136841 564.1609503425332 L 534.3041459940774 559.8450900634205 L 535.7247128392632 555.1621087685778 L 536.2043795620439 550.2919708029196 L 535.7247128392632 545.4218328372616 L 534.3041459940774 540.7388515424188 L 531.9972706136841 536.4229912633062 L 528.8927386252409 532.6401080900876 L 525.1098554520222 529.5355761016444 L 520.7939951729096 527.228700721251 L 516.111013878067 525.8081338760653 L 511.2408759124088 525.3284671532847 L 506.37073794675075 525.8081338760653 L 501.68775665190805 527.228700721251 L 497.3718963727954 529.5355761016444 L 493.5890131995768 532.6401080900876 L 490.4844812111336 536.4229912633062 L 488.1776058307402 540.7388515424188 L 486.75703898555446 545.4218328372616 L 486.2773722627738 550.2919708029196 L 486.75703898555446 555.1621087685778 L 488.1776058307402 559.8450900634205 L 490.4844812111336 564.1609503425332 L 493.58901319957675 567.9438335157517 L 497.3718963727954 571.0483655041949 L 501.68775665190805 573.3552408845883 L 502.8988687968278 573.7226277372263 Z M 660.8029197080293 522.4817518248175 L 660.0665892125326 515.0056628424477 L 657.8858944940457 507.8168757670312 L 654.3446384276524 501.1916516543583 L 649.5789094980247 495.3845941516104 L 643.7718519952768 490.61886522198273 L 637.146627882604 487.07760915558936 L 629.9578408071875 484.89691443710245 L 622.4817518248176 484.1605839416058 L 615.0056628424477 484.89691443710245 L 607.8168757670313 487.07760915558936 L 601.1916516543583 490.61886522198273 L 595.3845941516105 495.3845941516104 L 590.6188652219828 501.1916516543583 L 587.0776091555895 507.8168757670312 L 584.8969144371026 515.0056628424476 L 584.1605839416059 522.4817518248175 L 584.8969144371026 529.9578408071874 L 587.0776091555895 537.1466278826038 L 590.6188652219828 543.7718519952767 L 595.3845941516105 549.5789094980246 L 601.1916516543583 554.3446384276523 L 607.8168757670313 557.8858944940457 L 615.0056628424477 560.0665892125326 L 622.4817518248176 560.8029197080291 L 629.9578408071875 560.0665892125326 L 637.146627882604 557.8858944940457 L 643.7718519952768 554.3446384276523 L 649.5789094980247 549.5789094980246 L 654.3446384276524 543.7718519952767 L 657.8858944940457 537.1466278826038 L 660.0665892125326 529.9578408071874 L 660.8029197080293 522.4817518248175 Z M 215.8394160583942 522.4817518248175 L 215.10308556289755 515.0056628424477 L 212.92239084441067 507.8168757670312 L 209.38113477801727 501.1916516543583 L 204.6154058483896 495.3845941516104 L 198.80834834564172 490.61886522198273 L 192.18312423296882 487.07760915558936 L 184.99433715755237 484.89691443710245 L 177.51824817518252 484.1605839416058 L 170.04215919281265 484.89691443710245 L 162.85337211739625 487.07760915558936 L 156.2281480047233 490.61886522198273 L 150.4210905019754 495.3845941516104 L 145.65536157234774 501.1916516543583 L 142.11410550595434 507.8168757670312 L 139.9334107874675 515.0056628424476 L 139.19708029197085 522.4817518248175 L 139.9334107874675 529.9578408071874 L 142.11410550595434 537.1466278826038 L 145.65536157234774 543.7718519952767 L 150.4210905019754 549.5789094980246 L 156.2281480047233 554.3446384276523 L 162.8533721173962 557.8858944940457 L 170.0421591928126 560.0665892125326 L 177.51824817518252 560.8029197080291 L 184.99433715755237 560.0665892125326 L 192.18312423296882 557.8858944940457 L 198.80834834564172 554.3446384276523 L 204.6154058483896 549.5789094980246 L 209.38113477801727 543.7718519952767 L 212.92239084441067 537.1466278826038 L 215.10308556289755 529.9578408071874 L 215.8394160583942 522.4817518248175 Z M 215.8394160583942 77.5182481751824 L 215.10308556289755 70.04215919281253 L 212.92239084441067 62.853372117396134 L 209.38113477801727 56.22814800472318 L 204.6154058483896 50.4210905019753 L 198.80834834564172 45.65536157234763 L 192.18312423296882 42.11410550595423 L 184.99433715755237 39.93341078746738 L 177.51824817518252 39.197080291970735 L 170.04215919281265 39.93341078746738 L 162.85337211739625 42.11410550595423 L 156.2281480047233 45.65536157234763 L 150.4210905019754 50.4210905019753 L 145.65536157234774 56.22814800472318 L 142.11410550595434 62.85337211739608 L 139.9334107874675 70.04215919281248 L 139.19708029197085 77.5182481751824 L 139.9334107874675 84.99433715755225 L 142.11410550595434 92.18312423296868 L 145.65536157234774 98.8083483456416 L 150.4210905019754 104.61540584838949 L 156.2281480047233 109.38113477801716 L 162.8533721173962 112.92239084441056 L 170.0421591928126 115.10308556289743 L 177.51824817518252 115.83941605839408 L 184.99433715755237 115.10308556289743 L 192.18312423296882 112.92239084441056 L 198.80834834564172 109.38113477801716 L 204.6154058483896 104.61540584838949 L 209.38113477801727 98.8083483456416 L 212.92239084441067 92.18312423296871 L 215.10308556289755 84.99433715755231 L 215.8394160583942 77.5182481751824 Z M 660.8029197080293 77.5182481751824 L 660.0665892125326 70.04215919281253 L 657.8858944940457 62.853372117396134 L 654.3446384276524 56.22814800472318 L 649.5789094980247 50.4210905019753 L 643.7718519952768 45.65536157234763 L 637.146627882604 42.11410550595423 L 629.9578408071875 39.93341078746738 L 622.4817518248176 39.197080291970735 L 615.0056628424477 39.93341078746738 L 607.8168757670313 42.11410550595423 L 601.1916516543583 45.65536157234763 L 595.3845941516105 50.4210905019753 L 590.6188652219828 56.22814800472318 L 587.0776091555895 62.85337211739608 L 584.8969144371026 70.04215919281248 L 584.1605839416059 77.5182481751824 L 584.8969144371026 84.99433715755225 L 587.0776091555895 92.18312423296868 L 590.6188652219828 98.8083483456416 L 595.3845941516105 104.61540584838949 L 601.1916516543583 109.38113477801716 L 607.8168757670313 112.92239084441056 L 615.0056628424477 115.10308556289743 L 622.4817518248176 115.83941605839408 L 629.9578408071875 115.10308556289743 L 637.146627882604 112.92239084441056 L 643.7718519952768 109.38113477801716 L 649.5789094980247 104.61540584838949 L 654.3446384276524 98.8083483456416 L 657.8858944940457 92.18312423296871 L 660.0665892125326 84.99433715755231 L 660.8029197080293 77.5182481751824 Z M 430.52554744525554 436.53284671532845 L 452.90510948905114 436.53284671532845 L 453.32116788321173 436.53284671532845 L 476.116788321168 436.53284671532845 L 476.116788321168 399.963503649635 L 453.32116788321173 399.963503649635 L 452.90510948905114 399.963503649635 L 430.52554744525554 399.963503649635 L 430.10948905109495 399.963503649635 L 407.31386861313877 399.963503649635 L 407.31386861313877 436.53284671532845 L 430.10948905109495 436.53284671532845 L 430.52554744525554 436.53284671532845 Z M 166.32846715328466 198.28467153284663 L 165.91240875912413 198.28467153284663 L 143.11678832116792 198.28467153284663 L 143.11678832116792 234.8540145985401 L 165.91240875912413 234.8540145985401 L 166.32846715328466 234.8540145985401 L 189.12408759124088 234.8540145985401 L 189.12408759124088 198.28467153284663 L 166.32846715328466 198.28467153284663 Z M 266.02919708029196 421.18248175182475 L 289.2408759124088 421.18248175182475 L 289.2408759124088 384.6131386861313 L 266.02919708029196 384.6131386861313 L 266.02919708029196 421.18248175182475 Z" fill="rgb(77, 127, 196)" fill-rule="evenodd" fill-opacity="0.5" data-type="pcb_copper_pour" data-pcb-layer="bottom"/><path class="pcb-silkscreen pcb-silkscreen-bottom" d="M 192.40875912408762 241.42335766423352 L 139.83211678832117 241.42335766423352 L 139.83211678832117 191.7153284671532 L 192.40875912408762 191.7153284671532 L 192.40875912408762 241.42335766423352 Z" fill="none" stroke="#5da9e9" stroke-width="3.2846715328467155" stroke-linecap="round" stroke-linejoin="round" data-pcb-component-id="pcb_component_10" data-pcb-silkscreen-path-id="pcb_silkscreen_path_15" data-type="pcb_silkscreen_path" data-pcb-layer="bottom"/><text x="0" y="0" dx="0" dy="0" fill="#5da9e9" font-family="Arial, sans-serif" font-size="13.138686131386864" text-anchor="middle" dominant-baseline="central" transform="matrix(-1,0,0,1,166.1204379562044,178.57664233576634)" class="pcb-silkscreen-text pcb-silkscreen-bottom" data-pcb-silkscreen-text-id="pcb_component_10" stroke="none" data-type="pcb_silkscreen_text" data-pcb-layer="bottom">JP1</text><path class="pcb-silkscreen pcb-silkscreen-bottom" d="M 292.5255474452555 427.7518248175182 L 239.9489051094891 427.7518248175182 L 239.9489051094891 378.0437956204379 L 292.5255474452555 378.0437956204379 L 292.5255474452555 427.7518248175182 Z" fill="none" stroke="#5da9e9" stroke-width="3.2846715328467155" stroke-linecap="round" stroke-linejoin="round" data-pcb-component-id="pcb_component_11" data-pcb-silkscreen-path-id="pcb_silkscreen_path_16" data-type="pcb_silkscreen_path" data-pcb-layer="bottom"/><text x="0" y="0" dx="0" dy="0" fill="#5da9e9" font-family="Arial, sans-serif" font-size="13.138686131386864" text-anchor="middle" dominant-baseline="central" transform="matrix(-1,0,0,1,266.2372262773723,364.90510948905103)" class="pcb-silkscreen-text pcb-silkscreen-bottom" data-pcb-silkscreen-text-id="pcb_component_11" stroke="none" data-type="pcb_silkscreen_text" data-pcb-layer="bottom">JP2</text><path class="pcb-silkscreen pcb-silkscreen-bottom" d="M 479.40145985401466 443.1021897810218 L 404.029197080292 443.1021897810218 L 404.029197080292 393.3941605839416 L 479.40145985401466 393.3941605839416 L 479.40145985401466 443.1021897810218 Z" fill="none" stroke="#5da9e9" stroke-width="3.2846715328467155" stroke-linecap="round" stroke-linejoin="round" data-pcb-component-id="pcb_component_12" data-pcb-silkscreen-path-id="pcb_silkscreen_path_17" data-type="pcb_silkscreen_path" data-pcb-layer="bottom"/><text x="0" y="0" dx="0" dy="0" fill="#5da9e9" font-family="Arial, sans-serif" font-size="13.138686131386864" text-anchor="middle" dominant-baseline="central" transform="matrix(-1,0,0,1,441.71532846715337,380.2554744525547)" class="pcb-silkscreen-text pcb-silkscreen-bottom" data-pcb-silkscreen-text-id="pcb_component_12" stroke="none" data-type="pcb_silkscreen_text" data-pcb-layer="bottom">JP3</text><text x="0" y="0" dx="0" dy="0" fill="#5da9e9" font-family="Arial, sans-serif" font-size="12.61313868613139" text-anchor="end" dominant-baseline="central" transform="matrix(1.8369701987210297e-16,-1,-1,-1.8369701987210297e-16,288.7591240875913,519.4160583941605)" class="pcb-silkscreen-text pcb-silkscreen-bottom" data-pcb-silkscreen-text-id="pcb_component_13" stroke="none" data-type="pcb_silkscreen_text" data-pcb-layer="bottom">GND</text><text x="0" y="0" dx="0" dy="0" fill="#5da9e9" font-family="Arial, sans-serif" font-size="12.61313868613139" text-anchor="end" dominant-baseline="central" transform="matrix(1.8369701987210297e-16,-1,-1,-1.8369701987210297e-16,344.37956204379566,519.4160583941605)" class="pcb-silkscreen-text pcb-silkscreen-bottom" data-pcb-silkscreen-text-id="pcb_component_13" stroke="none" data-type="pcb_silkscreen_text" data-pcb-layer="bottom">3V3</text><text x="0" y="0" dx="0" dy="0" fill="#5da9e9" font-family="Arial, sans-serif" font-size="12.61313868613139" text-anchor="end" dominant-baseline="central" transform="matrix(1.8369701987210297e-16,-1,-1,-1.8369701987210297e-16,400.00000000000006,519.4160583941605)" class="pcb-silkscreen-text pcb-silkscreen-bottom" data-pcb-silkscreen-text-id="pcb_component_13" stroke="none" data-type="pcb_silkscreen_text" data-pcb-layer="bottom">SDA</text><text x="0" y="0" dx="0" dy="0" fill="#5da9e9" font-family="Arial, sans-serif" font-size="12.61313868613139" text-anchor="end" dominant-baseline="central" transform="matrix(1.8369701987210297e-16,-1,-1,-1.8369701987210297e-16,455.62043795620446,519.4160583941605)" class="pcb-silkscreen-text pcb-silkscreen-bottom" data-pcb-silkscreen-text-id="pcb_component_13" stroke="none" data-type="pcb_silkscreen_text" data-pcb-layer="bottom">SCL</text><text x="0" y="0" dx="0" dy="0" fill="#5da9e9" font-family="Arial, sans-serif" font-size="12.61313868613139" text-anchor="end" dominant-baseline="central" transform="matrix(1.8369701987210297e-16,-1,-1,-1.8369701987210297e-16,511.2408759124088,519.4160583941605)" class="pcb-silkscreen-text pcb-silkscreen-bottom" data-pcb-silkscreen-text-id="pcb_component_13" stroke="none" data-type="pcb_silkscreen_text" data-pcb-layer="bottom">N_INT</text><text x="0" y="0" dx="0" dy="0" fill="#5da9e9" font-family="Arial, sans-serif" font-size="43.79562043795621" text-anchor="middle" dominant-baseline="central" transform="matrix(-1,0,0,1,400.00000000000006,102.91970802919701)" class="pcb-silkscreen-text pcb-silkscreen-bottom" data-pcb-silkscreen-text-id="null" stroke="none" data-type="pcb_silkscreen_text" data-pcb-layer="bottom">Sparkfun</text><text x="0" y="0" dx="0" dy="0" fill="#5da9e9" font-family="Arial, sans-serif" font-size="26.277372262773724" text-anchor="middle" dominant-baseline="central" transform="matrix(-1,0,0,1,400.00000000000006,146.7153284671532)" class="pcb-silkscreen-text pcb-silkscreen-bottom" data-pcb-silkscreen-text-id="null" stroke="none" data-type="pcb_silkscreen_text" data-pcb-layer="bottom">Ambient Light Sensor</text><text x="0" y="0" dx="0" dy="0" fill="#5da9e9" font-family="Arial, sans-serif" font-size="26.277372262773724" text-anchor="middle" dominant-baseline="central" transform="matrix(-1,0,0,1,400.00000000000006,190.51094890510942)" class="pcb-silkscreen-text pcb-silkscreen-bottom" data-pcb-silkscreen-text-id="null" stroke="none" data-type="pcb_silkscreen_text" data-pcb-layer="bottom">VEML6030</text><text x="0" y="0" dx="0" dy="0" fill="#5da9e9" font-family="Arial, sans-serif" font-size="17.518248175182485" text-anchor="middle" dominant-baseline="central" transform="matrix(-1,0,0,1,400.00000000000006,234.30656934306563)" class="pcb-silkscreen-text pcb-silkscreen-bottom" data-pcb-silkscreen-text-id="null" stroke="none" data-type="pcb_silkscreen_text" data-pcb-layer="bottom">PC Address: 0x10</text><text x="0" y="0" dx="0" dy="0" fill="#5da9e9" font-family="Arial, sans-serif" font-size="26.277372262773724" text-anchor="middle" dominant-baseline="central" transform="matrix(-6.123233995736766e-17,-1,-1,6.123233995736766e-17,181.021897810219,365.69343065693425)" class="pcb-silkscreen-text pcb-silkscreen-bottom" data-pcb-silkscreen-text-id="null" stroke="none" data-type="pcb_silkscreen_text" data-pcb-layer="bottom">LED</text><text x="0" y="0" dx="0" dy="0" fill="#5da9e9" font-family="Arial, sans-serif" font-size="26.277372262773724" text-anchor="middle" dominant-baseline="central" transform="matrix(-1,0,0,1,367.1532846715329,409.48905109489044)" class="pcb-silkscreen-text pcb-silkscreen-bottom" data-pcb-silkscreen-text-id="null" stroke="none" data-type="pcb_silkscreen_text" data-pcb-layer="bottom">I2C</text><path class="pcb-board" d="M 121.89781021897812 578.1021897810219 L 678.1021897810219 578.1021897810219 L 678.1021897810219 21.89781021897801 L 121.89781021897812 21.89781021897801 Z" fill="none" stroke="rgba(255, 255, 255, 0.5)" stroke-width="2.1897810218978107" data-type="pcb_board" data-pcb-layer="board"/><rect class="pcb-pad" fill="rgb(200, 52, 52)" x="380.8423744525537" y="312.0443277372246" width="9.85427299270073" height="14.233826277372264" data-type="pcb_smtpad" data-pcb-layer="top"/><rect class="pcb-pad" fill="rgb(200, 52, 52)" x="380.8423744525537" y="273.72184598540304" width="9.85427299270073" height="14.233826277372264" data-type="pcb_smtpad" data-pcb-layer="top"/><rect class="pcb-pad" fill="rgb(200, 52, 52)" x="395.0812065693432" y="312.0443277372246" width="9.85427299270073" height="14.233826277372264" data-type="pcb_smtpad" data-pcb-layer="top"/><rect class="pcb-pad" fill="rgb(200, 52, 52)" x="395.0812065693432" y="273.72184598540304" width="9.85427299270073" height="14.233826277372264" data-type="pcb_smtpad" data-pcb-layer="top"/><rect class="pcb-pad" fill="rgb(200, 52, 52)" x="409.30335255474563" y="312.0443277372246" width="9.85427299270073" height="14.233826277372264" data-type="pcb_smtpad" data-pcb-layer="top"/><rect class="pcb-pad" fill="rgb(200, 52, 52)" x="409.2866664233561" y="273.72184598540304" width="9.85427299270073" height="14.233826277372264" data-type="pcb_smtpad" data-pcb-layer="top"/><rect class="pcb-pad" fill="rgb(200, 52, 52)" x="551.6309160583957" y="304.3767722627758" width="33.94181605839416" height="13.138659854014598" data-type="pcb_smtpad" data-pcb-layer="top"/><rect class="pcb-pad" fill="rgb(200, 52, 52)" x="551.6309160583957" y="326.27453868613105" width="33.94181605839416" height="13.138659854014598" data-type="pcb_smtpad" data-pcb-layer="top"/><rect class="pcb-pad" fill="rgb(200, 52, 52)" x="551.6420401459862" y="260.5756773722637" width="33.94181605839416" height="13.138659854014598" data-type="pcb_smtpad" data-pcb-layer="top"/><rect class="pcb-pad" fill="rgb(200, 52, 52)" x="551.6420401459862" y="282.473443795619" width="33.94181605839416" height="13.138659854014598" data-type="pcb_smtpad" data-pcb-layer="top"/><rect class="pcb-pad" fill="rgb(200, 52, 52)" x="633.7594985401455" y="348.17731094890627" width="39.4159795620438" height="26.277319708029196" data-type="pcb_smtpad" data-pcb-layer="top"/><rect class="pcb-pad" fill="rgb(200, 52, 52)" x="633.7706226277386" y="225.54536934306446" width="39.4159795620438" height="26.277319708029196" data-type="pcb_smtpad" data-pcb-layer="top"/><rect class="pcb-pad" fill="rgb(200, 52, 52)" x="214.42726788321028" y="282.48456788320954" width="33.94181605839416" height="13.138659854014598" data-type="pcb_smtpad" data-pcb-layer="top"/><rect class="pcb-pad" fill="rgb(200, 52, 52)" x="214.42726788321028" y="260.58680145985426" width="33.94181605839416" height="13.138659854014598" data-type="pcb_smtpad" data-pcb-layer="top"/><rect class="pcb-pad" fill="rgb(200, 52, 52)" x="214.41614379561975" y="326.2856627737216" width="33.94181605839416" height="13.138659854014598" data-type="pcb_smtpad" data-pcb-layer="top"/><rect class="pcb-pad" fill="rgb(200, 52, 52)" x="214.41614379561975" y="304.3878963503663" width="33.94181605839416" height="13.138659854014598" data-type="pcb_smtpad" data-pcb-layer="top"/><rect class="pcb-pad" fill="rgb(200, 52, 52)" x="126.82452189781085" y="225.54536934306446" width="39.4159795620438" height="26.277319708029196" data-type="pcb_smtpad" data-pcb-layer="top"/><rect class="pcb-pad" fill="rgb(200, 52, 52)" x="126.81339781021782" y="348.17731094890627" width="39.4159795620438" height="26.277319708029196" data-type="pcb_smtpad" data-pcb-layer="top"/><rect class="pcb-pad" fill="rgb(200, 52, 52)" x="451.1284284671544" y="305.2569930467055" width="14.014598540145988" height="11.824817518248178" data-type="pcb_smtpad" data-pcb-layer="top"/><rect class="pcb-pad" fill="rgb(200, 52, 52)" x="451.1284284671544" y="282.9212266233478" width="14.014598540145988" height="11.824817518248178" data-type="pcb_smtpad" data-pcb-layer="top"/><rect class="pcb-pad" fill="rgb(200, 52, 52)" x="394.06656843697573" y="237.80943722627896" width="11.824817518248178" height="14.014598540145988" data-type="pcb_smtpad" data-pcb-layer="top"/><rect class="pcb-pad" fill="rgb(200, 52, 52)" x="416.4023348603334" y="237.80943722627896" width="11.824817518248178" height="14.014598540145988" data-type="pcb_smtpad" data-pcb-layer="top"/><rect class="pcb-pad" fill="rgb(200, 52, 52)" x="393.0010437956206" y="348.1759642335749" width="14.014598540145988" height="11.824817518248178" data-type="pcb_smtpad" data-pcb-layer="top"/><rect class="pcb-pad" fill="rgb(200, 52, 52)" x="393.0010437956206" y="370.51173065693257" width="14.014598540145988" height="11.824817518248178" data-type="pcb_smtpad" data-pcb-layer="top"/><rect class="pcb-pad" fill="rgb(200, 52, 52)" x="347.11974671532744" y="312.1539416058377" width="11.824817518248178" height="14.014598540145988" data-type="pcb_smtpad" data-pcb-layer="top"/><rect class="pcb-pad" fill="rgb(200, 52, 52)" x="324.7839802919698" y="312.1539416058377" width="11.824817518248178" height="14.014598540145988" data-type="pcb_smtpad" data-pcb-layer="top"/><rect class="pcb-pad" fill="rgb(200, 52, 52)" x="344.9299656934296" y="252.59058394160743" width="14.014598540145988" height="11.824817518248178" data-type="pcb_smtpad" data-pcb-layer="top"/><rect class="pcb-pad" fill="rgb(200, 52, 52)" x="344.9299656934296" y="274.92635036496506" width="14.014598540145988" height="11.824817518248178" data-type="pcb_smtpad" data-pcb-layer="top"/><rect class="pcb-pad" fill="rgb(200, 52, 52)" x="151.81021897810226" y="195.0437956204379" width="17.518248175182485" height="20.802919708029197" data-type="pcb_smtpad" data-pcb-layer="top"/><rect class="pcb-pad" fill="rgb(200, 52, 52)" x="187.9416058394161" y="195.0437956204379" width="17.518248175182485" height="20.802919708029197" data-type="pcb_smtpad" data-pcb-layer="top"/><rect class="pcb-pad" fill="rgb(200, 52, 52)" x="149.02919708029202" y="166.68613138686123" width="17.518248175182485" height="20.802919708029197" data-type="pcb_smtpad" data-pcb-layer="top"/><rect class="pcb-pad" fill="rgb(200, 52, 52)" x="185.16058394160586" y="166.68613138686123" width="17.518248175182485" height="20.802919708029197" data-type="pcb_smtpad" data-pcb-layer="top"/><path class="pcb-copper-pour pcb-copper-pour-brep" d="M 502.8988687968278 573.7226277372263 L 463.9624450717854 573.7226277372263 L 465.1735572167052 573.3552408845883 L 469.48941749581786 571.0483655041949 L 473.2723006690365 567.9438335157517 L 476.37683265747967 564.1609503425332 L 478.6837080378731 559.8450900634205 L 480.1042748830588 555.1621087685778 L 480.58394160583947 550.2919708029196 L 480.1042748830588 545.4218328372616 L 478.6837080378731 540.7388515424188 L 476.37683265747967 536.4229912633062 L 473.2723006690365 532.6401080900876 L 469.48941749581786 529.5355761016444 L 465.1735572167052 527.228700721251 L 460.49057592186256 525.8081338760653 L 455.62043795620446 525.3284671532847 L 450.75029999054635 525.8081338760653 L 446.06731869570365 527.228700721251 L 441.75145841659105 529.5355761016444 L 437.96857524337236 532.6401080900876 L 434.86404325492924 536.4229912633062 L 432.5571678745358 540.7388515424188 L 431.13660102935006 545.4218328372616 L 430.6569343065694 550.2919708029196 L 431.13660102935006 555.1621087685778 L 432.5571678745358 559.8450900634205 L 434.86404325492924 564.1609503425332 L 437.96857524337236 567.9438335157517 L 441.75145841659105 571.0483655041949 L 446.06731869570365 573.3552408845883 L 447.2784308406234 573.7226277372263 L 408.34200711558105 573.7226277372263 L 409.55311926050086 573.3552408845883 L 413.86897953961346 571.0483655041949 L 417.6518627128321 567.9438335157517 L 420.75639470127527 564.1609503425332 L 423.0632700816687 559.8450900634205 L 424.48383692685445 555.1621087685778 L 424.9635036496351 550.2919708029196 L 424.48383692685445 545.4218328372616 L 423.0632700816687 540.7388515424188 L 420.75639470127527 536.4229912633062 L 417.6518627128321 532.6401080900876 L 413.86897953961346 529.5355761016444 L 409.55311926050086 527.228700721251 L 404.87013796565816 525.8081338760653 L 400.00000000000006 525.3284671532847 L 395.12986203434195 525.8081338760653 L 390.44688073949925 527.228700721251 L 386.13102046038665 529.5355761016444 L 382.348137287168 532.6401080900876 L 379.24360529872484 536.4229912633062 L 376.9367299183314 540.7388515424188 L 375.51616307314566 545.4218328372616 L 375.03649635036504 550.2919708029196 L 375.51616307314566 555.1621087685778 L 376.9367299183314 559.8450900634205 L 379.24360529872484 564.1609503425332 L 382.348137287168 567.9438335157517 L 386.13102046038665 571.0483655041949 L 390.44688073949925 573.3552408845883 L 391.65799288441895 573.7226277372263 L 352.7215691593767 573.7226277372263 L 353.93268130429647 573.3552408845883 L 358.24854158340906 571.0483655041949 L 362.03142475662776 567.9438335157517 L 365.13595674507087 564.1609503425332 L 367.4428321254643 559.8450900634205 L 368.86339897065005 555.1621087685778 L 369.34306569343073 550.2919708029196 L 368.86339897065005 545.4218328372616 L 367.4428321254643 540.7388515424188 L 365.13595674507087 536.4229912633062 L 362.03142475662776 532.6401080900876 L 358.2485415834091 529.5355761016444 L 353.93268130429647 527.228700721251 L 349.24970000945376 525.8081338760653 L 344.37956204379566 525.3284671532847 L 339.5094240781376 525.8081338760653 L 334.8264427832949 527.228700721251 L 330.51058250418225 529.5355761016444 L 326.7276993309636 532.6401080900876 L 323.62316734252045 536.4229912633062 L 321.316291962127 540.7388515424188 L 319.8957251169413 545.4218328372616 L 319.41605839416064 550.2919708029196 L 319.8957251169413 555.1621087685778 L 321.316291962127 559.8450900634205 L 323.62316734252045 564.1609503425332 L 326.7276993309636 567.9438335157517 L 330.51058250418225 571.0483655041949 L 334.82644278329485 573.3552408845883 L 336.03755492821455 573.7226277372263 L 297.1011312031723 573.7226277372263 L 298.31224334809207 573.3552408845883 L 302.6281036272047 571.0483655041949 L 306.4109868004233 567.9438335157517 L 309.51551878886653 564.1609503425332 L 311.8223941692599 559.8450900634205 L 313.24296101444565 555.1621087685778 L 313.72262773722633 550.2919708029196 L 313.24296101444565 545.4218328372616 L 311.8223941692599 540.7388515424188 L 309.51551878886653 536.4229912633062 L 306.41098680042336 532.6401080900876 L 302.6281036272047 529.5355761016444 L 298.31224334809207 527.228700721251 L 293.62926205324936 525.8081338760653 L 288.7591240875913 525.3284671532847 L 283.8889861219332 525.8081338760653 L 279.2060048270905 527.228700721251 L 274.89014454797785 529.5355761016444 L 271.1072613747592 532.6401080900876 L 268.00272938631605 536.4229912633062 L 265.6958540059227 540.7388515424188 L 264.2752871607369 545.4218328372616 L 263.79562043795625 550.2919708029196 L 264.2752871607369 555.1621087685778 L 265.6958540059227 559.8450900634205 L 268.00272938631605 564.1609503425332 L 271.1072613747592 567.9438335157517 L 274.89014454797785 571.0483655041949 L 279.2060048270905 573.3552408845883 L 280.4171169720102 573.7226277372263 L 126.27737226277372 573.7226277372263 L 126.27737226277372 378.834192700731 L 170.60893941605724 378.834192700731 L 170.60893941605724 343.7977489051106 L 126.27737226277372 343.7977489051106 L 126.27737226277372 256.2022510948893 L 170.62006350365027 256.2022510948893 L 170.62006350365027 221.16580729926883 L 126.27737226277372 221.16580729926883 L 126.27737226277372 26.27737226277361 L 673.7226277372264 26.27737226277361 L 673.7226277372264 221.16580729926883 L 629.3910605839428 221.16580729926883 L 629.3910605839428 256.2022510948893 L 673.7226277372264 256.2022510948893 L 673.7226277372264 343.7977489051106 L 629.3799364963498 343.7977489051106 L 629.3799364963498 378.834192700731 L 673.7226277372264 378.834192700731 L 673.7226277372264 573.7226277372263 L 519.58288302799 573.7226277372263 L 520.7939951729096 573.3552408845883 L 525.1098554520222 571.0483655041949 L 528.8927386252409 567.9438335157517 L 531.9972706136841 564.1609503425332 L 534.3041459940774 559.8450900634205 L 535.7247128392632 555.1621087685778 L 536.2043795620439 550.2919708029196 L 535.7247128392632 545.4218328372616 L 534.3041459940774 540.7388515424188 L 531.9972706136841 536.4229912633062 L 528.8927386252409 532.6401080900876 L 525.1098554520222 529.5355761016444 L 520.7939951729096 527.228700721251 L 516.111013878067 525.8081338760653 L 511.2408759124088 525.3284671532847 L 506.37073794675075 525.8081338760653 L 501.68775665190805 527.228700721251 L 497.3718963727954 529.5355761016444 L 493.5890131995768 532.6401080900876 L 490.4844812111336 536.4229912633062 L 488.1776058307402 540.7388515424188 L 486.75703898555446 545.4218328372616 L 486.2773722627738 550.2919708029196 L 486.75703898555446 555.1621087685778 L 488.1776058307402 559.8450900634205 L 490.4844812111336 564.1609503425332 L 493.58901319957675 567.9438335157517 L 497.3718963727954 571.0483655041949 L 501.68775665190805 573.3552408845883 L 502.8988687968278 573.7226277372263 Z M 660.8029197080293 522.4817518248175 L 660.0665892125326 515.0056628424477 L 657.8858944940457 507.8168757670312 L 654.3446384276524 501.1916516543583 L 649.5789094980247 495.3845941516104 L 643.7718519952768 490.61886522198273 L 637.146627882604 487.07760915558936 L 629.9578408071875 484.89691443710245 L 622.4817518248176 484.1605839416058 L 615.0056628424477 484.89691443710245 L 607.8168757670313 487.07760915558936 L 601.1916516543583 490.61886522198273 L 595.3845941516105 495.3845941516104 L 590.6188652219828 501.1916516543583 L 587.0776091555895 507.8168757670312 L 584.8969144371026 515.0056628424476 L 584.1605839416059 522.4817518248175 L 584.8969144371026 529.9578408071874 L 587.0776091555895 537.1466278826038 L 590.6188652219828 543.7718519952767 L 595.3845941516105 549.5789094980246 L 601.1916516543583 554.3446384276523 L 607.8168757670313 557.8858944940457 L 615.0056628424477 560.0665892125326 L 622.4817518248176 560.8029197080291 L 629.9578408071875 560.0665892125326 L 637.146627882604 557.8858944940457 L 643.7718519952768 554.3446384276523 L 649.5789094980247 549.5789094980246 L 654.3446384276524 543.7718519952767 L 657.8858944940457 537.1466278826038 L 660.0665892125326 529.9578408071874 L 660.8029197080293 522.4817518248175 Z M 215.8394160583942 522.4817518248175 L 215.10308556289755 515.0056628424477 L 212.92239084441067 507.8168757670312 L 209.38113477801727 501.1916516543583 L 204.6154058483896 495.3845941516104 L 198.80834834564172 490.61886522198273 L 192.18312423296882 487.07760915558936 L 184.99433715755237 484.89691443710245 L 177.51824817518252 484.1605839416058 L 170.04215919281265 484.89691443710245 L 162.85337211739625 487.07760915558936 L 156.2281480047233 490.61886522198273 L 150.4210905019754 495.3845941516104 L 145.65536157234774 501.1916516543583 L 142.11410550595434 507.8168757670312 L 139.9334107874675 515.0056628424476 L 139.19708029197085 522.4817518248175 L 139.9334107874675 529.9578408071874 L 142.11410550595434 537.1466278826038 L 145.65536157234774 543.7718519952767 L 150.4210905019754 549.5789094980246 L 156.2281480047233 554.3446384276523 L 162.8533721173962 557.8858944940457 L 170.0421591928126 560.0665892125326 L 177.51824817518252 560.8029197080291 L 184.99433715755237 560.0665892125326 L 192.18312423296882 557.8858944940457 L 198.80834834564172 554.3446384276523 L 204.6154058483896 549.5789094980246 L 209.38113477801727 543.7718519952767 L 212.92239084441067 537.1466278826038 L 215.10308556289755 529.9578408071874 L 215.8394160583942 522.4817518248175 Z M 215.8394160583942 77.5182481751824 L 215.10308556289755 70.04215919281253 L 212.92239084441067 62.853372117396134 L 209.38113477801727 56.22814800472318 L 204.6154058483896 50.4210905019753 L 198.80834834564172 45.65536157234763 L 192.18312423296882 42.11410550595423 L 184.99433715755237 39.93341078746738 L 177.51824817518252 39.197080291970735 L 170.04215919281265 39.93341078746738 L 162.85337211739625 42.11410550595423 L 156.2281480047233 45.65536157234763 L 150.4210905019754 50.4210905019753 L 145.65536157234774 56.22814800472318 L 142.11410550595434 62.85337211739608 L 139.9334107874675 70.04215919281248 L 139.19708029197085 77.5182481751824 L 139.9334107874675 84.99433715755225 L 142.11410550595434 92.18312423296868 L 145.65536157234774 98.8083483456416 L 150.4210905019754 104.61540584838949 L 156.2281480047233 109.38113477801716 L 162.8533721173962 112.92239084441056 L 170.0421591928126 115.10308556289743 L 177.51824817518252 115.83941605839408 L 184.99433715755237 115.10308556289743 L 192.18312423296882 112.92239084441056 L 198.80834834564172 109.38113477801716 L 204.6154058483896 104.61540584838949 L 209.38113477801727 98.8083483456416 L 212.92239084441067 92.18312423296871 L 215.10308556289755 84.99433715755231 L 215.8394160583942 77.5182481751824 Z M 660.8029197080293 77.5182481751824 L 660.0665892125326 70.04215919281253 L 657.8858944940457 62.853372117396134 L 654.3446384276524 56.22814800472318 L 649.5789094980247 50.4210905019753 L 643.7718519952768 45.65536157234763 L 637.146627882604 42.11410550595423 L 629.9578408071875 39.93341078746738 L 622.4817518248176 39.197080291970735 L 615.0056628424477 39.93341078746738 L 607.8168757670313 42.11410550595423 L 601.1916516543583 45.65536157234763 L 595.3845941516105 50.4210905019753 L 590.6188652219828 56.22814800472318 L 587.0776091555895 62.85337211739608 L 584.8969144371026 70.04215919281248 L 584.1605839416059 77.5182481751824 L 584.8969144371026 84.99433715755225 L 587.0776091555895 92.18312423296868 L 590.6188652219828 98.8083483456416 L 595.3845941516105 104.61540584838949 L 601.1916516543583 109.38113477801716 L 607.8168757670313 112.92239084441056 L 615.0056628424477 115.10308556289743 L 622.4817518248176 115.83941605839408 L 629.9578408071875 115.10308556289743 L 637.146627882604 112.92239084441056 L 643.7718519952768 109.38113477801716 L 649.5789094980247 104.61540584838949 L 654.3446384276524 98.8083483456416 L 657.8858944940457 92.18312423296871 L 660.0665892125326 84.99433715755231 L 660.8029197080293 77.5182481751824 Z M 547.2624781021906 278.09388175182335 L 547.2624781021906 299.9916656934292 L 589.9634182481759 299.9916656934292 L 589.9634182481759 278.0938992700739 L 589.9634182481759 256.19611532846807 L 547.2624781021906 256.19611532846807 L 547.2624781021906 278.09388175182335 Z M 210.03658175182417 321.906100729926 L 210.03658175182417 343.8038846715318 L 252.73752189780953 343.8038846715318 L 252.73752189780953 321.90611824817654 L 252.73752189780953 300.0083343065707 L 210.03658175182417 300.0083343065707 L 210.03658175182417 321.906100729926 Z M 147.43065693430663 191.86861313868604 L 147.43065693430663 220.22627737226273 L 173.70802919708032 220.22627737226273 L 173.70802919708032 190.6642335766423 L 170.9270072992701 190.6642335766423 L 170.9270072992701 162.3065693430656 L 144.6496350364964 162.3065693430656 L 144.6496350364964 191.86861313868604 L 147.43065693430663 191.86861313868604 Z M 404.92379051095 307.66476569342893 L 395.0762094890501 307.66476569342893 L 390.7016445255476 307.66476569342893 L 376.4628124087581 307.66476569342893 L 376.4628124087581 330.65771605839245 L 390.7016445255476 330.65771605839245 L 395.0762094890501 330.65771605839245 L 404.92379051095 330.65771605839245 L 409.31504160583955 330.65771605839245 L 423.537187591242 330.65771605839245 L 423.537187591242 307.66476569342893 L 409.31504160583955 307.66476569342893 L 404.92379051095 307.66476569342893 Z M 547.2513540146 321.89499416058595 L 589.9522941605854 321.89499416058595 L 589.9522941605854 299.9972102189801 L 547.2513540146 299.9972102189801 L 547.2513540146 321.89499416058595 Z M 210.0477058394147 300.0027897810197 L 252.7486459854001 300.0027897810197 L 252.7486459854001 278.1050058394139 L 210.0477058394147 278.1050058394139 L 210.0477058394147 300.0027897810197 Z M 183.56204379562047 220.22627737226273 L 209.83941605839416 220.22627737226273 L 209.83941605839416 190.6642335766423 L 183.56204379562047 190.6642335766423 L 183.56204379562047 220.22627737226273 Z M 390.7016445255476 269.34228394160743 L 376.4628124087581 269.34228394160743 L 376.4628124087581 292.33523430657095 L 390.7016445255476 292.33523430657095 L 395.0762094890501 292.33523430657095 L 409.31504160583955 292.33523430657095 L 409.31504160583955 269.34228394160743 L 395.0762094890501 269.34228394160743 L 390.7016445255476 269.34228394160743 Z M 388.621481751825 364.3803437956187 L 411.39520437956224 364.3803437956187 L 411.39520437956224 343.7964021897793 L 388.621481751825 343.7964021897793 L 388.621481751825 364.3803437956187 Z M 388.621481751825 386.7161102189764 L 411.39520437956224 386.7161102189764 L 411.39520437956224 366.13216861313697 L 388.621481751825 366.13216861313697 L 388.621481751825 386.7161102189764 Z M 340.550403649634 268.7949635036512 L 363.32412627737125 268.7949635036512 L 363.32412627737125 248.2110218978118 L 340.550403649634 248.2110218978118 L 340.550403649634 268.7949635036512 Z M 320.4044182481741 330.5481021897793 L 340.9883598540136 330.5481021897793 L 340.9883598540136 307.7743795620421 L 320.4044182481741 307.7743795620421 L 320.4044182481741 330.5481021897793 Z M 389.6870063931801 256.2035978102206 L 410.27094799901954 256.2035978102206 L 410.27094799901954 233.42987518248333 L 389.6870063931801 233.42987518248333 L 389.6870063931801 256.2035978102206 Z M 446.7488664233588 321.4613726087493 L 469.522589051096 321.4613726087493 L 469.522589051096 300.8774310029099 L 446.7488664233588 300.8774310029099 L 446.7488664233588 321.4613726087493 Z M 412.0227728165378 256.2035978102206 L 432.6067144223772 256.2035978102206 L 432.6067144223772 233.42987518248333 L 412.0227728165378 233.42987518248333 L 412.0227728165378 256.2035978102206 Z M 342.7401846715318 330.5481021897793 L 363.32412627737125 330.5481021897793 L 363.32412627737125 307.7743795620421 L 342.7401846715318 307.7743795620421 L 342.7401846715318 330.5481021897793 Z M 340.550403649634 291.1307299270089 L 363.32412627737125 291.1307299270089 L 363.32412627737125 270.54678832116946 L 340.550403649634 270.54678832116946 L 340.550403649634 291.1307299270089 Z" fill="rgb(200, 52, 52)" fill-rule="evenodd" fill-opacity="0.5" data-type="pcb_copper_pour" data-pcb-layer="top"/><path class="pcb-silkscreen pcb-silkscreen-top" d="M 422.3527416058408 277.0932788321167 L 422.3527416058408 321.5896291970786" fill="none" stroke="#f2eda1" stroke-width="2.1897810218978107" stroke-linecap="round" stroke-linejoin="round" data-pcb-component-id="pcb_component_0" data-pcb-silkscreen-path-id="pcb_silkscreen_path_0" data-type="pcb_silkscreen_path" data-pcb-layer="top"/><path class="pcb-silkscreen pcb-silkscreen-top" d="M 377.8563912408764 321.58962919707864 L 377.8563912408764 277.0932788321167" fill="none" stroke="#f2eda1" stroke-width="2.1897810218978107" stroke-linecap="round" stroke-linejoin="round" data-pcb-component-id="pcb_component_0" data-pcb-silkscreen-path-id="pcb_silkscreen_path_1" data-type="pcb_silkscreen_path" data-pcb-layer="top"/><path class="pcb-silkscreen pcb-silkscreen-top" d="M 664.9080562043805 344.23270948905235 L 664.9080562043805 258.83197664233666" fill="none" stroke="#f2eda1" stroke-width="2.1897810218978107" stroke-linecap="round" stroke-linejoin="round" data-pcb-component-id="pcb_component_1" data-pcb-silkscreen-path-id="pcb_silkscreen_path_2" data-type="pcb_silkscreen_path" data-pcb-layer="top"/><path class="pcb-silkscreen pcb-silkscreen-top" d="M 571.6247948905154 342.4823343065695 L 571.6247948905154 366.13047591241013 L 628.5578751824848 366.13047591241013" fill="none" stroke="#f2eda1" stroke-width="2.1897810218978107" stroke-linecap="round" stroke-linejoin="round" data-pcb-component-id="pcb_component_1" data-pcb-silkscreen-path-id="pcb_silkscreen_path_3" data-type="pcb_silkscreen_path" data-pcb-layer="top"/><path class="pcb-silkscreen pcb-silkscreen-top" d="M 571.6247948905154 255.32844525547523 L 571.6247948905154 235.1821664233581 L 628.7074941605857 235.1821664233581" fill="none" stroke="#f2eda1" stroke-width="2.1897810218978107" stroke-linecap="round" stroke-linejoin="round" data-pcb-component-id="pcb_component_1" data-pcb-silkscreen-path-id="pcb_silkscreen_path_4" data-type="pcb_silkscreen_path" data-pcb-layer="top"/><path class="pcb-silkscreen pcb-silkscreen-top" d="M 135.09194379561967 255.76729051094753 L 135.09194379561967 341.16802335766323" fill="none" stroke="#f2eda1" stroke-width="2.1897810218978107" stroke-linecap="round" stroke-linejoin="round" data-pcb-component-id="pcb_component_2" data-pcb-silkscreen-path-id="pcb_silkscreen_path_5" data-type="pcb_silkscreen_path" data-pcb-layer="top"/><path class="pcb-silkscreen pcb-silkscreen-top" d="M 228.37520510948465 257.5176656934304 L 228.37520510948465 233.86952408758975 L 171.44212481751524 233.86952408758975" fill="none" stroke="#f2eda1" stroke-width="2.1897810218978107" stroke-linecap="round" stroke-linejoin="round" data-pcb-component-id="pcb_component_2" data-pcb-silkscreen-path-id="pcb_silkscreen_path_6" data-type="pcb_silkscreen_path" data-pcb-layer="top"/><path class="pcb-silkscreen pcb-silkscreen-top" d="M 228.37520510948465 344.67155474452466 L 228.37520510948465 364.81783357664176 L 171.2925058394144 364.81783357664176" fill="none" stroke="#f2eda1" stroke-width="2.1897810218978107" stroke-linecap="round" stroke-linejoin="round" data-pcb-component-id="pcb_component_2" data-pcb-silkscreen-path-id="pcb_silkscreen_path_7" data-type="pcb_silkscreen_path" data-pcb-layer="top"/><path class="pcb-silkscreen pcb-silkscreen-top" d="M 442.3693043795632 288.8336353824719 L 442.3693043795632 321.4613726087493 L 473.9021510948917 321.4613726087493 L 473.9021510948917 288.8336353824719" fill="none" stroke="#f2eda1" stroke-width="2.1897810218978107" stroke-linecap="round" stroke-linejoin="round" data-pcb-component-id="pcb_component_3" data-pcb-silkscreen-path-id="pcb_silkscreen_path_8" data-type="pcb_silkscreen_path" data-pcb-layer="top"/><text x="0" y="0" dx="0" dy="0" fill="#f2eda1" font-family="Arial, sans-serif" font-size="8.759124087591243" text-anchor="middle" dominant-baseline="central" transform="matrix(1,0,0,1,431.42039927007414,300.00151859415075)" class="pcb-silkscreen-text pcb-silkscreen-top" data-pcb-silkscreen-text-id="pcb_component_3" stroke="none" data-type="pcb_silkscreen_text" data-pcb-layer="top">C1</text><path class="pcb-silkscreen pcb-silkscreen-top" d="M 422.3147436194575 229.05031313868773 L 389.6870063931801 229.05031313868773 L 389.6870063931801 260.5831598540162 L 422.3147436194575 260.5831598540162" fill="none" stroke="#f2eda1" stroke-width="2.1897810218978107" stroke-linecap="round" stroke-linejoin="round" data-pcb-component-id="pcb_component_4" data-pcb-silkscreen-path-id="pcb_silkscreen_path_9" data-type="pcb_silkscreen_path" data-pcb-layer="top"/><text x="0" y="0" dx="0" dy="0" fill="#f2eda1" font-family="Arial, sans-serif" font-size="8.759124087591243" text-anchor="middle" dominant-baseline="central" transform="matrix(1,0,0,1,411.14686040777866,218.10140802919867)" class="pcb-silkscreen-text pcb-silkscreen-top" data-pcb-silkscreen-text-id="pcb_component_4" stroke="none" data-type="pcb_silkscreen_text" data-pcb-layer="top">R5</text><path class="pcb-silkscreen pcb-silkscreen-top" d="M 415.77476642335785 376.4241394160567 L 415.77476642335785 343.7964021897793 L 384.24191970802934 343.7964021897793 L 384.24191970802934 376.4241394160567" fill="none" stroke="#f2eda1" stroke-width="2.1897810218978107" stroke-linecap="round" stroke-linejoin="round" data-pcb-component-id="pcb_component_5" data-pcb-silkscreen-path-id="pcb_silkscreen_path_10" data-type="pcb_silkscreen_path" data-pcb-layer="top"/><text x="0" y="0" dx="0" dy="0" fill="#f2eda1" font-family="Arial, sans-serif" font-size="8.759124087591243" text-anchor="middle" dominant-baseline="central" transform="matrix(-1.8369701987210297e-16,1,-1,-1.8369701987210297e-16,426.7236715328469,365.25625620437785)" class="pcb-silkscreen-text pcb-silkscreen-top" data-pcb-silkscreen-text-id="pcb_component_5" stroke="none" data-type="pcb_silkscreen_text" data-pcb-layer="top">R2</text><path class="pcb-silkscreen pcb-silkscreen-top" d="M 330.69638905109383 334.92766423357494 L 363.32412627737125 334.92766423357494 L 363.32412627737125 303.39481751824644 L 330.6963890510939 303.39481751824644" fill="none" stroke="#f2eda1" stroke-width="2.1897810218978107" stroke-linecap="round" stroke-linejoin="round" data-pcb-component-id="pcb_component_6" data-pcb-silkscreen-path-id="pcb_silkscreen_path_11" data-type="pcb_silkscreen_path" data-pcb-layer="top"/><text x="0" y="0" dx="0" dy="0" fill="#f2eda1" font-family="Arial, sans-serif" font-size="8.759124087591243" text-anchor="middle" dominant-baseline="central" transform="matrix(1,0,0,1,341.8642722627727,345.876569343064)" class="pcb-silkscreen-text pcb-silkscreen-top" data-pcb-silkscreen-text-id="pcb_component_6" stroke="none" data-type="pcb_silkscreen_text" data-pcb-layer="top">R3</text><path class="pcb-silkscreen pcb-silkscreen-top" d="M 367.70368832116685 280.83875912408917 L 367.70368832116685 248.2110218978118 L 336.1708416058384 248.2110218978118 L 336.1708416058384 280.83875912408917" fill="none" stroke="#f2eda1" stroke-width="2.1897810218978107" stroke-linecap="round" stroke-linejoin="round" data-pcb-component-id="pcb_component_7" data-pcb-silkscreen-path-id="pcb_silkscreen_path_12" data-type="pcb_silkscreen_path" data-pcb-layer="top"/><text x="0" y="0" dx="0" dy="0" fill="#f2eda1" font-family="Arial, sans-serif" font-size="8.759124087591243" text-anchor="middle" dominant-baseline="central" transform="matrix(6.123233995736766e-17,-1,1,6.123233995736766e-17,378.6525934306559,269.67087591241034)" class="pcb-silkscreen-text pcb-silkscreen-top" data-pcb-silkscreen-text-id="pcb_component_7" stroke="none" data-type="pcb_silkscreen_text" data-pcb-layer="top">R1</text><path class="pcb-silkscreen pcb-silkscreen-top" d="M 196.70072992700733 186.28467153284666 L 147.43065693430657 186.28467153284666 L 147.43065693430657 224.60583941605833 L 196.70072992700733 224.60583941605833" fill="none" stroke="#f2eda1" stroke-width="2.1897810218978107" stroke-linecap="round" stroke-linejoin="round" data-pcb-component-id="pcb_component_8" data-pcb-silkscreen-path-id="pcb_silkscreen_path_13" data-type="pcb_silkscreen_path" data-pcb-layer="top"/><text x="0" y="0" dx="0" dy="0" fill="#f2eda1" font-family="Arial, sans-serif" font-size="8.759124087591243" text-anchor="middle" dominant-baseline="central" transform="matrix(1,0,0,1,178.6350364963504,175.3357664233576)" class="pcb-silkscreen-text pcb-silkscreen-top" data-pcb-silkscreen-text-id="pcb_component_8" stroke="none" data-type="pcb_silkscreen_text" data-pcb-layer="top">R4</text><path class="pcb-silkscreen pcb-silkscreen-top" d="M 193.9197080291971 157.92700729927 L 144.64963503649633 157.92700729927 L 144.64963503649633 196.24817518248167 L 193.9197080291971 196.24817518248167" fill="none" stroke="#f2eda1" stroke-width="2.1897810218978107" stroke-linecap="round" stroke-linejoin="round" data-pcb-component-id="pcb_component_9" data-pcb-silkscreen-path-id="pcb_silkscreen_path_14" data-type="pcb_silkscreen_path" data-pcb-layer="top"/><text x="0" y="0" dx="0" dy="0" fill="#f2eda1" font-family="Arial, sans-serif" font-size="8.759124087591243" text-anchor="middle" dominant-baseline="central" transform="matrix(1,0,0,1,175.85401459854018,146.97810218978094)" class="pcb-silkscreen-text pcb-silkscreen-top" data-pcb-silkscreen-text-id="pcb_component_9" stroke="none" data-type="pcb_silkscreen_text" data-pcb-layer="top">D1</text><text x="0" y="0" dx="0" dy="0" fill="#f2eda1" font-family="Arial, sans-serif" font-size="12.61313868613139" text-anchor="start" dominant-baseline="central" transform="matrix(-1.8369701987210297e-16,1,-1,-1.8369701987210297e-16,288.7591240875913,519.4160583941605)" class="pcb-silkscreen-text pcb-silkscreen-top" data-pcb-silkscreen-text-id="pcb_component_13" stroke="none" data-type="pcb_silkscreen_text" data-pcb-layer="top">GND</text><text x="0" y="0" dx="0" dy="0" fill="#f2eda1" font-family="Arial, sans-serif" font-size="12.61313868613139" text-anchor="start" dominant-baseline="central" transform="matrix(-1.8369701987210297e-16,1,-1,-1.8369701987210297e-16,344.37956204379566,519.4160583941605)" class="pcb-silkscreen-text pcb-silkscreen-top" data-pcb-silkscreen-text-id="pcb_component_13" stroke="none" data-type="pcb_silkscreen_text" data-pcb-layer="top">3V3</text><text x="0" y="0" dx="0" dy="0" fill="#f2eda1" font-family="Arial, sans-serif" font-size="12.61313868613139" text-anchor="start" dominant-baseline="central" transform="matrix(-1.8369701987210297e-16,1,-1,-1.8369701987210297e-16,400.00000000000006,519.4160583941605)" class="pcb-silkscreen-text pcb-silkscreen-top" data-pcb-silkscreen-text-id="pcb_component_13" stroke="none" data-type="pcb_silkscreen_text" data-pcb-layer="top">SDA</text><text x="0" y="0" dx="0" dy="0" fill="#f2eda1" font-family="Arial, sans-serif" font-size="12.61313868613139" text-anchor="start" dominant-baseline="central" transform="matrix(-1.8369701987210297e-16,1,-1,-1.8369701987210297e-16,455.62043795620446,519.4160583941605)" class="pcb-silkscreen-text pcb-silkscreen-top" data-pcb-silkscreen-text-id="pcb_component_13" stroke="none" data-type="pcb_silkscreen_text" data-pcb-layer="top">SCL</text><text x="0" y="0" dx="0" dy="0" fill="#f2eda1" font-family="Arial, sans-serif" font-size="12.61313868613139" text-anchor="start" dominant-baseline="central" transform="matrix(-1.8369701987210297e-16,1,-1,-1.8369701987210297e-16,511.2408759124088,519.4160583941605)" class="pcb-silkscreen-text pcb-silkscreen-top" data-pcb-silkscreen-text-id="pcb_component_13" stroke="none" data-type="pcb_silkscreen_text" data-pcb-layer="top">N_INT</text><text x="0" y="0" dx="0" dy="0" fill="#f2eda1" font-family="Arial, sans-serif" font-size="15.328467153284672" text-anchor="middle" dominant-baseline="central" transform="matrix(1,0,0,1,400.00000000000006,494.6715328467153)" class="pcb-silkscreen-text pcb-silkscreen-top" data-pcb-silkscreen-text-id="pcb_component_13" stroke="none" data-type="pcb_silkscreen_text" data-pcb-layer="top">J3</text><text x="0" y="0" dx="0" dy="0" fill="#f2eda1" font-family="Arial, sans-serif" font-size="43.79562043795621" text-anchor="middle" dominant-baseline="central" transform="matrix(1,0,0,1,400.00000000000006,102.91970802919701)" class="pcb-silkscreen-text pcb-silkscreen-top" data-pcb-silkscreen-text-id="null" stroke="none" data-type="pcb_silkscreen_text" data-pcb-layer="top">Sparkfun</text><text x="0" y="0" dx="0" dy="0" fill="#f2eda1" font-family="Arial, sans-serif" font-size="26.277372262773724" text-anchor="middle" dominant-baseline="central" transform="matrix(1,0,0,1,400.00000000000006,146.7153284671532)" class="pcb-silkscreen-text pcb-silkscreen-top" data-pcb-silkscreen-text-id="null" stroke="none" data-type="pcb_silkscreen_text" data-pcb-layer="top">Ambient Light Sensor</text><text x="0" y="0" dx="0" dy="0" fill="#f2eda1" font-family="Arial, sans-serif" font-size="26.277372262773724" text-anchor="middle" dominant-baseline="central" transform="matrix(1,0,0,1,400.00000000000006,190.51094890510942)" class="pcb-silkscreen-text pcb-silkscreen-top" data-pcb-silkscreen-text-id="null" stroke="none" data-type="pcb_silkscreen_text" data-pcb-layer="top">VEML6030</text><text x="0" y="0" dx="0" dy="0" fill="#f2eda1" font-family="Arial, sans-serif" font-size="26.277372262773724" text-anchor="middle" dominant-baseline="central" transform="matrix(1,0,0,1,181.021897810219,190.51094890510942)" class="pcb-silkscreen-text pcb-silkscreen-top" data-pcb-silkscreen-text-id="null" stroke="none" data-type="pcb_silkscreen_text" data-pcb-layer="top">qwiic</text><text x="0" y="0" dx="0" dy="0" fill="#f2eda1" font-family="Arial, sans-serif" font-size="26.277372262773724" text-anchor="middle" dominant-baseline="central" transform="matrix(1,0,0,1,181.021897810219,190.51094890510942)" class="pcb-silkscreen-text pcb-silkscreen-top" data-pcb-silkscreen-text-id="null" stroke="none" data-type="pcb_silkscreen_text" data-pcb-layer="top">qwiic</text><text x="0" y="0" dx="0" dy="0" fill="#f2eda1" font-family="Arial, sans-serif" font-size="26.277372262773724" text-anchor="middle" dominant-baseline="central" transform="matrix(1,0,0,1,181.021897810219,472.992700729927)" class="pcb-silkscreen-text pcb-silkscreen-top" data-pcb-silkscreen-text-id="null" stroke="none" data-type="pcb_silkscreen_text" data-pcb-layer="top">PWR</text><g data-type="pcb_plated_hole" data-pcb-layer="through"><circle class="pcb-hole-outer" fill="rgb(200, 52, 52)" cx="288.7591240875913" cy="550.2919708029196" r="20.583941605839417" data-type="pcb_plated_hole" data-pcb-layer="top"/><circle class="pcb-hole-inner" fill="#FF26E2" cx="288.7591240875913" cy="550.2919708029196" r="11.124087591240878" data-type="pcb_plated_hole_drill" data-pcb-layer="drill"/></g><g data-type="pcb_plated_hole" data-pcb-layer="through"><circle class="pcb-hole-outer" fill="rgb(200, 52, 52)" cx="344.37956204379566" cy="550.2919708029196" r="20.583941605839417" data-type="pcb_plated_hole" data-pcb-layer="top"/><circle class="pcb-hole-inner" fill="#FF26E2" cx="344.37956204379566" cy="550.2919708029196" r="11.124087591240878" data-type="pcb_plated_hole_drill" data-pcb-layer="drill"/></g><g data-type="pcb_plated_hole" data-pcb-layer="through"><circle class="pcb-hole-outer" fill="rgb(200, 52, 52)" cx="400.00000000000006" cy="550.2919708029196" r="20.583941605839417" data-type="pcb_plated_hole" data-pcb-layer="top"/><circle class="pcb-hole-inner" fill="#FF26E2" cx="400.00000000000006" cy="550.2919708029196" r="11.124087591240878" data-type="pcb_plated_hole_drill" data-pcb-layer="drill"/></g><g data-type="pcb_plated_hole" data-pcb-layer="through"><circle class="pcb-hole-outer" fill="rgb(200, 52, 52)" cx="455.62043795620446" cy="550.2919708029196" r="20.583941605839417" data-type="pcb_plated_hole" data-pcb-layer="top"/><circle class="pcb-hole-inner" fill="#FF26E2" cx="455.62043795620446" cy="550.2919708029196" r="11.124087591240878" data-type="pcb_plated_hole_drill" data-pcb-layer="drill"/></g><g data-type="pcb_plated_hole" data-pcb-layer="through"><circle class="pcb-hole-outer" fill="rgb(200, 52, 52)" cx="511.2408759124088" cy="550.2919708029196" r="20.583941605839417" data-type="pcb_plated_hole" data-pcb-layer="top"/><circle class="pcb-hole-inner" fill="#FF26E2" cx="511.2408759124088" cy="550.2919708029196" r="11.124087591240878" data-type="pcb_plated_hole_drill" data-pcb-layer="drill"/></g><circle class="pcb-hole" cx="622.4817518248176" cy="522.4817518248175" r="33.94160583941606" fill="#FF26E2" data-type="pcb_hole" data-pcb-layer="drill"/><circle class="pcb-hole" cx="177.51824817518252" cy="522.4817518248175" r="33.94160583941606" fill="#FF26E2" data-type="pcb_hole" data-pcb-layer="drill"/><circle class="pcb-hole" cx="177.51824817518252" cy="77.5182481751824" r="33.94160583941606" fill="#FF26E2" data-type="pcb_hole" data-pcb-layer="drill"/><circle class="pcb-hole" cx="622.4817518248176" cy="77.5182481751824" r="33.94160583941606" fill="#FF26E2" data-type="pcb_hole" data-pcb-layer="drill"/></svg>