<svg xmlns="http://www.w3.org/2000/svg" width="1200" height="600" style="background-color: rgb(245, 241, 237)" data-real-to-screen-transform="matrix(69.9893460662,0,0,-69.9893460662,380.4084267173,288.7060525231)" data-software-used-string="@tscircuit/core@0.0.611"><style>
              .boundary { fill: rgb(245, 241, 237); }
              .schematic-boundary { fill: none; stroke: #fff; }
              .component { fill: none; stroke: rgb(132, 0, 0); }
              .chip { fill: rgb(255, 255, 194); stroke: rgb(132, 0, 0); }
              .component-pin { fill: none; stroke: rgb(132, 0, 0); }
              .trace:hover {
                filter: invert(1);
              }
              .trace:hover .trace-crossing-outline {
                opacity: 0;
              }
              .trace:hover .trace-junction {
                filter: invert(1);
              }
              .text { font-family: sans-serif; fill: rgb(0, 150, 0); }
              .pin-number { fill: rgb(169, 0, 0); }
              .port-label { fill: rgb(0, 100, 100); }
              .component-name { fill: rgb(0, 100, 100); }
            </style><rect class="boundary" x="0" y="0" width="1200" height="600"/><g data-circuit-json-type="schematic_component" data-schematic-component-id="schematic_component_0"><rect class="component chip" x="338.41481907758003" y="239.71351027676002" width="83.98721527943997" height="97.98508449268002" stroke-width="1.399786921324px" fill="rgb(255, 255, 194)" stroke="rgb(132, 0, 0)"/><rect class="component-overlay" x="338.41481907758003" y="239.71351027676002" width="83.98721527943997" height="97.98508449268002" fill="transparent"/><text x="338.41481907758003" y="346.79720975804605" fill="#006464" text-anchor="start" dominant-baseline="middle" font-family="sans-serif" font-size="12.598082291915999px" transform="rotate(0, 338.41481907758003, 346.79720975804605)">TMP102AIDRLR</text><text x="338.41481907758003" y="230.61489528815403" fill="#006464" text-anchor="start" dominant-baseline="middle" font-family="sans-serif" font-size="12.598082291915999px" transform="rotate(0, 338.41481907758003, 230.61489528815403)">U1</text><line class="component-pin" x1="448.997985862176" y1="267.70924870324" x2="422.40203435702" y2="267.70924870324" stroke-width="1.399786921324px"/><g data-schematic-port-id="source_port_0"><rect x="448.99798586217605" y="266.309461781916" width="2.799573842648" height="2.799573842648" opacity="0"/></g><text class="pin-number" x="436.39990357026" y="266.309461781916" style="font-family: sans-serif;" fill="rgb(169, 0, 0)" text-anchor="middle" dominant-baseline="auto" font-size="10.49840190993px" transform="">1</text><text class="pin-number" x="415.40309975040003" y="267.70924870324" style="font-family: sans-serif;" fill="rgb(169, 0, 0)" text-anchor="end" dominant-baseline="middle" font-size="10.49840190993px" transform="">SCL</text><line class="component-pin" x1="311.81886757242404" y1="323.70072555620004" x2="338.41481907758003" y2="323.70072555620004" stroke-width="1.399786921324px"/><g data-schematic-port-id="source_port_1"><rect x="309.019293729776" y="322.30093863487605" width="2.799573842648" height="2.799573842648" opacity="0"/></g><text class="pin-number" x="324.41694986434004" y="322.30093863487605" style="font-family: sans-serif;" fill="rgb(169, 0, 0)" text-anchor="middle" dominant-baseline="auto" font-size="10.49840190993px" transform="">2</text><text class="pin-number" x="345.4137536842" y="323.70072555620004" style="font-family: sans-serif;" fill="rgb(169, 0, 0)" text-anchor="start" dominant-baseline="middle" font-size="10.49840190993px" transform="">GND</text><line class="component-pin" x1="448.997985862176" y1="309.70285634296005" x2="422.40203435702" y2="309.70285634296005" stroke-width="1.399786921324px"/><g data-schematic-port-id="source_port_2"><rect x="448.99798586217605" y="308.30306942163605" width="2.799573842648" height="2.799573842648" opacity="0"/></g><text class="pin-number" x="436.39990357026" y="308.303069421636" style="font-family: sans-serif;" fill="rgb(169, 0, 0)" text-anchor="middle" dominant-baseline="auto" font-size="10.49840190993px" transform="">3</text><text class="pin-number" x="415.40309975040003" y="309.70285634296005" style="font-family: sans-serif;" fill="rgb(169, 0, 0)" text-anchor="end" dominant-baseline="middle" font-size="10.49840190993px" transform="">ALERT</text><line class="component-pin" x1="448.997985862176" y1="323.70072555620004" x2="422.40203435702" y2="323.70072555620004" stroke-width="1.399786921324px"/><g data-schematic-port-id="source_port_3"><rect x="448.99798586217605" y="322.30093863487605" width="2.799573842648" height="2.799573842648" opacity="0"/></g><text class="pin-number" x="436.39990357026" y="322.30093863487605" style="font-family: sans-serif;" fill="rgb(169, 0, 0)" text-anchor="middle" dominant-baseline="auto" font-size="10.49840190993px" transform="">4</text><text class="pin-number" x="415.40309975040003" y="323.70072555620004" style="font-family: sans-serif;" fill="rgb(169, 0, 0)" text-anchor="end" dominant-baseline="middle" font-size="10.49840190993px" transform="">ADD0</text><line class="component-pin" x1="311.81886757242404" y1="253.71137949" x2="338.41481907758003" y2="253.71137949" stroke-width="1.399786921324px"/><g data-schematic-port-id="source_port_4"><rect x="309.019293729776" y="252.31159256867602" width="2.799573842648" height="2.799573842648" opacity="0"/></g><text class="pin-number" x="324.41694986434004" y="252.31159256867602" style="font-family: sans-serif;" fill="rgb(169, 0, 0)" text-anchor="middle" dominant-baseline="auto" font-size="10.49840190993px" transform="">5</text><text class="pin-number" x="345.4137536842" y="253.71137949" style="font-family: sans-serif;" fill="rgb(169, 0, 0)" text-anchor="start" dominant-baseline="middle" font-size="10.49840190993px" transform="">VCC</text><line class="component-pin" x1="448.997985862176" y1="253.71137949" x2="422.40203435702" y2="253.71137949" stroke-width="1.399786921324px"/><g data-schematic-port-id="source_port_5"><rect x="448.99798586217605" y="252.31159256867602" width="2.799573842648" height="2.799573842648" opacity="0"/></g><text class="pin-number" x="436.39990357026" y="252.31159256867602" style="font-family: sans-serif;" fill="rgb(169, 0, 0)" text-anchor="middle" dominant-baseline="auto" font-size="10.49840190993px" transform="">6</text><text class="pin-number" x="415.40309975040003" y="253.71137949" style="font-family: sans-serif;" fill="rgb(169, 0, 0)" text-anchor="end" dominant-baseline="middle" font-size="10.49840190993px" transform="">SDA</text></g><g data-circuit-json-type="schematic_component" data-schematic-component-id="schematic_component_1"><rect class="component-overlay" x="221.95577723174412" y="258.23300619793383" width="37.03602429407445" height="74.07205558708347" fill="transparent"/><path d="M 240.47378937878145 332.3050617850173 L 240.47378937878145 300.8244418349475" stroke="rgb(132, 0, 0)" fill="none" stroke-width="1.399786921324px" stroke-linecap="round"/><path d="M 240.47378937878145 289.71363314693826 L 240.47378937878145 258.23300619793383" stroke="rgb(132, 0, 0)" fill="none" stroke-width="1.399786921324px" stroke-linecap="round"/><path d="M 258.9918015258186 300.8244418349475 L 221.95577723174412 300.8244418349475" stroke="rgb(132, 0, 0)" fill="none" stroke-width="1.399786921324px" stroke-linecap="round"/><path d="M 258.9918015258186 289.71363314693826 L 221.95577723174412 289.71363314693826" stroke="rgb(132, 0, 0)" fill="none" stroke-width="1.399786921324px" stroke-linecap="round"/><text x="253.92380298781882" y="281.81295124648005" fill="rgb(15, 15, 15)" font-family="sans-serif" text-anchor="start" dominant-baseline="auto" font-size="12.598082291915999px">C1</text><text x="253.92380298781882" y="309.59702301296005" fill="rgb(15, 15, 15)" font-family="sans-serif" text-anchor="start" dominant-baseline="hanging" font-size="12.598082291915999px">100nF</text></g><g data-circuit-json-type="schematic_component" data-schematic-component-id="schematic_component_2"><rect class="component-overlay" x="455.0925776298726" y="139.69995956171633" width="18.518019145971778" height="74.07205558708344" fill="transparent"/><path d="M 464.3515872028585 213.77201514879977 L 464.3515872028585 195.25400300176258" stroke="rgb(132, 0, 0)" fill="none" stroke-width="1.399786921324px" stroke-linecap="round"/><path d="M 464.3515872028585 158.2179787076881 L 464.3515872028585 139.69995956171633" stroke="rgb(132, 0, 0)" fill="none" stroke-width="1.399786921324px" stroke-linecap="round"/><path d="M 455.0925776298726 176.73599785365997 L 455.0925776298726 158.21798570662278 L 473.6105967758444 158.21798570662278 L 473.6105967758444 195.2540169996319 L 455.0925776298726 195.2540169996319 L 455.0925776298726 176.73599785366008" stroke="rgb(132, 0, 0)" fill="none" stroke-width="1.399786921324px" stroke-linecap="round"/><text x="483.64182330025" y="166.7496170027465" fill="rgb(15, 15, 15)" font-family="sans-serif" text-anchor="start" dominant-baseline="middle" font-size="12.598082291915999px">R1</text><text x="483.64182330025" y="189.14620774393052" fill="rgb(15, 15, 15)" font-family="sans-serif" text-anchor="start" dominant-baseline="middle" font-size="12.598082291915999px">10k立</text></g><g data-circuit-json-type="schematic_component" data-schematic-component-id="schematic_component_3"><rect class="component-overlay" x="525.0819236960726" y="139.69995956171633" width="18.51801914597172" height="74.07205558708344" fill="transparent"/><path d="M 534.3409332690585 213.77201514879977 L 534.3409332690585 195.25400300176258" stroke="rgb(132, 0, 0)" fill="none" stroke-width="1.399786921324px" stroke-linecap="round"/><path d="M 534.3409332690585 158.2179787076881 L 534.3409332690585 139.69995956171633" stroke="rgb(132, 0, 0)" fill="none" stroke-width="1.399786921324px" stroke-linecap="round"/><path d="M 525.0819236960726 176.73599785365997 L 525.0819236960726 158.21798570662278 L 543.5999428420444 158.21798570662278 L 543.5999428420444 195.2540169996319 L 525.0819236960726 195.2540169996319 L 525.0819236960726 176.73599785366008" stroke="rgb(132, 0, 0)" fill="none" stroke-width="1.399786921324px" stroke-linecap="round"/><text x="553.63116936645" y="166.7496170027465" fill="rgb(15, 15, 15)" font-family="sans-serif" text-anchor="start" dominant-baseline="middle" font-size="12.598082291915999px">R2</text><text x="553.63116936645" y="189.14620774393052" fill="rgb(15, 15, 15)" font-family="sans-serif" text-anchor="start" dominant-baseline="middle" font-size="12.598082291915999px">4.7k立</text></g><g data-circuit-json-type="schematic_component" data-schematic-component-id="schematic_component_4"><rect class="component-overlay" x="595.0712697622727" y="139.69995956171633" width="18.51801914597172" height="74.07205558708344" fill="transparent"/><path d="M 604.3302793352585 213.77201514879977 L 604.3302793352585 195.25400300176258" stroke="rgb(132, 0, 0)" fill="none" stroke-width="1.399786921324px" stroke-linecap="round"/><path d="M 604.3302793352585 158.2179787076881 L 604.3302793352585 139.69995956171633" stroke="rgb(132, 0, 0)" fill="none" stroke-width="1.399786921324px" stroke-linecap="round"/><path d="M 595.0712697622727 176.73599785365997 L 595.0712697622727 158.21798570662278 L 613.5892889082444 158.21798570662278 L 613.5892889082444 195.2540169996319 L 595.0712697622727 195.2540169996319 L 595.0712697622727 176.73599785366008" stroke="rgb(132, 0, 0)" fill="none" stroke-width="1.399786921324px" stroke-linecap="round"/><text x="623.62051543265" y="166.7496170027465" fill="rgb(15, 15, 15)" font-family="sans-serif" text-anchor="start" dominant-baseline="middle" font-size="12.598082291915999px">R3</text><text x="623.62051543265" y="189.14620774393052" fill="rgb(15, 15, 15)" font-family="sans-serif" text-anchor="start" dominant-baseline="middle" font-size="12.598082291915999px">4.7k立</text></g><g data-circuit-json-type="schematic_component" data-schematic-component-id="schematic_component_5"><rect class="component-overlay" x="553.0776621225527" y="335.6701285470764" width="18.51801914597172" height="74.07205558708341" fill="transparent"/><path d="M 562.3366716955386 409.7421841341598 L 562.3366716955386 391.22417198712265" stroke="rgb(132, 0, 0)" fill="none" stroke-width="1.399786921324px" stroke-linecap="round"/><path d="M 562.3366716955386 354.1881476930481 L 562.3366716955386 335.6701285470764" stroke="rgb(132, 0, 0)" fill="none" stroke-width="1.399786921324px" stroke-linecap="round"/><path d="M 553.0776621225527 372.70616683902 L 553.0776621225527 354.18815469198285 L 571.5956812685245 354.18815469198285 L 571.5956812685245 391.2241859849919 L 553.0776621225527 391.2241859849919 L 553.0776621225527 372.7061668390201" stroke="rgb(132, 0, 0)" fill="none" stroke-width="1.399786921324px" stroke-linecap="round"/><text x="581.6269077929301" y="362.71978598810654" fill="rgb(15, 15, 15)" font-family="sans-serif" text-anchor="start" dominant-baseline="middle" font-size="12.598082291915999px">R4</text><text x="581.6269077929301" y="385.11637672929055" fill="rgb(15, 15, 15)" font-family="sans-serif" text-anchor="start" dominant-baseline="middle" font-size="12.598082291915999px">10k立</text></g><g data-circuit-json-type="schematic_component" data-schematic-component-id="schematic_component_6"><rect class="component chip" x="845.83757805753" y="239.71351027676002" width="48.99254224634001" height="97.98508449268002" stroke-width="1.399786921324px" fill="rgb(255, 255, 194)" stroke="rgb(132, 0, 0)"/><rect class="component-overlay" x="845.83757805753" y="239.71351027676002" width="48.99254224634001" height="97.98508449268002" fill="transparent"/><text x="845.83757805753" y="346.79720975804605" fill="#006464" text-anchor="start" dominant-baseline="middle" font-family="sans-serif" font-size="12.598082291915999px" transform="rotate(0, 845.83757805753, 346.79720975804605)">M06SIP</text><text x="845.83757805753" y="230.61489528815403" fill="#006464" text-anchor="start" dominant-baseline="middle" font-family="sans-serif" font-size="12.598082291915999px" transform="rotate(0, 845.83757805753, 230.61489528815403)">JP1</text><line class="component-pin" x1="819.241626552374" y1="253.71137949" x2="845.83757805753" y2="253.71137949" stroke-width="1.399786921324px"/><g data-schematic-port-id="source_port_16"><rect x="816.442052709726" y="252.31159256867602" width="2.799573842648" height="2.799573842648" opacity="0"/></g><text class="pin-number" x="831.83970884429" y="252.31159256867602" style="font-family: sans-serif;" fill="rgb(169, 0, 0)" text-anchor="middle" dominant-baseline="auto" font-size="10.49840190993px" transform="">1</text><text class="pin-number" x="852.83651266415" y="253.71137949" style="font-family: sans-serif;" fill="rgb(169, 0, 0)" text-anchor="start" dominant-baseline="middle" font-size="10.49840190993px" transform="">GND</text><line class="component-pin" x1="819.241626552374" y1="267.70924870324" x2="845.83757805753" y2="267.70924870324" stroke-width="1.399786921324px"/><g data-schematic-port-id="source_port_17"><rect x="816.442052709726" y="266.309461781916" width="2.799573842648" height="2.799573842648" opacity="0"/></g><text class="pin-number" x="831.83970884429" y="266.309461781916" style="font-family: sans-serif;" fill="rgb(169, 0, 0)" text-anchor="middle" dominant-baseline="auto" font-size="10.49840190993px" transform="">2</text><text class="pin-number" x="852.83651266415" y="267.70924870324" style="font-family: sans-serif;" fill="rgb(169, 0, 0)" text-anchor="start" dominant-baseline="middle" font-size="10.49840190993px" transform="">VCC</text><line class="component-pin" x1="819.241626552374" y1="281.70711791648" x2="845.83757805753" y2="281.70711791648" stroke-width="1.399786921324px"/><g data-schematic-port-id="source_port_18"><rect x="816.442052709726" y="280.307330995156" width="2.799573842648" height="2.799573842648" opacity="0"/></g><text class="pin-number" x="831.83970884429" y="280.307330995156" style="font-family: sans-serif;" fill="rgb(169, 0, 0)" text-anchor="middle" dominant-baseline="auto" font-size="10.49840190993px" transform="">3</text><text class="pin-number" x="852.83651266415" y="281.70711791648" style="font-family: sans-serif;" fill="rgb(169, 0, 0)" text-anchor="start" dominant-baseline="middle" font-size="10.49840190993px" transform="">SDA</text><line class="component-pin" x1="819.241626552374" y1="295.70498712972005" x2="845.83757805753" y2="295.70498712972005" stroke-width="1.399786921324px"/><g data-schematic-port-id="source_port_19"><rect x="816.442052709726" y="294.30520020839606" width="2.799573842648" height="2.799573842648" opacity="0"/></g><text class="pin-number" x="831.83970884429" y="294.30520020839606" style="font-family: sans-serif;" fill="rgb(169, 0, 0)" text-anchor="middle" dominant-baseline="auto" font-size="10.49840190993px" transform="">4</text><text class="pin-number" x="852.83651266415" y="295.70498712972005" style="font-family: sans-serif;" fill="rgb(169, 0, 0)" text-anchor="start" dominant-baseline="middle" font-size="10.49840190993px" transform="">SCL</text><line class="component-pin" x1="819.241626552374" y1="309.70285634296005" x2="845.83757805753" y2="309.70285634296005" stroke-width="1.399786921324px"/><g data-schematic-port-id="source_port_20"><rect x="816.442052709726" y="308.30306942163605" width="2.799573842648" height="2.799573842648" opacity="0"/></g><text class="pin-number" x="831.83970884429" y="308.30306942163605" style="font-family: sans-serif;" fill="rgb(169, 0, 0)" text-anchor="middle" dominant-baseline="auto" font-size="10.49840190993px" transform="">5</text><text class="pin-number" x="852.83651266415" y="309.70285634296005" style="font-family: sans-serif;" fill="rgb(169, 0, 0)" text-anchor="start" dominant-baseline="middle" font-size="10.49840190993px" transform="">ALERT</text><line class="component-pin" x1="819.241626552374" y1="323.70072555620004" x2="845.83757805753" y2="323.70072555620004" stroke-width="1.399786921324px"/><g data-schematic-port-id="source_port_21"><rect x="816.442052709726" y="322.30093863487605" width="2.799573842648" height="2.799573842648" opacity="0"/></g><text class="pin-number" x="831.83970884429" y="322.30093863487605" style="font-family: sans-serif;" fill="rgb(169, 0, 0)" text-anchor="middle" dominant-baseline="auto" font-size="10.49840190993px" transform="">6</text><text class="pin-number" x="852.83651266415" y="323.70072555620004" style="font-family: sans-serif;" fill="rgb(169, 0, 0)" text-anchor="start" dominant-baseline="middle" font-size="10.49840190993px" transform="">ADD0</text></g><g data-circuit-json-type="schematic_component" data-schematic-component-id="schematic_component_7"><rect class="component-overlay" x="538.4499832803342" y="96.29283102628854" width="61.89164171675202" height="33.533176505349346" fill="transparent"/><path d="M 584.7873607017646 120.78082240981882 L 600.3416249970862 120.78082240981882" stroke="rgb(132, 0, 0)" fill="none" stroke-width="1.399786921324px" stroke-linecap="round"/><path d="M 538.4499832803342 120.9008331415186 L 553.9662153650036 120.9008331415186" stroke="rgb(132, 0, 0)" fill="none" stroke-width="1.399786921324px" stroke-linecap="round"/><path d="M 561.0141565117391 120.90028722461926 L 566.2362016004305 120.90028722461926" stroke="rgb(132, 0, 0)" fill="none" stroke-width="1.399786921324px" stroke-linecap="round"/><path d="M 569.5622213063191 111.84709532161024 L 569.5622213063191 96.29283102628854" stroke="rgb(132, 0, 0)" fill="none" stroke-width="1.399786921324px" stroke-linecap="round"/><path d="M 560.9681595135044 129.67924687187173 L 560.9681595135044 112.04286952042665" stroke="rgb(132, 0, 0)" fill="none" stroke-width="1.399786921324px" stroke-linecap="round"/><path d="M 566.3639181591319 129.37780975729916 L 566.3639181591319 112.33373124480853" stroke="rgb(132, 0, 0)" fill="none" stroke-width="1.399786921324px" stroke-linecap="round"/><path d="M 572.6298193497277 129.39728779230936 L 572.6298193497277 112.37366716567382" stroke="rgb(132, 0, 0)" fill="none" stroke-width="1.399786921324px" stroke-linecap="round"/><path d="M 566.5002714031381 129.42885298738528 L 572.5741358259974 129.42885298738528" stroke="rgb(132, 0, 0)" fill="none" stroke-width="1.399786921324px" stroke-linecap="round"/><path d="M 566.5138633341442 112.31085872651406 L 572.5489886539557 112.31085872651406" stroke="rgb(132, 0, 0)" fill="none" stroke-width="1.399786921324px" stroke-linecap="round"/><path d="M 577.8489248858842 129.68598684589787 L 577.8489248858842 112.04960949445282" stroke="rgb(132, 0, 0)" fill="none" stroke-width="1.399786921324px" stroke-linecap="round"/><path d="M 578.1740813898385 111.81436830338966 L 578.1740813898385 111.81436830338966 L 579.2677870688258 112.40415818578155 L 580.2516694304736 113.0155747185611 L 581.1294140655308 113.64637907163912 L 581.9047065647466 114.29433241492639 L 582.5812325188698 114.95719591833374 L 583.1626775186494 115.63273075177196 L 583.6527271548343 116.31869808515185 L 584.0550670181735 117.01285908838423 L 584.3733826994161 117.71297493137988 L 584.6113597893109 118.41680678404961 L 584.7726838786069 119.12211581630423 L 584.8610405580531 119.82666319805455 L 584.8801154183984 120.52821009921135 L 584.8335940503919 121.22451768968544 L 584.7251620447825 121.91334713938762 L 584.558504992319 122.59245961822872 L 584.3373084837505 123.2596162961195 L 584.0652581098259 123.9125783429708 L 583.7460394612943 124.5491069286934 L 583.3833381289046 125.16696322319811 L 582.9808397034058 125.76390839639573 L 582.5422297755466 126.33770361819708 L 582.0711939360764 126.88611005851294 L 581.5714177757438 127.40688888725411 L 581.046586885298 127.89780127433141 L 580.5003868554877 128.35660838965566 L 579.9365032770622 128.78107140313762 L 579.3586217407702 129.1689514846881 L 578.7704278373608 129.5180098042179 L 578.1756071575828 129.82600753163788 L 578.1756071575828 129.82600753163788" stroke="rgb(132, 0, 0)" fill="none" stroke-width="1.399786921324px" stroke-linecap="round"/><path d="M 560.6482242147666 111.80549365430849 L 560.6482242147666 111.80549365430849 L 559.5545185357794 112.39528353670038 L 558.5706361741316 113.00670006947993 L 557.6928915390743 113.63750442255794 L 556.9175990398586 114.28545776584522 L 556.2410730857354 114.94832126925257 L 555.6596280859558 115.6238561026908 L 555.1695784497708 116.30982343607069 L 554.7672385864316 117.00398443930307 L 554.4489229051891 117.70410028229871 L 554.2109458152943 118.40793213496845 L 554.0496217259982 119.11324116722307 L 553.9612650465521 119.81778854897338 L 553.9421901862067 120.51933545013017 L 553.9887115542133 121.21564304060428 L 554.0971435598227 121.90447249030646 L 554.2638006122862 122.58358496914755 L 554.4849971208547 123.25074164703834 L 554.7570474947793 123.90370369388964 L 555.0762661433108 124.54023227961224 L 555.4389674757006 125.15808857411695 L 555.8414659011994 125.75503374731457 L 556.2800758290585 126.32882896911592 L 556.7511116685288 126.87723540943176 L 557.2508878288613 127.39801423817295 L 557.7757187193072 127.88892662525025 L 558.3219187491175 128.34773374057448 L 558.8858023275429 128.77219675405644 L 559.463683863835 129.16007683560693 L 560.0518777672444 129.50913515513676 L 560.6466984470223 129.8171328825567 L 560.6466984470223 129.8171328825567" stroke="rgb(132, 0, 0)" fill="none" stroke-width="1.399786921324px" stroke-linecap="round"/><path d="M 572.6352715197862 120.90028722461926 L 577.8573166084775 120.90028722461926" stroke="rgb(132, 0, 0)" fill="none" stroke-width="1.399786921324px" stroke-linecap="round"/><text x="570.8239052499853" y="133.33480729109542" fill="rgb(15, 15, 15)" font-family="sans-serif" text-anchor="middle" dominant-baseline="hanging" font-size="12.598082291915999px">JP2</text></g><g data-circuit-json-type="schematic_component" data-schematic-component-id="schematic_component_8"><rect class="component-overlay" x="553.3478594925086" y="432.82568531231055" width="18.02051387732945" height="61.67440878443182" fill="transparent"/><path d="M 562.3231882480189 450.99905592144864 L 562.3231882480189 432.82568531231055" stroke="rgb(132, 0, 0)" fill="none" stroke-width="1.399786921324px" stroke-linecap="round"/><path d="M 562.4431989797188 494.5000940967424 L 562.4431989797188 476.4241626551978" stroke="rgb(132, 0, 0)" fill="none" stroke-width="1.399786921324px" stroke-linecap="round"/><path d="M 562.4426530628194 468.3700546694145 L 562.4426530628194 459.0521420627793" stroke="rgb(132, 0, 0)" fill="none" stroke-width="1.399786921324px" stroke-linecap="round"/><path d="M 571.2216127100719 468.5030554237441 L 553.5852353586268 468.5030554237441" stroke="rgb(132, 0, 0)" fill="none" stroke-width="1.399786921324px" stroke-linecap="round"/><path d="M 571.228352684098 458.9137591277372 L 553.591975332653 458.9137591277372" stroke="rgb(132, 0, 0)" fill="none" stroke-width="1.399786921324px" stroke-linecap="round"/><path d="M 553.3567341415899 458.58860262378283 L 553.3567341415899 458.58860262378283 L 553.9465240239817 457.4948969447956 L 554.5579405567613 456.5110145831478 L 555.1887449098393 455.6332699480905 L 555.8366982531265 454.8579774488748 L 556.4995617565339 454.1814514947516 L 557.1750965899721 453.60000649497204 L 557.861063923352 453.1099568587871 L 558.5552249265844 452.70761699544784 L 559.25534076958 452.3893013142053 L 559.9591726222498 452.1513242243105 L 560.6644816545044 451.99000013501444 L 561.3690290362547 451.90164345556826 L 562.0705759374115 451.88256859522295 L 562.7668835278856 451.9290899632295 L 563.4557129775878 452.037521968839 L 564.1348254564289 452.2041790213025 L 564.8019821343197 452.42537552987096 L 565.454944181171 452.6974259037955 L 566.0914727668936 453.0166445523271 L 566.7093290613983 453.37934588471677 L 567.3062742345959 453.78184431021566 L 567.8800694563972 454.22045423807475 L 568.428475896713 454.69149007754504 L 568.9492547254542 455.1912662378776 L 569.4401671125316 455.71609712832344 L 569.8989742278558 456.26229715813366 L 570.3234372413377 456.8261807365592 L 570.7113173228882 457.4040622728512 L 571.0603756424181 457.99225617626064 L 571.3683733698381 458.58707685603855 L 571.3683733698381 458.58707685603855" stroke="rgb(132, 0, 0)" fill="none" stroke-width="1.399786921324px" stroke-linecap="round"/><path d="M 553.3478594925086 468.822990722482 L 553.3478594925086 468.822990722482 L 553.9376493749005 469.9166964014692 L 554.5490659076801 470.900578763117 L 555.1798702607581 471.7783233981743 L 555.8278236040454 472.55361589739005 L 556.4906871074527 473.2301418515132 L 557.166221940891 473.8115868512928 L 557.8521892742708 474.30163648747777 L 558.5463502775033 474.703976350817 L 559.2464661204989 475.02229203205957 L 559.9502979731686 475.26026912195437 L 560.6556070054232 475.42159321125035 L 561.3601543871736 475.5099498906966 L 562.0617012883304 475.5290247510419 L 562.7580088788044 475.48250338303535 L 563.4468383285066 475.3740713774258 L 564.1259508073477 475.2074143249624 L 564.7931074852385 474.9862178163939 L 565.4460695320898 474.7141674424694 L 566.0825981178124 474.3949487939378 L 566.7004544123171 474.032247461548 L 567.2973995855148 473.62974903604913 L 567.8711948073161 473.1911391081901 L 568.4196012476319 472.7201032687198 L 568.9403800763731 472.2203271083872 L 569.4312924634504 471.69549621794135 L 569.8900995787747 471.1492961881312 L 570.3145625922566 470.5854126097056 L 570.7024426738071 470.0075310734136 L 571.051500993337 469.41933717000416 L 571.3594987207568 468.82451649022624 L 571.3594987207568 468.82451649022624" stroke="rgb(132, 0, 0)" fill="none" stroke-width="1.399786921324px" stroke-linecap="round"/><text x="574.9250849592955" y="462.23517353465485" fill="rgb(15, 15, 15)" font-family="sans-serif" text-anchor="start" dominant-baseline="middle" font-size="12.598082291915999px">JP3</text></g><g class="trace" data-circuit-json-type="schematic_trace" data-schematic-trace-id="schematic_trace_0"><path d="M 450.39777278350005 253.71137949 L 478.39351120998003 253.71137949 L 478.39351120998003 215.3075744025577 L 534.3658634741275 215.3075744025577" class="trace-invisible-hover-outline" stroke="rgb(0, 150, 0)" fill="none" stroke-width="11.198295370592px" stroke-linecap="round" opacity="0" stroke-linejoin="round"/><path d="M 450.39777278350005 253.71137949 L 478.39351120998003 253.71137949 L 478.39351120998003 215.3075744025577 L 534.3658634741275 215.3075744025577" stroke="rgb(0, 150, 0)" fill="none" stroke-width="1.399786921324px" stroke-linecap="round" stroke-linejoin="round"/></g><g class="trace" data-circuit-json-type="schematic_trace" data-schematic-trace-id="schematic_trace_1"><path d="M 450.39777278350005 267.70924870324 L 670.8642128920301 267.70924870324 L 670.8642128920301 215.3075744025577 L 604.3552095403275 215.3075744025577" class="trace-invisible-hover-outline" stroke="rgb(0, 150, 0)" fill="none" stroke-width="11.198295370592px" stroke-linecap="round" opacity="0" stroke-linejoin="round"/><path d="M 450.39777278350005 267.70924870324 L 670.8642128920301 267.70924870324 L 670.8642128920301 215.3075744025577 L 604.3552095403275 215.3075744025577" stroke="rgb(0, 150, 0)" fill="none" stroke-width="1.399786921324px" stroke-linecap="round" stroke-linejoin="round"/></g><g class="trace" data-circuit-json-type="schematic_trace" data-schematic-trace-id="schematic_trace_2"><path d="M 310.4190806511 323.70072555620004 L 240.4488661726472 323.70072555620004 L 240.4488661726472 334.2837655823279" class="trace-invisible-hover-outline" stroke="rgb(0, 150, 0)" fill="none" stroke-width="11.198295370592px" stroke-linecap="round" opacity="0" stroke-linejoin="round"/><path d="M 310.4190806511 323.70072555620004 L 240.4488661726472 323.70072555620004 L 240.4488661726472 334.2837655823279" stroke="rgb(0, 150, 0)" fill="none" stroke-width="1.399786921324px" stroke-linecap="round" stroke-linejoin="round"/></g><g class="trace" data-circuit-json-type="schematic_trace" data-schematic-trace-id="schematic_trace_3"><path class="trace-crossing-outline" d="M 464.37651740792745 251.08677901251752 Q 460.70207673945197 253.71137949 464.37651740792745 256.3359799674825" stroke="rgb(245, 241, 237)" fill="none" stroke-width="2.099680381986px" stroke-linecap="round"/><path d="M 464.37651740792745 251.08677901251752 Q 460.70207673945197 253.71137949 464.37651740792745 256.3359799674825" stroke="rgb(0, 150, 0)" fill="none" stroke-width="1.399786921324px" stroke-linecap="round"/><path class="trace-crossing-outline" d="M 464.37651740792745 265.0846482257575 Q 460.70207673945197 267.70924870324 464.37651740792745 270.3338491807225" stroke="rgb(245, 241, 237)" fill="none" stroke-width="2.099680381986px" stroke-linecap="round"/><path d="M 464.37651740792745 265.0846482257575 Q 460.70207673945197 267.70924870324 464.37651740792745 270.3338491807225" stroke="rgb(0, 150, 0)" fill="none" stroke-width="1.399786921324px" stroke-linecap="round"/><path d="M 464.37651740792745 215.3075744025577 L 464.37651740792745 251.08677901251752M 464.37651740792745 256.3359799674825 L 464.37651740792745 265.0846482257575M 464.37651740792745 270.3338491807225 L 464.37651740792745 309.70285634296005 L 450.39777278350005 309.70285634296005" class="trace-invisible-hover-outline" stroke="rgb(0, 150, 0)" fill="none" stroke-width="11.198295370592px" stroke-linecap="round" opacity="0" stroke-linejoin="round"/><path d="M 464.37651740792745 215.3075744025577 L 464.37651740792745 251.08677901251752M 464.37651740792745 256.3359799674825 L 464.37651740792745 265.0846482257575M 464.37651740792745 270.3338491807225 L 464.37651740792745 309.70285634296005 L 450.39777278350005 309.70285634296005" stroke="rgb(0, 150, 0)" fill="none" stroke-width="1.399786921324px" stroke-linecap="round" stroke-linejoin="round"/></g><g class="trace" data-circuit-json-type="schematic_trace" data-schematic-trace-id="schematic_trace_4"><path d="M 562.3998510782326 334.1087922171624 L 562.3998510782326 323.70072555620004 L 450.39777278350005 323.70072555620004" class="trace-invisible-hover-outline" stroke="rgb(0, 150, 0)" fill="none" stroke-width="11.198295370592px" stroke-linecap="round" opacity="0" stroke-linejoin="round"/><path d="M 562.3998510782326 334.1087922171624 L 562.3998510782326 323.70072555620004 L 450.39777278350005 323.70072555620004" stroke="rgb(0, 150, 0)" fill="none" stroke-width="1.399786921324px" stroke-linecap="round" stroke-linejoin="round"/></g><g class="trace" data-circuit-json-type="schematic_trace" data-schematic-trace-id="schematic_trace_5"><path d="M 562.3616019006074 411.27774338791767 L 562.3616019006074 421.87792730436445 L 562.3850798267454 421.87792730436445 L 562.3850798267454 432.47811122081123" class="trace-invisible-hover-outline" stroke="rgb(0, 150, 0)" fill="none" stroke-width="11.198295370592px" stroke-linecap="round" opacity="0" stroke-linejoin="round"/><path d="M 562.3616019006074 411.27774338791767 L 562.3616019006074 421.87792730436445 L 562.3850798267454 421.87792730436445 L 562.3850798267454 432.47811122081123" stroke="rgb(0, 150, 0)" fill="none" stroke-width="1.399786921324px" stroke-linecap="round" stroke-linejoin="round"/></g><g class="trace" data-circuit-json-type="schematic_trace" data-schematic-trace-id="schematic_trace_6"><path d="M 600.5809675638288 120.84271398854517 L 604.3934587179526 120.84271398854517 L 604.3934587179526 138.13862323180234" class="trace-invisible-hover-outline" stroke="rgb(0, 150, 0)" fill="none" stroke-width="11.198295370592px" stroke-linecap="round" opacity="0" stroke-linejoin="round"/><path d="M 600.5809675638288 120.84271398854517 L 604.3934587179526 120.84271398854517 L 604.3934587179526 138.13862323180234" stroke="rgb(0, 150, 0)" fill="none" stroke-width="1.399786921324px" stroke-linecap="round" stroke-linejoin="round"/></g><g class="trace" data-circuit-json-type="schematic_trace" data-schematic-trace-id="schematic_trace_7"><path d="M 538.1783546282512 120.83400731389455 L 534.4041126517526 120.83400731389455 L 534.4041126517526 138.13862323180234" class="trace-invisible-hover-outline" stroke="rgb(0, 150, 0)" fill="none" stroke-width="11.198295370592px" stroke-linecap="round" opacity="0" stroke-linejoin="round"/><path d="M 538.1783546282512 120.83400731389455 L 534.4041126517526 120.83400731389455 L 534.4041126517526 138.13862323180234" stroke="rgb(0, 150, 0)" fill="none" stroke-width="1.399786921324px" stroke-linecap="round" stroke-linejoin="round"/></g><g class="trace" data-circuit-json-type="schematic_trace" data-schematic-trace-id="schematic_trace_8"><path d="M 240.41060299715284 257.1262086771122 L 240.42973458490002 257.1262086771122 L 240.42973458490002 218.71670645690003" class="trace-invisible-hover-outline" stroke="rgb(0, 150, 0)" fill="none" stroke-width="11.198295370592px" stroke-linecap="round" opacity="0" stroke-linejoin="round"/><path d="M 240.41060299715284 257.1262086771122 L 240.42973458490002 257.1262086771122 L 240.42973458490002 218.71670645690003" stroke="rgb(0, 150, 0)" fill="none" stroke-width="1.399786921324px" stroke-linecap="round" stroke-linejoin="round"/></g><g class="trace" data-circuit-json-type="schematic_trace" data-schematic-trace-id="schematic_trace_9"><path d="M 310.4190806511 253.71137949 L 240.42973458490002 253.71137949 L 240.42973458490002 218.71670645690003" class="trace-invisible-hover-outline" stroke="rgb(0, 150, 0)" fill="none" stroke-width="11.198295370592px" stroke-linecap="round" opacity="0" stroke-linejoin="round"/><path d="M 310.4190806511 253.71137949 L 240.42973458490002 253.71137949 L 240.42973458490002 218.71670645690003" stroke="rgb(0, 150, 0)" fill="none" stroke-width="1.399786921324px" stroke-linecap="round" stroke-linejoin="round"/></g><g class="trace" data-circuit-json-type="schematic_trace" data-schematic-trace-id="schematic_trace_10"><path d="M 240.4488661726472 334.2837655823279 L 240.42973458490002 334.2837655823279 L 240.42973458490002 372.69326780254005" class="trace-invisible-hover-outline" stroke="rgb(0, 150, 0)" fill="none" stroke-width="11.198295370592px" stroke-linecap="round" opacity="0" stroke-linejoin="round"/><path d="M 240.4488661726472 334.2837655823279 L 240.42973458490002 334.2837655823279 L 240.42973458490002 372.69326780254005" stroke="rgb(0, 150, 0)" fill="none" stroke-width="1.399786921324px" stroke-linecap="round" stroke-linejoin="round"/></g><g class="trace" data-circuit-json-type="schematic_trace" data-schematic-trace-id="schematic_trace_11"><path d="M 562.3763731520947 494.88072415638885 L 562.38072648942 494.88072415638885 L 562.38072648942 526.66982914818" class="trace-invisible-hover-outline" stroke="rgb(0, 150, 0)" fill="none" stroke-width="11.198295370592px" stroke-linecap="round" opacity="0" stroke-linejoin="round"/><path d="M 562.3763731520947 494.88072415638885 L 562.38072648942 494.88072415638885 L 562.38072648942 526.66982914818" stroke="rgb(0, 150, 0)" fill="none" stroke-width="1.399786921324px" stroke-linecap="round" stroke-linejoin="round"/></g><g class="trace" data-circuit-json-type="schematic_trace" data-schematic-trace-id="schematic_trace_12"><path d="M 450.39777278350005 323.70072555620004 L 625.3711379490001 323.70072555620004" class="trace-invisible-hover-outline" stroke="rgb(0, 150, 0)" fill="none" stroke-width="11.198295370592px" stroke-linecap="round" opacity="0" stroke-linejoin="round"/><path d="M 450.39777278350005 323.70072555620004 L 625.3711379490001 323.70072555620004" stroke="rgb(0, 150, 0)" fill="none" stroke-width="1.399786921324px" stroke-linecap="round" stroke-linejoin="round"/></g><g class="trace" data-circuit-json-type="schematic_trace" data-schematic-trace-id="schematic_trace_13"><path d="M 450.39777278350005 309.70285634296005 L 625.3711379490001 309.70285634296005" class="trace-invisible-hover-outline" stroke="rgb(0, 150, 0)" fill="none" stroke-width="11.198295370592px" stroke-linecap="round" opacity="0" stroke-linejoin="round"/><path d="M 450.39777278350005 309.70285634296005 L 625.3711379490001 309.70285634296005" stroke="rgb(0, 150, 0)" fill="none" stroke-width="1.399786921324px" stroke-linecap="round" stroke-linejoin="round"/></g><g class="trace" data-circuit-json-type="schematic_trace" data-schematic-trace-id="schematic_trace_14"><path d="M 450.39777278350005 267.70924870324 L 625.3711379490001 267.70924870324 L 625.3711379490001 267.70924870324" class="trace-invisible-hover-outline" stroke="rgb(0, 150, 0)" fill="none" stroke-width="11.198295370592px" stroke-linecap="round" opacity="0" stroke-linejoin="round"/><path d="M 450.39777278350005 267.70924870324 L 625.3711379490001 267.70924870324 L 625.3711379490001 267.70924870324" stroke="rgb(0, 150, 0)" fill="none" stroke-width="1.399786921324px" stroke-linecap="round" stroke-linejoin="round"/></g><g class="trace" data-circuit-json-type="schematic_trace" data-schematic-trace-id="schematic_trace_15"><path d="M 450.39777278350005 253.71137949 L 625.3711379490001 253.71137949" class="trace-invisible-hover-outline" stroke="rgb(0, 150, 0)" fill="none" stroke-width="11.198295370592px" stroke-linecap="round" opacity="0" stroke-linejoin="round"/><path d="M 450.39777278350005 253.71137949 L 625.3711379490001 253.71137949" stroke="rgb(0, 150, 0)" fill="none" stroke-width="1.399786921324px" stroke-linecap="round" stroke-linejoin="round"/></g><g class="schematic-port-hover" data-schematic-port-id="source_port_0"><circle cx="450.39777278350005" cy="267.70924870324" r="2.799573842648" fill="red" opacity="0"/></g><g class="schematic-port-hover" data-schematic-port-id="source_port_1"><circle cx="310.4190806511" cy="323.70072555620004" r="2.799573842648" fill="red" opacity="0"/></g><g class="schematic-port-hover" data-schematic-port-id="source_port_2"><circle cx="450.39777278350005" cy="309.70285634296005" r="2.799573842648" fill="red" opacity="0"/></g><g class="schematic-port-hover" data-schematic-port-id="source_port_3"><circle cx="450.39777278350005" cy="323.70072555620004" r="2.799573842648" fill="red" opacity="0"/></g><g class="schematic-port-hover" data-schematic-port-id="source_port_4"><circle cx="310.4190806511" cy="253.71137949" r="2.799573842648" fill="red" opacity="0"/></g><g class="schematic-port-hover" data-schematic-port-id="source_port_5"><circle cx="450.39777278350005" cy="253.71137949" r="2.799573842648" fill="red" opacity="0"/></g><g class="schematic-port-hover" data-schematic-port-id="source_port_6"><circle cx="240.41060299715284" cy="257.1262086771122" r="2.799573842648" fill="red" opacity="0"/></g><g class="schematic-port-hover" data-schematic-port-id="source_port_7"><circle cx="240.4488661726472" cy="334.2837655823279" r="2.799573842648" fill="red" opacity="0"/></g><g class="schematic-port-hover" data-schematic-port-id="source_port_8"><circle cx="464.37651740792745" cy="215.3075744025577" r="2.799573842648" fill="red" opacity="0"/></g><g class="schematic-port-hover" data-schematic-port-id="source_port_9"><circle cx="464.41476658555257" cy="138.13862323180234" r="2.799573842648" fill="red" opacity="0"/></g><g class="schematic-port-hover" data-schematic-port-id="source_port_10"><circle cx="534.3658634741275" cy="215.3075744025577" r="2.799573842648" fill="red" opacity="0"/></g><g class="schematic-port-hover" data-schematic-port-id="source_port_11"><circle cx="534.4041126517526" cy="138.13862323180234" r="2.799573842648" fill="red" opacity="0"/></g><g class="schematic-port-hover" data-schematic-port-id="source_port_12"><circle cx="604.3552095403275" cy="215.3075744025577" r="2.799573842648" fill="red" opacity="0"/></g><g class="schematic-port-hover" data-schematic-port-id="source_port_13"><circle cx="604.3934587179526" cy="138.13862323180234" r="2.799573842648" fill="red" opacity="0"/></g><g class="schematic-port-hover" data-schematic-port-id="source_port_14"><circle cx="562.3616019006074" cy="411.27774338791767" r="2.799573842648" fill="red" opacity="0"/></g><g class="schematic-port-hover" data-schematic-port-id="source_port_15"><circle cx="562.3998510782326" cy="334.1087922171624" r="2.799573842648" fill="red" opacity="0"/></g><g class="schematic-port-hover" data-schematic-port-id="source_port_16"><circle cx="817.84183963105" cy="253.71137949" r="2.799573842648" fill="red" opacity="0"/></g><g class="schematic-port-hover" data-schematic-port-id="source_port_17"><circle cx="817.84183963105" cy="267.70924870324" r="2.799573842648" fill="red" opacity="0"/></g><g class="schematic-port-hover" data-schematic-port-id="source_port_18"><circle cx="817.84183963105" cy="281.70711791648" r="2.799573842648" fill="red" opacity="0"/></g><g class="schematic-port-hover" data-schematic-port-id="source_port_19"><circle cx="817.84183963105" cy="295.70498712972005" r="2.799573842648" fill="red" opacity="0"/></g><g class="schematic-port-hover" data-schematic-port-id="source_port_20"><circle cx="817.84183963105" cy="309.70285634296005" r="2.799573842648" fill="red" opacity="0"/></g><g class="schematic-port-hover" data-schematic-port-id="source_port_21"><circle cx="817.84183963105" cy="323.70072555620004" r="2.799573842648" fill="red" opacity="0"/></g><g class="schematic-port-hover" data-schematic-port-id="source_port_22"><circle cx="600.5809675638288" cy="120.84271398854517" r="2.799573842648" fill="red" opacity="0"/></g><g class="schematic-port-hover" data-schematic-port-id="source_port_23"><circle cx="569.62411988398" cy="96.0534464659383" r="2.799573842648" fill="red" opacity="0"/></g><g class="schematic-port-hover" data-schematic-port-id="source_port_24"><circle cx="538.1783546282512" cy="120.83400731389455" r="2.799573842648" fill="red" opacity="0"/></g><g class="schematic-port-hover" data-schematic-port-id="source_port_25"><circle cx="562.3850798267454" cy="432.47811122081123" r="2.799573842648" fill="red" opacity="0"/></g><g class="schematic-port-hover" data-schematic-port-id="source_port_26"><circle cx="562.3763731520947" cy="494.88072415638885" r="2.799573842648" fill="red" opacity="0"/></g><rect class="component-overlay" x="233.89374450783492" y="189.00564114129114" width="12.967591044472357" height="28.66496955463046" fill="transparent"/><path d="M 240.27510012370152 189.00564114129114 L 233.89374450783492 202.37855448670226" stroke="rgb(132, 0, 0)" fill="none" stroke-width="1.399786921324px" stroke-linecap="round"/><path d="M 240.47997993644094 189.01261208015933 L 246.86133555230728 202.38556042024348" stroke="rgb(132, 0, 0)" fill="none" stroke-width="1.399786921324px" stroke-linecap="round"/><path d="M 240.34894588273585 189.35850642735312 L 240.34894588273585 217.6706106959216" stroke="rgb(132, 0, 0)" fill="none" stroke-width="1.399786921324px" stroke-linecap="round"/><text x="240.03589053671624" y="184.90418147459658" fill="rgb(15, 15, 15)" font-family="sans-serif" text-anchor="middle" dominant-baseline="ideographic" font-size="12.598082291915999px">VCC</text><rect class="component-overlay" x="224.3153875466181" y="372.6174343460773" width="31.44770396061483" height="33.834907575175464" fill="transparent"/><path d="M 240.35371215720292 372.6174343460773 L 240.35371215720292 395.6882604536554" stroke="rgb(132, 0, 0)" fill="none" stroke-width="1.399786921324px" stroke-linecap="round"/><path d="M 224.3153875466181 395.68596480310447 L 255.76309150723293 395.68596480310447" stroke="rgb(132, 0, 0)" fill="none" stroke-width="1.399786921324px" stroke-linecap="round"/><path d="M 228.24635316629548 401.0691533621786 L 251.83212588755555 401.0691533621786" stroke="rgb(132, 0, 0)" fill="none" stroke-width="1.399786921324px" stroke-linecap="round"/><path d="M 236.10827740671553 406.45234192125275 L 243.9702016471356 406.45234192125275" stroke="rgb(132, 0, 0)" fill="none" stroke-width="1.399786921324px" stroke-linecap="round"/><text x="238.84647759179805" y="414.65025701639814" fill="rgb(15, 15, 15)" font-family="sans-serif" text-anchor="middle" dominant-baseline="hanging" font-size="12.598082291915999px">GND</text><rect class="component-overlay" x="546.2663794511382" y="526.5939956917173" width="31.44770396061483" height="33.83490757517541" fill="transparent"/><path d="M 562.304704061723 526.5939956917173 L 562.304704061723 549.6648217992954" stroke="rgb(132, 0, 0)" fill="none" stroke-width="1.399786921324px" stroke-linecap="round"/><path d="M 546.2663794511382 549.6625261487444 L 577.714083411753 549.6625261487444" stroke="rgb(132, 0, 0)" fill="none" stroke-width="1.399786921324px" stroke-linecap="round"/><path d="M 550.1973450708155 555.0457147078187 L 573.7831177920756 555.0457147078187" stroke="rgb(132, 0, 0)" fill="none" stroke-width="1.399786921324px" stroke-linecap="round"/><path d="M 558.0592693112355 560.4289032668927 L 565.9211935516556 560.4289032668927" stroke="rgb(132, 0, 0)" fill="none" stroke-width="1.399786921324px" stroke-linecap="round"/><text x="560.7974694963181" y="568.6268183620382" fill="rgb(15, 15, 15)" font-family="sans-serif" text-anchor="middle" dominant-baseline="hanging" font-size="12.598082291915999px">GND</text><path class="net-label" d="
    M 625.3711379490001,323.70072555620004
    L 629.1505626365748,316.14187618105046
    L 669.1284771095883,316.14187618105046
    L 669.1284771095883,331.2595749313496
    L 629.1505626365748,331.2595749313496
    Z
  " fill="rgba(255, 255, 255, 0.6)" stroke="rgb(132, 0, 0)" stroke-width="1.399786921324px"/><text class="net-label-text" x="631.670179094958" y="323.70072555620004" fill="rgb(132, 0, 0)" text-anchor="start" dominant-baseline="central" font-family="sans-serif" font-variant-numeric="tabular-nums" font-size="12.598082291915999px" transform="">ADD0</text><path class="net-label" d="
    M 625.3711379490001,309.70285634296005
    L 629.1505626365748,302.14400696781047
    L 676.4167010132819,302.14400696781047
    L 676.4167010132819,317.2617057181096
    L 629.1505626365748,317.2617057181096
    Z
  " fill="rgba(255, 255, 255, 0.6)" stroke="rgb(132, 0, 0)" stroke-width="1.399786921324px"/><text class="net-label-text" x="631.670179094958" y="309.70285634296005" fill="rgb(132, 0, 0)" text-anchor="start" dominant-baseline="central" font-family="sans-serif" font-variant-numeric="tabular-nums" font-size="12.598082291915999px" transform="">ALERT</text><path class="net-label" d="
    M 625.3711379490001,267.70924870324
    L 629.1505626365748,260.15039932809043
    L 660.4404662845707,260.15039932809043
    L 660.4404662845707,275.2680980783896
    L 629.1505626365748,275.2680980783896
    Z
  " fill="rgba(255, 255, 255, 0.6)" stroke="rgb(132, 0, 0)" stroke-width="1.399786921324px"/><text class="net-label-text" x="631.670179094958" y="267.70924870324" fill="rgb(132, 0, 0)" text-anchor="start" dominant-baseline="central" font-family="sans-serif" font-variant-numeric="tabular-nums" font-size="12.598082291915999px" transform="">SCL</text><path class="net-label" d="
    M 625.3711379490001,253.71137949
    L 629.1505626365748,246.1525301148504
    L 661.8402532058947,246.1525301148504
    L 661.8402532058947,261.2702288651496
    L 629.1505626365748,261.2702288651496
    Z
  " fill="rgba(255, 255, 255, 0.6)" stroke="rgb(132, 0, 0)" stroke-width="1.399786921324px"/><text class="net-label-text" x="631.670179094958" y="253.71137949" fill="rgb(132, 0, 0)" text-anchor="start" dominant-baseline="central" font-family="sans-serif" font-variant-numeric="tabular-nums" font-size="12.598082291915999px" transform="">SDA</text><rect class="component-overlay" x="457.8787765084874" y="108.42755791619348" width="12.967591044472385" height="28.66496955463046" fill="transparent"/><path d="M 464.260132124354 108.42755791619348 L 457.8787765084874 121.80047126160459" stroke="rgb(132, 0, 0)" fill="none" stroke-width="1.399786921324px" stroke-linecap="round"/><path d="M 464.46501193709344 108.43452885506167 L 470.8463675529598 121.80747719514582" stroke="rgb(132, 0, 0)" fill="none" stroke-width="1.399786921324px" stroke-linecap="round"/><path d="M 464.33397788338834 108.78042320225546 L 464.33397788338834 137.09252747082394" stroke="rgb(132, 0, 0)" fill="none" stroke-width="1.399786921324px" stroke-linecap="round"/><text x="464.02092253736873" y="104.32609824949894" fill="rgb(15, 15, 15)" font-family="sans-serif" text-anchor="middle" dominant-baseline="ideographic" font-size="12.598082291915999px">VCC</text><path class="net-label" d="
    M 817.84183963105,253.71137949
    L 814.0624149434752,261.2702288651496
    L 779.50634181239,261.2702288651496
    L 779.50634181239,246.1525301148504
    L 814.0624149434752,246.1525301148504
    Z
  " fill="rgba(255, 255, 255, 0.6)" stroke="rgb(132, 0, 0)" stroke-width="1.399786921324px"/><text class="net-label-text" x="811.542798485092" y="253.71137949" fill="rgb(132, 0, 0)" text-anchor="end" dominant-baseline="central" font-family="sans-serif" font-variant-numeric="tabular-nums" font-size="12.598082291915999px" transform="">GND</text><path class="net-label" d="
    M 817.84183963105,267.70924870324
    L 814.0624149434752,275.2680980783896
    L 780.906128733714,275.2680980783896
    L 780.906128733714,260.15039932809043
    L 814.0624149434752,260.15039932809043
    Z
  " fill="rgba(255, 255, 255, 0.6)" stroke="rgb(132, 0, 0)" stroke-width="1.399786921324px"/><text class="net-label-text" x="811.542798485092" y="267.70924870324" fill="rgb(132, 0, 0)" text-anchor="end" dominant-baseline="central" font-family="sans-serif" font-variant-numeric="tabular-nums" font-size="12.598082291915999px" transform="">VCC</text><path class="net-label" d="
    M 817.84183963105,281.70711791648
    L 814.0624149434752,289.2659672916296
    L 781.3727243741554,289.2659672916296
    L 781.3727243741554,274.1482685413304
    L 814.0624149434752,274.1482685413304
    Z
  " fill="rgba(255, 255, 255, 0.6)" stroke="rgb(132, 0, 0)" stroke-width="1.399786921324px"/><text class="net-label-text" x="811.542798485092" y="281.70711791648" fill="rgb(132, 0, 0)" text-anchor="end" dominant-baseline="central" font-family="sans-serif" font-variant-numeric="tabular-nums" font-size="12.598082291915999px" transform="">SDA</text><path class="net-label" d="
    M 817.84183963105,295.70498712972005
    L 814.0624149434752,303.26383650486963
    L 782.7725112954794,303.26383650486963
    L 782.7725112954794,288.1461377545705
    L 814.0624149434752,288.1461377545705
    Z
  " fill="rgba(255, 255, 255, 0.6)" stroke="rgb(132, 0, 0)" stroke-width="1.399786921324px"/><text class="net-label-text" x="811.542798485092" y="295.70498712972005" fill="rgb(132, 0, 0)" text-anchor="end" dominant-baseline="central" font-family="sans-serif" font-variant-numeric="tabular-nums" font-size="12.598082291915999px" transform="">SCL</text><path class="net-label" d="
    M 817.84183963105,309.70285634296005
    L 814.0624149434752,317.2617057181096
    L 766.7962765667681,317.2617057181096
    L 766.7962765667681,302.14400696781047
    L 814.0624149434752,302.14400696781047
    Z
  " fill="rgba(255, 255, 255, 0.6)" stroke="rgb(132, 0, 0)" stroke-width="1.399786921324px"/><text class="net-label-text" x="811.542798485092" y="309.70285634296005" fill="rgb(132, 0, 0)" text-anchor="end" dominant-baseline="central" font-family="sans-serif" font-variant-numeric="tabular-nums" font-size="12.598082291915999px" transform="">ALERT</text><path class="net-label" d="
    M 817.84183963105,323.70072555620004
    L 814.0624149434752,331.2595749313496
    L 774.0845004704618,331.2595749313496
    L 774.0845004704618,316.14187618105046
    L 814.0624149434752,316.14187618105046
    Z
  " fill="rgba(255, 255, 255, 0.6)" stroke="rgb(132, 0, 0)" stroke-width="1.399786921324px"/><text class="net-label-text" x="811.542798485092" y="323.70072555620004" fill="rgb(132, 0, 0)" text-anchor="end" dominant-baseline="central" font-family="sans-serif" font-variant-numeric="tabular-nums" font-size="12.598082291915999px" transform="">ADD0</text><rect class="component-overlay" x="563.0881298069149" y="66.3423811503294" width="12.967591044472329" height="28.664969554630446" fill="transparent"/><path d="M 569.4694854227815 66.3423811503294 L 563.0881298069149 79.71529449574051" stroke="rgb(132, 0, 0)" fill="none" stroke-width="1.399786921324px" stroke-linecap="round"/><path d="M 569.674365235521 66.3493520891976 L 576.0557208513873 79.72230042928174" stroke="rgb(132, 0, 0)" fill="none" stroke-width="1.399786921324px" stroke-linecap="round"/><path d="M 569.5433311818159 66.69524643639139 L 569.5433311818159 95.00735070495985" stroke="rgb(132, 0, 0)" fill="none" stroke-width="1.399786921324px" stroke-linecap="round"/><text x="569.2302758357963" y="62.240921483634864" fill="rgb(15, 15, 15)" font-family="sans-serif" text-anchor="middle" dominant-baseline="ideographic" font-size="12.598082291915999px">VCC</text><text x="282.42334222462" y="43.74334129140004" fill="gray" text-anchor="middle" dominant-baseline="middle" font-family="sans-serif" font-size="17.49733651655px" transform="rotate(0, 282.42334222462, 43.74334129140004)">VCC: 1.4V to 3.6V</text><text x="569.3796610960401" y="232.71457567014002" fill="gray" text-anchor="middle" dominant-baseline="middle" font-family="sans-serif" font-size="10.49840190993px" transform="rotate(-90, 569.3796610960401, 232.71457567014002)">JUMPER-PAD-3NC_BY_TRACE</text><text x="660.3658109821" y="113.73268735760001" fill="gray" text-anchor="middle" dominant-baseline="middle" font-family="sans-serif" font-size="10.49840190993px" transform="rotate(0, 660.3658109821, 113.73268735760001)">I2C</text><text x="660.3658109821" y="127.73055657084004" fill="gray" text-anchor="middle" dominant-baseline="middle" font-family="sans-serif" font-size="10.49840190993px" transform="rotate(0, 660.3658109821, 127.73055657084004)">pull-up</text><text x="800.3445031145" y="393.6900716224" fill="gray" text-anchor="middle" dominant-baseline="middle" font-family="sans-serif" font-size="10.49840190993px" transform="rotate(0, 800.3445031145, 393.6900716224)">Default address : GND - 0x48</text><text x="835.3391761476" y="428.6847446555" fill="gray" text-anchor="middle" dominant-baseline="middle" font-family="sans-serif" font-size="10.49840190993px" transform="rotate(0, 835.3391761476, 428.6847446555)">The address can be changed using an external</text><text x="835.3391761476" y="442.6826138687401" fill="gray" text-anchor="middle" dominant-baseline="middle" font-family="sans-serif" font-size="10.49840190993px" transform="rotate(0, 835.3391761476, 442.6826138687401)">jumper between ADD0 and the following pins:</text><text x="758.35089547478" y="456.68048308198" fill="gray" text-anchor="middle" dominant-baseline="middle" font-family="sans-serif" font-size="10.49840190993px" transform="rotate(0, 758.35089547478, 456.68048308198)">VCC - 0x49</text><text x="758.35089547478" y="470.67835229522007" fill="gray" text-anchor="middle" dominant-baseline="middle" font-family="sans-serif" font-size="10.49840190993px" transform="rotate(0, 758.35089547478, 470.67835229522007)">SDA - 0x4A</text><text x="758.35089547478" y="484.67622150846" fill="gray" text-anchor="middle" dominant-baseline="middle" font-family="sans-serif" font-size="10.49840190993px" transform="rotate(0, 758.35089547478, 484.67622150846)">SCL - 0x4B</text><text x="646.36794176886" y="484.67622150846" fill="gray" text-anchor="middle" dominant-baseline="middle" font-family="sans-serif" font-size="10.49840190993px" transform="rotate(0, 646.36794176886, 484.67622150846)">ADD0</text><text x="646.36794176886" y="498.67409072170005" fill="gray" text-anchor="middle" dominant-baseline="middle" font-family="sans-serif" font-size="10.49840190993px" transform="rotate(0, 646.36794176886, 498.67409072170005)">pull-down</text></svg>