<svg xmlns="http://www.w3.org/2000/svg" width="1200" height="600" style="background-color: rgb(245, 241, 237)" data-real-to-screen-transform="matrix(70.3586728791,0,0,-70.3586728791,731.2470683886,353.7446449232)" data-software-used-string="@tscircuit/core@0.0.783"><style>
              .boundary { fill: rgb(245, 241, 237); }
              .schematic-boundary { fill: none; stroke: #fff; }
              .component { fill: none; stroke: rgb(132, 0, 0); }
              .chip { fill: rgb(255, 255, 194); stroke: rgb(132, 0, 0); }
              .component-pin { fill: none; stroke: rgb(132, 0, 0); }
              /* Basic per-trace hover fallback */
              .trace:hover {
                filter: invert(1);
              }
              .trace:hover .trace-crossing-outline {
                opacity: 0;
              }
              .trace:hover .trace-junction {
                filter: invert(1);
              }
              /* Net-hover highlighting: when a trace or its overlays are hovered,
                 invert color for all traces (base + overlays) sharing the same
                 subcircuit connectivity key. Also hide crossing outline during hover. */
              svg:has(:is(g.trace[data-subcircuit-connectivity-map-key="unnamedsubcircuit11834_connectivity_net1"], g.trace-overlays[data-subcircuit-connectivity-map-key="unnamedsubcircuit11834_connectivity_net1"]):hover) :is(g.trace[data-subcircuit-connectivity-map-key="unnamedsubcircuit11834_connectivity_net1"], g.trace-overlays[data-subcircuit-connectivity-map-key="unnamedsubcircuit11834_connectivity_net1"]) { filter: invert(1); }
svg:has(:is(g.trace[data-subcircuit-connectivity-map-key="unnamedsubcircuit11834_connectivity_net1"], g.trace-overlays[data-subcircuit-connectivity-map-key="unnamedsubcircuit11834_connectivity_net1"]):hover) g.trace-overlays[data-subcircuit-connectivity-map-key="unnamedsubcircuit11834_connectivity_net1"] .trace-crossing-outline { opacity: 0; }
svg:has(:is(g.trace[data-subcircuit-connectivity-map-key="unnamedsubcircuit11834_connectivity_net0"], g.trace-overlays[data-subcircuit-connectivity-map-key="unnamedsubcircuit11834_connectivity_net0"]):hover) :is(g.trace[data-subcircuit-connectivity-map-key="unnamedsubcircuit11834_connectivity_net0"], g.trace-overlays[data-subcircuit-connectivity-map-key="unnamedsubcircuit11834_connectivity_net0"]) { filter: invert(1); }
svg:has(:is(g.trace[data-subcircuit-connectivity-map-key="unnamedsubcircuit11834_connectivity_net0"], g.trace-overlays[data-subcircuit-connectivity-map-key="unnamedsubcircuit11834_connectivity_net0"]):hover) g.trace-overlays[data-subcircuit-connectivity-map-key="unnamedsubcircuit11834_connectivity_net0"] .trace-crossing-outline { opacity: 0; }
svg:has(:is(g.trace[data-subcircuit-connectivity-map-key="unnamedsubcircuit11834_connectivity_net3"], g.trace-overlays[data-subcircuit-connectivity-map-key="unnamedsubcircuit11834_connectivity_net3"]):hover) :is(g.trace[data-subcircuit-connectivity-map-key="unnamedsubcircuit11834_connectivity_net3"], g.trace-overlays[data-subcircuit-connectivity-map-key="unnamedsubcircuit11834_connectivity_net3"]) { filter: invert(1); }
svg:has(:is(g.trace[data-subcircuit-connectivity-map-key="unnamedsubcircuit11834_connectivity_net3"], g.trace-overlays[data-subcircuit-connectivity-map-key="unnamedsubcircuit11834_connectivity_net3"]):hover) g.trace-overlays[data-subcircuit-connectivity-map-key="unnamedsubcircuit11834_connectivity_net3"] .trace-crossing-outline { opacity: 0; }
svg:has(:is(g.trace[data-subcircuit-connectivity-map-key="unnamedsubcircuit11834_connectivity_net2"], g.trace-overlays[data-subcircuit-connectivity-map-key="unnamedsubcircuit11834_connectivity_net2"]):hover) :is(g.trace[data-subcircuit-connectivity-map-key="unnamedsubcircuit11834_connectivity_net2"], g.trace-overlays[data-subcircuit-connectivity-map-key="unnamedsubcircuit11834_connectivity_net2"]) { filter: invert(1); }
svg:has(:is(g.trace[data-subcircuit-connectivity-map-key="unnamedsubcircuit11834_connectivity_net2"], g.trace-overlays[data-subcircuit-connectivity-map-key="unnamedsubcircuit11834_connectivity_net2"]):hover) g.trace-overlays[data-subcircuit-connectivity-map-key="unnamedsubcircuit11834_connectivity_net2"] .trace-crossing-outline { opacity: 0; }
svg:has(:is(g.trace[data-subcircuit-connectivity-map-key="unnamedsubcircuit11834_connectivity_net5"], g.trace-overlays[data-subcircuit-connectivity-map-key="unnamedsubcircuit11834_connectivity_net5"]):hover) :is(g.trace[data-subcircuit-connectivity-map-key="unnamedsubcircuit11834_connectivity_net5"], g.trace-overlays[data-subcircuit-connectivity-map-key="unnamedsubcircuit11834_connectivity_net5"]) { filter: invert(1); }
svg:has(:is(g.trace[data-subcircuit-connectivity-map-key="unnamedsubcircuit11834_connectivity_net5"], g.trace-overlays[data-subcircuit-connectivity-map-key="unnamedsubcircuit11834_connectivity_net5"]):hover) g.trace-overlays[data-subcircuit-connectivity-map-key="unnamedsubcircuit11834_connectivity_net5"] .trace-crossing-outline { opacity: 0; }
svg:has(:is(g.trace[data-subcircuit-connectivity-map-key="unnamedsubcircuit11834_connectivity_net4"], g.trace-overlays[data-subcircuit-connectivity-map-key="unnamedsubcircuit11834_connectivity_net4"]):hover) :is(g.trace[data-subcircuit-connectivity-map-key="unnamedsubcircuit11834_connectivity_net4"], g.trace-overlays[data-subcircuit-connectivity-map-key="unnamedsubcircuit11834_connectivity_net4"]) { filter: invert(1); }
svg:has(:is(g.trace[data-subcircuit-connectivity-map-key="unnamedsubcircuit11834_connectivity_net4"], g.trace-overlays[data-subcircuit-connectivity-map-key="unnamedsubcircuit11834_connectivity_net4"]):hover) g.trace-overlays[data-subcircuit-connectivity-map-key="unnamedsubcircuit11834_connectivity_net4"] .trace-crossing-outline { opacity: 0; }
svg:has(:is(g.trace[data-subcircuit-connectivity-map-key="unnamedsubcircuit11834_connectivity_net6"], g.trace-overlays[data-subcircuit-connectivity-map-key="unnamedsubcircuit11834_connectivity_net6"]):hover) :is(g.trace[data-subcircuit-connectivity-map-key="unnamedsubcircuit11834_connectivity_net6"], g.trace-overlays[data-subcircuit-connectivity-map-key="unnamedsubcircuit11834_connectivity_net6"]) { filter: invert(1); }
svg:has(:is(g.trace[data-subcircuit-connectivity-map-key="unnamedsubcircuit11834_connectivity_net6"], g.trace-overlays[data-subcircuit-connectivity-map-key="unnamedsubcircuit11834_connectivity_net6"]):hover) g.trace-overlays[data-subcircuit-connectivity-map-key="unnamedsubcircuit11834_connectivity_net6"] .trace-crossing-outline { opacity: 0; }
svg:has(:is(g.trace[data-subcircuit-connectivity-map-key="undefined"], g.trace-overlays[data-subcircuit-connectivity-map-key="undefined"]):hover) :is(g.trace[data-subcircuit-connectivity-map-key="undefined"], g.trace-overlays[data-subcircuit-connectivity-map-key="undefined"]) { filter: invert(1); }
svg:has(:is(g.trace[data-subcircuit-connectivity-map-key="undefined"], g.trace-overlays[data-subcircuit-connectivity-map-key="undefined"]):hover) g.trace-overlays[data-subcircuit-connectivity-map-key="undefined"] .trace-crossing-outline { opacity: 0; }
              .text { font-family: sans-serif; fill: rgb(0, 150, 0); }
              .pin-number { fill: rgb(169, 0, 0); }
              .port-label { fill: rgb(0, 100, 100); }
              .component-name { fill: rgb(0, 100, 100); }
            </style><rect class="boundary" x="0" y="0" width="1200" height="600"/><g class="trace" data-layer="base" data-circuit-json-type="schematic_trace" data-schematic-trace-id="schematic_trace_0" data-subcircuit-connectivity-map-key="unnamedsubcircuit11834_connectivity_net1"><path d="M 731.2376362298519 99.8503008422997 L 731.2470683886 72.30995340679999" class="trace-invisible-hover-outline" stroke="rgb(0, 150, 0)" fill="none" stroke-width="11.257387660656px" stroke-linecap="round" opacity="0" stroke-linejoin="round"/><path d="M 731.2376362298519 99.8503008422997 L 731.2470683886 72.30995340679999" stroke="rgb(0, 150, 0)" fill="none" stroke-width="1.407173457582px" stroke-linecap="round" stroke-linejoin="round"/></g><g class="trace" data-layer="base" data-circuit-json-type="schematic_trace" data-schematic-trace-id="schematic_trace_1" data-subcircuit-connectivity-map-key="unnamedsubcircuit11834_connectivity_net1"><path d="M 660.8883955095 99.74983582964896 L 660.8883955095 92.71396854173895 L 660.8883955095 86.02989461822449 L 731.2470683886 86.02989461822449 L 731.2470683886 79.34582069470997 L 731.2470683886 72.30995340679999" class="trace-invisible-hover-outline" stroke="rgb(0, 150, 0)" fill="none" stroke-width="11.257387660656px" stroke-linecap="round" opacity="0" stroke-linejoin="round"/><path d="M 660.8883955095 99.74983582964896 L 660.8883955095 92.71396854173895 L 660.8883955095 86.02989461822449 L 731.2470683886 86.02989461822449 L 731.2470683886 79.34582069470997 L 731.2470683886 72.30995340679999" stroke="rgb(0, 150, 0)" fill="none" stroke-width="1.407173457582px" stroke-linecap="round" stroke-linejoin="round"/></g><g class="trace" data-layer="base" data-circuit-json-type="schematic_trace" data-schematic-trace-id="schematic_trace_2" data-subcircuit-connectivity-map-key="unnamedsubcircuit11834_connectivity_net1"><path d="M 816.4733208242852 99.8503008422997 L 816.4733208242852 91.32767559873116 L 816.4733208242852 86.08012712454985 L 731.2470683886 86.08012712454985 L 731.2470683886 80.83257865036853 L 731.2470683886 72.30995340679999" class="trace-invisible-hover-outline" stroke="rgb(0, 150, 0)" fill="none" stroke-width="11.257387660656px" stroke-linecap="round" opacity="0" stroke-linejoin="round"/><path d="M 816.4733208242852 99.8503008422997 L 816.4733208242852 91.32767559873116 L 816.4733208242852 86.08012712454985 L 731.2470683886 86.08012712454985 L 731.2470683886 80.83257865036853 L 731.2470683886 72.30995340679999" stroke="rgb(0, 150, 0)" fill="none" stroke-width="1.407173457582px" stroke-linecap="round" stroke-linejoin="round"/></g><g class="trace" data-layer="base" data-circuit-json-type="schematic_trace" data-schematic-trace-id="schematic_trace_3" data-subcircuit-connectivity-map-key="unnamedsubcircuit11834_connectivity_net0"><path d="M 731.2376362298519 177.24484100930974 L 731.2470683886 205.99143187708998" class="trace-invisible-hover-outline" stroke="rgb(0, 150, 0)" fill="none" stroke-width="11.257387660656px" stroke-linecap="round" opacity="0" stroke-linejoin="round"/><path d="M 731.2376362298519 177.24484100930974 L 731.2470683886 205.99143187708998" stroke="rgb(0, 150, 0)" fill="none" stroke-width="1.407173457582px" stroke-linecap="round" stroke-linejoin="round"/></g><g class="trace" data-layer="base" data-circuit-json-type="schematic_trace" data-schematic-trace-id="schematic_trace_4" data-subcircuit-connectivity-map-key="unnamedsubcircuit11834_connectivity_net0"><path d="M 816.4733208242852 177.24484100930974 L 816.4733208242852 185.76746625287828 L 816.4733208242852 191.61813644319986 L 731.2470683886 191.61813644319986 L 731.2470683886 197.46880663352147 L 731.2470683886 205.99143187708998" class="trace-invisible-hover-outline" stroke="rgb(0, 150, 0)" fill="none" stroke-width="11.257387660656px" stroke-linecap="round" opacity="0" stroke-linejoin="round"/><path d="M 816.4733208242852 177.24484100930974 L 816.4733208242852 185.76746625287828 L 816.4733208242852 191.61813644319986 L 731.2470683886 191.61813644319986 L 731.2470683886 197.46880663352147 L 731.2470683886 205.99143187708998" stroke="rgb(0, 150, 0)" fill="none" stroke-width="1.407173457582px" stroke-linecap="round" stroke-linejoin="round"/></g><g class="trace" data-layer="base" data-circuit-json-type="schematic_trace" data-schematic-trace-id="schematic_trace_5" data-subcircuit-connectivity-map-key="unnamedsubcircuit11834_connectivity_net1"><path d="M 864.9285468588901 223.581100096865 L 864.9285468588901 219.359579724119 L 864.9285468588901 218.3041996309325 L 907.14375058635 218.3041996309325 L 907.14375058635 217.248819537746 L 907.14375058635 213.027299165" class="trace-invisible-hover-outline" stroke="rgb(0, 150, 0)" fill="none" stroke-width="11.257387660656px" stroke-linecap="round" opacity="0" stroke-linejoin="round"/><path d="M 864.9285468588901 223.581100096865 L 864.9285468588901 219.359579724119 L 864.9285468588901 218.3041996309325 L 907.14375058635 218.3041996309325 L 907.14375058635 217.248819537746 L 907.14375058635 213.027299165" stroke="rgb(0, 150, 0)" fill="none" stroke-width="1.407173457582px" stroke-linecap="round" stroke-linejoin="round"/></g><g class="trace" data-layer="base" data-circuit-json-type="schematic_trace" data-schematic-trace-id="schematic_trace_6" data-subcircuit-connectivity-map-key="unnamedsubcircuit11834_connectivity_net1"><path d="M 914.17961787426 223.581100096865 L 914.17961787426 222.5257200036785 L 914.17961787426 218.3041996309325 L 907.14375058635 218.3041996309325 L 907.14375058635 214.0826792581865 L 907.14375058635 213.027299165" class="trace-invisible-hover-outline" stroke="rgb(0, 150, 0)" fill="none" stroke-width="11.257387660656px" stroke-linecap="round" opacity="0" stroke-linejoin="round"/><path d="M 914.17961787426 223.581100096865 L 914.17961787426 222.5257200036785 L 914.17961787426 218.3041996309325 L 907.14375058635 218.3041996309325 L 907.14375058635 214.0826792581865 L 907.14375058635 213.027299165" stroke="rgb(0, 150, 0)" fill="none" stroke-width="1.407173457582px" stroke-linecap="round" stroke-linejoin="round"/></g><g class="trace" data-layer="base" data-circuit-json-type="schematic_trace" data-schematic-trace-id="schematic_trace_7" data-subcircuit-connectivity-map-key="unnamedsubcircuit11834_connectivity_net1"><path d="M 650.334594577635 332.63704305947 L 625.7090590699501 332.63704305947 L 625.7090590699501 311.52944119574" class="trace-invisible-hover-outline" stroke="rgb(0, 150, 0)" fill="none" stroke-width="11.257387660656px" stroke-linecap="round" opacity="0" stroke-linejoin="round"/><path d="M 650.334594577635 332.63704305947 L 625.7090590699501 332.63704305947 L 625.7090590699501 311.52944119574" stroke="rgb(0, 150, 0)" fill="none" stroke-width="1.407173457582px" stroke-linecap="round" stroke-linejoin="round"/></g><g class="trace" data-layer="base" data-circuit-json-type="schematic_trace" data-schematic-trace-id="schematic_trace_8" data-subcircuit-connectivity-map-key="unnamedsubcircuit11834_connectivity_net1"><path d="M 650.334594577635 374.85224678693 L 625.7090590699501 374.85224678693 L 625.7090590699501 311.52944119574" class="trace-invisible-hover-outline" stroke="rgb(0, 150, 0)" fill="none" stroke-width="11.257387660656px" stroke-linecap="round" opacity="0" stroke-linejoin="round"/><path d="M 650.334594577635 374.85224678693 L 625.7090590699501 374.85224678693 L 625.7090590699501 311.52944119574" stroke="rgb(0, 150, 0)" fill="none" stroke-width="1.407173457582px" stroke-linecap="round" stroke-linejoin="round"/></g><g class="trace" data-layer="base" data-circuit-json-type="schematic_trace" data-schematic-trace-id="schematic_trace_9" data-subcircuit-connectivity-map-key="unnamedsubcircuit11834_connectivity_net0"><path d="M 650.334594577635 360.78051221110996 L 597.56558991831 360.78051221110996 L 597.56558991831 388.92398136275" class="trace-invisible-hover-outline" stroke="rgb(0, 150, 0)" fill="none" stroke-width="11.257387660656px" stroke-linecap="round" opacity="0" stroke-linejoin="round"/><path d="M 650.334594577635 360.78051221110996 L 597.56558991831 360.78051221110996 L 597.56558991831 388.92398136275" stroke="rgb(0, 150, 0)" fill="none" stroke-width="1.407173457582px" stroke-linecap="round" stroke-linejoin="round"/></g><g class="trace" data-layer="base" data-circuit-json-type="schematic_trace" data-schematic-trace-id="schematic_trace_10" data-subcircuit-connectivity-map-key="unnamedsubcircuit11834_connectivity_net3"><path d="M 323.16676568982007 248.20663560455 L 287.98742925027005 248.20663560455" class="trace-invisible-hover-outline" stroke="rgb(0, 150, 0)" fill="none" stroke-width="11.257387660656px" stroke-linecap="round" opacity="0" stroke-linejoin="round"/><path d="M 323.16676568982007 248.20663560455 L 287.98742925027005 248.20663560455" stroke="rgb(0, 150, 0)" fill="none" stroke-width="1.407173457582px" stroke-linecap="round" stroke-linejoin="round"/></g><g class="trace" data-layer="base" data-circuit-json-type="schematic_trace" data-schematic-trace-id="schematic_trace_11" data-subcircuit-connectivity-map-key="unnamedsubcircuit11834_connectivity_net2"><path d="M 323.16676568982007 262.27837018036996 L 287.98742925027005 262.27837018036996" class="trace-invisible-hover-outline" stroke="rgb(0, 150, 0)" fill="none" stroke-width="11.257387660656px" stroke-linecap="round" opacity="0" stroke-linejoin="round"/><path d="M 323.16676568982007 262.27837018036996 L 287.98742925027005 262.27837018036996" stroke="rgb(0, 150, 0)" fill="none" stroke-width="1.407173457582px" stroke-linecap="round" stroke-linejoin="round"/></g><g class="trace" data-layer="base" data-circuit-json-type="schematic_trace" data-schematic-trace-id="schematic_trace_12" data-subcircuit-connectivity-map-key="unnamedsubcircuit11834_connectivity_net5"><path d="M 323.16676568982007 276.35010475619 L 287.98742925027005 276.35010475619" class="trace-invisible-hover-outline" stroke="rgb(0, 150, 0)" fill="none" stroke-width="11.257387660656px" stroke-linecap="round" opacity="0" stroke-linejoin="round"/><path d="M 323.16676568982007 276.35010475619 L 287.98742925027005 276.35010475619" stroke="rgb(0, 150, 0)" fill="none" stroke-width="1.407173457582px" stroke-linecap="round" stroke-linejoin="round"/></g><g class="trace" data-layer="base" data-circuit-json-type="schematic_trace" data-schematic-trace-id="schematic_trace_13" data-subcircuit-connectivity-map-key="unnamedsubcircuit11834_connectivity_net4"><path d="M 323.16676568982007 290.42183933201 L 287.98742925027005 290.42183933201" class="trace-invisible-hover-outline" stroke="rgb(0, 150, 0)" fill="none" stroke-width="11.257387660656px" stroke-linecap="round" opacity="0" stroke-linejoin="round"/><path d="M 323.16676568982007 290.42183933201 L 287.98742925027005 290.42183933201" stroke="rgb(0, 150, 0)" fill="none" stroke-width="1.407173457582px" stroke-linecap="round" stroke-linejoin="round"/></g><g class="trace" data-layer="base" data-circuit-json-type="schematic_trace" data-schematic-trace-id="schematic_trace_14" data-subcircuit-connectivity-map-key="unnamedsubcircuit11834_connectivity_net1"><path d="M 323.16676568982007 304.49357390782995 L 309.09503111400005 304.49357390782995 L 309.09503111400005 220.06316645291" class="trace-invisible-hover-outline" stroke="rgb(0, 150, 0)" fill="none" stroke-width="11.257387660656px" stroke-linecap="round" opacity="0" stroke-linejoin="round"/><path d="M 323.16676568982007 304.49357390782995 L 309.09503111400005 304.49357390782995 L 309.09503111400005 220.06316645291" stroke="rgb(0, 150, 0)" fill="none" stroke-width="1.407173457582px" stroke-linecap="round" stroke-linejoin="round"/></g><g class="trace" data-layer="base" data-circuit-json-type="schematic_trace" data-schematic-trace-id="schematic_trace_15" data-subcircuit-connectivity-map-key="unnamedsubcircuit11834_connectivity_net0"><path d="M 323.16676568982007 318.56530848365 L 309.09503111400005 318.56530848365 L 309.09503111400005 339.67291034737997" class="trace-invisible-hover-outline" stroke="rgb(0, 150, 0)" fill="none" stroke-width="11.257387660656px" stroke-linecap="round" opacity="0" stroke-linejoin="round"/><path d="M 323.16676568982007 318.56530848365 L 309.09503111400005 318.56530848365 L 309.09503111400005 339.67291034737997" stroke="rgb(0, 150, 0)" fill="none" stroke-width="1.407173457582px" stroke-linecap="round" stroke-linejoin="round"/></g><g class="trace" data-layer="base" data-circuit-json-type="schematic_trace" data-schematic-trace-id="schematic_trace_16" data-subcircuit-connectivity-map-key="unnamedsubcircuit11834_connectivity_net0"><path d="M 660.8883955095 169.40492197995798 L 660.8883955095 191.31657558512975 L 731.2376362298519 191.31657558512975 L 731.2376362298519 177.24484100930974" class="trace-invisible-hover-outline" stroke="rgb(0, 150, 0)" fill="none" stroke-width="11.257387660656px" stroke-linecap="round" opacity="0" stroke-linejoin="round"/><path d="M 660.8883955095 169.40492197995798 L 660.8883955095 191.31657558512975 L 731.2376362298519 191.31657558512975 L 731.2376362298519 177.24484100930974" stroke="rgb(0, 150, 0)" fill="none" stroke-width="1.407173457582px" stroke-linecap="round" stroke-linejoin="round"/></g><g class="trace" data-layer="base" data-circuit-json-type="schematic_trace" data-schematic-trace-id="schematic_trace_17" data-subcircuit-connectivity-map-key="unnamedsubcircuit11834_connectivity_net0"><path d="M 816.4733208242852 177.24484100930974 L 816.4733208242852 191.31657558512975 L 731.2376362298519 191.31657558512975 L 731.2376362298519 177.24484100930974" class="trace-invisible-hover-outline" stroke="rgb(0, 150, 0)" fill="none" stroke-width="11.257387660656px" stroke-linecap="round" opacity="0" stroke-linejoin="round"/><path d="M 816.4733208242852 177.24484100930974 L 816.4733208242852 191.31657558512975 L 731.2376362298519 191.31657558512975 L 731.2376362298519 177.24484100930974" stroke="rgb(0, 150, 0)" fill="none" stroke-width="1.407173457582px" stroke-linecap="round" stroke-linejoin="round"/></g><g class="trace" data-layer="base" data-circuit-json-type="schematic_trace" data-schematic-trace-id="schematic_trace_18" data-subcircuit-connectivity-map-key="unnamedsubcircuit11834_connectivity_net6"><path d="M 527.2069170392101 364.298445855065 L 527.2069170392101 346.70877763529 L 633.6244097688487 346.70877763529M 638.9013102347812 346.70877763529 L 650.334594577635 346.70877763529" class="trace-invisible-hover-outline" stroke="rgb(0, 150, 0)" fill="none" stroke-width="11.257387660656px" stroke-linecap="round" opacity="0" stroke-linejoin="round"/><path d="M 527.2069170392101 364.298445855065 L 527.2069170392101 346.70877763529 L 633.6244097688487 346.70877763529M 638.9013102347812 346.70877763529 L 650.334594577635 346.70877763529" stroke="rgb(0, 150, 0)" fill="none" stroke-width="1.407173457582px" stroke-linecap="round" stroke-linejoin="round"/></g><g class="trace" data-layer="base" data-circuit-json-type="schematic_trace" data-schematic-trace-id="schematic_trace_19" data-subcircuit-connectivity-map-key="unnamedsubcircuit11834_connectivity_net1"><path d="M 660.8883955095 99.74983582964896 L 660.8883955095 85.67810125382897 L 731.2376362298519 85.67810125382897 L 731.2376362298519 99.8503008422997" class="trace-invisible-hover-outline" stroke="rgb(0, 150, 0)" fill="none" stroke-width="11.257387660656px" stroke-linecap="round" opacity="0" stroke-linejoin="round"/><path d="M 660.8883955095 99.74983582964896 L 660.8883955095 85.67810125382897 L 731.2376362298519 85.67810125382897 L 731.2376362298519 99.8503008422997" stroke="rgb(0, 150, 0)" fill="none" stroke-width="1.407173457582px" stroke-linecap="round" stroke-linejoin="round"/></g><g class="trace" data-layer="base" data-circuit-json-type="schematic_trace" data-schematic-trace-id="schematic_trace_20" data-subcircuit-connectivity-map-key="unnamedsubcircuit11834_connectivity_net1"><path d="M 816.4733208242852 99.8503008422997 L 816.4733208242852 85.77856626647969 L 731.2376362298519 85.77856626647969 L 731.2376362298519 99.8503008422997" class="trace-invisible-hover-outline" stroke="rgb(0, 150, 0)" fill="none" stroke-width="11.257387660656px" stroke-linecap="round" opacity="0" stroke-linejoin="round"/><path d="M 816.4733208242852 99.8503008422997 L 816.4733208242852 85.77856626647969 L 731.2376362298519 85.77856626647969 L 731.2376362298519 99.8503008422997" stroke="rgb(0, 150, 0)" fill="none" stroke-width="1.407173457582px" stroke-linecap="round" stroke-linejoin="round"/></g><g class="trace" data-layer="base" data-circuit-json-type="schematic_trace" data-schematic-trace-id="schematic_trace_21" data-subcircuit-connectivity-map-key="unnamedsubcircuit11834_connectivity_net1"><path d="M 914.17961787426 223.581100096865 L 914.17961787426 209.50936552104497 L 864.9285468588901 209.50936552104497 L 864.9285468588901 223.581100096865" class="trace-invisible-hover-outline" stroke="rgb(0, 150, 0)" fill="none" stroke-width="11.257387660656px" stroke-linecap="round" opacity="0" stroke-linejoin="round"/><path d="M 914.17961787426 223.581100096865 L 914.17961787426 209.50936552104497 L 864.9285468588901 209.50936552104497 L 864.9285468588901 223.581100096865" stroke="rgb(0, 150, 0)" fill="none" stroke-width="1.407173457582px" stroke-linecap="round" stroke-linejoin="round"/></g><g class="trace" data-layer="base" data-circuit-json-type="schematic_trace" data-schematic-trace-id="schematic_trace_22" data-subcircuit-connectivity-map-key="unnamedsubcircuit11834_connectivity_net1"><path d="M 650.334594577635 374.85224678693 L 636.262860001815 374.85224678693 L 636.262860001815 332.63704305947 L 650.334594577635 332.63704305947" class="trace-invisible-hover-outline" stroke="rgb(0, 150, 0)" fill="none" stroke-width="11.257387660656px" stroke-linecap="round" opacity="0" stroke-linejoin="round"/><path d="M 650.334594577635 374.85224678693 L 636.262860001815 374.85224678693 L 636.262860001815 332.63704305947 L 650.334594577635 332.63704305947" stroke="rgb(0, 150, 0)" fill="none" stroke-width="1.407173457582px" stroke-linecap="round" stroke-linejoin="round"/></g><g class="trace" data-layer="base" data-circuit-json-type="schematic_trace" data-schematic-trace-id="schematic_trace_23" data-subcircuit-connectivity-map-key="unnamedsubcircuit11834_connectivity_net5"><path d="M 812.1595421995651 346.70877763529 L 914.17961787426 346.70877763529 L 914.17961787426 300.975640263875" class="trace-invisible-hover-outline" stroke="rgb(0, 150, 0)" fill="none" stroke-width="11.257387660656px" stroke-linecap="round" opacity="0" stroke-linejoin="round"/><path d="M 812.1595421995651 346.70877763529 L 914.17961787426 346.70877763529 L 914.17961787426 300.975640263875" stroke="rgb(0, 150, 0)" fill="none" stroke-width="1.407173457582px" stroke-linecap="round" stroke-linejoin="round"/></g><g class="trace" data-layer="base" data-circuit-json-type="schematic_trace" data-schematic-trace-id="schematic_trace_24" data-subcircuit-connectivity-map-key="unnamedsubcircuit11834_connectivity_net4"><path d="M 812.1595421995651 332.63704305947 L 864.9285468588901 332.63704305947 L 864.9285468588901 300.975640263875" class="trace-invisible-hover-outline" stroke="rgb(0, 150, 0)" fill="none" stroke-width="11.257387660656px" stroke-linecap="round" opacity="0" stroke-linejoin="round"/><path d="M 812.1595421995651 332.63704305947 L 864.9285468588901 332.63704305947 L 864.9285468588901 300.975640263875" stroke="rgb(0, 150, 0)" fill="none" stroke-width="1.407173457582px" stroke-linecap="round" stroke-linejoin="round"/></g><g class="trace" data-layer="base" data-circuit-json-type="schematic_trace" data-schematic-trace-id="schematic_trace_25"><path d="M 527.20691703921 441.692986022075 L 527.20691703921 455.764720597895 L 309.09503111400005 455.764720597895 L 309.09503111400005 318.56530848364997 L 323.16676568982007 318.56530848364997" class="trace-invisible-hover-outline" stroke="rgb(0, 150, 0)" fill="none" stroke-width="11.257387660656px" stroke-linecap="round" opacity="0" stroke-linejoin="round"/><path d="M 527.20691703921 441.692986022075 L 527.20691703921 455.764720597895 L 309.09503111400005 455.764720597895 L 309.09503111400005 318.56530848364997 L 323.16676568982007 318.56530848364997" stroke="rgb(0, 150, 0)" fill="none" stroke-width="1.407173457582px" stroke-linecap="round" stroke-linejoin="round"/></g><g class="trace-overlays" data-layer="overlay" data-circuit-json-type="schematic_trace" data-schematic-trace-id="schematic_trace_0" data-subcircuit-connectivity-map-key="unnamedsubcircuit11834_connectivity_net1"/><g class="trace-overlays" data-layer="overlay" data-circuit-json-type="schematic_trace" data-schematic-trace-id="schematic_trace_1" data-subcircuit-connectivity-map-key="unnamedsubcircuit11834_connectivity_net1"/><g class="trace-overlays" data-layer="overlay" data-circuit-json-type="schematic_trace" data-schematic-trace-id="schematic_trace_2" data-subcircuit-connectivity-map-key="unnamedsubcircuit11834_connectivity_net1"/><g class="trace-overlays" data-layer="overlay" data-circuit-json-type="schematic_trace" data-schematic-trace-id="schematic_trace_3" data-subcircuit-connectivity-map-key="unnamedsubcircuit11834_connectivity_net0"/><g class="trace-overlays" data-layer="overlay" data-circuit-json-type="schematic_trace" data-schematic-trace-id="schematic_trace_4" data-subcircuit-connectivity-map-key="unnamedsubcircuit11834_connectivity_net0"/><g class="trace-overlays" data-layer="overlay" data-circuit-json-type="schematic_trace" data-schematic-trace-id="schematic_trace_5" data-subcircuit-connectivity-map-key="unnamedsubcircuit11834_connectivity_net1"/><g class="trace-overlays" data-layer="overlay" data-circuit-json-type="schematic_trace" data-schematic-trace-id="schematic_trace_6" data-subcircuit-connectivity-map-key="unnamedsubcircuit11834_connectivity_net1"/><g class="trace-overlays" data-layer="overlay" data-circuit-json-type="schematic_trace" data-schematic-trace-id="schematic_trace_7" data-subcircuit-connectivity-map-key="unnamedsubcircuit11834_connectivity_net1"/><g class="trace-overlays" data-layer="overlay" data-circuit-json-type="schematic_trace" data-schematic-trace-id="schematic_trace_8" data-subcircuit-connectivity-map-key="unnamedsubcircuit11834_connectivity_net1"/><g class="trace-overlays" data-layer="overlay" data-circuit-json-type="schematic_trace" data-schematic-trace-id="schematic_trace_9" data-subcircuit-connectivity-map-key="unnamedsubcircuit11834_connectivity_net0"/><g class="trace-overlays" data-layer="overlay" data-circuit-json-type="schematic_trace" data-schematic-trace-id="schematic_trace_10" data-subcircuit-connectivity-map-key="unnamedsubcircuit11834_connectivity_net3"/><g class="trace-overlays" data-layer="overlay" data-circuit-json-type="schematic_trace" data-schematic-trace-id="schematic_trace_11" data-subcircuit-connectivity-map-key="unnamedsubcircuit11834_connectivity_net2"/><g class="trace-overlays" data-layer="overlay" data-circuit-json-type="schematic_trace" data-schematic-trace-id="schematic_trace_12" data-subcircuit-connectivity-map-key="unnamedsubcircuit11834_connectivity_net5"/><g class="trace-overlays" data-layer="overlay" data-circuit-json-type="schematic_trace" data-schematic-trace-id="schematic_trace_13" data-subcircuit-connectivity-map-key="unnamedsubcircuit11834_connectivity_net4"/><g class="trace-overlays" data-layer="overlay" data-circuit-json-type="schematic_trace" data-schematic-trace-id="schematic_trace_14" data-subcircuit-connectivity-map-key="unnamedsubcircuit11834_connectivity_net1"/><g class="trace-overlays" data-layer="overlay" data-circuit-json-type="schematic_trace" data-schematic-trace-id="schematic_trace_15" data-subcircuit-connectivity-map-key="unnamedsubcircuit11834_connectivity_net0"/><g class="trace-overlays" data-layer="overlay" data-circuit-json-type="schematic_trace" data-schematic-trace-id="schematic_trace_16" data-subcircuit-connectivity-map-key="unnamedsubcircuit11834_connectivity_net0"><circle cx="731.2376362298519" cy="191.31657558512975" r="2.1107601863729997" class="trace-junction" fill="rgb(0, 150, 0)"/></g><g class="trace-overlays" data-layer="overlay" data-circuit-json-type="schematic_trace" data-schematic-trace-id="schematic_trace_17" data-subcircuit-connectivity-map-key="unnamedsubcircuit11834_connectivity_net0"><circle cx="731.2376362298519" cy="191.31657558512975" r="2.1107601863729997" class="trace-junction" fill="rgb(0, 150, 0)"/></g><g class="trace-overlays" data-layer="overlay" data-circuit-json-type="schematic_trace" data-schematic-trace-id="schematic_trace_18" data-subcircuit-connectivity-map-key="unnamedsubcircuit11834_connectivity_net6"><path class="trace-crossing-outline" d="M 633.6244097688487 346.70877763529 Q 636.2628600018149 343.01494730913726 638.9013102347812 346.70877763529" stroke="rgb(245, 241, 237)" fill="none" stroke-width="2.110760186373px" stroke-linecap="butt"/><path d="M 633.6244097688487 346.70877763529 Q 636.2628600018149 343.01494730913726 638.9013102347812 346.70877763529" stroke="rgb(0, 150, 0)" fill="none" stroke-width="1.407173457582px" stroke-linecap="round"/></g><g class="trace-overlays" data-layer="overlay" data-circuit-json-type="schematic_trace" data-schematic-trace-id="schematic_trace_19" data-subcircuit-connectivity-map-key="unnamedsubcircuit11834_connectivity_net1"><circle cx="731.2376362298519" cy="85.77856626647969" r="2.1107601863729997" class="trace-junction" fill="rgb(0, 150, 0)"/></g><g class="trace-overlays" data-layer="overlay" data-circuit-json-type="schematic_trace" data-schematic-trace-id="schematic_trace_20" data-subcircuit-connectivity-map-key="unnamedsubcircuit11834_connectivity_net1"><circle cx="731.2376362298519" cy="85.77856626647969" r="2.1107601863729997" class="trace-junction" fill="rgb(0, 150, 0)"/></g><g class="trace-overlays" data-layer="overlay" data-circuit-json-type="schematic_trace" data-schematic-trace-id="schematic_trace_21" data-subcircuit-connectivity-map-key="unnamedsubcircuit11834_connectivity_net1"/><g class="trace-overlays" data-layer="overlay" data-circuit-json-type="schematic_trace" data-schematic-trace-id="schematic_trace_22" data-subcircuit-connectivity-map-key="unnamedsubcircuit11834_connectivity_net1"/><g class="trace-overlays" data-layer="overlay" data-circuit-json-type="schematic_trace" data-schematic-trace-id="schematic_trace_23" data-subcircuit-connectivity-map-key="unnamedsubcircuit11834_connectivity_net5"/><g class="trace-overlays" data-layer="overlay" data-circuit-json-type="schematic_trace" data-schematic-trace-id="schematic_trace_24" data-subcircuit-connectivity-map-key="unnamedsubcircuit11834_connectivity_net4"/><g class="trace-overlays" data-layer="overlay" data-circuit-json-type="schematic_trace" data-schematic-trace-id="schematic_trace_25"/><g data-circuit-json-type="schematic_component" data-schematic-component-id="schematic_component_0"><rect class="component-overlay" x="712.2407945524949" y="99.8503008422997" width="37.290096625922956" height="77.39454016701004" fill="transparent"/><path d="M 731.2376362298519 177.24484100930974 L 731.2376362298519 143.47267802734171" stroke="rgb(132, 0, 0)" fill="none" stroke-width="1.407173457582px" stroke-linecap="round"/><path d="M 731.2376362298519 132.21529036668574 L 731.2376362298519 99.8503008422997" stroke="rgb(132, 0, 0)" fill="none" stroke-width="1.407173457582px" stroke-linecap="round"/><path d="M 749.5308911784178 143.47267802734171 L 712.2407945524949 143.47267802734171" stroke="rgb(132, 0, 0)" fill="none" stroke-width="1.407173457582px" stroke-linecap="round"/><path d="M 749.5308911784178 132.2152903666857 L 712.2407945524949 132.21529036668574" stroke="rgb(132, 0, 0)" fill="none" stroke-width="1.407173457582px" stroke-linecap="round"/><text x="737.9217101533663" y="124.58583634998472" stroke="rgb(245, 241, 237)" stroke-width="1.407173457582px" paint-order="stroke" fill="rgb(15, 15, 15)" font-family="sans-serif" text-anchor="start" dominant-baseline="auto" font-size="12.664561118238px">C1</text><text x="737.9217101533663" y="152.5093055016247" fill="rgb(15, 15, 15)" font-family="sans-serif" text-anchor="start" dominant-baseline="hanging" font-size="12.664561118238px">0.1uF</text></g><g data-circuit-json-type="schematic_component" data-schematic-component-id="schematic_component_1"><rect class="component-overlay" x="639.78079364577" y="99.74983582964896" width="40.104443541086994" height="69.65508615030902" fill="transparent"/><path d="M 660.8883955095 99.74983582964896 L 660.8883955095 131.41123862524398" stroke="rgb(132, 0, 0)" fill="none" stroke-width="1.407173457582px" stroke-linecap="round"/><path d="M 660.8883955095 137.74351918436298 L 660.8883955095 169.40492197995798" stroke="rgb(132, 0, 0)" fill="none" stroke-width="1.407173457582px" stroke-linecap="round"/><path d="M 642.595140560934 131.41123862524398 L 679.885237186857 131.41123862524398" stroke="rgb(132, 0, 0)" fill="none" stroke-width="1.407173457582px" stroke-linecap="round"/><path d="M 679.181650458066 141.26145282831797 L 679.181650458066 141.26145282831797 L 679.181650458066 141.26145282831797 L 679.181650458066 141.26145282831797 L 679.181650458066 141.26145282831797 L 679.181650458066 141.26145282831797 L 679.181650458066 141.26145282831797 L 679.181650458066 141.26145282831797 L 679.181650458066 141.26145282831797 L 678.478063729275 141.26145282831797 L 678.478063729275 141.26145282831797 L 678.478063729275 141.26145282831797 L 678.478063729275 141.26145282831797 L 678.478063729275 140.55786609952696 L 678.478063729275 140.55786609952696 L 678.478063729275 140.55786609952696 L 678.478063729275 140.55786609952696 L 677.774477000484 140.55786609952696 L 677.774477000484 140.55786609952696 L 677.774477000484 140.55786609952696 L 677.774477000484 140.55786609952696 L 677.774477000484 140.55786609952696 L 677.774477000484 140.55786609952696 L 677.774477000484 140.55786609952696 L 677.774477000484 140.55786609952696 L 677.070890271693 140.55786609952696 L 677.070890271693 140.55786609952696 L 677.070890271693 140.55786609952696 L 677.070890271693 139.85427937073598 L 677.070890271693 139.85427937073598 L 677.070890271693 139.85427937073598 L 677.070890271693 139.85427937073598 L 677.070890271693 139.85427937073598 L 676.367303542902 139.85427937073598 L 676.367303542902 139.85427937073598 L 676.367303542902 139.85427937073598 L 676.367303542902 139.85427937073598 L 676.367303542902 139.85427937073598 L 676.367303542902 139.85427937073598 L 676.367303542902 139.85427937073598 L 676.367303542902 139.85427937073598 L 675.663716814111 139.85427937073598 L 675.663716814111 139.85427937073598 L 675.663716814111 139.85427937073598 L 675.663716814111 139.85427937073598 L 675.663716814111 139.15069264194497 L 675.663716814111 139.15069264194497 L 675.663716814111 139.15069264194497 L 674.96013008532 139.15069264194497 L 674.96013008532 139.15069264194497 L 674.96013008532 139.15069264194497 L 674.96013008532 139.15069264194497 L 674.96013008532 139.15069264194497 L 674.96013008532 139.15069264194497 L 674.96013008532 139.15069264194497 L 674.96013008532 139.15069264194497 L 674.256543356529 139.15069264194497 L 674.256543356529 139.15069264194497 L 674.256543356529 139.15069264194497 L 674.256543356529 139.15069264194497 L 674.256543356529 139.15069264194497 L 674.256543356529 139.15069264194497 L 674.256543356529 139.15069264194497 L 674.256543356529 139.15069264194497 L 673.552956627738 138.44710591315396 L 673.552956627738 138.44710591315396 L 673.552956627738 138.44710591315396 L 673.552956627738 138.44710591315396 L 673.552956627738 138.44710591315396 L 673.552956627738 138.44710591315396 L 673.552956627738 138.44710591315396 L 673.552956627738 138.44710591315396 L 672.849369898947 138.44710591315396 L 672.849369898947 138.44710591315396 L 672.849369898947 138.44710591315396 L 672.849369898947 138.44710591315396 L 672.849369898947 138.44710591315396 L 672.849369898947 138.44710591315396 L 672.849369898947 138.44710591315396 L 672.145783170156 138.44710591315396 L 672.145783170156 138.44710591315396 L 672.145783170156 138.44710591315396 L 672.145783170156 138.44710591315396 L 672.145783170156 138.44710591315396 L 672.145783170156 138.44710591315396 L 672.145783170156 138.44710591315396 L 672.145783170156 137.74351918436298 L 671.442196441365 137.74351918436298 L 671.442196441365 137.74351918436298 L 671.442196441365 137.74351918436298 L 671.442196441365 137.74351918436298 L 671.442196441365 137.74351918436298 L 671.442196441365 137.74351918436298 L 671.442196441365 137.74351918436298 L 671.442196441365 137.74351918436298 L 670.738609712574 137.74351918436298 L 670.738609712574 137.74351918436298 L 670.738609712574 137.74351918436298 L 670.738609712574 137.74351918436298 L 670.738609712574 137.74351918436298 L 670.738609712574 137.74351918436298 L 670.738609712574 137.74351918436298 L 670.738609712574 137.74351918436298 L 670.035022983783 137.74351918436298 L 670.035022983783 137.74351918436298 L 670.035022983783 137.74351918436298 L 670.035022983783 137.74351918436298 L 670.035022983783 137.74351918436298 L 670.035022983783 137.74351918436298 L 669.331436254992 137.74351918436298 L 669.331436254992 137.74351918436298 L 669.331436254992 137.74351918436298 L 669.331436254992 137.74351918436298 L 669.331436254992 137.74351918436298 L 669.331436254992 137.74351918436298 L 668.627849526201 137.03993245557197 L 668.627849526201 137.03993245557197 L 668.627849526201 137.03993245557197 L 668.627849526201 137.03993245557197 L 668.627849526201 137.03993245557197 L 668.627849526201 137.03993245557197 L 667.92426279741 137.03993245557197 L 667.92426279741 137.03993245557197 L 667.92426279741 137.03993245557197 L 667.92426279741 137.03993245557197 L 667.92426279741 137.03993245557197 L 667.92426279741 137.03993245557197 L 667.220676068619 137.03993245557197 L 667.220676068619 137.03993245557197 L 667.220676068619 137.03993245557197 L 667.220676068619 137.03993245557197 L 667.220676068619 137.03993245557197 L 667.220676068619 137.03993245557197 L 666.517089339828 137.03993245557197 L 666.517089339828 137.03993245557197 L 666.517089339828 137.03993245557197 L 666.517089339828 137.03993245557197 L 666.517089339828 137.03993245557197 L 665.813502611037 137.03993245557197 L 665.813502611037 137.03993245557197 L 665.813502611037 137.03993245557197 L 665.813502611037 137.03993245557197 L 665.813502611037 137.03993245557197 L 665.813502611037 137.03993245557197 L 665.109915882246 137.03993245557197 L 665.109915882246 137.03993245557197 L 665.109915882246 137.03993245557197 L 665.109915882246 137.03993245557197 L 665.109915882246 137.03993245557197 L 665.109915882246 137.03993245557197 L 664.406329153455 137.03993245557197 L 664.406329153455 137.03993245557197 L 664.406329153455 137.03993245557197 L 664.406329153455 137.03993245557197 L 664.406329153455 137.03993245557197 L 664.406329153455 137.03993245557197 L 663.702742424664 137.03993245557197 L 663.702742424664 137.03993245557197 L 663.702742424664 137.03993245557197 L 663.702742424664 137.03993245557197 L 663.702742424664 137.03993245557197 L 663.702742424664 137.03993245557197 L 662.999155695873 137.03993245557197 L 662.999155695873 137.03993245557197 L 662.999155695873 137.03993245557197 L 662.999155695873 137.03993245557197 L 662.999155695873 137.03993245557197 L 662.295568967082 137.03993245557197 L 662.295568967082 137.03993245557197 L 662.295568967082 137.03993245557197 L 662.295568967082 137.03993245557197 L 662.295568967082 137.03993245557197 L 662.295568967082 137.03993245557197 L 661.591982238291 137.03993245557197 L 661.591982238291 136.33634572678096 L 661.591982238291 136.33634572678096 L 661.591982238291 136.33634572678096 L 661.591982238291 136.33634572678096 L 661.591982238291 136.33634572678096 L 660.8883955095 137.03993245557197 L 660.8883955095 137.03993245557197 L 660.8883955095 137.03993245557197 L 660.8883955095 137.03993245557197 L 660.8883955095 137.03993245557197 L 660.8883955095 137.03993245557197 L 660.184808780709 137.03993245557197 L 660.184808780709 137.03993245557197 L 660.184808780709 137.03993245557197 L 660.184808780709 137.03993245557197 L 660.184808780709 137.03993245557197 L 660.184808780709 137.03993245557197 L 659.481222051918 137.03993245557197 L 659.481222051918 137.03993245557197 L 659.481222051918 137.03993245557197 L 659.481222051918 137.03993245557197 L 659.481222051918 137.03993245557197 L 658.777635323127 137.03993245557197 L 658.777635323127 137.03993245557197 L 658.777635323127 137.03993245557197 L 658.777635323127 137.03993245557197 L 658.777635323127 137.03993245557197 L 658.777635323127 137.03993245557197 L 658.074048594336 137.03993245557197 L 658.074048594336 137.03993245557197 L 658.074048594336 137.03993245557197 L 658.074048594336 137.03993245557197 L 658.074048594336 137.03993245557197 L 658.074048594336 137.03993245557197 L 658.074048594336 137.03993245557197 L 658.074048594336 137.03993245557197 L 657.370461865545 137.03993245557197 L 657.370461865545 137.03993245557197 L 657.370461865545 137.03993245557197 L 657.370461865545 137.03993245557197 L 657.370461865545 137.03993245557197 L 657.370461865545 137.03993245557197 L 657.370461865545 137.03993245557197 L 656.666875136754 137.03993245557197 L 656.666875136754 137.03993245557197 L 656.666875136754 137.03993245557197 L 656.666875136754 137.03993245557197 L 656.666875136754 137.03993245557197 L 656.666875136754 137.03993245557197 L 655.963288407963 137.03993245557197 L 655.963288407963 137.03993245557197 L 655.963288407963 137.03993245557197 L 655.963288407963 137.03993245557197 L 655.963288407963 137.03993245557197 L 655.963288407963 137.03993245557197 L 655.963288407963 137.03993245557197 L 655.259701679172 137.03993245557197 L 655.259701679172 137.03993245557197 L 655.259701679172 137.03993245557197 L 655.259701679172 137.03993245557197 L 655.259701679172 137.03993245557197 L 655.259701679172 137.03993245557197 L 655.259701679172 137.03993245557197 L 654.556114950381 137.03993245557197 L 654.556114950381 137.03993245557197 L 654.556114950381 137.03993245557197 L 654.556114950381 137.03993245557197 L 654.556114950381 137.03993245557197 L 654.556114950381 137.03993245557197 L 654.556114950381 137.03993245557197 L 653.85252822159 137.03993245557197 L 653.85252822159 137.03993245557197 L 653.85252822159 137.03993245557197 L 653.85252822159 137.03993245557197 L 653.85252822159 137.74351918436298 L 653.85252822159 137.74351918436298 L 653.85252822159 137.74351918436298 L 653.148941492799 137.74351918436298 L 653.148941492799 137.74351918436298 L 653.148941492799 137.74351918436298 L 653.148941492799 137.74351918436298 L 653.148941492799 137.74351918436298 L 653.148941492799 137.74351918436298 L 652.445354764008 137.74351918436298 L 652.445354764008 137.74351918436298 L 652.445354764008 137.74351918436298 L 652.445354764008 137.74351918436298 L 652.445354764008 137.74351918436298 L 652.445354764008 137.74351918436298 L 652.445354764008 137.74351918436298 L 651.741768035217 137.74351918436298 L 651.741768035217 137.74351918436298 L 651.741768035217 137.74351918436298 L 651.741768035217 137.74351918436298 L 651.741768035217 137.74351918436298 L 651.741768035217 137.74351918436298 L 651.741768035217 137.74351918436298 L 651.038181306426 137.74351918436298 L 651.038181306426 137.74351918436298 L 651.038181306426 137.74351918436298 L 651.038181306426 137.74351918436298 L 651.038181306426 137.74351918436298 L 651.038181306426 137.74351918436298 L 651.038181306426 137.74351918436298 L 650.334594577635 137.74351918436298 L 650.334594577635 137.74351918436298 L 650.334594577635 138.44710591315396 L 650.334594577635 138.44710591315396 L 650.334594577635 138.44710591315396 L 650.334594577635 138.44710591315396 L 650.334594577635 138.44710591315396 L 649.631007848844 138.44710591315396 L 649.631007848844 138.44710591315396 L 649.631007848844 138.44710591315396 L 649.631007848844 138.44710591315396 L 649.631007848844 138.44710591315396 L 649.631007848844 138.44710591315396 L 649.631007848844 138.44710591315396 L 648.927421120053 138.44710591315396 L 648.927421120053 138.44710591315396 L 648.927421120053 138.44710591315396 L 648.927421120053 138.44710591315396 L 648.927421120053 138.44710591315396 L 648.927421120053 138.44710591315396 L 648.927421120053 138.44710591315396 L 648.223834391262 138.44710591315396 L 648.223834391262 138.44710591315396 L 648.223834391262 138.44710591315396 L 648.223834391262 138.44710591315396 L 648.223834391262 138.44710591315396 L 648.223834391262 138.44710591315396 L 648.223834391262 139.15069264194497 L 648.223834391262 139.15069264194497 L 648.223834391262 139.15069264194497 L 647.520247662471 139.15069264194497 L 647.520247662471 139.15069264194497 L 647.520247662471 139.15069264194497 L 647.520247662471 139.15069264194497 L 647.520247662471 139.15069264194497 L 647.520247662471 139.15069264194497 L 647.520247662471 139.15069264194497 L 647.520247662471 139.15069264194497 L 647.520247662471 139.15069264194497 L 647.520247662471 139.15069264194497 L 647.520247662471 139.15069264194497 L 647.520247662471 139.15069264194497 L 647.520247662471 139.15069264194497 L 646.81666093368 139.15069264194497 L 646.81666093368 139.15069264194497 L 646.81666093368 139.15069264194497 L 646.81666093368 139.15069264194497 L 646.81666093368 139.15069264194497 L 646.81666093368 139.15069264194497 L 646.81666093368 139.15069264194497 L 646.81666093368 139.15069264194497 L 646.81666093368 139.15069264194497 L 646.81666093368 139.15069264194497 L 646.81666093368 139.15069264194497 L 646.81666093368 139.15069264194497 L 646.113074204889 139.15069264194497 L 646.113074204889 139.15069264194497 L 646.113074204889 139.15069264194497 L 646.113074204889 139.15069264194497 L 646.113074204889 139.85427937073598 L 646.113074204889 139.85427937073598 L 646.113074204889 139.85427937073598 L 646.113074204889 139.85427937073598 L 646.113074204889 139.85427937073598 L 646.113074204889 139.85427937073598 L 646.113074204889 139.85427937073598 L 646.113074204889 139.85427937073598 L 645.409487476098 139.85427937073598 L 645.409487476098 139.85427937073598 L 645.409487476098 139.85427937073598 L 645.409487476098 139.85427937073598 L 645.409487476098 139.85427937073598 L 645.409487476098 139.85427937073598 L 645.409487476098 139.85427937073598 L 645.409487476098 139.85427937073598 L 645.409487476098 139.85427937073598 L 645.409487476098 139.85427937073598 L 645.409487476098 139.85427937073598 L 645.409487476098 139.85427937073598 L 644.705900747307 139.85427937073598 L 644.705900747307 139.85427937073598 L 644.705900747307 139.85427937073598 L 644.705900747307 139.85427937073598 L 644.705900747307 139.85427937073598 L 644.705900747307 139.85427937073598 L 644.705900747307 140.55786609952696 L 644.705900747307 140.55786609952696 L 644.705900747307 140.55786609952696 L 644.705900747307 140.55786609952696 L 644.705900747307 140.55786609952696 L 644.705900747307 140.55786609952696 L 644.705900747307 140.55786609952696 L 644.002314018516 140.55786609952696 L 644.002314018516 140.55786609952696 L 644.002314018516 140.55786609952696 L 644.002314018516 140.55786609952696 L 644.002314018516 140.55786609952696 L 644.002314018516 140.55786609952696 L 644.002314018516 140.55786609952696 L 644.002314018516 140.55786609952696 L 644.002314018516 140.55786609952696 L 644.002314018516 140.55786609952696 L 644.002314018516 140.55786609952696 L 644.002314018516 140.55786609952696 L 644.002314018516 140.55786609952696 L 643.298727289725 140.55786609952696 L 643.298727289725 140.55786609952696 L 643.298727289725 140.55786609952696 L 643.298727289725 140.55786609952696 L 643.298727289725 141.26145282831797 L 643.298727289725 141.26145282831797 L 643.298727289725 141.26145282831797 L 643.298727289725 141.26145282831797 L 643.298727289725 141.26145282831797 L 643.298727289725 141.26145282831797 L 643.298727289725 141.26145282831797 L 643.298727289725 141.26145282831797 L 643.298727289725 141.26145282831797 L 642.595140560934 141.26145282831797 L 642.595140560934 141.26145282831797 L 642.595140560934 141.26145282831797 L 642.595140560934 141.26145282831797 L 642.595140560934 141.26145282831797 L 642.595140560934 141.26145282831797 L 642.595140560934 141.26145282831797 L 642.595140560934 141.26145282831797 L 642.595140560934 141.26145282831797" stroke="rgb(132, 0, 0)" fill="none" stroke-width="1.407173457582px" stroke-linecap="round"/><path d="M 644.705900747307 113.11798367667797 L 644.705900747307 122.96819787975197 L 644.705900747307 122.96819787975197 L 644.705900747307 113.11798367667797" stroke="rgb(132, 0, 0)" fill="none" stroke-width="1.407173457582px" stroke-linecap="round"/><path d="M 639.78079364577 117.33950404942397 L 649.631007848844 117.33950404942397 L 649.631007848844 118.04309077821497 L 639.78079364577 118.04309077821496" stroke="rgb(132, 0, 0)" fill="none" stroke-width="1.407173457582px" stroke-linecap="round"/><text x="677.0325694205094" y="124.47437133733398" stroke="rgb(245, 241, 237)" stroke-width="1.407173457582px" paint-order="stroke" fill="rgb(15, 15, 15)" font-family="sans-serif" text-anchor="start" dominant-baseline="auto" font-size="12.664561118238px">C2</text><text x="677.0325694205094" y="145.38397320106398" fill="rgb(15, 15, 15)" font-family="sans-serif" text-anchor="start" dominant-baseline="hanging" font-size="12.664561118238px">10uF</text></g><g data-circuit-json-type="schematic_component" data-schematic-component-id="schematic_component_2"><rect class="component-overlay" x="797.4764791469282" y="99.8503008422997" width="37.290096625922956" height="77.39454016701004" fill="transparent"/><path d="M 816.4733208242852 177.24484100930974 L 816.4733208242852 143.47267802734171" stroke="rgb(132, 0, 0)" fill="none" stroke-width="1.407173457582px" stroke-linecap="round"/><path d="M 816.4733208242852 132.21529036668574 L 816.4733208242852 99.8503008422997" stroke="rgb(132, 0, 0)" fill="none" stroke-width="1.407173457582px" stroke-linecap="round"/><path d="M 834.7665757728512 143.47267802734171 L 797.4764791469282 143.47267802734171" stroke="rgb(132, 0, 0)" fill="none" stroke-width="1.407173457582px" stroke-linecap="round"/><path d="M 834.7665757728512 132.2152903666857 L 797.4764791469282 132.21529036668574" stroke="rgb(132, 0, 0)" fill="none" stroke-width="1.407173457582px" stroke-linecap="round"/><text x="823.1573947477997" y="124.58583634998472" stroke="rgb(245, 241, 237)" stroke-width="1.407173457582px" paint-order="stroke" fill="rgb(15, 15, 15)" font-family="sans-serif" text-anchor="start" dominant-baseline="auto" font-size="12.664561118238px">C4</text><text x="823.1573947477997" y="152.5093055016247" fill="rgb(15, 15, 15)" font-family="sans-serif" text-anchor="start" dominant-baseline="hanging" font-size="12.664561118238px">1uF</text></g><g data-circuit-json-type="schematic_component" data-schematic-component-id="schematic_component_3"><rect class="component chip" x="678.478063729275" y="318.56530848364997" width="105.53800931864998" height="70.35867287910003" stroke-width="1.407173457582px" fill="rgb(255, 255, 194)" stroke="rgb(132, 0, 0)"/><rect class="component-overlay" x="678.478063729275" y="318.56530848364997" width="105.53800931864998" height="70.35867287910003" fill="transparent"/><text x="678.478063729275" y="398.070608837033" fill="#006464" text-anchor="start" dominant-baseline="middle" font-family="sans-serif" font-size="12.664561118238px" transform="rotate(0, 678.478063729275, 398.070608837033)">MPL3115A2R1</text><text x="678.478063729275" y="309.418681009367" fill="#006464" text-anchor="start" dominant-baseline="middle" font-family="sans-serif" font-size="12.664561118238px" transform="rotate(0, 678.478063729275, 309.418681009367)">U1</text><line class="component-pin" x1="678.478063729275" y1="332.63704305947" x2="650.334594577635" y2="332.63704305947" stroke-width="1.407173457582px"/><g data-schematic-port-id="source_port_6"><rect x="648.927421120053" y="331.22986960188797" width="2.814346915164" height="2.814346915164" opacity="0"/></g><text class="pin-number" x="664.4063291534551" y="331.22986960188797" style="font-family: sans-serif;" fill="rgb(169, 0, 0)" text-anchor="middle" dominant-baseline="auto" font-size="10.553800931865px" transform="">1</text><text class="pin-number" x="685.5139310171851" y="332.63704305947" style="font-family: sans-serif;" fill="rgb(169, 0, 0)" text-anchor="start" dominant-baseline="middle" font-size="10.553800931865px" transform="">VDD</text><line class="component-pin" x1="678.478063729275" y1="346.70877763529" x2="650.334594577635" y2="346.70877763529" stroke-width="1.407173457582px"/><g data-schematic-port-id="source_port_7"><rect x="648.927421120053" y="345.301604177708" width="2.814346915164" height="2.814346915164" opacity="0"/></g><text class="pin-number" x="664.4063291534551" y="345.301604177708" style="font-family: sans-serif;" fill="rgb(169, 0, 0)" text-anchor="middle" dominant-baseline="auto" font-size="10.553800931865px" transform="">2</text><text class="pin-number" x="685.5139310171851" y="346.70877763529" style="font-family: sans-serif;" fill="rgb(169, 0, 0)" text-anchor="start" dominant-baseline="middle" font-size="10.553800931865px" transform="">CAP</text><line class="component-pin" x1="678.478063729275" y1="360.78051221110996" x2="650.334594577635" y2="360.78051221110996" stroke-width="1.407173457582px"/><g data-schematic-port-id="source_port_8"><rect x="648.927421120053" y="359.37333875352795" width="2.814346915164" height="2.814346915164" opacity="0"/></g><text class="pin-number" x="664.4063291534551" y="359.373338753528" style="font-family: sans-serif;" fill="rgb(169, 0, 0)" text-anchor="middle" dominant-baseline="auto" font-size="10.553800931865px" transform="">3</text><text class="pin-number" x="685.5139310171851" y="360.78051221110996" style="font-family: sans-serif;" fill="rgb(169, 0, 0)" text-anchor="start" dominant-baseline="middle" font-size="10.553800931865px" transform="">GND</text><line class="component-pin" x1="678.478063729275" y1="374.85224678693" x2="650.334594577635" y2="374.85224678693" stroke-width="1.407173457582px"/><g data-schematic-port-id="source_port_9"><rect x="648.927421120053" y="373.44507332934796" width="2.814346915164" height="2.814346915164" opacity="0"/></g><text class="pin-number" x="664.4063291534551" y="373.44507332934796" style="font-family: sans-serif;" fill="rgb(169, 0, 0)" text-anchor="middle" dominant-baseline="auto" font-size="10.553800931865px" transform="">4</text><text class="pin-number" x="685.5139310171851" y="374.85224678693" style="font-family: sans-serif;" fill="rgb(169, 0, 0)" text-anchor="start" dominant-baseline="middle" font-size="10.553800931865px" transform="">VDDIO</text><line class="component-pin" x1="784.016073047925" y1="374.85224678693" x2="812.1595421995651" y2="374.85224678693" stroke-width="1.407173457582px"/><g data-schematic-port-id="source_port_10"><rect x="810.7523687419831" y="373.44507332934796" width="2.814346915164" height="2.814346915164" opacity="0"/></g><text class="pin-number" x="798.087807623745" y="373.44507332934796" style="font-family: sans-serif;" fill="rgb(169, 0, 0)" text-anchor="middle" dominant-baseline="auto" font-size="10.553800931865px" transform="">5</text><text class="pin-number" x="776.980205760015" y="374.85224678693" style="font-family: sans-serif;" fill="rgb(169, 0, 0)" text-anchor="end" dominant-baseline="middle" font-size="10.553800931865px" transform="">INT2</text><line class="component-pin" x1="784.016073047925" y1="360.78051221110996" x2="812.1595421995651" y2="360.78051221110996" stroke-width="1.407173457582px"/><g data-schematic-port-id="source_port_11"><rect x="810.7523687419831" y="359.37333875352795" width="2.814346915164" height="2.814346915164" opacity="0"/></g><text class="pin-number" x="798.087807623745" y="359.373338753528" style="font-family: sans-serif;" fill="rgb(169, 0, 0)" text-anchor="middle" dominant-baseline="auto" font-size="10.553800931865px" transform="">6</text><text class="pin-number" x="776.980205760015" y="360.78051221110996" style="font-family: sans-serif;" fill="rgb(169, 0, 0)" text-anchor="end" dominant-baseline="middle" font-size="10.553800931865px" transform="">INT1</text><line class="component-pin" x1="784.016073047925" y1="346.70877763529" x2="812.1595421995651" y2="346.70877763529" stroke-width="1.407173457582px"/><g data-schematic-port-id="source_port_12"><rect x="810.7523687419831" y="345.301604177708" width="2.814346915164" height="2.814346915164" opacity="0"/></g><text class="pin-number" x="798.087807623745" y="345.301604177708" style="font-family: sans-serif;" fill="rgb(169, 0, 0)" text-anchor="middle" dominant-baseline="auto" font-size="10.553800931865px" transform="">7</text><text class="pin-number" x="776.980205760015" y="346.70877763529" style="font-family: sans-serif;" fill="rgb(169, 0, 0)" text-anchor="end" dominant-baseline="middle" font-size="10.553800931865px" transform="">SDA</text><line class="component-pin" x1="784.016073047925" y1="332.63704305947" x2="812.1595421995651" y2="332.63704305947" stroke-width="1.407173457582px"/><g data-schematic-port-id="source_port_13"><rect x="810.7523687419831" y="331.22986960188797" width="2.814346915164" height="2.814346915164" opacity="0"/></g><text class="pin-number" x="798.087807623745" y="331.22986960188797" style="font-family: sans-serif;" fill="rgb(169, 0, 0)" text-anchor="middle" dominant-baseline="auto" font-size="10.553800931865px" transform="">8</text><text class="pin-number" x="776.980205760015" y="332.63704305947" style="font-family: sans-serif;" fill="rgb(169, 0, 0)" text-anchor="end" dominant-baseline="middle" font-size="10.553800931865px" transform="">SCL</text></g><g data-circuit-json-type="schematic_component" data-schematic-component-id="schematic_component_4"><rect class="component-overlay" x="855.078332655816" y="223.581100096865" width="18.996841677356997" height="77.39454016701" fill="transparent"/><path d="M 864.92854685889 223.581100096865 L 864.92854685889 243.281528503013" stroke="rgb(132, 0, 0)" fill="none" stroke-width="1.407173457582px" stroke-linecap="round"/><path d="M 864.92854685889 280.571625128936 L 864.92854685889 300.975640263875" stroke="rgb(132, 0, 0)" fill="none" stroke-width="1.407173457582px" stroke-linecap="round"/><path d="M 874.075174333173 262.27837018036996 L 874.075174333173 280.571625128936 L 855.078332655816 280.571625128936 L 855.078332655816 243.281528503013 L 874.075174333173 243.281528503013 L 874.075174333173 262.27837018036996" stroke="rgb(132, 0, 0)" fill="none" stroke-width="1.407173457582px" stroke-linecap="round"/><text x="877.5547871259444" y="249.613809062132" stroke="rgb(245, 241, 237)" stroke-width="1.407173457582px" paint-order="stroke" fill="rgb(15, 15, 15)" font-family="sans-serif" text-anchor="start" dominant-baseline="middle" font-size="12.664561118238px">R1</text><text x="877.5547871259444" y="272.128584383444" fill="rgb(15, 15, 15)" font-family="sans-serif" text-anchor="start" dominant-baseline="middle" font-size="12.664561118238px">1k</text></g><g data-circuit-json-type="schematic_component" data-schematic-component-id="schematic_component_5"><rect class="component-overlay" x="904.329403671186" y="223.581100096865" width="18.996841677356997" height="77.39454016701" fill="transparent"/><path d="M 914.17961787426 223.581100096865 L 914.17961787426 243.281528503013" stroke="rgb(132, 0, 0)" fill="none" stroke-width="1.407173457582px" stroke-linecap="round"/><path d="M 914.17961787426 280.571625128936 L 914.17961787426 300.975640263875" stroke="rgb(132, 0, 0)" fill="none" stroke-width="1.407173457582px" stroke-linecap="round"/><path d="M 923.326245348543 262.27837018036996 L 923.326245348543 280.571625128936 L 904.329403671186 280.571625128936 L 904.329403671186 243.281528503013 L 923.326245348543 243.281528503013 L 923.326245348543 262.27837018036996" stroke="rgb(132, 0, 0)" fill="none" stroke-width="1.407173457582px" stroke-linecap="round"/><text x="926.8058581413144" y="249.613809062132" stroke="rgb(245, 241, 237)" stroke-width="1.407173457582px" paint-order="stroke" fill="rgb(15, 15, 15)" font-family="sans-serif" text-anchor="start" dominant-baseline="middle" font-size="12.664561118238px">R2</text><text x="926.8058581413144" y="272.128584383444" fill="rgb(15, 15, 15)" font-family="sans-serif" text-anchor="start" dominant-baseline="middle" font-size="12.664561118238px">1k</text></g><g data-circuit-json-type="schematic_component" data-schematic-component-id="schematic_component_6"><rect class="component-overlay" x="508.2100753618531" y="364.298445855065" width="37.290096625922956" height="77.39454016701" fill="transparent"/><path d="M 527.2069170392101 441.692986022075 L 527.2069170392101 407.920823040107" stroke="rgb(132, 0, 0)" fill="none" stroke-width="1.407173457582px" stroke-linecap="round"/><path d="M 527.2069170392101 396.66343537945096 L 527.2069170392101 364.298445855065" stroke="rgb(132, 0, 0)" fill="none" stroke-width="1.407173457582px" stroke-linecap="round"/><path d="M 545.5001719877761 407.920823040107 L 508.2100753618531 407.920823040107" stroke="rgb(132, 0, 0)" fill="none" stroke-width="1.407173457582px" stroke-linecap="round"/><path d="M 545.5001719877761 396.66343537945096 L 508.2100753618531 396.66343537945096" stroke="rgb(132, 0, 0)" fill="none" stroke-width="1.407173457582px" stroke-linecap="round"/><text x="533.8909909627246" y="389.03398136275" stroke="rgb(245, 241, 237)" stroke-width="1.407173457582px" paint-order="stroke" fill="rgb(15, 15, 15)" font-family="sans-serif" text-anchor="start" dominant-baseline="auto" font-size="12.664561118238px">C3</text><text x="533.8909909627246" y="416.95745051438996" fill="rgb(15, 15, 15)" font-family="sans-serif" text-anchor="start" dominant-baseline="hanging" font-size="12.664561118238px">0.1uF</text></g><g data-circuit-json-type="schematic_component" data-schematic-component-id="schematic_component_7"><rect class="component chip" x="351.3102348414601" y="234.13490102872998" width="42.21520372745994" height="98.50214203074" stroke-width="1.407173457582px" fill="rgb(255, 255, 194)" stroke="rgb(132, 0, 0)"/><rect class="component-overlay" x="351.3102348414601" y="234.13490102872998" width="42.21520372745994" height="98.50214203074" fill="transparent"/><text x="351.3102348414601" y="341.78367053375297" fill="#006464" text-anchor="start" dominant-baseline="middle" font-family="sans-serif" font-size="12.664561118238px" transform="rotate(0, 351.3102348414601, 341.78367053375297)">M06SIP</text><text x="351.3102348414601" y="224.98827355444698" fill="#006464" text-anchor="start" dominant-baseline="middle" font-family="sans-serif" font-size="12.664561118238px" transform="rotate(0, 351.3102348414601, 224.98827355444698)">JP4</text><line class="component-pin" x1="351.3102348414601" y1="248.20663560455" x2="323.16676568982007" y2="248.20663560455" stroke-width="1.407173457582px"/><g data-schematic-port-id="source_port_20"><rect x="321.75959223223805" y="246.799462146968" width="2.814346915164" height="2.814346915164" opacity="0"/></g><text class="pin-number" x="337.2385002656401" y="246.79946214696798" style="font-family: sans-serif;" fill="rgb(169, 0, 0)" text-anchor="middle" dominant-baseline="auto" font-size="10.553800931865px" transform="">1</text><text class="pin-number" x="358.3461021293701" y="248.20663560455" style="font-family: sans-serif;" fill="rgb(169, 0, 0)" text-anchor="start" dominant-baseline="middle" font-size="10.553800931865px" transform="">INT2</text><line class="component-pin" x1="351.3102348414601" y1="262.27837018036996" x2="323.16676568982007" y2="262.27837018036996" stroke-width="1.407173457582px"/><g data-schematic-port-id="source_port_21"><rect x="321.75959223223805" y="260.87119672278794" width="2.814346915164" height="2.814346915164" opacity="0"/></g><text class="pin-number" x="337.2385002656401" y="260.871196722788" style="font-family: sans-serif;" fill="rgb(169, 0, 0)" text-anchor="middle" dominant-baseline="auto" font-size="10.553800931865px" transform="">2</text><text class="pin-number" x="358.3461021293701" y="262.27837018036996" style="font-family: sans-serif;" fill="rgb(169, 0, 0)" text-anchor="start" dominant-baseline="middle" font-size="10.553800931865px" transform="">INT1</text><line class="component-pin" x1="351.3102348414601" y1="276.35010475619" x2="323.16676568982007" y2="276.35010475619" stroke-width="1.407173457582px"/><g data-schematic-port-id="source_port_22"><rect x="321.75959223223805" y="274.94293129860796" width="2.814346915164" height="2.814346915164" opacity="0"/></g><text class="pin-number" x="337.2385002656401" y="274.94293129860796" style="font-family: sans-serif;" fill="rgb(169, 0, 0)" text-anchor="middle" dominant-baseline="auto" font-size="10.553800931865px" transform="">3</text><text class="pin-number" x="358.3461021293701" y="276.35010475619" style="font-family: sans-serif;" fill="rgb(169, 0, 0)" text-anchor="start" dominant-baseline="middle" font-size="10.553800931865px" transform="">SDA</text><line class="component-pin" x1="351.3102348414601" y1="290.42183933201" x2="323.16676568982007" y2="290.42183933201" stroke-width="1.407173457582px"/><g data-schematic-port-id="source_port_23"><rect x="321.75959223223805" y="289.014665874428" width="2.814346915164" height="2.814346915164" opacity="0"/></g><text class="pin-number" x="337.2385002656401" y="289.014665874428" style="font-family: sans-serif;" fill="rgb(169, 0, 0)" text-anchor="middle" dominant-baseline="auto" font-size="10.553800931865px" transform="">4</text><text class="pin-number" x="358.3461021293701" y="290.42183933201" style="font-family: sans-serif;" fill="rgb(169, 0, 0)" text-anchor="start" dominant-baseline="middle" font-size="10.553800931865px" transform="">SCL</text><line class="component-pin" x1="351.3102348414601" y1="304.49357390783" x2="323.16676568982007" y2="304.49357390783" stroke-width="1.407173457582px"/><g data-schematic-port-id="source_port_24"><rect x="321.75959223223805" y="303.086400450248" width="2.814346915164" height="2.814346915164" opacity="0"/></g><text class="pin-number" x="337.2385002656401" y="303.086400450248" style="font-family: sans-serif;" fill="rgb(169, 0, 0)" text-anchor="middle" dominant-baseline="auto" font-size="10.553800931865px" transform="">5</text><text class="pin-number" x="358.3461021293701" y="304.49357390783" style="font-family: sans-serif;" fill="rgb(169, 0, 0)" text-anchor="start" dominant-baseline="middle" font-size="10.553800931865px" transform="">VCC</text><line class="component-pin" x1="351.3102348414601" y1="318.56530848364997" x2="323.16676568982007" y2="318.56530848364997" stroke-width="1.407173457582px"/><g data-schematic-port-id="source_port_25"><rect x="321.75959223223805" y="317.15813502606795" width="2.814346915164" height="2.814346915164" opacity="0"/></g><text class="pin-number" x="337.2385002656401" y="317.15813502606795" style="font-family: sans-serif;" fill="rgb(169, 0, 0)" text-anchor="middle" dominant-baseline="auto" font-size="10.553800931865px" transform="">6</text><text class="pin-number" x="358.3461021293701" y="318.56530848364997" style="font-family: sans-serif;" fill="rgb(169, 0, 0)" text-anchor="start" dominant-baseline="middle" font-size="10.553800931865px" transform="">GND</text></g><g class="schematic-port-hover" data-schematic-port-id="source_port_0"><circle cx="731.2376362298519" cy="99.8503008422997" r="2.814346915164" fill="red" opacity="0"/></g><g class="schematic-port-hover" data-schematic-port-id="source_port_1"><circle cx="731.2376362298519" cy="177.24484100930974" r="2.814346915164" fill="red" opacity="0"/></g><g class="schematic-port-hover" data-schematic-port-id="source_port_2"><circle cx="660.8883955095" cy="169.40492197995798" r="2.814346915164" fill="red" opacity="0"/></g><g class="schematic-port-hover" data-schematic-port-id="source_port_3"><circle cx="660.8883955095" cy="99.74983582964896" r="2.814346915164" fill="red" opacity="0"/></g><g class="schematic-port-hover" data-schematic-port-id="source_port_4"><circle cx="816.4733208242852" cy="99.8503008422997" r="2.814346915164" fill="red" opacity="0"/></g><g class="schematic-port-hover" data-schematic-port-id="source_port_5"><circle cx="816.4733208242852" cy="177.24484100930974" r="2.814346915164" fill="red" opacity="0"/></g><g class="schematic-port-hover" data-schematic-port-id="source_port_6"><circle cx="650.334594577635" cy="332.63704305947" r="2.814346915164" fill="red" opacity="0"/></g><g class="schematic-port-hover" data-schematic-port-id="source_port_7"><circle cx="650.334594577635" cy="346.70877763529" r="2.814346915164" fill="red" opacity="0"/></g><g class="schematic-port-hover" data-schematic-port-id="source_port_8"><circle cx="650.334594577635" cy="360.78051221110996" r="2.814346915164" fill="red" opacity="0"/></g><g class="schematic-port-hover" data-schematic-port-id="source_port_9"><circle cx="650.334594577635" cy="374.85224678693" r="2.814346915164" fill="red" opacity="0"/></g><g class="schematic-port-hover" data-schematic-port-id="source_port_10"><circle cx="812.1595421995651" cy="374.85224678693" r="2.814346915164" fill="red" opacity="0"/></g><g class="schematic-port-hover" data-schematic-port-id="source_port_11"><circle cx="812.1595421995651" cy="360.78051221110996" r="2.814346915164" fill="red" opacity="0"/></g><g class="schematic-port-hover" data-schematic-port-id="source_port_12"><circle cx="812.1595421995651" cy="346.70877763529" r="2.814346915164" fill="red" opacity="0"/></g><g class="schematic-port-hover" data-schematic-port-id="source_port_13"><circle cx="812.1595421995651" cy="332.63704305947" r="2.814346915164" fill="red" opacity="0"/></g><g class="schematic-port-hover" data-schematic-port-id="source_port_14"><circle cx="864.9285468588901" cy="223.581100096865" r="2.814346915164" fill="red" opacity="0"/></g><g class="schematic-port-hover" data-schematic-port-id="source_port_15"><circle cx="864.9285468588901" cy="300.975640263875" r="2.814346915164" fill="red" opacity="0"/></g><g class="schematic-port-hover" data-schematic-port-id="source_port_16"><circle cx="914.17961787426" cy="223.581100096865" r="2.814346915164" fill="red" opacity="0"/></g><g class="schematic-port-hover" data-schematic-port-id="source_port_17"><circle cx="914.17961787426" cy="300.975640263875" r="2.814346915164" fill="red" opacity="0"/></g><g class="schematic-port-hover" data-schematic-port-id="source_port_18"><circle cx="527.2069170392101" cy="364.298445855065" r="2.814346915164" fill="red" opacity="0"/></g><g class="schematic-port-hover" data-schematic-port-id="source_port_19"><circle cx="527.2069170392101" cy="441.692986022075" r="2.814346915164" fill="red" opacity="0"/></g><g class="schematic-port-hover" data-schematic-port-id="source_port_20"><circle cx="323.16676568982007" cy="248.20663560455" r="2.814346915164" fill="red" opacity="0"/></g><g class="schematic-port-hover" data-schematic-port-id="source_port_21"><circle cx="323.16676568982007" cy="262.27837018036996" r="2.814346915164" fill="red" opacity="0"/></g><g class="schematic-port-hover" data-schematic-port-id="source_port_22"><circle cx="323.16676568982007" cy="276.35010475619" r="2.814346915164" fill="red" opacity="0"/></g><g class="schematic-port-hover" data-schematic-port-id="source_port_23"><circle cx="323.16676568982007" cy="290.42183933201" r="2.814346915164" fill="red" opacity="0"/></g><g class="schematic-port-hover" data-schematic-port-id="source_port_24"><circle cx="323.16676568982007" cy="304.49357390783" r="2.814346915164" fill="red" opacity="0"/></g><g class="schematic-port-hover" data-schematic-port-id="source_port_25"><circle cx="323.16676568982007" cy="318.56530848364997" r="2.814346915164" fill="red" opacity="0"/></g><rect class="component-overlay" x="722.804027643108" y="59.64539228856199" width="16.886081490983997" height="12.664561118237998" fill="transparent"/><path d="M 739.690109134092 59.64539228856199 L 722.804027643108 59.64539228856199" stroke="rgb(132, 0, 0)" fill="none" stroke-width="1.407173457582px" stroke-linecap="round"/><path d="M 731.2470683886 59.64539228856199 L 731.2470683886 72.30995340679999" stroke="rgb(132, 0, 0)" fill="none" stroke-width="1.407173457582px" stroke-linecap="round"/><text x="731.2470683886" y="56.12745864460699" fill="rgb(15, 15, 15)" font-family="sans-serif" text-anchor="middle" dominant-baseline="ideographic" font-size="12.664561118238px">VCC</text><rect class="component-overlay" x="722.804027643108" y="205.99143187708998" width="16.886081490983997" height="12.664561118237998" fill="transparent"/><path d="M 722.804027643108 218.65599299532798 L 739.690109134092 218.65599299532798" stroke="rgb(132, 0, 0)" fill="none" stroke-width="1.407173457582px" stroke-linecap="round"/><path d="M 731.2470683886 218.65599299532798 L 731.2470683886 205.99143187708998" stroke="rgb(132, 0, 0)" fill="none" stroke-width="1.407173457582px" stroke-linecap="round"/><text x="731.2470683886" y="222.17392663928297" fill="rgb(15, 15, 15)" font-family="sans-serif" text-anchor="middle" dominant-baseline="hanging" font-size="12.664561118238px">GND</text><rect class="component-overlay" x="898.700709840858" y="200.362738046762" width="16.886081490983997" height="12.664561118237998" fill="transparent"/><path d="M 915.586791331842 200.362738046762 L 898.700709840858 200.362738046762" stroke="rgb(132, 0, 0)" fill="none" stroke-width="1.407173457582px" stroke-linecap="round"/><path d="M 907.14375058635 200.362738046762 L 907.14375058635 213.027299165" stroke="rgb(132, 0, 0)" fill="none" stroke-width="1.407173457582px" stroke-linecap="round"/><text x="907.14375058635" y="196.844804402807" fill="rgb(15, 15, 15)" font-family="sans-serif" text-anchor="middle" dominant-baseline="ideographic" font-size="12.664561118238px">VCC</text><rect class="component-overlay" x="617.2660183244581" y="298.864880077502" width="16.886081490983997" height="12.664561118237998" fill="transparent"/><path d="M 634.152099815442 298.864880077502 L 617.2660183244581 298.864880077502" stroke="rgb(132, 0, 0)" fill="none" stroke-width="1.407173457582px" stroke-linecap="round"/><path d="M 625.7090590699501 298.864880077502 L 625.7090590699501 311.52944119574" stroke="rgb(132, 0, 0)" fill="none" stroke-width="1.407173457582px" stroke-linecap="round"/><text x="625.7090590699501" y="295.346946433547" fill="rgb(15, 15, 15)" font-family="sans-serif" text-anchor="middle" dominant-baseline="ideographic" font-size="12.664561118238px">VCC</text><rect class="component-overlay" x="589.122549172818" y="388.92398136275" width="16.886081490983997" height="12.664561118237998" fill="transparent"/><path d="M 589.122549172818 401.588542480988 L 606.008630663802 401.588542480988" stroke="rgb(132, 0, 0)" fill="none" stroke-width="1.407173457582px" stroke-linecap="round"/><path d="M 597.56558991831 401.588542480988 L 597.56558991831 388.92398136275" stroke="rgb(132, 0, 0)" fill="none" stroke-width="1.407173457582px" stroke-linecap="round"/><text x="597.56558991831" y="405.106476124943" fill="rgb(15, 15, 15)" font-family="sans-serif" text-anchor="middle" dominant-baseline="hanging" font-size="12.664561118238px">GND</text><rect class="component-overlay" x="518.7638762937181" y="441.692986022075" width="16.886081490983997" height="12.664561118237998" fill="transparent"/><path d="M 518.7638762937181 454.357547140313 L 535.6499577847021 454.357547140313" stroke="rgb(132, 0, 0)" fill="none" stroke-width="1.407173457582px" stroke-linecap="round"/><path d="M 527.2069170392101 454.357547140313 L 527.2069170392101 441.692986022075" stroke="rgb(132, 0, 0)" fill="none" stroke-width="1.407173457582px" stroke-linecap="round"/><text x="527.2069170392101" y="457.875480784268" fill="rgb(15, 15, 15)" font-family="sans-serif" text-anchor="middle" dominant-baseline="hanging" font-size="12.664561118238px">GND</text><path class="net-label" d="
    M 287.98742925027005,248.20663560455
    L 284.18806091479865,255.8053722754928
    L 249.15882297739074,255.8053722754928
    L 249.15882297739074,240.6078989336072
    L 284.18806091479865,240.6078989336072
    Z
  " fill="rgba(255, 255, 255, 0.6)" stroke="rgb(132, 0, 0)" stroke-width="1.407173457582px"/><text class="net-label-text" x="281.65514869115106" y="248.20663560455" fill="rgb(132, 0, 0)" text-anchor="end" dominant-baseline="central" font-family="sans-serif" font-variant-numeric="tabular-nums" font-size="12.664561118238px" transform="">INT2</text><path class="net-label" d="
    M 287.98742925027005,262.27837018036996
    L 284.18806091479865,269.87710685131276
    L 249.15882297739074,269.87710685131276
    L 249.15882297739074,254.67963350942716
    L 284.18806091479865,254.67963350942716
    Z
  " fill="rgba(255, 255, 255, 0.6)" stroke="rgb(132, 0, 0)" stroke-width="1.407173457582px"/><text class="net-label-text" x="281.65514869115106" y="262.27837018036996" fill="rgb(132, 0, 0)" text-anchor="end" dominant-baseline="central" font-family="sans-serif" font-variant-numeric="tabular-nums" font-size="12.664561118238px" transform="">INT1</text><path class="net-label" d="
    M 287.98742925027005,276.35010475619
    L 284.18806091479865,283.9488414271328
    L 251.32587010206703,283.9488414271328
    L 251.32587010206703,268.7513680852472
    L 284.18806091479865,268.7513680852472
    Z
  " fill="rgba(255, 255, 255, 0.6)" stroke="rgb(132, 0, 0)" stroke-width="1.407173457582px"/><text class="net-label-text" x="281.65514869115106" y="276.35010475619" fill="rgb(132, 0, 0)" text-anchor="end" dominant-baseline="central" font-family="sans-serif" font-variant-numeric="tabular-nums" font-size="12.664561118238px" transform="">SDA</text><path class="net-label" d="
    M 287.98742925027005,290.42183933201
    L 284.18806091479865,298.0205760029528
    L 252.73304355964902,298.0205760029528
    L 252.73304355964902,282.8231026610672
    L 284.18806091479865,282.8231026610672
    Z
  " fill="rgba(255, 255, 255, 0.6)" stroke="rgb(132, 0, 0)" stroke-width="1.407173457582px"/><text class="net-label-text" x="281.65514869115106" y="290.42183933201" fill="rgb(132, 0, 0)" text-anchor="end" dominant-baseline="central" font-family="sans-serif" font-variant-numeric="tabular-nums" font-size="12.664561118238px" transform="">SCL</text><rect class="component-overlay" x="300.65199036850805" y="207.398605334672" width="16.886081490983997" height="12.664561118237998" fill="transparent"/><path d="M 317.53807185949205 207.398605334672 L 300.65199036850805 207.398605334672" stroke="rgb(132, 0, 0)" fill="none" stroke-width="1.407173457582px" stroke-linecap="round"/><path d="M 309.09503111400005 207.398605334672 L 309.09503111400005 220.06316645291" stroke="rgb(132, 0, 0)" fill="none" stroke-width="1.407173457582px" stroke-linecap="round"/><text x="309.09503111400005" y="203.880671690717" fill="rgb(15, 15, 15)" font-family="sans-serif" text-anchor="middle" dominant-baseline="ideographic" font-size="12.664561118238px">VCC</text><rect class="component-overlay" x="300.65199036850805" y="339.67291034737997" width="16.886081490983997" height="12.664561118237998" fill="transparent"/><path d="M 300.65199036850805 352.33747146561797 L 317.53807185949205 352.33747146561797" stroke="rgb(132, 0, 0)" fill="none" stroke-width="1.407173457582px" stroke-linecap="round"/><path d="M 309.09503111400005 352.33747146561797 L 309.09503111400005 339.67291034737997" stroke="rgb(132, 0, 0)" fill="none" stroke-width="1.407173457582px" stroke-linecap="round"/><text x="309.09503111400005" y="355.855405109573" fill="rgb(15, 15, 15)" font-family="sans-serif" text-anchor="middle" dominant-baseline="hanging" font-size="12.664561118238px">GND</text><path class="net-label" d="
    M 812.1595421995651,374.85224678693
    L 815.9589105350365,367.2535101159872
    L 850.9881484724444,367.2535101159872
    L 850.9881484724444,382.4509834578728
    L 815.9589105350365,382.4509834578728
    Z
  " fill="rgba(255, 255, 255, 0.6)" stroke="rgb(132, 0, 0)" stroke-width="1.407173457582px"/><text class="net-label-text" x="818.4918227586841" y="374.85224678693" fill="rgb(132, 0, 0)" text-anchor="start" dominant-baseline="central" font-family="sans-serif" font-variant-numeric="tabular-nums" font-size="12.664561118238px" transform="">INT2</text><path class="net-label" d="
    M 812.1595421995651,360.78051221110996
    L 815.9589105350365,353.18177554016717
    L 850.9881484724444,353.18177554016717
    L 850.9881484724444,368.37924888205276
    L 815.9589105350365,368.37924888205276
    Z
  " fill="rgba(255, 255, 255, 0.6)" stroke="rgb(132, 0, 0)" stroke-width="1.407173457582px"/><text class="net-label-text" x="818.4918227586841" y="360.78051221110996" fill="rgb(132, 0, 0)" text-anchor="start" dominant-baseline="central" font-family="sans-serif" font-variant-numeric="tabular-nums" font-size="12.664561118238px" transform="">INT1</text><path class="net-label" d="
    M 914.17961787426,346.70877763529
    L 917.9789862097314,339.1100409643472
    L 950.8411770224631,339.1100409643472
    L 950.8411770224631,354.3075143062328
    L 917.9789862097314,354.3075143062328
    Z
  " fill="rgba(255, 255, 255, 0.6)" stroke="rgb(132, 0, 0)" stroke-width="1.407173457582px"/><text class="net-label-text" x="920.511898433379" y="346.70877763529" fill="rgb(132, 0, 0)" text-anchor="start" dominant-baseline="central" font-family="sans-serif" font-variant-numeric="tabular-nums" font-size="12.664561118238px" transform="">SDA</text><path class="net-label" d="
    M 864.9285468588901,332.63704305947
    L 868.7279151943615,325.0383063885272
    L 900.1829325495111,325.0383063885272
    L 900.1829325495111,340.2357797304128
    L 868.7279151943615,340.2357797304128
    Z
  " fill="rgba(255, 255, 255, 0.6)" stroke="rgb(132, 0, 0)" stroke-width="1.407173457582px"/><text class="net-label-text" x="871.2608274180091" y="332.63704305947" fill="rgb(132, 0, 0)" text-anchor="start" dominant-baseline="central" font-family="sans-serif" font-variant-numeric="tabular-nums" font-size="12.664561118238px" transform="">SCL</text><text x="731.2470683886" y="494.4619906814" fill="gray" text-anchor="middle" dominant-baseline="middle" font-family="sans-serif" font-size="14.07173457582px" transform="rotate(0, 731.2470683886, 494.4619906814)">VCC = 3.6V Max</text><text x="731.2470683886" y="515.56959254513" fill="gray" text-anchor="middle" dominant-baseline="middle" font-family="sans-serif" font-size="14.07173457582px" transform="rotate(0, 731.2470683886, 515.56959254513)">Slave Address: 0x60</text><text x="731.2470683886" y="536.67719440886" fill="gray" text-anchor="middle" dominant-baseline="middle" font-family="sans-serif" font-size="14.07173457582px" transform="rotate(0, 731.2470683886, 536.67719440886)">Read Address: 0xC1</text><text x="731.2470683886" y="557.78479627259" fill="gray" text-anchor="middle" dominant-baseline="middle" font-family="sans-serif" font-size="14.07173457582px" transform="rotate(0, 731.2470683886, 557.78479627259)">Write Address: 0xC0</text></svg>