<svg xmlns="http://www.w3.org/2000/svg" width="1200" height="600" style="background-color: rgb(245, 241, 237)" data-real-to-screen-transform="matrix(70.3586728791,0,0,-70.3586728791,744.0268010843,353.7446449232)" data-software-used-string="@tscircuit/core@0.0.611"><style>
              .boundary { fill: rgb(245, 241, 237); }
              .schematic-boundary { fill: none; stroke: #fff; }
              .component { fill: none; stroke: rgb(132, 0, 0); }
              .chip { fill: rgb(255, 255, 194); stroke: rgb(132, 0, 0); }
              .component-pin { fill: none; stroke: rgb(132, 0, 0); }
              .trace:hover {
                filter: invert(1);
              }
              .trace:hover .trace-crossing-outline {
                opacity: 0;
              }
              .trace:hover .trace-junction {
                filter: invert(1);
              }
              .text { font-family: sans-serif; fill: rgb(0, 150, 0); }
              .pin-number { fill: rgb(169, 0, 0); }
              .port-label { fill: rgb(0, 100, 100); }
              .component-name { fill: rgb(0, 100, 100); }
            </style><rect class="boundary" x="0" y="0" width="1200" height="600"/><g data-circuit-json-type="schematic_component" data-schematic-component-id="schematic_component_0"><rect class="component-overlay" x="725.4459263382228" y="100.87785408036251" width="37.23145970794553" height="74.46292645175845" fill="transparent"/><path d="M 744.0616561921956 175.34078053212096 L 744.0616561921956 143.69404048395393" stroke="rgb(132, 0, 0)" fill="none" stroke-width="1.407173457582px" stroke-linecap="round"/><path d="M 744.0616561921956 132.5246011643968 L 744.0616561921956 100.87785408036251" stroke="rgb(132, 0, 0)" fill="none" stroke-width="1.407173457582px" stroke-linecap="round"/><path d="M 762.6773860461683 143.6940404839539 L 725.4459263382228 143.69404048395393" stroke="rgb(132, 0, 0)" fill="none" stroke-width="1.407173457582px" stroke-linecap="round"/><path d="M 762.6773860461683 132.5246011643968 L 725.4459263382228 132.5246011643968" stroke="rgb(132, 0, 0)" fill="none" stroke-width="1.407173457582px" stroke-linecap="round"/><text x="757.5826441843196" y="124.5816696799847" fill="rgb(15, 15, 15)" font-family="sans-serif" text-anchor="start" dominant-baseline="auto" font-size="12.664561118238px">C1</text><text x="757.5826441843196" y="152.51347217162473" fill="rgb(15, 15, 15)" font-family="sans-serif" text-anchor="start" dominant-baseline="hanging" font-size="12.664561118238px">100nF</text></g><g data-circuit-json-type="schematic_component" data-schematic-component-id="schematic_component_1"><rect class="component-overlay" x="652.4415040924941" y="99.87195737816523" width="39.81066793834759" height="69.41084305327647" fill="transparent"/><path d="M 673.6238409385561 99.87195737816523 L 673.6238409385561 131.5192884391844" stroke="rgb(132, 0, 0)" fill="none" stroke-width="1.407173457582px" stroke-linecap="round"/><path d="M 673.6238409385561 137.63605334740743 L 673.6238409385561 169.2828004314417" stroke="rgb(132, 0, 0)" fill="none" stroke-width="1.407173457582px" stroke-linecap="round"/><path d="M 654.8437180454014 131.78756605887241 L 692.2521720308417 131.78756605887241" stroke="rgb(132, 0, 0)" fill="none" stroke-width="1.407173457582px" stroke-linecap="round"/><path d="M 692.0078726468709 141.69992104183322 L 692.0078726468709 141.69992104183322 L 691.9209727149741 141.64823474030484 L 691.8340078575716 141.59680616229974 L 691.7469780085964 141.54563597452258 L 691.6598831019819 141.4947248436781 L 691.5727230716612 141.44407343647103 L 691.4854978515675 141.39368241960602 L 691.3982073756341 141.34355245978784 L 691.3108515777941 141.29368422372121 L 691.2234303919806 141.2440783781108 L 691.1359437521271 141.19473558966132 L 691.0483915921667 141.14565652507753 L 690.9607738460325 141.09684185106408 L 690.8730904476578 141.04829223432574 L 690.7853413309757 141.0000083415672 L 690.6975264299194 140.95199083949316 L 690.6096456784223 140.90424039480834 L 690.5216990104176 140.85675767421748 L 690.4336863598382 140.80954334442526 L 690.3456076606176 140.7625980721364 L 690.2574628466889 140.7159225240556 L 690.1692518519853 140.66951736688762 L 690.0809746104401 140.62338326733712 L 689.9926310559864 140.57752089210882 L 689.9042211225574 140.53193090790745 L 689.8157447440863 140.48661398143773 L 689.7272018545063 140.44157077940434 L 689.6385923877508 140.39680196851202 L 689.5499162777528 140.35230821546548 L 689.4611734584456 140.30809018696942 L 689.3723638637623 140.26414854972856 L 689.2834874276363 140.22048397044762 L 689.1945440840005 140.1770971158313 L 689.1055337667884 140.1339886525843 L 689.0164564099332 140.09115924741135 L 688.9273119473678 140.0486095670172 L 688.8381003130257 140.00634027810648 L 688.7488214408401 139.96435204738395 L 688.6594752647441 139.92264554155435 L 688.5700617186708 139.88122142732234 L 688.4805807365535 139.84008037139265 L 688.3910322523257 139.79922304047 L 688.3014161999201 139.7586501012591 L 688.2117325132702 139.71836222046466 L 688.1219811263093 139.67836006479138 L 688.0321619729702 139.638644300944 L 687.9422749871866 139.59921559562721 L 687.8523201028914 139.56007461554574 L 687.7622972540179 139.5212220274043 L 687.6722063744993 139.48265849790758 L 687.5820473982687 139.44438469376033 L 687.4918202592595 139.40640128166723 L 687.4015248914048 139.36870892833298 L 687.3111612286378 139.33130830046235 L 687.2207292048918 139.29420006476 L 687.1302287540998 139.25738488793067 L 687.0396598101952 139.22086343667905 L 686.9490223071111 139.18463637770986 L 686.8583161787808 139.14870437772782 L 686.7675413591373 139.11306810343766 L 686.6766977821142 139.07772822154405 L 686.5857853816442 139.04268539875176 L 686.494804091661 139.00794030176544 L 686.4037538460974 138.97349359728983 L 686.3126345788869 138.93934595202964 L 686.2214462239625 138.9054980326896 L 686.1301887152575 138.8719505059744 L 686.0388619867052 138.83870403858876 L 685.9474659722387 138.8057592972374 L 685.8560006057911 138.77311694862502 L 685.7644658212957 138.74077765945634 L 685.6728615526858 138.70874209643605 L 685.5811877338946 138.6770109262689 L 685.4894442988551 138.6455848156596 L 685.3976311815007 138.61446443131283 L 685.3057483157646 138.5836504399333 L 685.2137956355799 138.5531435082258 L 685.1217730748799 138.52294430289493 L 685.0296805675978 138.49305349064548 L 684.9375180476667 138.46347173818214 L 684.8452854490199 138.4341997122096 L 684.7529827055906 138.40523807943262 L 684.660609751312 138.37658750655586 L 684.5681665201173 138.3482486602841 L 684.4756529459396 138.320222207322 L 684.3830689627123 138.29250881437426 L 684.2904145043685 138.26510914814563 L 684.1976895048415 138.23802387534082 L 684.1048938980643 138.21125366266452 L 684.0120276179704 138.18479917682146 L 683.9190905984927 138.15866108451632 L 683.8260827735646 138.13284005245387 L 683.7330040771193 138.1073367473388 L 683.6398544430898 138.0821518358758 L 683.5466338054097 138.0572859847696 L 683.4533420980117 138.03273986072492 L 683.3599792548295 138.00851413044643 L 683.266545209796 137.9846094606389 L 683.1730398968444 137.961026518007 L 683.0794632499081 137.93776596925548 L 682.9858152029203 137.91482848108902 L 682.9858152029203 137.91482848108902 L 682.8678894254515 137.8863800297952 L 682.7498857641823 137.85835343617202 L 682.631804956908 137.8307477684033 L 682.5136477414236 137.80356209467288 L 682.3954148555242 137.77679548316453 L 682.277107037005 137.7504470020621 L 682.158725023661 137.72451571954934 L 682.0402695532874 137.6990007038101 L 681.9217413636794 137.67390102302818 L 681.803141192632 137.64921574538738 L 681.6844697779402 137.6249439390715 L 681.5657278573993 137.60108467226436 L 681.4469161688045 137.57763701314977 L 681.3280354499507 137.55460002991154 L 681.209086438633 137.5319727907335 L 681.0900698726467 137.5097543637994 L 680.9709864897868 137.4879438172931 L 680.8518370278484 137.46654021939838 L 680.7326222246268 137.44554263829906 L 680.6133428179169 137.42495014217894 L 680.4939995455138 137.40476179922183 L 680.3745931452129 137.38497667761155 L 680.2551243548089 137.3655938455319 L 680.1355939120973 137.34661237116669 L 680.016002554873 137.32803132269973 L 679.8963510209311 137.3098497683148 L 679.7766400480668 137.29206677619575 L 679.6568703740753 137.27468141452636 L 679.5370427367516 137.25769275149045 L 679.4171578738907 137.24109985527184 L 679.297216523288 137.22490179405432 L 679.1772194227383 137.2090976360217 L 679.057167310037 137.19368644935778 L 678.9370609229791 137.1786673022464 L 678.8169009993596 137.16403926287134 L 678.6966882769738 137.14980139941642 L 678.5764234936167 137.13595278006542 L 678.4561073870834 137.12249247300218 L 678.3357406951692 137.10941954641052 L 678.215324155669 137.0967330684742 L 678.094858506378 137.08443210737707 L 677.9743444850914 137.07251573130293 L 677.8537828296041 137.06098300843558 L 677.7331742777114 137.04983300695883 L 677.6125195672084 137.03906479505648 L 677.4918194358902 137.02867744091236 L 677.3710746215518 137.01867001271023 L 677.2502858619885 137.00904157863397 L 677.1294538949952 136.99979120686734 L 677.0085794583673 136.99091796559415 L 676.8876632898996 136.98242092299824 L 676.7667061273875 136.97429914726337 L 676.6457087086259 136.9665517065734 L 676.52467177141 136.95917766911208 L 676.403596053535 136.95217610306327 L 676.2824822927959 136.94554607661075 L 676.1613312269878 136.93928665793834 L 676.0401435939059 136.93339691522985 L 675.9189201313453 136.92787591666905 L 675.797661577101 136.9227227304398 L 675.6763686689683 136.9179364247259 L 675.5550421447422 136.91351606771116 L 675.4336827422179 136.90946072757933 L 675.3122911991903 136.9057694725143 L 675.1908682534548 136.90244137069982 L 675.0694146428065 136.89947549031973 L 674.9479311050402 136.89687089955783 L 674.8264183779513 136.8946266665979 L 674.7048771993348 136.8927418596238 L 674.5833083069858 136.8912155468193 L 674.4617124386996 136.89004679636824 L 674.3400903322712 136.88923467645438 L 674.2184427254956 136.88877825526157 L 674.096770356168 136.88867660097358 L 673.9750739620836 136.88892878177427 L 673.8533542810374 136.88953386584743 L 673.7316120508245 136.89049092137682 L 673.6098480092402 136.89179901654632 L 673.4880628940793 136.89345721953967 L 673.3662574431373 136.89546459854074 L 673.2444323942091 136.8978202217333 L 673.1225884850898 136.9005231573012 L 673.0007264535745 136.90357247342817 L 672.8788470374584 136.90696723829808 L 672.7569509745366 136.91070652009475 L 672.6350390026042 136.91478938700192 L 672.5131118594563 136.91921490720347 L 672.3911702828881 136.92398214888317 L 672.2692150106946 136.92909018022485 L 672.1472467806709 136.93453806941227 L 672.0252663306122 136.9403248846293 L 671.9032743983137 136.9464496940597 L 671.7812717215703 136.95291156588732 L 671.6592590381772 136.95970956829592 L 671.5372370859296 136.96684276946934 L 671.4152066026226 136.9743102375914 L 671.2931683260512 136.9821110408459 L 671.1711229940106 136.9902442474166 L 671.0490713442958 136.99870892548736 L 670.9270141147022 137.007504143242 L 670.9270141147022 137.007504143242 L 670.8235587668066 137.01677801224432 L 670.7200742715926 137.0261952144012 L 670.6165619442324 137.0357578856753 L 670.5130230998986 137.04546816202935 L 670.4094590537636 137.0553281794259 L 670.3058711209999 137.0653400738277 L 670.2022606167799 137.0755059811974 L 670.098628856276 137.08582803749763 L 669.9949771546609 137.09630837869108 L 669.8913068271069 137.1069491407404 L 669.7876191887864 137.11775245960825 L 669.6839155548719 137.1287204712573 L 669.5801972405359 137.13985531165022 L 669.4764655609508 137.15115911674965 L 669.3727218312891 137.1626340225183 L 669.2689673667232 137.1742821649188 L 669.1652034824258 137.1861056799138 L 669.061431493569 137.19810670346595 L 668.9576527153254 137.210287371538 L 668.8538684628675 137.2226498200925 L 668.7500800513677 137.2351961850922 L 668.6462887959985 137.2479286024997 L 668.5424960119324 137.26084920827773 L 668.4387030143417 137.2739601383889 L 668.3349111183991 137.2872635287959 L 668.2311216392768 137.30076151546137 L 668.1273358921474 137.31445623434797 L 668.0235551921833 137.3283498214184 L 667.9197808545571 137.3424444126353 L 667.816014194441 137.35674214396133 L 667.7122565270076 137.37124515135918 L 667.6085091674295 137.38595557079145 L 667.5047734308789 137.40087553822087 L 667.4010506325284 137.41600718961007 L 667.2973420875503 137.4313526609217 L 667.1936491111173 137.4469140881185 L 667.0899730184018 137.462693607163 L 666.9863151245761 137.478693354018 L 666.8826767448128 137.49491546464606 L 666.7790591942843 137.51136207500988 L 666.675463788163 137.52803532107217 L 666.5718918416216 137.5449373387955 L 666.4683446698322 137.56207026414262 L 666.3648235879675 137.57943623307614 L 666.2613299111999 137.59703738155875 L 666.1578649547018 137.6148758455531 L 666.0544300336459 137.63295376102184 L 665.9510264632042 137.65127326392766 L 665.8476555585496 137.66983649023322 L 665.7443186348544 137.68864557590118 L 665.6410170072909 137.70770265689416 L 665.5377519910318 137.72700986917488 L 665.4345249012493 137.746569348706 L 665.3313370531162 137.76638323145013 L 665.2281897618046 137.78645365337002 L 665.1250843424873 137.80678275042823 L 665.0220221103365 137.8273726585875 L 664.9190043805247 137.84822551381046 L 664.8160324682244 137.8693434520598 L 664.713107688608 137.89072860929815 L 664.6102313568481 137.91238312148818 L 664.507404788117 137.93430912459257 L 664.4046292975872 137.95650875457397 L 664.3019062004313 137.97898414739507 L 664.1992368118215 138.00173743901848 L 664.0966224469305 138.02477076540688 L 663.9940644209306 138.048086262523 L 663.8915640489943 138.0716860663294 L 663.789122646294 138.0955723127888 L 663.6867415280022 138.11974713786384 L 663.5844220092915 138.14421267751723 L 663.4821654053343 138.16897106771157 L 663.3799730313028 138.19402444440956 L 663.2778462023697 138.21937494357388 L 663.1757862337074 138.24502470116715 L 663.0737944404884 138.27097585315207 L 662.9718721378852 138.29723053549125 L 662.87002064107 138.3237908841474 L 662.7682412652155 138.3506590350832 L 662.6665353254941 138.37783712426125 L 662.5649041370782 138.40532728764427 L 662.4633490151404 138.4331316611949 L 662.3618712748529 138.46125238087578 L 662.2604722313885 138.4896915826496 L 662.1591531999193 138.51845140247903 L 662.057915495618 138.54753397632672 L 661.956760433657 138.57694144015534 L 661.8556893292088 138.60667592992755 L 661.7547034974457 138.636739581606 L 661.6538042535403 138.66713453115338 L 661.552992912665 138.69786291453232 L 661.4522707899923 138.7289268677055 L 661.3516392006945 138.7603285266356 L 661.2510994599444 138.79207002728526 L 661.1506528829141 138.82415350561715 L 661.0503007847763 138.8565810975939 L 660.9500444807032 138.88935493917825 L 660.8498852858675 138.92247716633278 L 660.7498245154416 138.95594991502023 L 660.6498634845979 138.9897753212032 L 660.6498634845979 138.9897753212032 L 660.591338883927 139.00977057672245 L 660.5328449624802 139.02990940826035 L 660.4743820720787 139.0501918094846 L 660.415950564544 139.07061777406292 L 660.3575507916978 139.09118729566305 L 660.2991831053614 139.11190036795267 L 660.2408478573565 139.13275698459955 L 660.1825453995044 139.15375713927136 L 660.1242760836268 139.17490082563586 L 660.066040261545 139.19618803736074 L 660.0078382850808 139.21761876811377 L 659.9496705060554 139.23919301156258 L 659.8915372762906 139.26091076137496 L 659.8334389476078 139.28277201121864 L 659.7753758718283 139.30477675476126 L 659.7173484007739 139.32692498567062 L 659.6593568862659 139.34921669761442 L 659.6014016801258 139.37165188426033 L 659.5434831341754 139.39423053927615 L 659.4856016002359 139.41695265632953 L 659.427757430129 139.43981822908822 L 659.369950975676 139.46282725121995 L 659.3121825886985 139.4859797163924 L 659.2544526210182 139.50927561827334 L 659.1967614244563 139.53271495053045 L 659.1391093508346 139.55629770683146 L 659.0814967519744 139.5800238808441 L 659.0239239796972 139.6038934662361 L 658.9663913858247 139.62790645667513 L 658.9088993221782 139.65206284582897 L 658.8514481405794 139.67636262736528 L 658.7940381928496 139.70080579495183 L 658.7366698308103 139.72539234225633 L 658.6793434062834 139.7501222629465 L 658.6220592710899 139.77499555069 L 658.5648177770516 139.80001219915462 L 658.50761927599 139.82517220200808 L 658.4504641197265 139.85047555291806 L 658.3933526600827 139.8759222455523 L 658.3362852488799 139.9015122735785 L 658.2792622379399 139.9272456306644 L 658.2222839790841 139.95312231047774 L 658.165350824134 139.97914230668619 L 658.1084631249109 140.0053056129575 L 658.0516212332367 140.03161222295938 L 657.9948255009327 140.05806213035956 L 657.9380762798204 140.08465532882576 L 657.8813739217213 140.1113918120257 L 657.8247187784569 140.13827157362704 L 657.7681112018488 140.1652946072976 L 657.7115515437185 140.19246090670504 L 657.6550401558874 140.21977046551706 L 657.5985773901771 140.24722327740145 L 657.542163598409 140.27481933602584 L 657.4857991324047 140.30255863505803 L 657.4294843439858 140.33044116816572 L 657.3732195849735 140.3584669290166 L 657.3170052071897 140.3866359112784 L 657.2608415624557 140.41494810861886 L 657.2047290025929 140.44340351470566 L 657.148667879423 140.47200212320658 L 657.0926585447673 140.50074392778927 L 657.0367013504476 140.5296289221215 L 656.9807966482853 140.55865709987097 L 656.9249447901018 140.5878284547054 L 656.8691461277186 140.61714298029253 L 656.8134010129573 140.64660067030002 L 656.7577097976394 140.67620151839566 L 656.7020728335865 140.70594551824715 L 656.6464904726199 140.73583266352216 L 656.5909630665612 140.76586294788848 L 656.5354909672319 140.7960363650138 L 656.4800745264536 140.8263529085658 L 656.4247140960476 140.85681257221228 L 656.3694100278357 140.8874153496209 L 656.3141626736392 140.9181612344594 L 656.2589723852795 140.9490502203955 L 656.2038395145785 140.9800823010969 L 656.1487644133574 141.01125747023136 L 656.0937474334377 141.04257572146656 L 656.038788926641 141.07403704847022 L 655.9838892447889 141.10564144491008 L 655.9290487397027 141.13738890445384 L 655.874267763204 141.16927942076927 L 655.8195466671144 141.201312987524 L 655.7648858032553 141.23348959838583 L 655.7102855234482 141.26580924702245 L 655.6557461795146 141.29827192710158 L 655.6012681232762 141.33087763229094 L 655.5468517065542 141.36362635625824 L 655.4924972811704 141.39651809267122 L 655.4382051989461 141.42955283519757 L 655.3839758117028 141.46273057750503 L 655.3298094712623 141.49605131326132 L 655.2757065294458 141.52951503613414 L 655.2216673380748 141.56312173979126 L 655.167692248971 141.59687141790033 L 655.1137816139558 141.63076406412912 L 655.0599357848507 141.66479967214534 L 655.0061551134773 141.6989782356167" stroke="rgb(132, 0, 0)" fill="none" stroke-width="1.407173457582px" stroke-linecap="round"/><path d="M 657.5602241900598 113.07696457038946 L 657.5602241900598 122.9600503454326 L 657.210330509832 122.9600503454326 L 657.210330509832 113.07696457038946" stroke="rgb(132, 0, 0)" fill="none" stroke-width="1.407173457582px" stroke-linecap="round"/><path d="M 652.4415040924941 117.83957831691221 L 662.3245898675373 117.83957831691221 L 662.3245898675373 118.18947199713999 L 652.4415040924941 118.18947199713998" stroke="rgb(132, 0, 0)" fill="none" stroke-width="1.407173457582px" stroke-linecap="round"/><text x="689.5768538532868" y="124.67586915808957" fill="rgb(15, 15, 15)" font-family="sans-serif" text-anchor="start" dominant-baseline="auto" font-size="12.664561118238px">C2</text><text x="689.5768538532868" y="145.5861653018196" fill="rgb(15, 15, 15)" font-family="sans-serif" text-anchor="start" dominant-baseline="hanging" font-size="12.664561118238px">10µF</text></g><g data-circuit-json-type="schematic_component" data-schematic-component-id="schematic_component_2"><rect class="component-overlay" x="810.6816109326561" y="100.87785408036251" width="37.23145970794553" height="74.46292645175845" fill="transparent"/><path d="M 829.297340786629 175.34078053212096 L 829.297340786629 143.69404048395393" stroke="rgb(132, 0, 0)" fill="none" stroke-width="1.407173457582px" stroke-linecap="round"/><path d="M 829.297340786629 132.5246011643968 L 829.297340786629 100.87785408036251" stroke="rgb(132, 0, 0)" fill="none" stroke-width="1.407173457582px" stroke-linecap="round"/><path d="M 847.9130706406016 143.6940404839539 L 810.6816109326561 143.69404048395393" stroke="rgb(132, 0, 0)" fill="none" stroke-width="1.407173457582px" stroke-linecap="round"/><path d="M 847.9130706406016 132.5246011643968 L 810.6816109326561 132.5246011643968" stroke="rgb(132, 0, 0)" fill="none" stroke-width="1.407173457582px" stroke-linecap="round"/><text x="842.818328778753" y="124.5816696799847" fill="rgb(15, 15, 15)" font-family="sans-serif" text-anchor="start" dominant-baseline="auto" font-size="12.664561118238px">C4</text><text x="842.818328778753" y="152.51347217162473" fill="rgb(15, 15, 15)" font-family="sans-serif" text-anchor="start" dominant-baseline="hanging" font-size="12.664561118238px">1µF</text></g><g data-circuit-json-type="schematic_component" data-schematic-component-id="schematic_component_3"><rect class="component chip" x="691.257796424975" y="318.56530848364997" width="105.53800931864998" height="70.35867287910003" stroke-width="1.407173457582px" fill="rgb(255, 255, 194)" stroke="rgb(132, 0, 0)"/><rect class="component-overlay" x="691.257796424975" y="318.56530848364997" width="105.53800931864998" height="70.35867287910003" fill="transparent"/><text x="691.257796424975" y="398.070608837033" fill="#006464" text-anchor="start" dominant-baseline="middle" font-family="sans-serif" font-size="12.664561118238px" transform="rotate(0, 691.257796424975, 398.070608837033)">MPL3115A2R1</text><text x="691.257796424975" y="309.418681009367" fill="#006464" text-anchor="start" dominant-baseline="middle" font-family="sans-serif" font-size="12.664561118238px" transform="rotate(0, 691.257796424975, 309.418681009367)">U1</text><line class="component-pin" x1="664.5215007309171" y1="332.63704305947" x2="691.257796424975" y2="332.63704305947" stroke-width="1.407173457582px"/><g data-schematic-port-id="source_port_6"><rect x="661.707153815753" y="331.22986960188797" width="2.814346915164" height="2.814346915164" opacity="0"/></g><text class="pin-number" x="677.1860618491551" y="331.22986960188797" style="font-family: sans-serif;" fill="rgb(169, 0, 0)" text-anchor="middle" dominant-baseline="auto" font-size="10.553800931865px" transform="">1</text><text class="pin-number" x="698.2936637128851" y="332.63704305947" style="font-family: sans-serif;" fill="rgb(169, 0, 0)" text-anchor="start" dominant-baseline="middle" font-size="10.553800931865px" transform="">VDD</text><line class="component-pin" x1="664.5215007309171" y1="346.70877763529" x2="691.257796424975" y2="346.70877763529" stroke-width="1.407173457582px"/><g data-schematic-port-id="source_port_7"><rect x="661.707153815753" y="345.301604177708" width="2.814346915164" height="2.814346915164" opacity="0"/></g><text class="pin-number" x="677.1860618491551" y="345.301604177708" style="font-family: sans-serif;" fill="rgb(169, 0, 0)" text-anchor="middle" dominant-baseline="auto" font-size="10.553800931865px" transform="">2</text><text class="pin-number" x="698.2936637128851" y="346.70877763529" style="font-family: sans-serif;" fill="rgb(169, 0, 0)" text-anchor="start" dominant-baseline="middle" font-size="10.553800931865px" transform="">CAP</text><line class="component-pin" x1="664.5215007309171" y1="360.78051221110996" x2="691.257796424975" y2="360.78051221110996" stroke-width="1.407173457582px"/><g data-schematic-port-id="source_port_8"><rect x="661.707153815753" y="359.37333875352795" width="2.814346915164" height="2.814346915164" opacity="0"/></g><text class="pin-number" x="677.1860618491551" y="359.373338753528" style="font-family: sans-serif;" fill="rgb(169, 0, 0)" text-anchor="middle" dominant-baseline="auto" font-size="10.553800931865px" transform="">3</text><text class="pin-number" x="698.2936637128851" y="360.78051221110996" style="font-family: sans-serif;" fill="rgb(169, 0, 0)" text-anchor="start" dominant-baseline="middle" font-size="10.553800931865px" transform="">GND</text><line class="component-pin" x1="664.5215007309171" y1="374.85224678693" x2="691.257796424975" y2="374.85224678693" stroke-width="1.407173457582px"/><g data-schematic-port-id="source_port_9"><rect x="661.707153815753" y="373.44507332934796" width="2.814346915164" height="2.814346915164" opacity="0"/></g><text class="pin-number" x="677.1860618491551" y="373.44507332934796" style="font-family: sans-serif;" fill="rgb(169, 0, 0)" text-anchor="middle" dominant-baseline="auto" font-size="10.553800931865px" transform="">4</text><text class="pin-number" x="698.2936637128851" y="374.85224678693" style="font-family: sans-serif;" fill="rgb(169, 0, 0)" text-anchor="start" dominant-baseline="middle" font-size="10.553800931865px" transform="">VDDIO</text><line class="component-pin" x1="823.532101437683" y1="374.85224678693" x2="796.795805743625" y2="374.85224678693" stroke-width="1.407173457582px"/><g data-schematic-port-id="source_port_10"><rect x="823.5321014376831" y="373.44507332934796" width="2.814346915164" height="2.814346915164" opacity="0"/></g><text class="pin-number" x="810.867540319445" y="373.44507332934796" style="font-family: sans-serif;" fill="rgb(169, 0, 0)" text-anchor="middle" dominant-baseline="auto" font-size="10.553800931865px" transform="">5</text><text class="pin-number" x="789.759938455715" y="374.85224678693" style="font-family: sans-serif;" fill="rgb(169, 0, 0)" text-anchor="end" dominant-baseline="middle" font-size="10.553800931865px" transform="">INT2</text><line class="component-pin" x1="823.532101437683" y1="360.78051221110996" x2="796.795805743625" y2="360.78051221110996" stroke-width="1.407173457582px"/><g data-schematic-port-id="source_port_11"><rect x="823.5321014376831" y="359.37333875352795" width="2.814346915164" height="2.814346915164" opacity="0"/></g><text class="pin-number" x="810.867540319445" y="359.373338753528" style="font-family: sans-serif;" fill="rgb(169, 0, 0)" text-anchor="middle" dominant-baseline="auto" font-size="10.553800931865px" transform="">6</text><text class="pin-number" x="789.759938455715" y="360.78051221110996" style="font-family: sans-serif;" fill="rgb(169, 0, 0)" text-anchor="end" dominant-baseline="middle" font-size="10.553800931865px" transform="">INT1</text><line class="component-pin" x1="823.532101437683" y1="346.70877763529" x2="796.795805743625" y2="346.70877763529" stroke-width="1.407173457582px"/><g data-schematic-port-id="source_port_12"><rect x="823.5321014376831" y="345.301604177708" width="2.814346915164" height="2.814346915164" opacity="0"/></g><text class="pin-number" x="810.867540319445" y="345.301604177708" style="font-family: sans-serif;" fill="rgb(169, 0, 0)" text-anchor="middle" dominant-baseline="auto" font-size="10.553800931865px" transform="">7</text><text class="pin-number" x="789.759938455715" y="346.70877763529" style="font-family: sans-serif;" fill="rgb(169, 0, 0)" text-anchor="end" dominant-baseline="middle" font-size="10.553800931865px" transform="">SDA</text><line class="component-pin" x1="823.532101437683" y1="332.63704305947" x2="796.795805743625" y2="332.63704305947" stroke-width="1.407173457582px"/><g data-schematic-port-id="source_port_13"><rect x="823.5321014376831" y="331.22986960188797" width="2.814346915164" height="2.814346915164" opacity="0"/></g><text class="pin-number" x="810.867540319445" y="331.22986960188797" style="font-family: sans-serif;" fill="rgb(169, 0, 0)" text-anchor="middle" dominant-baseline="auto" font-size="10.553800931865px" transform="">8</text><text class="pin-number" x="789.759938455715" y="332.63704305947" style="font-family: sans-serif;" fill="rgb(169, 0, 0)" text-anchor="end" dominant-baseline="middle" font-size="10.553800931865px" transform="">SCL</text></g><g data-circuit-json-type="schematic_component" data-schematic-component-id="schematic_component_4"><rect class="component-overlay" x="868.4446983763139" y="225.03395040488016" width="18.615736889840036" height="74.46292645175839" fill="transparent"/><path d="M 877.7525668212339 225.03395040488016 L 877.7525668212339 243.6496802588529" stroke="rgb(132, 0, 0)" fill="none" stroke-width="1.407173457582px" stroke-linecap="round"/><path d="M 877.7525668212339 280.8811399667985 L 877.7525668212339 299.49687685663855" stroke="rgb(132, 0, 0)" fill="none" stroke-width="1.407173457582px" stroke-linecap="round"/><path d="M 887.060435266154 262.2654030769584 L 887.060435266154 280.88113293093113 L 868.4446983763139 280.88113293093113 L 868.4446983763139 243.64966618711824 L 887.060435266154 243.64966618711824 L 887.060435266154 262.26540307695825" stroke="rgb(132, 0, 0)" fill="none" stroke-width="1.407173457582px" stroke-linecap="round"/><text x="890.6488858900018" y="249.78970574432972" fill="rgb(15, 15, 15)" font-family="sans-serif" text-anchor="start" dominant-baseline="middle" font-size="12.664561118238px">R1</text><text x="890.6488858900018" y="272.3044810656417" fill="rgb(15, 15, 15)" font-family="sans-serif" text-anchor="start" dominant-baseline="middle" font-size="12.664561118238px">1kΩ</text></g><g data-circuit-json-type="schematic_component" data-schematic-component-id="schematic_component_5"><rect class="component-overlay" x="917.6957693916838" y="225.03395040488016" width="18.615736889840036" height="74.46292645175839" fill="transparent"/><path d="M 927.0036378366038 225.03395040488016 L 927.0036378366038 243.6496802588529" stroke="rgb(132, 0, 0)" fill="none" stroke-width="1.407173457582px" stroke-linecap="round"/><path d="M 927.0036378366038 280.8811399667985 L 927.0036378366038 299.49687685663855" stroke="rgb(132, 0, 0)" fill="none" stroke-width="1.407173457582px" stroke-linecap="round"/><path d="M 936.3115062815239 262.2654030769584 L 936.3115062815239 280.88113293093113 L 917.6957693916838 280.88113293093113 L 917.6957693916838 243.64966618711824 L 936.3115062815239 243.64966618711824 L 936.3115062815239 262.26540307695825" stroke="rgb(132, 0, 0)" fill="none" stroke-width="1.407173457582px" stroke-linecap="round"/><text x="939.8999569053717" y="249.78970574432972" fill="rgb(15, 15, 15)" font-family="sans-serif" text-anchor="start" dominant-baseline="middle" font-size="12.664561118238px">R2</text><text x="939.8999569053717" y="272.3044810656417" fill="rgb(15, 15, 15)" font-family="sans-serif" text-anchor="start" dominant-baseline="middle" font-size="12.664561118238px">1kΩ</text></g><g data-circuit-json-type="schematic_component" data-schematic-component-id="schematic_component_6"><rect class="component-overlay" x="521.415207147581" y="365.32599909312785" width="37.23145970794553" height="74.46292645175839" fill="transparent"/><path d="M 540.0309370015539 439.78892554488624 L 540.0309370015539 408.14218549671926" stroke="rgb(132, 0, 0)" fill="none" stroke-width="1.407173457582px" stroke-linecap="round"/><path d="M 540.0309370015539 396.9727461771621 L 540.0309370015539 365.32599909312785" stroke="rgb(132, 0, 0)" fill="none" stroke-width="1.407173457582px" stroke-linecap="round"/><path d="M 558.6466668555265 408.1421854967192 L 521.415207147581 408.14218549671926" stroke="rgb(132, 0, 0)" fill="none" stroke-width="1.407173457582px" stroke-linecap="round"/><path d="M 558.6466668555265 396.9727461771621 L 521.415207147581 396.9727461771621" stroke="rgb(132, 0, 0)" fill="none" stroke-width="1.407173457582px" stroke-linecap="round"/><text x="553.5519249936779" y="389.02981469275" fill="rgb(15, 15, 15)" font-family="sans-serif" text-anchor="start" dominant-baseline="auto" font-size="12.664561118238px">C3</text><text x="553.5519249936779" y="416.96161718439004" fill="rgb(15, 15, 15)" font-family="sans-serif" text-anchor="start" dominant-baseline="hanging" font-size="12.664561118238px">100nF</text></g><g data-circuit-json-type="schematic_component" data-schematic-component-id="schematic_component_7"><rect class="component chip" x="364.0899675371601" y="234.13490102872998" width="42.21520372745994" height="98.50214203074" stroke-width="1.407173457582px" fill="rgb(255, 255, 194)" stroke="rgb(132, 0, 0)"/><rect class="component-overlay" x="364.0899675371601" y="234.13490102872998" width="42.21520372745994" height="98.50214203074" fill="transparent"/><text x="364.0899675371601" y="341.78367053375297" fill="#006464" text-anchor="start" dominant-baseline="middle" font-family="sans-serif" font-size="12.664561118238px" transform="rotate(0, 364.0899675371601, 341.78367053375297)">M06SIP</text><text x="364.0899675371601" y="224.98827355444698" fill="#006464" text-anchor="start" dominant-baseline="middle" font-family="sans-serif" font-size="12.664561118238px" transform="rotate(0, 364.0899675371601, 224.98827355444698)">JP4</text><line class="component-pin" x1="337.353671843102" y1="248.20663560455" x2="364.0899675371601" y2="248.20663560455" stroke-width="1.407173457582px"/><g data-schematic-port-id="source_port_20"><rect x="334.539324927938" y="246.799462146968" width="2.814346915164" height="2.814346915164" opacity="0"/></g><text class="pin-number" x="350.01823296134006" y="246.79946214696798" style="font-family: sans-serif;" fill="rgb(169, 0, 0)" text-anchor="middle" dominant-baseline="auto" font-size="10.553800931865px" transform="">1</text><text class="pin-number" x="371.12583482507006" y="248.20663560455" style="font-family: sans-serif;" fill="rgb(169, 0, 0)" text-anchor="start" dominant-baseline="middle" font-size="10.553800931865px" transform="">INT2</text><line class="component-pin" x1="337.353671843102" y1="262.27837018036996" x2="364.0899675371601" y2="262.27837018036996" stroke-width="1.407173457582px"/><g data-schematic-port-id="source_port_21"><rect x="334.539324927938" y="260.87119672278794" width="2.814346915164" height="2.814346915164" opacity="0"/></g><text class="pin-number" x="350.01823296134006" y="260.871196722788" style="font-family: sans-serif;" fill="rgb(169, 0, 0)" text-anchor="middle" dominant-baseline="auto" font-size="10.553800931865px" transform="">2</text><text class="pin-number" x="371.12583482507006" y="262.27837018036996" style="font-family: sans-serif;" fill="rgb(169, 0, 0)" text-anchor="start" dominant-baseline="middle" font-size="10.553800931865px" transform="">INT1</text><line class="component-pin" x1="337.353671843102" y1="276.35010475619" x2="364.0899675371601" y2="276.35010475619" stroke-width="1.407173457582px"/><g data-schematic-port-id="source_port_22"><rect x="334.539324927938" y="274.94293129860796" width="2.814346915164" height="2.814346915164" opacity="0"/></g><text class="pin-number" x="350.01823296134006" y="274.94293129860796" style="font-family: sans-serif;" fill="rgb(169, 0, 0)" text-anchor="middle" dominant-baseline="auto" font-size="10.553800931865px" transform="">3</text><text class="pin-number" x="371.12583482507006" y="276.35010475619" style="font-family: sans-serif;" fill="rgb(169, 0, 0)" text-anchor="start" dominant-baseline="middle" font-size="10.553800931865px" transform="">SDA</text><line class="component-pin" x1="337.353671843102" y1="290.42183933201" x2="364.0899675371601" y2="290.42183933201" stroke-width="1.407173457582px"/><g data-schematic-port-id="source_port_23"><rect x="334.539324927938" y="289.014665874428" width="2.814346915164" height="2.814346915164" opacity="0"/></g><text class="pin-number" x="350.01823296134006" y="289.014665874428" style="font-family: sans-serif;" fill="rgb(169, 0, 0)" text-anchor="middle" dominant-baseline="auto" font-size="10.553800931865px" transform="">4</text><text class="pin-number" x="371.12583482507006" y="290.42183933201" style="font-family: sans-serif;" fill="rgb(169, 0, 0)" text-anchor="start" dominant-baseline="middle" font-size="10.553800931865px" transform="">SCL</text><line class="component-pin" x1="337.353671843102" y1="304.49357390783" x2="364.0899675371601" y2="304.49357390783" stroke-width="1.407173457582px"/><g data-schematic-port-id="source_port_24"><rect x="334.539324927938" y="303.086400450248" width="2.814346915164" height="2.814346915164" opacity="0"/></g><text class="pin-number" x="350.01823296134006" y="303.086400450248" style="font-family: sans-serif;" fill="rgb(169, 0, 0)" text-anchor="middle" dominant-baseline="auto" font-size="10.553800931865px" transform="">5</text><text class="pin-number" x="371.12583482507006" y="304.49357390783" style="font-family: sans-serif;" fill="rgb(169, 0, 0)" text-anchor="start" dominant-baseline="middle" font-size="10.553800931865px" transform="">VCC</text><line class="component-pin" x1="337.353671843102" y1="318.56530848364997" x2="364.0899675371601" y2="318.56530848364997" stroke-width="1.407173457582px"/><g data-schematic-port-id="source_port_25"><rect x="334.539324927938" y="317.15813502606795" width="2.814346915164" height="2.814346915164" opacity="0"/></g><text class="pin-number" x="350.01823296134006" y="317.15813502606795" style="font-family: sans-serif;" fill="rgb(169, 0, 0)" text-anchor="middle" dominant-baseline="auto" font-size="10.553800931865px" transform="">6</text><text class="pin-number" x="371.12583482507006" y="318.56530848364997" style="font-family: sans-serif;" fill="rgb(169, 0, 0)" text-anchor="start" dominant-baseline="middle" font-size="10.553800931865px" transform="">GND</text></g><g class="trace" data-circuit-json-type="schematic_trace" data-schematic-trace-id="schematic_trace_0"><path d="M 673.6873607484315 169.2828004314417 L 673.6873607484315 184.36484982445762 L 744.0366014687834 184.36484982445762 L 744.0366014687834 177.32992575242244" class="trace-invisible-hover-outline" stroke="rgb(0, 150, 0)" fill="none" stroke-width="11.257387660656px" stroke-linecap="round" opacity="0" stroke-linejoin="round"/><path d="M 673.6873607484315 169.2828004314417 L 673.6873607484315 184.36484982445762 L 744.0366014687834 184.36484982445762 L 744.0366014687834 177.32992575242244" stroke="rgb(0, 150, 0)" fill="none" stroke-width="1.407173457582px" stroke-linecap="round" stroke-linejoin="round"/></g><g class="trace" data-circuit-json-type="schematic_trace" data-schematic-trace-id="schematic_trace_1"><path d="M 743.9981363823204 99.765216099187 L 744.0268010843 99.765216099187 L 744.0268010843 72.30995340679999" class="trace-invisible-hover-outline" stroke="rgb(0, 150, 0)" fill="none" stroke-width="11.257387660656px" stroke-linecap="round" opacity="0" stroke-linejoin="round"/><path d="M 743.9981363823204 99.765216099187 L 744.0268010843 99.765216099187 L 744.0268010843 72.30995340679999" stroke="rgb(0, 150, 0)" fill="none" stroke-width="1.407173457582px" stroke-linecap="round" stroke-linejoin="round"/></g><g class="trace" data-circuit-json-type="schematic_trace" data-schematic-trace-id="schematic_trace_2"><path d="M 673.6488956619685 99.87195737816523 L 744.0268010843 99.87195737816523 L 744.0268010843 72.30995340679999" class="trace-invisible-hover-outline" stroke="rgb(0, 150, 0)" fill="none" stroke-width="11.257387660656px" stroke-linecap="round" opacity="0" stroke-linejoin="round"/><path d="M 673.6488956619685 99.87195737816523 L 744.0268010843 99.87195737816523 L 744.0268010843 72.30995340679999" stroke="rgb(0, 150, 0)" fill="none" stroke-width="1.407173457582px" stroke-linecap="round" stroke-linejoin="round"/></g><g class="trace" data-circuit-json-type="schematic_trace" data-schematic-trace-id="schematic_trace_3"><path d="M 829.2338209767537 99.765216099187 L 744.0268010843 99.765216099187 L 744.0268010843 72.30995340679999" class="trace-invisible-hover-outline" stroke="rgb(0, 150, 0)" fill="none" stroke-width="11.257387660656px" stroke-linecap="round" opacity="0" stroke-linejoin="round"/><path d="M 829.2338209767537 99.765216099187 L 744.0268010843 99.765216099187 L 744.0268010843 72.30995340679999" stroke="rgb(0, 150, 0)" fill="none" stroke-width="1.407173457582px" stroke-linecap="round" stroke-linejoin="round"/></g><g class="trace" data-circuit-json-type="schematic_trace" data-schematic-trace-id="schematic_trace_4"><path d="M 744.0366014687834 177.32992575242244 L 744.0268010843 177.32992575242244 L 744.0268010843 205.99143187708998" class="trace-invisible-hover-outline" stroke="rgb(0, 150, 0)" fill="none" stroke-width="11.257387660656px" stroke-linecap="round" opacity="0" stroke-linejoin="round"/><path d="M 744.0366014687834 177.32992575242244 L 744.0268010843 177.32992575242244 L 744.0268010843 205.99143187708998" stroke="rgb(0, 150, 0)" fill="none" stroke-width="1.407173457582px" stroke-linecap="round" stroke-linejoin="round"/></g><g class="trace" data-circuit-json-type="schematic_trace" data-schematic-trace-id="schematic_trace_5"><path d="M 829.2722860632167 177.32992575242244 L 744.0268010843 177.32992575242244 L 744.0268010843 205.99143187708998" class="trace-invisible-hover-outline" stroke="rgb(0, 150, 0)" fill="none" stroke-width="11.257387660656px" stroke-linecap="round" opacity="0" stroke-linejoin="round"/><path d="M 829.2722860632167 177.32992575242244 L 744.0268010843 177.32992575242244 L 744.0268010843 205.99143187708998" stroke="rgb(0, 150, 0)" fill="none" stroke-width="1.407173457582px" stroke-linecap="round" stroke-linejoin="round"/></g><g class="trace" data-circuit-json-type="schematic_trace" data-schematic-trace-id="schematic_trace_6"><path d="M 539.9674171916786 364.2133611119523 L 539.9674171916786 346.70877763529 L 663.114327273335 346.70877763529" class="trace-invisible-hover-outline" stroke="rgb(0, 150, 0)" fill="none" stroke-width="11.257387660656px" stroke-linecap="round" opacity="0" stroke-linejoin="round"/><path d="M 539.9674171916786 364.2133611119523 L 539.9674171916786 346.70877763529 L 663.114327273335 346.70877763529" stroke="rgb(0, 150, 0)" fill="none" stroke-width="1.407173457582px" stroke-linecap="round" stroke-linejoin="round"/></g><g class="trace" data-circuit-json-type="schematic_trace" data-schematic-trace-id="schematic_trace_7"><path d="M 877.7275050619542 223.4902881577799 L 919.92348328205 223.4902881577799 L 919.92348328205 213.027299165" class="trace-invisible-hover-outline" stroke="rgb(0, 150, 0)" fill="none" stroke-width="11.257387660656px" stroke-linecap="round" opacity="0" stroke-linejoin="round"/><path d="M 877.7275050619542 223.4902881577799 L 919.92348328205 223.4902881577799 L 919.92348328205 213.027299165" stroke="rgb(0, 150, 0)" fill="none" stroke-width="1.407173457582px" stroke-linecap="round" stroke-linejoin="round"/></g><g class="trace" data-circuit-json-type="schematic_trace" data-schematic-trace-id="schematic_trace_8"><path d="M 926.9785760773242 223.4902881577799 L 919.92348328205 223.4902881577799 L 919.92348328205 213.027299165" class="trace-invisible-hover-outline" stroke="rgb(0, 150, 0)" fill="none" stroke-width="11.257387660656px" stroke-linecap="round" opacity="0" stroke-linejoin="round"/><path d="M 926.9785760773242 223.4902881577799 L 919.92348328205 223.4902881577799 L 919.92348328205 213.027299165" stroke="rgb(0, 150, 0)" fill="none" stroke-width="1.407173457582px" stroke-linecap="round" stroke-linejoin="round"/></g><g class="trace" data-circuit-json-type="schematic_trace" data-schematic-trace-id="schematic_trace_9"><path d="M 663.114327273335 332.63704305947 L 638.48879176565 332.63704305947 L 638.48879176565 311.52944119574" class="trace-invisible-hover-outline" stroke="rgb(0, 150, 0)" fill="none" stroke-width="11.257387660656px" stroke-linecap="round" opacity="0" stroke-linejoin="round"/><path d="M 663.114327273335 332.63704305947 L 638.48879176565 332.63704305947 L 638.48879176565 311.52944119574" stroke="rgb(0, 150, 0)" fill="none" stroke-width="1.407173457582px" stroke-linecap="round" stroke-linejoin="round"/></g><g class="trace" data-circuit-json-type="schematic_trace" data-schematic-trace-id="schematic_trace_10"><path d="M 663.114327273335 374.85224678693 L 638.48879176565 374.85224678693 L 638.48879176565 311.52944119574" class="trace-invisible-hover-outline" stroke="rgb(0, 150, 0)" fill="none" stroke-width="11.257387660656px" stroke-linecap="round" opacity="0" stroke-linejoin="round"/><path d="M 663.114327273335 374.85224678693 L 638.48879176565 374.85224678693 L 638.48879176565 311.52944119574" stroke="rgb(0, 150, 0)" fill="none" stroke-width="1.407173457582px" stroke-linecap="round" stroke-linejoin="round"/></g><g class="trace" data-circuit-json-type="schematic_trace" data-schematic-trace-id="schematic_trace_11"><path d="M 663.114327273335 360.78051221110996 L 610.34532261401 360.78051221110996 L 610.34532261401 388.92398136275" class="trace-invisible-hover-outline" stroke="rgb(0, 150, 0)" fill="none" stroke-width="11.257387660656px" stroke-linecap="round" opacity="0" stroke-linejoin="round"/><path d="M 663.114327273335 360.78051221110996 L 610.34532261401 360.78051221110996 L 610.34532261401 388.92398136275" stroke="rgb(0, 150, 0)" fill="none" stroke-width="1.407173457582px" stroke-linecap="round" stroke-linejoin="round"/></g><g class="trace" data-circuit-json-type="schematic_trace" data-schematic-trace-id="schematic_trace_12"><path d="M 540.0058822781416 441.7780707651877 L 540.0058822781416 441.7780707651877" class="trace-invisible-hover-outline" stroke="rgb(0, 150, 0)" fill="none" stroke-width="11.257387660656px" stroke-linecap="round" opacity="0" stroke-linejoin="round"/><path d="M 540.0058822781416 441.7780707651877 L 540.0058822781416 441.7780707651877" stroke="rgb(0, 150, 0)" fill="none" stroke-width="1.407173457582px" stroke-linecap="round" stroke-linejoin="round"/></g><g class="trace" data-circuit-json-type="schematic_trace" data-schematic-trace-id="schematic_trace_13"><path d="M 335.94649838552004 248.20663560455 L 300.76716194597003 248.20663560455" class="trace-invisible-hover-outline" stroke="rgb(0, 150, 0)" fill="none" stroke-width="11.257387660656px" stroke-linecap="round" opacity="0" stroke-linejoin="round"/><path d="M 335.94649838552004 248.20663560455 L 300.76716194597003 248.20663560455" stroke="rgb(0, 150, 0)" fill="none" stroke-width="1.407173457582px" stroke-linecap="round" stroke-linejoin="round"/></g><g class="trace" data-circuit-json-type="schematic_trace" data-schematic-trace-id="schematic_trace_14"><path d="M 335.94649838552004 262.27837018036996 L 300.76716194597003 262.27837018036996" class="trace-invisible-hover-outline" stroke="rgb(0, 150, 0)" fill="none" stroke-width="11.257387660656px" stroke-linecap="round" opacity="0" stroke-linejoin="round"/><path d="M 335.94649838552004 262.27837018036996 L 300.76716194597003 262.27837018036996" stroke="rgb(0, 150, 0)" fill="none" stroke-width="1.407173457582px" stroke-linecap="round" stroke-linejoin="round"/></g><g class="trace" data-circuit-json-type="schematic_trace" data-schematic-trace-id="schematic_trace_15"><path d="M 335.94649838552004 276.35010475619 L 300.76716194597003 276.35010475619" class="trace-invisible-hover-outline" stroke="rgb(0, 150, 0)" fill="none" stroke-width="11.257387660656px" stroke-linecap="round" opacity="0" stroke-linejoin="round"/><path d="M 335.94649838552004 276.35010475619 L 300.76716194597003 276.35010475619" stroke="rgb(0, 150, 0)" fill="none" stroke-width="1.407173457582px" stroke-linecap="round" stroke-linejoin="round"/></g><g class="trace" data-circuit-json-type="schematic_trace" data-schematic-trace-id="schematic_trace_16"><path d="M 335.94649838552004 290.42183933201 L 300.76716194597003 290.42183933201 L 300.76716194597003 290.42183933201" class="trace-invisible-hover-outline" stroke="rgb(0, 150, 0)" fill="none" stroke-width="11.257387660656px" stroke-linecap="round" opacity="0" stroke-linejoin="round"/><path d="M 335.94649838552004 290.42183933201 L 300.76716194597003 290.42183933201 L 300.76716194597003 290.42183933201" stroke="rgb(0, 150, 0)" fill="none" stroke-width="1.407173457582px" stroke-linecap="round" stroke-linejoin="round"/></g><g class="trace" data-circuit-json-type="schematic_trace" data-schematic-trace-id="schematic_trace_17"><path d="M 335.94649838552004 304.49357390783 L 321.8747638097 304.49357390783 L 321.8747638097 220.06316645291" class="trace-invisible-hover-outline" stroke="rgb(0, 150, 0)" fill="none" stroke-width="11.257387660656px" stroke-linecap="round" opacity="0" stroke-linejoin="round"/><path d="M 335.94649838552004 304.49357390783 L 321.8747638097 304.49357390783 L 321.8747638097 220.06316645291" stroke="rgb(0, 150, 0)" fill="none" stroke-width="1.407173457582px" stroke-linecap="round" stroke-linejoin="round"/></g><g class="trace" data-circuit-json-type="schematic_trace" data-schematic-trace-id="schematic_trace_18"><path d="M 335.94649838552004 318.56530848364997 L 321.8747638097 318.56530848364997 L 321.8747638097 339.67291034737997" class="trace-invisible-hover-outline" stroke="rgb(0, 150, 0)" fill="none" stroke-width="11.257387660656px" stroke-linecap="round" opacity="0" stroke-linejoin="round"/><path d="M 335.94649838552004 318.56530848364997 L 321.8747638097 318.56530848364997 L 321.8747638097 339.67291034737997" stroke="rgb(0, 150, 0)" fill="none" stroke-width="1.407173457582px" stroke-linecap="round" stroke-linejoin="round"/></g><g class="schematic-port-hover" data-schematic-port-id="source_port_0"><circle cx="743.9981363823204" cy="99.765216099187" r="2.814346915164" fill="red" opacity="0"/></g><g class="schematic-port-hover" data-schematic-port-id="source_port_1"><circle cx="744.0366014687834" cy="177.32992575242244" r="2.814346915164" fill="red" opacity="0"/></g><g class="schematic-port-hover" data-schematic-port-id="source_port_2"><circle cx="673.6873607484315" cy="169.2828004314417" r="2.814346915164" fill="red" opacity="0"/></g><g class="schematic-port-hover" data-schematic-port-id="source_port_3"><circle cx="673.6488956619685" cy="99.87195737816523" r="2.814346915164" fill="red" opacity="0"/></g><g class="schematic-port-hover" data-schematic-port-id="source_port_4"><circle cx="829.2338209767537" cy="99.765216099187" r="2.814346915164" fill="red" opacity="0"/></g><g class="schematic-port-hover" data-schematic-port-id="source_port_5"><circle cx="829.2722860632167" cy="177.32992575242244" r="2.814346915164" fill="red" opacity="0"/></g><g class="schematic-port-hover" data-schematic-port-id="source_port_6"><circle cx="663.114327273335" cy="332.63704305947" r="2.814346915164" fill="red" opacity="0"/></g><g class="schematic-port-hover" data-schematic-port-id="source_port_7"><circle cx="663.114327273335" cy="346.70877763529" r="2.814346915164" fill="red" opacity="0"/></g><g class="schematic-port-hover" data-schematic-port-id="source_port_8"><circle cx="663.114327273335" cy="360.78051221110996" r="2.814346915164" fill="red" opacity="0"/></g><g class="schematic-port-hover" data-schematic-port-id="source_port_9"><circle cx="663.114327273335" cy="374.85224678693" r="2.814346915164" fill="red" opacity="0"/></g><g class="schematic-port-hover" data-schematic-port-id="source_port_10"><circle cx="824.939274895265" cy="374.85224678693" r="2.814346915164" fill="red" opacity="0"/></g><g class="schematic-port-hover" data-schematic-port-id="source_port_11"><circle cx="824.939274895265" cy="360.78051221110996" r="2.814346915164" fill="red" opacity="0"/></g><g class="schematic-port-hover" data-schematic-port-id="source_port_12"><circle cx="824.939274895265" cy="346.70877763529" r="2.814346915164" fill="red" opacity="0"/></g><g class="schematic-port-hover" data-schematic-port-id="source_port_13"><circle cx="824.939274895265" cy="332.63704305947" r="2.814346915164" fill="red" opacity="0"/></g><g class="schematic-port-hover" data-schematic-port-id="source_port_14"><circle cx="877.7275050619542" cy="223.4902881577799" r="2.814346915164" fill="red" opacity="0"/></g><g class="schematic-port-hover" data-schematic-port-id="source_port_15"><circle cx="877.6890540472259" cy="301.0664522029601" r="2.814346915164" fill="red" opacity="0"/></g><g class="schematic-port-hover" data-schematic-port-id="source_port_16"><circle cx="926.9785760773242" cy="223.4902881577799" r="2.814346915164" fill="red" opacity="0"/></g><g class="schematic-port-hover" data-schematic-port-id="source_port_17"><circle cx="926.9401250625958" cy="301.0664522029601" r="2.814346915164" fill="red" opacity="0"/></g><g class="schematic-port-hover" data-schematic-port-id="source_port_18"><circle cx="539.9674171916786" cy="364.2133611119523" r="2.814346915164" fill="red" opacity="0"/></g><g class="schematic-port-hover" data-schematic-port-id="source_port_19"><circle cx="540.0058822781416" cy="441.7780707651877" r="2.814346915164" fill="red" opacity="0"/></g><g class="schematic-port-hover" data-schematic-port-id="source_port_20"><circle cx="335.94649838552004" cy="248.20663560455" r="2.814346915164" fill="red" opacity="0"/></g><g class="schematic-port-hover" data-schematic-port-id="source_port_21"><circle cx="335.94649838552004" cy="262.27837018036996" r="2.814346915164" fill="red" opacity="0"/></g><g class="schematic-port-hover" data-schematic-port-id="source_port_22"><circle cx="335.94649838552004" cy="276.35010475619" r="2.814346915164" fill="red" opacity="0"/></g><g class="schematic-port-hover" data-schematic-port-id="source_port_23"><circle cx="335.94649838552004" cy="290.42183933201" r="2.814346915164" fill="red" opacity="0"/></g><g class="schematic-port-hover" data-schematic-port-id="source_port_24"><circle cx="335.94649838552004" cy="304.49357390783" r="2.814346915164" fill="red" opacity="0"/></g><g class="schematic-port-hover" data-schematic-port-id="source_port_25"><circle cx="335.94649838552004" cy="318.56530848364997" r="2.814346915164" fill="red" opacity="0"/></g><rect class="component-overlay" x="737.4563212381488" y="42.44210575676982" width="13.036019731703163" height="28.816231745842728" fill="transparent"/><path d="M 743.8713506324411 42.44210575676982 L 737.4563212381488 55.885586634850505" stroke="rgb(132, 0, 0)" fill="none" stroke-width="1.407173457582px" stroke-linecap="round"/><path d="M 744.07731157556 42.44911348058858 L 750.492340969852 55.89262953800571" stroke="rgb(132, 0, 0)" fill="none" stroke-width="1.407173457582px" stroke-linecap="round"/><path d="M 743.9455860681958 42.79683307782442 L 743.9455860681958 71.25833750261255" stroke="rgb(132, 0, 0)" fill="none" stroke-width="1.407173457582px" stroke-linecap="round"/><text x="743.6308787602748" y="38.31900309564717" fill="rgb(15, 15, 15)" font-family="sans-serif" text-anchor="middle" dominant-baseline="ideographic" font-size="12.664561118238px">VCC</text><rect class="component-overlay" x="727.827420240616" y="205.91519825502547" width="31.61365036431198" height="34.013451014739616" fill="transparent"/><path d="M 743.9503774938188 205.91519825502547 L 743.9503774938188 229.107766815651" stroke="rgb(132, 0, 0)" fill="none" stroke-width="1.407173457582px" stroke-linecap="round"/><path d="M 727.827420240616 229.10545905118056 L 759.441070604928 229.10545905118056" stroke="rgb(132, 0, 0)" fill="none" stroke-width="1.407173457582px" stroke-linecap="round"/><path d="M 731.7791291746053 234.51705416047287 L 755.4893616709387 234.51705416047287" stroke="rgb(132, 0, 0)" fill="none" stroke-width="1.407173457582px" stroke-linecap="round"/><path d="M 739.6825400067165 239.9286492697651 L 747.5859508388277 239.9286492697651" stroke="rgb(132, 0, 0)" fill="none" stroke-width="1.407173457582px" stroke-linecap="round"/><text x="742.4351894016328" y="248.1698239468996" fill="rgb(15, 15, 15)" font-family="sans-serif" text-anchor="middle" dominant-baseline="hanging" font-size="12.664561118238px">GND</text><rect class="component-overlay" x="913.3530034358988" y="183.15945151496982" width="13.036019731703163" height="28.816231745842714" fill="transparent"/><path d="M 919.7680328301911 183.15945151496982 L 913.3530034358988 196.6029323930505" stroke="rgb(132, 0, 0)" fill="none" stroke-width="1.407173457582px" stroke-linecap="round"/><path d="M 919.97399377331 183.16645923878858 L 926.389023167602 196.6099752962057" stroke="rgb(132, 0, 0)" fill="none" stroke-width="1.407173457582px" stroke-linecap="round"/><path d="M 919.8422682659458 183.5141788360244 L 919.8422682659458 211.97568326081253" stroke="rgb(132, 0, 0)" fill="none" stroke-width="1.407173457582px" stroke-linecap="round"/><text x="919.5275609580248" y="179.03634885384716" fill="rgb(15, 15, 15)" font-family="sans-serif" text-anchor="middle" dominant-baseline="ideographic" font-size="12.664561118238px">VCC</text><rect class="component-overlay" x="631.9183119194988" y="281.6615935457098" width="13.036019731703163" height="28.816231745842742" fill="transparent"/><path d="M 638.3333413137912 281.6615935457098 L 631.9183119194988 295.1050744237905" stroke="rgb(132, 0, 0)" fill="none" stroke-width="1.407173457582px" stroke-linecap="round"/><path d="M 638.53930225691 281.66860126952855 L 644.954331651202 295.11211732694574" stroke="rgb(132, 0, 0)" fill="none" stroke-width="1.407173457582px" stroke-linecap="round"/><path d="M 638.4075767495458 282.01632086676443 L 638.4075767495458 310.47782529155256" stroke="rgb(132, 0, 0)" fill="none" stroke-width="1.407173457582px" stroke-linecap="round"/><text x="638.0928694416248" y="277.5384908845872" fill="rgb(15, 15, 15)" font-family="sans-serif" text-anchor="middle" dominant-baseline="ideographic" font-size="12.664561118238px">VCC</text><rect class="component-overlay" x="594.145941770326" y="388.84774774068546" width="31.61365036431198" height="34.013451014739644" fill="transparent"/><path d="M 610.2688990235288 388.84774774068546 L 610.2688990235288 412.04031630131095" stroke="rgb(132, 0, 0)" fill="none" stroke-width="1.407173457582px" stroke-linecap="round"/><path d="M 594.145941770326 412.03800853684055 L 625.759592134638 412.03800853684055" stroke="rgb(132, 0, 0)" fill="none" stroke-width="1.407173457582px" stroke-linecap="round"/><path d="M 598.0976507043154 417.44960364613286 L 621.8078832006487 417.44960364613286" stroke="rgb(132, 0, 0)" fill="none" stroke-width="1.407173457582px" stroke-linecap="round"/><path d="M 606.0010615364265 422.8611987554251 L 613.9044723685377 422.8611987554251" stroke="rgb(132, 0, 0)" fill="none" stroke-width="1.407173457582px" stroke-linecap="round"/><text x="608.7537109313428" y="431.1023734325596" fill="rgb(15, 15, 15)" font-family="sans-serif" text-anchor="middle" dominant-baseline="hanging" font-size="12.664561118238px">GND</text><rect class="component-overlay" x="523.8065014344575" y="441.70183714312316" width="31.61365036431198" height="34.013451014739644" fill="transparent"/><path d="M 539.9294586876603 441.70183714312316 L 539.9294586876603 464.89440570374865" stroke="rgb(132, 0, 0)" fill="none" stroke-width="1.407173457582px" stroke-linecap="round"/><path d="M 523.8065014344575 464.89209793927824 L 555.4201517987694 464.89209793927824" stroke="rgb(132, 0, 0)" fill="none" stroke-width="1.407173457582px" stroke-linecap="round"/><path d="M 527.7582103684467 470.30369304857055 L 551.4684428647802 470.30369304857055" stroke="rgb(132, 0, 0)" fill="none" stroke-width="1.407173457582px" stroke-linecap="round"/><path d="M 535.661621200558 475.7152881578628 L 543.5650320326691 475.7152881578628" stroke="rgb(132, 0, 0)" fill="none" stroke-width="1.407173457582px" stroke-linecap="round"/><text x="538.4142705954742" y="483.9564628349973" fill="rgb(15, 15, 15)" font-family="sans-serif" text-anchor="middle" dominant-baseline="hanging" font-size="12.664561118238px">GND</text><path class="net-label" d="
    M 300.76716194597003,248.20663560455
    L 296.96779361049863,255.8053722754928
    L 261.9385556730907,255.8053722754928
    L 261.9385556730907,240.6078989336072
    L 296.96779361049863,240.6078989336072
    Z
  " fill="rgba(255, 255, 255, 0.6)" stroke="rgb(132, 0, 0)" stroke-width="1.407173457582px"/><text class="net-label-text" x="294.43488138685103" y="248.20663560455" fill="rgb(132, 0, 0)" text-anchor="end" dominant-baseline="central" font-family="sans-serif" font-variant-numeric="tabular-nums" font-size="12.664561118238px" transform="">INT2</text><path class="net-label" d="
    M 300.76716194597003,262.27837018036996
    L 296.96779361049863,269.87710685131276
    L 261.9385556730907,269.87710685131276
    L 261.9385556730907,254.67963350942716
    L 296.96779361049863,254.67963350942716
    Z
  " fill="rgba(255, 255, 255, 0.6)" stroke="rgb(132, 0, 0)" stroke-width="1.407173457582px"/><text class="net-label-text" x="294.43488138685103" y="262.27837018036996" fill="rgb(132, 0, 0)" text-anchor="end" dominant-baseline="central" font-family="sans-serif" font-variant-numeric="tabular-nums" font-size="12.664561118238px" transform="">INT1</text><path class="net-label" d="
    M 300.76716194597003,276.35010475619
    L 296.96779361049863,283.9488414271328
    L 264.105602797767,283.9488414271328
    L 264.105602797767,268.7513680852472
    L 296.96779361049863,268.7513680852472
    Z
  " fill="rgba(255, 255, 255, 0.6)" stroke="rgb(132, 0, 0)" stroke-width="1.407173457582px"/><text class="net-label-text" x="294.43488138685103" y="276.35010475619" fill="rgb(132, 0, 0)" text-anchor="end" dominant-baseline="central" font-family="sans-serif" font-variant-numeric="tabular-nums" font-size="12.664561118238px" transform="">SDA</text><path class="net-label" d="
    M 300.76716194597003,290.42183933201
    L 296.96779361049863,298.0205760029528
    L 265.51277625534897,298.0205760029528
    L 265.51277625534897,282.8231026610672
    L 296.96779361049863,282.8231026610672
    Z
  " fill="rgba(255, 255, 255, 0.6)" stroke="rgb(132, 0, 0)" stroke-width="1.407173457582px"/><text class="net-label-text" x="294.43488138685103" y="290.42183933201" fill="rgb(132, 0, 0)" text-anchor="end" dominant-baseline="central" font-family="sans-serif" font-variant-numeric="tabular-nums" font-size="12.664561118238px" transform="">SCL</text><rect class="component-overlay" x="315.30428396354887" y="190.19531880287983" width="13.036019731703107" height="28.816231745842714" fill="transparent"/><path d="M 321.7193133578411 190.19531880287983 L 315.30428396354887 203.63879968096052" stroke="rgb(132, 0, 0)" fill="none" stroke-width="1.407173457582px" stroke-linecap="round"/><path d="M 321.9252743009599 190.20232652669858 L 328.340303695252 203.6458425841157" stroke="rgb(132, 0, 0)" fill="none" stroke-width="1.407173457582px" stroke-linecap="round"/><path d="M 321.79354879359573 190.5500461239344 L 321.79354879359573 219.01155054872254" stroke="rgb(132, 0, 0)" fill="none" stroke-width="1.407173457582px" stroke-linecap="round"/><text x="321.4788414856747" y="186.07221614175717" fill="rgb(15, 15, 15)" font-family="sans-serif" text-anchor="middle" dominant-baseline="ideographic" font-size="12.664561118238px">VCC</text><rect class="component-overlay" x="305.67538296601606" y="339.5966767253155" width="31.613650364311923" height="34.013451014739644" fill="transparent"/><path d="M 321.7983402192188 339.5966767253155 L 321.7983402192188 362.789245285941" stroke="rgb(132, 0, 0)" fill="none" stroke-width="1.407173457582px" stroke-linecap="round"/><path d="M 305.67538296601606 362.7869375214706 L 337.289033330328 362.7869375214706" stroke="rgb(132, 0, 0)" fill="none" stroke-width="1.407173457582px" stroke-linecap="round"/><path d="M 309.6270919000053 368.1985326307629 L 333.3373243963387 368.1985326307629" stroke="rgb(132, 0, 0)" fill="none" stroke-width="1.407173457582px" stroke-linecap="round"/><path d="M 317.5305027321165 373.61012774005513 L 325.4339135642277 373.61012774005513" stroke="rgb(132, 0, 0)" fill="none" stroke-width="1.407173457582px" stroke-linecap="round"/><text x="320.2831521270328" y="381.85130241718963" fill="rgb(15, 15, 15)" font-family="sans-serif" text-anchor="middle" dominant-baseline="hanging" font-size="12.664561118238px">GND</text><path class="net-label" d="
    M 824.939274895265,360.78051221110996
    L 828.7386432307364,353.18177554016717
    L 863.7678811681444,353.18177554016717
    L 863.7678811681444,368.37924888205276
    L 828.7386432307364,368.37924888205276
    Z
  " fill="rgba(255, 255, 255, 0.6)" stroke="rgb(132, 0, 0)" stroke-width="1.407173457582px"/><text class="net-label-text" x="831.271555454384" y="360.78051221110996" fill="rgb(132, 0, 0)" text-anchor="start" dominant-baseline="central" font-family="sans-serif" font-variant-numeric="tabular-nums" font-size="12.664561118238px" transform="">INT1</text><path class="net-label" d="
    M 824.939274895265,374.85224678693
    L 828.7386432307364,367.2535101159872
    L 863.7678811681444,367.2535101159872
    L 863.7678811681444,382.4509834578728
    L 828.7386432307364,382.4509834578728
    Z
  " fill="rgba(255, 255, 255, 0.6)" stroke="rgb(132, 0, 0)" stroke-width="1.407173457582px"/><text class="net-label-text" x="831.271555454384" y="374.85224678693" fill="rgb(132, 0, 0)" text-anchor="start" dominant-baseline="central" font-family="sans-serif" font-variant-numeric="tabular-nums" font-size="12.664561118238px" transform="">INT2</text><path class="net-label" d="
    M 824.939274895265,332.63704305947
    L 828.7386432307364,325.0383063885272
    L 860.193660585886,325.0383063885272
    L 860.193660585886,340.2357797304128
    L 828.7386432307364,340.2357797304128
    Z
  " fill="rgba(255, 255, 255, 0.6)" stroke="rgb(132, 0, 0)" stroke-width="1.407173457582px"/><text class="net-label-text" x="831.271555454384" y="332.63704305947" fill="rgb(132, 0, 0)" text-anchor="start" dominant-baseline="central" font-family="sans-serif" font-variant-numeric="tabular-nums" font-size="12.664561118238px" transform="">SCL</text><path class="net-label" d="
    M 824.939274895265,346.70877763529
    L 828.7386432307364,339.1100409643472
    L 861.6008340434681,339.1100409643472
    L 861.6008340434681,354.3075143062328
    L 828.7386432307364,354.3075143062328
    Z
  " fill="rgba(255, 255, 255, 0.6)" stroke="rgb(132, 0, 0)" stroke-width="1.407173457582px"/><text class="net-label-text" x="831.271555454384" y="346.70877763529" fill="rgb(132, 0, 0)" text-anchor="start" dominant-baseline="central" font-family="sans-serif" font-variant-numeric="tabular-nums" font-size="12.664561118238px" transform="">SDA</text><path class="net-label" d="
    M 877.6890540472259,301.0664522029601
    L 885.2877907181687,304.8658205384315
    L 885.2877907181687,336.32083789358114
    L 870.0903173762831,336.32083789358114
    L 870.0903173762831,304.8658205384315
    Z
  " fill="rgba(255, 255, 255, 0.6)" stroke="rgb(132, 0, 0)" stroke-width="1.407173457582px"/><text class="net-label-text" x="877.6890540472259" y="307.3987327620791" fill="rgb(132, 0, 0)" text-anchor="start" dominant-baseline="central" font-family="sans-serif" font-variant-numeric="tabular-nums" font-size="12.664561118238px" transform="rotate(90 877.6890540472259 307.3987327620791)">SCL</text><path class="net-label" d="
    M 926.9401250625958,301.0664522029601
    L 934.5388617335386,304.8658205384315
    L 934.5388617335386,337.7280113511631
    L 919.341388391653,337.7280113511631
    L 919.341388391653,304.8658205384315
    Z
  " fill="rgba(255, 255, 255, 0.6)" stroke="rgb(132, 0, 0)" stroke-width="1.407173457582px"/><text class="net-label-text" x="926.9401250625958" y="307.3987327620791" fill="rgb(132, 0, 0)" text-anchor="start" dominant-baseline="central" font-family="sans-serif" font-variant-numeric="tabular-nums" font-size="12.664561118238px" transform="rotate(90 926.9401250625958 307.3987327620791)">SDA</text><text x="744.0268010843" y="494.4619906814" fill="gray" text-anchor="middle" dominant-baseline="middle" font-family="sans-serif" font-size="14.07173457582px" transform="rotate(0, 744.0268010843, 494.4619906814)">VCC = 3.6V Max</text><text x="744.0268010843" y="515.56959254513" fill="gray" text-anchor="middle" dominant-baseline="middle" font-family="sans-serif" font-size="14.07173457582px" transform="rotate(0, 744.0268010843, 515.56959254513)">Slave Address: 0x60</text><text x="744.0268010843" y="536.67719440886" fill="gray" text-anchor="middle" dominant-baseline="middle" font-family="sans-serif" font-size="14.07173457582px" transform="rotate(0, 744.0268010843, 536.67719440886)">Read Address: 0xC1</text><text x="744.0268010843" y="557.78479627259" fill="gray" text-anchor="middle" dominant-baseline="middle" font-family="sans-serif" font-size="14.07173457582px" transform="rotate(0, 744.0268010843, 557.78479627259)">Write Address: 0xC0</text></svg>