<svg xmlns="http://www.w3.org/2000/svg" width="1200" height="600" style="background-color: rgb(245, 241, 237)" data-real-to-screen-transform="matrix(81.8925257142,0,0,-81.8925257142,767.6370236773,411.7337812842)" data-software-used-string="@tscircuit/core@0.0.608"><style>
              .boundary { fill: rgb(245, 241, 237); }
              .schematic-boundary { fill: none; stroke: #fff; }
              .component { fill: none; stroke: rgb(132, 0, 0); }
              .chip { fill: rgb(255, 255, 194); stroke: rgb(132, 0, 0); }
              .component-pin { fill: none; stroke: rgb(132, 0, 0); }
              .trace:hover {
                filter: invert(1);
              }
              .trace:hover .trace-crossing-outline {
                opacity: 0;
              }
              .trace:hover .trace-junction {
                filter: invert(1);
              }
              .text { font-family: sans-serif; fill: rgb(0, 150, 0); }
              .pin-number { fill: rgb(169, 0, 0); }
              .port-label { fill: rgb(0, 100, 100); }
              .component-name { fill: rgb(0, 100, 100); }
            </style><rect class="boundary" x="0" y="0" width="1200" height="600"/><g data-circuit-json-type="schematic_component" data-schematic-component-id="schematic_component_0"><rect class="component-overlay" x="746.0101978622346" y="117.41469702649266" width="43.33478939759584" height="86.66958698444421" fill="transparent"/><path d="M 767.6775925610326 204.08428401093687 L 767.6775925610326 167.24971384190565" stroke="rgb(132, 0, 0)" fill="none" stroke-width="1.637850514284px" stroke-linecap="round"/><path d="M 767.6775925610326 154.2492753847764 L 767.6775925610326 117.41469702649266" stroke="rgb(132, 0, 0)" fill="none" stroke-width="1.637850514284px" stroke-linecap="round"/><path d="M 789.3449872598304 167.24971384190562 L 746.0101978622346 167.24971384190567" stroke="rgb(132, 0, 0)" fill="none" stroke-width="1.637850514284px" stroke-linecap="round"/><path d="M 789.3449872598304 154.2492753847764 L 746.0101978622346 154.2492753847764" stroke="rgb(132, 0, 0)" fill="none" stroke-width="1.637850514284px" stroke-linecap="round"/><text x="783.4150675803393" y="144.9869149646696" fill="rgb(15, 15, 15)" font-family="sans-serif" text-anchor="start" dominant-baseline="auto" font-size="14.740654628556001px">C1</text><text x="783.4150675803393" y="177.53225859034964" fill="rgb(15, 15, 15)" font-family="sans-serif" text-anchor="start" dominant-baseline="hanging" font-size="14.740654628556001px">100nF</text></g><g data-circuit-json-type="schematic_component" data-schematic-component-id="schematic_component_1"><rect class="component-overlay" x="661.0382067577157" y="116.24390431282012" width="46.336805605226914" height="80.78931874329373" fill="transparent"/><path d="M 685.6929507127891 116.24390431282012 L 685.6929507127891 153.07916237906727" stroke="rgb(132, 0, 0)" fill="none" stroke-width="1.637850514284px" stroke-linecap="round"/><path d="M 685.6929507127891 160.1986446978301 L 685.6929507127891 197.03322305611385" stroke="rgb(132, 0, 0)" fill="none" stroke-width="1.637850514284px" stroke-linecap="round"/><path d="M 663.83421412766 153.39141857961553 L 707.3750123629426 153.39141857961553" stroke="rgb(132, 0, 0)" fill="none" stroke-width="1.637850514284px" stroke-linecap="round"/><path d="M 707.0906651351576 164.9286996583143 L 707.0906651351576 164.9286996583143 L 706.9895197522758 164.86854045400045 L 706.8882988006909 164.8086812216644 L 706.787002203506 164.74912273730325 L 706.6856298838239 164.68986577691422 L 706.5841817647477 164.63091111649453 L 706.48265776938 164.5722595320414 L 706.381057820824 164.51391179955195 L 706.2793818421826 164.4558686950234 L 706.1776297565585 164.398130994453 L 706.0758014870548 164.34069947383787 L 705.9738969567745 164.28357490917526 L 705.8719160888203 164.22675807646232 L 705.7698588062952 164.1702497516963 L 705.6677250323021 164.11405071087435 L 705.565514689944 164.05816172999366 L 705.4632277023238 164.00258358505147 L 705.3608639925444 163.94731705204495 L 705.2584234837086 163.8923629069713 L 705.1559060989196 163.83772192582768 L 705.05331176128 163.78339488461134 L 704.950640393893 163.72938255931945 L 704.8478919198612 163.6756857259492 L 704.7450662622878 163.6223051604978 L 704.6421633442756 163.5692416389624 L 704.5391830889275 163.51649593734027 L 704.4361254193466 163.46406883162857 L 704.3329902586355 163.41196109782447 L 704.2297775298973 163.3601735119252 L 704.126487156235 163.30870684992794 L 704.0231190607515 163.25756188782987 L 703.9196731665495 163.20673940162823 L 703.816149396732 163.15624016732016 L 703.7125476744022 163.1060649609029 L 703.6088679226626 163.05621455837363 L 703.5051100646165 163.00668973572954 L 703.4012740233666 162.9574912689678 L 703.2973597220157 162.90861993408566 L 703.193367083667 162.8600765070803 L 703.0892960314233 162.81186176394888 L 702.9851464883875 162.76397648068863 L 702.8809183776625 162.71642143329674 L 702.7766116223512 162.66919739777038 L 702.6722261455567 162.62230515010677 L 702.5677618703817 162.57574546630312 L 702.4632187199292 162.5295191223566 L 702.3585966173022 162.48362689426438 L 702.2538954856034 162.4380695580237 L 702.1491152479359 162.39284788963175 L 702.0442558274027 162.3479626650857 L 701.9393171471065 162.30341466038277 L 701.8342991301503 162.25920465152015 L 701.7292016996371 162.215333414495 L 701.6240247786697 162.1718017253046 L 701.518768290351 162.12861035994604 L 701.4134321577841 162.0857600944166 L 701.3080163040718 162.04325170471344 L 701.2025206523169 162.00108596683373 L 701.0969451256226 161.9592636567747 L 700.9912896470915 161.91778555053355 L 700.8855541398268 161.87665242410745 L 700.7797385269313 161.83586505349362 L 700.6738427315079 161.79542421468923 L 700.5678666766595 161.7553306836915 L 700.461810285489 161.7155852364976 L 700.3556734810994 161.67618864910474 L 700.2494561865936 161.63714169751012 L 700.1431583250746 161.59844515771093 L 700.0367798196452 161.56009980570434 L 699.9303205934083 161.5221064174876 L 699.8237805694669 161.48446576905786 L 699.7171596709238 161.44717863641233 L 699.6104578208821 161.4102457955482 L 699.5036749424445 161.37366802246265 L 699.3968109587141 161.33744609315292 L 699.2898657927938 161.30158078361617 L 699.1828393677863 161.2660728698496 L 699.0757316067949 161.23092312785045 L 698.9685424329222 161.19613233361582 L 698.8612717692712 161.161701263143 L 698.753919538945 161.1276306924291 L 698.6464856650462 161.0939213974714 L 698.5389700706779 161.06057415426704 L 698.431372678943 161.02758973881325 L 698.3236934129445 160.99496892710718 L 698.2159321957852 160.96271249514606 L 698.108088950568 160.9308212189271 L 698.000163600396 160.89929587444743 L 697.892156068372 160.8681372377043 L 697.7840662775988 160.8373460846949 L 697.6758941511794 160.80692319141642 L 697.5676396122168 160.77686933386605 L 697.4593025838138 160.74718528804098 L 697.3508829890735 160.71787182993842 L 697.2423807510987 160.68892973555555 L 697.1337957929923 160.66035978088956 L 697.0251280378571 160.6321627419377 L 696.9163774087964 160.6043393946971 L 696.8075438289127 160.57689051516496 L 696.6986272213092 160.5498168793385 L 696.5896275090886 160.52311926321494 L 696.5896275090886 160.52311926321494 L 696.4523702333533 160.490007275257 L 696.3150223063756 160.4573862998314 L 696.1775845868966 160.4252552523699 L 696.040057933658 160.39361304830427 L 695.902443205401 160.3624586030663 L 695.7647412608671 160.33179083208773 L 695.6269529587977 160.30160865080032 L 695.4890791579342 160.2719109746359 L 695.3511207170179 160.24269671902613 L 695.2130784947904 160.21396479940287 L 695.0749533499929 160.18571413119787 L 694.936746141367 160.15794362984286 L 694.798457727654 160.13065221076965 L 694.6600889675952 160.10383878941 L 694.5216407199322 160.07750228119565 L 694.3831138434064 160.05164160155837 L 694.2445091967589 160.02625566592997 L 694.1058276387315 160.0013433897422 L 693.9670700280653 159.9769036884268 L 693.8282372235019 159.9529354774156 L 693.6893300837826 159.9294376721403 L 693.5503494676489 159.90640918803268 L 693.411296233842 159.88384894052453 L 693.2721712411035 159.8617558450476 L 693.1329753481748 159.8401288170337 L 692.9937094137972 159.81896677191457 L 692.8543742967121 159.79826862512195 L 692.714970855661 159.77803329208766 L 692.5754999493853 159.7582596882434 L 692.4359624366263 159.738946729021 L 692.2963591761254 159.7200933298522 L 692.1566910266241 159.7016984061688 L 692.0169588468639 159.68376087340252 L 691.8771634955859 159.66627964698515 L 691.7373058315318 159.64925364234847 L 691.5973867134428 159.63268177492424 L 691.4574070000604 159.6165629601442 L 691.3173675501259 159.60089611344014 L 691.1772692223809 159.58568015024386 L 691.0371128755667 159.5709139859871 L 690.8968993684246 159.55659653610158 L 690.7566295596962 159.54272671601916 L 690.6163043081227 159.52930344117155 L 690.4759244724456 159.51632562699052 L 690.3354909114064 159.50379218890785 L 690.1950044837463 159.4917020423553 L 690.0544660482069 159.48005410276465 L 689.9138764635294 159.46884728556768 L 689.7732365884555 159.45808050619613 L 689.6325472817263 159.44775268008175 L 689.4918094020833 159.43786272265638 L 689.3510238082679 159.4284095493517 L 689.2101913590216 159.41939207559955 L 689.0693129130857 159.41080921683167 L 688.9283893292017 159.4026598884798 L 688.7874214661109 159.39494300597576 L 688.6464101825547 159.3876574847513 L 688.5053563372746 159.38080224023815 L 688.364260789012 159.37437618786814 L 688.2231243965081 159.36837824307298 L 688.0819480185046 159.3628073212845 L 687.9407325137427 159.35766233793439 L 687.7994787409638 159.3529422084545 L 687.6581875589094 159.34864584827653 L 687.5168598263209 159.34477217283228 L 687.3754964019397 159.34132009755353 L 687.2340981445071 159.33828853787202 L 687.0926659127646 159.33567640921956 L 686.9512005654535 159.33348262702785 L 686.8097029613155 159.33170610672872 L 686.6681739590916 159.33034576375388 L 686.5266144175234 159.32940051353518 L 686.3850251953523 159.32886927150432 L 686.2434071513198 159.32875095309308 L 686.1017611441671 159.32904447373323 L 685.9600880326358 159.32974874885656 L 685.8183886754671 159.33086269389483 L 685.6766639314026 159.3323852242798 L 685.5349146591835 159.33431525544322 L 685.3931417175513 159.33665170281688 L 685.2513459652475 159.33939348183253 L 685.1095282610135 159.34253950792197 L 684.9676894635905 159.34608869651694 L 684.8258304317201 159.35003996304926 L 684.6839520241435 159.3543922229506 L 684.5420550996024 159.35914439165282 L 684.400140516838 159.36429538458762 L 684.2582091345917 159.36984411718683 L 684.1162618116049 159.37578950488216 L 683.974299406619 159.38213046310543 L 683.8323227783756 159.38886590728836 L 683.6903327856159 159.39599475286275 L 683.5483302870813 159.40351591526039 L 683.4063161415133 159.41142830991296 L 683.2642912076533 159.41973085225234 L 683.1222563442426 159.4284224577102 L 682.9802124100227 159.43750204171837 L 682.838160263735 159.4469685197086 L 682.6961007641207 159.45682080711265 L 682.5540347699216 159.4670578193623 L 682.5540347699216 159.4670578193623 L 682.433620052146 159.47785194785658 L 682.3131714089502 159.48881290601895 L 682.1926903711022 159.49994317995913 L 682.0721784693699 159.5112452557868 L 681.951637234521 159.52272161961162 L 681.8310681973234 159.53437475754325 L 681.7104728885449 159.54620715569138 L 681.5898528389534 159.5582213001657 L 681.4692095793168 159.57041967707585 L 681.348544640403 159.58280477253155 L 681.2278595529796 159.5953790726424 L 681.1071558478146 159.60814506351815 L 680.9864350556759 159.62110523126844 L 680.8656987073313 159.63426206200293 L 680.7449483335486 159.64761804183132 L 680.6241854650956 159.6611756568633 L 680.5034116327404 159.6749373932085 L 680.3826283672505 159.6889057369766 L 680.261837199394 159.7030831742773 L 680.1410396599387 159.71747219122028 L 680.0202372796524 159.73207527391517 L 679.8994315893029 159.7468949084717 L 679.7786241196582 159.76193358099948 L 679.657816401486 159.77719377760823 L 679.5370099655543 159.79267798440762 L 679.4162063426309 159.80838868750732 L 679.2954070634835 159.82432837301698 L 679.17461365888 159.84049952704632 L 679.0538276595884 159.85690463570498 L 678.9330505963763 159.87354618510267 L 678.8122840000119 159.890426661349 L 678.6915294012628 159.90754855055368 L 678.5707883308968 159.92491433882643 L 678.4500623196819 159.94252651227683 L 678.3293528983859 159.96038755701463 L 678.2086615977767 159.97849995914947 L 678.087989948622 159.99686620479105 L 677.9673394816896 160.01548878004903 L 677.8467117277477 160.03437017103306 L 677.7261082175637 160.05351286385283 L 677.6055304819058 160.07291934461801 L 677.4849800515418 160.09259209943832 L 677.3644584572394 160.11253361442337 L 677.2439672297664 160.13274637568287 L 677.1235078998909 160.1532328693265 L 677.0030819983806 160.1739955814639 L 676.8826910560034 160.19503699820478 L 676.762336603527 160.2163596056588 L 676.6420201717194 160.23796588993562 L 676.5217432913485 160.25985833714492 L 676.401507493182 160.2820394333964 L 676.2813143079877 160.3045116647997 L 676.1611652665335 160.32727751746452 L 676.0410618995875 160.3503394775005 L 675.9210057379172 160.37370003101736 L 675.8009983122906 160.39736166412476 L 675.6810411534756 160.42132686293235 L 675.56113579224 160.4455981135498 L 675.4412837593514 160.47017790208682 L 675.3214865855781 160.4950687146531 L 675.2017458016877 160.52027303735824 L 675.0820629384481 160.54579335631198 L 674.962439526627 160.57163215762395 L 674.8428770969924 160.59779192740385 L 674.7233771803122 160.62427515176137 L 674.6039413073541 160.65108431680613 L 674.4845710088861 160.67822190864786 L 674.3652678156759 160.70569041339618 L 674.2460332584914 160.73349231716082 L 674.1268688681005 160.76163010605143 L 674.0077761752709 160.7901062661777 L 673.8887567107706 160.81892328364927 L 673.7698120053675 160.8480836445758 L 673.6509435898292 160.87758983506706 L 673.5321529949238 160.9074443412326 L 673.413441751419 160.9376496491822 L 673.2948113900826 160.96820824502547 L 673.1762634416826 160.99912261487208 L 673.0577994369869 161.03039524483177 L 672.9394209067631 161.06202862101412 L 672.8211293817792 161.09402522952888 L 672.7029263928031 161.12638755648572 L 672.5848134706024 161.15911808799427 L 672.4667921459453 161.19221931016423 L 672.3488639495994 161.22569370910526 L 672.2310304123326 161.25954377092705 L 672.1132930649128 161.2937719817393 L 671.9956534381079 161.3283808276516 L 671.8781130626855 161.36337279477374 L 671.7606734694136 161.3987503692153 L 671.6433361890602 161.43451603708598 L 671.526102752393 161.47067228449546 L 671.4089746901797 161.5072215975534 L 671.2919535331883 161.54416646236953 L 671.1750408121868 161.58150936505348 L 671.0582380579428 161.6192527917149 L 670.9415468012244 161.6573992284635 L 670.8249685727991 161.69595116140894 L 670.708504903435 161.7349110766609 L 670.5921573238999 161.77428146032906 L 670.5921573238999 161.77428146032906 L 670.5240388223815 161.7975545254647 L 670.4559560293128 161.8209947029451 L 670.3879093541892 161.8446019853999 L 670.3198992065061 161.8683763654588 L 670.2519259957587 161.89231783575147 L 670.1839901314426 161.91642638890758 L 670.1160920230529 161.9407020175568 L 670.0482320800854 161.9651447143288 L 669.9804107120352 161.98975447185327 L 669.9126283283978 162.01453128275986 L 669.8448853386684 162.03947513967825 L 669.7771821523427 162.0645860352381 L 669.7095191789158 162.08986396206913 L 669.6418968278832 162.11530891280097 L 669.5743155087403 162.1409208800633 L 669.5067756309825 162.1666998564858 L 669.4392776041051 162.1926458346981 L 669.3718218376035 162.21875880732998 L 669.3044087409733 162.24503876701098 L 669.2370387237096 162.27148570637087 L 669.1697121953079 162.2980996180393 L 669.1024295652635 162.32488049464592 L 669.035191243072 162.3518283288204 L 668.9679976382286 162.37894311319243 L 668.9008491602286 162.4062248403917 L 668.8337462185677 162.43367350304786 L 668.7666892227411 162.46128909379055 L 668.6996785822441 162.4890716052495 L 668.6327147065723 162.51702103005437 L 668.5657980052209 162.54513736083481 L 668.4989288876853 162.57342059022054 L 668.432107763461 162.60187071084115 L 668.3653350420434 162.63048771532638 L 668.2986111329277 162.6592715963059 L 668.2319364456093 162.68822234640936 L 668.1653113895838 162.71733995826642 L 668.0987363743466 162.7466244245068 L 668.0322118093927 162.77607573776012 L 667.9657381042178 162.8056938906561 L 667.8993156683174 162.83547887582438 L 667.8329449111865 162.86543068589464 L 667.7666262423207 162.89554931349656 L 667.7003600712155 162.9258347512598 L 667.6341468073662 162.95628699181404 L 667.567986860268 162.98690602778896 L 667.5018806394165 163.01769185181422 L 667.435828554307 163.04864445651953 L 667.3698310144349 163.0797638345345 L 667.3038884292956 163.11104997848884 L 667.2380012083845 163.1425028810122 L 667.172169761197 163.1741225347343 L 667.1063944972284 163.20590893228476 L 667.0406758259741 163.2378620662933 L 666.9750141569295 163.26998192938953 L 666.9094098995901 163.3022685142032 L 666.8438634634512 163.33472181336393 L 666.778375258008 163.3673418195014 L 666.7129456927563 163.4001285252453 L 666.6475751771911 163.43308192322527 L 666.582264120808 163.46620200607103 L 666.5170129331023 163.4994887664122 L 666.4518220235693 163.5329421968785 L 666.3866918017046 163.56656229009957 L 666.3216226770035 163.6003490387051 L 666.2566150589613 163.63430243532477 L 666.1916693570735 163.66842247258822 L 666.1267859808354 163.70270914312513 L 666.0619653397424 163.73716243956522 L 665.9972078432899 163.77178235453812 L 665.9325139009733 163.8065688806735 L 665.867883922288 163.84152201060104 L 665.8033183167294 163.87664173695043 L 665.7388174937927 163.91192805235133 L 665.6743818629735 163.94738094943338 L 665.6100118337672 163.98300042082633 L 665.545707815669 164.01878645915977 L 665.4814702181744 164.05473905706344 L 665.4172994507788 164.09085820716695 L 665.3531959229775 164.12714390210004 L 665.289160044266 164.1635961344923 L 665.2251922241397 164.2002148969735 L 665.1612928720939 164.23700018217323 L 665.0974623976239 164.27395198272123 L 665.0337012102252 164.31107029124712 L 664.9700097193933 164.3483551003806 L 664.9063883346233 164.3858064027513 L 664.8428374654109 164.42342419098895 L 664.7793575212512 164.4612084577232 L 664.7159489116398 164.49915919558373 L 664.6526120460719 164.53727639720017 L 664.589347334043 164.57556005520226 L 664.5261551850485 164.61401016221964 L 664.4630360085838 164.65262671088198 L 664.3999902141443 164.69140969381894 L 664.3370182112252 164.73035910366022 L 664.274120409322 164.76947493303547 L 664.2112972179302 164.8087571745744 L 664.148549046545 164.84820582090663 L 664.085876304662 164.88782086466185 L 664.0232794017763 164.92760229846976" stroke="rgb(132, 0, 0)" fill="none" stroke-width="1.637850514284px" stroke-linecap="round"/><path d="M 666.99603540997 131.6135999991446 L 666.99603540997 143.11681378714633 L 666.5887838795933 143.11681378714633 L 666.5887838795933 131.6135999991446" stroke="rgb(132, 0, 0)" fill="none" stroke-width="1.637850514284px" stroke-linecap="round"/><path d="M 661.0382067577157 137.1569460110017 L 672.5414205457173 137.1569460110017 L 672.5414205457173 137.56419754137843 L 661.0382067577157 137.56419754137843" stroke="rgb(132, 0, 0)" fill="none" stroke-width="1.637850514284px" stroke-linecap="round"/><text x="704.2611309651859" y="145.0977335936769" fill="rgb(15, 15, 15)" font-family="sans-serif" text-anchor="start" dominant-baseline="auto" font-size="14.740654628556001px">C2</text><text x="704.2611309651859" y="169.46818558793694" fill="rgb(15, 15, 15)" font-family="sans-serif" text-anchor="start" dominant-baseline="hanging" font-size="14.740654628556001px">10µF</text></g><g data-circuit-json-type="schematic_component" data-schematic-component-id="schematic_component_2"><rect class="component-overlay" x="845.2185144319823" y="117.41469702649266" width="43.33478939759584" height="86.66958698444421" fill="transparent"/><path d="M 866.8859091307803 204.08428401093687 L 866.8859091307803 167.24971384190565" stroke="rgb(132, 0, 0)" fill="none" stroke-width="1.637850514284px" stroke-linecap="round"/><path d="M 866.8859091307803 154.2492753847764 L 866.8859091307803 117.41469702649266" stroke="rgb(132, 0, 0)" fill="none" stroke-width="1.637850514284px" stroke-linecap="round"/><path d="M 888.5533038295781 167.24971384190562 L 845.2185144319823 167.24971384190567" stroke="rgb(132, 0, 0)" fill="none" stroke-width="1.637850514284px" stroke-linecap="round"/><path d="M 888.5533038295781 154.2492753847764 L 845.2185144319823 154.2492753847764" stroke="rgb(132, 0, 0)" fill="none" stroke-width="1.637850514284px" stroke-linecap="round"/><text x="882.623384150087" y="144.9869149646696" fill="rgb(15, 15, 15)" font-family="sans-serif" text-anchor="start" dominant-baseline="auto" font-size="14.740654628556001px">C4</text><text x="882.623384150087" y="177.53225859034964" fill="rgb(15, 15, 15)" font-family="sans-serif" text-anchor="start" dominant-baseline="hanging" font-size="14.740654628556001px">1µF</text></g><g data-circuit-json-type="schematic_component" data-schematic-component-id="schematic_component_3"><rect class="component chip" x="706.21762939165" y="370.7875184271" width="122.83878857130003" height="81.89252571420002" stroke-width="1.637850514284px" fill="rgb(255, 255, 194)" stroke="rgb(132, 0, 0)"/><rect class="component-overlay" x="706.21762939165" y="370.7875184271" width="122.83878857130003" height="81.89252571420002" fill="transparent"/><text x="706.21762939165" y="463.32607248414604" fill="#006464" text-anchor="start" dominant-baseline="middle" font-family="sans-serif" font-size="14.740654628556001px" transform="rotate(0, 706.21762939165, 463.32607248414604)">MPL3115A2R1</text><text x="706.21762939165" y="360.141490084254" fill="#006464" text-anchor="start" dominant-baseline="middle" font-family="sans-serif" font-size="14.740654628556001px" transform="rotate(0, 706.21762939165, 360.141490084254)">U1</text><line class="component-pin" x1="675.098469620254" y1="387.16602356994" x2="706.21762939165" y2="387.16602356994" stroke-width="1.637850514284px"/><g data-schematic-port-id="source_port_6"><rect x="671.8227685916861" y="385.528173055656" width="3.275701028568" height="3.275701028568" opacity="0"/></g><text class="pin-number" x="689.83912424881" y="385.528173055656" style="font-family: sans-serif;" fill="rgb(169, 0, 0)" text-anchor="middle" dominant-baseline="auto" font-size="12.28387885713px" transform="">1</text><text class="pin-number" x="714.4068819630701" y="387.16602356994" style="font-family: sans-serif;" fill="rgb(169, 0, 0)" text-anchor="start" dominant-baseline="middle" font-size="12.28387885713px" transform="">VDD</text><line class="component-pin" x1="675.098469620254" y1="403.54452871278" x2="706.21762939165" y2="403.54452871278" stroke-width="1.637850514284px"/><g data-schematic-port-id="source_port_7"><rect x="671.8227685916861" y="401.90667819849597" width="3.275701028568" height="3.275701028568" opacity="0"/></g><text class="pin-number" x="689.83912424881" y="401.906678198496" style="font-family: sans-serif;" fill="rgb(169, 0, 0)" text-anchor="middle" dominant-baseline="auto" font-size="12.28387885713px" transform="">2</text><text class="pin-number" x="714.4068819630701" y="403.54452871278" style="font-family: sans-serif;" fill="rgb(169, 0, 0)" text-anchor="start" dominant-baseline="middle" font-size="12.28387885713px" transform="">CAP</text><line class="component-pin" x1="675.098469620254" y1="419.92303385562" x2="706.21762939165" y2="419.92303385562" stroke-width="1.637850514284px"/><g data-schematic-port-id="source_port_8"><rect x="671.8227685916861" y="418.285183341336" width="3.275701028568" height="3.275701028568" opacity="0"/></g><text class="pin-number" x="689.83912424881" y="418.285183341336" style="font-family: sans-serif;" fill="rgb(169, 0, 0)" text-anchor="middle" dominant-baseline="auto" font-size="12.28387885713px" transform="">3</text><text class="pin-number" x="714.4068819630701" y="419.92303385562" style="font-family: sans-serif;" fill="rgb(169, 0, 0)" text-anchor="start" dominant-baseline="middle" font-size="12.28387885713px" transform="">GND</text><line class="component-pin" x1="675.098469620254" y1="436.30153899846" x2="706.21762939165" y2="436.30153899846" stroke-width="1.637850514284px"/><g data-schematic-port-id="source_port_9"><rect x="671.8227685916861" y="434.66368848417596" width="3.275701028568" height="3.275701028568" opacity="0"/></g><text class="pin-number" x="689.83912424881" y="434.663688484176" style="font-family: sans-serif;" fill="rgb(169, 0, 0)" text-anchor="middle" dominant-baseline="auto" font-size="12.28387885713px" transform="">4</text><text class="pin-number" x="714.4068819630701" y="436.30153899846" style="font-family: sans-serif;" fill="rgb(169, 0, 0)" text-anchor="start" dominant-baseline="middle" font-size="12.28387885713px" transform="">VDDIO</text><line class="component-pin" x1="860.175577734346" y1="436.30153899846" x2="829.05641796295" y2="436.30153899846" stroke-width="1.637850514284px"/><g data-schematic-port-id="source_port_10"><rect x="860.175577734346" y="434.66368848417596" width="3.275701028568" height="3.275701028568" opacity="0"/></g><text class="pin-number" x="845.4349231057901" y="434.663688484176" style="font-family: sans-serif;" fill="rgb(169, 0, 0)" text-anchor="middle" dominant-baseline="auto" font-size="12.28387885713px" transform="">5</text><text class="pin-number" x="820.86716539153" y="436.30153899846" style="font-family: sans-serif;" fill="rgb(169, 0, 0)" text-anchor="end" dominant-baseline="middle" font-size="12.28387885713px" transform="">INT2</text><line class="component-pin" x1="860.175577734346" y1="419.92303385562" x2="829.05641796295" y2="419.92303385562" stroke-width="1.637850514284px"/><g data-schematic-port-id="source_port_11"><rect x="860.175577734346" y="418.285183341336" width="3.275701028568" height="3.275701028568" opacity="0"/></g><text class="pin-number" x="845.4349231057901" y="418.285183341336" style="font-family: sans-serif;" fill="rgb(169, 0, 0)" text-anchor="middle" dominant-baseline="auto" font-size="12.28387885713px" transform="">6</text><text class="pin-number" x="820.86716539153" y="419.92303385562" style="font-family: sans-serif;" fill="rgb(169, 0, 0)" text-anchor="end" dominant-baseline="middle" font-size="12.28387885713px" transform="">INT1</text><line class="component-pin" x1="860.175577734346" y1="403.54452871278" x2="829.05641796295" y2="403.54452871278" stroke-width="1.637850514284px"/><g data-schematic-port-id="source_port_12"><rect x="860.175577734346" y="401.90667819849597" width="3.275701028568" height="3.275701028568" opacity="0"/></g><text class="pin-number" x="845.4349231057901" y="401.906678198496" style="font-family: sans-serif;" fill="rgb(169, 0, 0)" text-anchor="middle" dominant-baseline="auto" font-size="12.28387885713px" transform="">7</text><text class="pin-number" x="820.86716539153" y="403.54452871278" style="font-family: sans-serif;" fill="rgb(169, 0, 0)" text-anchor="end" dominant-baseline="middle" font-size="12.28387885713px" transform="">SDA</text><line class="component-pin" x1="860.175577734346" y1="387.16602356994" x2="829.05641796295" y2="387.16602356994" stroke-width="1.637850514284px"/><g data-schematic-port-id="source_port_13"><rect x="860.175577734346" y="385.528173055656" width="3.275701028568" height="3.275701028568" opacity="0"/></g><text class="pin-number" x="845.4349231057901" y="385.528173055656" style="font-family: sans-serif;" fill="rgb(169, 0, 0)" text-anchor="middle" dominant-baseline="auto" font-size="12.28387885713px" transform="">8</text><text class="pin-number" x="820.86716539153" y="387.16602356994" style="font-family: sans-serif;" fill="rgb(169, 0, 0)" text-anchor="end" dominant-baseline="middle" font-size="12.28387885713px" transform="">SCL</text></g><g data-circuit-json-type="schematic_component" data-schematic-component-id="schematic_component_4"><rect class="component-overlay" x="912.4506683405657" y="261.9236238549077" width="21.667402888050447" height="86.6695869844441" fill="transparent"/><path d="M 923.2843697845909 261.9236238549077 L 923.2843697845909 283.59101855370557" stroke="rgb(132, 0, 0)" fill="none" stroke-width="1.637850514284px" stroke-linecap="round"/><path d="M 923.2843697845909 326.9258079513014 L 923.2843697845909 348.5932108393518" stroke="rgb(132, 0, 0)" fill="none" stroke-width="1.637850514284px" stroke-linecap="round"/><path d="M 934.1180712286161 305.2584050632509 L 934.1180712286161 326.9257997620487 L 912.4506683405657 326.9257997620487 L 912.4506683405657 283.59100217520034 L 934.1180712286161 283.59100217520034 L 934.1180712286161 305.25840506325073" stroke="rgb(132, 0, 0)" fill="none" stroke-width="1.637850514284px" stroke-linecap="round"/><text x="938.294774298223" y="290.7375745414694" fill="rgb(15, 15, 15)" font-family="sans-serif" text-anchor="start" dominant-baseline="middle" font-size="14.740654628556001px">R1</text><text x="938.294774298223" y="316.94318277001344" fill="rgb(15, 15, 15)" font-family="sans-serif" text-anchor="start" dominant-baseline="middle" font-size="14.740654628556001px">1kΩ</text></g><g data-circuit-json-type="schematic_component" data-schematic-component-id="schematic_component_5"><rect class="component-overlay" x="969.7754363405057" y="261.9236238549077" width="21.667402888050447" height="86.6695869844441" fill="transparent"/><path d="M 980.609137784531 261.9236238549077 L 980.609137784531 283.59101855370557" stroke="rgb(132, 0, 0)" fill="none" stroke-width="1.637850514284px" stroke-linecap="round"/><path d="M 980.609137784531 326.9258079513014 L 980.609137784531 348.5932108393518" stroke="rgb(132, 0, 0)" fill="none" stroke-width="1.637850514284px" stroke-linecap="round"/><path d="M 991.4428392285562 305.2584050632509 L 991.4428392285562 326.9257997620487 L 969.7754363405057 326.9257997620487 L 969.7754363405057 283.59100217520034 L 991.4428392285562 283.59100217520034 L 991.4428392285562 305.25840506325073" stroke="rgb(132, 0, 0)" fill="none" stroke-width="1.637850514284px" stroke-linecap="round"/><text x="995.6195422981631" y="290.7375745414694" fill="rgb(15, 15, 15)" font-family="sans-serif" text-anchor="start" dominant-baseline="middle" font-size="14.740654628556001px">R2</text><text x="995.6195422981631" y="316.94318277001344" fill="rgb(15, 15, 15)" font-family="sans-serif" text-anchor="start" dominant-baseline="middle" font-size="14.740654628556001px">1kΩ</text></g><g data-circuit-json-type="schematic_component" data-schematic-component-id="schematic_component_6"><rect class="component-overlay" x="508.5328516576329" y="425.21365953312306" width="43.334789397595785" height="86.66958698444415" fill="transparent"/><path d="M 530.2002463564309 511.8832465175672 L 530.2002463564309 475.04867634853605" stroke="rgb(132, 0, 0)" fill="none" stroke-width="1.637850514284px" stroke-linecap="round"/><path d="M 530.2002463564309 462.04823789140676 L 530.2002463564309 425.21365953312306" stroke="rgb(132, 0, 0)" fill="none" stroke-width="1.637850514284px" stroke-linecap="round"/><path d="M 551.8676410552287 475.048676348536 L 508.5328516576329 475.04867634853605" stroke="rgb(132, 0, 0)" fill="none" stroke-width="1.637850514284px" stroke-linecap="round"/><path d="M 551.8676410552287 462.04823789140676 L 508.5328516576329 462.0482378914068" stroke="rgb(132, 0, 0)" fill="none" stroke-width="1.637850514284px" stroke-linecap="round"/><text x="545.9377213757375" y="452.7858774713" fill="rgb(15, 15, 15)" font-family="sans-serif" text-anchor="start" dominant-baseline="auto" font-size="14.740654628556001px">C3</text><text x="545.9377213757375" y="485.33122109698" fill="rgb(15, 15, 15)" font-family="sans-serif" text-anchor="start" dominant-baseline="hanging" font-size="14.740654628556001px">100nF</text></g><g data-circuit-json-type="schematic_component" data-schematic-component-id="schematic_component_7"><rect class="component chip" x="325.41738482062004" y="272.51648757006" width="49.135515428519966" height="114.64953599988002" stroke-width="1.637850514284px" fill="rgb(255, 255, 194)" stroke="rgb(132, 0, 0)"/><rect class="component-overlay" x="325.41738482062004" y="272.51648757006" width="49.135515428519966" height="114.64953599988002" fill="transparent"/><text x="325.41738482062004" y="397.812051912786" fill="#006464" text-anchor="start" dominant-baseline="middle" font-family="sans-serif" font-size="14.740654628556001px" transform="rotate(0, 325.41738482062004, 397.812051912786)"></text><text x="325.41738482062004" y="261.870459227214" fill="#006464" text-anchor="start" dominant-baseline="middle" font-family="sans-serif" font-size="14.740654628556001px" transform="rotate(0, 325.41738482062004, 261.870459227214)">JP4</text><line class="component-pin" x1="294.29822504922396" y1="288.89499271290003" x2="325.41738482062004" y2="288.89499271290003" stroke-width="1.637850514284px"/><g data-schematic-port-id="source_port_20"><rect x="291.02252402065596" y="287.257142198616" width="3.275701028568" height="3.275701028568" opacity="0"/></g><text class="pin-number" x="309.03887967778" y="287.257142198616" style="font-family: sans-serif;" fill="rgb(169, 0, 0)" text-anchor="middle" dominant-baseline="auto" font-size="12.28387885713px" transform="">1</text><text class="pin-number" x="333.60663739204" y="288.89499271290003" style="font-family: sans-serif;" fill="rgb(169, 0, 0)" text-anchor="start" dominant-baseline="middle" font-size="12.28387885713px" transform="">INT2</text><line class="component-pin" x1="294.29822504922396" y1="305.27349785574" x2="325.41738482062004" y2="305.27349785574" stroke-width="1.637850514284px"/><g data-schematic-port-id="source_port_21"><rect x="291.02252402065596" y="303.635647341456" width="3.275701028568" height="3.275701028568" opacity="0"/></g><text class="pin-number" x="309.03887967778" y="303.635647341456" style="font-family: sans-serif;" fill="rgb(169, 0, 0)" text-anchor="middle" dominant-baseline="auto" font-size="12.28387885713px" transform="">2</text><text class="pin-number" x="333.60663739204" y="305.27349785574" style="font-family: sans-serif;" fill="rgb(169, 0, 0)" text-anchor="start" dominant-baseline="middle" font-size="12.28387885713px" transform="">INT1</text><line class="component-pin" x1="294.29822504922396" y1="321.65200299858" x2="325.41738482062004" y2="321.65200299858" stroke-width="1.637850514284px"/><g data-schematic-port-id="source_port_22"><rect x="291.02252402065596" y="320.01415248429595" width="3.275701028568" height="3.275701028568" opacity="0"/></g><text class="pin-number" x="309.03887967778" y="320.014152484296" style="font-family: sans-serif;" fill="rgb(169, 0, 0)" text-anchor="middle" dominant-baseline="auto" font-size="12.28387885713px" transform="">3</text><text class="pin-number" x="333.60663739204" y="321.65200299858" style="font-family: sans-serif;" fill="rgb(169, 0, 0)" text-anchor="start" dominant-baseline="middle" font-size="12.28387885713px" transform="">SDA</text><line class="component-pin" x1="294.29822504922396" y1="338.03050814142" x2="325.41738482062004" y2="338.03050814142" stroke-width="1.637850514284px"/><g data-schematic-port-id="source_port_23"><rect x="291.02252402065596" y="336.392657627136" width="3.275701028568" height="3.275701028568" opacity="0"/></g><text class="pin-number" x="309.03887967778" y="336.39265762713603" style="font-family: sans-serif;" fill="rgb(169, 0, 0)" text-anchor="middle" dominant-baseline="auto" font-size="12.28387885713px" transform="">4</text><text class="pin-number" x="333.60663739204" y="338.03050814142" style="font-family: sans-serif;" fill="rgb(169, 0, 0)" text-anchor="start" dominant-baseline="middle" font-size="12.28387885713px" transform="">SCL</text><line class="component-pin" x1="294.29822504922396" y1="354.40901328426" x2="325.41738482062004" y2="354.40901328426" stroke-width="1.637850514284px"/><g data-schematic-port-id="source_port_24"><rect x="291.02252402065596" y="352.771162769976" width="3.275701028568" height="3.275701028568" opacity="0"/></g><text class="pin-number" x="309.03887967778" y="352.771162769976" style="font-family: sans-serif;" fill="rgb(169, 0, 0)" text-anchor="middle" dominant-baseline="auto" font-size="12.28387885713px" transform="">5</text><text class="pin-number" x="333.60663739204" y="354.40901328426" style="font-family: sans-serif;" fill="rgb(169, 0, 0)" text-anchor="start" dominant-baseline="middle" font-size="12.28387885713px" transform="">VCC</text><line class="component-pin" x1="294.29822504922396" y1="370.7875184271" x2="325.41738482062004" y2="370.7875184271" stroke-width="1.637850514284px"/><g data-schematic-port-id="source_port_25"><rect x="291.02252402065596" y="369.14966791281597" width="3.275701028568" height="3.275701028568" opacity="0"/></g><text class="pin-number" x="309.03887967778" y="369.14966791281597" style="font-family: sans-serif;" fill="rgb(169, 0, 0)" text-anchor="middle" dominant-baseline="auto" font-size="12.28387885713px" transform="">6</text><text class="pin-number" x="333.60663739204" y="370.7875184271" style="font-family: sans-serif;" fill="rgb(169, 0, 0)" text-anchor="start" dominant-baseline="middle" font-size="12.28387885713px" transform="">GND</text></g><g class="trace" data-circuit-json-type="schematic_trace" data-schematic-trace-id="schematic_trace_0"><path d="M 685.766883285004 197.03322305611383 L 685.766883285004 214.58766328642804 L 767.6484306326257 214.58766328642804 L 767.6484306326257 206.39950855166586" class="trace-invisible-hover-outline" stroke="rgb(0, 150, 0)" fill="none" stroke-width="13.102804114272px" stroke-linecap="round" opacity="0" stroke-linejoin="round"/><path d="M 685.766883285004 197.03322305611383 L 685.766883285004 214.58766328642804 L 767.6484306326257 214.58766328642804 L 767.6484306326257 206.39950855166586" stroke="rgb(0, 150, 0)" fill="none" stroke-width="1.637850514284px" stroke-linecap="round" stroke-linejoin="round"/></g><g class="trace" data-circuit-json-type="schematic_trace" data-schematic-trace-id="schematic_trace_1"><path d="M 767.6036599888179 116.11966500335342 L 767.6370236773 116.11966500335342 L 767.6370236773 84.16367842739999" class="trace-invisible-hover-outline" stroke="rgb(0, 150, 0)" fill="none" stroke-width="13.102804114272px" stroke-linecap="round" opacity="0" stroke-linejoin="round"/><path d="M 767.6036599888179 116.11966500335342 L 767.6370236773 116.11966500335342 L 767.6370236773 84.16367842739999" stroke="rgb(0, 150, 0)" fill="none" stroke-width="1.637850514284px" stroke-linecap="round" stroke-linejoin="round"/></g><g class="trace" data-circuit-json-type="schematic_trace" data-schematic-trace-id="schematic_trace_2"><path d="M 685.722112641196 116.24390431282012 L 767.6370236773 116.24390431282012 L 767.6370236773 84.16367842739999" class="trace-invisible-hover-outline" stroke="rgb(0, 150, 0)" fill="none" stroke-width="13.102804114272px" stroke-linecap="round" opacity="0" stroke-linejoin="round"/><path d="M 685.722112641196 116.24390431282012 L 767.6370236773 116.24390431282012 L 767.6370236773 84.16367842739999" stroke="rgb(0, 150, 0)" fill="none" stroke-width="1.637850514284px" stroke-linecap="round" stroke-linejoin="round"/></g><g class="trace" data-circuit-json-type="schematic_trace" data-schematic-trace-id="schematic_trace_3"><path d="M 866.8119765585656 116.11966500335342 L 767.6370236773 116.11966500335342 L 767.6370236773 84.16367842739999" class="trace-invisible-hover-outline" stroke="rgb(0, 150, 0)" fill="none" stroke-width="13.102804114272px" stroke-linecap="round" opacity="0" stroke-linejoin="round"/><path d="M 866.8119765585656 116.11966500335342 L 767.6370236773 116.11966500335342 L 767.6370236773 84.16367842739999" stroke="rgb(0, 150, 0)" fill="none" stroke-width="1.637850514284px" stroke-linecap="round" stroke-linejoin="round"/></g><g class="trace" data-circuit-json-type="schematic_trace" data-schematic-trace-id="schematic_trace_4"><path d="M 767.6484306326257 206.39950855166586 L 767.6370236773 206.39950855166586 L 767.6370236773 239.75947728437998" class="trace-invisible-hover-outline" stroke="rgb(0, 150, 0)" fill="none" stroke-width="13.102804114272px" stroke-linecap="round" opacity="0" stroke-linejoin="round"/><path d="M 767.6484306326257 206.39950855166586 L 767.6370236773 206.39950855166586 L 767.6370236773 239.75947728437998" stroke="rgb(0, 150, 0)" fill="none" stroke-width="1.637850514284px" stroke-linecap="round" stroke-linejoin="round"/></g><g class="trace" data-circuit-json-type="schematic_trace" data-schematic-trace-id="schematic_trace_5"><path d="M 866.8567472023734 206.39950855166586 L 767.6370236773 206.39950855166586 L 767.6370236773 239.75947728437998" class="trace-invisible-hover-outline" stroke="rgb(0, 150, 0)" fill="none" stroke-width="13.102804114272px" stroke-linecap="round" opacity="0" stroke-linejoin="round"/><path d="M 866.8567472023734 206.39950855166586 L 767.6370236773 206.39950855166586 L 767.6370236773 239.75947728437998" stroke="rgb(0, 150, 0)" fill="none" stroke-width="1.637850514284px" stroke-linecap="round" stroke-linejoin="round"/></g><g class="trace" data-circuit-json-type="schematic_trace" data-schematic-trace-id="schematic_trace_6"><path d="M 530.1263137842161 423.9186275099838 L 530.1263137842161 403.54452871278 L 673.4606191059701 403.54452871278" class="trace-invisible-hover-outline" stroke="rgb(0, 150, 0)" fill="none" stroke-width="13.102804114272px" stroke-linecap="round" opacity="0" stroke-linejoin="round"/><path d="M 530.1263137842161 423.9186275099838 L 530.1263137842161 403.54452871278 L 673.4606191059701 403.54452871278" stroke="rgb(0, 150, 0)" fill="none" stroke-width="1.637850514284px" stroke-linecap="round" stroke-linejoin="round"/></g><g class="trace" data-circuit-json-type="schematic_trace" data-schematic-trace-id="schematic_trace_7"><path d="M 923.2551996669314 260.12691002999065 L 972.3683379628001 260.12691002999065 L 972.3683379628001 247.9487298558" class="trace-invisible-hover-outline" stroke="rgb(0, 150, 0)" fill="none" stroke-width="13.102804114272px" stroke-linecap="round" opacity="0" stroke-linejoin="round"/><path d="M 923.2551996669314 260.12691002999065 L 972.3683379628001 260.12691002999065 L 972.3683379628001 247.9487298558" stroke="rgb(0, 150, 0)" fill="none" stroke-width="1.637850514284px" stroke-linecap="round" stroke-linejoin="round"/></g><g class="trace" data-circuit-json-type="schematic_trace" data-schematic-trace-id="schematic_trace_8"><path d="M 980.5799676668714 260.12691002999065 L 972.3683379628001 260.12691002999065 L 972.3683379628001 247.9487298558" class="trace-invisible-hover-outline" stroke="rgb(0, 150, 0)" fill="none" stroke-width="13.102804114272px" stroke-linecap="round" opacity="0" stroke-linejoin="round"/><path d="M 980.5799676668714 260.12691002999065 L 972.3683379628001 260.12691002999065 L 972.3683379628001 247.9487298558" stroke="rgb(0, 150, 0)" fill="none" stroke-width="1.637850514284px" stroke-linecap="round" stroke-linejoin="round"/></g><g class="trace" data-circuit-json-type="schematic_trace" data-schematic-trace-id="schematic_trace_9"><path d="M 673.4606191059701 387.16602356994 L 644.798235106 387.16602356994 L 644.798235106 362.59826585568" class="trace-invisible-hover-outline" stroke="rgb(0, 150, 0)" fill="none" stroke-width="13.102804114272px" stroke-linecap="round" opacity="0" stroke-linejoin="round"/><path d="M 673.4606191059701 387.16602356994 L 644.798235106 387.16602356994 L 644.798235106 362.59826585568" stroke="rgb(0, 150, 0)" fill="none" stroke-width="1.637850514284px" stroke-linecap="round" stroke-linejoin="round"/></g><g class="trace" data-circuit-json-type="schematic_trace" data-schematic-trace-id="schematic_trace_10"><path d="M 673.4606191059701 436.30153899846 L 644.798235106 436.30153899846 L 644.798235106 362.59826585568" class="trace-invisible-hover-outline" stroke="rgb(0, 150, 0)" fill="none" stroke-width="13.102804114272px" stroke-linecap="round" opacity="0" stroke-linejoin="round"/><path d="M 673.4606191059701 436.30153899846 L 644.798235106 436.30153899846 L 644.798235106 362.59826585568" stroke="rgb(0, 150, 0)" fill="none" stroke-width="1.637850514284px" stroke-linecap="round" stroke-linejoin="round"/></g><g class="trace" data-circuit-json-type="schematic_trace" data-schematic-trace-id="schematic_trace_11"><path d="M 673.4606191059701 419.92303385562 L 612.04122482032 419.92303385562 L 612.04122482032 452.6800441413" class="trace-invisible-hover-outline" stroke="rgb(0, 150, 0)" fill="none" stroke-width="13.102804114272px" stroke-linecap="round" opacity="0" stroke-linejoin="round"/><path d="M 673.4606191059701 419.92303385562 L 612.04122482032 419.92303385562 L 612.04122482032 452.6800441413" stroke="rgb(0, 150, 0)" fill="none" stroke-width="1.637850514284px" stroke-linecap="round" stroke-linejoin="round"/></g><g class="trace" data-circuit-json-type="schematic_trace" data-schematic-trace-id="schematic_trace_12"><path d="M 530.171084428024 514.1984710582963 L 530.171084428024 514.1984710582963" class="trace-invisible-hover-outline" stroke="rgb(0, 150, 0)" fill="none" stroke-width="13.102804114272px" stroke-linecap="round" opacity="0" stroke-linejoin="round"/><path d="M 530.171084428024 514.1984710582963 L 530.171084428024 514.1984710582963" stroke="rgb(0, 150, 0)" fill="none" stroke-width="1.637850514284px" stroke-linecap="round" stroke-linejoin="round"/></g><g class="trace" data-circuit-json-type="schematic_trace" data-schematic-trace-id="schematic_trace_13"><path d="M 292.66037453494 288.89499271290003 L 251.71411167784004 288.89499271290003" class="trace-invisible-hover-outline" stroke="rgb(0, 150, 0)" fill="none" stroke-width="13.102804114272px" stroke-linecap="round" opacity="0" stroke-linejoin="round"/><path d="M 292.66037453494 288.89499271290003 L 251.71411167784004 288.89499271290003" stroke="rgb(0, 150, 0)" fill="none" stroke-width="1.637850514284px" stroke-linecap="round" stroke-linejoin="round"/></g><g class="trace" data-circuit-json-type="schematic_trace" data-schematic-trace-id="schematic_trace_14"><path d="M 292.66037453494 305.27349785574 L 251.71411167784004 305.27349785574" class="trace-invisible-hover-outline" stroke="rgb(0, 150, 0)" fill="none" stroke-width="13.102804114272px" stroke-linecap="round" opacity="0" stroke-linejoin="round"/><path d="M 292.66037453494 305.27349785574 L 251.71411167784004 305.27349785574" stroke="rgb(0, 150, 0)" fill="none" stroke-width="1.637850514284px" stroke-linecap="round" stroke-linejoin="round"/></g><g class="trace" data-circuit-json-type="schematic_trace" data-schematic-trace-id="schematic_trace_15"><path d="M 292.66037453494 321.65200299858 L 251.71411167784004 321.65200299858" class="trace-invisible-hover-outline" stroke="rgb(0, 150, 0)" fill="none" stroke-width="13.102804114272px" stroke-linecap="round" opacity="0" stroke-linejoin="round"/><path d="M 292.66037453494 321.65200299858 L 251.71411167784004 321.65200299858" stroke="rgb(0, 150, 0)" fill="none" stroke-width="1.637850514284px" stroke-linecap="round" stroke-linejoin="round"/></g><g class="trace" data-circuit-json-type="schematic_trace" data-schematic-trace-id="schematic_trace_16"><path d="M 292.66037453494 338.03050814142 L 251.71411167784004 338.03050814142 L 251.71411167784004 338.03050814142" class="trace-invisible-hover-outline" stroke="rgb(0, 150, 0)" fill="none" stroke-width="13.102804114272px" stroke-linecap="round" opacity="0" stroke-linejoin="round"/><path d="M 292.66037453494 338.03050814142 L 251.71411167784004 338.03050814142 L 251.71411167784004 338.03050814142" stroke="rgb(0, 150, 0)" fill="none" stroke-width="1.637850514284px" stroke-linecap="round" stroke-linejoin="round"/></g><g class="trace" data-circuit-json-type="schematic_trace" data-schematic-trace-id="schematic_trace_17"><path d="M 292.66037453494 354.40901328426 L 276.2818693921 354.40901328426 L 276.2818693921 256.13798242722" class="trace-invisible-hover-outline" stroke="rgb(0, 150, 0)" fill="none" stroke-width="13.102804114272px" stroke-linecap="round" opacity="0" stroke-linejoin="round"/><path d="M 292.66037453494 354.40901328426 L 276.2818693921 354.40901328426 L 276.2818693921 256.13798242722" stroke="rgb(0, 150, 0)" fill="none" stroke-width="1.637850514284px" stroke-linecap="round" stroke-linejoin="round"/></g><g class="trace" data-circuit-json-type="schematic_trace" data-schematic-trace-id="schematic_trace_18"><path d="M 292.66037453494 370.7875184271 L 276.2818693921 370.7875184271 L 276.2818693921 395.35527614136" class="trace-invisible-hover-outline" stroke="rgb(0, 150, 0)" fill="none" stroke-width="13.102804114272px" stroke-linecap="round" opacity="0" stroke-linejoin="round"/><path d="M 292.66037453494 370.7875184271 L 276.2818693921 370.7875184271 L 276.2818693921 395.35527614136" stroke="rgb(0, 150, 0)" fill="none" stroke-width="1.637850514284px" stroke-linecap="round" stroke-linejoin="round"/></g><g class="schematic-port-hover" data-schematic-port-id="source_port_0"><circle cx="767.6036599888179" cy="116.11966500335342" r="3.275701028568" fill="red" opacity="0"/></g><g class="schematic-port-hover" data-schematic-port-id="source_port_1"><circle cx="767.6484306326257" cy="206.39950855166586" r="3.275701028568" fill="red" opacity="0"/></g><g class="schematic-port-hover" data-schematic-port-id="source_port_2"><circle cx="685.766883285004" cy="197.03322305611383" r="3.275701028568" fill="red" opacity="0"/></g><g class="schematic-port-hover" data-schematic-port-id="source_port_3"><circle cx="685.722112641196" cy="116.24390431282012" r="3.275701028568" fill="red" opacity="0"/></g><g class="schematic-port-hover" data-schematic-port-id="source_port_4"><circle cx="866.8119765585656" cy="116.11966500335342" r="3.275701028568" fill="red" opacity="0"/></g><g class="schematic-port-hover" data-schematic-port-id="source_port_5"><circle cx="866.8567472023734" cy="206.39950855166586" r="3.275701028568" fill="red" opacity="0"/></g><g class="schematic-port-hover" data-schematic-port-id="source_port_6"><circle cx="673.4606191059701" cy="387.16602356994" r="3.275701028568" fill="red" opacity="0"/></g><g class="schematic-port-hover" data-schematic-port-id="source_port_7"><circle cx="673.4606191059701" cy="403.54452871278" r="3.275701028568" fill="red" opacity="0"/></g><g class="schematic-port-hover" data-schematic-port-id="source_port_8"><circle cx="673.4606191059701" cy="419.92303385562" r="3.275701028568" fill="red" opacity="0"/></g><g class="schematic-port-hover" data-schematic-port-id="source_port_9"><circle cx="673.4606191059701" cy="436.30153899846" r="3.275701028568" fill="red" opacity="0"/></g><g class="schematic-port-hover" data-schematic-port-id="source_port_10"><circle cx="861.81342824863" cy="436.30153899846" r="3.275701028568" fill="red" opacity="0"/></g><g class="schematic-port-hover" data-schematic-port-id="source_port_11"><circle cx="861.81342824863" cy="419.92303385562" r="3.275701028568" fill="red" opacity="0"/></g><g class="schematic-port-hover" data-schematic-port-id="source_port_12"><circle cx="861.81342824863" cy="403.54452871278" r="3.275701028568" fill="red" opacity="0"/></g><g class="schematic-port-hover" data-schematic-port-id="source_port_13"><circle cx="861.81342824863" cy="387.16602356994" r="3.275701028568" fill="red" opacity="0"/></g><g class="schematic-port-hover" data-schematic-port-id="source_port_14"><circle cx="923.2551996669314" cy="260.12691002999065" r="3.275701028568" fill="red" opacity="0"/></g><g class="schematic-port-hover" data-schematic-port-id="source_port_15"><circle cx="923.2104454016287" cy="350.42008568148935" r="3.275701028568" fill="red" opacity="0"/></g><g class="schematic-port-hover" data-schematic-port-id="source_port_16"><circle cx="980.5799676668714" cy="260.12691002999065" r="3.275701028568" fill="red" opacity="0"/></g><g class="schematic-port-hover" data-schematic-port-id="source_port_17"><circle cx="980.5352134015686" cy="350.42008568148935" r="3.275701028568" fill="red" opacity="0"/></g><g class="schematic-port-hover" data-schematic-port-id="source_port_18"><circle cx="530.1263137842161" cy="423.9186275099838" r="3.275701028568" fill="red" opacity="0"/></g><g class="schematic-port-hover" data-schematic-port-id="source_port_19"><circle cx="530.171084428024" cy="514.1984710582963" r="3.275701028568" fill="red" opacity="0"/></g><g class="schematic-port-hover" data-schematic-port-id="source_port_20"><circle cx="292.66037453494" cy="288.89499271290003" r="3.275701028568" fill="red" opacity="0"/></g><g class="schematic-port-hover" data-schematic-port-id="source_port_21"><circle cx="292.66037453494" cy="305.27349785574" r="3.275701028568" fill="red" opacity="0"/></g><g class="schematic-port-hover" data-schematic-port-id="source_port_22"><circle cx="292.66037453494" cy="321.65200299858" r="3.275701028568" fill="red" opacity="0"/></g><g class="schematic-port-hover" data-schematic-port-id="source_port_23"><circle cx="292.66037453494" cy="338.03050814142" r="3.275701028568" fill="red" opacity="0"/></g><g class="schematic-port-hover" data-schematic-port-id="source_port_24"><circle cx="292.66037453494" cy="354.40901328426" r="3.275701028568" fill="red" opacity="0"/></g><g class="schematic-port-hover" data-schematic-port-id="source_port_25"><circle cx="292.66037453494" cy="370.7875184271" r="3.275701028568" fill="red" opacity="0"/></g><rect class="component-overlay" x="759.9894492172166" y="49.39961336450601" width="15.17300621806396" height="33.540058427306676" fill="transparent"/><path d="M 767.4560903309872 49.39961336450601 L 759.9894492172166 65.04687557748625" stroke="rgb(132, 0, 0)" fill="none" stroke-width="1.637850514284px" stroke-linecap="round"/><path d="M 767.6958143215102 49.40776986006714 L 775.1624554352805 65.05507301931024" stroke="rgb(132, 0, 0)" fill="none" stroke-width="1.637850514284px" stroke-linecap="round"/><path d="M 767.5424951348681 49.81249091139933 L 767.5424951348681 82.93967179181269" stroke="rgb(132, 0, 0)" fill="none" stroke-width="1.637850514284px" stroke-linecap="round"/><text x="767.1761980566009" y="44.600613086623106" fill="rgb(15, 15, 15)" font-family="sans-serif" text-anchor="middle" dominant-baseline="ideographic" font-size="14.740654628556001px">VCC</text><rect class="component-overlay" x="748.7820885568626" y="239.6707467327687" width="36.79605611418776" height="39.589254570500316" fill="transparent"/><path d="M 767.5480720158693 239.6707467327687 L 767.5480720158693 266.66525841852786" stroke="rgb(132, 0, 0)" fill="none" stroke-width="1.637850514284px" stroke-linecap="round"/><path d="M 748.7820885568626 266.6625723436844 L 785.5781446710504 266.6625723436844" stroke="rgb(132, 0, 0)" fill="none" stroke-width="1.637850514284px" stroke-linecap="round"/><path d="M 753.3815986421058 272.96128682347677 L 780.9786345858071 272.96128682347677" stroke="rgb(132, 0, 0)" fill="none" stroke-width="1.637850514284px" stroke-linecap="round"/><path d="M 762.5806106233397 279.260001303269 L 771.7796226045734 279.260001303269" stroke="rgb(132, 0, 0)" fill="none" stroke-width="1.637850514284px" stroke-linecap="round"/><text x="765.7845000961088" y="288.85214654344634" fill="rgb(15, 15, 15)" font-family="sans-serif" text-anchor="middle" dominant-baseline="hanging" font-size="14.740654628556001px">GND</text><rect class="component-overlay" x="964.7207635027166" y="213.18466479290606" width="15.17300621806396" height="33.54005842730669" fill="transparent"/><path d="M 972.1874046164872 213.18466479290606 L 964.7207635027166 228.8319270058863" stroke="rgb(132, 0, 0)" fill="none" stroke-width="1.637850514284px" stroke-linecap="round"/><path d="M 972.4271286070102 213.1928212884672 L 979.8937697207806 228.8401244477103" stroke="rgb(132, 0, 0)" fill="none" stroke-width="1.637850514284px" stroke-linecap="round"/><path d="M 972.2738094203681 213.5975423397994 L 972.2738094203681 246.72472322021275" stroke="rgb(132, 0, 0)" fill="none" stroke-width="1.637850514284px" stroke-linecap="round"/><text x="971.907512342101" y="208.38566451502317" fill="rgb(15, 15, 15)" font-family="sans-serif" text-anchor="middle" dominant-baseline="ideographic" font-size="14.740654628556001px">VCC</text><rect class="component-overlay" x="637.1506606459167" y="327.8342007927861" width="15.17300621806396" height="33.54005842730669" fill="transparent"/><path d="M 644.6173017596873 327.8342007927861 L 637.1506606459167 343.4814630057663" stroke="rgb(132, 0, 0)" fill="none" stroke-width="1.637850514284px" stroke-linecap="round"/><path d="M 644.8570257502103 327.8423572883472 L 652.3236668639806 343.48966044759027" stroke="rgb(132, 0, 0)" fill="none" stroke-width="1.637850514284px" stroke-linecap="round"/><path d="M 644.7037065635682 328.2470783396794 L 644.7037065635682 361.37425922009277" stroke="rgb(132, 0, 0)" fill="none" stroke-width="1.637850514284px" stroke-linecap="round"/><text x="644.337409485301" y="323.0352005149032" fill="rgb(15, 15, 15)" font-family="sans-serif" text-anchor="middle" dominant-baseline="ideographic" font-size="14.740654628556001px">VCC</text><rect class="component-overlay" x="593.1862896998826" y="452.5913135896887" width="36.79605611418776" height="39.589254570500316" fill="transparent"/><path d="M 611.9522731588893 452.5913135896887 L 611.9522731588893 479.58582527544786" stroke="rgb(132, 0, 0)" fill="none" stroke-width="1.637850514284px" stroke-linecap="round"/><path d="M 593.1862896998826 479.5831392006044 L 629.9823458140704 479.5831392006044" stroke="rgb(132, 0, 0)" fill="none" stroke-width="1.637850514284px" stroke-linecap="round"/><path d="M 597.7857997851258 485.8818536803968 L 625.3828357288271 485.8818536803968" stroke="rgb(132, 0, 0)" fill="none" stroke-width="1.637850514284px" stroke-linecap="round"/><path d="M 606.9848117663597 492.180568160189 L 616.1838237475935 492.180568160189" stroke="rgb(132, 0, 0)" fill="none" stroke-width="1.637850514284px" stroke-linecap="round"/><text x="610.1887012391288" y="501.77271340036634" fill="rgb(15, 15, 15)" font-family="sans-serif" text-anchor="middle" dominant-baseline="hanging" font-size="14.740654628556001px">GND</text><rect class="component-overlay" x="511.31614930758656" y="514.1097405066848" width="36.79605611418776" height="39.589254570500316" fill="transparent"/><path d="M 530.0821327665932 514.1097405066848 L 530.0821327665932 541.104252192444" stroke="rgb(132, 0, 0)" fill="none" stroke-width="1.637850514284px" stroke-linecap="round"/><path d="M 511.31614930758656 541.1015661176007 L 548.1122054217743 541.1015661176007" stroke="rgb(132, 0, 0)" fill="none" stroke-width="1.637850514284px" stroke-linecap="round"/><path d="M 515.9156593928298 547.4002805973929 L 543.512695336531 547.4002805973929" stroke="rgb(132, 0, 0)" fill="none" stroke-width="1.637850514284px" stroke-linecap="round"/><path d="M 525.1146713740636 553.6989950771851 L 534.3136833552974 553.6989950771851" stroke="rgb(132, 0, 0)" fill="none" stroke-width="1.637850514284px" stroke-linecap="round"/><text x="528.3185608468327" y="563.2911403173625" fill="rgb(15, 15, 15)" font-family="sans-serif" text-anchor="middle" dominant-baseline="hanging" font-size="14.740654628556001px">GND</text><path class="net-label" d="
    M 251.71411167784004,288.89499271290003
    L 247.29191528927325,297.7393854900336
    L 206.5203564870302,297.7393854900336
    L 206.5203564870302,280.0505999357664
    L 247.29191528927325,280.05059993576646
    Z
  " fill="rgba(255, 255, 255, 0.6)" stroke="rgb(132, 0, 0)" stroke-width="1.637850514284px"/><text class="net-label-text" x="244.34378436356204" y="288.89499271290003" fill="rgb(132, 0, 0)" text-anchor="end" dominant-baseline="central" font-family="sans-serif" font-variant-numeric="tabular-nums" font-size="14.740654628556001px" transform="">INT2</text><path class="net-label" d="
    M 251.71411167784004,305.27349785574
    L 247.29191528927325,314.1178906328736
    L 206.5203564870302,314.1178906328736
    L 206.5203564870302,296.4291050786064
    L 247.29191528927325,296.4291050786064
    Z
  " fill="rgba(255, 255, 255, 0.6)" stroke="rgb(132, 0, 0)" stroke-width="1.637850514284px"/><text class="net-label-text" x="244.34378436356204" y="305.27349785574" fill="rgb(132, 0, 0)" text-anchor="end" dominant-baseline="central" font-family="sans-serif" font-variant-numeric="tabular-nums" font-size="14.740654628556001px" transform="">INT1</text><path class="net-label" d="
    M 251.71411167784004,321.65200299858
    L 247.29191528927325,330.49639577571355
    L 209.04264627902757,330.49639577571355
    L 209.04264627902757,312.80761022144634
    L 247.29191528927325,312.8076102214464
    Z
  " fill="rgba(255, 255, 255, 0.6)" stroke="rgb(132, 0, 0)" stroke-width="1.637850514284px"/><text class="net-label-text" x="244.34378436356204" y="321.65200299858" fill="rgb(132, 0, 0)" text-anchor="end" dominant-baseline="central" font-family="sans-serif" font-variant-numeric="tabular-nums" font-size="14.740654628556001px" transform="">SDA</text><path class="net-label" d="
    M 251.71411167784004,338.03050814142
    L 247.29191528927325,346.8749009185536
    L 210.68049679331156,346.8749009185536
    L 210.68049679331156,329.18611536428637
    L 247.29191528927325,329.1861153642864
    Z
  " fill="rgba(255, 255, 255, 0.6)" stroke="rgb(132, 0, 0)" stroke-width="1.637850514284px"/><text class="net-label-text" x="244.34378436356204" y="338.03050814142" fill="rgb(132, 0, 0)" text-anchor="end" dominant-baseline="central" font-family="sans-serif" font-variant-numeric="tabular-nums" font-size="14.740654628556001px" transform="">SCL</text><rect class="component-overlay" x="268.6342949320166" y="221.37391736432608" width="15.17300621806396" height="33.54005842730666" fill="transparent"/><path d="M 276.10093604578725 221.37391736432608 L 268.6342949320166 237.0211795773063" stroke="rgb(132, 0, 0)" fill="none" stroke-width="1.637850514284px" stroke-linecap="round"/><path d="M 276.3406600363102 221.38207385988719 L 283.80730115008055 237.0293770191303" stroke="rgb(132, 0, 0)" fill="none" stroke-width="1.637850514284px" stroke-linecap="round"/><path d="M 276.18734084966815 221.78679491121937 L 276.18734084966815 254.91397579163274" stroke="rgb(132, 0, 0)" fill="none" stroke-width="1.637850514284px" stroke-linecap="round"/><text x="275.821043771401" y="216.57491708644315" fill="rgb(15, 15, 15)" font-family="sans-serif" text-anchor="middle" dominant-baseline="ideographic" font-size="14.740654628556001px">VCC</text><rect class="component-overlay" x="257.4269342716626" y="395.26654558974866" width="36.79605611418771" height="39.589254570500316" fill="transparent"/><path d="M 276.1929177306693 395.26654558974866 L 276.1929177306693 422.2610572755078" stroke="rgb(132, 0, 0)" fill="none" stroke-width="1.637850514284px" stroke-linecap="round"/><path d="M 257.4269342716626 422.2583712006644 L 294.2229903858503 422.2583712006644" stroke="rgb(132, 0, 0)" fill="none" stroke-width="1.637850514284px" stroke-linecap="round"/><path d="M 262.0264443569058 428.55708568045674 L 289.62348030060707 428.55708568045674" stroke="rgb(132, 0, 0)" fill="none" stroke-width="1.637850514284px" stroke-linecap="round"/><path d="M 271.2254563381396 434.855800160249 L 280.42446831937343 434.855800160249" stroke="rgb(132, 0, 0)" fill="none" stroke-width="1.637850514284px" stroke-linecap="round"/><text x="274.4293458109088" y="444.4479454004263" fill="rgb(15, 15, 15)" font-family="sans-serif" text-anchor="middle" dominant-baseline="hanging" font-size="14.740654628556001px">GND</text><path class="net-label" d="
    M 861.81342824863,419.92303385562
    L 866.2356246371968,411.07864107848644
    L 907.0071834394398,411.07864107848644
    L 907.0071834394398,428.7674266327536
    L 866.2356246371968,428.7674266327536
    Z
  " fill="rgba(255, 255, 255, 0.6)" stroke="rgb(132, 0, 0)" stroke-width="1.637850514284px"/><text class="net-label-text" x="869.183755562908" y="419.92303385562" fill="rgb(132, 0, 0)" text-anchor="start" dominant-baseline="central" font-family="sans-serif" font-variant-numeric="tabular-nums" font-size="14.740654628556001px" transform="">INT1</text><path class="net-label" d="
    M 861.81342824863,436.30153899846
    L 866.2356246371968,427.4571462213264
    L 907.0071834394398,427.4571462213264
    L 907.0071834394398,445.14593177559357
    L 866.2356246371968,445.14593177559357
    Z
  " fill="rgba(255, 255, 255, 0.6)" stroke="rgb(132, 0, 0)" stroke-width="1.637850514284px"/><text class="net-label-text" x="869.183755562908" y="436.30153899846" fill="rgb(132, 0, 0)" text-anchor="start" dominant-baseline="central" font-family="sans-serif" font-variant-numeric="tabular-nums" font-size="14.740654628556001px" transform="">INT2</text><path class="net-label" d="
    M 861.81342824863,387.16602356994
    L 866.2356246371968,378.32163079280645
    L 902.8470431331584,378.32163079280645
    L 902.8470431331584,396.0104163470736
    L 866.2356246371968,396.0104163470736
    Z
  " fill="rgba(255, 255, 255, 0.6)" stroke="rgb(132, 0, 0)" stroke-width="1.637850514284px"/><text class="net-label-text" x="869.183755562908" y="387.16602356994" fill="rgb(132, 0, 0)" text-anchor="start" dominant-baseline="central" font-family="sans-serif" font-variant-numeric="tabular-nums" font-size="14.740654628556001px" transform="">SCL</text><path class="net-label" d="
    M 861.81342824863,403.54452871278
    L 866.2356246371968,394.7001359356464
    L 904.4848936474425,394.7001359356464
    L 904.4848936474425,412.38892148991357
    L 866.2356246371968,412.38892148991357
    Z
  " fill="rgba(255, 255, 255, 0.6)" stroke="rgb(132, 0, 0)" stroke-width="1.637850514284px"/><text class="net-label-text" x="869.183755562908" y="403.54452871278" fill="rgb(132, 0, 0)" text-anchor="start" dominant-baseline="central" font-family="sans-serif" font-variant-numeric="tabular-nums" font-size="14.740654628556001px" transform="">SDA</text><path class="net-label" d="
    M 923.2104454016287,350.42008568148935
    L 932.0548381787623,354.84228207005617
    L 932.0548381787623,391.4537005660178
    L 914.3660526244951,391.4537005660178
    L 914.3660526244951,354.84228207005617
    Z
  " fill="rgba(255, 255, 255, 0.6)" stroke="rgb(132, 0, 0)" stroke-width="1.637850514284px"/><text class="net-label-text" x="923.2104454016287" y="357.7904129957674" fill="rgb(132, 0, 0)" text-anchor="start" dominant-baseline="central" font-family="sans-serif" font-variant-numeric="tabular-nums" font-size="14.740654628556001px" transform="rotate(90 923.2104454016287 357.7904129957674)">SCL</text><path class="net-label" d="
    M 980.5352134015686,350.42008568148935
    L 989.3796061787023,354.84228207005617
    L 989.3796061787023,393.0915510803018
    L 971.690820624435,393.0915510803018
    L 971.690820624435,354.84228207005617
    Z
  " fill="rgba(255, 255, 255, 0.6)" stroke="rgb(132, 0, 0)" stroke-width="1.637850514284px"/><text class="net-label-text" x="980.5352134015686" y="357.7904129957674" fill="rgb(132, 0, 0)" text-anchor="start" dominant-baseline="central" font-family="sans-serif" font-variant-numeric="tabular-nums" font-size="14.740654628556001px" transform="rotate(90 980.5352134015686 357.7904129957674)">SDA</text></svg>