<svg xmlns="http://www.w3.org/2000/svg" width="1200" height="600" style="background-color: rgb(245, 241, 237)" data-real-to-screen-transform="matrix(70.3586728791,0,0,-70.3586728791,744.0268010843,353.7446449232)" data-software-used-string="@tscircuit/core@0.0.616"><style>
              .boundary { fill: rgb(245, 241, 237); }
              .schematic-boundary { fill: none; stroke: #fff; }
              .component { fill: none; stroke: rgb(132, 0, 0); }
              .chip { fill: rgb(255, 255, 194); stroke: rgb(132, 0, 0); }
              .component-pin { fill: none; stroke: rgb(132, 0, 0); }
              /* Basic per-trace hover fallback */
              .trace:hover {
                filter: invert(1);
              }
              .trace:hover .trace-crossing-outline {
                opacity: 0;
              }
              .trace:hover .trace-junction {
                filter: invert(1);
              }
              /* Net-hover highlighting: when a trace or its overlays are hovered,
                 invert color for all traces (base + overlays) sharing the same
                 subcircuit connectivity key. Also hide crossing outline during hover. */
              svg:has(:is(g.trace[data-subcircuit-connectivity-map-key="undefined"], g.trace-overlays[data-subcircuit-connectivity-map-key="undefined"]):hover) :is(g.trace[data-subcircuit-connectivity-map-key="undefined"], g.trace-overlays[data-subcircuit-connectivity-map-key="undefined"]) { filter: invert(1); }
svg:has(:is(g.trace[data-subcircuit-connectivity-map-key="undefined"], g.trace-overlays[data-subcircuit-connectivity-map-key="undefined"]):hover) g.trace-overlays[data-subcircuit-connectivity-map-key="undefined"] .trace-crossing-outline { opacity: 0; }
              .text { font-family: sans-serif; fill: rgb(0, 150, 0); }
              .pin-number { fill: rgb(169, 0, 0); }
              .port-label { fill: rgb(0, 100, 100); }
              .component-name { fill: rgb(0, 100, 100); }
            </style><rect class="boundary" x="0" y="0" width="1200" height="600"/><g class="trace" data-layer="base" data-circuit-json-type="schematic_trace" data-schematic-trace-id="schematic_trace_0"><path d="M 673.6873607484315 169.2828004314417 L 673.6873607484315 184.36484982445762 L 744.0366014687834 184.36484982445762 L 744.0366014687834 177.32992575242244" class="trace-invisible-hover-outline" stroke="rgb(0, 150, 0)" fill="none" stroke-width="11.257387660656px" stroke-linecap="round" opacity="0" stroke-linejoin="round"/><path d="M 673.6873607484315 169.2828004314417 L 673.6873607484315 184.36484982445762 L 744.0366014687834 184.36484982445762 L 744.0366014687834 177.32992575242244" stroke="rgb(0, 150, 0)" fill="none" stroke-width="1.407173457582px" stroke-linecap="round" stroke-linejoin="round"/></g><g class="trace" data-layer="base" data-circuit-json-type="schematic_trace" data-schematic-trace-id="schematic_trace_1"><path d="M 743.9981363823204 99.765216099187 L 744.0268010843 99.765216099187 L 744.0268010843 72.30995340679999" class="trace-invisible-hover-outline" stroke="rgb(0, 150, 0)" fill="none" stroke-width="11.257387660656px" stroke-linecap="round" opacity="0" stroke-linejoin="round"/><path d="M 743.9981363823204 99.765216099187 L 744.0268010843 99.765216099187 L 744.0268010843 72.30995340679999" stroke="rgb(0, 150, 0)" fill="none" stroke-width="1.407173457582px" stroke-linecap="round" stroke-linejoin="round"/></g><g class="trace" data-layer="base" data-circuit-json-type="schematic_trace" data-schematic-trace-id="schematic_trace_2"><path d="M 673.6488956619685 99.87195737816523 L 744.0268010843 99.87195737816523 L 744.0268010843 72.30995340679999" class="trace-invisible-hover-outline" stroke="rgb(0, 150, 0)" fill="none" stroke-width="11.257387660656px" stroke-linecap="round" opacity="0" stroke-linejoin="round"/><path d="M 673.6488956619685 99.87195737816523 L 744.0268010843 99.87195737816523 L 744.0268010843 72.30995340679999" stroke="rgb(0, 150, 0)" fill="none" stroke-width="1.407173457582px" stroke-linecap="round" stroke-linejoin="round"/></g><g class="trace" data-layer="base" data-circuit-json-type="schematic_trace" data-schematic-trace-id="schematic_trace_3"><path d="M 829.2338209767537 99.765216099187 L 744.0268010843 99.765216099187 L 744.0268010843 72.30995340679999" class="trace-invisible-hover-outline" stroke="rgb(0, 150, 0)" fill="none" stroke-width="11.257387660656px" stroke-linecap="round" opacity="0" stroke-linejoin="round"/><path d="M 829.2338209767537 99.765216099187 L 744.0268010843 99.765216099187 L 744.0268010843 72.30995340679999" stroke="rgb(0, 150, 0)" fill="none" stroke-width="1.407173457582px" stroke-linecap="round" stroke-linejoin="round"/></g><g class="trace" data-layer="base" data-circuit-json-type="schematic_trace" data-schematic-trace-id="schematic_trace_4"><path d="M 744.0366014687834 177.32992575242244 L 744.0268010843 177.32992575242244 L 744.0268010843 205.99143187708998" class="trace-invisible-hover-outline" stroke="rgb(0, 150, 0)" fill="none" stroke-width="11.257387660656px" stroke-linecap="round" opacity="0" stroke-linejoin="round"/><path d="M 744.0366014687834 177.32992575242244 L 744.0268010843 177.32992575242244 L 744.0268010843 205.99143187708998" stroke="rgb(0, 150, 0)" fill="none" stroke-width="1.407173457582px" stroke-linecap="round" stroke-linejoin="round"/></g><g class="trace" data-layer="base" data-circuit-json-type="schematic_trace" data-schematic-trace-id="schematic_trace_5"><path d="M 829.2722860632167 177.32992575242244 L 744.0268010843 177.32992575242244 L 744.0268010843 205.99143187708998" class="trace-invisible-hover-outline" stroke="rgb(0, 150, 0)" fill="none" stroke-width="11.257387660656px" stroke-linecap="round" opacity="0" stroke-linejoin="round"/><path d="M 829.2722860632167 177.32992575242244 L 744.0268010843 177.32992575242244 L 744.0268010843 205.99143187708998" stroke="rgb(0, 150, 0)" fill="none" stroke-width="1.407173457582px" stroke-linecap="round" stroke-linejoin="round"/></g><g class="trace" data-layer="base" data-circuit-json-type="schematic_trace" data-schematic-trace-id="schematic_trace_6"><path d="M 539.9674171916786 364.2133611119523 L 539.9674171916786 346.70877763529 L 663.114327273335 346.70877763529" class="trace-invisible-hover-outline" stroke="rgb(0, 150, 0)" fill="none" stroke-width="11.257387660656px" stroke-linecap="round" opacity="0" stroke-linejoin="round"/><path d="M 539.9674171916786 364.2133611119523 L 539.9674171916786 346.70877763529 L 663.114327273335 346.70877763529" stroke="rgb(0, 150, 0)" fill="none" stroke-width="1.407173457582px" stroke-linecap="round" stroke-linejoin="round"/></g><g class="trace" data-layer="base" data-circuit-json-type="schematic_trace" data-schematic-trace-id="schematic_trace_7"><path d="M 877.7275050619542 223.4902881577799 L 919.92348328205 223.4902881577799 L 919.92348328205 213.027299165" class="trace-invisible-hover-outline" stroke="rgb(0, 150, 0)" fill="none" stroke-width="11.257387660656px" stroke-linecap="round" opacity="0" stroke-linejoin="round"/><path d="M 877.7275050619542 223.4902881577799 L 919.92348328205 223.4902881577799 L 919.92348328205 213.027299165" stroke="rgb(0, 150, 0)" fill="none" stroke-width="1.407173457582px" stroke-linecap="round" stroke-linejoin="round"/></g><g class="trace" data-layer="base" data-circuit-json-type="schematic_trace" data-schematic-trace-id="schematic_trace_8"><path d="M 926.9785760773242 223.4902881577799 L 919.92348328205 223.4902881577799 L 919.92348328205 213.027299165" class="trace-invisible-hover-outline" stroke="rgb(0, 150, 0)" fill="none" stroke-width="11.257387660656px" stroke-linecap="round" opacity="0" stroke-linejoin="round"/><path d="M 926.9785760773242 223.4902881577799 L 919.92348328205 223.4902881577799 L 919.92348328205 213.027299165" stroke="rgb(0, 150, 0)" fill="none" stroke-width="1.407173457582px" stroke-linecap="round" stroke-linejoin="round"/></g><g class="trace" data-layer="base" data-circuit-json-type="schematic_trace" data-schematic-trace-id="schematic_trace_9"><path d="M 663.114327273335 332.63704305947 L 638.48879176565 332.63704305947 L 638.48879176565 311.52944119574" class="trace-invisible-hover-outline" stroke="rgb(0, 150, 0)" fill="none" stroke-width="11.257387660656px" stroke-linecap="round" opacity="0" stroke-linejoin="round"/><path d="M 663.114327273335 332.63704305947 L 638.48879176565 332.63704305947 L 638.48879176565 311.52944119574" stroke="rgb(0, 150, 0)" fill="none" stroke-width="1.407173457582px" stroke-linecap="round" stroke-linejoin="round"/></g><g class="trace" data-layer="base" data-circuit-json-type="schematic_trace" data-schematic-trace-id="schematic_trace_10"><path d="M 663.114327273335 374.85224678693 L 638.48879176565 374.85224678693 L 638.48879176565 311.52944119574" class="trace-invisible-hover-outline" stroke="rgb(0, 150, 0)" fill="none" stroke-width="11.257387660656px" stroke-linecap="round" opacity="0" stroke-linejoin="round"/><path d="M 663.114327273335 374.85224678693 L 638.48879176565 374.85224678693 L 638.48879176565 311.52944119574" stroke="rgb(0, 150, 0)" fill="none" stroke-width="1.407173457582px" stroke-linecap="round" stroke-linejoin="round"/></g><g class="trace" data-layer="base" data-circuit-json-type="schematic_trace" data-schematic-trace-id="schematic_trace_11"><path d="M 663.114327273335 360.78051221110996 L 610.34532261401 360.78051221110996 L 610.34532261401 388.92398136275" class="trace-invisible-hover-outline" stroke="rgb(0, 150, 0)" fill="none" stroke-width="11.257387660656px" stroke-linecap="round" opacity="0" stroke-linejoin="round"/><path d="M 663.114327273335 360.78051221110996 L 610.34532261401 360.78051221110996 L 610.34532261401 388.92398136275" stroke="rgb(0, 150, 0)" fill="none" stroke-width="1.407173457582px" stroke-linecap="round" stroke-linejoin="round"/></g><g class="trace" data-layer="base" data-circuit-json-type="schematic_trace" data-schematic-trace-id="schematic_trace_12"><path d="M 540.0058822781416 441.7780707651877 L 540.0058822781416 441.7780707651877" class="trace-invisible-hover-outline" stroke="rgb(0, 150, 0)" fill="none" stroke-width="11.257387660656px" stroke-linecap="round" opacity="0" stroke-linejoin="round"/><path d="M 540.0058822781416 441.7780707651877 L 540.0058822781416 441.7780707651877" stroke="rgb(0, 150, 0)" fill="none" stroke-width="1.407173457582px" stroke-linecap="round" stroke-linejoin="round"/></g><g class="trace" data-layer="base" data-circuit-json-type="schematic_trace" data-schematic-trace-id="schematic_trace_13"><path d="M 335.94649838552004 248.20663560455 L 300.76716194597003 248.20663560455" class="trace-invisible-hover-outline" stroke="rgb(0, 150, 0)" fill="none" stroke-width="11.257387660656px" stroke-linecap="round" opacity="0" stroke-linejoin="round"/><path d="M 335.94649838552004 248.20663560455 L 300.76716194597003 248.20663560455" stroke="rgb(0, 150, 0)" fill="none" stroke-width="1.407173457582px" stroke-linecap="round" stroke-linejoin="round"/></g><g class="trace" data-layer="base" data-circuit-json-type="schematic_trace" data-schematic-trace-id="schematic_trace_14"><path d="M 335.94649838552004 262.27837018036996 L 300.76716194597003 262.27837018036996" class="trace-invisible-hover-outline" stroke="rgb(0, 150, 0)" fill="none" stroke-width="11.257387660656px" stroke-linecap="round" opacity="0" stroke-linejoin="round"/><path d="M 335.94649838552004 262.27837018036996 L 300.76716194597003 262.27837018036996" stroke="rgb(0, 150, 0)" fill="none" stroke-width="1.407173457582px" stroke-linecap="round" stroke-linejoin="round"/></g><g class="trace" data-layer="base" data-circuit-json-type="schematic_trace" data-schematic-trace-id="schematic_trace_15"><path d="M 335.94649838552004 276.35010475619 L 300.76716194597003 276.35010475619" class="trace-invisible-hover-outline" stroke="rgb(0, 150, 0)" fill="none" stroke-width="11.257387660656px" stroke-linecap="round" opacity="0" stroke-linejoin="round"/><path d="M 335.94649838552004 276.35010475619 L 300.76716194597003 276.35010475619" stroke="rgb(0, 150, 0)" fill="none" stroke-width="1.407173457582px" stroke-linecap="round" stroke-linejoin="round"/></g><g class="trace" data-layer="base" data-circuit-json-type="schematic_trace" data-schematic-trace-id="schematic_trace_16"><path d="M 335.94649838552004 290.42183933201 L 300.76716194597003 290.42183933201 L 300.76716194597003 290.42183933201" class="trace-invisible-hover-outline" stroke="rgb(0, 150, 0)" fill="none" stroke-width="11.257387660656px" stroke-linecap="round" opacity="0" stroke-linejoin="round"/><path d="M 335.94649838552004 290.42183933201 L 300.76716194597003 290.42183933201 L 300.76716194597003 290.42183933201" stroke="rgb(0, 150, 0)" fill="none" stroke-width="1.407173457582px" stroke-linecap="round" stroke-linejoin="round"/></g><g class="trace" data-layer="base" data-circuit-json-type="schematic_trace" data-schematic-trace-id="schematic_trace_17"><path d="M 335.94649838552004 304.49357390783 L 321.8747638097 304.49357390783 L 321.8747638097 220.06316645291" class="trace-invisible-hover-outline" stroke="rgb(0, 150, 0)" fill="none" stroke-width="11.257387660656px" stroke-linecap="round" opacity="0" stroke-linejoin="round"/><path d="M 335.94649838552004 304.49357390783 L 321.8747638097 304.49357390783 L 321.8747638097 220.06316645291" stroke="rgb(0, 150, 0)" fill="none" stroke-width="1.407173457582px" stroke-linecap="round" stroke-linejoin="round"/></g><g class="trace" data-layer="base" data-circuit-json-type="schematic_trace" data-schematic-trace-id="schematic_trace_18"><path d="M 335.94649838552004 318.56530848364997 L 321.8747638097 318.56530848364997 L 321.8747638097 339.67291034737997" class="trace-invisible-hover-outline" stroke="rgb(0, 150, 0)" fill="none" stroke-width="11.257387660656px" stroke-linecap="round" opacity="0" stroke-linejoin="round"/><path d="M 335.94649838552004 318.56530848364997 L 321.8747638097 318.56530848364997 L 321.8747638097 339.67291034737997" stroke="rgb(0, 150, 0)" fill="none" stroke-width="1.407173457582px" stroke-linecap="round" stroke-linejoin="round"/></g><g class="trace-overlays" data-layer="overlay" data-circuit-json-type="schematic_trace" data-schematic-trace-id="schematic_trace_0"/><g class="trace-overlays" data-layer="overlay" data-circuit-json-type="schematic_trace" data-schematic-trace-id="schematic_trace_1"/><g class="trace-overlays" data-layer="overlay" data-circuit-json-type="schematic_trace" data-schematic-trace-id="schematic_trace_2"/><g class="trace-overlays" data-layer="overlay" data-circuit-json-type="schematic_trace" data-schematic-trace-id="schematic_trace_3"/><g class="trace-overlays" data-layer="overlay" data-circuit-json-type="schematic_trace" data-schematic-trace-id="schematic_trace_4"/><g class="trace-overlays" data-layer="overlay" data-circuit-json-type="schematic_trace" data-schematic-trace-id="schematic_trace_5"/><g class="trace-overlays" data-layer="overlay" data-circuit-json-type="schematic_trace" data-schematic-trace-id="schematic_trace_6"/><g class="trace-overlays" data-layer="overlay" data-circuit-json-type="schematic_trace" data-schematic-trace-id="schematic_trace_7"/><g class="trace-overlays" data-layer="overlay" data-circuit-json-type="schematic_trace" data-schematic-trace-id="schematic_trace_8"/><g class="trace-overlays" data-layer="overlay" data-circuit-json-type="schematic_trace" data-schematic-trace-id="schematic_trace_9"/><g class="trace-overlays" data-layer="overlay" data-circuit-json-type="schematic_trace" data-schematic-trace-id="schematic_trace_10"/><g class="trace-overlays" data-layer="overlay" data-circuit-json-type="schematic_trace" data-schematic-trace-id="schematic_trace_11"/><g class="trace-overlays" data-layer="overlay" data-circuit-json-type="schematic_trace" data-schematic-trace-id="schematic_trace_12"/><g class="trace-overlays" data-layer="overlay" data-circuit-json-type="schematic_trace" data-schematic-trace-id="schematic_trace_13"/><g class="trace-overlays" data-layer="overlay" data-circuit-json-type="schematic_trace" data-schematic-trace-id="schematic_trace_14"/><g class="trace-overlays" data-layer="overlay" data-circuit-json-type="schematic_trace" data-schematic-trace-id="schematic_trace_15"/><g class="trace-overlays" data-layer="overlay" data-circuit-json-type="schematic_trace" data-schematic-trace-id="schematic_trace_16"/><g class="trace-overlays" data-layer="overlay" data-circuit-json-type="schematic_trace" data-schematic-trace-id="schematic_trace_17"/><g class="trace-overlays" data-layer="overlay" data-circuit-json-type="schematic_trace" data-schematic-trace-id="schematic_trace_18"/><g data-circuit-json-type="schematic_component" data-schematic-component-id="schematic_component_0"><rect class="component-overlay" x="724.9595234900237" y="99.67703242320329" width="37.37209197376751" height="77.56471919083828" fill="transparent"/><path d="M 743.9981363823204 177.24175161404156 L 743.9981363823204 143.39532869440305" stroke="rgb(132, 0, 0)" fill="none" stroke-width="1.407173457582px" stroke-linecap="round"/><path d="M 743.9981363823204 132.1131877211902 L 743.9981363823204 99.67703242320329" stroke="rgb(132, 0, 0)" fill="none" stroke-width="1.407173457582px" stroke-linecap="round"/><path d="M 762.3316154637912 143.39532869440302 L 724.9595234900237 143.39532869440305" stroke="rgb(132, 0, 0)" fill="none" stroke-width="1.407173457582px" stroke-linecap="round"/><path d="M 762.3316154637912 132.1131877211902 L 724.9595234900237 132.1131877211902" stroke="rgb(132, 0, 0)" fill="none" stroke-width="1.407173457582px" stroke-linecap="round"/><text x="750.6969075851655" y="124.46695767566206" stroke="rgb(245, 241, 237)" stroke-width="1.407173457582px" paint-order="stroke" fill="rgb(15, 15, 15)" font-family="sans-serif" text-anchor="start" dominant-baseline="auto" font-size="12.664561118238px">C1</text><text x="750.6969075851655" y="152.4518263615828" fill="rgb(15, 15, 15)" font-family="sans-serif" text-anchor="start" dominant-baseline="hanging" font-size="12.664561118238px">100nF</text></g><g data-circuit-json-type="schematic_component" data-schematic-component-id="schematic_component_1"><rect class="component-overlay" x="652.6264051027467" y="99.99900758634422" width="39.96382486407333" height="69.41085371128534" fill="transparent"/><path d="M 673.6599971364695 99.99900758634422 L 673.6599971364695 131.54939563692847" stroke="rgb(132, 0, 0)" fill="none" stroke-width="1.407173457582px" stroke-linecap="round"/><path d="M 673.6599971364695 137.85947324704532 L 673.6599971364695 169.40986129762956" stroke="rgb(132, 0, 0)" fill="none" stroke-width="1.407173457582px" stroke-linecap="round"/><path d="M 655.4308840405764 131.54939563692847 L 692.5902299668201 131.54939563692847" stroke="rgb(132, 0, 0)" fill="none" stroke-width="1.407173457582px" stroke-linecap="round"/><path d="M 691.8891102323627 141.36507191933245 L 691.8891102323627 141.36507191933245 L 691.8891102323627 141.36507191933245 L 691.8891102323627 141.36507191933245 L 691.8891102323627 141.36507191933245 L 691.8891102323627 141.36507191933245 L 691.8891102323627 141.36507191933245 L 691.8891102323627 141.36507191933245 L 691.8891102323627 141.36507191933245 L 691.1879904979053 141.36507191933245 L 691.1879904979053 141.36507191933245 L 691.1879904979053 141.36507191933245 L 691.1879904979053 141.36507191933245 L 691.1879904979053 140.66395218487503 L 691.1879904979053 140.66395218487503 L 691.1879904979053 140.66395218487503 L 691.1879904979053 140.66395218487503 L 690.4868707634478 140.66395218487503 L 690.4868707634478 140.66395218487503 L 690.4868707634478 140.66395218487503 L 690.4868707634478 140.66395218487503 L 690.4868707634478 140.66395218487503 L 690.4868707634478 140.66395218487503 L 690.4868707634478 140.66395218487503 L 690.4868707634478 140.66395218487503 L 689.7857510289904 140.66395218487503 L 689.7857510289904 140.66395218487503 L 689.7857510289904 140.66395218487503 L 689.7857510289904 139.9628324504176 L 689.7857510289904 139.9628324504176 L 689.7857510289904 139.9628324504176 L 689.7857510289904 139.9628324504176 L 689.7857510289904 139.9628324504176 L 689.084631294533 139.9628324504176 L 689.084631294533 139.9628324504176 L 689.084631294533 139.9628324504176 L 689.084631294533 139.9628324504176 L 689.084631294533 139.9628324504176 L 689.084631294533 139.9628324504176 L 689.084631294533 139.9628324504176 L 689.084631294533 139.9628324504176 L 688.3835115600756 139.9628324504176 L 688.3835115600756 139.9628324504176 L 688.3835115600756 139.9628324504176 L 688.3835115600756 139.9628324504176 L 688.3835115600756 139.2617127159602 L 688.3835115600756 139.2617127159602 L 688.3835115600756 139.2617127159602 L 687.6823918256181 139.2617127159602 L 687.6823918256181 139.2617127159602 L 687.6823918256181 139.2617127159602 L 687.6823918256181 139.2617127159602 L 687.6823918256181 139.2617127159602 L 687.6823918256181 139.2617127159602 L 687.6823918256181 139.2617127159602 L 687.6823918256181 139.2617127159602 L 686.9812720911607 139.2617127159602 L 686.9812720911607 139.2617127159602 L 686.9812720911607 139.2617127159602 L 686.9812720911607 139.2617127159602 L 686.9812720911607 139.2617127159602 L 686.9812720911607 139.2617127159602 L 686.9812720911607 139.2617127159602 L 686.9812720911607 139.2617127159602 L 686.2801523567033 138.56059298150274 L 686.2801523567033 138.56059298150274 L 686.2801523567033 138.56059298150274 L 686.2801523567033 138.56059298150274 L 686.2801523567033 138.56059298150274 L 686.2801523567033 138.56059298150274 L 686.2801523567033 138.56059298150274 L 686.2801523567033 138.56059298150274 L 685.5790326222458 138.56059298150274 L 685.5790326222458 138.56059298150274 L 685.5790326222458 138.56059298150274 L 685.5790326222458 138.56059298150274 L 685.5790326222458 138.56059298150274 L 685.5790326222458 138.56059298150274 L 685.5790326222458 138.56059298150274 L 684.8779128877884 138.56059298150274 L 684.8779128877884 138.56059298150274 L 684.8779128877884 138.56059298150274 L 684.8779128877884 138.56059298150274 L 684.8779128877884 138.56059298150274 L 684.8779128877884 138.56059298150274 L 684.8779128877884 138.56059298150274 L 684.8779128877884 137.85947324704532 L 684.176793153331 137.85947324704532 L 684.176793153331 137.85947324704532 L 684.176793153331 137.85947324704532 L 684.176793153331 137.85947324704532 L 684.176793153331 137.85947324704532 L 684.176793153331 137.85947324704532 L 684.176793153331 137.85947324704532 L 684.176793153331 137.85947324704532 L 683.4756734188735 137.85947324704532 L 683.4756734188735 137.85947324704532 L 683.4756734188735 137.85947324704532 L 683.4756734188735 137.85947324704532 L 683.4756734188735 137.85947324704532 L 683.4756734188735 137.85947324704532 L 683.4756734188735 137.85947324704532 L 683.4756734188735 137.85947324704532 L 682.7745536844161 137.85947324704532 L 682.7745536844161 137.85947324704532 L 682.7745536844161 137.85947324704532 L 682.7745536844161 137.85947324704532 L 682.7745536844161 137.85947324704532 L 682.7745536844161 137.85947324704532 L 682.0734339499587 137.85947324704532 L 682.0734339499587 137.85947324704532 L 682.0734339499587 137.85947324704532 L 682.0734339499587 137.85947324704532 L 682.0734339499587 137.85947324704532 L 682.0734339499587 137.85947324704532 L 681.3723142155012 137.1583535125879 L 681.3723142155012 137.1583535125879 L 681.3723142155012 137.1583535125879 L 681.3723142155012 137.1583535125879 L 681.3723142155012 137.1583535125879 L 681.3723142155012 137.1583535125879 L 680.6711944810438 137.1583535125879 L 680.6711944810438 137.1583535125879 L 680.6711944810438 137.1583535125879 L 680.6711944810438 137.1583535125879 L 680.6711944810438 137.1583535125879 L 680.6711944810438 137.1583535125879 L 679.9700747465864 137.1583535125879 L 679.9700747465864 137.1583535125879 L 679.9700747465864 137.1583535125879 L 679.9700747465864 137.1583535125879 L 679.9700747465864 137.1583535125879 L 679.9700747465864 137.1583535125879 L 679.268955012129 137.1583535125879 L 679.268955012129 137.1583535125879 L 679.268955012129 137.1583535125879 L 679.268955012129 137.1583535125879 L 679.268955012129 137.1583535125879 L 678.5678352776715 137.1583535125879 L 678.5678352776715 137.1583535125879 L 678.5678352776715 137.1583535125879 L 678.5678352776715 137.1583535125879 L 678.5678352776715 137.1583535125879 L 678.5678352776715 137.1583535125879 L 677.8667155432141 137.1583535125879 L 677.8667155432141 137.1583535125879 L 677.8667155432141 137.1583535125879 L 677.8667155432141 137.1583535125879 L 677.8667155432141 137.1583535125879 L 677.8667155432141 137.1583535125879 L 677.1655958087567 137.1583535125879 L 677.1655958087567 137.1583535125879 L 677.1655958087567 137.1583535125879 L 677.1655958087567 137.1583535125879 L 677.1655958087567 137.1583535125879 L 677.1655958087567 137.1583535125879 L 676.4644760742992 137.1583535125879 L 676.4644760742992 137.1583535125879 L 676.4644760742992 137.1583535125879 L 676.4644760742992 137.1583535125879 L 676.4644760742992 137.1583535125879 L 676.4644760742992 137.1583535125879 L 675.7633563398418 137.1583535125879 L 675.7633563398418 137.1583535125879 L 675.7633563398418 137.1583535125879 L 675.7633563398418 137.1583535125879 L 675.7633563398418 137.1583535125879 L 675.0622366053844 137.1583535125879 L 675.0622366053844 137.1583535125879 L 675.0622366053844 137.1583535125879 L 675.0622366053844 137.1583535125879 L 675.0622366053844 137.1583535125879 L 675.0622366053844 137.1583535125879 L 674.3611168709269 137.1583535125879 L 674.3611168709269 136.45723377813047 L 674.3611168709269 136.45723377813047 L 674.3611168709269 136.45723377813047 L 674.3611168709269 136.45723377813047 L 674.3611168709269 136.45723377813047 L 673.6599971364695 137.1583535125879 L 673.6599971364695 137.1583535125879 L 673.6599971364695 137.1583535125879 L 673.6599971364695 137.1583535125879 L 673.6599971364695 137.1583535125879 L 673.6599971364695 137.1583535125879 L 672.9588774020121 137.1583535125879 L 672.9588774020121 137.1583535125879 L 672.9588774020121 137.1583535125879 L 672.9588774020121 137.1583535125879 L 672.9588774020121 137.1583535125879 L 672.9588774020121 137.1583535125879 L 672.2577576675546 137.1583535125879 L 672.2577576675546 137.1583535125879 L 672.2577576675546 137.1583535125879 L 672.2577576675546 137.1583535125879 L 672.2577576675546 137.1583535125879 L 671.5566379330972 137.1583535125879 L 671.5566379330972 137.1583535125879 L 671.5566379330972 137.1583535125879 L 671.5566379330972 137.1583535125879 L 671.5566379330972 137.1583535125879 L 671.5566379330972 137.1583535125879 L 670.8555181986399 137.1583535125879 L 670.8555181986399 137.1583535125879 L 670.8555181986399 137.1583535125879 L 670.8555181986399 137.1583535125879 L 670.8555181986399 137.1583535125879 L 670.8555181986399 137.1583535125879 L 670.8555181986399 137.1583535125879 L 670.8555181986399 137.1583535125879 L 670.1543984641825 137.1583535125879 L 670.1543984641825 137.1583535125879 L 670.1543984641825 137.1583535125879 L 670.1543984641825 137.1583535125879 L 670.1543984641825 137.1583535125879 L 670.1543984641825 137.1583535125879 L 670.1543984641825 137.1583535125879 L 669.453278729725 137.1583535125879 L 669.453278729725 137.1583535125879 L 669.453278729725 137.1583535125879 L 669.453278729725 137.1583535125879 L 669.453278729725 137.1583535125879 L 669.453278729725 137.1583535125879 L 668.7521589952676 137.1583535125879 L 668.7521589952676 137.1583535125879 L 668.7521589952676 137.1583535125879 L 668.7521589952676 137.1583535125879 L 668.7521589952676 137.1583535125879 L 668.7521589952676 137.1583535125879 L 668.7521589952676 137.1583535125879 L 668.0510392608102 137.1583535125879 L 668.0510392608102 137.1583535125879 L 668.0510392608102 137.1583535125879 L 668.0510392608102 137.1583535125879 L 668.0510392608102 137.1583535125879 L 668.0510392608102 137.1583535125879 L 668.0510392608102 137.1583535125879 L 667.3499195263527 137.1583535125879 L 667.3499195263527 137.1583535125879 L 667.3499195263527 137.1583535125879 L 667.3499195263527 137.1583535125879 L 667.3499195263527 137.1583535125879 L 667.3499195263527 137.1583535125879 L 667.3499195263527 137.1583535125879 L 666.6487997918953 137.1583535125879 L 666.6487997918953 137.1583535125879 L 666.6487997918953 137.1583535125879 L 666.6487997918953 137.1583535125879 L 666.6487997918953 137.85947324704532 L 666.6487997918953 137.85947324704532 L 666.6487997918953 137.85947324704532 L 665.9476800574379 137.85947324704532 L 665.9476800574379 137.85947324704532 L 665.9476800574379 137.85947324704532 L 665.9476800574379 137.85947324704532 L 665.9476800574379 137.85947324704532 L 665.9476800574379 137.85947324704532 L 665.2465603229804 137.85947324704532 L 665.2465603229804 137.85947324704532 L 665.2465603229804 137.85947324704532 L 665.2465603229804 137.85947324704532 L 665.2465603229804 137.85947324704532 L 665.2465603229804 137.85947324704532 L 665.2465603229804 137.85947324704532 L 664.545440588523 137.85947324704532 L 664.545440588523 137.85947324704532 L 664.545440588523 137.85947324704532 L 664.545440588523 137.85947324704532 L 664.545440588523 137.85947324704532 L 664.545440588523 137.85947324704532 L 664.545440588523 137.85947324704532 L 663.8443208540656 137.85947324704532 L 663.8443208540656 137.85947324704532 L 663.8443208540656 137.85947324704532 L 663.8443208540656 137.85947324704532 L 663.8443208540656 137.85947324704532 L 663.8443208540656 137.85947324704532 L 663.8443208540656 137.85947324704532 L 663.1432011196082 137.85947324704532 L 663.1432011196082 137.85947324704532 L 663.1432011196082 138.56059298150274 L 663.1432011196082 138.56059298150274 L 663.1432011196082 138.56059298150274 L 663.1432011196082 138.56059298150274 L 663.1432011196082 138.56059298150274 L 662.4420813851507 138.56059298150274 L 662.4420813851507 138.56059298150274 L 662.4420813851507 138.56059298150274 L 662.4420813851507 138.56059298150274 L 662.4420813851507 138.56059298150274 L 662.4420813851507 138.56059298150274 L 662.4420813851507 138.56059298150274 L 661.7409616506933 138.56059298150274 L 661.7409616506933 138.56059298150274 L 661.7409616506933 138.56059298150274 L 661.7409616506933 138.56059298150274 L 661.7409616506933 138.56059298150274 L 661.7409616506933 138.56059298150274 L 661.7409616506933 138.56059298150274 L 661.0398419162359 138.56059298150274 L 661.0398419162359 138.56059298150274 L 661.0398419162359 138.56059298150274 L 661.0398419162359 138.56059298150274 L 661.0398419162359 138.56059298150274 L 661.0398419162359 138.56059298150274 L 661.0398419162359 139.26171271596016 L 661.0398419162359 139.26171271596016 L 661.0398419162359 139.26171271596016 L 660.3387221817784 139.26171271596016 L 660.3387221817784 139.26171271596016 L 660.3387221817784 139.26171271596016 L 660.3387221817784 139.26171271596016 L 660.3387221817784 139.26171271596016 L 660.3387221817784 139.26171271596016 L 660.3387221817784 139.26171271596016 L 660.3387221817784 139.26171271596016 L 660.3387221817784 139.26171271596016 L 660.3387221817784 139.26171271596016 L 660.3387221817784 139.26171271596016 L 660.3387221817784 139.26171271596016 L 660.3387221817784 139.26171271596016 L 659.637602447321 139.26171271596016 L 659.637602447321 139.26171271596016 L 659.637602447321 139.26171271596016 L 659.637602447321 139.26171271596016 L 659.637602447321 139.26171271596016 L 659.637602447321 139.26171271596016 L 659.637602447321 139.26171271596016 L 659.637602447321 139.26171271596016 L 659.637602447321 139.26171271596016 L 659.637602447321 139.26171271596016 L 659.637602447321 139.26171271596016 L 659.637602447321 139.26171271596016 L 658.9364827128636 139.26171271596016 L 658.9364827128636 139.26171271596016 L 658.9364827128636 139.26171271596016 L 658.9364827128636 139.26171271596016 L 658.9364827128636 139.9628324504176 L 658.9364827128636 139.9628324504176 L 658.9364827128636 139.9628324504176 L 658.9364827128636 139.9628324504176 L 658.9364827128636 139.9628324504176 L 658.9364827128636 139.9628324504176 L 658.9364827128636 139.9628324504176 L 658.9364827128636 139.9628324504176 L 658.2353629784061 139.9628324504176 L 658.2353629784061 139.9628324504176 L 658.2353629784061 139.9628324504176 L 658.2353629784061 139.9628324504176 L 658.2353629784061 139.9628324504176 L 658.2353629784061 139.9628324504176 L 658.2353629784061 139.9628324504176 L 658.2353629784061 139.9628324504176 L 658.2353629784061 139.9628324504176 L 658.2353629784061 139.9628324504176 L 658.2353629784061 139.9628324504176 L 658.2353629784061 139.9628324504176 L 657.5342432439487 139.9628324504176 L 657.5342432439487 139.9628324504176 L 657.5342432439487 139.9628324504176 L 657.5342432439487 139.9628324504176 L 657.5342432439487 139.9628324504176 L 657.5342432439487 139.9628324504176 L 657.5342432439487 140.66395218487503 L 657.5342432439487 140.66395218487503 L 657.5342432439487 140.66395218487503 L 657.5342432439487 140.66395218487503 L 657.5342432439487 140.66395218487503 L 657.5342432439487 140.66395218487503 L 657.5342432439487 140.66395218487503 L 656.8331235094913 140.66395218487503 L 656.8331235094913 140.66395218487503 L 656.8331235094913 140.66395218487503 L 656.8331235094913 140.66395218487503 L 656.8331235094913 140.66395218487503 L 656.8331235094913 140.66395218487503 L 656.8331235094913 140.66395218487503 L 656.8331235094913 140.66395218487503 L 656.8331235094913 140.66395218487503 L 656.8331235094913 140.66395218487503 L 656.8331235094913 140.66395218487503 L 656.8331235094913 140.66395218487503 L 656.8331235094913 140.66395218487503 L 656.1320037750338 140.66395218487503 L 656.1320037750338 140.66395218487503 L 656.1320037750338 140.66395218487503 L 656.1320037750338 140.66395218487503 L 656.1320037750338 141.36507191933245 L 656.1320037750338 141.36507191933245 L 656.1320037750338 141.36507191933245 L 656.1320037750338 141.36507191933245 L 656.1320037750338 141.36507191933245 L 656.1320037750338 141.36507191933245 L 656.1320037750338 141.36507191933245 L 656.1320037750338 141.36507191933245 L 656.1320037750338 141.36507191933245 L 655.4308840405764 141.36507191933245 L 655.4308840405764 141.36507191933245 L 655.4308840405764 141.36507191933245 L 655.4308840405764 141.36507191933245 L 655.4308840405764 141.36507191933245 L 655.4308840405764 141.36507191933245 L 655.4308840405764 141.36507191933245 L 655.4308840405764 141.36507191933245 L 655.4308840405764 141.36507191933245" stroke="rgb(132, 0, 0)" fill="none" stroke-width="1.407173457582px" stroke-linecap="round"/><path d="M 657.5342432439487 113.32028254103534 L 657.5342432439487 123.13595882343932 L 657.5342432439487 123.13595882343932 L 657.5342432439487 113.32028254103534" stroke="rgb(132, 0, 0)" fill="none" stroke-width="1.407173457582px" stroke-linecap="round"/><path d="M 652.6264051027467 117.52700094777991 L 662.4420813851507 117.52700094777991 L 662.4420813851507 118.22812068223735 L 652.6264051027467 118.22812068223733" stroke="rgb(132, 0, 0)" fill="none" stroke-width="1.407173457582px" stroke-linecap="round"/><text x="689.7475645426531" y="124.6368511675023" stroke="rgb(245, 241, 237)" stroke-width="1.407173457582px" paint-order="stroke" fill="rgb(15, 15, 15)" font-family="sans-serif" text-anchor="start" dominant-baseline="auto" font-size="12.664561118238px">C2</text><text x="689.7475645426531" y="145.47313745092893" fill="rgb(15, 15, 15)" font-family="sans-serif" text-anchor="start" dominant-baseline="hanging" font-size="12.664561118238px">10µF</text></g><g data-circuit-json-type="schematic_component" data-schematic-component-id="schematic_component_2"><rect class="component-overlay" x="810.195208084457" y="99.67703242320329" width="37.37209197376751" height="77.56471919083828" fill="transparent"/><path d="M 829.2338209767537 177.24175161404156 L 829.2338209767537 143.39532869440305" stroke="rgb(132, 0, 0)" fill="none" stroke-width="1.407173457582px" stroke-linecap="round"/><path d="M 829.2338209767537 132.1131877211902 L 829.2338209767537 99.67703242320329" stroke="rgb(132, 0, 0)" fill="none" stroke-width="1.407173457582px" stroke-linecap="round"/><path d="M 847.5673000582245 143.39532869440302 L 810.195208084457 143.39532869440305" stroke="rgb(132, 0, 0)" fill="none" stroke-width="1.407173457582px" stroke-linecap="round"/><path d="M 847.5673000582245 132.1131877211902 L 810.195208084457 132.1131877211902" stroke="rgb(132, 0, 0)" fill="none" stroke-width="1.407173457582px" stroke-linecap="round"/><text x="835.9325921795988" y="124.46695767566206" stroke="rgb(245, 241, 237)" stroke-width="1.407173457582px" paint-order="stroke" fill="rgb(15, 15, 15)" font-family="sans-serif" text-anchor="start" dominant-baseline="auto" font-size="12.664561118238px">C4</text><text x="835.9325921795988" y="152.4518263615828" fill="rgb(15, 15, 15)" font-family="sans-serif" text-anchor="start" dominant-baseline="hanging" font-size="12.664561118238px">1µF</text></g><g data-circuit-json-type="schematic_component" data-schematic-component-id="schematic_component_3"><rect class="component chip" x="691.257796424975" y="318.56530848364997" width="105.53800931864998" height="70.35867287910003" stroke-width="1.407173457582px" fill="rgb(255, 255, 194)" stroke="rgb(132, 0, 0)"/><rect class="component-overlay" x="691.257796424975" y="318.56530848364997" width="105.53800931864998" height="70.35867287910003" fill="transparent"/><text x="691.257796424975" y="398.070608837033" fill="#006464" text-anchor="start" dominant-baseline="middle" font-family="sans-serif" font-size="12.664561118238px" transform="rotate(0, 691.257796424975, 398.070608837033)">MPL3115A2R1</text><text x="691.257796424975" y="309.418681009367" fill="#006464" text-anchor="start" dominant-baseline="middle" font-family="sans-serif" font-size="12.664561118238px" transform="rotate(0, 691.257796424975, 309.418681009367)">U1</text><line class="component-pin" x1="691.257796424975" y1="332.63704305947" x2="663.114327273335" y2="332.63704305947" stroke-width="1.407173457582px"/><g data-schematic-port-id="source_port_6"><rect x="661.707153815753" y="331.22986960188797" width="2.814346915164" height="2.814346915164" opacity="0"/></g><text class="pin-number" x="677.1860618491551" y="331.22986960188797" style="font-family: sans-serif;" fill="rgb(169, 0, 0)" text-anchor="middle" dominant-baseline="auto" font-size="10.553800931865px" transform="">1</text><text class="pin-number" x="698.2936637128851" y="332.63704305947" style="font-family: sans-serif;" fill="rgb(169, 0, 0)" text-anchor="start" dominant-baseline="middle" font-size="10.553800931865px" transform="">VDD</text><line class="component-pin" x1="691.257796424975" y1="346.70877763529" x2="663.114327273335" y2="346.70877763529" stroke-width="1.407173457582px"/><g data-schematic-port-id="source_port_7"><rect x="661.707153815753" y="345.301604177708" width="2.814346915164" height="2.814346915164" opacity="0"/></g><text class="pin-number" x="677.1860618491551" y="345.301604177708" style="font-family: sans-serif;" fill="rgb(169, 0, 0)" text-anchor="middle" dominant-baseline="auto" font-size="10.553800931865px" transform="">2</text><text class="pin-number" x="698.2936637128851" y="346.70877763529" style="font-family: sans-serif;" fill="rgb(169, 0, 0)" text-anchor="start" dominant-baseline="middle" font-size="10.553800931865px" transform="">CAP</text><line class="component-pin" x1="691.257796424975" y1="360.78051221110996" x2="663.114327273335" y2="360.78051221110996" stroke-width="1.407173457582px"/><g data-schematic-port-id="source_port_8"><rect x="661.707153815753" y="359.37333875352795" width="2.814346915164" height="2.814346915164" opacity="0"/></g><text class="pin-number" x="677.1860618491551" y="359.373338753528" style="font-family: sans-serif;" fill="rgb(169, 0, 0)" text-anchor="middle" dominant-baseline="auto" font-size="10.553800931865px" transform="">3</text><text class="pin-number" x="698.2936637128851" y="360.78051221110996" style="font-family: sans-serif;" fill="rgb(169, 0, 0)" text-anchor="start" dominant-baseline="middle" font-size="10.553800931865px" transform="">GND</text><line class="component-pin" x1="691.257796424975" y1="374.85224678693" x2="663.114327273335" y2="374.85224678693" stroke-width="1.407173457582px"/><g data-schematic-port-id="source_port_9"><rect x="661.707153815753" y="373.44507332934796" width="2.814346915164" height="2.814346915164" opacity="0"/></g><text class="pin-number" x="677.1860618491551" y="373.44507332934796" style="font-family: sans-serif;" fill="rgb(169, 0, 0)" text-anchor="middle" dominant-baseline="auto" font-size="10.553800931865px" transform="">4</text><text class="pin-number" x="698.2936637128851" y="374.85224678693" style="font-family: sans-serif;" fill="rgb(169, 0, 0)" text-anchor="start" dominant-baseline="middle" font-size="10.553800931865px" transform="">VDDIO</text><line class="component-pin" x1="796.795805743625" y1="374.85224678693" x2="824.939274895265" y2="374.85224678693" stroke-width="1.407173457582px"/><g data-schematic-port-id="source_port_10"><rect x="823.5321014376831" y="373.44507332934796" width="2.814346915164" height="2.814346915164" opacity="0"/></g><text class="pin-number" x="810.867540319445" y="373.44507332934796" style="font-family: sans-serif;" fill="rgb(169, 0, 0)" text-anchor="middle" dominant-baseline="auto" font-size="10.553800931865px" transform="">5</text><text class="pin-number" x="789.759938455715" y="374.85224678693" style="font-family: sans-serif;" fill="rgb(169, 0, 0)" text-anchor="end" dominant-baseline="middle" font-size="10.553800931865px" transform="">INT2</text><line class="component-pin" x1="796.795805743625" y1="360.78051221110996" x2="824.939274895265" y2="360.78051221110996" stroke-width="1.407173457582px"/><g data-schematic-port-id="source_port_11"><rect x="823.5321014376831" y="359.37333875352795" width="2.814346915164" height="2.814346915164" opacity="0"/></g><text class="pin-number" x="810.867540319445" y="359.373338753528" style="font-family: sans-serif;" fill="rgb(169, 0, 0)" text-anchor="middle" dominant-baseline="auto" font-size="10.553800931865px" transform="">6</text><text class="pin-number" x="789.759938455715" y="360.78051221110996" style="font-family: sans-serif;" fill="rgb(169, 0, 0)" text-anchor="end" dominant-baseline="middle" font-size="10.553800931865px" transform="">INT1</text><line class="component-pin" x1="796.795805743625" y1="346.70877763529" x2="824.939274895265" y2="346.70877763529" stroke-width="1.407173457582px"/><g data-schematic-port-id="source_port_12"><rect x="823.5321014376831" y="345.301604177708" width="2.814346915164" height="2.814346915164" opacity="0"/></g><text class="pin-number" x="810.867540319445" y="345.301604177708" style="font-family: sans-serif;" fill="rgb(169, 0, 0)" text-anchor="middle" dominant-baseline="auto" font-size="10.553800931865px" transform="">7</text><text class="pin-number" x="789.759938455715" y="346.70877763529" style="font-family: sans-serif;" fill="rgb(169, 0, 0)" text-anchor="end" dominant-baseline="middle" font-size="10.553800931865px" transform="">SDA</text><line class="component-pin" x1="796.795805743625" y1="332.63704305947" x2="824.939274895265" y2="332.63704305947" stroke-width="1.407173457582px"/><g data-schematic-port-id="source_port_13"><rect x="823.5321014376831" y="331.22986960188797" width="2.814346915164" height="2.814346915164" opacity="0"/></g><text class="pin-number" x="810.867540319445" y="331.22986960188797" style="font-family: sans-serif;" fill="rgb(169, 0, 0)" text-anchor="middle" dominant-baseline="auto" font-size="10.553800931865px" transform="">8</text><text class="pin-number" x="789.759938455715" y="332.63704305947" style="font-family: sans-serif;" fill="rgb(169, 0, 0)" text-anchor="end" dominant-baseline="middle" font-size="10.553800931865px" transform="">SCL</text></g><g data-circuit-json-type="schematic_component" data-schematic-component-id="schematic_component_4"><rect class="component-overlay" x="867.8574763053468" y="223.39121539011333" width="19.04142442280704" height="77.57617357439867" fill="transparent"/><path d="M 877.7308074875431 223.39121539011333 L 877.7308074875431 243.13787775450572" stroke="rgb(132, 0, 0)" fill="none" stroke-width="1.407173457582px" stroke-linecap="round"/><path d="M 877.7308074875431 280.5154886585342 L 877.7308074875431 300.967388964512" stroke="rgb(132, 0, 0)" fill="none" stroke-width="1.407173457582px" stroke-linecap="round"/><path d="M 886.8989007281539 262.1793021773127 L 886.8989007281539 280.5154886585342 L 867.8574763053468 280.5154886585342 L 867.8574763053468 243.13787775450572 L 886.8989007281539 243.13787775450572 L 886.8989007281539 262.1793021773127" stroke="rgb(132, 0, 0)" fill="none" stroke-width="1.407173457582px" stroke-linecap="round"/><text x="890.3866796515925" y="249.48501922877472" stroke="rgb(245, 241, 237)" stroke-width="1.407173457582px" paint-order="stroke" fill="rgb(15, 15, 15)" font-family="sans-serif" text-anchor="start" dominant-baseline="middle" font-size="12.664561118238px">R1</text><text x="890.3866796515925" y="272.0526333595089" fill="rgb(15, 15, 15)" font-family="sans-serif" text-anchor="start" dominant-baseline="middle" font-size="12.664561118238px">1kΩ</text></g><g data-circuit-json-type="schematic_component" data-schematic-component-id="schematic_component_5"><rect class="component-overlay" x="917.1085473207169" y="223.39121539011333" width="19.04142442280704" height="77.57617357439867" fill="transparent"/><path d="M 926.9818785029131 223.39121539011333 L 926.9818785029131 243.13787775450572" stroke="rgb(132, 0, 0)" fill="none" stroke-width="1.407173457582px" stroke-linecap="round"/><path d="M 926.9818785029131 280.5154886585342 L 926.9818785029131 300.967388964512" stroke="rgb(132, 0, 0)" fill="none" stroke-width="1.407173457582px" stroke-linecap="round"/><path d="M 936.1499717435239 262.1793021773127 L 936.1499717435239 280.5154886585342 L 917.1085473207169 280.5154886585342 L 917.1085473207169 243.13787775450572 L 936.1499717435239 243.13787775450572 L 936.1499717435239 262.1793021773127" stroke="rgb(132, 0, 0)" fill="none" stroke-width="1.407173457582px" stroke-linecap="round"/><text x="939.6377506669626" y="249.48501922877472" stroke="rgb(245, 241, 237)" stroke-width="1.407173457582px" paint-order="stroke" fill="rgb(15, 15, 15)" font-family="sans-serif" text-anchor="start" dominant-baseline="middle" font-size="12.664561118238px">R2</text><text x="939.6377506669626" y="272.0526333595089" fill="rgb(15, 15, 15)" font-family="sans-serif" text-anchor="start" dominant-baseline="middle" font-size="12.664561118238px">1kΩ</text></g><g data-circuit-json-type="schematic_component" data-schematic-component-id="schematic_component_6"><rect class="component-overlay" x="520.9288042993819" y="364.12517743596857" width="37.37209197376751" height="77.56471919083822" fill="transparent"/><path d="M 539.9674171916786 441.6898966268068 L 539.9674171916786 407.8434737071683" stroke="rgb(132, 0, 0)" fill="none" stroke-width="1.407173457582px" stroke-linecap="round"/><path d="M 539.9674171916786 396.56133273395545 L 539.9674171916786 364.12517743596857" stroke="rgb(132, 0, 0)" fill="none" stroke-width="1.407173457582px" stroke-linecap="round"/><path d="M 558.3008962731494 407.8434737071683 L 520.9288042993819 407.8434737071683" stroke="rgb(132, 0, 0)" fill="none" stroke-width="1.407173457582px" stroke-linecap="round"/><path d="M 558.3008962731494 396.56133273395545 L 520.9288042993819 396.56133273395545" stroke="rgb(132, 0, 0)" fill="none" stroke-width="1.407173457582px" stroke-linecap="round"/><text x="546.6661883945237" y="388.91510268842734" stroke="rgb(245, 241, 237)" stroke-width="1.407173457582px" paint-order="stroke" fill="rgb(15, 15, 15)" font-family="sans-serif" text-anchor="start" dominant-baseline="auto" font-size="12.664561118238px">C3</text><text x="546.6661883945237" y="416.899971374348" fill="rgb(15, 15, 15)" font-family="sans-serif" text-anchor="start" dominant-baseline="hanging" font-size="12.664561118238px">100nF</text></g><g data-circuit-json-type="schematic_component" data-schematic-component-id="schematic_component_7"><rect class="component chip" x="364.0899675371601" y="234.13490102872998" width="42.21520372745994" height="98.50214203074" stroke-width="1.407173457582px" fill="rgb(255, 255, 194)" stroke="rgb(132, 0, 0)"/><rect class="component-overlay" x="364.0899675371601" y="234.13490102872998" width="42.21520372745994" height="98.50214203074" fill="transparent"/><text x="364.0899675371601" y="341.78367053375297" fill="#006464" text-anchor="start" dominant-baseline="middle" font-family="sans-serif" font-size="12.664561118238px" transform="rotate(0, 364.0899675371601, 341.78367053375297)">M06SIP</text><text x="364.0899675371601" y="224.98827355444698" fill="#006464" text-anchor="start" dominant-baseline="middle" font-family="sans-serif" font-size="12.664561118238px" transform="rotate(0, 364.0899675371601, 224.98827355444698)">JP4</text><line class="component-pin" x1="364.0899675371601" y1="248.20663560455" x2="335.94649838552004" y2="248.20663560455" stroke-width="1.407173457582px"/><g data-schematic-port-id="source_port_20"><rect x="334.539324927938" y="246.799462146968" width="2.814346915164" height="2.814346915164" opacity="0"/></g><text class="pin-number" x="350.01823296134006" y="246.79946214696798" style="font-family: sans-serif;" fill="rgb(169, 0, 0)" text-anchor="middle" dominant-baseline="auto" font-size="10.553800931865px" transform="">1</text><text class="pin-number" x="371.12583482507006" y="248.20663560455" style="font-family: sans-serif;" fill="rgb(169, 0, 0)" text-anchor="start" dominant-baseline="middle" font-size="10.553800931865px" transform="">INT2</text><line class="component-pin" x1="364.0899675371601" y1="262.27837018036996" x2="335.94649838552004" y2="262.27837018036996" stroke-width="1.407173457582px"/><g data-schematic-port-id="source_port_21"><rect x="334.539324927938" y="260.87119672278794" width="2.814346915164" height="2.814346915164" opacity="0"/></g><text class="pin-number" x="350.01823296134006" y="260.871196722788" style="font-family: sans-serif;" fill="rgb(169, 0, 0)" text-anchor="middle" dominant-baseline="auto" font-size="10.553800931865px" transform="">2</text><text class="pin-number" x="371.12583482507006" y="262.27837018036996" style="font-family: sans-serif;" fill="rgb(169, 0, 0)" text-anchor="start" dominant-baseline="middle" font-size="10.553800931865px" transform="">INT1</text><line class="component-pin" x1="364.0899675371601" y1="276.35010475619" x2="335.94649838552004" y2="276.35010475619" stroke-width="1.407173457582px"/><g data-schematic-port-id="source_port_22"><rect x="334.539324927938" y="274.94293129860796" width="2.814346915164" height="2.814346915164" opacity="0"/></g><text class="pin-number" x="350.01823296134006" y="274.94293129860796" style="font-family: sans-serif;" fill="rgb(169, 0, 0)" text-anchor="middle" dominant-baseline="auto" font-size="10.553800931865px" transform="">3</text><text class="pin-number" x="371.12583482507006" y="276.35010475619" style="font-family: sans-serif;" fill="rgb(169, 0, 0)" text-anchor="start" dominant-baseline="middle" font-size="10.553800931865px" transform="">SDA</text><line class="component-pin" x1="364.0899675371601" y1="290.42183933201" x2="335.94649838552004" y2="290.42183933201" stroke-width="1.407173457582px"/><g data-schematic-port-id="source_port_23"><rect x="334.539324927938" y="289.014665874428" width="2.814346915164" height="2.814346915164" opacity="0"/></g><text class="pin-number" x="350.01823296134006" y="289.014665874428" style="font-family: sans-serif;" fill="rgb(169, 0, 0)" text-anchor="middle" dominant-baseline="auto" font-size="10.553800931865px" transform="">4</text><text class="pin-number" x="371.12583482507006" y="290.42183933201" style="font-family: sans-serif;" fill="rgb(169, 0, 0)" text-anchor="start" dominant-baseline="middle" font-size="10.553800931865px" transform="">SCL</text><line class="component-pin" x1="364.0899675371601" y1="304.49357390783" x2="335.94649838552004" y2="304.49357390783" stroke-width="1.407173457582px"/><g data-schematic-port-id="source_port_24"><rect x="334.539324927938" y="303.086400450248" width="2.814346915164" height="2.814346915164" opacity="0"/></g><text class="pin-number" x="350.01823296134006" y="303.086400450248" style="font-family: sans-serif;" fill="rgb(169, 0, 0)" text-anchor="middle" dominant-baseline="auto" font-size="10.553800931865px" transform="">5</text><text class="pin-number" x="371.12583482507006" y="304.49357390783" style="font-family: sans-serif;" fill="rgb(169, 0, 0)" text-anchor="start" dominant-baseline="middle" font-size="10.553800931865px" transform="">VCC</text><line class="component-pin" x1="364.0899675371601" y1="318.56530848364997" x2="335.94649838552004" y2="318.56530848364997" stroke-width="1.407173457582px"/><g data-schematic-port-id="source_port_25"><rect x="334.539324927938" y="317.15813502606795" width="2.814346915164" height="2.814346915164" opacity="0"/></g><text class="pin-number" x="350.01823296134006" y="317.15813502606795" style="font-family: sans-serif;" fill="rgb(169, 0, 0)" text-anchor="middle" dominant-baseline="auto" font-size="10.553800931865px" transform="">6</text><text class="pin-number" x="371.12583482507006" y="318.56530848364997" style="font-family: sans-serif;" fill="rgb(169, 0, 0)" text-anchor="start" dominant-baseline="middle" font-size="10.553800931865px" transform="">GND</text></g><g class="schematic-port-hover" data-schematic-port-id="source_port_0"><circle cx="743.9981363823204" cy="99.765216099187" r="2.814346915164" fill="red" opacity="0"/></g><g class="schematic-port-hover" data-schematic-port-id="source_port_1"><circle cx="744.0366014687834" cy="177.32992575242244" r="2.814346915164" fill="red" opacity="0"/></g><g class="schematic-port-hover" data-schematic-port-id="source_port_2"><circle cx="673.6873607484315" cy="169.2828004314417" r="2.814346915164" fill="red" opacity="0"/></g><g class="schematic-port-hover" data-schematic-port-id="source_port_3"><circle cx="673.6488956619685" cy="99.87195737816523" r="2.814346915164" fill="red" opacity="0"/></g><g class="schematic-port-hover" data-schematic-port-id="source_port_4"><circle cx="829.2338209767537" cy="99.765216099187" r="2.814346915164" fill="red" opacity="0"/></g><g class="schematic-port-hover" data-schematic-port-id="source_port_5"><circle cx="829.2722860632167" cy="177.32992575242244" r="2.814346915164" fill="red" opacity="0"/></g><g class="schematic-port-hover" data-schematic-port-id="source_port_6"><circle cx="663.114327273335" cy="332.63704305947" r="2.814346915164" fill="red" opacity="0"/></g><g class="schematic-port-hover" data-schematic-port-id="source_port_7"><circle cx="663.114327273335" cy="346.70877763529" r="2.814346915164" fill="red" opacity="0"/></g><g class="schematic-port-hover" data-schematic-port-id="source_port_8"><circle cx="663.114327273335" cy="360.78051221110996" r="2.814346915164" fill="red" opacity="0"/></g><g class="schematic-port-hover" data-schematic-port-id="source_port_9"><circle cx="663.114327273335" cy="374.85224678693" r="2.814346915164" fill="red" opacity="0"/></g><g class="schematic-port-hover" data-schematic-port-id="source_port_10"><circle cx="824.939274895265" cy="374.85224678693" r="2.814346915164" fill="red" opacity="0"/></g><g class="schematic-port-hover" data-schematic-port-id="source_port_11"><circle cx="824.939274895265" cy="360.78051221110996" r="2.814346915164" fill="red" opacity="0"/></g><g class="schematic-port-hover" data-schematic-port-id="source_port_12"><circle cx="824.939274895265" cy="346.70877763529" r="2.814346915164" fill="red" opacity="0"/></g><g class="schematic-port-hover" data-schematic-port-id="source_port_13"><circle cx="824.939274895265" cy="332.63704305947" r="2.814346915164" fill="red" opacity="0"/></g><g class="schematic-port-hover" data-schematic-port-id="source_port_14"><circle cx="877.7275050619542" cy="223.4902881577799" r="2.814346915164" fill="red" opacity="0"/></g><g class="schematic-port-hover" data-schematic-port-id="source_port_15"><circle cx="877.6890540472259" cy="301.0664522029601" r="2.814346915164" fill="red" opacity="0"/></g><g class="schematic-port-hover" data-schematic-port-id="source_port_16"><circle cx="926.9785760773242" cy="223.4902881577799" r="2.814346915164" fill="red" opacity="0"/></g><g class="schematic-port-hover" data-schematic-port-id="source_port_17"><circle cx="926.9401250625958" cy="301.0664522029601" r="2.814346915164" fill="red" opacity="0"/></g><g class="schematic-port-hover" data-schematic-port-id="source_port_18"><circle cx="539.9674171916786" cy="364.2133611119523" r="2.814346915164" fill="red" opacity="0"/></g><g class="schematic-port-hover" data-schematic-port-id="source_port_19"><circle cx="540.0058822781416" cy="441.7780707651877" r="2.814346915164" fill="red" opacity="0"/></g><g class="schematic-port-hover" data-schematic-port-id="source_port_20"><circle cx="335.94649838552004" cy="248.20663560455" r="2.814346915164" fill="red" opacity="0"/></g><g class="schematic-port-hover" data-schematic-port-id="source_port_21"><circle cx="335.94649838552004" cy="262.27837018036996" r="2.814346915164" fill="red" opacity="0"/></g><g class="schematic-port-hover" data-schematic-port-id="source_port_22"><circle cx="335.94649838552004" cy="276.35010475619" r="2.814346915164" fill="red" opacity="0"/></g><g class="schematic-port-hover" data-schematic-port-id="source_port_23"><circle cx="335.94649838552004" cy="290.42183933201" r="2.814346915164" fill="red" opacity="0"/></g><g class="schematic-port-hover" data-schematic-port-id="source_port_24"><circle cx="335.94649838552004" cy="304.49357390783" r="2.814346915164" fill="red" opacity="0"/></g><g class="schematic-port-hover" data-schematic-port-id="source_port_25"><circle cx="335.94649838552004" cy="318.56530848364997" r="2.814346915164" fill="red" opacity="0"/></g><rect class="component-overlay" x="735.583760338808" y="58.15027048988113" width="16.886081490983997" height="14.159682916918875" fill="transparent"/><path d="M 744.0268010843 58.15027048988113 L 735.583760338808 64.55584133324919" stroke="rgb(132, 0, 0)" fill="none" stroke-width="1.407173457582px" stroke-linecap="round"/><path d="M 744.0268010843 58.15027048988113 L 752.469841829792 64.55584133324919" stroke="rgb(132, 0, 0)" fill="none" stroke-width="1.407173457582px" stroke-linecap="round"/><path d="M 744.0268010843 58.15027048988113 L 744.0268010843 72.3099534068" stroke="rgb(132, 0, 0)" fill="none" stroke-width="1.407173457582px" stroke-linecap="round"/><text x="744.0268010843" y="56.127458644607" fill="rgb(15, 15, 15)" font-family="sans-serif" text-anchor="middle" dominant-baseline="ideographic" font-size="12.664561118238px">VCC</text><rect class="component-overlay" x="727.844306322107" y="205.99143187708998" width="30.95781606680407" height="33.772162981967995" fill="transparent"/><path d="M 744.0268010843 205.99143187708998 L 743.323214355509 229.20979392719298" stroke="rgb(132, 0, 0)" fill="none" stroke-width="1.407173457582px" stroke-linecap="round"/><path d="M 727.844306322107 229.20979392719298 L 758.802122388911 229.20979392719298" stroke="rgb(132, 0, 0)" fill="none" stroke-width="1.407173457582px" stroke-linecap="round"/><path d="M 731.362239966062 234.83848775752097 L 755.2841887449559 234.83848775752097" stroke="rgb(132, 0, 0)" fill="none" stroke-width="1.407173457582px" stroke-linecap="round"/><path d="M 739.101693982763 239.76359485905797 L 747.544734728255 239.76359485905797" stroke="rgb(132, 0, 0)" fill="none" stroke-width="1.407173457582px" stroke-linecap="round"/><text x="741.916040897927" y="248.20663560454997" fill="rgb(15, 15, 15)" font-family="sans-serif" text-anchor="middle" dominant-baseline="hanging" font-size="12.664561118238px">GND</text><rect class="component-overlay" x="911.480442536558" y="198.8676162480811" width="16.886081490983997" height="14.159682916918854" fill="transparent"/><path d="M 919.92348328205 198.8676162480811 L 911.480442536558 205.27318709144916" stroke="rgb(132, 0, 0)" fill="none" stroke-width="1.407173457582px" stroke-linecap="round"/><path d="M 919.92348328205 198.8676162480811 L 928.366524027542 205.27318709144916" stroke="rgb(132, 0, 0)" fill="none" stroke-width="1.407173457582px" stroke-linecap="round"/><path d="M 919.92348328205 198.8676162480811 L 919.92348328205 213.02729916499996" stroke="rgb(132, 0, 0)" fill="none" stroke-width="1.407173457582px" stroke-linecap="round"/><text x="919.92348328205" y="196.84480440280697" fill="rgb(15, 15, 15)" font-family="sans-serif" text-anchor="middle" dominant-baseline="ideographic" font-size="12.664561118238px">VCC</text><rect class="component-overlay" x="630.045751020158" y="297.3697582788211" width="16.886081490983997" height="14.159682916918882" fill="transparent"/><path d="M 638.48879176565 297.3697582788211 L 630.045751020158 303.7753291221892" stroke="rgb(132, 0, 0)" fill="none" stroke-width="1.407173457582px" stroke-linecap="round"/><path d="M 638.48879176565 297.3697582788211 L 646.931832511142 303.7753291221892" stroke="rgb(132, 0, 0)" fill="none" stroke-width="1.407173457582px" stroke-linecap="round"/><path d="M 638.48879176565 297.3697582788211 L 638.48879176565 311.52944119574" stroke="rgb(132, 0, 0)" fill="none" stroke-width="1.407173457582px" stroke-linecap="round"/><text x="638.48879176565" y="295.34694643354703" fill="rgb(15, 15, 15)" font-family="sans-serif" text-anchor="middle" dominant-baseline="ideographic" font-size="12.664561118238px">VCC</text><rect class="component-overlay" x="594.162827851817" y="388.92398136275" width="30.95781606680407" height="33.772162981967995" fill="transparent"/><path d="M 610.3453226140101 388.92398136275 L 609.6417358852191 412.142343412853" stroke="rgb(132, 0, 0)" fill="none" stroke-width="1.407173457582px" stroke-linecap="round"/><path d="M 594.162827851817 412.142343412853 L 625.1206439186211 412.142343412853" stroke="rgb(132, 0, 0)" fill="none" stroke-width="1.407173457582px" stroke-linecap="round"/><path d="M 597.6807614957721 417.771037243181 L 621.602710274666 417.771037243181" stroke="rgb(132, 0, 0)" fill="none" stroke-width="1.407173457582px" stroke-linecap="round"/><path d="M 605.4202155124731 422.696144344718 L 613.8632562579651 422.696144344718" stroke="rgb(132, 0, 0)" fill="none" stroke-width="1.407173457582px" stroke-linecap="round"/><text x="608.2345624276371" y="431.13918509021" fill="rgb(15, 15, 15)" font-family="sans-serif" text-anchor="middle" dominant-baseline="hanging" font-size="12.664561118238px">GND</text><rect class="component-overlay" x="523.8233875159485" y="441.7780707651877" width="30.95781606680407" height="33.772162981967995" fill="transparent"/><path d="M 540.0058822781416 441.7780707651877 L 539.3022955493506 464.9964328152907" stroke="rgb(132, 0, 0)" fill="none" stroke-width="1.407173457582px" stroke-linecap="round"/><path d="M 523.8233875159485 464.9964328152907 L 554.7812035827526 464.9964328152907" stroke="rgb(132, 0, 0)" fill="none" stroke-width="1.407173457582px" stroke-linecap="round"/><path d="M 527.3413211599036 470.6251266456187 L 551.2632699387975 470.6251266456187" stroke="rgb(132, 0, 0)" fill="none" stroke-width="1.407173457582px" stroke-linecap="round"/><path d="M 535.0807751766046 475.5502337471557 L 543.5238159220966 475.5502337471557" stroke="rgb(132, 0, 0)" fill="none" stroke-width="1.407173457582px" stroke-linecap="round"/><text x="537.8951220917686" y="483.9932744926477" fill="rgb(15, 15, 15)" font-family="sans-serif" text-anchor="middle" dominant-baseline="hanging" font-size="12.664561118238px">GND</text><path class="net-label" d="
    M 300.76716194597003,248.20663560455
    L 296.96779361049863,255.8053722754928
    L 261.9385556730907,255.8053722754928
    L 261.9385556730907,240.6078989336072
    L 296.96779361049863,240.6078989336072
    Z
  " fill="rgba(255, 255, 255, 0.6)" stroke="rgb(132, 0, 0)" stroke-width="1.407173457582px"/><text class="net-label-text" x="294.43488138685103" y="248.20663560455" fill="rgb(132, 0, 0)" text-anchor="end" dominant-baseline="central" font-family="sans-serif" font-variant-numeric="tabular-nums" font-size="12.664561118238px" transform="">INT2</text><path class="net-label" d="
    M 300.76716194597003,262.27837018036996
    L 296.96779361049863,269.87710685131276
    L 261.9385556730907,269.87710685131276
    L 261.9385556730907,254.67963350942716
    L 296.96779361049863,254.67963350942716
    Z
  " fill="rgba(255, 255, 255, 0.6)" stroke="rgb(132, 0, 0)" stroke-width="1.407173457582px"/><text class="net-label-text" x="294.43488138685103" y="262.27837018036996" fill="rgb(132, 0, 0)" text-anchor="end" dominant-baseline="central" font-family="sans-serif" font-variant-numeric="tabular-nums" font-size="12.664561118238px" transform="">INT1</text><path class="net-label" d="
    M 300.76716194597003,276.35010475619
    L 296.96779361049863,283.9488414271328
    L 264.105602797767,283.9488414271328
    L 264.105602797767,268.7513680852472
    L 296.96779361049863,268.7513680852472
    Z
  " fill="rgba(255, 255, 255, 0.6)" stroke="rgb(132, 0, 0)" stroke-width="1.407173457582px"/><text class="net-label-text" x="294.43488138685103" y="276.35010475619" fill="rgb(132, 0, 0)" text-anchor="end" dominant-baseline="central" font-family="sans-serif" font-variant-numeric="tabular-nums" font-size="12.664561118238px" transform="">SDA</text><path class="net-label" d="
    M 300.76716194597003,290.42183933201
    L 296.96779361049863,298.0205760029528
    L 265.51277625534897,298.0205760029528
    L 265.51277625534897,282.8231026610672
    L 296.96779361049863,282.8231026610672
    Z
  " fill="rgba(255, 255, 255, 0.6)" stroke="rgb(132, 0, 0)" stroke-width="1.407173457582px"/><text class="net-label-text" x="294.43488138685103" y="290.42183933201" fill="rgb(132, 0, 0)" text-anchor="end" dominant-baseline="central" font-family="sans-serif" font-variant-numeric="tabular-nums" font-size="12.664561118238px" transform="">SCL</text><rect class="component-overlay" x="313.43172306420803" y="205.9034835359911" width="16.886081490983997" height="14.159682916918854" fill="transparent"/><path d="M 321.8747638097 205.9034835359911 L 313.43172306420803 212.30905437935917" stroke="rgb(132, 0, 0)" fill="none" stroke-width="1.407173457582px" stroke-linecap="round"/><path d="M 321.8747638097 205.9034835359911 L 330.317804555192 212.30905437935917" stroke="rgb(132, 0, 0)" fill="none" stroke-width="1.407173457582px" stroke-linecap="round"/><path d="M 321.8747638097 205.9034835359911 L 321.8747638097 220.06316645290997" stroke="rgb(132, 0, 0)" fill="none" stroke-width="1.407173457582px" stroke-linecap="round"/><text x="321.8747638097" y="203.88067169071698" fill="rgb(15, 15, 15)" font-family="sans-serif" text-anchor="middle" dominant-baseline="ideographic" font-size="12.664561118238px">VCC</text><rect class="component-overlay" x="305.69226904750707" y="339.67291034737997" width="30.957816066803957" height="33.772162981967995" fill="transparent"/><path d="M 321.8747638097 339.67291034737997 L 321.17117708090905 362.89127239748296" stroke="rgb(132, 0, 0)" fill="none" stroke-width="1.407173457582px" stroke-linecap="round"/><path d="M 305.69226904750707 362.89127239748296 L 336.650085114311 362.89127239748296" stroke="rgb(132, 0, 0)" fill="none" stroke-width="1.407173457582px" stroke-linecap="round"/><path d="M 309.21020269146203 368.519966227811 L 333.13215147035606 368.519966227811" stroke="rgb(132, 0, 0)" fill="none" stroke-width="1.407173457582px" stroke-linecap="round"/><path d="M 316.94965670816305 373.44507332934796 L 325.39269745365505 373.44507332934796" stroke="rgb(132, 0, 0)" fill="none" stroke-width="1.407173457582px" stroke-linecap="round"/><text x="319.764003623327" y="381.88811407483996" fill="rgb(15, 15, 15)" font-family="sans-serif" text-anchor="middle" dominant-baseline="hanging" font-size="12.664561118238px">GND</text><path class="net-label" d="
    M 824.939274895265,360.78051221110996
    L 828.7386432307364,353.18177554016717
    L 863.7678811681444,353.18177554016717
    L 863.7678811681444,368.37924888205276
    L 828.7386432307364,368.37924888205276
    Z
  " fill="rgba(255, 255, 255, 0.6)" stroke="rgb(132, 0, 0)" stroke-width="1.407173457582px"/><text class="net-label-text" x="831.271555454384" y="360.78051221110996" fill="rgb(132, 0, 0)" text-anchor="start" dominant-baseline="central" font-family="sans-serif" font-variant-numeric="tabular-nums" font-size="12.664561118238px" transform="">INT1</text><path class="net-label" d="
    M 824.939274895265,374.85224678693
    L 828.7386432307364,367.2535101159872
    L 863.7678811681444,367.2535101159872
    L 863.7678811681444,382.4509834578728
    L 828.7386432307364,382.4509834578728
    Z
  " fill="rgba(255, 255, 255, 0.6)" stroke="rgb(132, 0, 0)" stroke-width="1.407173457582px"/><text class="net-label-text" x="831.271555454384" y="374.85224678693" fill="rgb(132, 0, 0)" text-anchor="start" dominant-baseline="central" font-family="sans-serif" font-variant-numeric="tabular-nums" font-size="12.664561118238px" transform="">INT2</text><path class="net-label" d="
    M 824.939274895265,332.63704305947
    L 828.7386432307364,325.0383063885272
    L 860.193660585886,325.0383063885272
    L 860.193660585886,340.2357797304128
    L 828.7386432307364,340.2357797304128
    Z
  " fill="rgba(255, 255, 255, 0.6)" stroke="rgb(132, 0, 0)" stroke-width="1.407173457582px"/><text class="net-label-text" x="831.271555454384" y="332.63704305947" fill="rgb(132, 0, 0)" text-anchor="start" dominant-baseline="central" font-family="sans-serif" font-variant-numeric="tabular-nums" font-size="12.664561118238px" transform="">SCL</text><path class="net-label" d="
    M 824.939274895265,346.70877763529
    L 828.7386432307364,339.1100409643472
    L 861.6008340434681,339.1100409643472
    L 861.6008340434681,354.3075143062328
    L 828.7386432307364,354.3075143062328
    Z
  " fill="rgba(255, 255, 255, 0.6)" stroke="rgb(132, 0, 0)" stroke-width="1.407173457582px"/><text class="net-label-text" x="831.271555454384" y="346.70877763529" fill="rgb(132, 0, 0)" text-anchor="start" dominant-baseline="central" font-family="sans-serif" font-variant-numeric="tabular-nums" font-size="12.664561118238px" transform="">SDA</text><path class="net-label" d="
    M 877.6890540472259,301.0664522029601
    L 885.2877907181687,304.8658205384315
    L 885.2877907181687,336.32083789358114
    L 870.0903173762831,336.32083789358114
    L 870.0903173762831,304.8658205384315
    Z
  " fill="rgba(255, 255, 255, 0.6)" stroke="rgb(132, 0, 0)" stroke-width="1.407173457582px"/><text class="net-label-text" x="877.6890540472259" y="307.3987327620791" fill="rgb(132, 0, 0)" text-anchor="start" dominant-baseline="central" font-family="sans-serif" font-variant-numeric="tabular-nums" font-size="12.664561118238px" transform="rotate(90 877.6890540472259 307.3987327620791)">SCL</text><path class="net-label" d="
    M 926.9401250625958,301.0664522029601
    L 934.5388617335386,304.8658205384315
    L 934.5388617335386,337.7280113511631
    L 919.341388391653,337.7280113511631
    L 919.341388391653,304.8658205384315
    Z
  " fill="rgba(255, 255, 255, 0.6)" stroke="rgb(132, 0, 0)" stroke-width="1.407173457582px"/><text class="net-label-text" x="926.9401250625958" y="307.3987327620791" fill="rgb(132, 0, 0)" text-anchor="start" dominant-baseline="central" font-family="sans-serif" font-variant-numeric="tabular-nums" font-size="12.664561118238px" transform="rotate(90 926.9401250625958 307.3987327620791)">SDA</text><text x="744.0268010843" y="494.4619906814" fill="gray" text-anchor="middle" dominant-baseline="middle" font-family="sans-serif" font-size="14.07173457582px" transform="rotate(0, 744.0268010843, 494.4619906814)">VCC = 3.6V Max</text><text x="744.0268010843" y="515.56959254513" fill="gray" text-anchor="middle" dominant-baseline="middle" font-family="sans-serif" font-size="14.07173457582px" transform="rotate(0, 744.0268010843, 515.56959254513)">Slave Address: 0x60</text><text x="744.0268010843" y="536.67719440886" fill="gray" text-anchor="middle" dominant-baseline="middle" font-family="sans-serif" font-size="14.07173457582px" transform="rotate(0, 744.0268010843, 536.67719440886)">Read Address: 0xC1</text><text x="744.0268010843" y="557.78479627259" fill="gray" text-anchor="middle" dominant-baseline="middle" font-family="sans-serif" font-size="14.07173457582px" transform="rotate(0, 744.0268010843, 557.78479627259)">Write Address: 0xC0</text></svg>