<svg xmlns="http://www.w3.org/2000/svg" width="1200" height="600" style="background-color: rgb(245, 241, 237)" data-real-to-screen-transform="matrix(70.3586728791,0,0,-70.3586728791,741.4682363817,353.7446449232)" data-software-used-string="@tscircuit/core@0.0.1051"><style>
              .boundary { fill: rgb(245, 241, 237); }
              .schematic-boundary { fill: none; stroke: #fff; }
              .component { fill: none; stroke: rgb(132, 0, 0); }
              .chip { fill: rgb(255, 255, 194); stroke: rgb(132, 0, 0); }
              .component-pin { fill: none; stroke: rgb(132, 0, 0); }
              /* Basic per-trace hover fallback */
              .trace:hover {
                filter: invert(1);
              }
              .trace:hover .trace-crossing-outline {
                opacity: 0;
              }
              .trace:hover .trace-junction {
                filter: invert(1);
              }
              /* Net-hover highlighting: when a trace or its overlays are hovered,
                 invert color for all traces (base + overlays) sharing the same
                 subcircuit connectivity key. Also hide crossing outline during hover. */
              svg:has(:is(g.trace[data-subcircuit-connectivity-map-key="unnamedsubcircuit1099_connectivity_net1"], g.trace-overlays[data-subcircuit-connectivity-map-key="unnamedsubcircuit1099_connectivity_net1"]):hover) :is(g.trace[data-subcircuit-connectivity-map-key="unnamedsubcircuit1099_connectivity_net1"], g.trace-overlays[data-subcircuit-connectivity-map-key="unnamedsubcircuit1099_connectivity_net1"]) { filter: invert(1); }
svg:has(:is(g.trace[data-subcircuit-connectivity-map-key="unnamedsubcircuit1099_connectivity_net1"], g.trace-overlays[data-subcircuit-connectivity-map-key="unnamedsubcircuit1099_connectivity_net1"]):hover) g.trace-overlays[data-subcircuit-connectivity-map-key="unnamedsubcircuit1099_connectivity_net1"] .trace-crossing-outline { opacity: 0; }
svg:has(:is(g.trace[data-subcircuit-connectivity-map-key="unnamedsubcircuit1099_connectivity_net0"], g.trace-overlays[data-subcircuit-connectivity-map-key="unnamedsubcircuit1099_connectivity_net0"]):hover) :is(g.trace[data-subcircuit-connectivity-map-key="unnamedsubcircuit1099_connectivity_net0"], g.trace-overlays[data-subcircuit-connectivity-map-key="unnamedsubcircuit1099_connectivity_net0"]) { filter: invert(1); }
svg:has(:is(g.trace[data-subcircuit-connectivity-map-key="unnamedsubcircuit1099_connectivity_net0"], g.trace-overlays[data-subcircuit-connectivity-map-key="unnamedsubcircuit1099_connectivity_net0"]):hover) g.trace-overlays[data-subcircuit-connectivity-map-key="unnamedsubcircuit1099_connectivity_net0"] .trace-crossing-outline { opacity: 0; }
svg:has(:is(g.trace[data-subcircuit-connectivity-map-key="unnamedsubcircuit1099_connectivity_net3"], g.trace-overlays[data-subcircuit-connectivity-map-key="unnamedsubcircuit1099_connectivity_net3"]):hover) :is(g.trace[data-subcircuit-connectivity-map-key="unnamedsubcircuit1099_connectivity_net3"], g.trace-overlays[data-subcircuit-connectivity-map-key="unnamedsubcircuit1099_connectivity_net3"]) { filter: invert(1); }
svg:has(:is(g.trace[data-subcircuit-connectivity-map-key="unnamedsubcircuit1099_connectivity_net3"], g.trace-overlays[data-subcircuit-connectivity-map-key="unnamedsubcircuit1099_connectivity_net3"]):hover) g.trace-overlays[data-subcircuit-connectivity-map-key="unnamedsubcircuit1099_connectivity_net3"] .trace-crossing-outline { opacity: 0; }
svg:has(:is(g.trace[data-subcircuit-connectivity-map-key="unnamedsubcircuit1099_connectivity_net2"], g.trace-overlays[data-subcircuit-connectivity-map-key="unnamedsubcircuit1099_connectivity_net2"]):hover) :is(g.trace[data-subcircuit-connectivity-map-key="unnamedsubcircuit1099_connectivity_net2"], g.trace-overlays[data-subcircuit-connectivity-map-key="unnamedsubcircuit1099_connectivity_net2"]) { filter: invert(1); }
svg:has(:is(g.trace[data-subcircuit-connectivity-map-key="unnamedsubcircuit1099_connectivity_net2"], g.trace-overlays[data-subcircuit-connectivity-map-key="unnamedsubcircuit1099_connectivity_net2"]):hover) g.trace-overlays[data-subcircuit-connectivity-map-key="unnamedsubcircuit1099_connectivity_net2"] .trace-crossing-outline { opacity: 0; }
svg:has(:is(g.trace[data-subcircuit-connectivity-map-key="unnamedsubcircuit1099_connectivity_net5"], g.trace-overlays[data-subcircuit-connectivity-map-key="unnamedsubcircuit1099_connectivity_net5"]):hover) :is(g.trace[data-subcircuit-connectivity-map-key="unnamedsubcircuit1099_connectivity_net5"], g.trace-overlays[data-subcircuit-connectivity-map-key="unnamedsubcircuit1099_connectivity_net5"]) { filter: invert(1); }
svg:has(:is(g.trace[data-subcircuit-connectivity-map-key="unnamedsubcircuit1099_connectivity_net5"], g.trace-overlays[data-subcircuit-connectivity-map-key="unnamedsubcircuit1099_connectivity_net5"]):hover) g.trace-overlays[data-subcircuit-connectivity-map-key="unnamedsubcircuit1099_connectivity_net5"] .trace-crossing-outline { opacity: 0; }
svg:has(:is(g.trace[data-subcircuit-connectivity-map-key="unnamedsubcircuit1099_connectivity_net4"], g.trace-overlays[data-subcircuit-connectivity-map-key="unnamedsubcircuit1099_connectivity_net4"]):hover) :is(g.trace[data-subcircuit-connectivity-map-key="unnamedsubcircuit1099_connectivity_net4"], g.trace-overlays[data-subcircuit-connectivity-map-key="unnamedsubcircuit1099_connectivity_net4"]) { filter: invert(1); }
svg:has(:is(g.trace[data-subcircuit-connectivity-map-key="unnamedsubcircuit1099_connectivity_net4"], g.trace-overlays[data-subcircuit-connectivity-map-key="unnamedsubcircuit1099_connectivity_net4"]):hover) g.trace-overlays[data-subcircuit-connectivity-map-key="unnamedsubcircuit1099_connectivity_net4"] .trace-crossing-outline { opacity: 0; }
svg:has(:is(g.trace[data-subcircuit-connectivity-map-key="undefined"], g.trace-overlays[data-subcircuit-connectivity-map-key="undefined"]):hover) :is(g.trace[data-subcircuit-connectivity-map-key="undefined"], g.trace-overlays[data-subcircuit-connectivity-map-key="undefined"]) { filter: invert(1); }
svg:has(:is(g.trace[data-subcircuit-connectivity-map-key="undefined"], g.trace-overlays[data-subcircuit-connectivity-map-key="undefined"]):hover) g.trace-overlays[data-subcircuit-connectivity-map-key="undefined"] .trace-crossing-outline { opacity: 0; }
              .text { font-family: sans-serif; fill: rgb(0, 150, 0); }
              .pin-number { fill: rgb(169, 0, 0); }
              .port-label { fill: rgb(0, 100, 100); }
              .component-name { fill: rgb(0, 100, 100); }
            </style><rect class="boundary" x="0" y="0" width="1200" height="600"/><g class="trace" data-layer="base" data-circuit-json-type="schematic_trace" data-schematic-trace-id="schematic_trace_0" data-subcircuit-connectivity-map-key="unnamedsubcircuit1099_connectivity_net1"><path d="M 700.3084127474265 315.04737483969495 L 700.3084127474265 290.77363269640546 L 700.3084127474265 193.67866412324747 L 741.4682363817 193.67866412324747 L 741.4682363817 96.58369555008949 L 741.4682363817 72.30995340679999" class="trace-invisible-hover-outline" stroke="rgb(0, 150, 0)" fill="none" stroke-width="11.257387660656px" stroke-linecap="round" opacity="0" stroke-linejoin="round"/><path d="M 700.3084127474265 315.04737483969495 L 700.3084127474265 290.77363269640546 L 700.3084127474265 193.67866412324747 L 741.4682363817 193.67866412324747 L 741.4682363817 96.58369555008949 L 741.4682363817 72.30995340679999" stroke="rgb(0, 150, 0)" fill="none" stroke-width="1.407173457582px" stroke-linecap="round" stroke-linejoin="round"/></g><g class="trace" data-layer="base" data-circuit-json-type="schematic_trace" data-schematic-trace-id="schematic_trace_1" data-subcircuit-connectivity-map-key="unnamedsubcircuit1099_connectivity_net1"><path d="M 781.2208865583915 322.786828856396 L 781.2208865583915 297.7391413114364 L 781.2208865583915 197.548391131598 L 741.4682363817 197.548391131598 L 741.4682363817 97.3576409517596 L 741.4682363817 72.30995340679999" class="trace-invisible-hover-outline" stroke="rgb(0, 150, 0)" fill="none" stroke-width="11.257387660656px" stroke-linecap="round" opacity="0" stroke-linejoin="round"/><path d="M 781.2208865583915 322.786828856396 L 781.2208865583915 297.7391413114364 L 781.2208865583915 197.548391131598 L 741.4682363817 197.548391131598 L 741.4682363817 97.3576409517596 L 741.4682363817 72.30995340679999" stroke="rgb(0, 150, 0)" fill="none" stroke-width="1.407173457582px" stroke-linecap="round" stroke-linejoin="round"/></g><g class="trace" data-layer="base" data-circuit-json-type="schematic_trace" data-schematic-trace-id="schematic_trace_2" data-subcircuit-connectivity-map-key="unnamedsubcircuit1099_connectivity_net1"><path d="M 578.5879086665834 315.04737483969495 L 578.5879086665834 290.77363269640546 L 578.5879086665834 193.67866412324747 L 741.4682363817 193.67866412324747 L 741.4682363817 96.58369555008949 L 741.4682363817 72.30995340679999" class="trace-invisible-hover-outline" stroke="rgb(0, 150, 0)" fill="none" stroke-width="11.257387660656px" stroke-linecap="round" opacity="0" stroke-linejoin="round"/><path d="M 578.5879086665834 315.04737483969495 L 578.5879086665834 290.77363269640546 L 578.5879086665834 193.67866412324747 L 741.4682363817 193.67866412324747 L 741.4682363817 96.58369555008949 L 741.4682363817 72.30995340679999" stroke="rgb(0, 150, 0)" fill="none" stroke-width="1.407173457582px" stroke-linecap="round" stroke-linejoin="round"/></g><g class="trace" data-layer="base" data-circuit-json-type="schematic_trace" data-schematic-trace-id="schematic_trace_3" data-subcircuit-connectivity-map-key="unnamedsubcircuit1099_connectivity_net0"><path d="M 700.3084127474265 392.441915006705 L 700.3084127474265 411.0869633196665 L 720.8883245645632 411.0869633196665 L 720.8883245645632 187.34638356412847 L 741.4682363817 187.34638356412847 L 741.4682363817 205.99143187708998" class="trace-invisible-hover-outline" stroke="rgb(0, 150, 0)" fill="none" stroke-width="11.257387660656px" stroke-linecap="round" opacity="0" stroke-linejoin="round"/><path d="M 700.3084127474265 392.441915006705 L 700.3084127474265 411.0869633196665 L 720.8883245645632 411.0869633196665 L 720.8883245645632 187.34638356412847 L 741.4682363817 187.34638356412847 L 741.4682363817 205.99143187708998" stroke="rgb(0, 150, 0)" fill="none" stroke-width="1.407173457582px" stroke-linecap="round" stroke-linejoin="round"/></g><g class="trace" data-layer="base" data-circuit-json-type="schematic_trace" data-schematic-trace-id="schematic_trace_4" data-subcircuit-connectivity-map-key="unnamedsubcircuit1099_connectivity_net0"><path d="M 578.5879086665834 392.441915006705 L 578.5879086665834 411.0869633196665 L 660.0280725241417 411.0869633196665 L 660.0280725241417 187.34638356412853 L 741.4682363817 187.34638356412853 L 741.4682363817 205.99143187709" class="trace-invisible-hover-outline" stroke="rgb(0, 150, 0)" fill="none" stroke-width="11.257387660656px" stroke-linecap="round" opacity="0" stroke-linejoin="round"/><path d="M 578.5879086665834 392.441915006705 L 578.5879086665834 411.0869633196665 L 660.0280725241417 411.0869633196665 L 660.0280725241417 187.34638356412853 L 741.4682363817 187.34638356412853 L 741.4682363817 205.99143187709" stroke="rgb(0, 150, 0)" fill="none" stroke-width="1.407173457582px" stroke-linecap="round" stroke-linejoin="round"/></g><g class="trace" data-layer="base" data-circuit-json-type="schematic_trace" data-schematic-trace-id="schematic_trace_5" data-subcircuit-connectivity-map-key="unnamedsubcircuit1099_connectivity_net1"><path d="M 797.051587956189 124.72716470172949 L 797.051587956189 112.69583163940337 L 857.2082532678195 112.69583163940337 L 857.2082532678195 225.0586322273261 L 917.36491857945 225.0586322273261 L 917.36491857945 213.027299165" class="trace-invisible-hover-outline" stroke="rgb(0, 150, 0)" fill="none" stroke-width="11.257387660656px" stroke-linecap="round" opacity="0" stroke-linejoin="round"/><path d="M 797.051587956189 124.72716470172949 L 797.051587956189 112.69583163940337 L 857.2082532678195 112.69583163940337 L 857.2082532678195 225.0586322273261 L 917.36491857945 225.0586322273261 L 917.36491857945 213.027299165" stroke="rgb(0, 150, 0)" fill="none" stroke-width="1.407173457582px" stroke-linecap="round" stroke-linejoin="round"/></g><g class="trace" data-layer="base" data-circuit-json-type="schematic_trace" data-schematic-trace-id="schematic_trace_6" data-subcircuit-connectivity-map-key="unnamedsubcircuit1099_connectivity_net1"><path d="M 903.9584498812374 124.72716470172949 L 903.9584498812374 115.89715125540243 L 910.6616842303437 115.89715125540243 L 910.6616842303437 221.85731261132705 L 917.36491857945 221.85731261132705 L 917.36491857945 213.027299165" class="trace-invisible-hover-outline" stroke="rgb(0, 150, 0)" fill="none" stroke-width="11.257387660656px" stroke-linecap="round" opacity="0" stroke-linejoin="round"/><path d="M 903.9584498812374 124.72716470172949 L 903.9584498812374 115.89715125540243 L 910.6616842303437 115.89715125540243 L 910.6616842303437 221.85731261132705 L 917.36491857945 221.85731261132705 L 917.36491857945 213.027299165" stroke="rgb(0, 150, 0)" fill="none" stroke-width="1.407173457582px" stroke-linecap="round" stroke-linejoin="round"/></g><g class="trace" data-layer="base" data-circuit-json-type="schematic_trace" data-schematic-trace-id="schematic_trace_7" data-subcircuit-connectivity-map-key="unnamedsubcircuit1099_connectivity_net1"><path d="M 716.139114145224 329.11910941551497 L 635.93022706305 329.11910941551497 L 635.93022706305 311.52944119574" class="trace-invisible-hover-outline" stroke="rgb(0, 150, 0)" fill="none" stroke-width="11.257387660656px" stroke-linecap="round" opacity="0" stroke-linejoin="round"/><path d="M 716.139114145224 329.11910941551497 L 635.93022706305 329.11910941551497 L 635.93022706305 311.52944119574" stroke="rgb(0, 150, 0)" fill="none" stroke-width="1.407173457582px" stroke-linecap="round" stroke-linejoin="round"/></g><g class="trace" data-layer="base" data-circuit-json-type="schematic_trace" data-schematic-trace-id="schematic_trace_8" data-subcircuit-connectivity-map-key="unnamedsubcircuit1099_connectivity_net1"><path d="M 716.139114145224 371.33431314297496 L 635.93022706305 371.33431314297496 L 635.93022706305 311.52944119574" class="trace-invisible-hover-outline" stroke="rgb(0, 150, 0)" fill="none" stroke-width="11.257387660656px" stroke-linecap="round" opacity="0" stroke-linejoin="round"/><path d="M 716.139114145224 371.33431314297496 L 635.93022706305 371.33431314297496 L 635.93022706305 311.52944119574" stroke="rgb(0, 150, 0)" fill="none" stroke-width="1.407173457582px" stroke-linecap="round" stroke-linejoin="round"/></g><g class="trace" data-layer="base" data-circuit-json-type="schematic_trace" data-schematic-trace-id="schematic_trace_9" data-subcircuit-connectivity-map-key="unnamedsubcircuit1099_connectivity_net0"><path d="M 716.139114145224 357.26257856715495 L 607.78675791141 357.26257856715495 L 607.78675791141 388.92398136275" class="trace-invisible-hover-outline" stroke="rgb(0, 150, 0)" fill="none" stroke-width="11.257387660656px" stroke-linecap="round" opacity="0" stroke-linejoin="round"/><path d="M 716.139114145224 357.26257856715495 L 607.78675791141 357.26257856715495 L 607.78675791141 388.92398136275" stroke="rgb(0, 150, 0)" fill="none" stroke-width="1.407173457582px" stroke-linecap="round" stroke-linejoin="round"/></g><g class="trace" data-layer="base" data-circuit-json-type="schematic_trace" data-schematic-trace-id="schematic_trace_10" data-subcircuit-connectivity-map-key="unnamedsubcircuit1099_connectivity_net0"><path d="M 651.7609284608475 420.585384158345 L 651.7609284608475 432.01866850119876 L 594.5945067465788 432.01866850119876 L 594.5945067465788 430.2597016792212 L 537.42808503231 430.2597016792212 L 537.42808503231 441.692986022075" class="trace-invisible-hover-outline" stroke="rgb(0, 150, 0)" fill="none" stroke-width="11.257387660656px" stroke-linecap="round" opacity="0" stroke-linejoin="round"/><path d="M 651.7609284608475 420.585384158345 L 651.7609284608475 432.01866850119876 L 594.5945067465788 432.01866850119876 L 594.5945067465788 430.2597016792212 L 537.42808503231 430.2597016792212 L 537.42808503231 441.692986022075" stroke="rgb(0, 150, 0)" fill="none" stroke-width="1.407173457582px" stroke-linecap="round" stroke-linejoin="round"/></g><g class="trace" data-layer="base" data-circuit-json-type="schematic_trace" data-schematic-trace-id="schematic_trace_11" data-subcircuit-connectivity-map-key="unnamedsubcircuit1099_connectivity_net3"><path d="M 333.38793368292 248.20663560455 L 298.20859724337 248.20663560455" class="trace-invisible-hover-outline" stroke="rgb(0, 150, 0)" fill="none" stroke-width="11.257387660656px" stroke-linecap="round" opacity="0" stroke-linejoin="round"/><path d="M 333.38793368292 248.20663560455 L 298.20859724337 248.20663560455" stroke="rgb(0, 150, 0)" fill="none" stroke-width="1.407173457582px" stroke-linecap="round" stroke-linejoin="round"/></g><g class="trace" data-layer="base" data-circuit-json-type="schematic_trace" data-schematic-trace-id="schematic_trace_12" data-subcircuit-connectivity-map-key="unnamedsubcircuit1099_connectivity_net2"><path d="M 333.38793368292 262.27837018036996 L 298.20859724337 262.27837018036996" class="trace-invisible-hover-outline" stroke="rgb(0, 150, 0)" fill="none" stroke-width="11.257387660656px" stroke-linecap="round" opacity="0" stroke-linejoin="round"/><path d="M 333.38793368292 262.27837018036996 L 298.20859724337 262.27837018036996" stroke="rgb(0, 150, 0)" fill="none" stroke-width="1.407173457582px" stroke-linecap="round" stroke-linejoin="round"/></g><g class="trace" data-layer="base" data-circuit-json-type="schematic_trace" data-schematic-trace-id="schematic_trace_13" data-subcircuit-connectivity-map-key="unnamedsubcircuit1099_connectivity_net5"><path d="M 333.38793368292 276.35010475619 L 298.20859724337 276.35010475619" class="trace-invisible-hover-outline" stroke="rgb(0, 150, 0)" fill="none" stroke-width="11.257387660656px" stroke-linecap="round" opacity="0" stroke-linejoin="round"/><path d="M 333.38793368292 276.35010475619 L 298.20859724337 276.35010475619" stroke="rgb(0, 150, 0)" fill="none" stroke-width="1.407173457582px" stroke-linecap="round" stroke-linejoin="round"/></g><g class="trace" data-layer="base" data-circuit-json-type="schematic_trace" data-schematic-trace-id="schematic_trace_14" data-subcircuit-connectivity-map-key="unnamedsubcircuit1099_connectivity_net4"><path d="M 333.38793368292 290.42183933201 L 298.20859724337 290.42183933201" class="trace-invisible-hover-outline" stroke="rgb(0, 150, 0)" fill="none" stroke-width="11.257387660656px" stroke-linecap="round" opacity="0" stroke-linejoin="round"/><path d="M 333.38793368292 290.42183933201 L 298.20859724337 290.42183933201" stroke="rgb(0, 150, 0)" fill="none" stroke-width="1.407173457582px" stroke-linecap="round" stroke-linejoin="round"/></g><g class="trace" data-layer="base" data-circuit-json-type="schematic_trace" data-schematic-trace-id="schematic_trace_15" data-subcircuit-connectivity-map-key="unnamedsubcircuit1099_connectivity_net1"><path d="M 333.38793368292 304.49357390782995 L 319.3161991071 304.49357390782995 L 319.3161991071 220.06316645291" class="trace-invisible-hover-outline" stroke="rgb(0, 150, 0)" fill="none" stroke-width="11.257387660656px" stroke-linecap="round" opacity="0" stroke-linejoin="round"/><path d="M 333.38793368292 304.49357390782995 L 319.3161991071 304.49357390782995 L 319.3161991071 220.06316645291" stroke="rgb(0, 150, 0)" fill="none" stroke-width="1.407173457582px" stroke-linecap="round" stroke-linejoin="round"/></g><g class="trace" data-layer="base" data-circuit-json-type="schematic_trace" data-schematic-trace-id="schematic_trace_16" data-subcircuit-connectivity-map-key="unnamedsubcircuit1099_connectivity_net0"><path d="M 333.38793368292 318.56530848365 L 319.3161991071 318.56530848365 L 319.3161991071 339.67291034737997" class="trace-invisible-hover-outline" stroke="rgb(0, 150, 0)" fill="none" stroke-width="11.257387660656px" stroke-linecap="round" opacity="0" stroke-linejoin="round"/><path d="M 333.38793368292 318.56530848365 L 319.3161991071 318.56530848365 L 319.3161991071 339.67291034737997" stroke="rgb(0, 150, 0)" fill="none" stroke-width="1.407173457582px" stroke-linecap="round" stroke-linejoin="round"/></g><g class="trace" data-layer="base" data-circuit-json-type="schematic_trace" data-schematic-trace-id="schematic_trace_17" data-subcircuit-connectivity-map-key="unnamedsubcircuit1099_connectivity_net0"><path d="M 651.7609284608475 420.585384158345 L 651.7609284608475 434.657118734165 L 700.3084127474265 434.657118734165 L 700.3084127474265 392.441915006705" class="trace-invisible-hover-outline" stroke="rgb(0, 150, 0)" fill="none" stroke-width="11.257387660656px" stroke-linecap="round" opacity="0" stroke-linejoin="round"/><path d="M 651.7609284608475 420.585384158345 L 651.7609284608475 434.657118734165 L 700.3084127474265 434.657118734165 L 700.3084127474265 392.441915006705" stroke="rgb(0, 150, 0)" fill="none" stroke-width="1.407173457582px" stroke-linecap="round" stroke-linejoin="round"/></g><g class="trace" data-layer="base" data-circuit-json-type="schematic_trace" data-schematic-trace-id="schematic_trace_18" data-subcircuit-connectivity-map-key="unnamedsubcircuit1099_connectivity_net0"><path d="M 781.2208865583915 392.441915006705 L 781.2208865583915 406.513649582525 L 700.3084127474265 406.513649582525 L 700.3084127474265 392.441915006705" class="trace-invisible-hover-outline" stroke="rgb(0, 150, 0)" fill="none" stroke-width="11.257387660656px" stroke-linecap="round" opacity="0" stroke-linejoin="round"/><path d="M 781.2208865583915 392.441915006705 L 781.2208865583915 406.513649582525 L 700.3084127474265 406.513649582525 L 700.3084127474265 392.441915006705" stroke="rgb(0, 150, 0)" fill="none" stroke-width="1.407173457582px" stroke-linecap="round" stroke-linejoin="round"/></g><g class="trace" data-layer="base" data-circuit-json-type="schematic_trace" data-schematic-trace-id="schematic_trace_19" data-subcircuit-connectivity-map-key="unnamedsubcircuit1099_connectivity_net0"><path d="M 578.5879086665834 392.441915006705 L 578.5879086665834 434.657118734165 L 651.7609284608475 434.657118734165 L 651.7609284608475 420.585384158345" class="trace-invisible-hover-outline" stroke="rgb(0, 150, 0)" fill="none" stroke-width="11.257387660656px" stroke-linecap="round" opacity="0" stroke-linejoin="round"/><path d="M 578.5879086665834 392.441915006705 L 578.5879086665834 434.657118734165 L 651.7609284608475 434.657118734165 L 651.7609284608475 420.585384158345" stroke="rgb(0, 150, 0)" fill="none" stroke-width="1.407173457582px" stroke-linecap="round" stroke-linejoin="round"/></g><g class="trace" data-layer="base" data-circuit-json-type="schematic_trace" data-schematic-trace-id="schematic_trace_20" data-subcircuit-connectivity-map-key="unnamedsubcircuit1099_connectivity_net1"><path d="M 578.5879086665834 315.04737483969495 L 578.5879086665834 300.97564026387494 L 700.3084127474265 300.97564026387494 L 700.3084127474265 315.04737483969495" class="trace-invisible-hover-outline" stroke="rgb(0, 150, 0)" fill="none" stroke-width="11.257387660656px" stroke-linecap="round" opacity="0" stroke-linejoin="round"/><path d="M 578.5879086665834 315.04737483969495 L 578.5879086665834 300.97564026387494 L 700.3084127474265 300.97564026387494 L 700.3084127474265 315.04737483969495" stroke="rgb(0, 150, 0)" fill="none" stroke-width="1.407173457582px" stroke-linecap="round" stroke-linejoin="round"/></g><g class="trace" data-layer="base" data-circuit-json-type="schematic_trace" data-schematic-trace-id="schematic_trace_21" data-subcircuit-connectivity-map-key="unnamedsubcircuit1099_connectivity_net1"><path d="M 903.9584498812374 124.72716470172949 L 903.9584498812374 110.65543012590948 L 797.051587956189 110.65543012590948 L 797.051587956189 124.72716470172949" class="trace-invisible-hover-outline" stroke="rgb(0, 150, 0)" fill="none" stroke-width="11.257387660656px" stroke-linecap="round" opacity="0" stroke-linejoin="round"/><path d="M 903.9584498812374 124.72716470172949 L 903.9584498812374 110.65543012590948 L 797.051587956189 110.65543012590948 L 797.051587956189 124.72716470172949" stroke="rgb(0, 150, 0)" fill="none" stroke-width="1.407173457582px" stroke-linecap="round" stroke-linejoin="round"/></g><g class="trace" data-layer="base" data-circuit-json-type="schematic_trace" data-schematic-trace-id="schematic_trace_22" data-subcircuit-connectivity-map-key="unnamedsubcircuit1099_connectivity_net5"><path d="M 877.9640617671539 343.190843991335 L 903.9584498812374 343.190843991335 L 903.9584498812374 202.12170486873947" class="trace-invisible-hover-outline" stroke="rgb(0, 150, 0)" fill="none" stroke-width="11.257387660656px" stroke-linecap="round" opacity="0" stroke-linejoin="round"/><path d="M 877.9640617671539 343.190843991335 L 903.9584498812374 343.190843991335 L 903.9584498812374 202.12170486873947" stroke="rgb(0, 150, 0)" fill="none" stroke-width="1.407173457582px" stroke-linecap="round" stroke-linejoin="round"/></g><g class="trace" data-layer="base" data-circuit-json-type="schematic_trace" data-schematic-trace-id="schematic_trace_23"><path d="M 333.38793368292 304.49357390783 L 319.3161991071 304.49357390783 L 319.3161991071 220.06316645291 L 700.3084127474265 220.06316645291 L 700.3084127474265 315.04737483969495" class="trace-invisible-hover-outline" stroke="rgb(0, 150, 0)" fill="none" stroke-width="11.257387660656px" stroke-linecap="round" opacity="0" stroke-linejoin="round"/><path d="M 333.38793368292 304.49357390783 L 319.3161991071 304.49357390783 L 319.3161991071 220.06316645291 L 700.3084127474265 220.06316645291 L 700.3084127474265 315.04737483969495" stroke="rgb(0, 150, 0)" fill="none" stroke-width="1.407173457582px" stroke-linecap="round" stroke-linejoin="round"/></g><g class="trace" data-layer="base" data-circuit-json-type="schematic_trace" data-schematic-trace-id="schematic_trace_24"><path d="M 877.9640617671539 329.11910941551497 L 892.035796342974 329.11910941551497 L 892.035796342974 265.6204071421272 L 797.051587956189 265.6204071421272 L 797.051587956189 202.12170486873947" class="trace-invisible-hover-outline" stroke="rgb(0, 150, 0)" fill="none" stroke-width="11.257387660656px" stroke-linecap="round" opacity="0" stroke-linejoin="round"/><path d="M 877.9640617671539 329.11910941551497 L 892.035796342974 329.11910941551497 L 892.035796342974 265.6204071421272 L 797.051587956189 265.6204071421272 L 797.051587956189 202.12170486873947" stroke="rgb(0, 150, 0)" fill="none" stroke-width="1.407173457582px" stroke-linecap="round" stroke-linejoin="round"/></g><g class="trace-overlays" data-layer="overlay" data-circuit-json-type="schematic_trace" data-schematic-trace-id="schematic_trace_0" data-subcircuit-connectivity-map-key="unnamedsubcircuit1099_connectivity_net1"/><g class="trace-overlays" data-layer="overlay" data-circuit-json-type="schematic_trace" data-schematic-trace-id="schematic_trace_1" data-subcircuit-connectivity-map-key="unnamedsubcircuit1099_connectivity_net1"/><g class="trace-overlays" data-layer="overlay" data-circuit-json-type="schematic_trace" data-schematic-trace-id="schematic_trace_2" data-subcircuit-connectivity-map-key="unnamedsubcircuit1099_connectivity_net1"/><g class="trace-overlays" data-layer="overlay" data-circuit-json-type="schematic_trace" data-schematic-trace-id="schematic_trace_3" data-subcircuit-connectivity-map-key="unnamedsubcircuit1099_connectivity_net0"/><g class="trace-overlays" data-layer="overlay" data-circuit-json-type="schematic_trace" data-schematic-trace-id="schematic_trace_4" data-subcircuit-connectivity-map-key="unnamedsubcircuit1099_connectivity_net0"/><g class="trace-overlays" data-layer="overlay" data-circuit-json-type="schematic_trace" data-schematic-trace-id="schematic_trace_5" data-subcircuit-connectivity-map-key="unnamedsubcircuit1099_connectivity_net1"/><g class="trace-overlays" data-layer="overlay" data-circuit-json-type="schematic_trace" data-schematic-trace-id="schematic_trace_6" data-subcircuit-connectivity-map-key="unnamedsubcircuit1099_connectivity_net1"/><g class="trace-overlays" data-layer="overlay" data-circuit-json-type="schematic_trace" data-schematic-trace-id="schematic_trace_7" data-subcircuit-connectivity-map-key="unnamedsubcircuit1099_connectivity_net1"/><g class="trace-overlays" data-layer="overlay" data-circuit-json-type="schematic_trace" data-schematic-trace-id="schematic_trace_8" data-subcircuit-connectivity-map-key="unnamedsubcircuit1099_connectivity_net1"/><g class="trace-overlays" data-layer="overlay" data-circuit-json-type="schematic_trace" data-schematic-trace-id="schematic_trace_9" data-subcircuit-connectivity-map-key="unnamedsubcircuit1099_connectivity_net0"/><g class="trace-overlays" data-layer="overlay" data-circuit-json-type="schematic_trace" data-schematic-trace-id="schematic_trace_10" data-subcircuit-connectivity-map-key="unnamedsubcircuit1099_connectivity_net0"/><g class="trace-overlays" data-layer="overlay" data-circuit-json-type="schematic_trace" data-schematic-trace-id="schematic_trace_11" data-subcircuit-connectivity-map-key="unnamedsubcircuit1099_connectivity_net3"/><g class="trace-overlays" data-layer="overlay" data-circuit-json-type="schematic_trace" data-schematic-trace-id="schematic_trace_12" data-subcircuit-connectivity-map-key="unnamedsubcircuit1099_connectivity_net2"/><g class="trace-overlays" data-layer="overlay" data-circuit-json-type="schematic_trace" data-schematic-trace-id="schematic_trace_13" data-subcircuit-connectivity-map-key="unnamedsubcircuit1099_connectivity_net5"/><g class="trace-overlays" data-layer="overlay" data-circuit-json-type="schematic_trace" data-schematic-trace-id="schematic_trace_14" data-subcircuit-connectivity-map-key="unnamedsubcircuit1099_connectivity_net4"/><g class="trace-overlays" data-layer="overlay" data-circuit-json-type="schematic_trace" data-schematic-trace-id="schematic_trace_15" data-subcircuit-connectivity-map-key="unnamedsubcircuit1099_connectivity_net1"/><g class="trace-overlays" data-layer="overlay" data-circuit-json-type="schematic_trace" data-schematic-trace-id="schematic_trace_16" data-subcircuit-connectivity-map-key="unnamedsubcircuit1099_connectivity_net0"/><g class="trace-overlays" data-layer="overlay" data-circuit-json-type="schematic_trace" data-schematic-trace-id="schematic_trace_17" data-subcircuit-connectivity-map-key="unnamedsubcircuit1099_connectivity_net0"><circle cx="700.3084127474265" cy="406.513649582525" r="2.1107601863729997" class="trace-junction" fill="rgb(0, 150, 0)"/><circle cx="651.7609284608475" cy="434.657118734165" r="2.1107601863729997" class="trace-junction" fill="rgb(0, 150, 0)"/></g><g class="trace-overlays" data-layer="overlay" data-circuit-json-type="schematic_trace" data-schematic-trace-id="schematic_trace_18" data-subcircuit-connectivity-map-key="unnamedsubcircuit1099_connectivity_net0"><circle cx="700.3084127474265" cy="406.513649582525" r="2.1107601863729997" class="trace-junction" fill="rgb(0, 150, 0)"/></g><g class="trace-overlays" data-layer="overlay" data-circuit-json-type="schematic_trace" data-schematic-trace-id="schematic_trace_19" data-subcircuit-connectivity-map-key="unnamedsubcircuit1099_connectivity_net0"><circle cx="651.7609284608475" cy="434.657118734165" r="2.1107601863729997" class="trace-junction" fill="rgb(0, 150, 0)"/></g><g class="trace-overlays" data-layer="overlay" data-circuit-json-type="schematic_trace" data-schematic-trace-id="schematic_trace_20" data-subcircuit-connectivity-map-key="unnamedsubcircuit1099_connectivity_net1"><circle cx="700.3084127474265" cy="300.97564026387494" r="2.1107601863729997" class="trace-junction" fill="rgb(0, 150, 0)"/></g><g class="trace-overlays" data-layer="overlay" data-circuit-json-type="schematic_trace" data-schematic-trace-id="schematic_trace_21" data-subcircuit-connectivity-map-key="unnamedsubcircuit1099_connectivity_net1"/><g class="trace-overlays" data-layer="overlay" data-circuit-json-type="schematic_trace" data-schematic-trace-id="schematic_trace_22" data-subcircuit-connectivity-map-key="unnamedsubcircuit1099_connectivity_net5"/><g class="trace-overlays" data-layer="overlay" data-circuit-json-type="schematic_trace" data-schematic-trace-id="schematic_trace_23"><circle cx="700.3084127474265" cy="300.97564026387494" r="2.1107601863729997" class="trace-junction" fill="rgb(0, 150, 0)"/></g><g class="trace-overlays" data-layer="overlay" data-circuit-json-type="schematic_trace" data-schematic-trace-id="schematic_trace_24"/><g data-circuit-json-type="schematic_component" data-schematic-component-id="schematic_component_0"><rect class="component-overlay" x="681.3115710700695" y="315.04737483969495" width="37.290096625922956" height="77.39454016701" fill="transparent"/><path d="M 700.3084127474265 392.44191500670496 L 700.3084127474265 358.66975202473697" stroke="rgb(132, 0, 0)" fill="none" stroke-width="1.407173457582px" stroke-linecap="round"/><path d="M 700.3084127474265 347.41236436408093 L 700.3084127474265 315.04737483969495" stroke="rgb(132, 0, 0)" fill="none" stroke-width="1.407173457582px" stroke-linecap="round"/><path d="M 718.6016676959924 358.66975202473697 L 681.3115710700695 358.66975202473697" stroke="rgb(132, 0, 0)" fill="none" stroke-width="1.407173457582px" stroke-linecap="round"/><path d="M 718.6016676959924 347.41236436408093 L 681.3115710700695 347.41236436408093" stroke="rgb(132, 0, 0)" fill="none" stroke-width="1.407173457582px" stroke-linecap="round"/><text x="706.9924866709409" y="339.67291034737997" stroke="rgb(245, 241, 237)" stroke-width="1.407173457582px" paint-order="stroke" fill="rgb(15, 15, 15)" font-family="sans-serif" text-anchor="start" dominant-baseline="ideographic" font-size="12.664561118238px">C1</text><text x="706.9924866709409" y="367.81637949901994" fill="rgb(15, 15, 15)" font-family="sans-serif" text-anchor="start" dominant-baseline="hanging" font-size="12.664561118238px">0.1uF</text></g><g data-circuit-json-type="schematic_component" data-schematic-component-id="schematic_component_1"><rect class="component-overlay" x="760.1132846946615" y="322.78682885639597" width="40.104443541086994" height="69.65508615030905" fill="transparent"/><path d="M 781.2208865583915 322.78682885639597 L 781.2208865583915 354.44823165199097" stroke="rgb(132, 0, 0)" fill="none" stroke-width="1.407173457582px" stroke-linecap="round"/><path d="M 781.2208865583915 360.78051221110996 L 781.2208865583915 392.441915006705" stroke="rgb(132, 0, 0)" fill="none" stroke-width="1.407173457582px" stroke-linecap="round"/><path d="M 762.9276316098255 354.44823165199097 L 800.2177282357485 354.44823165199097" stroke="rgb(132, 0, 0)" fill="none" stroke-width="1.407173457582px" stroke-linecap="round"/><path d="M 799.5141415069575 364.298445855065 L 799.5141415069575 364.298445855065 L 799.5141415069575 364.298445855065 L 799.5141415069575 364.298445855065 L 799.5141415069575 364.298445855065 L 799.5141415069575 364.298445855065 L 799.5141415069575 364.298445855065 L 799.5141415069575 364.298445855065 L 799.5141415069575 364.298445855065 L 798.8105547781665 364.298445855065 L 798.8105547781665 364.298445855065 L 798.8105547781665 364.298445855065 L 798.8105547781665 364.298445855065 L 798.8105547781665 363.594859126274 L 798.8105547781665 363.594859126274 L 798.8105547781665 363.594859126274 L 798.8105547781665 363.594859126274 L 798.1069680493755 363.594859126274 L 798.1069680493755 363.594859126274 L 798.1069680493755 363.594859126274 L 798.1069680493755 363.594859126274 L 798.1069680493755 363.594859126274 L 798.1069680493755 363.594859126274 L 798.1069680493755 363.594859126274 L 798.1069680493755 363.594859126274 L 797.4033813205845 363.594859126274 L 797.4033813205845 363.594859126274 L 797.4033813205845 363.594859126274 L 797.4033813205845 362.89127239748296 L 797.4033813205845 362.89127239748296 L 797.4033813205845 362.89127239748296 L 797.4033813205845 362.89127239748296 L 797.4033813205845 362.89127239748296 L 796.6997945917935 362.89127239748296 L 796.6997945917935 362.89127239748296 L 796.6997945917935 362.89127239748296 L 796.6997945917935 362.89127239748296 L 796.6997945917935 362.89127239748296 L 796.6997945917935 362.89127239748296 L 796.6997945917935 362.89127239748296 L 796.6997945917935 362.89127239748296 L 795.9962078630025 362.89127239748296 L 795.9962078630025 362.89127239748296 L 795.9962078630025 362.89127239748296 L 795.9962078630025 362.89127239748296 L 795.9962078630025 362.187685668692 L 795.9962078630025 362.187685668692 L 795.9962078630025 362.187685668692 L 795.2926211342115 362.187685668692 L 795.2926211342115 362.187685668692 L 795.2926211342115 362.187685668692 L 795.2926211342115 362.187685668692 L 795.2926211342115 362.187685668692 L 795.2926211342115 362.187685668692 L 795.2926211342115 362.187685668692 L 795.2926211342115 362.187685668692 L 794.5890344054205 362.187685668692 L 794.5890344054205 362.187685668692 L 794.5890344054205 362.187685668692 L 794.5890344054205 362.187685668692 L 794.5890344054205 362.187685668692 L 794.5890344054205 362.187685668692 L 794.5890344054205 362.187685668692 L 794.5890344054205 362.187685668692 L 793.8854476766295 361.484098939901 L 793.8854476766295 361.484098939901 L 793.8854476766295 361.484098939901 L 793.8854476766295 361.484098939901 L 793.8854476766295 361.484098939901 L 793.8854476766295 361.484098939901 L 793.8854476766295 361.484098939901 L 793.8854476766295 361.484098939901 L 793.1818609478385 361.484098939901 L 793.1818609478385 361.484098939901 L 793.1818609478385 361.484098939901 L 793.1818609478385 361.484098939901 L 793.1818609478385 361.484098939901 L 793.1818609478385 361.484098939901 L 793.1818609478385 361.484098939901 L 792.4782742190475 361.484098939901 L 792.4782742190475 361.484098939901 L 792.4782742190475 361.484098939901 L 792.4782742190475 361.484098939901 L 792.4782742190475 361.484098939901 L 792.4782742190475 361.484098939901 L 792.4782742190475 361.484098939901 L 792.4782742190475 360.78051221110996 L 791.7746874902565 360.78051221110996 L 791.7746874902565 360.78051221110996 L 791.7746874902565 360.78051221110996 L 791.7746874902565 360.78051221110996 L 791.7746874902565 360.78051221110996 L 791.7746874902565 360.78051221110996 L 791.7746874902565 360.78051221110996 L 791.7746874902565 360.78051221110996 L 791.0711007614655 360.78051221110996 L 791.0711007614655 360.78051221110996 L 791.0711007614655 360.78051221110996 L 791.0711007614655 360.78051221110996 L 791.0711007614655 360.78051221110996 L 791.0711007614655 360.78051221110996 L 791.0711007614655 360.78051221110996 L 791.0711007614655 360.78051221110996 L 790.3675140326745 360.78051221110996 L 790.3675140326745 360.78051221110996 L 790.3675140326745 360.78051221110996 L 790.3675140326745 360.78051221110996 L 790.3675140326745 360.78051221110996 L 790.3675140326745 360.78051221110996 L 789.6639273038835 360.78051221110996 L 789.6639273038835 360.78051221110996 L 789.6639273038835 360.78051221110996 L 789.6639273038835 360.78051221110996 L 789.6639273038835 360.78051221110996 L 789.6639273038835 360.78051221110996 L 788.9603405750925 360.076925482319 L 788.9603405750925 360.076925482319 L 788.9603405750925 360.076925482319 L 788.9603405750925 360.076925482319 L 788.9603405750925 360.076925482319 L 788.9603405750925 360.076925482319 L 788.2567538463015 360.076925482319 L 788.2567538463015 360.076925482319 L 788.2567538463015 360.076925482319 L 788.2567538463015 360.076925482319 L 788.2567538463015 360.076925482319 L 788.2567538463015 360.076925482319 L 787.5531671175105 360.076925482319 L 787.5531671175105 360.076925482319 L 787.5531671175105 360.076925482319 L 787.5531671175105 360.076925482319 L 787.5531671175105 360.076925482319 L 787.5531671175105 360.076925482319 L 786.8495803887195 360.076925482319 L 786.8495803887195 360.076925482319 L 786.8495803887195 360.076925482319 L 786.8495803887195 360.076925482319 L 786.8495803887195 360.076925482319 L 786.1459936599285 360.076925482319 L 786.1459936599285 360.076925482319 L 786.1459936599285 360.076925482319 L 786.1459936599285 360.076925482319 L 786.1459936599285 360.076925482319 L 786.1459936599285 360.076925482319 L 785.4424069311375 360.076925482319 L 785.4424069311375 360.076925482319 L 785.4424069311375 360.076925482319 L 785.4424069311375 360.076925482319 L 785.4424069311375 360.076925482319 L 785.4424069311375 360.076925482319 L 784.7388202023465 360.076925482319 L 784.7388202023465 360.076925482319 L 784.7388202023465 360.076925482319 L 784.7388202023465 360.076925482319 L 784.7388202023465 360.076925482319 L 784.7388202023465 360.076925482319 L 784.0352334735555 360.076925482319 L 784.0352334735555 360.076925482319 L 784.0352334735555 360.076925482319 L 784.0352334735555 360.076925482319 L 784.0352334735555 360.076925482319 L 784.0352334735555 360.076925482319 L 783.3316467447645 360.076925482319 L 783.3316467447645 360.076925482319 L 783.3316467447645 360.076925482319 L 783.3316467447645 360.076925482319 L 783.3316467447645 360.076925482319 L 782.6280600159735 360.076925482319 L 782.6280600159735 360.076925482319 L 782.6280600159735 360.076925482319 L 782.6280600159735 360.076925482319 L 782.6280600159735 360.076925482319 L 782.6280600159735 360.076925482319 L 781.9244732871825 360.076925482319 L 781.9244732871825 359.373338753528 L 781.9244732871825 359.373338753528 L 781.9244732871825 359.373338753528 L 781.9244732871825 359.373338753528 L 781.9244732871825 359.373338753528 L 781.2208865583915 360.076925482319 L 781.2208865583915 360.076925482319 L 781.2208865583915 360.076925482319 L 781.2208865583915 360.076925482319 L 781.2208865583915 360.076925482319 L 781.2208865583915 360.076925482319 L 780.5172998296005 360.076925482319 L 780.5172998296005 360.076925482319 L 780.5172998296005 360.076925482319 L 780.5172998296005 360.076925482319 L 780.5172998296005 360.076925482319 L 780.5172998296005 360.076925482319 L 779.8137131008095 360.076925482319 L 779.8137131008095 360.076925482319 L 779.8137131008095 360.076925482319 L 779.8137131008095 360.076925482319 L 779.8137131008095 360.076925482319 L 779.1101263720185 360.076925482319 L 779.1101263720185 360.076925482319 L 779.1101263720185 360.076925482319 L 779.1101263720185 360.076925482319 L 779.1101263720185 360.076925482319 L 779.1101263720185 360.076925482319 L 778.4065396432275 360.076925482319 L 778.4065396432275 360.076925482319 L 778.4065396432275 360.076925482319 L 778.4065396432275 360.076925482319 L 778.4065396432275 360.076925482319 L 778.4065396432275 360.076925482319 L 778.4065396432275 360.076925482319 L 778.4065396432275 360.076925482319 L 777.7029529144365 360.076925482319 L 777.7029529144365 360.076925482319 L 777.7029529144365 360.076925482319 L 777.7029529144365 360.076925482319 L 777.7029529144365 360.076925482319 L 777.7029529144365 360.076925482319 L 777.7029529144365 360.076925482319 L 776.9993661856455 360.076925482319 L 776.9993661856455 360.076925482319 L 776.9993661856455 360.076925482319 L 776.9993661856455 360.076925482319 L 776.9993661856455 360.076925482319 L 776.9993661856455 360.076925482319 L 776.2957794568545 360.076925482319 L 776.2957794568545 360.076925482319 L 776.2957794568545 360.076925482319 L 776.2957794568545 360.076925482319 L 776.2957794568545 360.076925482319 L 776.2957794568545 360.076925482319 L 776.2957794568545 360.076925482319 L 775.5921927280635 360.076925482319 L 775.5921927280635 360.076925482319 L 775.5921927280635 360.076925482319 L 775.5921927280635 360.076925482319 L 775.5921927280635 360.076925482319 L 775.5921927280635 360.076925482319 L 775.5921927280635 360.076925482319 L 774.8886059992725 360.076925482319 L 774.8886059992725 360.076925482319 L 774.8886059992725 360.076925482319 L 774.8886059992725 360.076925482319 L 774.8886059992725 360.076925482319 L 774.8886059992725 360.076925482319 L 774.8886059992725 360.076925482319 L 774.1850192704815 360.076925482319 L 774.1850192704815 360.076925482319 L 774.1850192704815 360.076925482319 L 774.1850192704815 360.076925482319 L 774.1850192704815 360.78051221110996 L 774.1850192704815 360.78051221110996 L 774.1850192704815 360.78051221110996 L 773.4814325416905 360.78051221110996 L 773.4814325416905 360.78051221110996 L 773.4814325416905 360.78051221110996 L 773.4814325416905 360.78051221110996 L 773.4814325416905 360.78051221110996 L 773.4814325416905 360.78051221110996 L 772.7778458128995 360.78051221110996 L 772.7778458128995 360.78051221110996 L 772.7778458128995 360.78051221110996 L 772.7778458128995 360.78051221110996 L 772.7778458128995 360.78051221110996 L 772.7778458128995 360.78051221110996 L 772.7778458128995 360.78051221110996 L 772.0742590841085 360.78051221110996 L 772.0742590841085 360.78051221110996 L 772.0742590841085 360.78051221110996 L 772.0742590841085 360.78051221110996 L 772.0742590841085 360.78051221110996 L 772.0742590841085 360.78051221110996 L 772.0742590841085 360.78051221110996 L 771.3706723553175 360.78051221110996 L 771.3706723553175 360.78051221110996 L 771.3706723553175 360.78051221110996 L 771.3706723553175 360.78051221110996 L 771.3706723553175 360.78051221110996 L 771.3706723553175 360.78051221110996 L 771.3706723553175 360.78051221110996 L 770.6670856265265 360.78051221110996 L 770.6670856265265 360.78051221110996 L 770.6670856265265 361.484098939901 L 770.6670856265265 361.484098939901 L 770.6670856265265 361.484098939901 L 770.6670856265265 361.484098939901 L 770.6670856265265 361.484098939901 L 769.9634988977355 361.484098939901 L 769.9634988977355 361.484098939901 L 769.9634988977355 361.484098939901 L 769.9634988977355 361.484098939901 L 769.9634988977355 361.484098939901 L 769.9634988977355 361.484098939901 L 769.9634988977355 361.484098939901 L 769.2599121689445 361.484098939901 L 769.2599121689445 361.484098939901 L 769.2599121689445 361.484098939901 L 769.2599121689445 361.484098939901 L 769.2599121689445 361.484098939901 L 769.2599121689445 361.484098939901 L 769.2599121689445 361.484098939901 L 768.5563254401535 361.484098939901 L 768.5563254401535 361.484098939901 L 768.5563254401535 361.484098939901 L 768.5563254401535 361.484098939901 L 768.5563254401535 361.484098939901 L 768.5563254401535 361.484098939901 L 768.5563254401535 362.187685668692 L 768.5563254401535 362.187685668692 L 768.5563254401535 362.187685668692 L 767.8527387113625 362.187685668692 L 767.8527387113625 362.187685668692 L 767.8527387113625 362.187685668692 L 767.8527387113625 362.187685668692 L 767.8527387113625 362.187685668692 L 767.8527387113625 362.187685668692 L 767.8527387113625 362.187685668692 L 767.8527387113625 362.187685668692 L 767.8527387113625 362.187685668692 L 767.8527387113625 362.187685668692 L 767.8527387113625 362.187685668692 L 767.8527387113625 362.187685668692 L 767.8527387113625 362.187685668692 L 767.1491519825715 362.187685668692 L 767.1491519825715 362.187685668692 L 767.1491519825715 362.187685668692 L 767.1491519825715 362.187685668692 L 767.1491519825715 362.187685668692 L 767.1491519825715 362.187685668692 L 767.1491519825715 362.187685668692 L 767.1491519825715 362.187685668692 L 767.1491519825715 362.187685668692 L 767.1491519825715 362.187685668692 L 767.1491519825715 362.187685668692 L 767.1491519825715 362.187685668692 L 766.4455652537805 362.187685668692 L 766.4455652537805 362.187685668692 L 766.4455652537805 362.187685668692 L 766.4455652537805 362.187685668692 L 766.4455652537805 362.89127239748296 L 766.4455652537805 362.89127239748296 L 766.4455652537805 362.89127239748296 L 766.4455652537805 362.89127239748296 L 766.4455652537805 362.89127239748296 L 766.4455652537805 362.89127239748296 L 766.4455652537805 362.89127239748296 L 766.4455652537805 362.89127239748296 L 765.7419785249895 362.89127239748296 L 765.7419785249895 362.89127239748296 L 765.7419785249895 362.89127239748296 L 765.7419785249895 362.89127239748296 L 765.7419785249895 362.89127239748296 L 765.7419785249895 362.89127239748296 L 765.7419785249895 362.89127239748296 L 765.7419785249895 362.89127239748296 L 765.7419785249895 362.89127239748296 L 765.7419785249895 362.89127239748296 L 765.7419785249895 362.89127239748296 L 765.7419785249895 362.89127239748296 L 765.0383917961985 362.89127239748296 L 765.0383917961985 362.89127239748296 L 765.0383917961985 362.89127239748296 L 765.0383917961985 362.89127239748296 L 765.0383917961985 362.89127239748296 L 765.0383917961985 362.89127239748296 L 765.0383917961985 363.594859126274 L 765.0383917961985 363.594859126274 L 765.0383917961985 363.594859126274 L 765.0383917961985 363.594859126274 L 765.0383917961985 363.594859126274 L 765.0383917961985 363.594859126274 L 765.0383917961985 363.594859126274 L 764.3348050674075 363.594859126274 L 764.3348050674075 363.594859126274 L 764.3348050674075 363.594859126274 L 764.3348050674075 363.594859126274 L 764.3348050674075 363.594859126274 L 764.3348050674075 363.594859126274 L 764.3348050674075 363.594859126274 L 764.3348050674075 363.594859126274 L 764.3348050674075 363.594859126274 L 764.3348050674075 363.594859126274 L 764.3348050674075 363.594859126274 L 764.3348050674075 363.594859126274 L 764.3348050674075 363.594859126274 L 763.6312183386165 363.594859126274 L 763.6312183386165 363.594859126274 L 763.6312183386165 363.594859126274 L 763.6312183386165 363.594859126274 L 763.6312183386165 364.298445855065 L 763.6312183386165 364.298445855065 L 763.6312183386165 364.298445855065 L 763.6312183386165 364.298445855065 L 763.6312183386165 364.298445855065 L 763.6312183386165 364.298445855065 L 763.6312183386165 364.298445855065 L 763.6312183386165 364.298445855065 L 763.6312183386165 364.298445855065 L 762.9276316098255 364.298445855065 L 762.9276316098255 364.298445855065 L 762.9276316098255 364.298445855065 L 762.9276316098255 364.298445855065 L 762.9276316098255 364.298445855065 L 762.9276316098255 364.298445855065 L 762.9276316098255 364.298445855065 L 762.9276316098255 364.298445855065 L 762.9276316098255 364.298445855065" stroke="rgb(132, 0, 0)" fill="none" stroke-width="1.407173457582px" stroke-linecap="round"/><path d="M 765.0383917961985 336.15497670342495 L 765.0383917961985 346.00519090649897 L 765.0383917961985 346.00519090649897 L 765.0383917961985 336.15497670342495" stroke="rgb(132, 0, 0)" fill="none" stroke-width="1.407173457582px" stroke-linecap="round"/><path d="M 760.1132846946615 340.37649707617095 L 769.9634988977355 340.376497076171 L 769.9634988977355 341.080083804962 L 760.1132846946615 341.080083804962" stroke="rgb(132, 0, 0)" fill="none" stroke-width="1.407173457582px" stroke-linecap="round"/><text x="797.3650604694009" y="347.412364364081" stroke="rgb(245, 241, 237)" stroke-width="1.407173457582px" paint-order="stroke" fill="rgb(15, 15, 15)" font-family="sans-serif" text-anchor="start" dominant-baseline="ideographic" font-size="12.664561118238px">C2</text><text x="797.3650604694009" y="368.519966227811" fill="rgb(15, 15, 15)" font-family="sans-serif" text-anchor="start" dominant-baseline="hanging" font-size="12.664561118238px">10uF</text></g><g data-circuit-json-type="schematic_component" data-schematic-component-id="schematic_component_2"><rect class="component-overlay" x="559.5910669892264" y="315.04737483969495" width="37.290096625922956" height="77.39454016701" fill="transparent"/><path d="M 578.5879086665834 392.44191500670496 L 578.5879086665834 358.66975202473697" stroke="rgb(132, 0, 0)" fill="none" stroke-width="1.407173457582px" stroke-linecap="round"/><path d="M 578.5879086665834 347.41236436408093 L 578.5879086665834 315.04737483969495" stroke="rgb(132, 0, 0)" fill="none" stroke-width="1.407173457582px" stroke-linecap="round"/><path d="M 596.8811636151494 358.66975202473697 L 559.5910669892264 358.66975202473697" stroke="rgb(132, 0, 0)" fill="none" stroke-width="1.407173457582px" stroke-linecap="round"/><path d="M 596.8811636151494 347.41236436408093 L 559.5910669892264 347.41236436408093" stroke="rgb(132, 0, 0)" fill="none" stroke-width="1.407173457582px" stroke-linecap="round"/><text x="585.2719825900979" y="339.67291034737997" stroke="rgb(245, 241, 237)" stroke-width="1.407173457582px" paint-order="stroke" fill="rgb(15, 15, 15)" font-family="sans-serif" text-anchor="start" dominant-baseline="ideographic" font-size="12.664561118238px">C4</text><text x="585.2719825900979" y="367.81637949901994" fill="rgb(15, 15, 15)" font-family="sans-serif" text-anchor="start" dominant-baseline="hanging" font-size="12.664561118238px">1uF</text></g><g data-circuit-json-type="schematic_component" data-schematic-component-id="schematic_component_3"><rect class="component chip" x="744.282583296864" y="315.04737483969495" width="105.53800931864998" height="70.35867287910003" stroke-width="1.407173457582px" fill="rgb(255, 255, 194)" stroke="rgb(132, 0, 0)"/><rect class="component-overlay" x="744.282583296864" y="315.04737483969495" width="105.53800931864998" height="70.35867287910003" fill="transparent"/><text x="744.282583296864" y="394.55267519307796" fill="#006464" text-anchor="start" dominant-baseline="middle" font-family="sans-serif" font-size="12.664561118238px" transform="rotate(0, 744.282583296864, 394.55267519307796)">MPL3115A2R1</text><text x="744.282583296864" y="305.900747365412" fill="#006464" text-anchor="start" dominant-baseline="middle" font-family="sans-serif" font-size="12.664561118238px" transform="rotate(0, 744.282583296864, 305.900747365412)">U1</text><line class="component-pin" x1="744.282583296864" y1="329.11910941551497" x2="716.139114145224" y2="329.11910941551497" stroke-width="1.407173457582px"/><g data-schematic-port-id="source_port_6"><rect x="714.731940687642" y="327.71193595793295" width="2.814346915164" height="2.814346915164" opacity="0"/></g><text class="pin-number" x="730.2108487210439" y="327.71193595793295" style="font-family: sans-serif;" fill="rgb(169, 0, 0)" text-anchor="middle" dominant-baseline="auto" font-size="10.553800931865px" transform="">1</text><text class="pin-number" x="751.3184505847739" y="329.11910941551497" style="font-family: sans-serif;" fill="rgb(169, 0, 0)" text-anchor="start" dominant-baseline="middle" font-size="10.553800931865px" transform="">VDD</text><line class="component-pin" x1="744.282583296864" y1="343.190843991335" x2="716.139114145224" y2="343.190843991335" stroke-width="1.407173457582px"/><g data-schematic-port-id="source_port_7"><rect x="714.731940687642" y="341.78367053375297" width="2.814346915164" height="2.814346915164" opacity="0"/></g><text class="pin-number" x="730.2108487210439" y="341.78367053375297" style="font-family: sans-serif;" fill="rgb(169, 0, 0)" text-anchor="middle" dominant-baseline="auto" font-size="10.553800931865px" transform="">2</text><text class="pin-number" x="751.3184505847739" y="343.190843991335" style="font-family: sans-serif;" fill="rgb(169, 0, 0)" text-anchor="start" dominant-baseline="middle" font-size="10.553800931865px" transform="">CAP</text><line class="component-pin" x1="744.282583296864" y1="357.26257856715495" x2="716.139114145224" y2="357.26257856715495" stroke-width="1.407173457582px"/><g data-schematic-port-id="source_port_8"><rect x="714.731940687642" y="355.8554051095729" width="2.814346915164" height="2.814346915164" opacity="0"/></g><text class="pin-number" x="730.2108487210439" y="355.855405109573" style="font-family: sans-serif;" fill="rgb(169, 0, 0)" text-anchor="middle" dominant-baseline="auto" font-size="10.553800931865px" transform="">3</text><text class="pin-number" x="751.3184505847739" y="357.26257856715495" style="font-family: sans-serif;" fill="rgb(169, 0, 0)" text-anchor="start" dominant-baseline="middle" font-size="10.553800931865px" transform="">GND</text><line class="component-pin" x1="744.282583296864" y1="371.33431314297496" x2="716.139114145224" y2="371.33431314297496" stroke-width="1.407173457582px"/><g data-schematic-port-id="source_port_9"><rect x="714.731940687642" y="369.92713968539294" width="2.814346915164" height="2.814346915164" opacity="0"/></g><text class="pin-number" x="730.2108487210439" y="369.927139685393" style="font-family: sans-serif;" fill="rgb(169, 0, 0)" text-anchor="middle" dominant-baseline="auto" font-size="10.553800931865px" transform="">4</text><text class="pin-number" x="751.3184505847739" y="371.33431314297496" style="font-family: sans-serif;" fill="rgb(169, 0, 0)" text-anchor="start" dominant-baseline="middle" font-size="10.553800931865px" transform="">VDDIO</text><line class="component-pin" x1="849.820592615514" y1="371.33431314297496" x2="877.9640617671539" y2="371.33431314297496" stroke-width="1.407173457582px"/><g data-schematic-port-id="source_port_10"><rect x="876.556888309572" y="369.92713968539294" width="2.814346915164" height="2.814346915164" opacity="0"/></g><text class="pin-number" x="863.892327191334" y="369.927139685393" style="font-family: sans-serif;" fill="rgb(169, 0, 0)" text-anchor="middle" dominant-baseline="auto" font-size="10.553800931865px" transform="">5</text><text class="pin-number" x="842.784725327604" y="371.33431314297496" style="font-family: sans-serif;" fill="rgb(169, 0, 0)" text-anchor="end" dominant-baseline="middle" font-size="10.553800931865px" transform="">INT2</text><line class="component-pin" x1="849.820592615514" y1="357.262578567155" x2="877.9640617671539" y2="357.262578567155" stroke-width="1.407173457582px"/><g data-schematic-port-id="source_port_11"><rect x="876.556888309572" y="355.855405109573" width="2.814346915164" height="2.814346915164" opacity="0"/></g><text class="pin-number" x="863.892327191334" y="355.855405109573" style="font-family: sans-serif;" fill="rgb(169, 0, 0)" text-anchor="middle" dominant-baseline="auto" font-size="10.553800931865px" transform="">6</text><text class="pin-number" x="842.784725327604" y="357.262578567155" style="font-family: sans-serif;" fill="rgb(169, 0, 0)" text-anchor="end" dominant-baseline="middle" font-size="10.553800931865px" transform="">INT1</text><line class="component-pin" x1="849.820592615514" y1="343.190843991335" x2="877.9640617671539" y2="343.190843991335" stroke-width="1.407173457582px"/><g data-schematic-port-id="source_port_12"><rect x="876.556888309572" y="341.78367053375297" width="2.814346915164" height="2.814346915164" opacity="0"/></g><text class="pin-number" x="863.892327191334" y="341.78367053375297" style="font-family: sans-serif;" fill="rgb(169, 0, 0)" text-anchor="middle" dominant-baseline="auto" font-size="10.553800931865px" transform="">7</text><text class="pin-number" x="842.784725327604" y="343.190843991335" style="font-family: sans-serif;" fill="rgb(169, 0, 0)" text-anchor="end" dominant-baseline="middle" font-size="10.553800931865px" transform="">SDA</text><line class="component-pin" x1="849.820592615514" y1="329.11910941551497" x2="877.9640617671539" y2="329.11910941551497" stroke-width="1.407173457582px"/><g data-schematic-port-id="source_port_13"><rect x="876.556888309572" y="327.71193595793295" width="2.814346915164" height="2.814346915164" opacity="0"/></g><text class="pin-number" x="863.892327191334" y="327.71193595793295" style="font-family: sans-serif;" fill="rgb(169, 0, 0)" text-anchor="middle" dominant-baseline="auto" font-size="10.553800931865px" transform="">8</text><text class="pin-number" x="842.784725327604" y="329.11910941551497" style="font-family: sans-serif;" fill="rgb(169, 0, 0)" text-anchor="end" dominant-baseline="middle" font-size="10.553800931865px" transform="">SCL</text></g><g data-circuit-json-type="schematic_component" data-schematic-component-id="schematic_component_4"><rect class="component-overlay" x="787.2013737531149" y="124.72716470172954" width="18.996841677356997" height="77.39454016700996" fill="transparent"/><path d="M 797.0515879561889 124.72716470172954 L 797.0515879561889 144.42759310787753" stroke="rgb(132, 0, 0)" fill="none" stroke-width="1.407173457582px" stroke-linecap="round"/><path d="M 797.0515879561889 181.7176897338005 L 797.0515879561889 202.1217048687395" stroke="rgb(132, 0, 0)" fill="none" stroke-width="1.407173457582px" stroke-linecap="round"/><path d="M 806.1982154304719 163.42443478523452 L 806.1982154304719 181.7176897338005 L 787.2013737531149 181.7176897338005 L 787.2013737531149 144.42759310787753 L 806.1982154304719 144.42759310787753 L 806.1982154304719 163.42443478523452" stroke="rgb(132, 0, 0)" fill="none" stroke-width="1.407173457582px" stroke-linecap="round"/><text x="809.6778282232433" y="150.75987366699653" stroke="rgb(245, 241, 237)" stroke-width="1.407173457582px" paint-order="stroke" fill="rgb(15, 15, 15)" font-family="sans-serif" text-anchor="start" dominant-baseline="middle" font-size="12.664561118238px">R1</text><text x="809.6778282232433" y="173.2746489883085" fill="rgb(15, 15, 15)" font-family="sans-serif" text-anchor="start" dominant-baseline="middle" font-size="12.664561118238px">1k</text></g><g data-circuit-json-type="schematic_component" data-schematic-component-id="schematic_component_5"><rect class="component-overlay" x="894.1082356781633" y="124.72716470172954" width="18.996841677356997" height="77.39454016700996" fill="transparent"/><path d="M 903.9584498812372 124.72716470172954 L 903.9584498812372 144.42759310787753" stroke="rgb(132, 0, 0)" fill="none" stroke-width="1.407173457582px" stroke-linecap="round"/><path d="M 903.9584498812372 181.7176897338005 L 903.9584498812372 202.1217048687395" stroke="rgb(132, 0, 0)" fill="none" stroke-width="1.407173457582px" stroke-linecap="round"/><path d="M 913.1050773555203 163.42443478523452 L 913.1050773555203 181.7176897338005 L 894.1082356781633 181.7176897338005 L 894.1082356781633 144.42759310787753 L 913.1050773555203 144.42759310787753 L 913.1050773555203 163.42443478523452" stroke="rgb(132, 0, 0)" fill="none" stroke-width="1.407173457582px" stroke-linecap="round"/><text x="916.5846901482917" y="150.75987366699653" stroke="rgb(245, 241, 237)" stroke-width="1.407173457582px" paint-order="stroke" fill="rgb(15, 15, 15)" font-family="sans-serif" text-anchor="start" dominant-baseline="middle" font-size="12.664561118238px">R2</text><text x="916.5846901482917" y="173.2746489883085" fill="rgb(15, 15, 15)" font-family="sans-serif" text-anchor="start" dominant-baseline="middle" font-size="12.664561118238px">1k</text></g><g data-circuit-json-type="schematic_component" data-schematic-component-id="schematic_component_6"><rect class="component-overlay" x="632.7640867834905" y="343.190843991335" width="37.290096625922956" height="77.39454016701" fill="transparent"/><path d="M 651.7609284608475 420.585384158345 L 651.7609284608475 386.813221176377" stroke="rgb(132, 0, 0)" fill="none" stroke-width="1.407173457582px" stroke-linecap="round"/><path d="M 651.7609284608475 375.55583351572096 L 651.7609284608475 343.190843991335" stroke="rgb(132, 0, 0)" fill="none" stroke-width="1.407173457582px" stroke-linecap="round"/><path d="M 670.0541834094134 386.813221176377 L 632.7640867834905 386.813221176377" stroke="rgb(132, 0, 0)" fill="none" stroke-width="1.407173457582px" stroke-linecap="round"/><path d="M 670.0541834094134 375.55583351572096 L 632.7640867834905 375.55583351572096" stroke="rgb(132, 0, 0)" fill="none" stroke-width="1.407173457582px" stroke-linecap="round"/><text x="658.4450023843619" y="367.81637949902" stroke="rgb(245, 241, 237)" stroke-width="1.407173457582px" paint-order="stroke" fill="rgb(15, 15, 15)" font-family="sans-serif" text-anchor="start" dominant-baseline="ideographic" font-size="12.664561118238px">C3</text><text x="658.4450023843619" y="395.95984865066" fill="rgb(15, 15, 15)" font-family="sans-serif" text-anchor="start" dominant-baseline="hanging" font-size="12.664561118238px">0.1uF</text></g><g data-circuit-json-type="schematic_component" data-schematic-component-id="schematic_component_7"><rect class="component chip" x="361.53140283456" y="234.13490102872998" width="42.21520372745994" height="98.50214203074" stroke-width="1.407173457582px" fill="rgb(255, 255, 194)" stroke="rgb(132, 0, 0)"/><rect class="component-overlay" x="361.53140283456" y="234.13490102872998" width="42.21520372745994" height="98.50214203074" fill="transparent"/><text x="361.53140283456" y="341.78367053375297" fill="#006464" text-anchor="start" dominant-baseline="middle" font-family="sans-serif" font-size="12.664561118238px" transform="rotate(0, 361.53140283456, 341.78367053375297)">M06SIP</text><text x="361.53140283456" y="224.98827355444698" fill="#006464" text-anchor="start" dominant-baseline="middle" font-family="sans-serif" font-size="12.664561118238px" transform="rotate(0, 361.53140283456, 224.98827355444698)">JP4</text><line class="component-pin" x1="361.53140283456" y1="248.20663560455" x2="333.38793368292" y2="248.20663560455" stroke-width="1.407173457582px"/><g data-schematic-port-id="source_port_20"><rect x="331.980760225338" y="246.799462146968" width="2.814346915164" height="2.814346915164" opacity="0"/></g><text class="pin-number" x="347.45966825874" y="246.79946214696798" style="font-family: sans-serif;" fill="rgb(169, 0, 0)" text-anchor="middle" dominant-baseline="auto" font-size="10.553800931865px" transform="">1</text><text class="pin-number" x="368.56727012247" y="248.20663560455" style="font-family: sans-serif;" fill="rgb(169, 0, 0)" text-anchor="start" dominant-baseline="middle" font-size="10.553800931865px" transform="">INT2</text><line class="component-pin" x1="361.53140283456" y1="262.27837018036996" x2="333.38793368292" y2="262.27837018036996" stroke-width="1.407173457582px"/><g data-schematic-port-id="source_port_21"><rect x="331.980760225338" y="260.87119672278794" width="2.814346915164" height="2.814346915164" opacity="0"/></g><text class="pin-number" x="347.45966825874" y="260.871196722788" style="font-family: sans-serif;" fill="rgb(169, 0, 0)" text-anchor="middle" dominant-baseline="auto" font-size="10.553800931865px" transform="">2</text><text class="pin-number" x="368.56727012247" y="262.27837018036996" style="font-family: sans-serif;" fill="rgb(169, 0, 0)" text-anchor="start" dominant-baseline="middle" font-size="10.553800931865px" transform="">INT1</text><line class="component-pin" x1="361.53140283456" y1="276.35010475619" x2="333.38793368292" y2="276.35010475619" stroke-width="1.407173457582px"/><g data-schematic-port-id="source_port_22"><rect x="331.980760225338" y="274.94293129860796" width="2.814346915164" height="2.814346915164" opacity="0"/></g><text class="pin-number" x="347.45966825874" y="274.94293129860796" style="font-family: sans-serif;" fill="rgb(169, 0, 0)" text-anchor="middle" dominant-baseline="auto" font-size="10.553800931865px" transform="">3</text><text class="pin-number" x="368.56727012247" y="276.35010475619" style="font-family: sans-serif;" fill="rgb(169, 0, 0)" text-anchor="start" dominant-baseline="middle" font-size="10.553800931865px" transform="">SDA</text><line class="component-pin" x1="361.53140283456" y1="290.42183933201" x2="333.38793368292" y2="290.42183933201" stroke-width="1.407173457582px"/><g data-schematic-port-id="source_port_23"><rect x="331.980760225338" y="289.014665874428" width="2.814346915164" height="2.814346915164" opacity="0"/></g><text class="pin-number" x="347.45966825874" y="289.014665874428" style="font-family: sans-serif;" fill="rgb(169, 0, 0)" text-anchor="middle" dominant-baseline="auto" font-size="10.553800931865px" transform="">4</text><text class="pin-number" x="368.56727012247" y="290.42183933201" style="font-family: sans-serif;" fill="rgb(169, 0, 0)" text-anchor="start" dominant-baseline="middle" font-size="10.553800931865px" transform="">SCL</text><line class="component-pin" x1="361.53140283456" y1="304.49357390783" x2="333.38793368292" y2="304.49357390783" stroke-width="1.407173457582px"/><g data-schematic-port-id="source_port_24"><rect x="331.980760225338" y="303.086400450248" width="2.814346915164" height="2.814346915164" opacity="0"/></g><text class="pin-number" x="347.45966825874" y="303.086400450248" style="font-family: sans-serif;" fill="rgb(169, 0, 0)" text-anchor="middle" dominant-baseline="auto" font-size="10.553800931865px" transform="">5</text><text class="pin-number" x="368.56727012247" y="304.49357390783" style="font-family: sans-serif;" fill="rgb(169, 0, 0)" text-anchor="start" dominant-baseline="middle" font-size="10.553800931865px" transform="">VCC</text><line class="component-pin" x1="361.53140283456" y1="318.56530848364997" x2="333.38793368292" y2="318.56530848364997" stroke-width="1.407173457582px"/><g data-schematic-port-id="source_port_25"><rect x="331.980760225338" y="317.15813502606795" width="2.814346915164" height="2.814346915164" opacity="0"/></g><text class="pin-number" x="347.45966825874" y="317.15813502606795" style="font-family: sans-serif;" fill="rgb(169, 0, 0)" text-anchor="middle" dominant-baseline="auto" font-size="10.553800931865px" transform="">6</text><text class="pin-number" x="368.56727012247" y="318.56530848364997" style="font-family: sans-serif;" fill="rgb(169, 0, 0)" text-anchor="start" dominant-baseline="middle" font-size="10.553800931865px" transform="">GND</text></g><g class="schematic-port-hover" data-schematic-port-id="source_port_0"><circle cx="700.3084127474265" cy="315.04737483969495" r="2.814346915164" fill="red" opacity="0"/></g><g class="schematic-port-hover" data-schematic-port-id="source_port_1"><circle cx="700.3084127474265" cy="392.441915006705" r="2.814346915164" fill="red" opacity="0"/></g><g class="schematic-port-hover" data-schematic-port-id="source_port_2"><circle cx="781.2208865583915" cy="392.441915006705" r="2.814346915164" fill="red" opacity="0"/></g><g class="schematic-port-hover" data-schematic-port-id="source_port_3"><circle cx="781.2208865583915" cy="322.78682885639597" r="2.814346915164" fill="red" opacity="0"/></g><g class="schematic-port-hover" data-schematic-port-id="source_port_4"><circle cx="578.5879086665834" cy="315.04737483969495" r="2.814346915164" fill="red" opacity="0"/></g><g class="schematic-port-hover" data-schematic-port-id="source_port_5"><circle cx="578.5879086665834" cy="392.441915006705" r="2.814346915164" fill="red" opacity="0"/></g><g class="schematic-port-hover" data-schematic-port-id="source_port_6"><circle cx="716.139114145224" cy="329.11910941551497" r="2.814346915164" fill="red" opacity="0"/></g><g class="schematic-port-hover" data-schematic-port-id="source_port_7"><circle cx="716.139114145224" cy="343.190843991335" r="2.814346915164" fill="red" opacity="0"/></g><g class="schematic-port-hover" data-schematic-port-id="source_port_8"><circle cx="716.139114145224" cy="357.26257856715495" r="2.814346915164" fill="red" opacity="0"/></g><g class="schematic-port-hover" data-schematic-port-id="source_port_9"><circle cx="716.139114145224" cy="371.33431314297496" r="2.814346915164" fill="red" opacity="0"/></g><g class="schematic-port-hover" data-schematic-port-id="source_port_10"><circle cx="877.9640617671539" cy="371.33431314297496" r="2.814346915164" fill="red" opacity="0"/></g><g class="schematic-port-hover" data-schematic-port-id="source_port_11"><circle cx="877.9640617671539" cy="357.262578567155" r="2.814346915164" fill="red" opacity="0"/></g><g class="schematic-port-hover" data-schematic-port-id="source_port_12"><circle cx="877.9640617671539" cy="343.190843991335" r="2.814346915164" fill="red" opacity="0"/></g><g class="schematic-port-hover" data-schematic-port-id="source_port_13"><circle cx="877.9640617671539" cy="329.11910941551497" r="2.814346915164" fill="red" opacity="0"/></g><g class="schematic-port-hover" data-schematic-port-id="source_port_14"><circle cx="797.051587956189" cy="124.72716470172949" r="2.814346915164" fill="red" opacity="0"/></g><g class="schematic-port-hover" data-schematic-port-id="source_port_15"><circle cx="797.051587956189" cy="202.12170486873947" r="2.814346915164" fill="red" opacity="0"/></g><g class="schematic-port-hover" data-schematic-port-id="source_port_16"><circle cx="903.9584498812374" cy="124.72716470172949" r="2.814346915164" fill="red" opacity="0"/></g><g class="schematic-port-hover" data-schematic-port-id="source_port_17"><circle cx="903.9584498812374" cy="202.12170486873947" r="2.814346915164" fill="red" opacity="0"/></g><g class="schematic-port-hover" data-schematic-port-id="source_port_18"><circle cx="651.7609284608475" cy="343.190843991335" r="2.814346915164" fill="red" opacity="0"/></g><g class="schematic-port-hover" data-schematic-port-id="source_port_19"><circle cx="651.7609284608475" cy="420.585384158345" r="2.814346915164" fill="red" opacity="0"/></g><g class="schematic-port-hover" data-schematic-port-id="source_port_20"><circle cx="333.38793368292" cy="248.20663560455" r="2.814346915164" fill="red" opacity="0"/></g><g class="schematic-port-hover" data-schematic-port-id="source_port_21"><circle cx="333.38793368292" cy="262.27837018036996" r="2.814346915164" fill="red" opacity="0"/></g><g class="schematic-port-hover" data-schematic-port-id="source_port_22"><circle cx="333.38793368292" cy="276.35010475619" r="2.814346915164" fill="red" opacity="0"/></g><g class="schematic-port-hover" data-schematic-port-id="source_port_23"><circle cx="333.38793368292" cy="290.42183933201" r="2.814346915164" fill="red" opacity="0"/></g><g class="schematic-port-hover" data-schematic-port-id="source_port_24"><circle cx="333.38793368292" cy="304.49357390783" r="2.814346915164" fill="red" opacity="0"/></g><g class="schematic-port-hover" data-schematic-port-id="source_port_25"><circle cx="333.38793368292" cy="318.56530848364997" r="2.814346915164" fill="red" opacity="0"/></g><rect class="component-overlay" x="733.025195636208" y="59.64539228856199" width="16.886081490983997" height="12.664561118237998" fill="transparent"/><path d="M 749.911277127192 59.64539228856199 L 733.025195636208 59.64539228856199" stroke="rgb(132, 0, 0)" fill="none" stroke-width="1.407173457582px" stroke-linecap="round"/><path d="M 741.4682363817 59.64539228856199 L 741.4682363817 72.30995340679999" stroke="rgb(132, 0, 0)" fill="none" stroke-width="1.407173457582px" stroke-linecap="round"/><text x="741.4682363817" y="56.12745864460699" fill="rgb(15, 15, 15)" font-family="sans-serif" text-anchor="middle" dominant-baseline="ideographic" font-size="12.664561118238px">VCC</text><rect class="component-overlay" x="733.025195636208" y="205.99143187708998" width="16.886081490983997" height="12.664561118237998" fill="transparent"/><path d="M 733.025195636208 218.65599299532798 L 749.911277127192 218.65599299532798" stroke="rgb(132, 0, 0)" fill="none" stroke-width="1.407173457582px" stroke-linecap="round"/><path d="M 741.4682363817 218.65599299532798 L 741.4682363817 205.99143187708998" stroke="rgb(132, 0, 0)" fill="none" stroke-width="1.407173457582px" stroke-linecap="round"/><text x="741.4682363817" y="222.17392663928297" fill="rgb(15, 15, 15)" font-family="sans-serif" text-anchor="middle" dominant-baseline="hanging" font-size="12.664561118238px">GND</text><rect class="component-overlay" x="908.921877833958" y="200.362738046762" width="16.886081490983997" height="12.664561118237998" fill="transparent"/><path d="M 925.807959324942 200.362738046762 L 908.921877833958 200.362738046762" stroke="rgb(132, 0, 0)" fill="none" stroke-width="1.407173457582px" stroke-linecap="round"/><path d="M 917.36491857945 200.362738046762 L 917.36491857945 213.027299165" stroke="rgb(132, 0, 0)" fill="none" stroke-width="1.407173457582px" stroke-linecap="round"/><text x="917.36491857945" y="196.844804402807" fill="rgb(15, 15, 15)" font-family="sans-serif" text-anchor="middle" dominant-baseline="ideographic" font-size="12.664561118238px">VCC</text><rect class="component-overlay" x="627.487186317558" y="298.864880077502" width="16.886081490983997" height="12.664561118237998" fill="transparent"/><path d="M 644.373267808542 298.864880077502 L 627.487186317558 298.864880077502" stroke="rgb(132, 0, 0)" fill="none" stroke-width="1.407173457582px" stroke-linecap="round"/><path d="M 635.93022706305 298.864880077502 L 635.93022706305 311.52944119574" stroke="rgb(132, 0, 0)" fill="none" stroke-width="1.407173457582px" stroke-linecap="round"/><text x="635.93022706305" y="295.346946433547" fill="rgb(15, 15, 15)" font-family="sans-serif" text-anchor="middle" dominant-baseline="ideographic" font-size="12.664561118238px">VCC</text><rect class="component-overlay" x="599.343717165918" y="388.92398136275" width="16.886081490983997" height="12.664561118237998" fill="transparent"/><path d="M 599.343717165918 401.588542480988 L 616.229798656902 401.588542480988" stroke="rgb(132, 0, 0)" fill="none" stroke-width="1.407173457582px" stroke-linecap="round"/><path d="M 607.78675791141 401.588542480988 L 607.78675791141 388.92398136275" stroke="rgb(132, 0, 0)" fill="none" stroke-width="1.407173457582px" stroke-linecap="round"/><text x="607.78675791141" y="405.106476124943" fill="rgb(15, 15, 15)" font-family="sans-serif" text-anchor="middle" dominant-baseline="hanging" font-size="12.664561118238px">GND</text><rect class="component-overlay" x="528.985044286818" y="441.692986022075" width="16.886081490983997" height="12.664561118237998" fill="transparent"/><path d="M 528.985044286818 454.357547140313 L 545.871125777802 454.357547140313" stroke="rgb(132, 0, 0)" fill="none" stroke-width="1.407173457582px" stroke-linecap="round"/><path d="M 537.42808503231 454.357547140313 L 537.42808503231 441.692986022075" stroke="rgb(132, 0, 0)" fill="none" stroke-width="1.407173457582px" stroke-linecap="round"/><text x="537.42808503231" y="457.875480784268" fill="rgb(15, 15, 15)" font-family="sans-serif" text-anchor="middle" dominant-baseline="hanging" font-size="12.664561118238px">GND</text><path class="net-label" d="
    M 298.20859724337,248.20663560455
    L 294.4092289078986,255.8053722754928
    L 259.37999097049067,255.8053722754928
    L 259.37999097049067,240.6078989336072
    L 294.4092289078986,240.6078989336072
    Z
  " fill="rgba(255, 255, 255, 0.6)" stroke="rgb(132, 0, 0)" stroke-width="1.407173457582px"/><text class="net-label-text" x="291.876316684251" y="248.20663560455" fill="rgb(132, 0, 0)" text-anchor="end" dominant-baseline="central" font-family="sans-serif" font-variant-numeric="tabular-nums" font-size="12.664561118238px" transform="">INT2</text><path class="net-label" d="
    M 298.20859724337,262.27837018036996
    L 294.4092289078986,269.87710685131276
    L 259.37999097049067,269.87710685131276
    L 259.37999097049067,254.67963350942716
    L 294.4092289078986,254.67963350942716
    Z
  " fill="rgba(255, 255, 255, 0.6)" stroke="rgb(132, 0, 0)" stroke-width="1.407173457582px"/><text class="net-label-text" x="291.876316684251" y="262.27837018036996" fill="rgb(132, 0, 0)" text-anchor="end" dominant-baseline="central" font-family="sans-serif" font-variant-numeric="tabular-nums" font-size="12.664561118238px" transform="">INT1</text><path class="net-label" d="
    M 298.20859724337,276.35010475619
    L 294.4092289078986,283.9488414271328
    L 261.54703809516695,283.9488414271328
    L 261.54703809516695,268.7513680852472
    L 294.4092289078986,268.7513680852472
    Z
  " fill="rgba(255, 255, 255, 0.6)" stroke="rgb(132, 0, 0)" stroke-width="1.407173457582px"/><text class="net-label-text" x="291.876316684251" y="276.35010475619" fill="rgb(132, 0, 0)" text-anchor="end" dominant-baseline="central" font-family="sans-serif" font-variant-numeric="tabular-nums" font-size="12.664561118238px" transform="">SDA</text><path class="net-label" d="
    M 298.20859724337,290.42183933201
    L 294.4092289078986,298.0205760029528
    L 262.9542115527489,298.0205760029528
    L 262.9542115527489,282.8231026610672
    L 294.4092289078986,282.8231026610672
    Z
  " fill="rgba(255, 255, 255, 0.6)" stroke="rgb(132, 0, 0)" stroke-width="1.407173457582px"/><text class="net-label-text" x="291.876316684251" y="290.42183933201" fill="rgb(132, 0, 0)" text-anchor="end" dominant-baseline="central" font-family="sans-serif" font-variant-numeric="tabular-nums" font-size="12.664561118238px" transform="">SCL</text><rect class="component-overlay" x="310.873158361608" y="207.398605334672" width="16.886081490983997" height="12.664561118237998" fill="transparent"/><path d="M 327.759239852592 207.398605334672 L 310.873158361608 207.398605334672" stroke="rgb(132, 0, 0)" fill="none" stroke-width="1.407173457582px" stroke-linecap="round"/><path d="M 319.3161991071 207.398605334672 L 319.3161991071 220.06316645291" stroke="rgb(132, 0, 0)" fill="none" stroke-width="1.407173457582px" stroke-linecap="round"/><text x="319.3161991071" y="203.880671690717" fill="rgb(15, 15, 15)" font-family="sans-serif" text-anchor="middle" dominant-baseline="ideographic" font-size="12.664561118238px">VCC</text><rect class="component-overlay" x="310.873158361608" y="339.67291034737997" width="16.886081490983997" height="12.664561118237998" fill="transparent"/><path d="M 310.873158361608 352.33747146561797 L 327.759239852592 352.33747146561797" stroke="rgb(132, 0, 0)" fill="none" stroke-width="1.407173457582px" stroke-linecap="round"/><path d="M 319.3161991071 352.33747146561797 L 319.3161991071 339.67291034737997" stroke="rgb(132, 0, 0)" fill="none" stroke-width="1.407173457582px" stroke-linecap="round"/><text x="319.3161991071" y="355.855405109573" fill="rgb(15, 15, 15)" font-family="sans-serif" text-anchor="middle" dominant-baseline="hanging" font-size="12.664561118238px">GND</text><path class="net-label" d="
    M 651.7609284608475,343.190843991335
    L 644.1621917899047,339.3914756558636
    L 644.1621917899047,233.90975327551686
    L 659.3596651317903,233.90975327551686
    L 659.3596651317903,339.3914756558636
    Z
  " fill="rgba(255, 255, 255, 0.6)" stroke="rgb(132, 0, 0)" stroke-width="1.407173457582px"/><text class="net-label-text" x="651.7609284608475" y="336.858563432216" fill="rgb(132, 0, 0)" text-anchor="start" dominant-baseline="central" font-family="sans-serif" font-variant-numeric="tabular-nums" font-size="12.664561118238px" transform="rotate(-90 651.7609284608475 336.858563432216)">U1_CAP/C3_pin1</text><path class="net-label" d="
    M 716.139114145224,343.190843991335
    L 712.3397458097526,350.7895806622778
    L 606.8580234294059,350.7895806622778
    L 606.8580234294059,335.5921073203922
    L 712.3397458097526,335.5921073203922
    Z
  " fill="rgba(255, 255, 255, 0.6)" stroke="rgb(132, 0, 0)" stroke-width="1.407173457582px"/><text class="net-label-text" x="709.806833586105" y="343.190843991335" fill="rgb(132, 0, 0)" text-anchor="end" dominant-baseline="central" font-family="sans-serif" font-variant-numeric="tabular-nums" font-size="12.664561118238px" transform="">U1_CAP/C3_pin1</text><path class="net-label" d="
    M 877.9640617671539,371.33431314297496
    L 881.7634301026253,363.73557647203216
    L 916.7926680400333,363.73557647203216
    L 916.7926680400333,378.93304981391776
    L 881.7634301026253,378.93304981391776
    Z
  " fill="rgba(255, 255, 255, 0.6)" stroke="rgb(132, 0, 0)" stroke-width="1.407173457582px"/><text class="net-label-text" x="884.2963423262729" y="371.33431314297496" fill="rgb(132, 0, 0)" text-anchor="start" dominant-baseline="central" font-family="sans-serif" font-variant-numeric="tabular-nums" font-size="12.664561118238px" transform="">INT2</text><path class="net-label" d="
    M 877.9640617671539,357.262578567155
    L 881.7634301026253,349.6638418962122
    L 916.7926680400333,349.6638418962122
    L 916.7926680400333,364.8613152380978
    L 881.7634301026253,364.8613152380978
    Z
  " fill="rgba(255, 255, 255, 0.6)" stroke="rgb(132, 0, 0)" stroke-width="1.407173457582px"/><text class="net-label-text" x="884.2963423262729" y="357.262578567155" fill="rgb(132, 0, 0)" text-anchor="start" dominant-baseline="central" font-family="sans-serif" font-variant-numeric="tabular-nums" font-size="12.664561118238px" transform="">INT1</text><path class="net-label" d="
    M 903.9584498812374,343.190843991335
    L 907.7578182167088,335.5921073203922
    L 940.6200090294404,335.5921073203922
    L 940.6200090294404,350.7895806622778
    L 907.7578182167088,350.7895806622778
    Z
  " fill="rgba(255, 255, 255, 0.6)" stroke="rgb(132, 0, 0)" stroke-width="1.407173457582px"/><text class="net-label-text" x="910.2907304403564" y="343.190843991335" fill="rgb(132, 0, 0)" text-anchor="start" dominant-baseline="central" font-family="sans-serif" font-variant-numeric="tabular-nums" font-size="12.664561118238px" transform="">SDA</text><path class="net-label" d="
    M 892.035796342974,297.3697582788211
    L 888.2364280075026,304.9684949497639
    L 856.781410652353,304.9684949497639
    L 856.781410652353,289.7710216078783
    L 888.2364280075026,289.7710216078783
    Z
  " fill="rgba(255, 255, 255, 0.6)" stroke="rgb(132, 0, 0)" stroke-width="1.407173457582px"/><text class="net-label-text" x="885.703515783855" y="297.3697582788211" fill="rgb(132, 0, 0)" text-anchor="end" dominant-baseline="central" font-family="sans-serif" font-variant-numeric="tabular-nums" font-size="12.664561118238px" transform="">SCL</text><text x="741.4682363817" y="494.4619906814" fill="gray" text-anchor="middle" dominant-baseline="middle" font-family="sans-serif" font-size="14.07173457582px" transform="rotate(0, 741.4682363817, 494.4619906814)">VCC = 3.6V Max</text><text x="741.4682363817" y="515.56959254513" fill="gray" text-anchor="middle" dominant-baseline="middle" font-family="sans-serif" font-size="14.07173457582px" transform="rotate(0, 741.4682363817, 515.56959254513)">Slave Address: 0x60</text><text x="741.4682363817" y="536.67719440886" fill="gray" text-anchor="middle" dominant-baseline="middle" font-family="sans-serif" font-size="14.07173457582px" transform="rotate(0, 741.4682363817, 536.67719440886)">Read Address: 0xC1</text><text x="741.4682363817" y="557.78479627259" fill="gray" text-anchor="middle" dominant-baseline="middle" font-family="sans-serif" font-size="14.07173457582px" transform="rotate(0, 741.4682363817, 557.78479627259)">Write Address: 0xC0</text></svg>