<svg xmlns="http://www.w3.org/2000/svg" width="1200" height="600" style="background-color: rgb(245, 241, 237)" data-real-to-screen-transform="matrix(61.3639152905,0,0,-61.3639152905,724.2619284633,308.52140237)" data-software-used-string="@tscircuit/core@0.0.747"><style>
              .boundary { fill: rgb(245, 241, 237); }
              .schematic-boundary { fill: none; stroke: #fff; }
              .component { fill: none; stroke: rgb(132, 0, 0); }
              .chip { fill: rgb(255, 255, 194); stroke: rgb(132, 0, 0); }
              .component-pin { fill: none; stroke: rgb(132, 0, 0); }
              /* Basic per-trace hover fallback */
              .trace:hover {
                filter: invert(1);
              }
              .trace:hover .trace-crossing-outline {
                opacity: 0;
              }
              .trace:hover .trace-junction {
                filter: invert(1);
              }
              /* Net-hover highlighting: when a trace or its overlays are hovered,
                 invert color for all traces (base + overlays) sharing the same
                 subcircuit connectivity key. Also hide crossing outline during hover. */
              svg:has(:is(g.trace[data-subcircuit-connectivity-map-key="unnamedsubcircuit34406_connectivity_net9"], g.trace-overlays[data-subcircuit-connectivity-map-key="unnamedsubcircuit34406_connectivity_net9"]):hover) :is(g.trace[data-subcircuit-connectivity-map-key="unnamedsubcircuit34406_connectivity_net9"], g.trace-overlays[data-subcircuit-connectivity-map-key="unnamedsubcircuit34406_connectivity_net9"]) { filter: invert(1); }
svg:has(:is(g.trace[data-subcircuit-connectivity-map-key="unnamedsubcircuit34406_connectivity_net9"], g.trace-overlays[data-subcircuit-connectivity-map-key="unnamedsubcircuit34406_connectivity_net9"]):hover) g.trace-overlays[data-subcircuit-connectivity-map-key="unnamedsubcircuit34406_connectivity_net9"] .trace-crossing-outline { opacity: 0; }
svg:has(:is(g.trace[data-subcircuit-connectivity-map-key="unnamedsubcircuit34406_connectivity_net6"], g.trace-overlays[data-subcircuit-connectivity-map-key="unnamedsubcircuit34406_connectivity_net6"]):hover) :is(g.trace[data-subcircuit-connectivity-map-key="unnamedsubcircuit34406_connectivity_net6"], g.trace-overlays[data-subcircuit-connectivity-map-key="unnamedsubcircuit34406_connectivity_net6"]) { filter: invert(1); }
svg:has(:is(g.trace[data-subcircuit-connectivity-map-key="unnamedsubcircuit34406_connectivity_net6"], g.trace-overlays[data-subcircuit-connectivity-map-key="unnamedsubcircuit34406_connectivity_net6"]):hover) g.trace-overlays[data-subcircuit-connectivity-map-key="unnamedsubcircuit34406_connectivity_net6"] .trace-crossing-outline { opacity: 0; }
              .text { font-family: sans-serif; fill: rgb(0, 150, 0); }
              .pin-number { fill: rgb(169, 0, 0); }
              .port-label { fill: rgb(0, 100, 100); }
              .component-name { fill: rgb(0, 100, 100); }
            </style><rect class="boundary" x="0" y="0" width="1200" height="600"/><g class="trace" data-layer="base" data-circuit-json-type="schematic_trace" data-schematic-trace-id="schematic_trace_0" data-subcircuit-connectivity-map-key="unnamedsubcircuit34406_connectivity_net9"><path d="M 570.85214023705 90.67950308872497 L 570.85214023705 63.06574120799996" class="trace-invisible-hover-outline" stroke="rgb(0, 150, 0)" fill="none" stroke-width="9.81822644648px" stroke-linecap="round" opacity="0" stroke-linejoin="round"/><path d="M 570.85214023705 90.67950308872497 L 570.85214023705 63.06574120799996" stroke="rgb(0, 150, 0)" fill="none" stroke-width="1.22727830581px" stroke-linecap="round" stroke-linejoin="round"/></g><g class="trace" data-layer="base" data-circuit-json-type="schematic_trace" data-schematic-trace-id="schematic_trace_1" data-subcircuit-connectivity-map-key="unnamedsubcircuit34406_connectivity_net6"><path d="M 570.85214023705 158.17980990827496 L 570.85214023705 185.79357178899997" class="trace-invisible-hover-outline" stroke="rgb(0, 150, 0)" fill="none" stroke-width="9.81822644648px" stroke-linecap="round" opacity="0" stroke-linejoin="round"/><path d="M 570.85214023705 158.17980990827496 L 570.85214023705 185.79357178899997" stroke="rgb(0, 150, 0)" fill="none" stroke-width="1.22727830581px" stroke-linecap="round" stroke-linejoin="round"/></g><g class="trace" data-layer="base" data-circuit-json-type="schematic_trace" data-schematic-trace-id="schematic_trace_2" data-subcircuit-connectivity-map-key="unnamedsubcircuit34406_connectivity_net9"><path d="M 417.4423520108 90.67950308872497 L 417.4423520108 87.6113073242 L 417.4423520108 76.87262214836244 L 386.76039436555 76.87262214836244 L 386.76039436555 66.13393697252496 L 386.76039436555 63.06574120799996" class="trace-invisible-hover-outline" stroke="rgb(0, 150, 0)" fill="none" stroke-width="9.81822644648px" stroke-linecap="round" opacity="0" stroke-linejoin="round"/><path d="M 417.4423520108 90.67950308872497 L 417.4423520108 87.6113073242 L 417.4423520108 76.87262214836244 L 386.76039436555 76.87262214836244 L 386.76039436555 66.13393697252496 L 386.76039436555 63.06574120799996" stroke="rgb(0, 150, 0)" fill="none" stroke-width="1.22727830581px" stroke-linecap="round" stroke-linejoin="round"/></g><g class="trace" data-layer="base" data-circuit-json-type="schematic_trace" data-schematic-trace-id="schematic_trace_3" data-subcircuit-connectivity-map-key="unnamedsubcircuit34406_connectivity_net9"><path d="M 356.07843672030003 94.05451842970245 L 356.07843672030003 90.95564070753224 L 356.07843672030003 78.56012981885124 L 386.76039436555 78.56012981885124 L 386.76039436555 66.16461893017023 L 386.76039436555 63.06574120799996" class="trace-invisible-hover-outline" stroke="rgb(0, 150, 0)" fill="none" stroke-width="9.81822644648px" stroke-linecap="round" opacity="0" stroke-linejoin="round"/><path d="M 356.07843672030003 94.05451842970245 L 356.07843672030003 90.95564070753224 L 356.07843672030003 78.56012981885124 L 386.76039436555 78.56012981885124 L 386.76039436555 66.16461893017023 L 386.76039436555 63.06574120799996" stroke="rgb(0, 150, 0)" fill="none" stroke-width="1.22727830581px" stroke-linecap="round" stroke-linejoin="round"/></g><g class="trace" data-layer="base" data-circuit-json-type="schematic_trace" data-schematic-trace-id="schematic_trace_4" data-subcircuit-connectivity-map-key="unnamedsubcircuit34406_connectivity_net6"><path d="M 417.4423520108 158.17980990827496 L 417.4423520108 161.24800567279993 L 417.4423520108 171.9866908486375 L 386.76039436555 171.9866908486375 L 386.76039436555 182.725376024475 L 386.76039436555 185.79357178899997" class="trace-invisible-hover-outline" stroke="rgb(0, 150, 0)" fill="none" stroke-width="9.81822644648px" stroke-linecap="round" opacity="0" stroke-linejoin="round"/><path d="M 417.4423520108 158.17980990827496 L 417.4423520108 161.24800567279993 L 417.4423520108 171.9866908486375 L 386.76039436555 171.9866908486375 L 386.76039436555 182.725376024475 L 386.76039436555 185.79357178899997" stroke="rgb(0, 150, 0)" fill="none" stroke-width="1.22727830581px" stroke-linecap="round" stroke-linejoin="round"/></g><g class="trace" data-layer="base" data-circuit-json-type="schematic_trace" data-schematic-trace-id="schematic_trace_5" data-subcircuit-connectivity-map-key="unnamedsubcircuit34406_connectivity_net6"><path d="M 356.07843672030003 154.80479456729748 L 356.07843672030003 157.9036722894677 L 356.07843672030003 170.2991831781487 L 386.76039436555 170.2991831781487 L 386.76039436555 182.6946940668297 L 386.76039436555 185.79357178899997" class="trace-invisible-hover-outline" stroke="rgb(0, 150, 0)" fill="none" stroke-width="9.81822644648px" stroke-linecap="round" opacity="0" stroke-linejoin="round"/><path d="M 356.07843672030003 154.80479456729748 L 356.07843672030003 157.9036722894677 L 356.07843672030003 170.2991831781487 L 386.76039436555 170.2991831781487 L 386.76039436555 182.6946940668297 L 386.76039436555 185.79357178899997" stroke="rgb(0, 150, 0)" fill="none" stroke-width="1.22727830581px" stroke-linecap="round" stroke-linejoin="round"/></g><g class="trace" data-layer="base" data-circuit-json-type="schematic_trace" data-schematic-trace-id="schematic_trace_6" data-subcircuit-connectivity-map-key="unnamedsubcircuit34406_connectivity_net9"><path d="M 650.6252301147 277.83944472474997 L 638.3524470566 277.83944472474997 L 638.3524470566 265.56666166664996" class="trace-invisible-hover-outline" stroke="rgb(0, 150, 0)" fill="none" stroke-width="9.81822644648px" stroke-linecap="round" opacity="0" stroke-linejoin="round"/><path d="M 650.6252301147 277.83944472474997 L 638.3524470566 277.83944472474997 L 638.3524470566 265.56666166664996" stroke="rgb(0, 150, 0)" fill="none" stroke-width="1.22727830581px" stroke-linecap="round" stroke-linejoin="round"/></g><g class="trace" data-layer="base" data-circuit-json-type="schematic_trace" data-schematic-trace-id="schematic_trace_7" data-subcircuit-connectivity-map-key="unnamedsubcircuit34406_connectivity_net9"><path d="M 650.6252301147 290.11222778284997 L 638.3524470566 290.11222778284997 L 638.3524470566 265.56666166664996" class="trace-invisible-hover-outline" stroke="rgb(0, 150, 0)" fill="none" stroke-width="9.81822644648px" stroke-linecap="round" opacity="0" stroke-linejoin="round"/><path d="M 650.6252301147 290.11222778284997 L 638.3524470566 290.11222778284997 L 638.3524470566 265.56666166664996" stroke="rgb(0, 150, 0)" fill="none" stroke-width="1.22727830581px" stroke-linecap="round" stroke-linejoin="round"/></g><g class="trace" data-layer="base" data-circuit-json-type="schematic_trace" data-schematic-trace-id="schematic_trace_8" data-subcircuit-connectivity-map-key="unnamedsubcircuit34406_connectivity_net6"><path d="M 650.6252301147 376.02170918955 L 638.3524470566 376.02170918955 L 638.3524470566 412.84005836384995" class="trace-invisible-hover-outline" stroke="rgb(0, 150, 0)" fill="none" stroke-width="9.81822644648px" stroke-linecap="round" opacity="0" stroke-linejoin="round"/><path d="M 650.6252301147 376.02170918955 L 638.3524470566 376.02170918955 L 638.3524470566 412.84005836384995" stroke="rgb(0, 150, 0)" fill="none" stroke-width="1.22727830581px" stroke-linecap="round" stroke-linejoin="round"/></g><g class="trace" data-layer="base" data-circuit-json-type="schematic_trace" data-schematic-trace-id="schematic_trace_9" data-subcircuit-connectivity-map-key="unnamedsubcircuit34406_connectivity_net6"><path d="M 650.6252301147 388.29449224764994 L 638.3524470566 388.29449224764994 L 638.3524470566 412.84005836384995" class="trace-invisible-hover-outline" stroke="rgb(0, 150, 0)" fill="none" stroke-width="9.81822644648px" stroke-linecap="round" opacity="0" stroke-linejoin="round"/><path d="M 650.6252301147 388.29449224764994 L 638.3524470566 388.29449224764994 L 638.3524470566 412.84005836384995" stroke="rgb(0, 150, 0)" fill="none" stroke-width="1.22727830581px" stroke-linecap="round" stroke-linejoin="round"/></g><g class="trace" data-layer="base" data-circuit-json-type="schematic_trace" data-schematic-trace-id="schematic_trace_10" data-subcircuit-connectivity-map-key="unnamedsubcircuit34406_connectivity_net6"><path d="M 650.6252301147 400.56727530574994 L 638.3524470566 400.56727530574994 L 638.3524470566 412.84005836384995" class="trace-invisible-hover-outline" stroke="rgb(0, 150, 0)" fill="none" stroke-width="9.81822644648px" stroke-linecap="round" opacity="0" stroke-linejoin="round"/><path d="M 650.6252301147 400.56727530574994 L 638.3524470566 400.56727530574994 L 638.3524470566 412.84005836384995" stroke="rgb(0, 150, 0)" fill="none" stroke-width="1.22727830581px" stroke-linecap="round" stroke-linejoin="round"/></g><g class="trace" data-layer="base" data-circuit-json-type="schematic_trace" data-schematic-trace-id="schematic_trace_11" data-subcircuit-connectivity-map-key="unnamedsubcircuit34406_connectivity_net9"><path d="M 1077.104441383675 216.47552943424998 L 1031.0815049158 216.47552943424998 L 1031.0815049158 185.79357178899997" class="trace-invisible-hover-outline" stroke="rgb(0, 150, 0)" fill="none" stroke-width="9.81822644648px" stroke-linecap="round" opacity="0" stroke-linejoin="round"/><path d="M 1077.104441383675 216.47552943424998 L 1031.0815049158 216.47552943424998 L 1031.0815049158 185.79357178899997" stroke="rgb(0, 150, 0)" fill="none" stroke-width="1.22727830581px" stroke-linecap="round" stroke-linejoin="round"/></g><g class="trace" data-layer="base" data-circuit-json-type="schematic_trace" data-schematic-trace-id="schematic_trace_12" data-subcircuit-connectivity-map-key="unnamedsubcircuit34406_connectivity_net9"><path d="M 356.07843672030003 94.05451842970245 L 356.07843672030003 78.40672003062497 L 417.4423520108 78.40672003062497 L 417.4423520108 90.67950308872497" class="trace-invisible-hover-outline" stroke="rgb(0, 150, 0)" fill="none" stroke-width="9.81822644648px" stroke-linecap="round" opacity="0" stroke-linejoin="round"/><path d="M 356.07843672030003 94.05451842970245 L 356.07843672030003 78.40672003062497 L 417.4423520108 78.40672003062497 L 417.4423520108 90.67950308872497" stroke="rgb(0, 150, 0)" fill="none" stroke-width="1.22727830581px" stroke-linecap="round" stroke-linejoin="round"/></g><g class="trace" data-layer="base" data-circuit-json-type="schematic_trace" data-schematic-trace-id="schematic_trace_13" data-subcircuit-connectivity-map-key="unnamedsubcircuit34406_connectivity_net9"><path d="M 650.6252301147 290.11222778284997 L 638.3524470566 290.11222778284997 L 638.3524470566 277.83944472474997 L 650.6252301147 277.83944472474997" class="trace-invisible-hover-outline" stroke="rgb(0, 150, 0)" fill="none" stroke-width="9.81822644648px" stroke-linecap="round" opacity="0" stroke-linejoin="round"/><path d="M 650.6252301147 290.11222778284997 L 638.3524470566 290.11222778284997 L 638.3524470566 277.83944472474997 L 650.6252301147 277.83944472474997" stroke="rgb(0, 150, 0)" fill="none" stroke-width="1.22727830581px" stroke-linecap="round" stroke-linejoin="round"/></g><g class="trace" data-layer="base" data-circuit-json-type="schematic_trace" data-schematic-trace-id="schematic_trace_14" data-subcircuit-connectivity-map-key="unnamedsubcircuit34406_connectivity_net6"><path d="M 356.07843672030003 154.80479456729748 L 356.07843672030003 170.45259296637497 L 417.4423520108 170.45259296637497 L 417.4423520108 158.17980990827496" class="trace-invisible-hover-outline" stroke="rgb(0, 150, 0)" fill="none" stroke-width="9.81822644648px" stroke-linecap="round" opacity="0" stroke-linejoin="round"/><path d="M 356.07843672030003 154.80479456729748 L 356.07843672030003 170.45259296637497 L 417.4423520108 170.45259296637497 L 417.4423520108 158.17980990827496" stroke="rgb(0, 150, 0)" fill="none" stroke-width="1.22727830581px" stroke-linecap="round" stroke-linejoin="round"/></g><g class="trace" data-layer="base" data-circuit-json-type="schematic_trace" data-schematic-trace-id="schematic_trace_15" data-subcircuit-connectivity-map-key="unnamedsubcircuit34406_connectivity_net6"><path d="M 650.6252301147 388.29449224764994 L 638.3524470566 388.29449224764994 L 638.3524470566 376.02170918955 L 650.6252301147 376.02170918955" class="trace-invisible-hover-outline" stroke="rgb(0, 150, 0)" fill="none" stroke-width="9.81822644648px" stroke-linecap="round" opacity="0" stroke-linejoin="round"/><path d="M 650.6252301147 388.29449224764994 L 638.3524470566 388.29449224764994 L 638.3524470566 376.02170918955 L 650.6252301147 376.02170918955" stroke="rgb(0, 150, 0)" fill="none" stroke-width="1.22727830581px" stroke-linecap="round" stroke-linejoin="round"/></g><g class="trace" data-layer="base" data-circuit-json-type="schematic_trace" data-schematic-trace-id="schematic_trace_16" data-subcircuit-connectivity-map-key="unnamedsubcircuit34406_connectivity_net6"><path d="M 650.6252301147 400.56727530574994 L 638.3524470566 400.56727530574994 L 638.3524470566 388.29449224764994 L 650.6252301147 388.29449224764994" class="trace-invisible-hover-outline" stroke="rgb(0, 150, 0)" fill="none" stroke-width="9.81822644648px" stroke-linecap="round" opacity="0" stroke-linejoin="round"/><path d="M 650.6252301147 400.56727530574994 L 638.3524470566 400.56727530574994 L 638.3524470566 388.29449224764994 L 650.6252301147 388.29449224764994" stroke="rgb(0, 150, 0)" fill="none" stroke-width="1.22727830581px" stroke-linecap="round" stroke-linejoin="round"/></g><g class="trace-overlays" data-layer="overlay" data-circuit-json-type="schematic_trace" data-schematic-trace-id="schematic_trace_0" data-subcircuit-connectivity-map-key="unnamedsubcircuit34406_connectivity_net9"/><g class="trace-overlays" data-layer="overlay" data-circuit-json-type="schematic_trace" data-schematic-trace-id="schematic_trace_1" data-subcircuit-connectivity-map-key="unnamedsubcircuit34406_connectivity_net6"/><g class="trace-overlays" data-layer="overlay" data-circuit-json-type="schematic_trace" data-schematic-trace-id="schematic_trace_2" data-subcircuit-connectivity-map-key="unnamedsubcircuit34406_connectivity_net9"/><g class="trace-overlays" data-layer="overlay" data-circuit-json-type="schematic_trace" data-schematic-trace-id="schematic_trace_3" data-subcircuit-connectivity-map-key="unnamedsubcircuit34406_connectivity_net9"/><g class="trace-overlays" data-layer="overlay" data-circuit-json-type="schematic_trace" data-schematic-trace-id="schematic_trace_4" data-subcircuit-connectivity-map-key="unnamedsubcircuit34406_connectivity_net6"/><g class="trace-overlays" data-layer="overlay" data-circuit-json-type="schematic_trace" data-schematic-trace-id="schematic_trace_5" data-subcircuit-connectivity-map-key="unnamedsubcircuit34406_connectivity_net6"/><g class="trace-overlays" data-layer="overlay" data-circuit-json-type="schematic_trace" data-schematic-trace-id="schematic_trace_6" data-subcircuit-connectivity-map-key="unnamedsubcircuit34406_connectivity_net9"/><g class="trace-overlays" data-layer="overlay" data-circuit-json-type="schematic_trace" data-schematic-trace-id="schematic_trace_7" data-subcircuit-connectivity-map-key="unnamedsubcircuit34406_connectivity_net9"/><g class="trace-overlays" data-layer="overlay" data-circuit-json-type="schematic_trace" data-schematic-trace-id="schematic_trace_8" data-subcircuit-connectivity-map-key="unnamedsubcircuit34406_connectivity_net6"/><g class="trace-overlays" data-layer="overlay" data-circuit-json-type="schematic_trace" data-schematic-trace-id="schematic_trace_9" data-subcircuit-connectivity-map-key="unnamedsubcircuit34406_connectivity_net6"/><g class="trace-overlays" data-layer="overlay" data-circuit-json-type="schematic_trace" data-schematic-trace-id="schematic_trace_10" data-subcircuit-connectivity-map-key="unnamedsubcircuit34406_connectivity_net6"/><g class="trace-overlays" data-layer="overlay" data-circuit-json-type="schematic_trace" data-schematic-trace-id="schematic_trace_11" data-subcircuit-connectivity-map-key="unnamedsubcircuit34406_connectivity_net9"/><g class="trace-overlays" data-layer="overlay" data-circuit-json-type="schematic_trace" data-schematic-trace-id="schematic_trace_12" data-subcircuit-connectivity-map-key="unnamedsubcircuit34406_connectivity_net9"/><g class="trace-overlays" data-layer="overlay" data-circuit-json-type="schematic_trace" data-schematic-trace-id="schematic_trace_13" data-subcircuit-connectivity-map-key="unnamedsubcircuit34406_connectivity_net9"/><g class="trace-overlays" data-layer="overlay" data-circuit-json-type="schematic_trace" data-schematic-trace-id="schematic_trace_14" data-subcircuit-connectivity-map-key="unnamedsubcircuit34406_connectivity_net6"/><g class="trace-overlays" data-layer="overlay" data-circuit-json-type="schematic_trace" data-schematic-trace-id="schematic_trace_15" data-subcircuit-connectivity-map-key="unnamedsubcircuit34406_connectivity_net6"><circle cx="638.3524470566" cy="388.29449224764994" r="1.8409174587150001" class="trace-junction" fill="rgb(0, 150, 0)"/></g><g class="trace-overlays" data-layer="overlay" data-circuit-json-type="schematic_trace" data-schematic-trace-id="schematic_trace_16" data-subcircuit-connectivity-map-key="unnamedsubcircuit34406_connectivity_net6"><circle cx="638.3524470566" cy="388.29449224764994" r="1.8409174587150001" class="trace-junction" fill="rgb(0, 150, 0)"/></g><g data-circuit-json-type="schematic_component" data-schematic-component-id="schematic_component_0"><rect class="component chip" x="675.1707962309" y="265.56666166664996" width="98.18226446480003" height="147.27339669719998" stroke-width="1.22727830581px" fill="rgb(255, 255, 194)" stroke="rgb(132, 0, 0)"/><rect class="component-overlay" x="675.1707962309" y="265.56666166664996" width="98.18226446480003" height="147.27339669719998" fill="transparent"/><text x="675.1707962309" y="420.81736735161496" fill="#006464" text-anchor="start" dominant-baseline="middle" font-family="sans-serif" font-size="11.04550475229px" transform="rotate(0, 675.1707962309, 420.81736735161496)">ADXL345BCCZ_RL7</text><text x="675.1707962309" y="257.589352678885" fill="#006464" text-anchor="start" dominant-baseline="middle" font-family="sans-serif" font-size="11.04550475229px" transform="rotate(0, 675.1707962309, 257.589352678885)">U1</text><line class="component-pin" x1="675.1707962309" y1="277.83944472474997" x2="650.6252301147" y2="277.83944472474997" stroke-width="1.22727830581px"/><g data-schematic-port-id="source_port_0"><rect x="649.39795180889" y="276.61216641894" width="2.45455661162" height="2.45455661162" opacity="0"/></g><text class="pin-number" x="662.8980131728" y="276.61216641894" style="font-family: sans-serif;" fill="rgb(169, 0, 0)" text-anchor="middle" dominant-baseline="auto" font-size="9.204587293575px" transform="">1</text><text class="pin-number" x="681.30718775995" y="277.83944472474997" style="font-family: sans-serif;" fill="rgb(169, 0, 0)" text-anchor="start" dominant-baseline="middle" font-size="9.204587293575px" transform="">VDD</text><line class="component-pin" x1="675.1707962309" y1="376.02170918955" x2="650.6252301147" y2="376.02170918955" stroke-width="1.22727830581px"/><g data-schematic-port-id="source_port_1"><rect x="649.39795180889" y="374.79443088374" width="2.45455661162" height="2.45455661162" opacity="0"/></g><text class="pin-number" x="662.8980131728" y="374.79443088374" style="font-family: sans-serif;" fill="rgb(169, 0, 0)" text-anchor="middle" dominant-baseline="auto" font-size="9.204587293575px" transform="">2</text><text class="pin-number" x="681.30718775995" y="376.02170918955" style="font-family: sans-serif;" fill="rgb(169, 0, 0)" text-anchor="start" dominant-baseline="middle" font-size="9.204587293575px" transform="">GND1</text><line class="component-pin" x1="675.1707962309" y1="320.7941854281" x2="651.85250842051" y2="320.7941854281" stroke-width="1.22727830581px"/><g data-schematic-port-id="source_port_2"><circle class="component-pin" cx="650.6252301147" cy="320.7941854281" r="1.22727830581" stroke-width="1.22727830581px"/><rect x="649.39795180889" y="319.56690712229" width="2.45455661162" height="2.45455661162" opacity="0"/></g><text class="pin-number" x="662.8980131728" y="319.56690712229" style="font-family: sans-serif;" fill="rgb(169, 0, 0)" text-anchor="middle" dominant-baseline="auto" font-size="9.204587293575px" transform="">3</text><text class="pin-number" x="681.30718775995" y="320.7941854281" style="font-family: sans-serif;" fill="rgb(169, 0, 0)" text-anchor="start" dominant-baseline="middle" font-size="9.204587293575px" transform="">NC</text><line class="component-pin" x1="675.1707962309" y1="388.29449224764994" x2="650.6252301147" y2="388.29449224764994" stroke-width="1.22727830581px"/><g data-schematic-port-id="source_port_3"><rect x="649.39795180889" y="387.06721394183995" width="2.45455661162" height="2.45455661162" opacity="0"/></g><text class="pin-number" x="662.8980131728" y="387.06721394183995" style="font-family: sans-serif;" fill="rgb(169, 0, 0)" text-anchor="middle" dominant-baseline="auto" font-size="9.204587293575px" transform="">4</text><text class="pin-number" x="681.30718775995" y="388.29449224764994" style="font-family: sans-serif;" fill="rgb(169, 0, 0)" text-anchor="start" dominant-baseline="middle" font-size="9.204587293575px" transform="">GND2</text><line class="component-pin" x1="675.1707962309" y1="400.56727530574994" x2="650.6252301147" y2="400.56727530574994" stroke-width="1.22727830581px"/><g data-schematic-port-id="source_port_4"><rect x="649.39795180889" y="399.33999699993996" width="2.45455661162" height="2.45455661162" opacity="0"/></g><text class="pin-number" x="662.8980131728" y="399.33999699994" style="font-family: sans-serif;" fill="rgb(169, 0, 0)" text-anchor="middle" dominant-baseline="auto" font-size="9.204587293575px" transform="">5</text><text class="pin-number" x="681.30718775995" y="400.56727530574994" style="font-family: sans-serif;" fill="rgb(169, 0, 0)" text-anchor="start" dominant-baseline="middle" font-size="9.204587293575px" transform="">GND3</text><line class="component-pin" x1="675.1707962309" y1="290.11222778284997" x2="650.6252301147" y2="290.11222778284997" stroke-width="1.22727830581px"/><g data-schematic-port-id="source_port_5"><rect x="649.39795180889" y="288.88494947704" width="2.45455661162" height="2.45455661162" opacity="0"/></g><text class="pin-number" x="662.8980131728" y="288.88494947704" style="font-family: sans-serif;" fill="rgb(169, 0, 0)" text-anchor="middle" dominant-baseline="auto" font-size="9.204587293575px" transform="">6</text><text class="pin-number" x="681.30718775995" y="290.11222778284997" style="font-family: sans-serif;" fill="rgb(169, 0, 0)" text-anchor="start" dominant-baseline="middle" font-size="9.204587293575px" transform="">VSS</text><line class="component-pin" x1="773.3530606957" y1="277.83944472474997" x2="797.8986268119" y2="277.83944472474997" stroke-width="1.22727830581px"/><g data-schematic-port-id="source_port_6"><rect x="796.67134850609" y="276.61216641894" width="2.45455661162" height="2.45455661162" opacity="0"/></g><text class="pin-number" x="785.6258437538" y="276.61216641894" style="font-family: sans-serif;" fill="rgb(169, 0, 0)" text-anchor="middle" dominant-baseline="auto" font-size="9.204587293575px" transform="">7</text><text class="pin-number" x="767.21666916665" y="277.83944472474997" style="font-family: sans-serif;" fill="rgb(169, 0, 0)" text-anchor="end" dominant-baseline="middle" font-size="9.204587293575px" transform="">CS</text><line class="component-pin" x1="773.3530606957" y1="363.74892613145" x2="797.8986268119" y2="363.74892613145" stroke-width="1.22727830581px"/><g data-schematic-port-id="source_port_7"><rect x="796.67134850609" y="362.52164782564" width="2.45455661162" height="2.45455661162" opacity="0"/></g><text class="pin-number" x="785.6258437538" y="362.52164782564" style="font-family: sans-serif;" fill="rgb(169, 0, 0)" text-anchor="middle" dominant-baseline="auto" font-size="9.204587293575px" transform="">8</text><text class="pin-number" x="767.21666916665" y="363.74892613145" style="font-family: sans-serif;" fill="rgb(169, 0, 0)" text-anchor="end" dominant-baseline="middle" font-size="9.204587293575px" transform="">INT1</text><line class="component-pin" x1="773.3530606957" y1="376.02170918954994" x2="797.8986268119" y2="376.02170918954994" stroke-width="1.22727830581px"/><g data-schematic-port-id="source_port_8"><rect x="796.67134850609" y="374.79443088373995" width="2.45455661162" height="2.45455661162" opacity="0"/></g><text class="pin-number" x="785.6258437538" y="374.79443088373995" style="font-family: sans-serif;" fill="rgb(169, 0, 0)" text-anchor="middle" dominant-baseline="auto" font-size="9.204587293575px" transform="">9</text><text class="pin-number" x="767.21666916665" y="376.02170918954994" style="font-family: sans-serif;" fill="rgb(169, 0, 0)" text-anchor="end" dominant-baseline="middle" font-size="9.204587293575px" transform="">INT2</text><line class="component-pin" x1="675.1707962309" y1="333.0669684862" x2="651.85250842051" y2="333.0669684862" stroke-width="1.22727830581px"/><g data-schematic-port-id="source_port_9"><circle class="component-pin" cx="650.6252301147" cy="333.0669684862" r="1.22727830581" stroke-width="1.22727830581px"/><rect x="649.39795180889" y="331.83969018039" width="2.45455661162" height="2.45455661162" opacity="0"/></g><text class="pin-number" x="662.8980131728" y="331.83969018039" style="font-family: sans-serif;" fill="rgb(169, 0, 0)" text-anchor="middle" dominant-baseline="auto" font-size="9.204587293575px" transform="">10</text><text class="pin-number" x="681.30718775995" y="333.0669684862" style="font-family: sans-serif;" fill="rgb(169, 0, 0)" text-anchor="start" dominant-baseline="middle" font-size="9.204587293575px" transform="">NC</text><line class="component-pin" x1="675.1707962309" y1="345.3397515443" x2="651.85250842051" y2="345.3397515443" stroke-width="1.22727830581px"/><g data-schematic-port-id="source_port_10"><circle class="component-pin" cx="650.6252301147" cy="345.3397515443" r="1.22727830581" stroke-width="1.22727830581px"/><rect x="649.39795180889" y="344.11247323849" width="2.45455661162" height="2.45455661162" opacity="0"/></g><text class="pin-number" x="662.8980131728" y="344.11247323849" style="font-family: sans-serif;" fill="rgb(169, 0, 0)" text-anchor="middle" dominant-baseline="auto" font-size="9.204587293575px" transform="">11</text><text class="pin-number" x="681.30718775995" y="345.3397515443" style="font-family: sans-serif;" fill="rgb(169, 0, 0)" text-anchor="start" dominant-baseline="middle" font-size="9.204587293575px" transform="">NC</text><line class="component-pin" x1="773.3530606957" y1="308.52140237" x2="797.8986268119" y2="308.52140237" stroke-width="1.22727830581px"/><g data-schematic-port-id="source_port_11"><rect x="796.67134850609" y="307.29412406419" width="2.45455661162" height="2.45455661162" opacity="0"/></g><text class="pin-number" x="785.6258437538" y="307.29412406419" style="font-family: sans-serif;" fill="rgb(169, 0, 0)" text-anchor="middle" dominant-baseline="auto" font-size="9.204587293575px" transform="">12</text><text class="pin-number" x="767.21666916665" y="308.52140237" style="font-family: sans-serif;" fill="rgb(169, 0, 0)" text-anchor="end" dominant-baseline="middle" font-size="9.204587293575px" transform="">SDO</text><line class="component-pin" x1="773.3530606957" y1="320.7941854281" x2="797.8986268119" y2="320.7941854281" stroke-width="1.22727830581px"/><g data-schematic-port-id="source_port_12"><rect x="796.67134850609" y="319.56690712229" width="2.45455661162" height="2.45455661162" opacity="0"/></g><text class="pin-number" x="785.6258437538" y="319.56690712229" style="font-family: sans-serif;" fill="rgb(169, 0, 0)" text-anchor="middle" dominant-baseline="auto" font-size="9.204587293575px" transform="">13</text><text class="pin-number" x="767.21666916665" y="320.7941854281" style="font-family: sans-serif;" fill="rgb(169, 0, 0)" text-anchor="end" dominant-baseline="middle" font-size="9.204587293575px" transform="">SDA</text><line class="component-pin" x1="773.3530606957" y1="333.0669684862" x2="797.8986268119" y2="333.0669684862" stroke-width="1.22727830581px"/><g data-schematic-port-id="source_port_13"><rect x="796.67134850609" y="331.83969018039" width="2.45455661162" height="2.45455661162" opacity="0"/></g><text class="pin-number" x="785.6258437538" y="331.83969018039" style="font-family: sans-serif;" fill="rgb(169, 0, 0)" text-anchor="middle" dominant-baseline="auto" font-size="9.204587293575px" transform="">14</text><text class="pin-number" x="767.21666916665" y="333.0669684862" style="font-family: sans-serif;" fill="rgb(169, 0, 0)" text-anchor="end" dominant-baseline="middle" font-size="9.204587293575px" transform="">SCL</text></g><g data-circuit-json-type="schematic_component" data-schematic-component-id="schematic_component_1"><rect class="component-overlay" x="400.874094882365" y="90.679503088725" width="32.522875103964964" height="67.50030681954999" fill="transparent"/><path d="M 417.4423520108 158.179809908275 L 417.4423520108 128.725130568835" stroke="rgb(132, 0, 0)" fill="none" stroke-width="1.22727830581px" stroke-linecap="round"/><path d="M 417.4423520108 118.906904122355 L 417.4423520108 90.679503088725" stroke="rgb(132, 0, 0)" fill="none" stroke-width="1.22727830581px" stroke-linecap="round"/><path d="M 433.39696998632996 128.725130568835 L 400.874094882365 128.725130568835" stroke="rgb(132, 0, 0)" fill="none" stroke-width="1.22727830581px" stroke-linecap="round"/><path d="M 433.39696998632996 118.906904122355 L 400.874094882365 118.906904122355" stroke="rgb(132, 0, 0)" fill="none" stroke-width="1.22727830581px" stroke-linecap="round"/><text x="423.2719239633975" y="112.2668734404" stroke="rgb(245, 241, 237)" stroke-width="1.22727830581px" paint-order="stroke" fill="rgb(15, 15, 15)" font-family="sans-serif" text-anchor="start" dominant-baseline="auto" font-size="11.04550475229px">C1</text><text x="423.2719239633975" y="136.59243955659997" fill="rgb(15, 15, 15)" font-family="sans-serif" text-anchor="start" dominant-baseline="hanging" font-size="11.04550475229px">0.1uF</text></g><g data-circuit-json-type="schematic_component" data-schematic-component-id="schematic_component_2"><rect class="component-overlay" x="337.66926213314997" y="94.05451842970245" width="34.977431715585" height="60.75027613759502" fill="transparent"/><path d="M 356.0784367203 94.05451842970245 L 356.0784367203 121.66828031042746" stroke="rgb(132, 0, 0)" fill="none" stroke-width="1.22727830581px" stroke-linecap="round"/><path d="M 356.0784367203 127.19103268657247 L 356.0784367203 154.80479456729748" stroke="rgb(132, 0, 0)" fill="none" stroke-width="1.22727830581px" stroke-linecap="round"/><path d="M 340.12381874477 121.66828031042746 L 372.64669384873497 121.66828031042746" stroke="rgb(132, 0, 0)" fill="none" stroke-width="1.22727830581px" stroke-linecap="round"/><path d="M 372.03305469583 130.25922845109747 L 372.03305469583 130.25922845109747 L 372.03305469583 130.25922845109747 L 372.03305469583 130.25922845109747 L 372.03305469583 130.25922845109747 L 372.03305469583 130.25922845109747 L 372.03305469583 130.25922845109747 L 372.03305469583 130.25922845109747 L 372.03305469583 130.25922845109747 L 371.419415542925 130.25922845109747 L 371.419415542925 130.25922845109747 L 371.419415542925 130.25922845109747 L 371.419415542925 130.25922845109747 L 371.419415542925 129.64558929819248 L 371.419415542925 129.64558929819248 L 371.419415542925 129.64558929819248 L 371.419415542925 129.64558929819248 L 370.80577639002 129.64558929819248 L 370.80577639002 129.64558929819248 L 370.80577639002 129.64558929819248 L 370.80577639002 129.64558929819248 L 370.80577639002 129.64558929819248 L 370.80577639002 129.64558929819248 L 370.80577639002 129.64558929819248 L 370.80577639002 129.64558929819248 L 370.192137237115 129.64558929819248 L 370.192137237115 129.64558929819248 L 370.192137237115 129.64558929819248 L 370.192137237115 129.03195014528748 L 370.192137237115 129.03195014528748 L 370.192137237115 129.03195014528748 L 370.192137237115 129.03195014528748 L 370.192137237115 129.03195014528748 L 369.57849808420997 129.03195014528748 L 369.57849808420997 129.03195014528748 L 369.57849808420997 129.03195014528748 L 369.57849808420997 129.03195014528748 L 369.57849808420997 129.03195014528748 L 369.57849808420997 129.03195014528748 L 369.57849808420997 129.03195014528748 L 369.57849808420997 129.03195014528748 L 368.964858931305 129.03195014528748 L 368.964858931305 129.03195014528748 L 368.964858931305 129.03195014528748 L 368.964858931305 129.03195014528748 L 368.964858931305 128.41831099238246 L 368.964858931305 128.41831099238246 L 368.964858931305 128.41831099238246 L 368.3512197784 128.41831099238246 L 368.3512197784 128.41831099238246 L 368.3512197784 128.41831099238246 L 368.3512197784 128.41831099238246 L 368.3512197784 128.41831099238246 L 368.3512197784 128.41831099238246 L 368.3512197784 128.41831099238246 L 368.3512197784 128.41831099238246 L 367.737580625495 128.41831099238246 L 367.737580625495 128.41831099238246 L 367.737580625495 128.41831099238246 L 367.737580625495 128.41831099238246 L 367.737580625495 128.41831099238246 L 367.737580625495 128.41831099238246 L 367.737580625495 128.41831099238246 L 367.737580625495 128.41831099238246 L 367.12394147259 127.80467183947746 L 367.12394147259 127.80467183947746 L 367.12394147259 127.80467183947746 L 367.12394147259 127.80467183947746 L 367.12394147259 127.80467183947746 L 367.12394147259 127.80467183947746 L 367.12394147259 127.80467183947746 L 367.12394147259 127.80467183947746 L 366.51030231968497 127.80467183947746 L 366.51030231968497 127.80467183947746 L 366.51030231968497 127.80467183947746 L 366.51030231968497 127.80467183947746 L 366.51030231968497 127.80467183947746 L 366.51030231968497 127.80467183947746 L 366.51030231968497 127.80467183947746 L 365.89666316678 127.80467183947746 L 365.89666316678 127.80467183947746 L 365.89666316678 127.80467183947746 L 365.89666316678 127.80467183947746 L 365.89666316678 127.80467183947746 L 365.89666316678 127.80467183947746 L 365.89666316678 127.80467183947746 L 365.89666316678 127.19103268657247 L 365.283024013875 127.19103268657247 L 365.283024013875 127.19103268657247 L 365.283024013875 127.19103268657247 L 365.283024013875 127.19103268657247 L 365.283024013875 127.19103268657247 L 365.283024013875 127.19103268657247 L 365.283024013875 127.19103268657247 L 365.283024013875 127.19103268657247 L 364.66938486097 127.19103268657247 L 364.66938486097 127.19103268657247 L 364.66938486097 127.19103268657247 L 364.66938486097 127.19103268657247 L 364.66938486097 127.19103268657247 L 364.66938486097 127.19103268657247 L 364.66938486097 127.19103268657247 L 364.66938486097 127.19103268657247 L 364.055745708065 127.19103268657247 L 364.055745708065 127.19103268657247 L 364.055745708065 127.19103268657247 L 364.055745708065 127.19103268657247 L 364.055745708065 127.19103268657247 L 364.055745708065 127.19103268657247 L 363.44210655515997 127.19103268657247 L 363.44210655515997 127.19103268657247 L 363.44210655515997 127.19103268657247 L 363.44210655515997 127.19103268657247 L 363.44210655515997 127.19103268657247 L 363.44210655515997 127.19103268657247 L 362.828467402255 126.57739353366748 L 362.828467402255 126.57739353366748 L 362.828467402255 126.57739353366748 L 362.828467402255 126.57739353366748 L 362.828467402255 126.57739353366748 L 362.828467402255 126.57739353366748 L 362.21482824935 126.57739353366748 L 362.21482824935 126.57739353366748 L 362.21482824935 126.57739353366748 L 362.21482824935 126.57739353366748 L 362.21482824935 126.57739353366748 L 362.21482824935 126.57739353366748 L 361.601189096445 126.57739353366748 L 361.601189096445 126.57739353366748 L 361.601189096445 126.57739353366748 L 361.601189096445 126.57739353366748 L 361.601189096445 126.57739353366748 L 361.601189096445 126.57739353366748 L 360.98754994354 126.57739353366748 L 360.98754994354 126.57739353366748 L 360.98754994354 126.57739353366748 L 360.98754994354 126.57739353366748 L 360.98754994354 126.57739353366748 L 360.37391079063497 126.57739353366748 L 360.37391079063497 126.57739353366748 L 360.37391079063497 126.57739353366748 L 360.37391079063497 126.57739353366748 L 360.37391079063497 126.57739353366748 L 360.37391079063497 126.57739353366748 L 359.76027163773 126.57739353366748 L 359.76027163773 126.57739353366748 L 359.76027163773 126.57739353366748 L 359.76027163773 126.57739353366748 L 359.76027163773 126.57739353366748 L 359.76027163773 126.57739353366748 L 359.146632484825 126.57739353366748 L 359.146632484825 126.57739353366748 L 359.146632484825 126.57739353366748 L 359.146632484825 126.57739353366748 L 359.146632484825 126.57739353366748 L 359.146632484825 126.57739353366748 L 358.53299333192 126.57739353366748 L 358.53299333192 126.57739353366748 L 358.53299333192 126.57739353366748 L 358.53299333192 126.57739353366748 L 358.53299333192 126.57739353366748 L 358.53299333192 126.57739353366748 L 357.919354179015 126.57739353366748 L 357.919354179015 126.57739353366748 L 357.919354179015 126.57739353366748 L 357.919354179015 126.57739353366748 L 357.919354179015 126.57739353366748 L 357.30571502610997 126.57739353366748 L 357.30571502610997 126.57739353366748 L 357.30571502610997 126.57739353366748 L 357.30571502610997 126.57739353366748 L 357.30571502610997 126.57739353366748 L 357.30571502610997 126.57739353366748 L 356.692075873205 126.57739353366748 L 356.692075873205 125.96375438076247 L 356.692075873205 125.96375438076247 L 356.692075873205 125.96375438076247 L 356.692075873205 125.96375438076247 L 356.692075873205 125.96375438076247 L 356.0784367203 126.57739353366748 L 356.0784367203 126.57739353366748 L 356.0784367203 126.57739353366748 L 356.0784367203 126.57739353366748 L 356.0784367203 126.57739353366748 L 356.0784367203 126.57739353366748 L 355.464797567395 126.57739353366748 L 355.464797567395 126.57739353366748 L 355.464797567395 126.57739353366748 L 355.464797567395 126.57739353366748 L 355.464797567395 126.57739353366748 L 355.464797567395 126.57739353366748 L 354.85115841449 126.57739353366748 L 354.85115841449 126.57739353366748 L 354.85115841449 126.57739353366748 L 354.85115841449 126.57739353366748 L 354.85115841449 126.57739353366748 L 354.23751926158496 126.57739353366748 L 354.23751926158496 126.57739353366748 L 354.23751926158496 126.57739353366748 L 354.23751926158496 126.57739353366748 L 354.23751926158496 126.57739353366748 L 354.23751926158496 126.57739353366748 L 353.62388010868 126.57739353366748 L 353.62388010868 126.57739353366748 L 353.62388010868 126.57739353366748 L 353.62388010868 126.57739353366748 L 353.62388010868 126.57739353366748 L 353.62388010868 126.57739353366748 L 353.62388010868 126.57739353366748 L 353.62388010868 126.57739353366748 L 353.010240955775 126.57739353366748 L 353.010240955775 126.57739353366748 L 353.010240955775 126.57739353366748 L 353.010240955775 126.57739353366748 L 353.010240955775 126.57739353366748 L 353.010240955775 126.57739353366748 L 353.010240955775 126.57739353366748 L 352.39660180287 126.57739353366748 L 352.39660180287 126.57739353366748 L 352.39660180287 126.57739353366748 L 352.39660180287 126.57739353366748 L 352.39660180287 126.57739353366748 L 352.39660180287 126.57739353366748 L 351.782962649965 126.57739353366748 L 351.782962649965 126.57739353366748 L 351.782962649965 126.57739353366748 L 351.782962649965 126.57739353366748 L 351.782962649965 126.57739353366748 L 351.782962649965 126.57739353366748 L 351.782962649965 126.57739353366748 L 351.16932349705996 126.57739353366748 L 351.16932349705996 126.57739353366748 L 351.16932349705996 126.57739353366748 L 351.16932349705996 126.57739353366748 L 351.16932349705996 126.57739353366748 L 351.16932349705996 126.57739353366748 L 351.16932349705996 126.57739353366748 L 350.555684344155 126.57739353366748 L 350.555684344155 126.57739353366748 L 350.555684344155 126.57739353366748 L 350.555684344155 126.57739353366748 L 350.555684344155 126.57739353366748 L 350.555684344155 126.57739353366748 L 350.555684344155 126.57739353366748 L 349.94204519125 126.57739353366746 L 349.94204519125 126.57739353366746 L 349.94204519125 126.57739353366746 L 349.94204519125 126.57739353366746 L 349.94204519125 127.19103268657247 L 349.94204519125 127.19103268657247 L 349.94204519125 127.19103268657247 L 349.328406038345 127.19103268657247 L 349.328406038345 127.19103268657247 L 349.328406038345 127.19103268657247 L 349.328406038345 127.19103268657247 L 349.328406038345 127.19103268657247 L 349.328406038345 127.19103268657247 L 348.71476688544 127.19103268657247 L 348.71476688544 127.19103268657247 L 348.71476688544 127.19103268657247 L 348.71476688544 127.19103268657247 L 348.71476688544 127.19103268657247 L 348.71476688544 127.19103268657247 L 348.71476688544 127.19103268657247 L 348.101127732535 127.19103268657247 L 348.101127732535 127.19103268657247 L 348.101127732535 127.19103268657247 L 348.101127732535 127.19103268657247 L 348.101127732535 127.19103268657247 L 348.101127732535 127.19103268657247 L 348.101127732535 127.19103268657247 L 347.48748857963 127.19103268657247 L 347.48748857963 127.19103268657247 L 347.48748857963 127.19103268657247 L 347.48748857963 127.19103268657247 L 347.48748857963 127.19103268657247 L 347.48748857963 127.19103268657247 L 347.48748857963 127.19103268657247 L 346.873849426725 127.19103268657247 L 346.873849426725 127.19103268657247 L 346.873849426725 127.80467183947746 L 346.873849426725 127.80467183947746 L 346.873849426725 127.80467183947746 L 346.873849426725 127.80467183947746 L 346.873849426725 127.80467183947746 L 346.26021027382 127.80467183947746 L 346.26021027382 127.80467183947746 L 346.26021027382 127.80467183947746 L 346.26021027382 127.80467183947746 L 346.26021027382 127.80467183947746 L 346.26021027382 127.80467183947746 L 346.26021027382 127.80467183947746 L 345.646571120915 127.80467183947746 L 345.646571120915 127.80467183947746 L 345.646571120915 127.80467183947746 L 345.646571120915 127.80467183947746 L 345.646571120915 127.80467183947746 L 345.646571120915 127.80467183947746 L 345.646571120915 127.80467183947746 L 345.03293196800996 127.80467183947746 L 345.03293196800996 127.80467183947746 L 345.03293196800996 127.80467183947746 L 345.03293196800996 127.80467183947746 L 345.03293196800996 127.80467183947746 L 345.03293196800996 127.80467183947746 L 345.03293196800996 128.41831099238246 L 345.03293196800996 128.41831099238246 L 345.03293196800996 128.41831099238246 L 344.419292815105 128.41831099238246 L 344.419292815105 128.41831099238246 L 344.419292815105 128.41831099238246 L 344.419292815105 128.41831099238246 L 344.419292815105 128.41831099238246 L 344.419292815105 128.41831099238246 L 344.419292815105 128.41831099238246 L 344.419292815105 128.41831099238246 L 344.419292815105 128.41831099238246 L 344.419292815105 128.41831099238246 L 344.419292815105 128.41831099238246 L 344.419292815105 128.41831099238246 L 344.419292815105 128.41831099238246 L 343.8056536622 128.41831099238246 L 343.8056536622 128.41831099238246 L 343.8056536622 128.41831099238246 L 343.8056536622 128.41831099238246 L 343.8056536622 128.41831099238246 L 343.8056536622 128.41831099238246 L 343.8056536622 128.41831099238246 L 343.8056536622 128.41831099238246 L 343.8056536622 128.41831099238246 L 343.8056536622 128.41831099238246 L 343.8056536622 128.41831099238246 L 343.8056536622 128.41831099238246 L 343.192014509295 128.41831099238246 L 343.192014509295 128.41831099238246 L 343.192014509295 128.41831099238246 L 343.192014509295 128.41831099238246 L 343.192014509295 129.03195014528748 L 343.192014509295 129.03195014528748 L 343.192014509295 129.03195014528748 L 343.192014509295 129.03195014528748 L 343.192014509295 129.03195014528748 L 343.192014509295 129.03195014528748 L 343.192014509295 129.03195014528748 L 343.192014509295 129.03195014528748 L 342.57837535639 129.03195014528748 L 342.57837535639 129.03195014528748 L 342.57837535639 129.03195014528748 L 342.57837535639 129.03195014528748 L 342.57837535639 129.03195014528748 L 342.57837535639 129.03195014528748 L 342.57837535639 129.03195014528748 L 342.57837535639 129.03195014528748 L 342.57837535639 129.03195014528748 L 342.57837535639 129.03195014528748 L 342.57837535639 129.03195014528748 L 342.57837535639 129.03195014528748 L 341.964736203485 129.03195014528748 L 341.964736203485 129.03195014528748 L 341.964736203485 129.03195014528748 L 341.964736203485 129.03195014528748 L 341.964736203485 129.03195014528748 L 341.964736203485 129.03195014528748 L 341.964736203485 129.64558929819248 L 341.964736203485 129.64558929819248 L 341.964736203485 129.64558929819248 L 341.964736203485 129.64558929819248 L 341.964736203485 129.64558929819248 L 341.964736203485 129.64558929819248 L 341.964736203485 129.64558929819248 L 341.35109705058 129.64558929819248 L 341.35109705058 129.64558929819248 L 341.35109705058 129.64558929819248 L 341.35109705058 129.64558929819248 L 341.35109705058 129.64558929819248 L 341.35109705058 129.64558929819248 L 341.35109705058 129.64558929819248 L 341.35109705058 129.64558929819248 L 341.35109705058 129.64558929819248 L 341.35109705058 129.64558929819248 L 341.35109705058 129.64558929819248 L 341.35109705058 129.64558929819248 L 341.35109705058 129.64558929819248 L 340.737457897675 129.64558929819248 L 340.737457897675 129.64558929819248 L 340.737457897675 129.64558929819248 L 340.737457897675 129.64558929819248 L 340.737457897675 130.25922845109747 L 340.737457897675 130.25922845109747 L 340.737457897675 130.25922845109747 L 340.737457897675 130.25922845109747 L 340.737457897675 130.25922845109747 L 340.737457897675 130.25922845109747 L 340.737457897675 130.25922845109747 L 340.737457897675 130.25922845109747 L 340.737457897675 130.25922845109747 L 340.12381874477 130.25922845109747 L 340.12381874477 130.25922845109747 L 340.12381874477 130.25922845109747 L 340.12381874477 130.25922845109747 L 340.12381874477 130.25922845109747 L 340.12381874477 130.25922845109747 L 340.12381874477 130.25922845109747 L 340.12381874477 130.25922845109747 L 340.12381874477 130.25922845109747" stroke="rgb(132, 0, 0)" fill="none" stroke-width="1.22727830581px" stroke-linecap="round"/><path d="M 341.964736203485 105.71366233489746 L 341.964736203485 114.30461047556747 L 341.964736203485 114.30461047556747 L 341.964736203485 105.71366233489746" stroke="rgb(132, 0, 0)" fill="none" stroke-width="1.22727830581px" stroke-linecap="round"/><path d="M 337.66926213314997 109.39549725232746 L 346.26021027382 109.39549725232746 L 346.26021027382 110.00913640523247 L 337.66926213314997 110.00913640523245" stroke="rgb(132, 0, 0)" fill="none" stroke-width="1.22727830581px" stroke-linecap="round"/><text x="370.158715380652" y="115.63088878137746" stroke="rgb(245, 241, 237)" stroke-width="1.22727830581px" paint-order="stroke" fill="rgb(15, 15, 15)" font-family="sans-serif" text-anchor="start" dominant-baseline="auto" font-size="11.04550475229px">C2</text><text x="370.158715380652" y="133.84206336852748" fill="rgb(15, 15, 15)" font-family="sans-serif" text-anchor="start" dominant-baseline="hanging" font-size="11.04550475229px">0.1uF</text></g><g data-circuit-json-type="schematic_component" data-schematic-component-id="schematic_component_3"><rect class="component-overlay" x="554.283883108615" y="90.679503088725" width="32.52287510396502" height="67.50030681954999" fill="transparent"/><path d="M 570.85214023705 158.179809908275 L 570.85214023705 128.725130568835" stroke="rgb(132, 0, 0)" fill="none" stroke-width="1.22727830581px" stroke-linecap="round"/><path d="M 570.85214023705 118.906904122355 L 570.85214023705 90.679503088725" stroke="rgb(132, 0, 0)" fill="none" stroke-width="1.22727830581px" stroke-linecap="round"/><path d="M 586.80675821258 128.725130568835 L 554.283883108615 128.725130568835" stroke="rgb(132, 0, 0)" fill="none" stroke-width="1.22727830581px" stroke-linecap="round"/><path d="M 586.80675821258 118.906904122355 L 554.283883108615 118.906904122355" stroke="rgb(132, 0, 0)" fill="none" stroke-width="1.22727830581px" stroke-linecap="round"/><text x="576.6817121896474" y="112.2668734404" stroke="rgb(245, 241, 237)" stroke-width="1.22727830581px" paint-order="stroke" fill="rgb(15, 15, 15)" font-family="sans-serif" text-anchor="start" dominant-baseline="auto" font-size="11.04550475229px">C3</text><text x="576.6817121896474" y="136.59243955659997" fill="rgb(15, 15, 15)" font-family="sans-serif" text-anchor="start" dominant-baseline="hanging" font-size="11.04550475229px">0.1uF</text></g><g data-circuit-json-type="schematic_component" data-schematic-component-id="schematic_component_4"><rect class="component chip" x="1101.650007499875" y="191.92996331804997" width="42.9547407033499" height="110.4550475229" stroke-width="1.22727830581px" fill="rgb(255, 255, 194)" stroke="rgb(132, 0, 0)"/><rect class="component-overlay" x="1101.650007499875" y="191.92996331804997" width="42.9547407033499" height="110.4550475229" fill="transparent"/><text x="1101.650007499875" y="310.362319828715" fill="#006464" text-anchor="start" dominant-baseline="middle" font-family="sans-serif" font-size="11.04550475229px" transform="rotate(0, 1101.650007499875, 310.362319828715)"></text><text x="1101.650007499875" y="183.952654330285" fill="#006464" text-anchor="start" dominant-baseline="middle" font-family="sans-serif" font-size="11.04550475229px" transform="rotate(0, 1101.650007499875, 183.952654330285)">JP1</text><line class="component-pin" x1="1101.650007499875" y1="204.20274637614997" x2="1077.104441383675" y2="204.20274637614997" stroke-width="1.22727830581px"/><g data-schematic-port-id="source_port_20"><rect x="1075.8771630778651" y="202.97546807033999" width="2.45455661162" height="2.45455661162" opacity="0"/></g><text class="pin-number" x="1089.377224441775" y="202.97546807033996" style="font-family: sans-serif;" fill="rgb(169, 0, 0)" text-anchor="middle" dominant-baseline="auto" font-size="9.204587293575px" transform="">1</text><text class="pin-number" x="1107.786399028925" y="204.20274637614997" style="font-family: sans-serif;" fill="rgb(169, 0, 0)" text-anchor="start" dominant-baseline="middle" font-size="9.204587293575px" transform="">GND</text><line class="component-pin" x1="1101.650007499875" y1="216.47552943424998" x2="1077.104441383675" y2="216.47552943424998" stroke-width="1.22727830581px"/><g data-schematic-port-id="source_port_21"><rect x="1075.8771630778651" y="215.24825112844" width="2.45455661162" height="2.45455661162" opacity="0"/></g><text class="pin-number" x="1089.377224441775" y="215.24825112843996" style="font-family: sans-serif;" fill="rgb(169, 0, 0)" text-anchor="middle" dominant-baseline="auto" font-size="9.204587293575px" transform="">2</text><text class="pin-number" x="1107.786399028925" y="216.47552943424998" style="font-family: sans-serif;" fill="rgb(169, 0, 0)" text-anchor="start" dominant-baseline="middle" font-size="9.204587293575px" transform="">VCC</text><line class="component-pin" x1="1101.650007499875" y1="228.74831249234998" x2="1077.104441383675" y2="228.74831249234998" stroke-width="1.22727830581px"/><g data-schematic-port-id="source_port_22"><rect x="1075.8771630778651" y="227.52103418654" width="2.45455661162" height="2.45455661162" opacity="0"/></g><text class="pin-number" x="1089.377224441775" y="227.52103418653996" style="font-family: sans-serif;" fill="rgb(169, 0, 0)" text-anchor="middle" dominant-baseline="auto" font-size="9.204587293575px" transform="">3</text><text class="pin-number" x="1107.786399028925" y="228.74831249234998" style="font-family: sans-serif;" fill="rgb(169, 0, 0)" text-anchor="start" dominant-baseline="middle" font-size="9.204587293575px" transform="">CS</text><line class="component-pin" x1="1101.650007499875" y1="241.02109555044999" x2="1077.104441383675" y2="241.02109555044999" stroke-width="1.22727830581px"/><g data-schematic-port-id="source_port_23"><rect x="1075.8771630778651" y="239.79381724464" width="2.45455661162" height="2.45455661162" opacity="0"/></g><text class="pin-number" x="1089.377224441775" y="239.79381724463997" style="font-family: sans-serif;" fill="rgb(169, 0, 0)" text-anchor="middle" dominant-baseline="auto" font-size="9.204587293575px" transform="">4</text><text class="pin-number" x="1107.786399028925" y="241.02109555044999" style="font-family: sans-serif;" fill="rgb(169, 0, 0)" text-anchor="start" dominant-baseline="middle" font-size="9.204587293575px" transform="">INIT1</text><line class="component-pin" x1="1101.650007499875" y1="253.29387860855" x2="1077.104441383675" y2="253.29387860855" stroke-width="1.22727830581px"/><g data-schematic-port-id="source_port_24"><rect x="1075.8771630778651" y="252.06660030274" width="2.45455661162" height="2.45455661162" opacity="0"/></g><text class="pin-number" x="1089.377224441775" y="252.06660030273997" style="font-family: sans-serif;" fill="rgb(169, 0, 0)" text-anchor="middle" dominant-baseline="auto" font-size="9.204587293575px" transform="">5</text><text class="pin-number" x="1107.786399028925" y="253.29387860855" style="font-family: sans-serif;" fill="rgb(169, 0, 0)" text-anchor="start" dominant-baseline="middle" font-size="9.204587293575px" transform="">INIT2</text><line class="component-pin" x1="1101.650007499875" y1="265.56666166664996" x2="1077.104441383675" y2="265.56666166664996" stroke-width="1.22727830581px"/><g data-schematic-port-id="source_port_25"><rect x="1075.8771630778651" y="264.33938336084" width="2.45455661162" height="2.45455661162" opacity="0"/></g><text class="pin-number" x="1089.377224441775" y="264.33938336084" style="font-family: sans-serif;" fill="rgb(169, 0, 0)" text-anchor="middle" dominant-baseline="auto" font-size="9.204587293575px" transform="">6</text><text class="pin-number" x="1107.786399028925" y="265.56666166664996" style="font-family: sans-serif;" fill="rgb(169, 0, 0)" text-anchor="start" dominant-baseline="middle" font-size="9.204587293575px" transform="">SDO</text><line class="component-pin" x1="1101.650007499875" y1="277.83944472474997" x2="1077.104441383675" y2="277.83944472474997" stroke-width="1.22727830581px"/><g data-schematic-port-id="source_port_26"><rect x="1075.8771630778651" y="276.61216641894" width="2.45455661162" height="2.45455661162" opacity="0"/></g><text class="pin-number" x="1089.377224441775" y="276.61216641894" style="font-family: sans-serif;" fill="rgb(169, 0, 0)" text-anchor="middle" dominant-baseline="auto" font-size="9.204587293575px" transform="">7</text><text class="pin-number" x="1107.786399028925" y="277.83944472474997" style="font-family: sans-serif;" fill="rgb(169, 0, 0)" text-anchor="start" dominant-baseline="middle" font-size="9.204587293575px" transform="">SDA</text><line class="component-pin" x1="1101.650007499875" y1="290.11222778284997" x2="1077.104441383675" y2="290.11222778284997" stroke-width="1.22727830581px"/><g data-schematic-port-id="source_port_27"><rect x="1075.8771630778651" y="288.88494947704" width="2.45455661162" height="2.45455661162" opacity="0"/></g><text class="pin-number" x="1089.377224441775" y="288.88494947704" style="font-family: sans-serif;" fill="rgb(169, 0, 0)" text-anchor="middle" dominant-baseline="auto" font-size="9.204587293575px" transform="">8</text><text class="pin-number" x="1107.786399028925" y="290.11222778284997" style="font-family: sans-serif;" fill="rgb(169, 0, 0)" text-anchor="start" dominant-baseline="middle" font-size="9.204587293575px" transform="">SCL</text></g><g class="schematic-port-hover" data-schematic-port-id="source_port_0"><circle cx="650.6252301147" cy="277.83944472474997" r="2.45455661162" fill="red" opacity="0"/></g><g class="schematic-port-hover" data-schematic-port-id="source_port_1"><circle cx="650.6252301147" cy="376.02170918955" r="2.45455661162" fill="red" opacity="0"/></g><g class="schematic-port-hover" data-schematic-port-id="source_port_2"><circle cx="650.6252301147" cy="320.7941854281" r="2.45455661162" fill="red" opacity="0"/></g><g class="schematic-port-hover" data-schematic-port-id="source_port_3"><circle cx="650.6252301147" cy="388.29449224764994" r="2.45455661162" fill="red" opacity="0"/></g><g class="schematic-port-hover" data-schematic-port-id="source_port_4"><circle cx="650.6252301147" cy="400.56727530574994" r="2.45455661162" fill="red" opacity="0"/></g><g class="schematic-port-hover" data-schematic-port-id="source_port_5"><circle cx="650.6252301147" cy="290.11222778284997" r="2.45455661162" fill="red" opacity="0"/></g><g class="schematic-port-hover" data-schematic-port-id="source_port_6"><circle cx="797.8986268119" cy="277.83944472474997" r="2.45455661162" fill="red" opacity="0"/></g><g class="schematic-port-hover" data-schematic-port-id="source_port_7"><circle cx="797.8986268119" cy="363.74892613145" r="2.45455661162" fill="red" opacity="0"/></g><g class="schematic-port-hover" data-schematic-port-id="source_port_8"><circle cx="797.8986268119" cy="376.02170918954994" r="2.45455661162" fill="red" opacity="0"/></g><g class="schematic-port-hover" data-schematic-port-id="source_port_9"><circle cx="650.6252301147" cy="333.0669684862" r="2.45455661162" fill="red" opacity="0"/></g><g class="schematic-port-hover" data-schematic-port-id="source_port_10"><circle cx="650.6252301147" cy="345.3397515443" r="2.45455661162" fill="red" opacity="0"/></g><g class="schematic-port-hover" data-schematic-port-id="source_port_11"><circle cx="797.8986268119" cy="308.52140237" r="2.45455661162" fill="red" opacity="0"/></g><g class="schematic-port-hover" data-schematic-port-id="source_port_12"><circle cx="797.8986268119" cy="320.7941854281" r="2.45455661162" fill="red" opacity="0"/></g><g class="schematic-port-hover" data-schematic-port-id="source_port_13"><circle cx="797.8986268119" cy="333.0669684862" r="2.45455661162" fill="red" opacity="0"/></g><g class="schematic-port-hover" data-schematic-port-id="source_port_14"><circle cx="417.4423520108" cy="90.67950308872497" r="2.45455661162" fill="red" opacity="0"/></g><g class="schematic-port-hover" data-schematic-port-id="source_port_15"><circle cx="417.4423520108" cy="158.17980990827496" r="2.45455661162" fill="red" opacity="0"/></g><g class="schematic-port-hover" data-schematic-port-id="source_port_16"><circle cx="356.07843672030003" cy="154.80479456729748" r="2.45455661162" fill="red" opacity="0"/></g><g class="schematic-port-hover" data-schematic-port-id="source_port_17"><circle cx="356.07843672030003" cy="94.05451842970245" r="2.45455661162" fill="red" opacity="0"/></g><g class="schematic-port-hover" data-schematic-port-id="source_port_18"><circle cx="570.85214023705" cy="90.67950308872497" r="2.45455661162" fill="red" opacity="0"/></g><g class="schematic-port-hover" data-schematic-port-id="source_port_19"><circle cx="570.85214023705" cy="158.17980990827496" r="2.45455661162" fill="red" opacity="0"/></g><g class="schematic-port-hover" data-schematic-port-id="source_port_20"><circle cx="1077.104441383675" cy="204.20274637614997" r="2.45455661162" fill="red" opacity="0"/></g><g class="schematic-port-hover" data-schematic-port-id="source_port_21"><circle cx="1077.104441383675" cy="216.47552943424998" r="2.45455661162" fill="red" opacity="0"/></g><g class="schematic-port-hover" data-schematic-port-id="source_port_22"><circle cx="1077.104441383675" cy="228.74831249234998" r="2.45455661162" fill="red" opacity="0"/></g><g class="schematic-port-hover" data-schematic-port-id="source_port_23"><circle cx="1077.104441383675" cy="241.02109555044999" r="2.45455661162" fill="red" opacity="0"/></g><g class="schematic-port-hover" data-schematic-port-id="source_port_24"><circle cx="1077.104441383675" cy="253.29387860855" r="2.45455661162" fill="red" opacity="0"/></g><g class="schematic-port-hover" data-schematic-port-id="source_port_25"><circle cx="1077.104441383675" cy="265.56666166664996" r="2.45455661162" fill="red" opacity="0"/></g><g class="schematic-port-hover" data-schematic-port-id="source_port_26"><circle cx="1077.104441383675" cy="277.83944472474997" r="2.45455661162" fill="red" opacity="0"/></g><g class="schematic-port-hover" data-schematic-port-id="source_port_27"><circle cx="1077.104441383675" cy="290.11222778284997" r="2.45455661162" fill="red" opacity="0"/></g><rect class="component-overlay" x="563.4884704021899" y="52.020236455709984" width="14.727339669720095" height="11.04550475229" fill="transparent"/><path d="M 578.21581007191 52.020236455709984 L 563.4884704021899 52.020236455709984" stroke="rgb(132, 0, 0)" fill="none" stroke-width="1.22727830581px" stroke-linecap="round"/><path d="M 570.85214023705 52.020236455709984 L 570.85214023705 63.065741207999984" stroke="rgb(132, 0, 0)" fill="none" stroke-width="1.22727830581px" stroke-linecap="round"/><text x="570.85214023705" y="48.95204069118498" fill="rgb(15, 15, 15)" font-family="sans-serif" text-anchor="middle" dominant-baseline="ideographic" font-size="11.04550475229px">VCC</text><rect class="component-overlay" x="563.4884704021899" y="185.79357178899997" width="14.727339669720095" height="11.045504752290014" fill="transparent"/><path d="M 563.4884704021899 196.83907654128998 L 578.21581007191 196.83907654128998" stroke="rgb(132, 0, 0)" fill="none" stroke-width="1.22727830581px" stroke-linecap="round"/><path d="M 570.85214023705 196.83907654128998 L 570.85214023705 185.79357178899997" stroke="rgb(132, 0, 0)" fill="none" stroke-width="1.22727830581px" stroke-linecap="round"/><text x="570.85214023705" y="199.90727230581498" fill="rgb(15, 15, 15)" font-family="sans-serif" text-anchor="middle" dominant-baseline="hanging" font-size="11.04550475229px">GND</text><rect class="component-overlay" x="379.39672453069" y="52.020236455709984" width="14.727339669719981" height="11.04550475229" fill="transparent"/><path d="M 394.12406420041 52.020236455709984 L 379.39672453069 52.020236455709984" stroke="rgb(132, 0, 0)" fill="none" stroke-width="1.22727830581px" stroke-linecap="round"/><path d="M 386.76039436555 52.020236455709984 L 386.76039436555 63.065741207999984" stroke="rgb(132, 0, 0)" fill="none" stroke-width="1.22727830581px" stroke-linecap="round"/><text x="386.76039436555" y="48.95204069118498" fill="rgb(15, 15, 15)" font-family="sans-serif" text-anchor="middle" dominant-baseline="ideographic" font-size="11.04550475229px">VCC</text><rect class="component-overlay" x="379.39672453069" y="185.79357178899997" width="14.727339669719981" height="11.045504752290014" fill="transparent"/><path d="M 379.39672453069 196.83907654128998 L 394.12406420041 196.83907654128998" stroke="rgb(132, 0, 0)" fill="none" stroke-width="1.22727830581px" stroke-linecap="round"/><path d="M 386.76039436555 196.83907654128998 L 386.76039436555 185.79357178899997" stroke="rgb(132, 0, 0)" fill="none" stroke-width="1.22727830581px" stroke-linecap="round"/><text x="386.76039436555" y="199.90727230581498" fill="rgb(15, 15, 15)" font-family="sans-serif" text-anchor="middle" dominant-baseline="hanging" font-size="11.04550475229px">GND</text><rect class="component-overlay" x="630.98877722174" y="254.52115691435998" width="14.727339669720095" height="11.045504752289986" fill="transparent"/><path d="M 645.71611689146 254.52115691435998 L 630.98877722174 254.52115691435998" stroke="rgb(132, 0, 0)" fill="none" stroke-width="1.22727830581px" stroke-linecap="round"/><path d="M 638.3524470566 254.52115691435998 L 638.3524470566 265.56666166664996" stroke="rgb(132, 0, 0)" fill="none" stroke-width="1.22727830581px" stroke-linecap="round"/><text x="638.3524470566" y="251.45296114983498" fill="rgb(15, 15, 15)" font-family="sans-serif" text-anchor="middle" dominant-baseline="ideographic" font-size="11.04550475229px">VCC</text><rect class="component-overlay" x="630.98877722174" y="412.84005836385" width="14.727339669720095" height="11.045504752289958" fill="transparent"/><path d="M 630.98877722174 423.88556311613996 L 645.71611689146 423.88556311613996" stroke="rgb(132, 0, 0)" fill="none" stroke-width="1.22727830581px" stroke-linecap="round"/><path d="M 638.3524470566 423.88556311613996 L 638.3524470566 412.84005836385" stroke="rgb(132, 0, 0)" fill="none" stroke-width="1.22727830581px" stroke-linecap="round"/><text x="638.3524470566" y="426.95375888066496" fill="rgb(15, 15, 15)" font-family="sans-serif" text-anchor="middle" dominant-baseline="hanging" font-size="11.04550475229px">GND</text><rect class="component-overlay" x="1023.71783508094" y="174.74806703670998" width="14.727339669720095" height="11.045504752290014" fill="transparent"/><path d="M 1038.44517475066 174.74806703670998 L 1023.71783508094 174.74806703670998" stroke="rgb(132, 0, 0)" fill="none" stroke-width="1.22727830581px" stroke-linecap="round"/><path d="M 1031.0815049158 174.74806703670998 L 1031.0815049158 185.793571789" stroke="rgb(132, 0, 0)" fill="none" stroke-width="1.22727830581px" stroke-linecap="round"/><text x="1031.0815049158" y="171.67987127218498" fill="rgb(15, 15, 15)" font-family="sans-serif" text-anchor="middle" dominant-baseline="ideographic" font-size="11.04550475229px">VCC</text><path class="net-label" d="
    M 1077.104441383675,204.20274637614997
    L 1073.790789957988,210.83004922752397
    L 1043.4933795152251,210.83004922752397
    L 1043.4933795152251,197.57544352477598
    L 1073.790789957988,197.57544352477598
    Z
  " fill="rgba(255, 255, 255, 0.6)" stroke="rgb(132, 0, 0)" stroke-width="1.22727830581px"/><text class="net-label-text" x="1071.58168900753" y="204.20274637614997" fill="rgb(132, 0, 0)" text-anchor="end" dominant-baseline="central" font-family="sans-serif" font-variant-numeric="tabular-nums" font-size="11.04550475229px" transform="">GND</text><path class="net-label" d="
    M 797.8986268119,277.83944472474997
    L 801.212278237587,271.21214187337597
    L 822.6651030231459,271.21214187337597
    L 822.6651030231459,284.46674757612396
    L 801.212278237587,284.46674757612396
    Z
  " fill="rgba(255, 255, 255, 0.6)" stroke="rgb(132, 0, 0)" stroke-width="1.22727830581px"/><text class="net-label-text" x="803.4213791880451" y="277.83944472474997" fill="rgb(132, 0, 0)" text-anchor="start" dominant-baseline="central" font-family="sans-serif" font-variant-numeric="tabular-nums" font-size="11.04550475229px" transform="">CS</text><path class="net-label" d="
    M 1077.104441383675,228.74831249234998
    L 1073.790789957988,235.37561534372398
    L 1052.3379651724292,235.37561534372398
    L 1052.3379651724292,222.12100964097598
    L 1073.790789957988,222.12100964097598
    Z
  " fill="rgba(255, 255, 255, 0.6)" stroke="rgb(132, 0, 0)" stroke-width="1.22727830581px"/><text class="net-label-text" x="1071.58168900753" y="228.74831249234998" fill="rgb(132, 0, 0)" text-anchor="end" dominant-baseline="central" font-family="sans-serif" font-variant-numeric="tabular-nums" font-size="11.04550475229px" transform="">CS</text><path class="net-label" d="
    M 797.8986268119,308.52140237
    L 801.212278237587,301.894099518626
    L 831.1005959117466,301.894099518626
    L 831.1005959117466,315.148705221374
    L 801.212278237587,315.148705221374
    Z
  " fill="rgba(255, 255, 255, 0.6)" stroke="rgb(132, 0, 0)" stroke-width="1.22727830581px"/><text class="net-label-text" x="803.4213791880451" y="308.52140237" fill="rgb(132, 0, 0)" text-anchor="start" dominant-baseline="central" font-family="sans-serif" font-variant-numeric="tabular-nums" font-size="11.04550475229px" transform="">SDO</text><path class="net-label" d="
    M 1077.104441383675,265.56666166664996
    L 1073.790789957988,272.19396451802396
    L 1043.9024722838285,272.19396451802396
    L 1043.9024722838285,258.93935881527597
    L 1073.790789957988,258.93935881527597
    Z
  " fill="rgba(255, 255, 255, 0.6)" stroke="rgb(132, 0, 0)" stroke-width="1.22727830581px"/><text class="net-label-text" x="1071.58168900753" y="265.56666166664996" fill="rgb(132, 0, 0)" text-anchor="end" dominant-baseline="central" font-family="sans-serif" font-variant-numeric="tabular-nums" font-size="11.04550475229px" transform="">SDO</text><path class="net-label" d="
    M 797.8986268119,320.7941854281
    L 801.212278237587,314.166882576726
    L 829.8733176059366,314.166882576726
    L 829.8733176059366,327.421488279474
    L 801.212278237587,327.421488279474
    Z
  " fill="rgba(255, 255, 255, 0.6)" stroke="rgb(132, 0, 0)" stroke-width="1.22727830581px"/><text class="net-label-text" x="803.4213791880451" y="320.7941854281" fill="rgb(132, 0, 0)" text-anchor="start" dominant-baseline="central" font-family="sans-serif" font-variant-numeric="tabular-nums" font-size="11.04550475229px" transform="">SDA</text><path class="net-label" d="
    M 1077.104441383675,277.83944472474997
    L 1073.790789957988,284.46674757612396
    L 1045.1297505896384,284.46674757612396
    L 1045.1297505896384,271.21214187337597
    L 1073.790789957988,271.21214187337597
    Z
  " fill="rgba(255, 255, 255, 0.6)" stroke="rgb(132, 0, 0)" stroke-width="1.22727830581px"/><text class="net-label-text" x="1071.58168900753" y="277.83944472474997" fill="rgb(132, 0, 0)" text-anchor="end" dominant-baseline="central" font-family="sans-serif" font-variant-numeric="tabular-nums" font-size="11.04550475229px" transform="">SDA</text><path class="net-label" d="
    M 797.8986268119,333.0669684862
    L 801.212278237587,326.439665634826
    L 828.6460393001266,326.439665634826
    L 828.6460393001266,339.694271337574
    L 801.212278237587,339.694271337574
    Z
  " fill="rgba(255, 255, 255, 0.6)" stroke="rgb(132, 0, 0)" stroke-width="1.22727830581px"/><text class="net-label-text" x="803.4213791880451" y="333.0669684862" fill="rgb(132, 0, 0)" text-anchor="start" dominant-baseline="central" font-family="sans-serif" font-variant-numeric="tabular-nums" font-size="11.04550475229px" transform="">SCL</text><path class="net-label" d="
    M 1077.104441383675,290.11222778284997
    L 1073.790789957988,296.73953063422397
    L 1046.3570288954486,296.73953063422397
    L 1046.3570288954486,283.484924931476
    L 1073.790789957988,283.484924931476
    Z
  " fill="rgba(255, 255, 255, 0.6)" stroke="rgb(132, 0, 0)" stroke-width="1.22727830581px"/><text class="net-label-text" x="1071.58168900753" y="290.11222778284997" fill="rgb(132, 0, 0)" text-anchor="end" dominant-baseline="central" font-family="sans-serif" font-variant-numeric="tabular-nums" font-size="11.04550475229px" transform="">SCL</text><path class="net-label" d="
    M 797.8986268119,363.74892613145
    L 801.212278237587,357.121623280076
    L 831.763326196884,357.121623280076
    L 831.763326196884,370.376228982824
    L 801.212278237587,370.376228982824
    Z
  " fill="rgba(255, 255, 255, 0.6)" stroke="rgb(132, 0, 0)" stroke-width="1.22727830581px"/><text class="net-label-text" x="803.4213791880451" y="363.74892613145" fill="rgb(132, 0, 0)" text-anchor="start" dominant-baseline="central" font-family="sans-serif" font-variant-numeric="tabular-nums" font-size="11.04550475229px" transform="">INT1</text><path class="net-label" d="
    M 797.8986268119,376.02170918954994
    L 801.212278237587,369.39440633817594
    L 831.763326196884,369.39440633817594
    L 831.763326196884,382.64901204092394
    L 801.212278237587,382.64901204092394
    Z
  " fill="rgba(255, 255, 255, 0.6)" stroke="rgb(132, 0, 0)" stroke-width="1.22727830581px"/><text class="net-label-text" x="803.4213791880451" y="376.02170918954994" fill="rgb(132, 0, 0)" text-anchor="start" dominant-baseline="central" font-family="sans-serif" font-variant-numeric="tabular-nums" font-size="11.04550475229px" transform="">INT2</text><path class="net-label" d="
    M 1077.104441383675,241.02109555044999
    L 1073.790789957988,247.64839840182398
    L 1039.7133623333305,247.64839840182398
    L 1039.7133623333305,234.393792699076
    L 1073.790789957988,234.393792699076
    Z
  " fill="rgba(255, 255, 255, 0.6)" stroke="rgb(132, 0, 0)" stroke-width="1.22727830581px"/><text class="net-label-text" x="1071.58168900753" y="241.02109555044999" fill="rgb(132, 0, 0)" text-anchor="end" dominant-baseline="central" font-family="sans-serif" font-variant-numeric="tabular-nums" font-size="11.04550475229px" transform="">INIT1</text><path class="net-label" d="
    M 1077.104441383675,253.29387860855
    L 1073.790789957988,259.921181459924
    L 1039.7133623333305,259.92118145992396
    L 1039.7133623333305,246.666575757176
    L 1073.790789957988,246.666575757176
    Z
  " fill="rgba(255, 255, 255, 0.6)" stroke="rgb(132, 0, 0)" stroke-width="1.22727830581px"/><text class="net-label-text" x="1071.58168900753" y="253.29387860855" fill="rgb(132, 0, 0)" text-anchor="end" dominant-baseline="central" font-family="sans-serif" font-variant-numeric="tabular-nums" font-size="11.04550475229px" transform="">INIT2</text><text x="294.7145214298" y="541.7042804739" fill="gray" text-anchor="start" dominant-baseline="middle" font-family="sans-serif" font-size="6.136391529050001px" transform="rotate(0, 294.7145214298, 541.7042804739)">Updates</text><text x="294.7145214298" y="553.977063532" fill="gray" text-anchor="start" dominant-baseline="middle" font-family="sans-serif" font-size="6.136391529050001px" transform="rotate(0, 294.7145214298, 553.977063532)">*Non-cantilevered - added standoffs for stability</text><text x="294.7145214298" y="566.2498465901" fill="gray" text-anchor="start" dominant-baseline="middle" font-family="sans-serif" font-size="6.136391529050001px" transform="rotate(0, 294.7145214298, 566.2498465901)">*Add decoupling cap - AD suggested 10uF and 0.1uF after upto 100Ohm resistance</text></svg>