<svg xmlns="http://www.w3.org/2000/svg" width="1200" height="600" style="background-color: rgb(245, 241, 237)" data-real-to-screen-transform="matrix(61.3639152905,0,0,-61.3639152905,724.2619284633,308.52140237)" data-software-used-string="@tscircuit/core@0.0.616"><style>
              .boundary { fill: rgb(245, 241, 237); }
              .schematic-boundary { fill: none; stroke: #fff; }
              .component { fill: none; stroke: rgb(132, 0, 0); }
              .chip { fill: rgb(255, 255, 194); stroke: rgb(132, 0, 0); }
              .component-pin { fill: none; stroke: rgb(132, 0, 0); }
              /* Basic per-trace hover fallback */
              .trace:hover {
                filter: invert(1);
              }
              .trace:hover .trace-crossing-outline {
                opacity: 0;
              }
              .trace:hover .trace-junction {
                filter: invert(1);
              }
              /* Net-hover highlighting: when a trace or its overlays are hovered,
                 invert color for all traces (base + overlays) sharing the same
                 subcircuit connectivity key. Also hide crossing outline during hover. */
              svg:has(:is(g.trace[data-subcircuit-connectivity-map-key="undefined"], g.trace-overlays[data-subcircuit-connectivity-map-key="undefined"]):hover) :is(g.trace[data-subcircuit-connectivity-map-key="undefined"], g.trace-overlays[data-subcircuit-connectivity-map-key="undefined"]) { filter: invert(1); }
svg:has(:is(g.trace[data-subcircuit-connectivity-map-key="undefined"], g.trace-overlays[data-subcircuit-connectivity-map-key="undefined"]):hover) g.trace-overlays[data-subcircuit-connectivity-map-key="undefined"] .trace-crossing-outline { opacity: 0; }
              .text { font-family: sans-serif; fill: rgb(0, 150, 0); }
              .pin-number { fill: rgb(169, 0, 0); }
              .port-label { fill: rgb(0, 100, 100); }
              .component-name { fill: rgb(0, 100, 100); }
            </style><rect class="boundary" x="0" y="0" width="1200" height="600"/><g class="trace" data-layer="base" data-circuit-json-type="schematic_trace" data-schematic-trace-id="schematic_trace_0"><path d="M 570.8353664108054 90.60529570596415 L 570.85214023705 90.60529570596415 L 570.85214023705 63.06574120799996" class="trace-invisible-hover-outline" stroke="rgb(0, 150, 0)" fill="none" stroke-width="9.81822644648px" stroke-linecap="round" opacity="0" stroke-linejoin="round"/><path d="M 570.8353664108054 90.60529570596415 L 570.85214023705 90.60529570596415 L 570.85214023705 63.06574120799996" stroke="rgb(0, 150, 0)" fill="none" stroke-width="1.22727830581px" stroke-linecap="round" stroke-linejoin="round"/></g><g class="trace" data-layer="base" data-circuit-json-type="schematic_trace" data-schematic-trace-id="schematic_trace_1"><path d="M 570.8689140632946 158.25401729103578 L 570.85214023705 158.25401729103578 L 570.85214023705 185.79357178899997" class="trace-invisible-hover-outline" stroke="rgb(0, 150, 0)" fill="none" stroke-width="9.81822644648px" stroke-linecap="round" opacity="0" stroke-linejoin="round"/><path d="M 570.8689140632946 158.25401729103578 L 570.85214023705 158.25401729103578 L 570.85214023705 185.79357178899997" stroke="rgb(0, 150, 0)" fill="none" stroke-width="1.22727830581px" stroke-linecap="round" stroke-linejoin="round"/></g><g class="trace" data-layer="base" data-circuit-json-type="schematic_trace" data-schematic-trace-id="schematic_trace_2"><path d="M 417.4255781845554 90.60529570596415 L 386.76039436555 90.60529570596415 L 386.76039436555 63.06574120799996" class="trace-invisible-hover-outline" stroke="rgb(0, 150, 0)" fill="none" stroke-width="9.81822644648px" stroke-linecap="round" opacity="0" stroke-linejoin="round"/><path d="M 417.4255781845554 90.60529570596415 L 386.76039436555 90.60529570596415 L 386.76039436555 63.06574120799996" stroke="rgb(0, 150, 0)" fill="none" stroke-width="1.22727830581px" stroke-linecap="round" stroke-linejoin="round"/></g><g class="trace" data-layer="base" data-circuit-json-type="schematic_trace" data-schematic-trace-id="schematic_trace_3"><path d="M 356.0616628940553 94.16102777747219 L 386.76039436555 94.16102777747219 L 386.76039436555 63.06574120799996" class="trace-invisible-hover-outline" stroke="rgb(0, 150, 0)" fill="none" stroke-width="9.81822644648px" stroke-linecap="round" opacity="0" stroke-linejoin="round"/><path d="M 356.0616628940553 94.16102777747219 L 386.76039436555 94.16102777747219 L 386.76039436555 63.06574120799996" stroke="rgb(0, 150, 0)" fill="none" stroke-width="1.22727830581px" stroke-linecap="round" stroke-linejoin="round"/></g><g class="trace" data-layer="base" data-circuit-json-type="schematic_trace" data-schematic-trace-id="schematic_trace_4"><path d="M 417.45912583704467 158.25401729103578 L 386.76039436555 158.25401729103578 L 386.76039436555 185.79357178899997" class="trace-invisible-hover-outline" stroke="rgb(0, 150, 0)" fill="none" stroke-width="9.81822644648px" stroke-linecap="round" opacity="0" stroke-linejoin="round"/><path d="M 417.45912583704467 158.25401729103578 L 386.76039436555 158.25401729103578 L 386.76039436555 185.79357178899997" stroke="rgb(0, 150, 0)" fill="none" stroke-width="1.22727830581px" stroke-linecap="round" stroke-linejoin="round"/></g><g class="trace" data-layer="base" data-circuit-json-type="schematic_trace" data-schematic-trace-id="schematic_trace_5"><path d="M 356.0952105465447 154.69828521952775 L 386.76039436555 154.69828521952775 L 386.76039436555 185.79357178899997" class="trace-invisible-hover-outline" stroke="rgb(0, 150, 0)" fill="none" stroke-width="9.81822644648px" stroke-linecap="round" opacity="0" stroke-linejoin="round"/><path d="M 356.0952105465447 154.69828521952775 L 386.76039436555 154.69828521952775 L 386.76039436555 185.79357178899997" stroke="rgb(0, 150, 0)" fill="none" stroke-width="1.22727830581px" stroke-linecap="round" stroke-linejoin="round"/></g><g class="trace" data-layer="base" data-circuit-json-type="schematic_trace" data-schematic-trace-id="schematic_trace_6"><path d="M 650.6252301147 277.83944472474997 L 638.3524470566 277.83944472474997 L 638.3524470566 265.56666166664996" class="trace-invisible-hover-outline" stroke="rgb(0, 150, 0)" fill="none" stroke-width="9.81822644648px" stroke-linecap="round" opacity="0" stroke-linejoin="round"/><path d="M 650.6252301147 277.83944472474997 L 638.3524470566 277.83944472474997 L 638.3524470566 265.56666166664996" stroke="rgb(0, 150, 0)" fill="none" stroke-width="1.22727830581px" stroke-linecap="round" stroke-linejoin="round"/></g><g class="trace" data-layer="base" data-circuit-json-type="schematic_trace" data-schematic-trace-id="schematic_trace_7"><path d="M 650.6252301147 290.11222778284997 L 638.3524470566 290.11222778284997 L 638.3524470566 265.56666166664996" class="trace-invisible-hover-outline" stroke="rgb(0, 150, 0)" fill="none" stroke-width="9.81822644648px" stroke-linecap="round" opacity="0" stroke-linejoin="round"/><path d="M 650.6252301147 290.11222778284997 L 638.3524470566 290.11222778284997 L 638.3524470566 265.56666166664996" stroke="rgb(0, 150, 0)" fill="none" stroke-width="1.22727830581px" stroke-linecap="round" stroke-linejoin="round"/></g><g class="trace" data-layer="base" data-circuit-json-type="schematic_trace" data-schematic-trace-id="schematic_trace_8"><path d="M 650.6252301147 376.02170918955 L 638.3524470566 376.02170918955 L 638.3524470566 412.84005836384995" class="trace-invisible-hover-outline" stroke="rgb(0, 150, 0)" fill="none" stroke-width="9.81822644648px" stroke-linecap="round" opacity="0" stroke-linejoin="round"/><path d="M 650.6252301147 376.02170918955 L 638.3524470566 376.02170918955 L 638.3524470566 412.84005836384995" stroke="rgb(0, 150, 0)" fill="none" stroke-width="1.22727830581px" stroke-linecap="round" stroke-linejoin="round"/></g><g class="trace" data-layer="base" data-circuit-json-type="schematic_trace" data-schematic-trace-id="schematic_trace_9"><path d="M 650.6252301147 388.29449224764994 L 638.3524470566 388.29449224764994 L 638.3524470566 412.84005836384995" class="trace-invisible-hover-outline" stroke="rgb(0, 150, 0)" fill="none" stroke-width="9.81822644648px" stroke-linecap="round" opacity="0" stroke-linejoin="round"/><path d="M 650.6252301147 388.29449224764994 L 638.3524470566 388.29449224764994 L 638.3524470566 412.84005836384995" stroke="rgb(0, 150, 0)" fill="none" stroke-width="1.22727830581px" stroke-linecap="round" stroke-linejoin="round"/></g><g class="trace" data-layer="base" data-circuit-json-type="schematic_trace" data-schematic-trace-id="schematic_trace_10"><path d="M 650.6252301147 400.56727530574994 L 638.3524470566 400.56727530574994 L 638.3524470566 412.84005836384995" class="trace-invisible-hover-outline" stroke="rgb(0, 150, 0)" fill="none" stroke-width="9.81822644648px" stroke-linecap="round" opacity="0" stroke-linejoin="round"/><path d="M 650.6252301147 400.56727530574994 L 638.3524470566 400.56727530574994 L 638.3524470566 412.84005836384995" stroke="rgb(0, 150, 0)" fill="none" stroke-width="1.22727830581px" stroke-linecap="round" stroke-linejoin="round"/></g><g class="trace" data-layer="base" data-circuit-json-type="schematic_trace" data-schematic-trace-id="schematic_trace_11"><path d="M 1077.104441383675 216.47552943424998 L 1031.0815049158 216.47552943424998 L 1031.0815049158 185.79357178899997" class="trace-invisible-hover-outline" stroke="rgb(0, 150, 0)" fill="none" stroke-width="9.81822644648px" stroke-linecap="round" opacity="0" stroke-linejoin="round"/><path d="M 1077.104441383675 216.47552943424998 L 1031.0815049158 216.47552943424998 L 1031.0815049158 185.79357178899997" stroke="rgb(0, 150, 0)" fill="none" stroke-width="1.22727830581px" stroke-linecap="round" stroke-linejoin="round"/></g><g class="trace-overlays" data-layer="overlay" data-circuit-json-type="schematic_trace" data-schematic-trace-id="schematic_trace_0"/><g class="trace-overlays" data-layer="overlay" data-circuit-json-type="schematic_trace" data-schematic-trace-id="schematic_trace_1"/><g class="trace-overlays" data-layer="overlay" data-circuit-json-type="schematic_trace" data-schematic-trace-id="schematic_trace_2"/><g class="trace-overlays" data-layer="overlay" data-circuit-json-type="schematic_trace" data-schematic-trace-id="schematic_trace_3"/><g class="trace-overlays" data-layer="overlay" data-circuit-json-type="schematic_trace" data-schematic-trace-id="schematic_trace_4"/><g class="trace-overlays" data-layer="overlay" data-circuit-json-type="schematic_trace" data-schematic-trace-id="schematic_trace_5"/><g class="trace-overlays" data-layer="overlay" data-circuit-json-type="schematic_trace" data-schematic-trace-id="schematic_trace_6"/><g class="trace-overlays" data-layer="overlay" data-circuit-json-type="schematic_trace" data-schematic-trace-id="schematic_trace_7"/><g class="trace-overlays" data-layer="overlay" data-circuit-json-type="schematic_trace" data-schematic-trace-id="schematic_trace_8"/><g class="trace-overlays" data-layer="overlay" data-circuit-json-type="schematic_trace" data-schematic-trace-id="schematic_trace_9"/><g class="trace-overlays" data-layer="overlay" data-circuit-json-type="schematic_trace" data-schematic-trace-id="schematic_trace_10"/><g class="trace-overlays" data-layer="overlay" data-circuit-json-type="schematic_trace" data-schematic-trace-id="schematic_trace_11"/><g data-circuit-json-type="schematic_component" data-schematic-component-id="schematic_component_0"><rect class="component chip" x="675.1707962309" y="265.56666166664996" width="98.18226446480003" height="147.27339669719998" stroke-width="1.22727830581px" fill="rgb(255, 255, 194)" stroke="rgb(132, 0, 0)"/><rect class="component-overlay" x="675.1707962309" y="265.56666166664996" width="98.18226446480003" height="147.27339669719998" fill="transparent"/><text x="675.1707962309" y="420.81736735161496" fill="#006464" text-anchor="start" dominant-baseline="middle" font-family="sans-serif" font-size="11.04550475229px" transform="rotate(0, 675.1707962309, 420.81736735161496)">ADXL345BCCZ_RL7</text><text x="675.1707962309" y="257.589352678885" fill="#006464" text-anchor="start" dominant-baseline="middle" font-family="sans-serif" font-size="11.04550475229px" transform="rotate(0, 675.1707962309, 257.589352678885)">U1</text><line class="component-pin" x1="675.1707962309" y1="277.83944472474997" x2="650.6252301147" y2="277.83944472474997" stroke-width="1.22727830581px"/><g data-schematic-port-id="source_port_0"><rect x="649.39795180889" y="276.61216641894" width="2.45455661162" height="2.45455661162" opacity="0"/></g><text class="pin-number" x="662.8980131728" y="276.61216641894" style="font-family: sans-serif;" fill="rgb(169, 0, 0)" text-anchor="middle" dominant-baseline="auto" font-size="9.204587293575px" transform="">1</text><text class="pin-number" x="681.30718775995" y="277.83944472474997" style="font-family: sans-serif;" fill="rgb(169, 0, 0)" text-anchor="start" dominant-baseline="middle" font-size="9.204587293575px" transform="">VDD</text><line class="component-pin" x1="675.1707962309" y1="376.02170918955" x2="650.6252301147" y2="376.02170918955" stroke-width="1.22727830581px"/><g data-schematic-port-id="source_port_1"><rect x="649.39795180889" y="374.79443088374" width="2.45455661162" height="2.45455661162" opacity="0"/></g><text class="pin-number" x="662.8980131728" y="374.79443088374" style="font-family: sans-serif;" fill="rgb(169, 0, 0)" text-anchor="middle" dominant-baseline="auto" font-size="9.204587293575px" transform="">2</text><text class="pin-number" x="681.30718775995" y="376.02170918955" style="font-family: sans-serif;" fill="rgb(169, 0, 0)" text-anchor="start" dominant-baseline="middle" font-size="9.204587293575px" transform="">GND1</text><line class="component-pin" x1="675.1707962309" y1="320.7941854281" x2="651.85250842051" y2="320.7941854281" stroke-width="1.22727830581px"/><g data-schematic-port-id="source_port_2"><circle class="component-pin" cx="650.6252301147" cy="320.7941854281" r="1.22727830581" stroke-width="1.22727830581px"/><rect x="649.39795180889" y="319.56690712229" width="2.45455661162" height="2.45455661162" opacity="0"/></g><text class="pin-number" x="662.8980131728" y="319.56690712229" style="font-family: sans-serif;" fill="rgb(169, 0, 0)" text-anchor="middle" dominant-baseline="auto" font-size="9.204587293575px" transform="">3</text><text class="pin-number" x="681.30718775995" y="320.7941854281" style="font-family: sans-serif;" fill="rgb(169, 0, 0)" text-anchor="start" dominant-baseline="middle" font-size="9.204587293575px" transform="">NC</text><line class="component-pin" x1="675.1707962309" y1="388.29449224764994" x2="650.6252301147" y2="388.29449224764994" stroke-width="1.22727830581px"/><g data-schematic-port-id="source_port_3"><rect x="649.39795180889" y="387.06721394183995" width="2.45455661162" height="2.45455661162" opacity="0"/></g><text class="pin-number" x="662.8980131728" y="387.06721394183995" style="font-family: sans-serif;" fill="rgb(169, 0, 0)" text-anchor="middle" dominant-baseline="auto" font-size="9.204587293575px" transform="">4</text><text class="pin-number" x="681.30718775995" y="388.29449224764994" style="font-family: sans-serif;" fill="rgb(169, 0, 0)" text-anchor="start" dominant-baseline="middle" font-size="9.204587293575px" transform="">GND2</text><line class="component-pin" x1="675.1707962309" y1="400.56727530574994" x2="650.6252301147" y2="400.56727530574994" stroke-width="1.22727830581px"/><g data-schematic-port-id="source_port_4"><rect x="649.39795180889" y="399.33999699993996" width="2.45455661162" height="2.45455661162" opacity="0"/></g><text class="pin-number" x="662.8980131728" y="399.33999699994" style="font-family: sans-serif;" fill="rgb(169, 0, 0)" text-anchor="middle" dominant-baseline="auto" font-size="9.204587293575px" transform="">5</text><text class="pin-number" x="681.30718775995" y="400.56727530574994" style="font-family: sans-serif;" fill="rgb(169, 0, 0)" text-anchor="start" dominant-baseline="middle" font-size="9.204587293575px" transform="">GND3</text><line class="component-pin" x1="675.1707962309" y1="290.11222778284997" x2="650.6252301147" y2="290.11222778284997" stroke-width="1.22727830581px"/><g data-schematic-port-id="source_port_5"><rect x="649.39795180889" y="288.88494947704" width="2.45455661162" height="2.45455661162" opacity="0"/></g><text class="pin-number" x="662.8980131728" y="288.88494947704" style="font-family: sans-serif;" fill="rgb(169, 0, 0)" text-anchor="middle" dominant-baseline="auto" font-size="9.204587293575px" transform="">6</text><text class="pin-number" x="681.30718775995" y="290.11222778284997" style="font-family: sans-serif;" fill="rgb(169, 0, 0)" text-anchor="start" dominant-baseline="middle" font-size="9.204587293575px" transform="">VSS</text><line class="component-pin" x1="773.3530606957" y1="277.83944472474997" x2="797.8986268119" y2="277.83944472474997" stroke-width="1.22727830581px"/><g data-schematic-port-id="source_port_6"><rect x="796.67134850609" y="276.61216641894" width="2.45455661162" height="2.45455661162" opacity="0"/></g><text class="pin-number" x="785.6258437538" y="276.61216641894" style="font-family: sans-serif;" fill="rgb(169, 0, 0)" text-anchor="middle" dominant-baseline="auto" font-size="9.204587293575px" transform="">7</text><text class="pin-number" x="767.21666916665" y="277.83944472474997" style="font-family: sans-serif;" fill="rgb(169, 0, 0)" text-anchor="end" dominant-baseline="middle" font-size="9.204587293575px" transform="">CS</text><line class="component-pin" x1="773.3530606957" y1="363.74892613145" x2="797.8986268119" y2="363.74892613145" stroke-width="1.22727830581px"/><g data-schematic-port-id="source_port_7"><rect x="796.67134850609" y="362.52164782564" width="2.45455661162" height="2.45455661162" opacity="0"/></g><text class="pin-number" x="785.6258437538" y="362.52164782564" style="font-family: sans-serif;" fill="rgb(169, 0, 0)" text-anchor="middle" dominant-baseline="auto" font-size="9.204587293575px" transform="">8</text><text class="pin-number" x="767.21666916665" y="363.74892613145" style="font-family: sans-serif;" fill="rgb(169, 0, 0)" text-anchor="end" dominant-baseline="middle" font-size="9.204587293575px" transform="">INT1</text><line class="component-pin" x1="773.3530606957" y1="376.02170918954994" x2="797.8986268119" y2="376.02170918954994" stroke-width="1.22727830581px"/><g data-schematic-port-id="source_port_8"><rect x="796.67134850609" y="374.79443088373995" width="2.45455661162" height="2.45455661162" opacity="0"/></g><text class="pin-number" x="785.6258437538" y="374.79443088373995" style="font-family: sans-serif;" fill="rgb(169, 0, 0)" text-anchor="middle" dominant-baseline="auto" font-size="9.204587293575px" transform="">9</text><text class="pin-number" x="767.21666916665" y="376.02170918954994" style="font-family: sans-serif;" fill="rgb(169, 0, 0)" text-anchor="end" dominant-baseline="middle" font-size="9.204587293575px" transform="">INT2</text><line class="component-pin" x1="675.1707962309" y1="333.0669684862" x2="651.85250842051" y2="333.0669684862" stroke-width="1.22727830581px"/><g data-schematic-port-id="source_port_9"><circle class="component-pin" cx="650.6252301147" cy="333.0669684862" r="1.22727830581" stroke-width="1.22727830581px"/><rect x="649.39795180889" y="331.83969018039" width="2.45455661162" height="2.45455661162" opacity="0"/></g><text class="pin-number" x="662.8980131728" y="331.83969018039" style="font-family: sans-serif;" fill="rgb(169, 0, 0)" text-anchor="middle" dominant-baseline="auto" font-size="9.204587293575px" transform="">10</text><text class="pin-number" x="681.30718775995" y="333.0669684862" style="font-family: sans-serif;" fill="rgb(169, 0, 0)" text-anchor="start" dominant-baseline="middle" font-size="9.204587293575px" transform="">NC</text><line class="component-pin" x1="675.1707962309" y1="345.3397515443" x2="651.85250842051" y2="345.3397515443" stroke-width="1.22727830581px"/><g data-schematic-port-id="source_port_10"><circle class="component-pin" cx="650.6252301147" cy="345.3397515443" r="1.22727830581" stroke-width="1.22727830581px"/><rect x="649.39795180889" y="344.11247323849" width="2.45455661162" height="2.45455661162" opacity="0"/></g><text class="pin-number" x="662.8980131728" y="344.11247323849" style="font-family: sans-serif;" fill="rgb(169, 0, 0)" text-anchor="middle" dominant-baseline="auto" font-size="9.204587293575px" transform="">11</text><text class="pin-number" x="681.30718775995" y="345.3397515443" style="font-family: sans-serif;" fill="rgb(169, 0, 0)" text-anchor="start" dominant-baseline="middle" font-size="9.204587293575px" transform="">NC</text><line class="component-pin" x1="773.3530606957" y1="308.52140237" x2="797.8986268119" y2="308.52140237" stroke-width="1.22727830581px"/><g data-schematic-port-id="source_port_11"><rect x="796.67134850609" y="307.29412406419" width="2.45455661162" height="2.45455661162" opacity="0"/></g><text class="pin-number" x="785.6258437538" y="307.29412406419" style="font-family: sans-serif;" fill="rgb(169, 0, 0)" text-anchor="middle" dominant-baseline="auto" font-size="9.204587293575px" transform="">12</text><text class="pin-number" x="767.21666916665" y="308.52140237" style="font-family: sans-serif;" fill="rgb(169, 0, 0)" text-anchor="end" dominant-baseline="middle" font-size="9.204587293575px" transform="">SDO</text><line class="component-pin" x1="773.3530606957" y1="320.7941854281" x2="797.8986268119" y2="320.7941854281" stroke-width="1.22727830581px"/><g data-schematic-port-id="source_port_12"><rect x="796.67134850609" y="319.56690712229" width="2.45455661162" height="2.45455661162" opacity="0"/></g><text class="pin-number" x="785.6258437538" y="319.56690712229" style="font-family: sans-serif;" fill="rgb(169, 0, 0)" text-anchor="middle" dominant-baseline="auto" font-size="9.204587293575px" transform="">13</text><text class="pin-number" x="767.21666916665" y="320.7941854281" style="font-family: sans-serif;" fill="rgb(169, 0, 0)" text-anchor="end" dominant-baseline="middle" font-size="9.204587293575px" transform="">SDA</text><line class="component-pin" x1="773.3530606957" y1="333.0669684862" x2="797.8986268119" y2="333.0669684862" stroke-width="1.22727830581px"/><g data-schematic-port-id="source_port_13"><rect x="796.67134850609" y="331.83969018039" width="2.45455661162" height="2.45455661162" opacity="0"/></g><text class="pin-number" x="785.6258437538" y="331.83969018039" style="font-family: sans-serif;" fill="rgb(169, 0, 0)" text-anchor="middle" dominant-baseline="auto" font-size="9.204587293575px" transform="">14</text><text class="pin-number" x="767.21666916665" y="333.0669684862" style="font-family: sans-serif;" fill="rgb(169, 0, 0)" text-anchor="end" dominant-baseline="middle" font-size="9.204587293575px" transform="">SCL</text></g><g data-circuit-json-type="schematic_component" data-schematic-component-id="schematic_component_1"><rect class="component-overlay" x="400.8208899355456" y="90.5283855625286" width="32.59438804435251" height="67.64872990337307" fill="transparent"/><path d="M 417.4255781845554 158.17711546590166 L 417.4255781845554 128.65766968988433" stroke="rgb(132, 0, 0)" fill="none" stroke-width="1.22727830581px" stroke-linecap="round"/><path d="M 417.4255781845554 118.81785443121187 L 417.4255781845554 90.5283855625286" stroke="rgb(132, 0, 0)" fill="none" stroke-width="1.22727830581px" stroke-linecap="round"/><path d="M 433.4152779798981 128.65766968988433 L 400.8208899355456 128.65766968988433" stroke="rgb(132, 0, 0)" fill="none" stroke-width="1.22727830581px" stroke-linecap="round"/><path d="M 433.4152779798981 118.81785443121187 L 400.8208899355456 118.81785443121187" stroke="rgb(132, 0, 0)" fill="none" stroke-width="1.22727830581px" stroke-linecap="round"/><text x="423.26796849439216" y="112.16322331443025" stroke="rgb(245, 241, 237)" stroke-width="1.22727830581px" paint-order="stroke" fill="rgb(15, 15, 15)" font-family="sans-serif" text-anchor="start" dominant-baseline="auto" font-size="11.04550475229px">C1</text><text x="423.26796849439216" y="136.542277714" fill="rgb(15, 15, 15)" font-family="sans-serif" text-anchor="start" dominant-baseline="hanging" font-size="11.04550475229px">100nF</text></g><g data-circuit-json-type="schematic_component" data-schematic-component-id="schematic_component_2"><rect class="component-overlay" x="337.72671885541325" y="94.27183569770872" width="34.85478993978927" height="60.53726673752868" fill="transparent"/><path d="M 356.07134513951286 94.27183569770872 L 356.07134513951286 121.78877512385812" stroke="rgb(132, 0, 0)" fill="none" stroke-width="1.22727830581px" stroke-linecap="round"/><path d="M 356.07134513951286 127.292163009088 L 356.07134513951286 154.8091024352374" stroke="rgb(132, 0, 0)" fill="none" stroke-width="1.22727830581px" stroke-linecap="round"/><path d="M 340.1726690266266 121.78877512385812 L 372.5815087952025 121.78877512385812" stroke="rgb(132, 0, 0)" fill="none" stroke-width="1.22727830581px" stroke-linecap="round"/><path d="M 371.9700212523992 130.3496007231046 L 371.9700212523992 130.3496007231046 L 371.9700212523992 130.3496007231046 L 371.9700212523992 130.3496007231046 L 371.9700212523992 130.3496007231046 L 371.9700212523992 130.3496007231046 L 371.9700212523992 130.3496007231046 L 371.9700212523992 130.3496007231046 L 371.9700212523992 130.3496007231046 L 371.35853370959586 130.3496007231046 L 371.35853370959586 130.3496007231046 L 371.35853370959586 130.3496007231046 L 371.35853370959586 130.3496007231046 L 371.35853370959586 129.73811318030127 L 371.35853370959586 129.73811318030127 L 371.35853370959586 129.73811318030127 L 371.35853370959586 129.73811318030127 L 370.7470461667926 129.73811318030127 L 370.7470461667926 129.73811318030127 L 370.7470461667926 129.73811318030127 L 370.7470461667926 129.73811318030127 L 370.7470461667926 129.73811318030127 L 370.7470461667926 129.73811318030127 L 370.7470461667926 129.73811318030127 L 370.7470461667926 129.73811318030127 L 370.13555862398925 129.73811318030127 L 370.13555862398925 129.73811318030127 L 370.13555862398925 129.73811318030127 L 370.13555862398925 129.12662563749797 L 370.13555862398925 129.12662563749797 L 370.13555862398925 129.12662563749797 L 370.13555862398925 129.12662563749797 L 370.13555862398925 129.12662563749797 L 369.5240710811859 129.12662563749797 L 369.5240710811859 129.12662563749797 L 369.5240710811859 129.12662563749797 L 369.5240710811859 129.12662563749797 L 369.5240710811859 129.12662563749797 L 369.5240710811859 129.12662563749797 L 369.5240710811859 129.12662563749797 L 369.5240710811859 129.12662563749797 L 368.9125835383826 129.12662563749797 L 368.9125835383826 129.12662563749797 L 368.9125835383826 129.12662563749797 L 368.9125835383826 129.12662563749797 L 368.9125835383826 128.51513809469463 L 368.9125835383826 128.51513809469463 L 368.9125835383826 128.51513809469463 L 368.30109599557926 128.51513809469463 L 368.30109599557926 128.51513809469463 L 368.30109599557926 128.51513809469463 L 368.30109599557926 128.51513809469463 L 368.30109599557926 128.51513809469463 L 368.30109599557926 128.51513809469463 L 368.30109599557926 128.51513809469463 L 368.30109599557926 128.51513809469463 L 367.689608452776 128.51513809469463 L 367.689608452776 128.51513809469463 L 367.689608452776 128.51513809469463 L 367.689608452776 128.51513809469463 L 367.689608452776 128.51513809469463 L 367.689608452776 128.51513809469463 L 367.689608452776 128.51513809469463 L 367.689608452776 128.51513809469463 L 367.07812090997265 127.90365055189132 L 367.07812090997265 127.90365055189132 L 367.07812090997265 127.90365055189132 L 367.07812090997265 127.90365055189132 L 367.07812090997265 127.90365055189132 L 367.07812090997265 127.90365055189132 L 367.07812090997265 127.90365055189132 L 367.07812090997265 127.90365055189132 L 366.4666333671693 127.90365055189132 L 366.4666333671693 127.90365055189132 L 366.4666333671693 127.90365055189132 L 366.4666333671693 127.90365055189132 L 366.4666333671693 127.90365055189132 L 366.4666333671693 127.90365055189132 L 366.4666333671693 127.90365055189132 L 365.855145824366 127.90365055189132 L 365.855145824366 127.90365055189132 L 365.855145824366 127.90365055189132 L 365.855145824366 127.90365055189132 L 365.855145824366 127.90365055189132 L 365.855145824366 127.90365055189132 L 365.855145824366 127.90365055189132 L 365.855145824366 127.292163009088 L 365.24365828156266 127.292163009088 L 365.24365828156266 127.292163009088 L 365.24365828156266 127.292163009088 L 365.24365828156266 127.292163009088 L 365.24365828156266 127.292163009088 L 365.24365828156266 127.292163009088 L 365.24365828156266 127.292163009088 L 365.24365828156266 127.292163009088 L 364.6321707387594 127.292163009088 L 364.6321707387594 127.292163009088 L 364.6321707387594 127.292163009088 L 364.6321707387594 127.292163009088 L 364.6321707387594 127.292163009088 L 364.6321707387594 127.292163009088 L 364.6321707387594 127.292163009088 L 364.6321707387594 127.292163009088 L 364.02068319595605 127.292163009088 L 364.02068319595605 127.292163009088 L 364.02068319595605 127.292163009088 L 364.02068319595605 127.292163009088 L 364.02068319595605 127.292163009088 L 364.02068319595605 127.292163009088 L 363.4091956531527 127.292163009088 L 363.4091956531527 127.292163009088 L 363.4091956531527 127.292163009088 L 363.4091956531527 127.292163009088 L 363.4091956531527 127.292163009088 L 363.4091956531527 127.292163009088 L 362.7977081103494 126.68067546628468 L 362.7977081103494 126.68067546628468 L 362.7977081103494 126.68067546628468 L 362.7977081103494 126.68067546628468 L 362.7977081103494 126.68067546628468 L 362.7977081103494 126.68067546628468 L 362.18622056754606 126.68067546628468 L 362.18622056754606 126.68067546628468 L 362.18622056754606 126.68067546628468 L 362.18622056754606 126.68067546628468 L 362.18622056754606 126.68067546628468 L 362.18622056754606 126.68067546628468 L 361.5747330247428 126.68067546628468 L 361.5747330247428 126.68067546628468 L 361.5747330247428 126.68067546628468 L 361.5747330247428 126.68067546628468 L 361.5747330247428 126.68067546628468 L 361.5747330247428 126.68067546628468 L 360.96324548193945 126.68067546628468 L 360.96324548193945 126.68067546628468 L 360.96324548193945 126.68067546628468 L 360.96324548193945 126.68067546628468 L 360.96324548193945 126.68067546628468 L 360.3517579391361 126.68067546628468 L 360.3517579391361 126.68067546628468 L 360.3517579391361 126.68067546628468 L 360.3517579391361 126.68067546628468 L 360.3517579391361 126.68067546628468 L 360.3517579391361 126.68067546628468 L 359.7402703963328 126.68067546628468 L 359.7402703963328 126.68067546628468 L 359.7402703963328 126.68067546628468 L 359.7402703963328 126.68067546628468 L 359.7402703963328 126.68067546628468 L 359.7402703963328 126.68067546628468 L 359.12878285352946 126.68067546628468 L 359.12878285352946 126.68067546628468 L 359.12878285352946 126.68067546628468 L 359.12878285352946 126.68067546628468 L 359.12878285352946 126.68067546628468 L 359.12878285352946 126.68067546628468 L 358.5172953107262 126.68067546628468 L 358.5172953107262 126.68067546628468 L 358.5172953107262 126.68067546628468 L 358.5172953107262 126.68067546628468 L 358.5172953107262 126.68067546628468 L 358.5172953107262 126.68067546628468 L 357.90580776792285 126.68067546628468 L 357.90580776792285 126.68067546628468 L 357.90580776792285 126.68067546628468 L 357.90580776792285 126.68067546628468 L 357.90580776792285 126.68067546628468 L 357.2943202251195 126.68067546628468 L 357.2943202251195 126.68067546628468 L 357.2943202251195 126.68067546628468 L 357.2943202251195 126.68067546628468 L 357.2943202251195 126.68067546628468 L 357.2943202251195 126.68067546628468 L 356.6828326823162 126.68067546628468 L 356.6828326823162 126.06918792348137 L 356.6828326823162 126.06918792348137 L 356.6828326823162 126.06918792348137 L 356.6828326823162 126.06918792348137 L 356.6828326823162 126.06918792348137 L 356.07134513951286 126.68067546628468 L 356.07134513951286 126.68067546628468 L 356.07134513951286 126.68067546628468 L 356.07134513951286 126.68067546628468 L 356.07134513951286 126.68067546628468 L 356.07134513951286 126.68067546628468 L 355.4598575967096 126.68067546628468 L 355.4598575967096 126.68067546628468 L 355.4598575967096 126.68067546628468 L 355.4598575967096 126.68067546628468 L 355.4598575967096 126.68067546628468 L 355.4598575967096 126.68067546628468 L 354.84837005390625 126.68067546628468 L 354.84837005390625 126.68067546628468 L 354.84837005390625 126.68067546628468 L 354.84837005390625 126.68067546628468 L 354.84837005390625 126.68067546628468 L 354.2368825111029 126.68067546628468 L 354.2368825111029 126.68067546628468 L 354.2368825111029 126.68067546628468 L 354.2368825111029 126.68067546628468 L 354.2368825111029 126.68067546628468 L 354.2368825111029 126.68067546628468 L 353.6253949682996 126.68067546628468 L 353.6253949682996 126.68067546628468 L 353.6253949682996 126.68067546628468 L 353.6253949682996 126.68067546628468 L 353.6253949682996 126.68067546628468 L 353.6253949682996 126.68067546628468 L 353.6253949682996 126.68067546628468 L 353.6253949682996 126.68067546628468 L 353.01390742549626 126.68067546628468 L 353.01390742549626 126.68067546628468 L 353.01390742549626 126.68067546628468 L 353.01390742549626 126.68067546628468 L 353.01390742549626 126.68067546628468 L 353.01390742549626 126.68067546628468 L 353.01390742549626 126.68067546628468 L 352.402419882693 126.68067546628468 L 352.402419882693 126.68067546628468 L 352.402419882693 126.68067546628468 L 352.402419882693 126.68067546628468 L 352.402419882693 126.68067546628468 L 352.402419882693 126.68067546628468 L 351.79093233988965 126.68067546628468 L 351.79093233988965 126.68067546628468 L 351.79093233988965 126.68067546628468 L 351.79093233988965 126.68067546628468 L 351.79093233988965 126.68067546628468 L 351.79093233988965 126.68067546628468 L 351.79093233988965 126.68067546628468 L 351.1794447970863 126.68067546628468 L 351.1794447970863 126.68067546628468 L 351.1794447970863 126.68067546628468 L 351.1794447970863 126.68067546628468 L 351.1794447970863 126.68067546628468 L 351.1794447970863 126.68067546628468 L 351.1794447970863 126.68067546628468 L 350.567957254283 126.68067546628468 L 350.567957254283 126.68067546628468 L 350.567957254283 126.68067546628468 L 350.567957254283 126.68067546628468 L 350.567957254283 126.68067546628468 L 350.567957254283 126.68067546628468 L 350.567957254283 126.68067546628468 L 349.95646971147966 126.68067546628468 L 349.95646971147966 126.68067546628468 L 349.95646971147966 126.68067546628468 L 349.95646971147966 126.68067546628468 L 349.95646971147966 127.292163009088 L 349.95646971147966 127.292163009088 L 349.95646971147966 127.292163009088 L 349.3449821686764 127.292163009088 L 349.3449821686764 127.292163009088 L 349.3449821686764 127.292163009088 L 349.3449821686764 127.292163009088 L 349.3449821686764 127.292163009088 L 349.3449821686764 127.292163009088 L 348.73349462587305 127.292163009088 L 348.73349462587305 127.292163009088 L 348.73349462587305 127.292163009088 L 348.73349462587305 127.292163009088 L 348.73349462587305 127.292163009088 L 348.73349462587305 127.292163009088 L 348.73349462587305 127.292163009088 L 348.1220070830697 127.292163009088 L 348.1220070830697 127.292163009088 L 348.1220070830697 127.292163009088 L 348.1220070830697 127.292163009088 L 348.1220070830697 127.292163009088 L 348.1220070830697 127.292163009088 L 348.1220070830697 127.292163009088 L 347.5105195402664 127.292163009088 L 347.5105195402664 127.292163009088 L 347.5105195402664 127.292163009088 L 347.5105195402664 127.292163009088 L 347.5105195402664 127.292163009088 L 347.5105195402664 127.292163009088 L 347.5105195402664 127.292163009088 L 346.89903199746306 127.292163009088 L 346.89903199746306 127.292163009088 L 346.89903199746306 127.90365055189132 L 346.89903199746306 127.90365055189132 L 346.89903199746306 127.90365055189132 L 346.89903199746306 127.90365055189132 L 346.89903199746306 127.90365055189132 L 346.2875444546598 127.90365055189132 L 346.2875444546598 127.90365055189132 L 346.2875444546598 127.90365055189132 L 346.2875444546598 127.90365055189132 L 346.2875444546598 127.90365055189132 L 346.2875444546598 127.90365055189132 L 346.2875444546598 127.90365055189132 L 345.67605691185645 127.90365055189132 L 345.67605691185645 127.90365055189132 L 345.67605691185645 127.90365055189132 L 345.67605691185645 127.90365055189132 L 345.67605691185645 127.90365055189132 L 345.67605691185645 127.90365055189132 L 345.67605691185645 127.90365055189132 L 345.0645693690531 127.90365055189132 L 345.0645693690531 127.90365055189132 L 345.0645693690531 127.90365055189132 L 345.0645693690531 127.90365055189132 L 345.0645693690531 127.90365055189132 L 345.0645693690531 127.90365055189132 L 345.0645693690531 128.51513809469463 L 345.0645693690531 128.51513809469463 L 345.0645693690531 128.51513809469463 L 344.4530818262498 128.51513809469463 L 344.4530818262498 128.51513809469463 L 344.4530818262498 128.51513809469463 L 344.4530818262498 128.51513809469463 L 344.4530818262498 128.51513809469463 L 344.4530818262498 128.51513809469463 L 344.4530818262498 128.51513809469463 L 344.4530818262498 128.51513809469463 L 344.4530818262498 128.51513809469463 L 344.4530818262498 128.51513809469463 L 344.4530818262498 128.51513809469463 L 344.4530818262498 128.51513809469463 L 344.4530818262498 128.51513809469463 L 343.84159428344645 128.51513809469463 L 343.84159428344645 128.51513809469463 L 343.84159428344645 128.51513809469463 L 343.84159428344645 128.51513809469463 L 343.84159428344645 128.51513809469463 L 343.84159428344645 128.51513809469463 L 343.84159428344645 128.51513809469463 L 343.84159428344645 128.51513809469463 L 343.84159428344645 128.51513809469463 L 343.84159428344645 128.51513809469463 L 343.84159428344645 128.51513809469463 L 343.84159428344645 128.51513809469463 L 343.2301067406432 128.51513809469463 L 343.2301067406432 128.51513809469463 L 343.2301067406432 128.51513809469463 L 343.2301067406432 128.51513809469463 L 343.2301067406432 129.12662563749797 L 343.2301067406432 129.12662563749797 L 343.2301067406432 129.12662563749797 L 343.2301067406432 129.12662563749797 L 343.2301067406432 129.12662563749797 L 343.2301067406432 129.12662563749797 L 343.2301067406432 129.12662563749797 L 343.2301067406432 129.12662563749797 L 342.61861919783985 129.12662563749797 L 342.61861919783985 129.12662563749797 L 342.61861919783985 129.12662563749797 L 342.61861919783985 129.12662563749797 L 342.61861919783985 129.12662563749797 L 342.61861919783985 129.12662563749797 L 342.61861919783985 129.12662563749797 L 342.61861919783985 129.12662563749797 L 342.61861919783985 129.12662563749797 L 342.61861919783985 129.12662563749797 L 342.61861919783985 129.12662563749797 L 342.61861919783985 129.12662563749797 L 342.0071316550365 129.12662563749797 L 342.0071316550365 129.12662563749797 L 342.0071316550365 129.12662563749797 L 342.0071316550365 129.12662563749797 L 342.0071316550365 129.12662563749797 L 342.0071316550365 129.12662563749797 L 342.0071316550365 129.73811318030127 L 342.0071316550365 129.73811318030127 L 342.0071316550365 129.73811318030127 L 342.0071316550365 129.73811318030127 L 342.0071316550365 129.73811318030127 L 342.0071316550365 129.73811318030127 L 342.0071316550365 129.73811318030127 L 341.3956441122332 129.73811318030127 L 341.3956441122332 129.73811318030127 L 341.3956441122332 129.73811318030127 L 341.3956441122332 129.73811318030127 L 341.3956441122332 129.73811318030127 L 341.3956441122332 129.73811318030127 L 341.3956441122332 129.73811318030127 L 341.3956441122332 129.73811318030127 L 341.3956441122332 129.73811318030127 L 341.3956441122332 129.73811318030127 L 341.3956441122332 129.73811318030127 L 341.3956441122332 129.73811318030127 L 341.3956441122332 129.73811318030127 L 340.78415656942985 129.73811318030127 L 340.78415656942985 129.73811318030127 L 340.78415656942985 129.73811318030127 L 340.78415656942985 129.73811318030127 L 340.78415656942985 130.3496007231046 L 340.78415656942985 130.3496007231046 L 340.78415656942985 130.3496007231046 L 340.78415656942985 130.3496007231046 L 340.78415656942985 130.3496007231046 L 340.78415656942985 130.3496007231046 L 340.78415656942985 130.3496007231046 L 340.78415656942985 130.3496007231046 L 340.78415656942985 130.3496007231046 L 340.1726690266266 130.3496007231046 L 340.1726690266266 130.3496007231046 L 340.1726690266266 130.3496007231046 L 340.1726690266266 130.3496007231046 L 340.1726690266266 130.3496007231046 L 340.1726690266266 130.3496007231046 L 340.1726690266266 130.3496007231046 L 340.1726690266266 130.3496007231046 L 340.1726690266266 130.3496007231046" stroke="rgb(132, 0, 0)" fill="none" stroke-width="1.22727830581px" stroke-linecap="round"/><path d="M 342.0071316550365 105.8900990109718 L 342.0071316550365 114.45092461021828 L 342.0071316550365 114.45092461021828 L 342.0071316550365 105.8900990109718" stroke="rgb(132, 0, 0)" fill="none" stroke-width="1.22727830581px" stroke-linecap="round"/><path d="M 337.72671885541325 109.55902426779171 L 346.2875444546598 109.55902426779171 L 346.2875444546598 110.17051181059503 L 337.72671885541325 110.17051181059503" stroke="rgb(132, 0, 0)" fill="none" stroke-width="1.22727830581px" stroke-linecap="round"/><text x="370.1022539549704" y="115.77255257097302" stroke="rgb(245, 241, 237)" stroke-width="1.22727830581px" paint-order="stroke" fill="rgb(15, 15, 15)" font-family="sans-serif" text-anchor="start" dominant-baseline="auto" font-size="11.04550475229px">C2</text><text x="370.1022539549704" y="133.91987310477643" fill="rgb(15, 15, 15)" font-family="sans-serif" text-anchor="start" dominant-baseline="hanging" font-size="11.04550475229px">100nF</text></g><g data-circuit-json-type="schematic_component" data-schematic-component-id="schematic_component_3"><rect class="component-overlay" x="554.2306781617956" y="90.5283855625286" width="32.59438804435251" height="67.64872990337307" fill="transparent"/><path d="M 570.8353664108054 158.17711546590166 L 570.8353664108054 128.65766968988433" stroke="rgb(132, 0, 0)" fill="none" stroke-width="1.22727830581px" stroke-linecap="round"/><path d="M 570.8353664108054 118.81785443121187 L 570.8353664108054 90.5283855625286" stroke="rgb(132, 0, 0)" fill="none" stroke-width="1.22727830581px" stroke-linecap="round"/><path d="M 586.8250662061481 128.65766968988433 L 554.2306781617956 128.65766968988433" stroke="rgb(132, 0, 0)" fill="none" stroke-width="1.22727830581px" stroke-linecap="round"/><path d="M 586.8250662061481 118.81785443121187 L 554.2306781617956 118.81785443121187" stroke="rgb(132, 0, 0)" fill="none" stroke-width="1.22727830581px" stroke-linecap="round"/><text x="576.6777567206422" y="112.16322331443025" stroke="rgb(245, 241, 237)" stroke-width="1.22727830581px" paint-order="stroke" fill="rgb(15, 15, 15)" font-family="sans-serif" text-anchor="start" dominant-baseline="auto" font-size="11.04550475229px">C3</text><text x="576.6777567206422" y="136.542277714" fill="rgb(15, 15, 15)" font-family="sans-serif" text-anchor="start" dominant-baseline="hanging" font-size="11.04550475229px">100nF</text></g><g data-circuit-json-type="schematic_component" data-schematic-component-id="schematic_component_4"><rect class="component chip" x="1101.650007499875" y="191.92996331804997" width="42.9547407033499" height="110.4550475229" stroke-width="1.22727830581px" fill="rgb(255, 255, 194)" stroke="rgb(132, 0, 0)"/><rect class="component-overlay" x="1101.650007499875" y="191.92996331804997" width="42.9547407033499" height="110.4550475229" fill="transparent"/><text x="1101.650007499875" y="310.362319828715" fill="#006464" text-anchor="start" dominant-baseline="middle" font-family="sans-serif" font-size="11.04550475229px" transform="rotate(0, 1101.650007499875, 310.362319828715)"></text><text x="1101.650007499875" y="183.952654330285" fill="#006464" text-anchor="start" dominant-baseline="middle" font-family="sans-serif" font-size="11.04550475229px" transform="rotate(0, 1101.650007499875, 183.952654330285)">JP1</text><line class="component-pin" x1="1101.650007499875" y1="204.20274637614997" x2="1077.104441383675" y2="204.20274637614997" stroke-width="1.22727830581px"/><g data-schematic-port-id="source_port_20"><rect x="1075.8771630778651" y="202.97546807033999" width="2.45455661162" height="2.45455661162" opacity="0"/></g><text class="pin-number" x="1089.377224441775" y="202.97546807033996" style="font-family: sans-serif;" fill="rgb(169, 0, 0)" text-anchor="middle" dominant-baseline="auto" font-size="9.204587293575px" transform="">1</text><text class="pin-number" x="1107.786399028925" y="204.20274637614997" style="font-family: sans-serif;" fill="rgb(169, 0, 0)" text-anchor="start" dominant-baseline="middle" font-size="9.204587293575px" transform="">GND</text><line class="component-pin" x1="1101.650007499875" y1="216.47552943424998" x2="1077.104441383675" y2="216.47552943424998" stroke-width="1.22727830581px"/><g data-schematic-port-id="source_port_21"><rect x="1075.8771630778651" y="215.24825112844" width="2.45455661162" height="2.45455661162" opacity="0"/></g><text class="pin-number" x="1089.377224441775" y="215.24825112843996" style="font-family: sans-serif;" fill="rgb(169, 0, 0)" text-anchor="middle" dominant-baseline="auto" font-size="9.204587293575px" transform="">2</text><text class="pin-number" x="1107.786399028925" y="216.47552943424998" style="font-family: sans-serif;" fill="rgb(169, 0, 0)" text-anchor="start" dominant-baseline="middle" font-size="9.204587293575px" transform="">VCC</text><line class="component-pin" x1="1101.650007499875" y1="228.74831249234998" x2="1077.104441383675" y2="228.74831249234998" stroke-width="1.22727830581px"/><g data-schematic-port-id="source_port_22"><rect x="1075.8771630778651" y="227.52103418654" width="2.45455661162" height="2.45455661162" opacity="0"/></g><text class="pin-number" x="1089.377224441775" y="227.52103418653996" style="font-family: sans-serif;" fill="rgb(169, 0, 0)" text-anchor="middle" dominant-baseline="auto" font-size="9.204587293575px" transform="">3</text><text class="pin-number" x="1107.786399028925" y="228.74831249234998" style="font-family: sans-serif;" fill="rgb(169, 0, 0)" text-anchor="start" dominant-baseline="middle" font-size="9.204587293575px" transform="">CS</text><line class="component-pin" x1="1101.650007499875" y1="241.02109555044999" x2="1077.104441383675" y2="241.02109555044999" stroke-width="1.22727830581px"/><g data-schematic-port-id="source_port_23"><rect x="1075.8771630778651" y="239.79381724464" width="2.45455661162" height="2.45455661162" opacity="0"/></g><text class="pin-number" x="1089.377224441775" y="239.79381724463997" style="font-family: sans-serif;" fill="rgb(169, 0, 0)" text-anchor="middle" dominant-baseline="auto" font-size="9.204587293575px" transform="">4</text><text class="pin-number" x="1107.786399028925" y="241.02109555044999" style="font-family: sans-serif;" fill="rgb(169, 0, 0)" text-anchor="start" dominant-baseline="middle" font-size="9.204587293575px" transform="">INIT1</text><line class="component-pin" x1="1101.650007499875" y1="253.29387860855" x2="1077.104441383675" y2="253.29387860855" stroke-width="1.22727830581px"/><g data-schematic-port-id="source_port_24"><rect x="1075.8771630778651" y="252.06660030274" width="2.45455661162" height="2.45455661162" opacity="0"/></g><text class="pin-number" x="1089.377224441775" y="252.06660030273997" style="font-family: sans-serif;" fill="rgb(169, 0, 0)" text-anchor="middle" dominant-baseline="auto" font-size="9.204587293575px" transform="">5</text><text class="pin-number" x="1107.786399028925" y="253.29387860855" style="font-family: sans-serif;" fill="rgb(169, 0, 0)" text-anchor="start" dominant-baseline="middle" font-size="9.204587293575px" transform="">INIT2</text><line class="component-pin" x1="1101.650007499875" y1="265.56666166664996" x2="1077.104441383675" y2="265.56666166664996" stroke-width="1.22727830581px"/><g data-schematic-port-id="source_port_25"><rect x="1075.8771630778651" y="264.33938336084" width="2.45455661162" height="2.45455661162" opacity="0"/></g><text class="pin-number" x="1089.377224441775" y="264.33938336084" style="font-family: sans-serif;" fill="rgb(169, 0, 0)" text-anchor="middle" dominant-baseline="auto" font-size="9.204587293575px" transform="">6</text><text class="pin-number" x="1107.786399028925" y="265.56666166664996" style="font-family: sans-serif;" fill="rgb(169, 0, 0)" text-anchor="start" dominant-baseline="middle" font-size="9.204587293575px" transform="">SDO</text><line class="component-pin" x1="1101.650007499875" y1="277.83944472474997" x2="1077.104441383675" y2="277.83944472474997" stroke-width="1.22727830581px"/><g data-schematic-port-id="source_port_26"><rect x="1075.8771630778651" y="276.61216641894" width="2.45455661162" height="2.45455661162" opacity="0"/></g><text class="pin-number" x="1089.377224441775" y="276.61216641894" style="font-family: sans-serif;" fill="rgb(169, 0, 0)" text-anchor="middle" dominant-baseline="auto" font-size="9.204587293575px" transform="">7</text><text class="pin-number" x="1107.786399028925" y="277.83944472474997" style="font-family: sans-serif;" fill="rgb(169, 0, 0)" text-anchor="start" dominant-baseline="middle" font-size="9.204587293575px" transform="">SDA</text><line class="component-pin" x1="1101.650007499875" y1="290.11222778284997" x2="1077.104441383675" y2="290.11222778284997" stroke-width="1.22727830581px"/><g data-schematic-port-id="source_port_27"><rect x="1075.8771630778651" y="288.88494947704" width="2.45455661162" height="2.45455661162" opacity="0"/></g><text class="pin-number" x="1089.377224441775" y="288.88494947704" style="font-family: sans-serif;" fill="rgb(169, 0, 0)" text-anchor="middle" dominant-baseline="auto" font-size="9.204587293575px" transform="">8</text><text class="pin-number" x="1107.786399028925" y="290.11222778284997" style="font-family: sans-serif;" fill="rgb(169, 0, 0)" text-anchor="start" dominant-baseline="middle" font-size="9.204587293575px" transform="">SCL</text></g><g class="schematic-port-hover" data-schematic-port-id="source_port_0"><circle cx="650.6252301147" cy="277.83944472474997" r="2.45455661162" fill="red" opacity="0"/></g><g class="schematic-port-hover" data-schematic-port-id="source_port_1"><circle cx="650.6252301147" cy="376.02170918955" r="2.45455661162" fill="red" opacity="0"/></g><g class="schematic-port-hover" data-schematic-port-id="source_port_2"><circle cx="650.6252301147" cy="320.7941854281" r="2.45455661162" fill="red" opacity="0"/></g><g class="schematic-port-hover" data-schematic-port-id="source_port_3"><circle cx="650.6252301147" cy="388.29449224764994" r="2.45455661162" fill="red" opacity="0"/></g><g class="schematic-port-hover" data-schematic-port-id="source_port_4"><circle cx="650.6252301147" cy="400.56727530574994" r="2.45455661162" fill="red" opacity="0"/></g><g class="schematic-port-hover" data-schematic-port-id="source_port_5"><circle cx="650.6252301147" cy="290.11222778284997" r="2.45455661162" fill="red" opacity="0"/></g><g class="schematic-port-hover" data-schematic-port-id="source_port_6"><circle cx="797.8986268119" cy="277.83944472474997" r="2.45455661162" fill="red" opacity="0"/></g><g class="schematic-port-hover" data-schematic-port-id="source_port_7"><circle cx="797.8986268119" cy="363.74892613145" r="2.45455661162" fill="red" opacity="0"/></g><g class="schematic-port-hover" data-schematic-port-id="source_port_8"><circle cx="797.8986268119" cy="376.02170918954994" r="2.45455661162" fill="red" opacity="0"/></g><g class="schematic-port-hover" data-schematic-port-id="source_port_9"><circle cx="650.6252301147" cy="333.0669684862" r="2.45455661162" fill="red" opacity="0"/></g><g class="schematic-port-hover" data-schematic-port-id="source_port_10"><circle cx="650.6252301147" cy="345.3397515443" r="2.45455661162" fill="red" opacity="0"/></g><g class="schematic-port-hover" data-schematic-port-id="source_port_11"><circle cx="797.8986268119" cy="308.52140237" r="2.45455661162" fill="red" opacity="0"/></g><g class="schematic-port-hover" data-schematic-port-id="source_port_12"><circle cx="797.8986268119" cy="320.7941854281" r="2.45455661162" fill="red" opacity="0"/></g><g class="schematic-port-hover" data-schematic-port-id="source_port_13"><circle cx="797.8986268119" cy="333.0669684862" r="2.45455661162" fill="red" opacity="0"/></g><g class="schematic-port-hover" data-schematic-port-id="source_port_14"><circle cx="417.4255781845554" cy="90.60529570596415" r="2.45455661162" fill="red" opacity="0"/></g><g class="schematic-port-hover" data-schematic-port-id="source_port_15"><circle cx="417.45912583704467" cy="158.25401729103578" r="2.45455661162" fill="red" opacity="0"/></g><g class="schematic-port-hover" data-schematic-port-id="source_port_16"><circle cx="356.0952105465447" cy="154.69828521952775" r="2.45455661162" fill="red" opacity="0"/></g><g class="schematic-port-hover" data-schematic-port-id="source_port_17"><circle cx="356.0616628940553" cy="94.16102777747219" r="2.45455661162" fill="red" opacity="0"/></g><g class="schematic-port-hover" data-schematic-port-id="source_port_18"><circle cx="570.8353664108054" cy="90.60529570596415" r="2.45455661162" fill="red" opacity="0"/></g><g class="schematic-port-hover" data-schematic-port-id="source_port_19"><circle cx="570.8689140632946" cy="158.25401729103578" r="2.45455661162" fill="red" opacity="0"/></g><g class="schematic-port-hover" data-schematic-port-id="source_port_20"><circle cx="1077.104441383675" cy="204.20274637614997" r="2.45455661162" fill="red" opacity="0"/></g><g class="schematic-port-hover" data-schematic-port-id="source_port_21"><circle cx="1077.104441383675" cy="216.47552943424998" r="2.45455661162" fill="red" opacity="0"/></g><g class="schematic-port-hover" data-schematic-port-id="source_port_22"><circle cx="1077.104441383675" cy="228.74831249234998" r="2.45455661162" fill="red" opacity="0"/></g><g class="schematic-port-hover" data-schematic-port-id="source_port_23"><circle cx="1077.104441383675" cy="241.02109555044999" r="2.45455661162" fill="red" opacity="0"/></g><g class="schematic-port-hover" data-schematic-port-id="source_port_24"><circle cx="1077.104441383675" cy="253.29387860855" r="2.45455661162" fill="red" opacity="0"/></g><g class="schematic-port-hover" data-schematic-port-id="source_port_25"><circle cx="1077.104441383675" cy="265.56666166664996" r="2.45455661162" fill="red" opacity="0"/></g><g class="schematic-port-hover" data-schematic-port-id="source_port_26"><circle cx="1077.104441383675" cy="277.83944472474997" r="2.45455661162" fill="red" opacity="0"/></g><g class="schematic-port-hover" data-schematic-port-id="source_port_27"><circle cx="1077.104441383675" cy="290.11222778284997" r="2.45455661162" fill="red" opacity="0"/></g><rect class="component-overlay" x="563.4884704021899" y="50.716253255786825" width="14.727339669720095" height="12.349487952213124" fill="transparent"/><path d="M 570.85214023705 50.716253255786825 L 563.4884704021899 56.3029263770261" stroke="rgb(132, 0, 0)" fill="none" stroke-width="1.22727830581px" stroke-linecap="round"/><path d="M 570.85214023705 50.716253255786825 L 578.21581007191 56.3029263770261" stroke="rgb(132, 0, 0)" fill="none" stroke-width="1.22727830581px" stroke-linecap="round"/><path d="M 570.85214023705 50.716253255786825 L 570.85214023705 63.06574120799995" stroke="rgb(132, 0, 0)" fill="none" stroke-width="1.22727830581px" stroke-linecap="round"/><text x="570.85214023705" y="48.95204069118495" fill="rgb(15, 15, 15)" font-family="sans-serif" text-anchor="middle" dominant-baseline="ideographic" font-size="11.04550475229px">VCC</text><rect class="component-overlay" x="556.738439720235" y="185.79357178899997" width="27.0001227278201" height="29.45467933944002" fill="transparent"/><path d="M 570.85214023705 185.79357178899997 L 570.238501084145 206.043663834865" stroke="rgb(132, 0, 0)" fill="none" stroke-width="1.22727830581px" stroke-linecap="round"/><path d="M 556.738439720235 206.043663834865 L 583.7385624480551 206.043663834865" stroke="rgb(132, 0, 0)" fill="none" stroke-width="1.22727830581px" stroke-linecap="round"/><path d="M 559.80663548476 210.95277705810497 L 580.67036668353 210.95277705810497" stroke="rgb(132, 0, 0)" fill="none" stroke-width="1.22727830581px" stroke-linecap="round"/><path d="M 566.556666166715 215.24825112844 L 573.920336001575 215.24825112844" stroke="rgb(132, 0, 0)" fill="none" stroke-width="1.22727830581px" stroke-linecap="round"/><text x="569.011222778335" y="222.61192096329998" fill="rgb(15, 15, 15)" font-family="sans-serif" text-anchor="middle" dominant-baseline="hanging" font-size="11.04550475229px">GND</text><rect class="component-overlay" x="379.39672453069" y="50.716253255786825" width="14.727339669719981" height="12.349487952213124" fill="transparent"/><path d="M 386.76039436555 50.716253255786825 L 379.39672453069 56.3029263770261" stroke="rgb(132, 0, 0)" fill="none" stroke-width="1.22727830581px" stroke-linecap="round"/><path d="M 386.76039436555 50.716253255786825 L 394.12406420041 56.3029263770261" stroke="rgb(132, 0, 0)" fill="none" stroke-width="1.22727830581px" stroke-linecap="round"/><path d="M 386.76039436555 50.716253255786825 L 386.76039436555 63.06574120799995" stroke="rgb(132, 0, 0)" fill="none" stroke-width="1.22727830581px" stroke-linecap="round"/><text x="386.76039436555" y="48.95204069118495" fill="rgb(15, 15, 15)" font-family="sans-serif" text-anchor="middle" dominant-baseline="ideographic" font-size="11.04550475229px">VCC</text><rect class="component-overlay" x="372.646693848735" y="185.79357178899997" width="27.000122727819985" height="29.45467933944002" fill="transparent"/><path d="M 386.76039436555004 185.79357178899997 L 386.146755212645 206.043663834865" stroke="rgb(132, 0, 0)" fill="none" stroke-width="1.22727830581px" stroke-linecap="round"/><path d="M 372.646693848735 206.043663834865 L 399.646816576555 206.043663834865" stroke="rgb(132, 0, 0)" fill="none" stroke-width="1.22727830581px" stroke-linecap="round"/><path d="M 375.71488961326 210.95277705810497 L 396.57862081203 210.95277705810497" stroke="rgb(132, 0, 0)" fill="none" stroke-width="1.22727830581px" stroke-linecap="round"/><path d="M 382.464920295215 215.24825112844 L 389.82859013007504 215.24825112844" stroke="rgb(132, 0, 0)" fill="none" stroke-width="1.22727830581px" stroke-linecap="round"/><text x="384.91947690683503" y="222.61192096329998" fill="rgb(15, 15, 15)" font-family="sans-serif" text-anchor="middle" dominant-baseline="hanging" font-size="11.04550475229px">GND</text><rect class="component-overlay" x="630.98877722174" y="253.21717371443683" width="14.727339669720095" height="12.349487952213138" fill="transparent"/><path d="M 638.3524470566 253.21717371443683 L 630.98877722174 258.8038468356761" stroke="rgb(132, 0, 0)" fill="none" stroke-width="1.22727830581px" stroke-linecap="round"/><path d="M 638.3524470566 253.21717371443683 L 645.71611689146 258.8038468356761" stroke="rgb(132, 0, 0)" fill="none" stroke-width="1.22727830581px" stroke-linecap="round"/><path d="M 638.3524470566 253.21717371443683 L 638.3524470566 265.56666166664996" stroke="rgb(132, 0, 0)" fill="none" stroke-width="1.22727830581px" stroke-linecap="round"/><text x="638.3524470566" y="251.45296114983495" fill="rgb(15, 15, 15)" font-family="sans-serif" text-anchor="middle" dominant-baseline="ideographic" font-size="11.04550475229px">VCC</text><rect class="component-overlay" x="624.238746539785" y="412.84005836385" width="27.0001227278201" height="29.454679339439963" fill="transparent"/><path d="M 638.3524470566 412.84005836385 L 637.738807903695 433.09015040971497" stroke="rgb(132, 0, 0)" fill="none" stroke-width="1.22727830581px" stroke-linecap="round"/><path d="M 624.238746539785 433.09015040971497 L 651.2388692676051 433.09015040971497" stroke="rgb(132, 0, 0)" fill="none" stroke-width="1.22727830581px" stroke-linecap="round"/><path d="M 627.30694230431 437.999263632955 L 648.17067350308 437.999263632955" stroke="rgb(132, 0, 0)" fill="none" stroke-width="1.22727830581px" stroke-linecap="round"/><path d="M 634.056972986265 442.29473770328997 L 641.420642821125 442.29473770328997" stroke="rgb(132, 0, 0)" fill="none" stroke-width="1.22727830581px" stroke-linecap="round"/><text x="636.511529597885" y="449.65840753814996" fill="rgb(15, 15, 15)" font-family="sans-serif" text-anchor="middle" dominant-baseline="hanging" font-size="11.04550475229px">GND</text><rect class="component-overlay" x="1023.71783508094" y="173.44408383678683" width="14.727339669720095" height="12.349487952213138" fill="transparent"/><path d="M 1031.0815049158 173.44408383678683 L 1023.71783508094 179.0307569580261" stroke="rgb(132, 0, 0)" fill="none" stroke-width="1.22727830581px" stroke-linecap="round"/><path d="M 1031.0815049158 173.44408383678683 L 1038.44517475066 179.0307569580261" stroke="rgb(132, 0, 0)" fill="none" stroke-width="1.22727830581px" stroke-linecap="round"/><path d="M 1031.0815049158 173.44408383678683 L 1031.0815049158 185.79357178899997" stroke="rgb(132, 0, 0)" fill="none" stroke-width="1.22727830581px" stroke-linecap="round"/><text x="1031.0815049158" y="171.67987127218495" fill="rgb(15, 15, 15)" font-family="sans-serif" text-anchor="middle" dominant-baseline="ideographic" font-size="11.04550475229px">VCC</text><path class="net-label" d="
    M 797.8986268119,277.83944472474997
    L 801.212278237587,271.21214187337597
    L 822.6651030231459,271.21214187337597
    L 822.6651030231459,284.46674757612396
    L 801.212278237587,284.46674757612396
    Z
  " fill="rgba(255, 255, 255, 0.6)" stroke="rgb(132, 0, 0)" stroke-width="1.22727830581px"/><text class="net-label-text" x="803.4213791880451" y="277.83944472474997" fill="rgb(132, 0, 0)" text-anchor="start" dominant-baseline="central" font-family="sans-serif" font-variant-numeric="tabular-nums" font-size="11.04550475229px" transform="">CS</text><path class="net-label" d="
    M 797.8986268119,308.52140237
    L 801.212278237587,301.894099518626
    L 831.1005959117466,301.894099518626
    L 831.1005959117466,315.148705221374
    L 801.212278237587,315.148705221374
    Z
  " fill="rgba(255, 255, 255, 0.6)" stroke="rgb(132, 0, 0)" stroke-width="1.22727830581px"/><text class="net-label-text" x="803.4213791880451" y="308.52140237" fill="rgb(132, 0, 0)" text-anchor="start" dominant-baseline="central" font-family="sans-serif" font-variant-numeric="tabular-nums" font-size="11.04550475229px" transform="">SDO</text><path class="net-label" d="
    M 797.8986268119,320.7941854281
    L 801.212278237587,314.166882576726
    L 829.8733176059366,314.166882576726
    L 829.8733176059366,327.421488279474
    L 801.212278237587,327.421488279474
    Z
  " fill="rgba(255, 255, 255, 0.6)" stroke="rgb(132, 0, 0)" stroke-width="1.22727830581px"/><text class="net-label-text" x="803.4213791880451" y="320.7941854281" fill="rgb(132, 0, 0)" text-anchor="start" dominant-baseline="central" font-family="sans-serif" font-variant-numeric="tabular-nums" font-size="11.04550475229px" transform="">SDA</text><path class="net-label" d="
    M 797.8986268119,333.0669684862
    L 801.212278237587,326.439665634826
    L 828.6460393001266,326.439665634826
    L 828.6460393001266,339.694271337574
    L 801.212278237587,339.694271337574
    Z
  " fill="rgba(255, 255, 255, 0.6)" stroke="rgb(132, 0, 0)" stroke-width="1.22727830581px"/><text class="net-label-text" x="803.4213791880451" y="333.0669684862" fill="rgb(132, 0, 0)" text-anchor="start" dominant-baseline="central" font-family="sans-serif" font-variant-numeric="tabular-nums" font-size="11.04550475229px" transform="">SCL</text><path class="net-label" d="
    M 797.8986268119,363.74892613145
    L 801.212278237587,357.121623280076
    L 831.763326196884,357.121623280076
    L 831.763326196884,370.376228982824
    L 801.212278237587,370.376228982824
    Z
  " fill="rgba(255, 255, 255, 0.6)" stroke="rgb(132, 0, 0)" stroke-width="1.22727830581px"/><text class="net-label-text" x="803.4213791880451" y="363.74892613145" fill="rgb(132, 0, 0)" text-anchor="start" dominant-baseline="central" font-family="sans-serif" font-variant-numeric="tabular-nums" font-size="11.04550475229px" transform="">INT1</text><path class="net-label" d="
    M 797.8986268119,376.02170918954994
    L 801.212278237587,369.39440633817594
    L 831.763326196884,369.39440633817594
    L 831.763326196884,382.64901204092394
    L 801.212278237587,382.64901204092394
    Z
  " fill="rgba(255, 255, 255, 0.6)" stroke="rgb(132, 0, 0)" stroke-width="1.22727830581px"/><text class="net-label-text" x="803.4213791880451" y="376.02170918954994" fill="rgb(132, 0, 0)" text-anchor="start" dominant-baseline="central" font-family="sans-serif" font-variant-numeric="tabular-nums" font-size="11.04550475229px" transform="">INT2</text><path class="net-label" d="
    M 1077.104441383675,204.20274637614997
    L 1073.790789957988,210.83004922752397
    L 1043.4933795152251,210.83004922752397
    L 1043.4933795152251,197.57544352477598
    L 1073.790789957988,197.57544352477598
    Z
  " fill="rgba(255, 255, 255, 0.6)" stroke="rgb(132, 0, 0)" stroke-width="1.22727830581px"/><text class="net-label-text" x="1071.58168900753" y="204.20274637614997" fill="rgb(132, 0, 0)" text-anchor="end" dominant-baseline="central" font-family="sans-serif" font-variant-numeric="tabular-nums" font-size="11.04550475229px" transform="">GND</text><path class="net-label" d="
    M 1077.104441383675,228.74831249234998
    L 1073.790789957988,235.37561534372398
    L 1052.3379651724292,235.37561534372398
    L 1052.3379651724292,222.12100964097598
    L 1073.790789957988,222.12100964097598
    Z
  " fill="rgba(255, 255, 255, 0.6)" stroke="rgb(132, 0, 0)" stroke-width="1.22727830581px"/><text class="net-label-text" x="1071.58168900753" y="228.74831249234998" fill="rgb(132, 0, 0)" text-anchor="end" dominant-baseline="central" font-family="sans-serif" font-variant-numeric="tabular-nums" font-size="11.04550475229px" transform="">CS</text><path class="net-label" d="
    M 1077.104441383675,241.02109555044999
    L 1073.790789957988,247.64839840182398
    L 1039.7133623333305,247.64839840182398
    L 1039.7133623333305,234.393792699076
    L 1073.790789957988,234.393792699076
    Z
  " fill="rgba(255, 255, 255, 0.6)" stroke="rgb(132, 0, 0)" stroke-width="1.22727830581px"/><text class="net-label-text" x="1071.58168900753" y="241.02109555044999" fill="rgb(132, 0, 0)" text-anchor="end" dominant-baseline="central" font-family="sans-serif" font-variant-numeric="tabular-nums" font-size="11.04550475229px" transform="">INIT1</text><path class="net-label" d="
    M 1077.104441383675,253.29387860855
    L 1073.790789957988,259.921181459924
    L 1039.7133623333305,259.92118145992396
    L 1039.7133623333305,246.666575757176
    L 1073.790789957988,246.666575757176
    Z
  " fill="rgba(255, 255, 255, 0.6)" stroke="rgb(132, 0, 0)" stroke-width="1.22727830581px"/><text class="net-label-text" x="1071.58168900753" y="253.29387860855" fill="rgb(132, 0, 0)" text-anchor="end" dominant-baseline="central" font-family="sans-serif" font-variant-numeric="tabular-nums" font-size="11.04550475229px" transform="">INIT2</text><path class="net-label" d="
    M 1077.104441383675,265.56666166664996
    L 1073.790789957988,272.19396451802396
    L 1043.9024722838285,272.19396451802396
    L 1043.9024722838285,258.93935881527597
    L 1073.790789957988,258.93935881527597
    Z
  " fill="rgba(255, 255, 255, 0.6)" stroke="rgb(132, 0, 0)" stroke-width="1.22727830581px"/><text class="net-label-text" x="1071.58168900753" y="265.56666166664996" fill="rgb(132, 0, 0)" text-anchor="end" dominant-baseline="central" font-family="sans-serif" font-variant-numeric="tabular-nums" font-size="11.04550475229px" transform="">SDO</text><path class="net-label" d="
    M 1077.104441383675,277.83944472474997
    L 1073.790789957988,284.46674757612396
    L 1045.1297505896384,284.46674757612396
    L 1045.1297505896384,271.21214187337597
    L 1073.790789957988,271.21214187337597
    Z
  " fill="rgba(255, 255, 255, 0.6)" stroke="rgb(132, 0, 0)" stroke-width="1.22727830581px"/><text class="net-label-text" x="1071.58168900753" y="277.83944472474997" fill="rgb(132, 0, 0)" text-anchor="end" dominant-baseline="central" font-family="sans-serif" font-variant-numeric="tabular-nums" font-size="11.04550475229px" transform="">SDA</text><path class="net-label" d="
    M 1077.104441383675,290.11222778284997
    L 1073.790789957988,296.73953063422397
    L 1046.3570288954486,296.73953063422397
    L 1046.3570288954486,283.484924931476
    L 1073.790789957988,283.484924931476
    Z
  " fill="rgba(255, 255, 255, 0.6)" stroke="rgb(132, 0, 0)" stroke-width="1.22727830581px"/><text class="net-label-text" x="1071.58168900753" y="290.11222778284997" fill="rgb(132, 0, 0)" text-anchor="end" dominant-baseline="central" font-family="sans-serif" font-variant-numeric="tabular-nums" font-size="11.04550475229px" transform="">SCL</text><text x="294.7145214298" y="541.7042804739" fill="gray" text-anchor="start" dominant-baseline="middle" font-family="sans-serif" font-size="6.136391529050001px" transform="rotate(0, 294.7145214298, 541.7042804739)">Updates</text><text x="294.7145214298" y="553.977063532" fill="gray" text-anchor="start" dominant-baseline="middle" font-family="sans-serif" font-size="6.136391529050001px" transform="rotate(0, 294.7145214298, 553.977063532)">*Non-cantilevered - added standoffs for stability</text><text x="294.7145214298" y="566.2498465901" fill="gray" text-anchor="start" dominant-baseline="middle" font-family="sans-serif" font-size="6.136391529050001px" transform="rotate(0, 294.7145214298, 566.2498465901)">*Add decoupling cap - AD suggested 10uF and 0.1uF after upto 100Ohm resistance</text></svg>