<svg xmlns="http://www.w3.org/2000/svg" width="1200" height="600" style="background-color: rgb(245, 241, 237)" data-real-to-screen-transform="matrix(61.3639152905,0,0,-61.3639152905,724.2619284633,308.52140237)" data-software-used-string="@tscircuit/core@0.0.616"><style>
              .boundary { fill: rgb(245, 241, 237); }
              .schematic-boundary { fill: none; stroke: #fff; }
              .component { fill: none; stroke: rgb(132, 0, 0); }
              .chip { fill: rgb(255, 255, 194); stroke: rgb(132, 0, 0); }
              .component-pin { fill: none; stroke: rgb(132, 0, 0); }
              .trace:hover {
                filter: invert(1);
              }
              .trace:hover .trace-crossing-outline {
                opacity: 0;
              }
              .trace:hover .trace-junction {
                filter: invert(1);
              }
              .text { font-family: sans-serif; fill: rgb(0, 150, 0); }
              .pin-number { fill: rgb(169, 0, 0); }
              .port-label { fill: rgb(0, 100, 100); }
              .component-name { fill: rgb(0, 100, 100); }
            </style><rect class="boundary" x="0" y="0" width="1200" height="600"/><g data-circuit-json-type="schematic_component" data-schematic-component-id="schematic_component_0"><rect class="component chip" x="675.1707962309" y="265.56666166664996" width="98.18226446480003" height="147.27339669719998" stroke-width="1.22727830581px" fill="rgb(255, 255, 194)" stroke="rgb(132, 0, 0)"/><rect class="component-overlay" x="675.1707962309" y="265.56666166664996" width="98.18226446480003" height="147.27339669719998" fill="transparent"/><text x="675.1707962309" y="420.81736735161496" fill="#006464" text-anchor="start" dominant-baseline="middle" font-family="sans-serif" font-size="11.04550475229px" transform="rotate(0, 675.1707962309, 420.81736735161496)">ADXL345BCCZ_RL7</text><text x="675.1707962309" y="257.589352678885" fill="#006464" text-anchor="start" dominant-baseline="middle" font-family="sans-serif" font-size="11.04550475229px" transform="rotate(0, 675.1707962309, 257.589352678885)">U1</text><line class="component-pin" x1="651.85250842051" y1="277.83944472474997" x2="675.1707962309" y2="277.83944472474997" stroke-width="1.22727830581px"/><g data-schematic-port-id="source_port_0"><rect x="649.39795180889" y="276.61216641894" width="2.45455661162" height="2.45455661162" opacity="0"/></g><text class="pin-number" x="662.8980131728" y="276.61216641894" style="font-family: sans-serif;" fill="rgb(169, 0, 0)" text-anchor="middle" dominant-baseline="auto" font-size="9.204587293575px" transform="">1</text><text class="pin-number" x="681.30718775995" y="277.83944472474997" style="font-family: sans-serif;" fill="rgb(169, 0, 0)" text-anchor="start" dominant-baseline="middle" font-size="9.204587293575px" transform="">VDD</text><line class="component-pin" x1="651.85250842051" y1="376.02170918955" x2="675.1707962309" y2="376.02170918955" stroke-width="1.22727830581px"/><g data-schematic-port-id="source_port_1"><rect x="649.39795180889" y="374.79443088374" width="2.45455661162" height="2.45455661162" opacity="0"/></g><text class="pin-number" x="662.8980131728" y="374.79443088374" style="font-family: sans-serif;" fill="rgb(169, 0, 0)" text-anchor="middle" dominant-baseline="auto" font-size="9.204587293575px" transform="">2</text><text class="pin-number" x="681.30718775995" y="376.02170918955" style="font-family: sans-serif;" fill="rgb(169, 0, 0)" text-anchor="start" dominant-baseline="middle" font-size="9.204587293575px" transform="">GND1</text><line class="component-pin" x1="651.85250842051" y1="320.7941854281" x2="675.1707962309" y2="320.7941854281" stroke-width="1.22727830581px"/><g data-schematic-port-id="source_port_2"><circle class="component-pin" cx="650.6252301147" cy="320.7941854281" r="1.22727830581" stroke-width="1.22727830581px"/><rect x="649.39795180889" y="319.56690712229" width="2.45455661162" height="2.45455661162" opacity="0"/></g><text class="pin-number" x="662.8980131728" y="319.56690712229" style="font-family: sans-serif;" fill="rgb(169, 0, 0)" text-anchor="middle" dominant-baseline="auto" font-size="9.204587293575px" transform="">3</text><text class="pin-number" x="681.30718775995" y="320.7941854281" style="font-family: sans-serif;" fill="rgb(169, 0, 0)" text-anchor="start" dominant-baseline="middle" font-size="9.204587293575px" transform="">NC</text><line class="component-pin" x1="651.85250842051" y1="388.29449224764994" x2="675.1707962309" y2="388.29449224764994" stroke-width="1.22727830581px"/><g data-schematic-port-id="source_port_3"><rect x="649.39795180889" y="387.06721394183995" width="2.45455661162" height="2.45455661162" opacity="0"/></g><text class="pin-number" x="662.8980131728" y="387.06721394183995" style="font-family: sans-serif;" fill="rgb(169, 0, 0)" text-anchor="middle" dominant-baseline="auto" font-size="9.204587293575px" transform="">4</text><text class="pin-number" x="681.30718775995" y="388.29449224764994" style="font-family: sans-serif;" fill="rgb(169, 0, 0)" text-anchor="start" dominant-baseline="middle" font-size="9.204587293575px" transform="">GND2</text><line class="component-pin" x1="651.85250842051" y1="400.56727530574994" x2="675.1707962309" y2="400.56727530574994" stroke-width="1.22727830581px"/><g data-schematic-port-id="source_port_4"><rect x="649.39795180889" y="399.33999699993996" width="2.45455661162" height="2.45455661162" opacity="0"/></g><text class="pin-number" x="662.8980131728" y="399.33999699994" style="font-family: sans-serif;" fill="rgb(169, 0, 0)" text-anchor="middle" dominant-baseline="auto" font-size="9.204587293575px" transform="">5</text><text class="pin-number" x="681.30718775995" y="400.56727530574994" style="font-family: sans-serif;" fill="rgb(169, 0, 0)" text-anchor="start" dominant-baseline="middle" font-size="9.204587293575px" transform="">GND3</text><line class="component-pin" x1="651.85250842051" y1="290.11222778284997" x2="675.1707962309" y2="290.11222778284997" stroke-width="1.22727830581px"/><g data-schematic-port-id="source_port_5"><rect x="649.39795180889" y="288.88494947704" width="2.45455661162" height="2.45455661162" opacity="0"/></g><text class="pin-number" x="662.8980131728" y="288.88494947704" style="font-family: sans-serif;" fill="rgb(169, 0, 0)" text-anchor="middle" dominant-baseline="auto" font-size="9.204587293575px" transform="">6</text><text class="pin-number" x="681.30718775995" y="290.11222778284997" style="font-family: sans-serif;" fill="rgb(169, 0, 0)" text-anchor="start" dominant-baseline="middle" font-size="9.204587293575px" transform="">VSS</text><line class="component-pin" x1="796.67134850609" y1="277.83944472474997" x2="773.3530606957" y2="277.83944472474997" stroke-width="1.22727830581px"/><g data-schematic-port-id="source_port_6"><rect x="796.67134850609" y="276.61216641894" width="2.45455661162" height="2.45455661162" opacity="0"/></g><text class="pin-number" x="785.6258437538" y="276.61216641894" style="font-family: sans-serif;" fill="rgb(169, 0, 0)" text-anchor="middle" dominant-baseline="auto" font-size="9.204587293575px" transform="">7</text><text class="pin-number" x="767.21666916665" y="277.83944472474997" style="font-family: sans-serif;" fill="rgb(169, 0, 0)" text-anchor="end" dominant-baseline="middle" font-size="9.204587293575px" transform="">CS</text><line class="component-pin" x1="796.67134850609" y1="363.74892613145" x2="773.3530606957" y2="363.74892613145" stroke-width="1.22727830581px"/><g data-schematic-port-id="source_port_7"><rect x="796.67134850609" y="362.52164782564" width="2.45455661162" height="2.45455661162" opacity="0"/></g><text class="pin-number" x="785.6258437538" y="362.52164782564" style="font-family: sans-serif;" fill="rgb(169, 0, 0)" text-anchor="middle" dominant-baseline="auto" font-size="9.204587293575px" transform="">8</text><text class="pin-number" x="767.21666916665" y="363.74892613145" style="font-family: sans-serif;" fill="rgb(169, 0, 0)" text-anchor="end" dominant-baseline="middle" font-size="9.204587293575px" transform="">INT1</text><line class="component-pin" x1="796.67134850609" y1="376.02170918954994" x2="773.3530606957" y2="376.02170918954994" stroke-width="1.22727830581px"/><g data-schematic-port-id="source_port_8"><rect x="796.67134850609" y="374.79443088373995" width="2.45455661162" height="2.45455661162" opacity="0"/></g><text class="pin-number" x="785.6258437538" y="374.79443088373995" style="font-family: sans-serif;" fill="rgb(169, 0, 0)" text-anchor="middle" dominant-baseline="auto" font-size="9.204587293575px" transform="">9</text><text class="pin-number" x="767.21666916665" y="376.02170918954994" style="font-family: sans-serif;" fill="rgb(169, 0, 0)" text-anchor="end" dominant-baseline="middle" font-size="9.204587293575px" transform="">INT2</text><line class="component-pin" x1="651.85250842051" y1="333.0669684862" x2="675.1707962309" y2="333.0669684862" stroke-width="1.22727830581px"/><g data-schematic-port-id="source_port_9"><circle class="component-pin" cx="650.6252301147" cy="333.0669684862" r="1.22727830581" stroke-width="1.22727830581px"/><rect x="649.39795180889" y="331.83969018039" width="2.45455661162" height="2.45455661162" opacity="0"/></g><text class="pin-number" x="662.8980131728" y="331.83969018039" style="font-family: sans-serif;" fill="rgb(169, 0, 0)" text-anchor="middle" dominant-baseline="auto" font-size="9.204587293575px" transform="">10</text><text class="pin-number" x="681.30718775995" y="333.0669684862" style="font-family: sans-serif;" fill="rgb(169, 0, 0)" text-anchor="start" dominant-baseline="middle" font-size="9.204587293575px" transform="">NC</text><line class="component-pin" x1="651.85250842051" y1="345.3397515443" x2="675.1707962309" y2="345.3397515443" stroke-width="1.22727830581px"/><g data-schematic-port-id="source_port_10"><circle class="component-pin" cx="650.6252301147" cy="345.3397515443" r="1.22727830581" stroke-width="1.22727830581px"/><rect x="649.39795180889" y="344.11247323849" width="2.45455661162" height="2.45455661162" opacity="0"/></g><text class="pin-number" x="662.8980131728" y="344.11247323849" style="font-family: sans-serif;" fill="rgb(169, 0, 0)" text-anchor="middle" dominant-baseline="auto" font-size="9.204587293575px" transform="">11</text><text class="pin-number" x="681.30718775995" y="345.3397515443" style="font-family: sans-serif;" fill="rgb(169, 0, 0)" text-anchor="start" dominant-baseline="middle" font-size="9.204587293575px" transform="">NC</text><line class="component-pin" x1="796.67134850609" y1="308.52140237" x2="773.3530606957" y2="308.52140237" stroke-width="1.22727830581px"/><g data-schematic-port-id="source_port_11"><rect x="796.67134850609" y="307.29412406419" width="2.45455661162" height="2.45455661162" opacity="0"/></g><text class="pin-number" x="785.6258437538" y="307.29412406419" style="font-family: sans-serif;" fill="rgb(169, 0, 0)" text-anchor="middle" dominant-baseline="auto" font-size="9.204587293575px" transform="">12</text><text class="pin-number" x="767.21666916665" y="308.52140237" style="font-family: sans-serif;" fill="rgb(169, 0, 0)" text-anchor="end" dominant-baseline="middle" font-size="9.204587293575px" transform="">SDO</text><line class="component-pin" x1="796.67134850609" y1="320.7941854281" x2="773.3530606957" y2="320.7941854281" stroke-width="1.22727830581px"/><g data-schematic-port-id="source_port_12"><rect x="796.67134850609" y="319.56690712229" width="2.45455661162" height="2.45455661162" opacity="0"/></g><text class="pin-number" x="785.6258437538" y="319.56690712229" style="font-family: sans-serif;" fill="rgb(169, 0, 0)" text-anchor="middle" dominant-baseline="auto" font-size="9.204587293575px" transform="">13</text><text class="pin-number" x="767.21666916665" y="320.7941854281" style="font-family: sans-serif;" fill="rgb(169, 0, 0)" text-anchor="end" dominant-baseline="middle" font-size="9.204587293575px" transform="">SDA</text><line class="component-pin" x1="796.67134850609" y1="333.0669684862" x2="773.3530606957" y2="333.0669684862" stroke-width="1.22727830581px"/><g data-schematic-port-id="source_port_13"><rect x="796.67134850609" y="331.83969018039" width="2.45455661162" height="2.45455661162" opacity="0"/></g><text class="pin-number" x="785.6258437538" y="331.83969018039" style="font-family: sans-serif;" fill="rgb(169, 0, 0)" text-anchor="middle" dominant-baseline="auto" font-size="9.204587293575px" transform="">14</text><text class="pin-number" x="767.21666916665" y="333.0669684862" style="font-family: sans-serif;" fill="rgb(169, 0, 0)" text-anchor="end" dominant-baseline="middle" font-size="9.204587293575px" transform="">SCL</text></g><g data-circuit-json-type="schematic_component" data-schematic-component-id="schematic_component_1"><rect class="component-overlay" x="401.2451103187986" y="91.57569238958511" width="32.47173441696185" height="64.94347497031531" fill="transparent"/><path d="M 417.48097752727966 156.51916735990042 L 417.48097752727966 128.91819371912197" stroke="rgb(132, 0, 0)" fill="none" stroke-width="1.22727830581px" stroke-linecap="round"/><path d="M 417.4809775272796 119.1766721667551 L 417.4809775272796 91.57569238958511" stroke="rgb(132, 0, 0)" fill="none" stroke-width="1.22727830581px" stroke-linecap="round"/><path d="M 433.71684473576045 128.91819371912194 L 401.2451103187986 128.91819371912197" stroke="rgb(132, 0, 0)" fill="none" stroke-width="1.22727830581px" stroke-linecap="round"/><path d="M 433.71684473576045 119.1766721667551 L 401.2451103187986 119.1766721667551" stroke="rgb(132, 0, 0)" fill="none" stroke-width="1.22727830581px" stroke-linecap="round"/><text x="429.27342226566" y="112.26270677039999" fill="rgb(15, 15, 15)" font-family="sans-serif" text-anchor="start" dominant-baseline="auto" font-size="11.04550475229px">C1</text><text x="429.27342226566" y="136.5966062266" fill="rgb(15, 15, 15)" font-family="sans-serif" text-anchor="start" dominant-baseline="hanging" font-size="11.04550475229px">100nF</text></g><g data-circuit-json-type="schematic_component" data-schematic-component-id="schematic_component_2"><rect class="component-overlay" x="337.5654558658489" y="94.1610277774722" width="34.721212823681014" height="60.53725744205555" fill="transparent"/><path d="M 356.03981120382025 94.1610277774722 L 356.03981120382025 121.76251687513908" stroke="rgb(132, 0, 0)" fill="none" stroke-width="1.22727830581px" stroke-linecap="round"/><path d="M 356.03981120382025 127.09730544235777 L 356.03981120382025 154.69828521952775" stroke="rgb(132, 0, 0)" fill="none" stroke-width="1.22727830581px" stroke-linecap="round"/><path d="M 339.66056720726306 121.99649748414177 L 372.2866686895299 121.99649748414177" stroke="rgb(132, 0, 0)" fill="none" stroke-width="1.22727830581px" stroke-linecap="round"/><path d="M 372.0736009028582 130.64164223479634 L 372.0736009028582 130.64164223479634 L 371.99781038775245 130.59656358707772 L 371.9219632473143 130.55170971512308 L 371.8460594239231 130.50708120040463 L 371.77009885995807 130.46267862439453 L 371.6940814977985 130.41850256856497 L 371.6180072798237 130.37455361438816 L 371.5418761484129 130.33083234333625 L 371.4656880459454 130.28733933688147 L 371.38944291480055 130.24407517649598 L 371.31314069735754 130.201040443652 L 371.2367813359957 130.15823571982168 L 371.16036477309433 130.11566158647722 L 371.08389095103263 130.07331862509082 L 371.00735981219 130.03120741713468 L 370.9307712989457 129.98932854408093 L 370.85412535367885 129.94768258740183 L 370.777421918769 129.90627012856956 L 370.7006609365952 129.86509174905623 L 370.6238423495369 129.82414803033413 L 370.5469660999733 129.78343955387538 L 370.4700321302837 129.74296690115222 L 370.3930403828474 129.7027306536368 L 370.3159908000436 129.6627313928013 L 370.23888332425173 129.62296970011795 L 370.16171789785096 129.5834461570589 L 370.0844944632206 129.54416134509637 L 370.00721296273997 129.5051158457025 L 369.9298733387883 129.46631024034954 L 369.8524755337449 129.42774511050965 L 369.775019489989 129.389421037655 L 369.6975051499 129.35133860325783 L 369.6199324558571 129.3134983887903 L 369.5423013502396 129.27590097572457 L 369.4646117754268 129.23854694553285 L 369.38686367379796 129.20143687968732 L 369.3090569877324 129.16457135966021 L 369.23119165960935 129.12795096692366 L 369.1532676318081 129.0915762829499 L 369.075284846708 129.05544788921108 L 368.99724324668824 129.0195663671794 L 368.91914277412815 128.98393229832706 L 368.84098337140705 128.94854626412624 L 368.76276498090414 128.91340884604912 L 368.6844875449988 128.8785206255679 L 368.60615100607026 128.84388218415478 L 368.52775530649774 128.8094941032819 L 368.4493003886607 128.77535696442152 L 368.3707861949382 128.74147134904578 L 368.29221266770975 128.7078378386269 L 368.21357974935444 128.67445701463703 L 368.1348873822517 128.64132945854837 L 368.0561355087807 128.60845575183313 L 367.97732407132077 128.57583647596348 L 367.8984530122512 128.54347221241161 L 367.8195222739513 128.51136354264972 L 367.7405317988003 128.47951104815 L 367.66148152917754 128.4479153103846 L 367.58237140746223 128.41657691082574 L 367.5032013760337 128.3854964309456 L 367.42397137727124 128.35467445221641 L 367.3446813535541 128.3241115561103 L 367.2653312472616 128.29380832409947 L 367.185921000773 128.26376533765614 L 367.1064505564676 128.2339831782525 L 367.0269198567247 128.20446242736068 L 366.9473288439235 128.17520366645292 L 366.8676774604434 128.14620747700138 L 366.7879656486636 128.11747444047828 L 366.7081933509634 128.08900513835576 L 366.62836050972214 128.06080015210608 L 366.54846706731905 128.03286006320135 L 366.46851296613335 128.00518545311382 L 366.38849814854444 127.97777690331566 L 366.3084225569316 127.95063499527903 L 366.228286133674 127.92376031047615 L 366.148088821151 127.89715343037922 L 366.0678305617419 127.87081493646039 L 365.98751129782596 127.84474541019188 L 365.90713097178246 127.81894543304585 L 365.82668952599073 127.79341558649452 L 365.74618690282995 127.76815645201005 L 365.6656230446795 127.74316861106465 L 365.5849978939186 127.7184526451305 L 365.5043113929266 127.69400913567978 L 365.4235634840827 127.66983866418468 L 365.3427541097663 127.64594181211741 L 365.26188321235657 127.62231916095014 L 365.1809507342328 127.59897129215507 L 365.09995661777435 127.57589878720438 L 365.0189008053605 127.55310222757025 L 364.93778323937045 127.53058219472489 L 364.85660386218353 127.50833927014045 L 364.77536261617905 127.48637403528917 L 364.69405944373625 127.46468707164321 L 364.61269428723443 127.44327896067476 L 364.53126708905285 127.42215028385601 L 364.44977779157085 127.40130162265915 L 364.3682263371677 127.38073355855637 L 364.28661266822263 127.36044667301985 L 364.204936727115 127.34044154752179 L 364.204936727115 127.34044154752179 L 364.1020867567695 127.31562998863494 L 363.9991688594048 127.29118635650548 L 363.8961836784951 127.267109838442 L 363.7931318575148 127.24339962175307 L 363.6900140399382 127.22005489374727 L 363.5868308692395 127.19707484173318 L 363.48358298889303 127.17445865301937 L 363.3802710423731 127.15220551491444 L 363.276895673154 127.13031461472694 L 363.17345752470993 127.10878513976547 L 363.0699572405153 127.08761627733861 L 362.9663954640443 127.06680721475493 L 362.86277283877126 127.046357139323 L 362.75909000817046 127.02626523835141 L 362.65534761571627 127.00653069914874 L 362.55154630488283 126.98715270902356 L 362.44768671914454 126.96813045528447 L 362.3437695019756 126.94946312524002 L 362.2397952968504 126.9311499061988 L 362.1357647472432 126.9131899854694 L 362.0316784966282 126.89558255036039 L 361.92753718847985 126.87832678818033 L 361.82334146627227 126.86142188623784 L 361.71909197347986 126.84486703184146 L 361.61478935357684 126.82866141229978 L 361.5104342500375 126.81280421492139 L 361.4060273063362 126.79729462701486 L 361.3015691659472 126.78213183588878 L 361.1970604723448 126.7673150288517 L 361.09250186900323 126.75284339321222 L 360.9878939993968 126.73871611627892 L 360.8832375069999 126.72493238536038 L 360.7785330352866 126.71149138776516 L 360.6737812277314 126.69839231080186 L 360.5689827278085 126.68563434177906 L 360.4641381789922 126.67321666800532 L 360.35924822475675 126.66113847678923 L 360.2543135085765 126.64939895543937 L 360.1493346739257 126.6379972912643 L 360.04431236427865 126.62693267157263 L 359.93924722310965 126.61620428367291 L 359.83413989389294 126.60581131487375 L 359.72899102010285 126.59575295248369 L 359.6238012452137 126.58602838381134 L 359.5185712126997 126.57663679616526 L 359.4133015660353 126.56757737685403 L 359.30799294869456 126.55884931318626 L 359.20264600415186 126.55045179247048 L 359.09726137588154 126.5423840020153 L 358.9918397073579 126.53464512912929 L 358.88638164205514 126.52723436112103 L 358.7808878234476 126.52015088529909 L 358.67535889500954 126.51339388897206 L 358.56979550021526 126.50696255944852 L 358.4641982825391 126.50085608403705 L 358.35856788545533 126.49507365004621 L 358.25290495243814 126.4896144447846 L 358.14721012696197 126.4844776555608 L 358.04148405250095 126.47966246968336 L 357.9357273725295 126.47516807446088 L 357.82994073052186 126.47099365720194 L 357.7241247699523 126.46713840521511 L 357.61828013429516 126.46360150580898 L 357.5124074670246 126.46038214629212 L 357.4065074116151 126.45747951397311 L 357.30058061154085 126.45489279616054 L 357.1946277102761 126.45262118016296 L 357.0886493512952 126.45066385328897 L 356.9826461780724 126.44902000284715 L 356.876618834082 126.44768881614608 L 356.77056796279834 126.44666948049432 L 356.6644942076956 126.44596118320048 L 356.55839821224816 126.44556311157311 L 356.4522806199303 126.44547445292079 L 356.3461420742163 126.44569439455212 L 356.2399832185804 126.44622212377566 L 356.1338046964969 126.4470568279 L 356.0276071514401 126.44819769423371 L 355.9213912268844 126.44964391008537 L 355.8151575663039 126.45139466276356 L 355.70890681317303 126.45344913957686 L 355.60263961096604 126.45580652783386 L 355.49635660315715 126.45846601484311 L 355.39005843322076 126.46142678791323 L 355.28374574463106 126.46468803435275 L 355.17741918086244 126.46824894147028 L 355.07107938538906 126.4721086965744 L 354.96472700168533 126.47626648697367 L 354.8583626732255 126.48072149997668 L 354.7519870434838 126.485472922892 L 354.64560075593454 126.49051994302823 L 354.5392044540521 126.49586174769394 L 354.4327987813107 126.50149752419769 L 354.3263843811846 126.50742645984808 L 354.2199618971481 126.51364774195368 L 354.1135319726755 126.52016055782306 L 354.00709525124114 126.52696409476482 L 353.9006523763193 126.53405754008752 L 353.79420399138417 126.54144008109975 L 353.6877507399101 126.54911090511008 L 353.6877507399101 126.54911090511008 L 353.59752127785754 126.55719918887932 L 353.5072663947231 126.56541248187906 L 353.41698723754564 126.57375264700731 L 353.3266849533639 126.58222154716208 L 353.23636068921684 126.59082104524138 L 353.14601559214327 126.59955300414325 L 353.055650809182 126.60841928676565 L 352.96526748737193 126.61742175600665 L 352.87486677375193 126.62656227476424 L 352.78444981536074 126.63584270593641 L 352.69401775923734 126.64526491242121 L 352.6035717524206 126.65483075711664 L 352.5131129419492 126.6645421029207 L 352.4226424748621 126.67440081273143 L 352.33216149819816 126.68440874944683 L 352.24167115899616 126.6945677759649 L 352.151172604295 126.70487975518367 L 352.06066698113364 126.71534655000113 L 351.9701554365507 126.72597002331533 L 351.8796391175852 126.73675203802425 L 351.78911917127596 126.74769445702593 L 351.69859674466176 126.75879914321835 L 351.60807298478153 126.77006795949957 L 351.5175490386741 126.78150276876755 L 351.42702605337826 126.79310543392035 L 351.336505175933 126.80487781785595 L 351.245987553377 126.81682178347239 L 351.1554743327492 126.82893919366765 L 351.0649666610885 126.84123191133978 L 350.9744656854336 126.85370179938677 L 350.8839725528235 126.86635072070663 L 350.79348841029696 126.87918053819739 L 350.7030144048929 126.89219311475705 L 350.6125516836501 126.90539031328362 L 350.52210139360744 126.91877399667513 L 350.4316646818038 126.9323460278296 L 350.34124269527797 126.94610826964501 L 350.2508365810689 126.96006258501939 L 350.1604474862153 126.97421083685076 L 350.0700765577561 126.98855488803711 L 349.9797249427302 127.00309660147649 L 349.88939378817633 127.01783784006689 L 349.7990842411334 127.03278046670631 L 349.70879744864027 127.0479263442928 L 349.6185345577358 127.06327733572435 L 349.52829671545885 127.07883530389897 L 349.43808506884824 127.09460211171468 L 349.3479007649428 127.1105796220695 L 349.2577449507814 127.12676969786142 L 349.16761877340286 127.14317420198849 L 349.0775233798461 127.15979499734868 L 348.98745991715 127.17663394684004 L 348.89742953235327 127.19369291336056 L 348.80743337249487 127.21097375980827 L 348.7174725846136 127.22847834908116 L 348.6275483157483 127.24620854407728 L 348.53766171293785 127.2641662076946 L 348.44781392322113 127.28235320283116 L 348.35800609363696 127.30077139238497 L 348.2682393712241 127.31942263925404 L 348.1785149030216 127.33830880633639 L 348.08883383606815 127.35743175653002 L 347.99919731740266 127.37679335273295 L 347.90960649406395 127.39639545784318 L 347.8200625130909 127.41623993475875 L 347.73056652152235 127.43632864637766 L 347.6411196663971 127.45666345559792 L 347.5517230947541 127.47724622531756 L 347.46237795363214 127.49807881843456 L 347.37308539007006 127.51916309784696 L 347.2838465511067 127.54050092645275 L 347.194662583781 127.56209416714998 L 347.10553463513173 127.58394468283663 L 347.0164638521978 127.60605433641074 L 346.9274513820179 127.62842499077028 L 346.8384983716311 127.65105850881332 L 346.7496059680761 127.67395675343784 L 346.6607753183918 127.69712158754184 L 346.5720075696171 127.72055487402336 L 346.48330386879076 127.7442584757804 L 346.3946653629517 127.76823425571098 L 346.3060931991387 127.79248407671312 L 346.2175885243907 127.81700980168482 L 346.12915248574643 127.84181329352408 L 346.04078623024486 127.86689641512895 L 345.9524909049248 127.8922610293974 L 345.86426765682506 127.91790899922749 L 345.77611763298455 127.94384218751719 L 345.68804198044205 127.97006245716454 L 345.6000418462365 127.99657167106756 L 345.51211837740664 128.02337169212424 L 345.42427272099144 128.0504643832326 L 345.33650602402963 128.07785160729065 L 345.2488194335602 128.1055352271964 L 345.1612140966219 128.1335171058479 L 345.0736911602536 128.16179910614312 L 344.9862517714941 128.19038309098008 L 344.89889707738234 128.2192709232568 L 344.81162822495713 128.2484644658713 L 344.7244463612574 128.2779655817216 L 344.7244463612574 128.2779655817216 L 344.67340363274906 128.29540461397855 L 344.62238766138694 128.31296886728197 L 344.5713987540151 128.33065833610908 L 344.5204372174777 128.34847301493716 L 344.4695033586188 128.36641289824345 L 344.4185974842826 128.38447798050518 L 344.36771990131314 128.4026682561996 L 344.3168709165546 128.42098371980398 L 344.2660508368511 128.43942436579556 L 344.2152599690467 128.45799018865156 L 344.1644986199856 128.47668118284923 L 344.1137670965119 128.4954973428659 L 344.0630657054696 128.51443866317868 L 344.01239475370306 128.53350513826493 L 343.96175454805626 128.55269676260184 L 343.9111453953733 128.5720135306667 L 343.86056760249835 128.5914554369367 L 343.81002147627555 128.61102247588917 L 343.759507323549 128.63071464200127 L 343.70902545116274 128.65053192975031 L 343.658576165961 128.6704743336135 L 343.60815977478785 128.6905418480681 L 343.5577765844875 128.71073446759135 L 343.50742690190395 128.73105218666052 L 343.4571110338814 128.75149499975285 L 343.4068292872639 128.77206290134558 L 343.3565819688957 128.79275588591597 L 343.30636938562077 128.81357394794122 L 343.2561918442833 128.83451708189864 L 343.2060496517275 128.85558528226545 L 343.1559431147973 128.87677854351892 L 343.105872540337 128.89809686013626 L 343.05583823519066 128.91954022659473 L 343.00584050620233 128.9411086373716 L 342.9558796602162 128.96280208694407 L 342.9059560040765 128.98462056978946 L 342.8560698446271 129.00656408038495 L 342.8062214887123 129.0286326132078 L 342.7564112431762 129.0508261627353 L 342.70663941486293 129.07314472344464 L 342.6569063106166 129.09558828981312 L 342.60721223728126 129.11815685631797 L 342.5575575017011 129.1408504174364 L 342.50794241072026 129.16366896764572 L 342.45836727118285 129.18661250142316 L 342.4088323899329 129.20968101324593 L 342.3593380738147 129.2328744975913 L 342.30988462967224 129.25619294893653 L 342.2604723643497 129.27963636175883 L 342.21110158469116 129.3032047305355 L 342.1617725975408 129.32689804974376 L 342.11248570974266 129.35071631386086 L 342.06324122814095 129.37465951736405 L 342.01403945957975 129.39872765473058 L 341.9648807109032 129.42292072043767 L 341.91576528895536 129.44723870896263 L 341.8666935005805 129.47168161478263 L 341.8176656526225 129.49624943237498 L 341.76868205192574 129.5209421562169 L 341.7197430053342 129.54575978078563 L 341.67084881969197 129.57070230055845 L 341.6219998018433 129.59576971001258 L 341.57319625863215 129.62096200362527 L 341.5244384969028 129.64627917587376 L 341.4757268234993 129.67172122123532 L 341.4270615452658 129.69728813418718 L 341.3784429690464 129.7229799092066 L 341.3298714016852 129.74879654077083 L 341.28134715002636 129.7747380233571 L 341.23287052091393 129.80080435144268 L 341.18444182119214 129.82699551950478 L 341.13606135770505 129.8533115220207 L 341.0877294372968 129.87975235346764 L 341.0394463668115 129.9063180083229 L 340.9912124530933 129.93300848106367 L 340.94302800298624 129.95982376616723 L 340.89489332333454 129.9867638581108 L 340.84680872098227 130.01382875137168 L 340.79877450277354 130.04101844042708 L 340.75079097555255 130.06833291975425 L 340.70285844616336 130.09577218383043 L 340.65497722145005 130.12333622713288 L 340.6071476082568 130.15102504413886 L 340.55936991342776 130.1788386293256 L 340.51164444380703 130.20677697717036 L 340.4639715062387 130.23484008215036 L 340.4163514075669 130.26302793874288 L 340.3687844546358 130.29134054142517 L 340.3212709542894 130.31977788467444 L 340.27381121337197 130.34833996296797 L 340.2264055387276 130.377026770783 L 340.1790542372003 130.40583830259675 L 340.1317576156343 130.43477455288652 L 340.08451598087373 130.46383551612954 L 340.0373296397626 130.49302118680302 L 339.9901988991452 130.52233155938424 L 339.9431240658655 130.55176662835046 L 339.8961054467677 130.5813263881789 L 339.8491433486959 130.61101083334682 L 339.80223807849427 130.64081995833146" stroke="rgb(132, 0, 0)" fill="none" stroke-width="1.22727830581px" stroke-linecap="round"/><path d="M 342.0297911582802 105.67788717228312 L 342.0297911582802 114.29750453417685 L 341.7246284075406 114.29750453417685 L 341.7246284075406 105.67788717228312" stroke="rgb(132, 0, 0)" fill="none" stroke-width="1.22727830581px" stroke-linecap="round"/><path d="M 337.5654558658489 109.83164128025473 L 346.1850732277426 109.83164128025473 L 346.1850732277426 110.1368040309944 L 337.5654558658489 110.1368040309944" stroke="rgb(132, 0, 0)" fill="none" stroke-width="1.22727830581px" stroke-linecap="round"/><text x="369.9533671745239" y="115.8065824415629" fill="rgb(15, 15, 15)" font-family="sans-serif" text-anchor="start" dominant-baseline="auto" font-size="11.04550475229px">C2</text><text x="369.9533671745239" y="134.0184513087129" fill="rgb(15, 15, 15)" font-family="sans-serif" text-anchor="start" dominant-baseline="hanging" font-size="11.04550475229px">100nF</text></g><g data-circuit-json-type="schematic_component" data-schematic-component-id="schematic_component_3"><rect class="component-overlay" x="554.6548985450486" y="91.57569238958511" width="32.47173441696191" height="64.94347497031531" fill="transparent"/><path d="M 570.8907657535296 156.51916735990042 L 570.8907657535296 128.91819371912197" stroke="rgb(132, 0, 0)" fill="none" stroke-width="1.22727830581px" stroke-linecap="round"/><path d="M 570.8907657535296 119.1766721667551 L 570.8907657535296 91.57569238958511" stroke="rgb(132, 0, 0)" fill="none" stroke-width="1.22727830581px" stroke-linecap="round"/><path d="M 587.1266329620105 128.91819371912194 L 554.6548985450486 128.91819371912197" stroke="rgb(132, 0, 0)" fill="none" stroke-width="1.22727830581px" stroke-linecap="round"/><path d="M 587.1266329620105 119.1766721667551 L 554.6548985450486 119.1766721667551" stroke="rgb(132, 0, 0)" fill="none" stroke-width="1.22727830581px" stroke-linecap="round"/><text x="582.6832104919099" y="112.26270677039999" fill="rgb(15, 15, 15)" font-family="sans-serif" text-anchor="start" dominant-baseline="auto" font-size="11.04550475229px">C3</text><text x="582.6832104919099" y="136.5966062266" fill="rgb(15, 15, 15)" font-family="sans-serif" text-anchor="start" dominant-baseline="hanging" font-size="11.04550475229px">100nF</text></g><g data-circuit-json-type="schematic_component" data-schematic-component-id="schematic_component_4"><rect class="component chip" x="1101.650007499875" y="191.92996331804997" width="42.9547407033499" height="110.4550475229" stroke-width="1.22727830581px" fill="rgb(255, 255, 194)" stroke="rgb(132, 0, 0)"/><rect class="component-overlay" x="1101.650007499875" y="191.92996331804997" width="42.9547407033499" height="110.4550475229" fill="transparent"/><text x="1101.650007499875" y="310.362319828715" fill="#006464" text-anchor="start" dominant-baseline="middle" font-family="sans-serif" font-size="11.04550475229px" transform="rotate(0, 1101.650007499875, 310.362319828715)"></text><text x="1101.650007499875" y="183.952654330285" fill="#006464" text-anchor="start" dominant-baseline="middle" font-family="sans-serif" font-size="11.04550475229px" transform="rotate(0, 1101.650007499875, 183.952654330285)">JP1</text><line class="component-pin" x1="1078.331719689485" y1="204.20274637614997" x2="1101.650007499875" y2="204.20274637614997" stroke-width="1.22727830581px"/><g data-schematic-port-id="source_port_20"><rect x="1075.8771630778651" y="202.97546807033999" width="2.45455661162" height="2.45455661162" opacity="0"/></g><text class="pin-number" x="1089.377224441775" y="202.97546807033996" style="font-family: sans-serif;" fill="rgb(169, 0, 0)" text-anchor="middle" dominant-baseline="auto" font-size="9.204587293575px" transform="">1</text><text class="pin-number" x="1107.786399028925" y="204.20274637614997" style="font-family: sans-serif;" fill="rgb(169, 0, 0)" text-anchor="start" dominant-baseline="middle" font-size="9.204587293575px" transform="">GND</text><line class="component-pin" x1="1078.331719689485" y1="216.47552943424998" x2="1101.650007499875" y2="216.47552943424998" stroke-width="1.22727830581px"/><g data-schematic-port-id="source_port_21"><rect x="1075.8771630778651" y="215.24825112844" width="2.45455661162" height="2.45455661162" opacity="0"/></g><text class="pin-number" x="1089.377224441775" y="215.24825112843996" style="font-family: sans-serif;" fill="rgb(169, 0, 0)" text-anchor="middle" dominant-baseline="auto" font-size="9.204587293575px" transform="">2</text><text class="pin-number" x="1107.786399028925" y="216.47552943424998" style="font-family: sans-serif;" fill="rgb(169, 0, 0)" text-anchor="start" dominant-baseline="middle" font-size="9.204587293575px" transform="">VCC</text><line class="component-pin" x1="1078.331719689485" y1="228.74831249234998" x2="1101.650007499875" y2="228.74831249234998" stroke-width="1.22727830581px"/><g data-schematic-port-id="source_port_22"><rect x="1075.8771630778651" y="227.52103418654" width="2.45455661162" height="2.45455661162" opacity="0"/></g><text class="pin-number" x="1089.377224441775" y="227.52103418653996" style="font-family: sans-serif;" fill="rgb(169, 0, 0)" text-anchor="middle" dominant-baseline="auto" font-size="9.204587293575px" transform="">3</text><text class="pin-number" x="1107.786399028925" y="228.74831249234998" style="font-family: sans-serif;" fill="rgb(169, 0, 0)" text-anchor="start" dominant-baseline="middle" font-size="9.204587293575px" transform="">CS</text><line class="component-pin" x1="1078.331719689485" y1="241.02109555044999" x2="1101.650007499875" y2="241.02109555044999" stroke-width="1.22727830581px"/><g data-schematic-port-id="source_port_23"><rect x="1075.8771630778651" y="239.79381724464" width="2.45455661162" height="2.45455661162" opacity="0"/></g><text class="pin-number" x="1089.377224441775" y="239.79381724463997" style="font-family: sans-serif;" fill="rgb(169, 0, 0)" text-anchor="middle" dominant-baseline="auto" font-size="9.204587293575px" transform="">4</text><text class="pin-number" x="1107.786399028925" y="241.02109555044999" style="font-family: sans-serif;" fill="rgb(169, 0, 0)" text-anchor="start" dominant-baseline="middle" font-size="9.204587293575px" transform="">INIT1</text><line class="component-pin" x1="1078.331719689485" y1="253.29387860855" x2="1101.650007499875" y2="253.29387860855" stroke-width="1.22727830581px"/><g data-schematic-port-id="source_port_24"><rect x="1075.8771630778651" y="252.06660030274" width="2.45455661162" height="2.45455661162" opacity="0"/></g><text class="pin-number" x="1089.377224441775" y="252.06660030273997" style="font-family: sans-serif;" fill="rgb(169, 0, 0)" text-anchor="middle" dominant-baseline="auto" font-size="9.204587293575px" transform="">5</text><text class="pin-number" x="1107.786399028925" y="253.29387860855" style="font-family: sans-serif;" fill="rgb(169, 0, 0)" text-anchor="start" dominant-baseline="middle" font-size="9.204587293575px" transform="">INIT2</text><line class="component-pin" x1="1078.331719689485" y1="265.56666166664996" x2="1101.650007499875" y2="265.56666166664996" stroke-width="1.22727830581px"/><g data-schematic-port-id="source_port_25"><rect x="1075.8771630778651" y="264.33938336084" width="2.45455661162" height="2.45455661162" opacity="0"/></g><text class="pin-number" x="1089.377224441775" y="264.33938336084" style="font-family: sans-serif;" fill="rgb(169, 0, 0)" text-anchor="middle" dominant-baseline="auto" font-size="9.204587293575px" transform="">6</text><text class="pin-number" x="1107.786399028925" y="265.56666166664996" style="font-family: sans-serif;" fill="rgb(169, 0, 0)" text-anchor="start" dominant-baseline="middle" font-size="9.204587293575px" transform="">SDO</text><line class="component-pin" x1="1078.331719689485" y1="277.83944472474997" x2="1101.650007499875" y2="277.83944472474997" stroke-width="1.22727830581px"/><g data-schematic-port-id="source_port_26"><rect x="1075.8771630778651" y="276.61216641894" width="2.45455661162" height="2.45455661162" opacity="0"/></g><text class="pin-number" x="1089.377224441775" y="276.61216641894" style="font-family: sans-serif;" fill="rgb(169, 0, 0)" text-anchor="middle" dominant-baseline="auto" font-size="9.204587293575px" transform="">7</text><text class="pin-number" x="1107.786399028925" y="277.83944472474997" style="font-family: sans-serif;" fill="rgb(169, 0, 0)" text-anchor="start" dominant-baseline="middle" font-size="9.204587293575px" transform="">SDA</text><line class="component-pin" x1="1078.331719689485" y1="290.11222778284997" x2="1101.650007499875" y2="290.11222778284997" stroke-width="1.22727830581px"/><g data-schematic-port-id="source_port_27"><rect x="1075.8771630778651" y="288.88494947704" width="2.45455661162" height="2.45455661162" opacity="0"/></g><text class="pin-number" x="1089.377224441775" y="288.88494947704" style="font-family: sans-serif;" fill="rgb(169, 0, 0)" text-anchor="middle" dominant-baseline="auto" font-size="9.204587293575px" transform="">8</text><text class="pin-number" x="1107.786399028925" y="290.11222778284997" style="font-family: sans-serif;" fill="rgb(169, 0, 0)" text-anchor="start" dominant-baseline="middle" font-size="9.204587293575px" transform="">SCL</text></g><g class="trace" data-circuit-json-type="schematic_trace" data-schematic-trace-id="schematic_trace_0"><path d="M 570.8353664108054 90.60529570596415 L 570.85214023705 90.60529570596415 L 570.85214023705 63.06574120799996" class="trace-invisible-hover-outline" stroke="rgb(0, 150, 0)" fill="none" stroke-width="9.81822644648px" stroke-linecap="round" opacity="0" stroke-linejoin="round"/><path d="M 570.8353664108054 90.60529570596415 L 570.85214023705 90.60529570596415 L 570.85214023705 63.06574120799996" stroke="rgb(0, 150, 0)" fill="none" stroke-width="1.22727830581px" stroke-linecap="round" stroke-linejoin="round"/></g><g class="trace" data-circuit-json-type="schematic_trace" data-schematic-trace-id="schematic_trace_1"><path d="M 570.8689140632946 158.25401729103578 L 570.85214023705 158.25401729103578 L 570.85214023705 185.79357178899997" class="trace-invisible-hover-outline" stroke="rgb(0, 150, 0)" fill="none" stroke-width="9.81822644648px" stroke-linecap="round" opacity="0" stroke-linejoin="round"/><path d="M 570.8689140632946 158.25401729103578 L 570.85214023705 158.25401729103578 L 570.85214023705 185.79357178899997" stroke="rgb(0, 150, 0)" fill="none" stroke-width="1.22727830581px" stroke-linecap="round" stroke-linejoin="round"/></g><g class="trace" data-circuit-json-type="schematic_trace" data-schematic-trace-id="schematic_trace_2"><path d="M 417.4255781845554 90.60529570596415 L 386.76039436555 90.60529570596415 L 386.76039436555 63.06574120799996" class="trace-invisible-hover-outline" stroke="rgb(0, 150, 0)" fill="none" stroke-width="9.81822644648px" stroke-linecap="round" opacity="0" stroke-linejoin="round"/><path d="M 417.4255781845554 90.60529570596415 L 386.76039436555 90.60529570596415 L 386.76039436555 63.06574120799996" stroke="rgb(0, 150, 0)" fill="none" stroke-width="1.22727830581px" stroke-linecap="round" stroke-linejoin="round"/></g><g class="trace" data-circuit-json-type="schematic_trace" data-schematic-trace-id="schematic_trace_3"><path d="M 356.0616628940553 94.16102777747219 L 386.76039436555 94.16102777747219 L 386.76039436555 63.06574120799996" class="trace-invisible-hover-outline" stroke="rgb(0, 150, 0)" fill="none" stroke-width="9.81822644648px" stroke-linecap="round" opacity="0" stroke-linejoin="round"/><path d="M 356.0616628940553 94.16102777747219 L 386.76039436555 94.16102777747219 L 386.76039436555 63.06574120799996" stroke="rgb(0, 150, 0)" fill="none" stroke-width="1.22727830581px" stroke-linecap="round" stroke-linejoin="round"/></g><g class="trace" data-circuit-json-type="schematic_trace" data-schematic-trace-id="schematic_trace_4"><path d="M 417.45912583704467 158.25401729103578 L 386.76039436555 158.25401729103578 L 386.76039436555 185.79357178899997" class="trace-invisible-hover-outline" stroke="rgb(0, 150, 0)" fill="none" stroke-width="9.81822644648px" stroke-linecap="round" opacity="0" stroke-linejoin="round"/><path d="M 417.45912583704467 158.25401729103578 L 386.76039436555 158.25401729103578 L 386.76039436555 185.79357178899997" stroke="rgb(0, 150, 0)" fill="none" stroke-width="1.22727830581px" stroke-linecap="round" stroke-linejoin="round"/></g><g class="trace" data-circuit-json-type="schematic_trace" data-schematic-trace-id="schematic_trace_5"><path d="M 356.0952105465447 154.69828521952775 L 386.76039436555 154.69828521952775 L 386.76039436555 185.79357178899997" class="trace-invisible-hover-outline" stroke="rgb(0, 150, 0)" fill="none" stroke-width="9.81822644648px" stroke-linecap="round" opacity="0" stroke-linejoin="round"/><path d="M 356.0952105465447 154.69828521952775 L 386.76039436555 154.69828521952775 L 386.76039436555 185.79357178899997" stroke="rgb(0, 150, 0)" fill="none" stroke-width="1.22727830581px" stroke-linecap="round" stroke-linejoin="round"/></g><g class="trace" data-circuit-json-type="schematic_trace" data-schematic-trace-id="schematic_trace_6"><path d="M 650.6252301147 277.83944472474997 L 638.3524470566 277.83944472474997 L 638.3524470566 265.56666166664996" class="trace-invisible-hover-outline" stroke="rgb(0, 150, 0)" fill="none" stroke-width="9.81822644648px" stroke-linecap="round" opacity="0" stroke-linejoin="round"/><path d="M 650.6252301147 277.83944472474997 L 638.3524470566 277.83944472474997 L 638.3524470566 265.56666166664996" stroke="rgb(0, 150, 0)" fill="none" stroke-width="1.22727830581px" stroke-linecap="round" stroke-linejoin="round"/></g><g class="trace" data-circuit-json-type="schematic_trace" data-schematic-trace-id="schematic_trace_7"><path d="M 650.6252301147 290.11222778284997 L 638.3524470566 290.11222778284997 L 638.3524470566 265.56666166664996" class="trace-invisible-hover-outline" stroke="rgb(0, 150, 0)" fill="none" stroke-width="9.81822644648px" stroke-linecap="round" opacity="0" stroke-linejoin="round"/><path d="M 650.6252301147 290.11222778284997 L 638.3524470566 290.11222778284997 L 638.3524470566 265.56666166664996" stroke="rgb(0, 150, 0)" fill="none" stroke-width="1.22727830581px" stroke-linecap="round" stroke-linejoin="round"/></g><g class="trace" data-circuit-json-type="schematic_trace" data-schematic-trace-id="schematic_trace_8"><path d="M 650.6252301147 376.02170918955 L 638.3524470566 376.02170918955 L 638.3524470566 412.84005836384995" class="trace-invisible-hover-outline" stroke="rgb(0, 150, 0)" fill="none" stroke-width="9.81822644648px" stroke-linecap="round" opacity="0" stroke-linejoin="round"/><path d="M 650.6252301147 376.02170918955 L 638.3524470566 376.02170918955 L 638.3524470566 412.84005836384995" stroke="rgb(0, 150, 0)" fill="none" stroke-width="1.22727830581px" stroke-linecap="round" stroke-linejoin="round"/></g><g class="trace" data-circuit-json-type="schematic_trace" data-schematic-trace-id="schematic_trace_9"><path d="M 650.6252301147 388.29449224764994 L 638.3524470566 388.29449224764994 L 638.3524470566 412.84005836384995" class="trace-invisible-hover-outline" stroke="rgb(0, 150, 0)" fill="none" stroke-width="9.81822644648px" stroke-linecap="round" opacity="0" stroke-linejoin="round"/><path d="M 650.6252301147 388.29449224764994 L 638.3524470566 388.29449224764994 L 638.3524470566 412.84005836384995" stroke="rgb(0, 150, 0)" fill="none" stroke-width="1.22727830581px" stroke-linecap="round" stroke-linejoin="round"/></g><g class="trace" data-circuit-json-type="schematic_trace" data-schematic-trace-id="schematic_trace_10"><path d="M 650.6252301147 400.56727530574994 L 638.3524470566 400.56727530574994 L 638.3524470566 412.84005836384995" class="trace-invisible-hover-outline" stroke="rgb(0, 150, 0)" fill="none" stroke-width="9.81822644648px" stroke-linecap="round" opacity="0" stroke-linejoin="round"/><path d="M 650.6252301147 400.56727530574994 L 638.3524470566 400.56727530574994 L 638.3524470566 412.84005836384995" stroke="rgb(0, 150, 0)" fill="none" stroke-width="1.22727830581px" stroke-linecap="round" stroke-linejoin="round"/></g><g class="trace" data-circuit-json-type="schematic_trace" data-schematic-trace-id="schematic_trace_11"><path d="M 1077.104441383675 216.47552943424998 L 1031.0815049158 216.47552943424998 L 1031.0815049158 185.79357178899997" class="trace-invisible-hover-outline" stroke="rgb(0, 150, 0)" fill="none" stroke-width="9.81822644648px" stroke-linecap="round" opacity="0" stroke-linejoin="round"/><path d="M 1077.104441383675 216.47552943424998 L 1031.0815049158 216.47552943424998 L 1031.0815049158 185.79357178899997" stroke="rgb(0, 150, 0)" fill="none" stroke-width="1.22727830581px" stroke-linecap="round" stroke-linejoin="round"/></g><g class="schematic-port-hover" data-schematic-port-id="source_port_0"><circle cx="650.6252301147" cy="277.83944472474997" r="2.45455661162" fill="red" opacity="0"/></g><g class="schematic-port-hover" data-schematic-port-id="source_port_1"><circle cx="650.6252301147" cy="376.02170918955" r="2.45455661162" fill="red" opacity="0"/></g><g class="schematic-port-hover" data-schematic-port-id="source_port_2"><circle cx="650.6252301147" cy="320.7941854281" r="2.45455661162" fill="red" opacity="0"/></g><g class="schematic-port-hover" data-schematic-port-id="source_port_3"><circle cx="650.6252301147" cy="388.29449224764994" r="2.45455661162" fill="red" opacity="0"/></g><g class="schematic-port-hover" data-schematic-port-id="source_port_4"><circle cx="650.6252301147" cy="400.56727530574994" r="2.45455661162" fill="red" opacity="0"/></g><g class="schematic-port-hover" data-schematic-port-id="source_port_5"><circle cx="650.6252301147" cy="290.11222778284997" r="2.45455661162" fill="red" opacity="0"/></g><g class="schematic-port-hover" data-schematic-port-id="source_port_6"><circle cx="797.8986268119" cy="277.83944472474997" r="2.45455661162" fill="red" opacity="0"/></g><g class="schematic-port-hover" data-schematic-port-id="source_port_7"><circle cx="797.8986268119" cy="363.74892613145" r="2.45455661162" fill="red" opacity="0"/></g><g class="schematic-port-hover" data-schematic-port-id="source_port_8"><circle cx="797.8986268119" cy="376.02170918954994" r="2.45455661162" fill="red" opacity="0"/></g><g class="schematic-port-hover" data-schematic-port-id="source_port_9"><circle cx="650.6252301147" cy="333.0669684862" r="2.45455661162" fill="red" opacity="0"/></g><g class="schematic-port-hover" data-schematic-port-id="source_port_10"><circle cx="650.6252301147" cy="345.3397515443" r="2.45455661162" fill="red" opacity="0"/></g><g class="schematic-port-hover" data-schematic-port-id="source_port_11"><circle cx="797.8986268119" cy="308.52140237" r="2.45455661162" fill="red" opacity="0"/></g><g class="schematic-port-hover" data-schematic-port-id="source_port_12"><circle cx="797.8986268119" cy="320.7941854281" r="2.45455661162" fill="red" opacity="0"/></g><g class="schematic-port-hover" data-schematic-port-id="source_port_13"><circle cx="797.8986268119" cy="333.0669684862" r="2.45455661162" fill="red" opacity="0"/></g><g class="schematic-port-hover" data-schematic-port-id="source_port_14"><circle cx="417.4255781845554" cy="90.60529570596415" r="2.45455661162" fill="red" opacity="0"/></g><g class="schematic-port-hover" data-schematic-port-id="source_port_15"><circle cx="417.45912583704467" cy="158.25401729103578" r="2.45455661162" fill="red" opacity="0"/></g><g class="schematic-port-hover" data-schematic-port-id="source_port_16"><circle cx="356.0952105465447" cy="154.69828521952775" r="2.45455661162" fill="red" opacity="0"/></g><g class="schematic-port-hover" data-schematic-port-id="source_port_17"><circle cx="356.0616628940553" cy="94.16102777747219" r="2.45455661162" fill="red" opacity="0"/></g><g class="schematic-port-hover" data-schematic-port-id="source_port_18"><circle cx="570.8353664108054" cy="90.60529570596415" r="2.45455661162" fill="red" opacity="0"/></g><g class="schematic-port-hover" data-schematic-port-id="source_port_19"><circle cx="570.8689140632946" cy="158.25401729103578" r="2.45455661162" fill="red" opacity="0"/></g><g class="schematic-port-hover" data-schematic-port-id="source_port_20"><circle cx="1077.104441383675" cy="204.20274637614997" r="2.45455661162" fill="red" opacity="0"/></g><g class="schematic-port-hover" data-schematic-port-id="source_port_21"><circle cx="1077.104441383675" cy="216.47552943424998" r="2.45455661162" fill="red" opacity="0"/></g><g class="schematic-port-hover" data-schematic-port-id="source_port_22"><circle cx="1077.104441383675" cy="228.74831249234998" r="2.45455661162" fill="red" opacity="0"/></g><g class="schematic-port-hover" data-schematic-port-id="source_port_23"><circle cx="1077.104441383675" cy="241.02109555044999" r="2.45455661162" fill="red" opacity="0"/></g><g class="schematic-port-hover" data-schematic-port-id="source_port_24"><circle cx="1077.104441383675" cy="253.29387860855" r="2.45455661162" fill="red" opacity="0"/></g><g class="schematic-port-hover" data-schematic-port-id="source_port_25"><circle cx="1077.104441383675" cy="265.56666166664996" r="2.45455661162" fill="red" opacity="0"/></g><g class="schematic-port-hover" data-schematic-port-id="source_port_26"><circle cx="1077.104441383675" cy="277.83944472474997" r="2.45455661162" fill="red" opacity="0"/></g><g class="schematic-port-hover" data-schematic-port-id="source_port_27"><circle cx="1077.104441383675" cy="290.11222778284997" r="2.45455661162" fill="red" opacity="0"/></g><rect class="component-overlay" x="565.121640325689" y="37.01624371029425" width="11.369475543066073" height="25.132321737816284" fill="transparent"/><path d="M 570.7165628026073 37.01624371029425 L 565.121640325689 48.741089959590816" stroke="rgb(132, 0, 0)" fill="none" stroke-width="1.22727830581px" stroke-linecap="round"/><path d="M 570.8961933918371 37.02235555625718 L 576.4911158687551 48.7472324875114" stroke="rgb(132, 0, 0)" fill="none" stroke-width="1.22727830581px" stroke-linecap="round"/><path d="M 570.7813078696302 37.32562216201439 L 570.7813078696302 62.14856544811053" stroke="rgb(132, 0, 0)" fill="none" stroke-width="1.22727830581px" stroke-linecap="round"/><text x="570.5068332129272" y="33.42024463757265" fill="rgb(15, 15, 15)" font-family="sans-serif" text-anchor="middle" dominant-baseline="ideographic" font-size="11.04550475229px">VCC</text><rect class="component-overlay" x="556.7237123805653" y="185.7270839867827" width="27.572114191417313" height="29.665120750537284" fill="transparent"/><path d="M 570.7854867522616 185.7270839867827 L 570.7854867522616 205.95468002130218" stroke="rgb(132, 0, 0)" fill="none" stroke-width="1.22727830581px" stroke-linecap="round"/><path d="M 556.7237123805653 205.95266728488068 L 584.2958265719826 205.95266728488068" stroke="rgb(132, 0, 0)" fill="none" stroke-width="1.22727830581px" stroke-linecap="round"/><path d="M 560.1702289556393 210.67243601110036 L 580.8493099969086 210.67243601110036" stroke="rgb(132, 0, 0)" fill="none" stroke-width="1.22727830581px" stroke-linecap="round"/><path d="M 567.0632559693958 215.39220473732 L 573.9562829831523 215.39220473732" stroke="rgb(132, 0, 0)" fill="none" stroke-width="1.22727830581px" stroke-linecap="round"/><text x="569.4640025636975" y="222.57981536281997" fill="rgb(15, 15, 15)" font-family="sans-serif" text-anchor="middle" dominant-baseline="hanging" font-size="11.04550475229px">GND</text><rect class="component-overlay" x="381.029894454189" y="37.01624371029425" width="11.369475543066073" height="25.132321737816284" fill="transparent"/><path d="M 386.62481693110726 37.01624371029425 L 381.029894454189 48.741089959590816" stroke="rgb(132, 0, 0)" fill="none" stroke-width="1.22727830581px" stroke-linecap="round"/><path d="M 386.804447520337 37.02235555625718 L 392.39936999725506 48.7472324875114" stroke="rgb(132, 0, 0)" fill="none" stroke-width="1.22727830581px" stroke-linecap="round"/><path d="M 386.6895619981302 37.32562216201439 L 386.6895619981302 62.14856544811053" stroke="rgb(132, 0, 0)" fill="none" stroke-width="1.22727830581px" stroke-linecap="round"/><text x="386.41508734142724" y="33.42024463757265" fill="rgb(15, 15, 15)" font-family="sans-serif" text-anchor="middle" dominant-baseline="ideographic" font-size="11.04550475229px">VCC</text><rect class="component-overlay" x="372.63196650906525" y="185.7270839867827" width="27.572114191417313" height="29.665120750537284" fill="transparent"/><path d="M 386.6937408807615 185.7270839867827 L 386.6937408807615 205.95468002130218" stroke="rgb(132, 0, 0)" fill="none" stroke-width="1.22727830581px" stroke-linecap="round"/><path d="M 372.63196650906525 205.95266728488068 L 400.20408070048256 205.95266728488068" stroke="rgb(132, 0, 0)" fill="none" stroke-width="1.22727830581px" stroke-linecap="round"/><path d="M 376.0784830841393 210.67243601110036 L 396.7575641254085 210.67243601110036" stroke="rgb(132, 0, 0)" fill="none" stroke-width="1.22727830581px" stroke-linecap="round"/><path d="M 382.97151009789576 215.39220473732 L 389.8645371116522 215.39220473732" stroke="rgb(132, 0, 0)" fill="none" stroke-width="1.22727830581px" stroke-linecap="round"/><text x="385.3722566921975" y="222.57981536281997" fill="rgb(15, 15, 15)" font-family="sans-serif" text-anchor="middle" dominant-baseline="hanging" font-size="11.04550475229px">GND</text><rect class="component-overlay" x="632.621947145239" y="239.51716416894425" width="11.369475543066073" height="25.132321737816312" fill="transparent"/><path d="M 638.2168696221573 239.51716416894425 L 632.621947145239 251.24201041824082" stroke="rgb(132, 0, 0)" fill="none" stroke-width="1.22727830581px" stroke-linecap="round"/><path d="M 638.3965002113871 239.5232760149072 L 643.9914226883051 251.2481529461614" stroke="rgb(132, 0, 0)" fill="none" stroke-width="1.22727830581px" stroke-linecap="round"/><path d="M 638.2816146891802 239.82654262066438 L 638.2816146891802 264.64948590676056" stroke="rgb(132, 0, 0)" fill="none" stroke-width="1.22727830581px" stroke-linecap="round"/><text x="638.0071400324772" y="235.92116509622267" fill="rgb(15, 15, 15)" font-family="sans-serif" text-anchor="middle" dominant-baseline="ideographic" font-size="11.04550475229px">VCC</text><rect class="component-overlay" x="624.2240192001152" y="412.77357056163277" width="27.572114191417313" height="29.665120750537255" fill="transparent"/><path d="M 638.2857935718115 412.77357056163277 L 638.2857935718115 433.00116659615225" stroke="rgb(132, 0, 0)" fill="none" stroke-width="1.22727830581px" stroke-linecap="round"/><path d="M 624.2240192001152 432.9991538597307 L 651.7961333915325 432.9991538597307" stroke="rgb(132, 0, 0)" fill="none" stroke-width="1.22727830581px" stroke-linecap="round"/><path d="M 627.6705357751893 437.7189225859504 L 648.3496168164585 437.7189225859504" stroke="rgb(132, 0, 0)" fill="none" stroke-width="1.22727830581px" stroke-linecap="round"/><path d="M 634.5635627889457 442.43869131217 L 641.4565898027022 442.43869131217" stroke="rgb(132, 0, 0)" fill="none" stroke-width="1.22727830581px" stroke-linecap="round"/><text x="636.9643093832474" y="449.62630193767" fill="rgb(15, 15, 15)" font-family="sans-serif" text-anchor="middle" dominant-baseline="hanging" font-size="11.04550475229px">GND</text><rect class="component-overlay" x="1025.351005004439" y="159.74407429129425" width="11.369475543066073" height="25.132321737816284" fill="transparent"/><path d="M 1030.9459274813573 159.74407429129425 L 1025.351005004439 171.46892054059083" stroke="rgb(132, 0, 0)" fill="none" stroke-width="1.22727830581px" stroke-linecap="round"/><path d="M 1031.125558070587 159.75018613725717 L 1036.720480547505 171.47506306851142" stroke="rgb(132, 0, 0)" fill="none" stroke-width="1.22727830581px" stroke-linecap="round"/><path d="M 1031.0106725483802 160.0534527430144 L 1031.0106725483802 184.87639602911054" stroke="rgb(132, 0, 0)" fill="none" stroke-width="1.22727830581px" stroke-linecap="round"/><text x="1030.7361978916772" y="156.14807521857267" fill="rgb(15, 15, 15)" font-family="sans-serif" text-anchor="middle" dominant-baseline="ideographic" font-size="11.04550475229px">VCC</text><path class="net-label" d="
    M 797.8986268119,277.83944472474997
    L 801.212278237587,271.21214187337597
    L 822.6651030231459,271.21214187337597
    L 822.6651030231459,284.46674757612396
    L 801.212278237587,284.46674757612396
    Z
  " fill="rgba(255, 255, 255, 0.6)" stroke="rgb(132, 0, 0)" stroke-width="1.22727830581px"/><text class="net-label-text" x="803.4213791880451" y="277.83944472474997" fill="rgb(132, 0, 0)" text-anchor="start" dominant-baseline="central" font-family="sans-serif" font-variant-numeric="tabular-nums" font-size="11.04550475229px" transform="">CS</text><path class="net-label" d="
    M 797.8986268119,308.52140237
    L 801.212278237587,301.894099518626
    L 831.1005959117466,301.894099518626
    L 831.1005959117466,315.148705221374
    L 801.212278237587,315.148705221374
    Z
  " fill="rgba(255, 255, 255, 0.6)" stroke="rgb(132, 0, 0)" stroke-width="1.22727830581px"/><text class="net-label-text" x="803.4213791880451" y="308.52140237" fill="rgb(132, 0, 0)" text-anchor="start" dominant-baseline="central" font-family="sans-serif" font-variant-numeric="tabular-nums" font-size="11.04550475229px" transform="">SDO</text><path class="net-label" d="
    M 797.8986268119,320.7941854281
    L 801.212278237587,314.166882576726
    L 829.8733176059366,314.166882576726
    L 829.8733176059366,327.421488279474
    L 801.212278237587,327.421488279474
    Z
  " fill="rgba(255, 255, 255, 0.6)" stroke="rgb(132, 0, 0)" stroke-width="1.22727830581px"/><text class="net-label-text" x="803.4213791880451" y="320.7941854281" fill="rgb(132, 0, 0)" text-anchor="start" dominant-baseline="central" font-family="sans-serif" font-variant-numeric="tabular-nums" font-size="11.04550475229px" transform="">SDA</text><path class="net-label" d="
    M 797.8986268119,333.0669684862
    L 801.212278237587,326.439665634826
    L 828.6460393001266,326.439665634826
    L 828.6460393001266,339.694271337574
    L 801.212278237587,339.694271337574
    Z
  " fill="rgba(255, 255, 255, 0.6)" stroke="rgb(132, 0, 0)" stroke-width="1.22727830581px"/><text class="net-label-text" x="803.4213791880451" y="333.0669684862" fill="rgb(132, 0, 0)" text-anchor="start" dominant-baseline="central" font-family="sans-serif" font-variant-numeric="tabular-nums" font-size="11.04550475229px" transform="">SCL</text><path class="net-label" d="
    M 797.8986268119,363.74892613145
    L 801.212278237587,357.121623280076
    L 831.763326196884,357.121623280076
    L 831.763326196884,370.376228982824
    L 801.212278237587,370.376228982824
    Z
  " fill="rgba(255, 255, 255, 0.6)" stroke="rgb(132, 0, 0)" stroke-width="1.22727830581px"/><text class="net-label-text" x="803.4213791880451" y="363.74892613145" fill="rgb(132, 0, 0)" text-anchor="start" dominant-baseline="central" font-family="sans-serif" font-variant-numeric="tabular-nums" font-size="11.04550475229px" transform="">INT1</text><path class="net-label" d="
    M 797.8986268119,376.02170918954994
    L 801.212278237587,369.39440633817594
    L 831.763326196884,369.39440633817594
    L 831.763326196884,382.64901204092394
    L 801.212278237587,382.64901204092394
    Z
  " fill="rgba(255, 255, 255, 0.6)" stroke="rgb(132, 0, 0)" stroke-width="1.22727830581px"/><text class="net-label-text" x="803.4213791880451" y="376.02170918954994" fill="rgb(132, 0, 0)" text-anchor="start" dominant-baseline="central" font-family="sans-serif" font-variant-numeric="tabular-nums" font-size="11.04550475229px" transform="">INT2</text><path class="net-label" d="
    M 1077.104441383675,204.20274637614997
    L 1073.790789957988,210.83004922752397
    L 1043.4933795152251,210.83004922752397
    L 1043.4933795152251,197.57544352477598
    L 1073.790789957988,197.57544352477598
    Z
  " fill="rgba(255, 255, 255, 0.6)" stroke="rgb(132, 0, 0)" stroke-width="1.22727830581px"/><text class="net-label-text" x="1071.58168900753" y="204.20274637614997" fill="rgb(132, 0, 0)" text-anchor="end" dominant-baseline="central" font-family="sans-serif" font-variant-numeric="tabular-nums" font-size="11.04550475229px" transform="">GND</text><path class="net-label" d="
    M 1077.104441383675,228.74831249234998
    L 1073.790789957988,235.37561534372398
    L 1052.3379651724292,235.37561534372398
    L 1052.3379651724292,222.12100964097598
    L 1073.790789957988,222.12100964097598
    Z
  " fill="rgba(255, 255, 255, 0.6)" stroke="rgb(132, 0, 0)" stroke-width="1.22727830581px"/><text class="net-label-text" x="1071.58168900753" y="228.74831249234998" fill="rgb(132, 0, 0)" text-anchor="end" dominant-baseline="central" font-family="sans-serif" font-variant-numeric="tabular-nums" font-size="11.04550475229px" transform="">CS</text><path class="net-label" d="
    M 1077.104441383675,241.02109555044999
    L 1073.790789957988,247.64839840182398
    L 1039.7133623333305,247.64839840182398
    L 1039.7133623333305,234.393792699076
    L 1073.790789957988,234.393792699076
    Z
  " fill="rgba(255, 255, 255, 0.6)" stroke="rgb(132, 0, 0)" stroke-width="1.22727830581px"/><text class="net-label-text" x="1071.58168900753" y="241.02109555044999" fill="rgb(132, 0, 0)" text-anchor="end" dominant-baseline="central" font-family="sans-serif" font-variant-numeric="tabular-nums" font-size="11.04550475229px" transform="">INIT1</text><path class="net-label" d="
    M 1077.104441383675,253.29387860855
    L 1073.790789957988,259.921181459924
    L 1039.7133623333305,259.92118145992396
    L 1039.7133623333305,246.666575757176
    L 1073.790789957988,246.666575757176
    Z
  " fill="rgba(255, 255, 255, 0.6)" stroke="rgb(132, 0, 0)" stroke-width="1.22727830581px"/><text class="net-label-text" x="1071.58168900753" y="253.29387860855" fill="rgb(132, 0, 0)" text-anchor="end" dominant-baseline="central" font-family="sans-serif" font-variant-numeric="tabular-nums" font-size="11.04550475229px" transform="">INIT2</text><path class="net-label" d="
    M 1077.104441383675,265.56666166664996
    L 1073.790789957988,272.19396451802396
    L 1043.9024722838285,272.19396451802396
    L 1043.9024722838285,258.93935881527597
    L 1073.790789957988,258.93935881527597
    Z
  " fill="rgba(255, 255, 255, 0.6)" stroke="rgb(132, 0, 0)" stroke-width="1.22727830581px"/><text class="net-label-text" x="1071.58168900753" y="265.56666166664996" fill="rgb(132, 0, 0)" text-anchor="end" dominant-baseline="central" font-family="sans-serif" font-variant-numeric="tabular-nums" font-size="11.04550475229px" transform="">SDO</text><path class="net-label" d="
    M 1077.104441383675,277.83944472474997
    L 1073.790789957988,284.46674757612396
    L 1045.1297505896384,284.46674757612396
    L 1045.1297505896384,271.21214187337597
    L 1073.790789957988,271.21214187337597
    Z
  " fill="rgba(255, 255, 255, 0.6)" stroke="rgb(132, 0, 0)" stroke-width="1.22727830581px"/><text class="net-label-text" x="1071.58168900753" y="277.83944472474997" fill="rgb(132, 0, 0)" text-anchor="end" dominant-baseline="central" font-family="sans-serif" font-variant-numeric="tabular-nums" font-size="11.04550475229px" transform="">SDA</text><path class="net-label" d="
    M 1077.104441383675,290.11222778284997
    L 1073.790789957988,296.73953063422397
    L 1046.3570288954486,296.73953063422397
    L 1046.3570288954486,283.484924931476
    L 1073.790789957988,283.484924931476
    Z
  " fill="rgba(255, 255, 255, 0.6)" stroke="rgb(132, 0, 0)" stroke-width="1.22727830581px"/><text class="net-label-text" x="1071.58168900753" y="290.11222778284997" fill="rgb(132, 0, 0)" text-anchor="end" dominant-baseline="central" font-family="sans-serif" font-variant-numeric="tabular-nums" font-size="11.04550475229px" transform="">SCL</text><text x="294.7145214298" y="541.7042804739" fill="gray" text-anchor="start" dominant-baseline="middle" font-family="sans-serif" font-size="6.136391529050001px" transform="rotate(0, 294.7145214298, 541.7042804739)">Updates</text><text x="294.7145214298" y="553.977063532" fill="gray" text-anchor="start" dominant-baseline="middle" font-family="sans-serif" font-size="6.136391529050001px" transform="rotate(0, 294.7145214298, 553.977063532)">*Non-cantilevered - added standoffs for stability</text><text x="294.7145214298" y="566.2498465901" fill="gray" text-anchor="start" dominant-baseline="middle" font-family="sans-serif" font-size="6.136391529050001px" transform="rotate(0, 294.7145214298, 566.2498465901)">*Add decoupling cap - AD suggested 10uF and 0.1uF after upto 100Ohm resistance</text></svg>