<svg xmlns="http://www.w3.org/2000/svg" width="800" height="600" data-software-used-string="@tscircuit/core@0.0.1015"><style></style><rect class="boundary" x="0" y="0" fill="#000" width="800" height="600" data-type="pcb_background" data-pcb-layer="global"/><rect class="pcb-boundary" fill="none" stroke="#fff" stroke-width="0.3" x="38.00475059382421" y="142.09026128266035" width="723.9904988123517" height="315.81947743467936" data-type="pcb_boundary" data-pcb-layer="global"/><path class="pcb-board" d="M 38.00475059382421 457.9097387173397 L 761.9952494061758 457.9097387173397 L 761.9952494061758 168.31353919239905 L 38.00475059382421 168.31353919239905 Z" fill="none" stroke="rgba(255, 255, 255, 0.5)" stroke-width="3.800475059382423" data-type="pcb_board" data-pcb-layer="board"/><rect class="pcb-pad" fill="rgb(77, 127, 196)" x="408.4560570071259" y="193.96674584323043" width="24.133016627078383" height="48.26603325415677" data-type="pcb_smtpad" data-pcb-layer="bottom"/><rect class="pcb-pad" fill="rgb(77, 127, 196)" x="368.87790973871734" y="193.96674584323043" width="24.133016627078383" height="48.26603325415677" data-type="pcb_smtpad" data-pcb-layer="bottom"/><path class="pcb-trace" stroke="rgb(77, 127, 196)" fill="none" d="M 408.4560570071259 218.0997624703088 L 393.01092636579574 218.0997624703088" stroke-width="12.066508313539192" stroke-linecap="round" stroke-linejoin="round" shape-rendering="crispEdges" data-type="pcb_trace" data-pcb-layer="bottom"/><rect class="pcb-pad" fill="rgb(77, 127, 196)" x="407.9733966745843" y="383.9904988123515" width="25.098337292161517" height="48.26603325415677" data-type="pcb_smtpad" data-pcb-layer="bottom"/><rect class="pcb-pad" fill="rgb(77, 127, 196)" x="368.39524940617576" y="383.9904988123515" width="25.098337292161517" height="48.26603325415677" data-type="pcb_smtpad" data-pcb-layer="bottom"/><path class="pcb-trace" stroke="rgb(77, 127, 196)" fill="none" d="M 407.9733966745843 408.1235154394299 L 393.4935866983373 408.1235154394299" stroke-width="12.066508313539192" stroke-linecap="round" stroke-linejoin="round" shape-rendering="crispEdges" data-type="pcb_trace" data-pcb-layer="bottom"/><path class="pcb-silkscreen pcb-silkscreen-bottom" d="M 445.89073634204277 261.2351543942993 L 355.57624703087885 261.2351543942993 L 355.57624703087885 174.96437054631832 L 445.89073634204277 174.96437054631832 L 445.89073634204277 261.2351543942993 Z" fill="none" stroke="#5da9e9" stroke-width="5.700712589073634" stroke-linecap="round" stroke-linejoin="round" data-pcb-component-id="pcb_component_5" data-pcb-silkscreen-path-id="pcb_silkscreen_path_6" data-type="pcb_silkscreen_path" data-pcb-layer="bottom"/><text x="0" y="0" dx="0" dy="0" fill="#5da9e9" font-family="Arial, sans-serif" font-size="22.802850356294538" text-anchor="middle" dominant-baseline="central" transform="matrix(-1,0,0,1,400.7334916864608,152.1615201900238)" class="pcb-silkscreen-text pcb-silkscreen-bottom" data-pcb-silkscreen-text-id="pcb_component_5" stroke="none" data-type="pcb_silkscreen_text" data-pcb-layer="bottom">JP1</text><path class="pcb-silkscreen pcb-silkscreen-bottom" d="M 446.37339667458434 451.2589073634204 L 355.0935866983373 451.2589073634204 L 355.0935866983373 364.98812351543944 L 446.37339667458434 364.98812351543944 L 446.37339667458434 451.2589073634204 Z" fill="none" stroke="#5da9e9" stroke-width="5.700712589073634" stroke-linecap="round" stroke-linejoin="round" data-pcb-component-id="pcb_component_6" data-pcb-silkscreen-path-id="pcb_silkscreen_path_7" data-type="pcb_silkscreen_path" data-pcb-layer="bottom"/><text x="0" y="0" dx="0" dy="0" fill="#5da9e9" font-family="Arial, sans-serif" font-size="22.802850356294538" text-anchor="middle" dominant-baseline="central" transform="matrix(-1,0,0,1,400.7334916864608,342.1852731591449)" class="pcb-silkscreen-text pcb-silkscreen-bottom" data-pcb-silkscreen-text-id="pcb_component_6" stroke="none" data-type="pcb_silkscreen_text" data-pcb-layer="bottom">JP2</text><rect class="pcb-pad" fill="rgb(200, 52, 52)" x="449.8390232779054" y="252.26216817102173" width="22.87906508313539" height="42.793630403800464" data-type="pcb_smtpad" data-pcb-layer="top"/><rect class="pcb-pad" fill="rgb(200, 52, 52)" x="408.98665273159577" y="252.26216817102173" width="22.87906508313539" height="42.793630403800464" data-type="pcb_smtpad" data-pcb-layer="top"/><rect class="pcb-pad" fill="rgb(200, 52, 52)" x="368.13428218527315" y="252.26216817102173" width="22.87906508313539" height="42.793630403800464" data-type="pcb_smtpad" data-pcb-layer="top"/><rect class="pcb-pad" fill="rgb(200, 52, 52)" x="327.2819116389592" y="252.26216817102173" width="22.87906508313539" height="42.793630403800464" data-type="pcb_smtpad" data-pcb-layer="top"/><rect class="pcb-pad" fill="rgb(200, 52, 52)" x="327.2819116389592" y="331.16747933491655" width="22.87906508313539" height="42.793630403800464" data-type="pcb_smtpad" data-pcb-layer="top"/><rect class="pcb-pad" fill="rgb(200, 52, 52)" x="368.13428218527315" y="331.16747933491655" width="22.87906508313539" height="42.793630403800464" data-type="pcb_smtpad" data-pcb-layer="top"/><rect class="pcb-pad" fill="rgb(200, 52, 52)" x="408.98665273159577" y="331.16747933491655" width="22.87906508313539" height="42.793630403800464" data-type="pcb_smtpad" data-pcb-layer="top"/><rect class="pcb-pad" fill="rgb(200, 52, 52)" x="449.8390232779054" y="331.16747933491655" width="22.87906508313539" height="42.793630403800464" data-type="pcb_smtpad" data-pcb-layer="top"/><rect class="pcb-pad" fill="rgb(200, 52, 52)" x="263.9429928741093" y="403.9429928741093" width="24.323040380047505" height="20.522565320665084" data-type="pcb_smtpad" data-pcb-layer="top"/><rect class="pcb-pad" fill="rgb(200, 52, 52)" x="263.9429928741093" y="365.17814726840857" width="24.323040380047505" height="20.522565320665084" data-type="pcb_smtpad" data-pcb-layer="top"/><rect class="pcb-pad" fill="rgb(200, 52, 52)" x="229.9897501187692" y="238.62232779097386" width="20.522565320665084" height="24.323040380047505" data-type="pcb_smtpad" data-pcb-layer="top"/><rect class="pcb-pad" fill="rgb(200, 52, 52)" x="268.7545957244699" y="238.62232779097386" width="20.522565320665084" height="24.323040380047505" data-type="pcb_smtpad" data-pcb-layer="top"/><rect class="pcb-pad" fill="rgb(200, 52, 52)" x="149.3150650831376" y="176.29453681710214" width="20.522565320665084" height="24.323040380047505" data-type="pcb_smtpad" data-pcb-layer="top"/><rect class="pcb-pad" fill="rgb(200, 52, 52)" x="188.07991068883828" y="176.29453681710214" width="20.522565320665084" height="24.323040380047505" data-type="pcb_smtpad" data-pcb-layer="top"/><rect class="pcb-pad" fill="rgb(200, 52, 52)" x="172.7315914489311" y="300.9501187648456" width="20.522565320665084" height="24.323040380047505" data-type="pcb_smtpad" data-pcb-layer="top"/><rect class="pcb-pad" fill="rgb(200, 52, 52)" x="211.49643705463183" y="300.9501187648456" width="20.522565320665084" height="24.323040380047505" data-type="pcb_smtpad" data-pcb-layer="top"/><rect class="pcb-pad" fill="rgb(200, 52, 52)" x="54.916864608076025" y="407.3634204275534" width="20.522565320665084" height="24.323040380047505" data-type="pcb_smtpad" data-pcb-layer="top"/><rect class="pcb-pad" fill="rgb(200, 52, 52)" x="93.68171021377668" y="407.3634204275534" width="20.522565320665084" height="24.323040380047505" data-type="pcb_smtpad" data-pcb-layer="top"/><rect class="pcb-pad" fill="rgb(200, 52, 52)" x="541.5478764845631" y="320.70774726841216" width="58.907728266033246" height="22.802804750593822" data-type="pcb_smtpad" data-pcb-layer="top"/><rect class="pcb-pad" fill="rgb(200, 52, 52)" x="541.5478764845631" y="358.7124218527311" width="58.907728266033246" height="22.802804750593822" data-type="pcb_smtpad" data-pcb-layer="top"/><rect class="pcb-pad" fill="rgb(200, 52, 52)" x="541.5671828978635" y="244.68874489311332" width="58.907728266033246" height="22.802804750593822" data-type="pcb_smtpad" data-pcb-layer="top"/><rect class="pcb-pad" fill="rgb(200, 52, 52)" x="541.5671828978635" y="282.69341947743226" width="58.907728266033246" height="22.802804750593822" data-type="pcb_smtpad" data-pcb-layer="top"/><rect class="pcb-pad" fill="rgb(200, 52, 52)" x="684.0861605700701" y="396.7257843230424" width="68.40841425178147" height="45.605609501187644" data-type="pcb_smtpad" data-pcb-layer="top"/><rect class="pcb-pad" fill="rgb(200, 52, 52)" x="684.1054669833749" y="183.89188408550868" width="68.40841425178147" height="45.605609501187644" data-type="pcb_smtpad" data-pcb-layer="top"/><path class="pcb-copper-pour pcb-copper-pour-brep" d="M 174.5267634242124 293.3491686460808 L 172.35538298065146 286.19108662013184 L 165.85464142031398 274.02905458168993 L 157.10611503947933 263.3689443429435 L 146.44600480073288 254.62041796210883 L 134.283972762291 248.11967640177136 L 121.08739899484476 244.1165395144369 L 107.36342042755342 242.7648456057007 L 93.63944186026214 244.1165395144369 L 80.44286809281596 248.11967640177136 L 68.28083605437405 254.62041796210883 L 57.620725815627566 263.3689443429435 L 48.87219943479289 274.02905458168993 L 45.605700712589055 280.14024385821165 L 45.605700712589055 175.91448931116392 L 141.71411496437275 175.91448931116392 L 141.71411496437275 208.2185273159145 L 177.4385805225675 208.2185273159145 L 177.4385805225675 175.91448931116392 L 180.47896057007344 175.91448931116392 L 180.47896057007344 208.2185273159145 L 216.2034261282682 208.2185273159145 L 216.2034261282682 175.91448931116392 L 754.394299287411 175.91448931116392 L 754.394299287411 176.29093396674384 L 676.5045168646102 176.29093396674384 L 676.5045168646102 237.09844370546116 L 754.394299287411 237.09844370546116 L 754.394299287411 389.1248342042776 L 676.4852104513054 389.1248342042776 L 676.4852104513054 449.93234394299486 L 754.394299287411 449.93234394299486 L 754.394299287411 450.3087885985748 L 194.82571688313135 450.3087885985748 L 195.00624154119387 450.1606358404813 L 200.394312894058 443.59525190089676 L 204.3980110997764 436.10485939748037 L 206.86347628160314 427.9773099134779 L 207.6959619952494 419.52494061757716 L 206.86347628160314 411.07257132167655 L 204.39801109977643 402.945021837674 L 200.394312894058 395.4546293342576 L 195.0062415411939 388.8892453946731 L 188.44085760160937 383.50117404180895 L 180.95046509819295 379.4974758360906 L 172.82291561419044 377.03201065426384 L 164.3705463182898 376.1995249406176 L 155.91817702238913 377.03201065426384 L 147.79062753838662 379.4974758360906 L 140.30023503497023 383.50117404180895 L 133.7348510953857 388.8892453946731 L 128.34677974252156 395.4546293342576 L 124.34308153680314 402.945021837674 L 121.87761635497645 411.0725713216765 L 121.8052256532066 411.80756645122426 L 121.8052256532066 399.7624703087886 L 86.0807600950119 399.7624703087886 L 86.0807600950119 439.2874109263658 L 121.8052256532066 439.2874109263658 L 121.8052256532066 427.2423147839301 L 121.87761635497645 427.9773099134779 L 124.34308153680314 436.10485939748037 L 128.34677974252156 443.59525190089676 L 133.7348510953857 450.1606358404813 L 133.9153757534482 450.3087885985748 L 45.605700712589055 450.3087885985748 L 45.605700712589055 346.0830340515271 L 48.87219943479289 352.1942233280488 L 57.620725815627566 362.8543335667952 L 68.28083605437405 371.6028599476299 L 80.4428680928159 378.10360150796737 L 93.63944186026208 382.1067383953018 L 107.36342042755342 383.458432304038 L 121.08739899484476 382.1067383953018 L 134.283972762291 378.10360150796737 L 146.44600480073285 371.6028599476299 L 157.1061150394793 362.8543335667953 L 165.85464142031398 352.1942233280488 L 172.35538298065143 340.03219128960694 L 174.5267634242124 332.87410926365794 L 200.85510688836106 332.87410926365794 L 200.85510688836106 293.3491686460808 L 174.5267634242124 293.3491686460808 Z M 533.9662327790986 275.0924693586674 L 533.9662327790986 313.09717434679095 L 608.0758612826615 313.09717434679095 L 608.0758612826615 275.092499762472 L 608.0758612826615 237.08779477434848 L 533.9662327790986 237.08779477434848 L 533.9662327790986 275.0924693586674 Z M 533.9469263657982 351.11150213777086 L 608.0565548693612 351.11150213777086 L 608.0565548693612 313.1067971496473 L 533.9469263657982 313.1067971496473 L 533.9469263657982 351.11150213777086 Z M 401.3857026128309 302.656748693587 L 439.466667933496 302.656748693587 L 439.466667933496 244.6612180522569 L 401.3857026128309 244.6612180522569 L 401.3857026128309 302.656748693587 Z M 360.5333320665083 302.656748693587 L 398.6142973871734 302.656748693587 L 398.6142973871734 244.6612180522569 L 360.5333320665083 244.6612180522569 L 360.5333320665083 302.656748693587 Z M 319.6809615201944 302.656748693587 L 357.7619268408594 302.656748693587 L 357.7619268408594 244.66121805225688 L 319.6809615201944 244.66121805225688 L 319.6809615201944 302.656748693587 Z M 319.68096152019433 381.5620598574818 L 357.7619268408594 381.5620598574818 L 357.7619268408594 323.56652921615165 L 319.68096152019433 323.56652921615165 L 319.68096152019433 381.5620598574818 Z M 360.5333320665083 381.5620598574818 L 398.6142973871734 381.5620598574818 L 398.6142973871734 323.5665292161517 L 360.5333320665083 323.5665292161517 L 360.5333320665083 381.5620598574818 Z M 401.3857026128309 381.5620598574818 L 439.466667933496 381.5620598574818 L 439.466667933496 323.5665292161517 L 401.3857026128309 323.5665292161517 L 401.3857026128309 381.5620598574818 Z M 442.2380731591406 381.5620598574818 L 480.3190384798056 381.5620598574818 L 480.3190384798056 323.5665292161517 L 442.2380731591406 323.5665292161517 L 442.2380731591406 381.5620598574818 Z M 203.89548693586696 332.87410926365794 L 239.61995249406178 332.87410926365794 L 239.61995249406178 293.3491686460808 L 203.89548693586696 293.3491686460808 L 203.89548693586696 332.87410926365794 Z M 222.38880000000432 270.5463182897862 L 258.11326555819915 270.5463182897862 L 258.11326555819915 231.02137767220904 L 222.38880000000432 231.02137767220904 L 222.38880000000432 270.5463182897862 Z M 256.34204275534444 432.0665083135392 L 295.8669833729216 432.0665083135392 L 295.8669833729216 396.34204275534444 L 256.34204275534444 396.34204275534444 L 256.34204275534444 432.0665083135392 Z" fill="rgb(200, 52, 52)" fill-rule="evenodd" fill-opacity="0.5" data-type="pcb_copper_pour" data-pcb-layer="top"/><path class="pcb-silkscreen pcb-silkscreen-top" d="M 478.9053111638991 272.2110023752978 L 478.9053111638991 354.0122755344453" fill="none" stroke="#f2eda1" stroke-width="3.800475059382423" stroke-linecap="round" stroke-linejoin="round" data-pcb-component-id="pcb_component_0" data-pcb-silkscreen-path-id="pcb_silkscreen_path_0" data-type="pcb_silkscreen_path" data-pcb-layer="top"/><path class="pcb-silkscreen pcb-silkscreen-top" d="M 321.0946888361052 272.21100237529777 L 321.0946888361052 354.0122755344452" fill="none" stroke="#f2eda1" stroke-width="3.800475059382423" stroke-linecap="round" stroke-linejoin="round" data-pcb-component-id="pcb_component_0" data-pcb-silkscreen-path-id="pcb_silkscreen_path_1" data-type="pcb_silkscreen_path" data-pcb-layer="top"/><path class="pcb-silkscreen pcb-silkscreen-top" d="M 248.7410926365796 375.4394299287411 L 248.74109263657957 432.0665083135392 L 303.4679334916865 432.0665083135392 L 303.4679334916865 375.4394299287411" fill="none" stroke="#f2eda1" stroke-width="3.800475059382423" stroke-linecap="round" stroke-linejoin="round" data-pcb-component-id="pcb_component_1" data-pcb-silkscreen-path-id="pcb_silkscreen_path_2" data-type="pcb_silkscreen_path" data-pcb-layer="top"/><text x="0" y="0" dx="0" dy="0" fill="#f2eda1" font-family="Arial, sans-serif" font-size="15.201900237529692" text-anchor="middle" dominant-baseline="central" transform="matrix(1,0,0,1,229.7387173396675,394.82185273159143)" class="pcb-silkscreen-text pcb-silkscreen-top" data-pcb-silkscreen-text-id="pcb_component_1" stroke="none" data-type="pcb_silkscreen_text" data-pcb-layer="top">C1</text><path class="pcb-silkscreen pcb-silkscreen-top" d="M 279.0158783848024 223.42042755344417 L 222.38880000000435 223.42042755344417 L 222.38880000000435 278.1472684085511 L 279.0158783848024 278.1472684085511" fill="none" stroke="#f2eda1" stroke-width="3.800475059382423" stroke-linecap="round" stroke-linejoin="round" data-pcb-component-id="pcb_component_2" data-pcb-silkscreen-path-id="pcb_silkscreen_path_3" data-type="pcb_silkscreen_path" data-pcb-layer="top"/><text x="0" y="0" dx="0" dy="0" fill="#f2eda1" font-family="Arial, sans-serif" font-size="15.201900237529692" text-anchor="middle" dominant-baseline="central" transform="matrix(1,0,0,1,259.63345558195203,204.41805225653206)" class="pcb-silkscreen-text pcb-silkscreen-top" data-pcb-silkscreen-text-id="pcb_component_2" stroke="none" data-type="pcb_silkscreen_text" data-pcb-layer="top">C2</text><path class="pcb-silkscreen pcb-silkscreen-top" d="M 198.34119334917082 161.09263657957246 L 141.7141149643727 161.09263657957246 L 141.7141149643727 215.81947743467936 L 198.34119334917082 215.81947743467936" fill="none" stroke="#f2eda1" stroke-width="3.800475059382423" stroke-linecap="round" stroke-linejoin="round" data-pcb-component-id="pcb_component_3" data-pcb-silkscreen-path-id="pcb_silkscreen_path_4" data-type="pcb_silkscreen_path" data-pcb-layer="top"/><text x="0" y="0" dx="0" dy="0" fill="#f2eda1" font-family="Arial, sans-serif" font-size="15.201900237529692" text-anchor="middle" dominant-baseline="central" transform="matrix(1,0,0,1,178.95877054632047,142.09026128266035)" class="pcb-silkscreen-text pcb-silkscreen-top" data-pcb-silkscreen-text-id="pcb_component_3" stroke="none" data-type="pcb_silkscreen_text" data-pcb-layer="top">R1</text><path class="pcb-silkscreen pcb-silkscreen-top" d="M 221.75771971496437 285.74821852731594 L 165.1306413301663 285.74821852731594 L 165.1306413301663 340.4750593824228 L 221.75771971496437 340.4750593824228" fill="none" stroke="#f2eda1" stroke-width="3.800475059382423" stroke-linecap="round" stroke-linejoin="round" data-pcb-component-id="pcb_component_4" data-pcb-silkscreen-path-id="pcb_silkscreen_path_5" data-type="pcb_silkscreen_path" data-pcb-layer="top"/><text x="0" y="0" dx="0" dy="0" fill="#f2eda1" font-family="Arial, sans-serif" font-size="15.201900237529692" text-anchor="middle" dominant-baseline="central" transform="matrix(1,0,0,1,202.375296912114,266.7458432304038)" class="pcb-silkscreen-text pcb-silkscreen-top" data-pcb-silkscreen-text-id="pcb_component_4" stroke="none" data-type="pcb_silkscreen_text" data-pcb-layer="top">R2</text><path class="pcb-silkscreen pcb-silkscreen-top" d="M 103.94299287410922 392.16152019002374 L 47.315914489311126 392.16152019002374 L 47.315914489311126 446.88836104513064 L 103.94299287410922 446.88836104513064" fill="none" stroke="#f2eda1" stroke-width="3.800475059382423" stroke-linecap="round" stroke-linejoin="round" data-pcb-component-id="pcb_component_7" data-pcb-silkscreen-path-id="pcb_silkscreen_path_8" data-type="pcb_silkscreen_path" data-pcb-layer="top"/><text x="0" y="0" dx="0" dy="0" fill="#f2eda1" font-family="Arial, sans-serif" font-size="15.201900237529692" text-anchor="middle" dominant-baseline="central" transform="matrix(1,0,0,1,84.5605700712589,373.15914489311166)" class="pcb-silkscreen-text pcb-silkscreen-top" data-pcb-silkscreen-text-id="pcb_component_7" stroke="none" data-type="pcb_silkscreen_text" data-pcb-layer="top">D1</text><path class="pcb-silkscreen pcb-silkscreen-top" d="M 738.1460484560585 389.879730166273 L 738.1460484560585 241.66246460807767" fill="none" stroke="#f2eda1" stroke-width="3.800475059382423" stroke-linecap="round" stroke-linejoin="round" data-pcb-component-id="pcb_component_8" data-pcb-silkscreen-path-id="pcb_silkscreen_path_9" data-type="pcb_silkscreen_path" data-pcb-layer="top"/><path class="pcb-silkscreen pcb-silkscreen-top" d="M 576.2482584323118 386.8418660332545 L 576.2482584323118 427.8844047505963 L 675.058481710219 427.8844047505963" fill="none" stroke="#f2eda1" stroke-width="3.800475059382423" stroke-linecap="round" stroke-linejoin="round" data-pcb-component-id="pcb_component_8" data-pcb-silkscreen-path-id="pcb_silkscreen_path_10" data-type="pcb_silkscreen_path" data-pcb-layer="top"/><path class="pcb-silkscreen pcb-silkscreen-top" d="M 576.2482584323118 235.58190973871882 L 576.2482584323118 200.61702992874197 L 675.3181529691242 200.61702992874197" fill="none" stroke="#f2eda1" stroke-width="3.800475059382423" stroke-linecap="round" stroke-linejoin="round" data-pcb-component-id="pcb_component_8" data-pcb-silkscreen-path-id="pcb_silkscreen_path_11" data-type="pcb_silkscreen_path" data-pcb-layer="top"/><text x="0" y="0" dx="0" dy="0" fill="#f2eda1" font-family="Arial, sans-serif" font-size="21.890736342042757" text-anchor="start" dominant-baseline="central" transform="matrix(-1.8369701987210297e-16,1,-1,-1.8369701987210297e-16,164.3705463182898,365.938242280285)" class="pcb-silkscreen-text pcb-silkscreen-top" data-pcb-silkscreen-text-id="pcb_component_9" stroke="none" data-type="pcb_silkscreen_text" data-pcb-layer="top">N_INT</text><text x="0" y="0" dx="0" dy="0" fill="#f2eda1" font-family="Arial, sans-serif" font-size="26.603325415676956" text-anchor="middle" dominant-baseline="central" transform="matrix(1,0,0,1,164.3705463182898,322.99287410926365)" class="pcb-silkscreen-text pcb-silkscreen-top" data-pcb-silkscreen-text-id="pcb_component_9" stroke="none" data-type="pcb_silkscreen_text" data-pcb-layer="top">J1</text><g data-type="pcb_plated_hole" data-pcb-layer="through"><circle class="pcb-hole-outer" fill="rgb(200, 52, 52)" cx="164.3705463182898" cy="419.52494061757716" r="35.72446555819477" data-type="pcb_plated_hole" data-pcb-layer="top"/><circle class="pcb-hole-inner" fill="#FF26E2" cx="164.3705463182898" cy="419.52494061757716" r="19.306413301662708" data-type="pcb_plated_hole_drill" data-pcb-layer="drill"/></g><circle class="pcb-hole" cx="107.36342042755342" cy="313.11163895486936" r="62.7458432304038" fill="#FF26E2" data-type="pcb_hole" data-pcb-layer="drill"/></svg>