<svg xmlns="http://www.w3.org/2000/svg" width="800" height="600" data-software-used-string="@tscircuit/core@0.0.564"><style></style><rect class="boundary" x="0" y="0" fill="#000" width="800" height="600"/><rect class="pcb-boundary" fill="none" stroke="#fff" stroke-width="0.3" x="26.711185308848087" y="113.42237061769606" width="746.5776293823037" height="373.15525876460765"/><path class="pcb-board" d="M 26.711185308848087 486.5776293823037 L 773.2888146911519 486.5776293823037 L 773.2888146911519 147.34557595993314 L 26.711185308848087 147.34557595993314 Z" fill="none" stroke="rgba(255, 255, 255, 0.5)" stroke-width="2.671118530884808"/><rect class="pcb-pad" fill="rgb(200, 52, 52)" x="363.00500834724545" y="293.18864774624365" width="18.697829716193656" height="7.479131886477463" data-layer="top"/><rect class="pcb-pad" fill="rgb(200, 52, 52)" x="485.8764607679466" y="293.18864774624365" width="18.697829716193656" height="7.479131886477463" data-layer="top"/><rect class="pcb-pad" fill="rgb(200, 52, 52)" x="393.05509181969944" y="289.58263772954916" width="81.46911519198665" height="54.75792988313856" data-layer="top"/><rect class="pcb-pad" fill="rgb(200, 52, 52)" x="485.8764607679466" y="333.25542570951575" width="18.697829716193656" height="7.479131886477463" data-layer="top"/><rect class="pcb-pad" fill="rgb(200, 52, 52)" x="363.00500834724545" y="333.25542570951575" width="18.697829716193656" height="7.479131886477463" data-layer="top"/><rect class="pcb-pad" fill="rgb(200, 52, 52)" x="383.3055091819699" y="355.69282136894816" width="7.479131886477463" height="18.697829716193656" data-layer="top"/><rect class="pcb-pad" fill="rgb(200, 52, 52)" x="396.661101836394" y="355.69282136894816" width="7.479131886477463" height="18.697829716193656" data-layer="top"/><rect class="pcb-pad" fill="rgb(200, 52, 52)" x="410.016694490818" y="355.69282136894816" width="7.479131886477463" height="18.697829716193656" data-layer="top"/><rect class="pcb-pad" fill="rgb(200, 52, 52)" x="423.37228714524207" y="355.69282136894816" width="7.479131886477463" height="18.697829716193656" data-layer="top"/><rect class="pcb-pad" fill="rgb(200, 52, 52)" x="436.7278797996661" y="355.69282136894816" width="7.479131886477463" height="18.697829716193656" data-layer="top"/><rect class="pcb-pad" fill="rgb(200, 52, 52)" x="450.08347245409016" y="355.69282136894816" width="7.479131886477463" height="18.697829716193656" data-layer="top"/><rect class="pcb-pad" fill="rgb(200, 52, 52)" x="463.43906510851417" y="355.69282136894816" width="7.479131886477463" height="18.697829716193656" data-layer="top"/><rect class="pcb-pad" fill="rgb(200, 52, 52)" x="476.7946577629382" y="355.69282136894816" width="7.479131886477463" height="18.697829716193656" data-layer="top"/><rect class="pcb-pad" fill="rgb(200, 52, 52)" x="383.3055091819699" y="259.5325542570951" width="7.479131886477463" height="18.697829716193656" data-layer="top"/><rect class="pcb-pad" fill="rgb(200, 52, 52)" x="396.661101836394" y="259.5325542570951" width="7.479131886477463" height="18.697829716193656" data-layer="top"/><rect class="pcb-pad" fill="rgb(200, 52, 52)" x="410.016694490818" y="259.5325542570951" width="7.479131886477463" height="18.697829716193656" data-layer="top"/><rect class="pcb-pad" fill="rgb(200, 52, 52)" x="423.37228714524207" y="259.5325542570951" width="7.479131886477463" height="18.697829716193656" data-layer="top"/><rect class="pcb-pad" fill="rgb(200, 52, 52)" x="436.7278797996661" y="259.5325542570951" width="7.479131886477463" height="18.697829716193656" data-layer="top"/><rect class="pcb-pad" fill="rgb(200, 52, 52)" x="450.08347245409016" y="259.5325542570951" width="7.479131886477463" height="18.697829716193656" data-layer="top"/><rect class="pcb-pad" fill="rgb(200, 52, 52)" x="463.43906510851417" y="259.5325542570951" width="7.479131886477463" height="18.697829716193656" data-layer="top"/><rect class="pcb-pad" fill="rgb(200, 52, 52)" x="476.7946577629382" y="259.5325542570951" width="7.479131886477463" height="18.697829716193656" data-layer="top"/><rect class="pcb-pad" fill="rgb(200, 52, 52)" x="556.1268781302169" y="323.6661101836393" width="26.71118530884808" height="29.38230383973289" data-layer="top"/><rect class="pcb-pad" fill="rgb(200, 52, 52)" x="556.1268781302169" y="369.075125208681" width="26.71118530884808" height="29.38230383973289" data-layer="top"/><rect class="pcb-pad" fill="rgb(200, 52, 52)" x="216.8948247078464" y="369.075125208681" width="26.71118530884808" height="29.38230383973289" data-layer="top"/><rect class="pcb-pad" fill="rgb(200, 52, 52)" x="216.8948247078464" y="323.6661101836393" width="26.71118530884808" height="29.38230383973289" data-layer="top"/><rect class="pcb-pad" fill="rgb(200, 52, 52)" x="216.8948247078464" y="235.46577629382296" width="26.71118530884808" height="29.38230383973289" data-layer="top"/><rect class="pcb-pad" fill="rgb(200, 52, 52)" x="216.8948247078464" y="280.87479131886465" width="26.71118530884808" height="29.38230383973289" data-layer="top"/><rect class="pcb-pad" fill="rgb(200, 52, 52)" x="284.74123539232056" y="369.075125208681" width="26.71118530884808" height="29.38230383973289" data-layer="top"/><rect class="pcb-pad" fill="rgb(200, 52, 52)" x="284.74123539232056" y="323.6661101836393" width="26.71118530884808" height="29.38230383973289" data-layer="top"/><rect class="pcb-pad" fill="rgb(200, 52, 52)" x="284.74123539232056" y="235.46577629382296" width="26.71118530884808" height="29.38230383973289" data-layer="top"/><rect class="pcb-pad" fill="rgb(200, 52, 52)" x="284.74123539232056" y="280.87479131886465" width="26.71118530884808" height="29.38230383973289" data-layer="top"/><path class="pcb-silkscreen pcb-silkscreen-top" d="M 593.5225375626044 383.7662771285475 L 593.5225375626044 318.3238731218697 L 545.4424040066779 318.32387312186967 L 545.4424040066777 383.7662771285475" fill="none" stroke="#f2eda1" stroke-width="2.671118530884808" stroke-linecap="round" stroke-linejoin="round" data-pcb-component-id="pcb_component_1" data-pcb-silkscreen-path-id="pcb_silkscreen_path_0"/><path class="pcb-silkscreen pcb-silkscreen-top" d="M 206.21035058430715 338.3572621035058 L 206.21035058430715 403.7996661101836 L 254.29048414023373 403.7996661101836 L 254.29048414023373 338.3572621035058" fill="none" stroke="#f2eda1" stroke-width="2.671118530884808" stroke-linecap="round" stroke-linejoin="round" data-pcb-component-id="pcb_component_2" data-pcb-silkscreen-path-id="pcb_silkscreen_path_1"/><path class="pcb-silkscreen pcb-silkscreen-top" d="M 254.29048414023373 295.5659432387311 L 254.29048414023373 230.12353923205336 L 206.21035058430718 230.1235392320533 L 206.21035058430715 295.5659432387311" fill="none" stroke="#f2eda1" stroke-width="2.671118530884808" stroke-linecap="round" stroke-linejoin="round" data-pcb-component-id="pcb_component_3" data-pcb-silkscreen-path-id="pcb_silkscreen_path_2"/><path class="pcb-silkscreen pcb-silkscreen-top" d="M 274.0567612687813 338.3572621035058 L 274.0567612687813 403.7996661101836 L 322.13689482470784 403.7996661101836 L 322.13689482470784 338.3572621035058" fill="none" stroke="#f2eda1" stroke-width="2.671118530884808" stroke-linecap="round" stroke-linejoin="round" data-pcb-component-id="pcb_component_4" data-pcb-silkscreen-path-id="pcb_silkscreen_path_3"/><path class="pcb-silkscreen pcb-silkscreen-top" d="M 322.13689482470784 295.5659432387311 L 322.13689482470784 230.12353923205336 L 274.0567612687813 230.1235392320533 L 274.0567612687813 295.5659432387311" fill="none" stroke="#f2eda1" stroke-width="2.671118530884808" stroke-linecap="round" stroke-linejoin="round" data-pcb-component-id="pcb_component_5" data-pcb-silkscreen-path-id="pcb_silkscreen_path_4"/><text x="0" y="0" dx="0" dy="0" fill="#f2eda1" font-family="Arial, sans-serif" font-size="10.684474123539232" text-anchor="middle" dominant-baseline="central" transform="matrix(6.123233995736766e-17,1,-1,6.123233995736766e-17,606.8781302170283,361.06176961602665)" class="pcb-silkscreen-text pcb-silkscreen-top" data-pcb-silkscreen-text-id="pcb_component_1" stroke="none">R1</text><text x="0" y="0" dx="0" dy="0" fill="#f2eda1" font-family="Arial, sans-serif" font-size="10.684474123539232" text-anchor="middle" dominant-baseline="central" transform="matrix(-1.8369701987210297e-16,-1,1,-1.8369701987210297e-16,192.8547579298831,361.0617696160266)" class="pcb-silkscreen-text pcb-silkscreen-top" data-pcb-silkscreen-text-id="pcb_component_2" stroke="none">C3</text><text x="0" y="0" dx="0" dy="0" fill="#f2eda1" font-family="Arial, sans-serif" font-size="10.684474123539232" text-anchor="middle" dominant-baseline="central" transform="matrix(6.123233995736766e-17,1,-1,6.123233995736766e-17,267.6460767946578,272.8614357262103)" class="pcb-silkscreen-text pcb-silkscreen-top" data-pcb-silkscreen-text-id="pcb_component_3" stroke="none">C4</text><text x="0" y="0" dx="0" dy="0" fill="#f2eda1" font-family="Arial, sans-serif" font-size="10.684474123539232" text-anchor="middle" dominant-baseline="central" transform="matrix(-1.8369701987210297e-16,-1,1,-1.8369701987210297e-16,260.70116861435724,361.0617696160266)" class="pcb-silkscreen-text pcb-silkscreen-top" data-pcb-silkscreen-text-id="pcb_component_4" stroke="none">C1</text><text x="0" y="0" dx="0" dy="0" fill="#f2eda1" font-family="Arial, sans-serif" font-size="10.684474123539232" text-anchor="middle" dominant-baseline="central" transform="matrix(6.123233995736766e-17,1,-1,6.123233995736766e-17,335.4924874791319,272.8614357262103)" class="pcb-silkscreen-text pcb-silkscreen-top" data-pcb-silkscreen-text-id="pcb_component_5" stroke="none">C2</text><text x="0" y="0" dx="0" dy="0" fill="#f2eda1" font-family="Arial, sans-serif" font-size="15.385642737896497" text-anchor="end" dominant-baseline="central" transform="matrix(6.123233995736766e-17,1,-1,6.123233995736766e-17,60.63439065108514,414.99165275459086)" class="pcb-silkscreen-text pcb-silkscreen-top" data-pcb-silkscreen-text-id="pcb_component_6" stroke="none">OE</text><text x="0" y="0" dx="0" dy="0" fill="#5da9e9" font-family="Arial, sans-serif" font-size="15.385642737896497" text-anchor="start" dominant-baseline="central" transform="matrix(-6.123233995736766e-17,-1,-1,6.123233995736766e-17,60.63439065108514,414.99165275459086)" class="pcb-silkscreen-text pcb-silkscreen-bottom" data-pcb-silkscreen-text-id="pcb_component_6" stroke="none">OE</text><text x="0" y="0" dx="0" dy="0" fill="#f2eda1" font-family="Arial, sans-serif" font-size="15.385642737896497" text-anchor="end" dominant-baseline="central" transform="matrix(6.123233995736766e-17,1,-1,6.123233995736766e-17,128.48080133555925,414.99165275459086)" class="pcb-silkscreen-text pcb-silkscreen-top" data-pcb-silkscreen-text-id="pcb_component_6" stroke="none">A8</text><text x="0" y="0" dx="0" dy="0" fill="#5da9e9" font-family="Arial, sans-serif" font-size="15.385642737896497" text-anchor="start" dominant-baseline="central" transform="matrix(-6.123233995736766e-17,-1,-1,6.123233995736766e-17,128.48080133555925,414.99165275459086)" class="pcb-silkscreen-text pcb-silkscreen-bottom" data-pcb-silkscreen-text-id="pcb_component_6" stroke="none">A8</text><text x="0" y="0" dx="0" dy="0" fill="#f2eda1" font-family="Arial, sans-serif" font-size="15.385642737896497" text-anchor="end" dominant-baseline="central" transform="matrix(6.123233995736766e-17,1,-1,6.123233995736766e-17,196.32721202003341,414.99165275459086)" class="pcb-silkscreen-text pcb-silkscreen-top" data-pcb-silkscreen-text-id="pcb_component_6" stroke="none">A7</text><text x="0" y="0" dx="0" dy="0" fill="#5da9e9" font-family="Arial, sans-serif" font-size="15.385642737896497" text-anchor="start" dominant-baseline="central" transform="matrix(-6.123233995736766e-17,-1,-1,6.123233995736766e-17,196.32721202003341,414.99165275459086)" class="pcb-silkscreen-text pcb-silkscreen-bottom" data-pcb-silkscreen-text-id="pcb_component_6" stroke="none">A7</text><text x="0" y="0" dx="0" dy="0" fill="#f2eda1" font-family="Arial, sans-serif" font-size="15.385642737896497" text-anchor="end" dominant-baseline="central" transform="matrix(6.123233995736766e-17,1,-1,6.123233995736766e-17,264.1736227045076,414.99165275459086)" class="pcb-silkscreen-text pcb-silkscreen-top" data-pcb-silkscreen-text-id="pcb_component_6" stroke="none">A6</text><text x="0" y="0" dx="0" dy="0" fill="#5da9e9" font-family="Arial, sans-serif" font-size="15.385642737896497" text-anchor="start" dominant-baseline="central" transform="matrix(-6.123233995736766e-17,-1,-1,6.123233995736766e-17,264.1736227045076,414.99165275459086)" class="pcb-silkscreen-text pcb-silkscreen-bottom" data-pcb-silkscreen-text-id="pcb_component_6" stroke="none">A6</text><text x="0" y="0" dx="0" dy="0" fill="#f2eda1" font-family="Arial, sans-serif" font-size="15.385642737896497" text-anchor="end" dominant-baseline="central" transform="matrix(6.123233995736766e-17,1,-1,6.123233995736766e-17,332.0200333889817,414.99165275459086)" class="pcb-silkscreen-text pcb-silkscreen-top" data-pcb-silkscreen-text-id="pcb_component_6" stroke="none">A5</text><text x="0" y="0" dx="0" dy="0" fill="#5da9e9" font-family="Arial, sans-serif" font-size="15.385642737896497" text-anchor="start" dominant-baseline="central" transform="matrix(-6.123233995736766e-17,-1,-1,6.123233995736766e-17,332.0200333889817,414.99165275459086)" class="pcb-silkscreen-text pcb-silkscreen-bottom" data-pcb-silkscreen-text-id="pcb_component_6" stroke="none">A5</text><text x="0" y="0" dx="0" dy="0" fill="#f2eda1" font-family="Arial, sans-serif" font-size="15.385642737896497" text-anchor="end" dominant-baseline="central" transform="matrix(6.123233995736766e-17,1,-1,6.123233995736766e-17,399.86644407345574,414.99165275459086)" class="pcb-silkscreen-text pcb-silkscreen-top" data-pcb-silkscreen-text-id="pcb_component_6" stroke="none">A4</text><text x="0" y="0" dx="0" dy="0" fill="#5da9e9" font-family="Arial, sans-serif" font-size="15.385642737896497" text-anchor="start" dominant-baseline="central" transform="matrix(-6.123233995736766e-17,-1,-1,6.123233995736766e-17,399.86644407345574,414.99165275459086)" class="pcb-silkscreen-text pcb-silkscreen-bottom" data-pcb-silkscreen-text-id="pcb_component_6" stroke="none">A4</text><text x="0" y="0" dx="0" dy="0" fill="#f2eda1" font-family="Arial, sans-serif" font-size="15.385642737896497" text-anchor="end" dominant-baseline="central" transform="matrix(6.123233995736766e-17,1,-1,6.123233995736766e-17,467.7128547579299,414.99165275459086)" class="pcb-silkscreen-text pcb-silkscreen-top" data-pcb-silkscreen-text-id="pcb_component_6" stroke="none">A3</text><text x="0" y="0" dx="0" dy="0" fill="#5da9e9" font-family="Arial, sans-serif" font-size="15.385642737896497" text-anchor="start" dominant-baseline="central" transform="matrix(-6.123233995736766e-17,-1,-1,6.123233995736766e-17,467.7128547579299,414.99165275459086)" class="pcb-silkscreen-text pcb-silkscreen-bottom" data-pcb-silkscreen-text-id="pcb_component_6" stroke="none">A3</text><text x="0" y="0" dx="0" dy="0" fill="#f2eda1" font-family="Arial, sans-serif" font-size="15.385642737896497" text-anchor="end" dominant-baseline="central" transform="matrix(6.123233995736766e-17,1,-1,6.123233995736766e-17,535.559265442404,414.99165275459086)" class="pcb-silkscreen-text pcb-silkscreen-top" data-pcb-silkscreen-text-id="pcb_component_6" stroke="none">A2</text><text x="0" y="0" dx="0" dy="0" fill="#5da9e9" font-family="Arial, sans-serif" font-size="15.385642737896497" text-anchor="start" dominant-baseline="central" transform="matrix(-6.123233995736766e-17,-1,-1,6.123233995736766e-17,535.559265442404,414.99165275459086)" class="pcb-silkscreen-text pcb-silkscreen-bottom" data-pcb-silkscreen-text-id="pcb_component_6" stroke="none">A2</text><text x="0" y="0" dx="0" dy="0" fill="#f2eda1" font-family="Arial, sans-serif" font-size="15.385642737896497" text-anchor="end" dominant-baseline="central" transform="matrix(6.123233995736766e-17,1,-1,6.123233995736766e-17,603.4056761268781,414.99165275459086)" class="pcb-silkscreen-text pcb-silkscreen-top" data-pcb-silkscreen-text-id="pcb_component_6" stroke="none">A1</text><text x="0" y="0" dx="0" dy="0" fill="#5da9e9" font-family="Arial, sans-serif" font-size="15.385642737896497" text-anchor="start" dominant-baseline="central" transform="matrix(-6.123233995736766e-17,-1,-1,6.123233995736766e-17,603.4056761268781,414.99165275459086)" class="pcb-silkscreen-text pcb-silkscreen-bottom" data-pcb-silkscreen-text-id="pcb_component_6" stroke="none">A1</text><text x="0" y="0" dx="0" dy="0" fill="#f2eda1" font-family="Arial, sans-serif" font-size="15.385642737896497" text-anchor="end" dominant-baseline="central" transform="matrix(6.123233995736766e-17,1,-1,6.123233995736766e-17,671.2520868113522,414.99165275459086)" class="pcb-silkscreen-text pcb-silkscreen-top" data-pcb-silkscreen-text-id="pcb_component_6" stroke="none">VCCA</text><text x="0" y="0" dx="0" dy="0" fill="#5da9e9" font-family="Arial, sans-serif" font-size="15.385642737896497" text-anchor="start" dominant-baseline="central" transform="matrix(-6.123233995736766e-17,-1,-1,6.123233995736766e-17,671.2520868113522,414.99165275459086)" class="pcb-silkscreen-text pcb-silkscreen-bottom" data-pcb-silkscreen-text-id="pcb_component_6" stroke="none">VCCA</text><text x="0" y="0" dx="0" dy="0" fill="#f2eda1" font-family="Arial, sans-serif" font-size="15.385642737896497" text-anchor="end" dominant-baseline="central" transform="matrix(6.123233995736766e-17,1,-1,6.123233995736766e-17,739.0984974958263,414.99165275459086)" class="pcb-silkscreen-text pcb-silkscreen-top" data-pcb-silkscreen-text-id="pcb_component_6" stroke="none">GND</text><text x="0" y="0" dx="0" dy="0" fill="#5da9e9" font-family="Arial, sans-serif" font-size="15.385642737896497" text-anchor="start" dominant-baseline="central" transform="matrix(-6.123233995736766e-17,-1,-1,6.123233995736766e-17,739.0984974958263,414.99165275459086)" class="pcb-silkscreen-text pcb-silkscreen-bottom" data-pcb-silkscreen-text-id="pcb_component_6" stroke="none">GND</text><text x="0" y="0" dx="0" dy="0" fill="#f2eda1" font-family="Arial, sans-serif" font-size="18.697829716193656" text-anchor="middle" dominant-baseline="central" transform="matrix(1,0,0,1,399.86644407345574,384.80801335559255)" class="pcb-silkscreen-text pcb-silkscreen-top" data-pcb-silkscreen-text-id="pcb_component_6" stroke="none">J1</text><text x="0" y="0" dx="0" dy="0" fill="#f2eda1" font-family="Arial, sans-serif" font-size="15.385642737896497" text-anchor="start" dominant-baseline="central" transform="matrix(6.123233995736766e-17,1,-1,6.123233995736766e-17,60.63439065108514,218.931552587646)" class="pcb-silkscreen-text pcb-silkscreen-top" data-pcb-silkscreen-text-id="pcb_component_7" stroke="none">B8</text><text x="0" y="0" dx="0" dy="0" fill="#5da9e9" font-family="Arial, sans-serif" font-size="15.385642737896497" text-anchor="end" dominant-baseline="central" transform="matrix(-6.123233995736766e-17,-1,-1,6.123233995736766e-17,60.63439065108514,218.931552587646)" class="pcb-silkscreen-text pcb-silkscreen-bottom" data-pcb-silkscreen-text-id="pcb_component_7" stroke="none">B8</text><text x="0" y="0" dx="0" dy="0" fill="#f2eda1" font-family="Arial, sans-serif" font-size="15.385642737896497" text-anchor="start" dominant-baseline="central" transform="matrix(6.123233995736766e-17,1,-1,6.123233995736766e-17,128.48080133555925,218.931552587646)" class="pcb-silkscreen-text pcb-silkscreen-top" data-pcb-silkscreen-text-id="pcb_component_7" stroke="none">B7</text><text x="0" y="0" dx="0" dy="0" fill="#5da9e9" font-family="Arial, sans-serif" font-size="15.385642737896497" text-anchor="end" dominant-baseline="central" transform="matrix(-6.123233995736766e-17,-1,-1,6.123233995736766e-17,128.48080133555925,218.931552587646)" class="pcb-silkscreen-text pcb-silkscreen-bottom" data-pcb-silkscreen-text-id="pcb_component_7" stroke="none">B7</text><text x="0" y="0" dx="0" dy="0" fill="#f2eda1" font-family="Arial, sans-serif" font-size="15.385642737896497" text-anchor="start" dominant-baseline="central" transform="matrix(6.123233995736766e-17,1,-1,6.123233995736766e-17,196.3272120200334,218.931552587646)" class="pcb-silkscreen-text pcb-silkscreen-top" data-pcb-silkscreen-text-id="pcb_component_7" stroke="none">B6</text><text x="0" y="0" dx="0" dy="0" fill="#5da9e9" font-family="Arial, sans-serif" font-size="15.385642737896497" text-anchor="end" dominant-baseline="central" transform="matrix(-6.123233995736766e-17,-1,-1,6.123233995736766e-17,196.3272120200334,218.931552587646)" class="pcb-silkscreen-text pcb-silkscreen-bottom" data-pcb-silkscreen-text-id="pcb_component_7" stroke="none">B6</text><text x="0" y="0" dx="0" dy="0" fill="#f2eda1" font-family="Arial, sans-serif" font-size="15.385642737896497" text-anchor="start" dominant-baseline="central" transform="matrix(6.123233995736766e-17,1,-1,6.123233995736766e-17,264.1736227045076,218.931552587646)" class="pcb-silkscreen-text pcb-silkscreen-top" data-pcb-silkscreen-text-id="pcb_component_7" stroke="none">B5</text><text x="0" y="0" dx="0" dy="0" fill="#5da9e9" font-family="Arial, sans-serif" font-size="15.385642737896497" text-anchor="end" dominant-baseline="central" transform="matrix(-6.123233995736766e-17,-1,-1,6.123233995736766e-17,264.1736227045076,218.931552587646)" class="pcb-silkscreen-text pcb-silkscreen-bottom" data-pcb-silkscreen-text-id="pcb_component_7" stroke="none">B5</text><text x="0" y="0" dx="0" dy="0" fill="#f2eda1" font-family="Arial, sans-serif" font-size="15.385642737896497" text-anchor="start" dominant-baseline="central" transform="matrix(6.123233995736766e-17,1,-1,6.123233995736766e-17,332.02003338898163,218.931552587646)" class="pcb-silkscreen-text pcb-silkscreen-top" data-pcb-silkscreen-text-id="pcb_component_7" stroke="none">B4</text><text x="0" y="0" dx="0" dy="0" fill="#5da9e9" font-family="Arial, sans-serif" font-size="15.385642737896497" text-anchor="end" dominant-baseline="central" transform="matrix(-6.123233995736766e-17,-1,-1,6.123233995736766e-17,332.02003338898163,218.931552587646)" class="pcb-silkscreen-text pcb-silkscreen-bottom" data-pcb-silkscreen-text-id="pcb_component_7" stroke="none">B4</text><text x="0" y="0" dx="0" dy="0" fill="#f2eda1" font-family="Arial, sans-serif" font-size="15.385642737896497" text-anchor="start" dominant-baseline="central" transform="matrix(6.123233995736766e-17,1,-1,6.123233995736766e-17,399.86644407345574,218.931552587646)" class="pcb-silkscreen-text pcb-silkscreen-top" data-pcb-silkscreen-text-id="pcb_component_7" stroke="none">B3</text><text x="0" y="0" dx="0" dy="0" fill="#5da9e9" font-family="Arial, sans-serif" font-size="15.385642737896497" text-anchor="end" dominant-baseline="central" transform="matrix(-6.123233995736766e-17,-1,-1,6.123233995736766e-17,399.86644407345574,218.931552587646)" class="pcb-silkscreen-text pcb-silkscreen-bottom" data-pcb-silkscreen-text-id="pcb_component_7" stroke="none">B3</text><text x="0" y="0" dx="0" dy="0" fill="#f2eda1" font-family="Arial, sans-serif" font-size="15.385642737896497" text-anchor="start" dominant-baseline="central" transform="matrix(6.123233995736766e-17,1,-1,6.123233995736766e-17,467.7128547579299,218.931552587646)" class="pcb-silkscreen-text pcb-silkscreen-top" data-pcb-silkscreen-text-id="pcb_component_7" stroke="none">B2</text><text x="0" y="0" dx="0" dy="0" fill="#5da9e9" font-family="Arial, sans-serif" font-size="15.385642737896497" text-anchor="end" dominant-baseline="central" transform="matrix(-6.123233995736766e-17,-1,-1,6.123233995736766e-17,467.7128547579299,218.931552587646)" class="pcb-silkscreen-text pcb-silkscreen-bottom" data-pcb-silkscreen-text-id="pcb_component_7" stroke="none">B2</text><text x="0" y="0" dx="0" dy="0" fill="#f2eda1" font-family="Arial, sans-serif" font-size="15.385642737896497" text-anchor="start" dominant-baseline="central" transform="matrix(6.123233995736766e-17,1,-1,6.123233995736766e-17,535.559265442404,218.931552587646)" class="pcb-silkscreen-text pcb-silkscreen-top" data-pcb-silkscreen-text-id="pcb_component_7" stroke="none">B1</text><text x="0" y="0" dx="0" dy="0" fill="#5da9e9" font-family="Arial, sans-serif" font-size="15.385642737896497" text-anchor="end" dominant-baseline="central" transform="matrix(-6.123233995736766e-17,-1,-1,6.123233995736766e-17,535.559265442404,218.931552587646)" class="pcb-silkscreen-text pcb-silkscreen-bottom" data-pcb-silkscreen-text-id="pcb_component_7" stroke="none">B1</text><text x="0" y="0" dx="0" dy="0" fill="#f2eda1" font-family="Arial, sans-serif" font-size="15.385642737896497" text-anchor="start" dominant-baseline="central" transform="matrix(6.123233995736766e-17,1,-1,6.123233995736766e-17,603.4056761268781,218.931552587646)" class="pcb-silkscreen-text pcb-silkscreen-top" data-pcb-silkscreen-text-id="pcb_component_7" stroke="none">VCCB</text><text x="0" y="0" dx="0" dy="0" fill="#5da9e9" font-family="Arial, sans-serif" font-size="15.385642737896497" text-anchor="end" dominant-baseline="central" transform="matrix(-6.123233995736766e-17,-1,-1,6.123233995736766e-17,603.4056761268781,218.931552587646)" class="pcb-silkscreen-text pcb-silkscreen-bottom" data-pcb-silkscreen-text-id="pcb_component_7" stroke="none">VCCB</text><text x="0" y="0" dx="0" dy="0" fill="#f2eda1" font-family="Arial, sans-serif" font-size="15.385642737896497" text-anchor="start" dominant-baseline="central" transform="matrix(6.123233995736766e-17,1,-1,6.123233995736766e-17,671.2520868113522,218.931552587646)" class="pcb-silkscreen-text pcb-silkscreen-top" data-pcb-silkscreen-text-id="pcb_component_7" stroke="none">GND</text><text x="0" y="0" dx="0" dy="0" fill="#5da9e9" font-family="Arial, sans-serif" font-size="15.385642737896497" text-anchor="end" dominant-baseline="central" transform="matrix(-6.123233995736766e-17,-1,-1,6.123233995736766e-17,671.2520868113522,218.931552587646)" class="pcb-silkscreen-text pcb-silkscreen-bottom" data-pcb-silkscreen-text-id="pcb_component_7" stroke="none">GND</text><text x="0" y="0" dx="0" dy="0" fill="#f2eda1" font-family="Arial, sans-serif" font-size="18.697829716193656" text-anchor="middle" dominant-baseline="central" transform="matrix(1,0,0,1,365.9432387312187,113.42237061769606)" class="pcb-silkscreen-text pcb-silkscreen-top" data-pcb-silkscreen-text-id="pcb_component_7" stroke="none">J2</text><text x="0" y="0" dx="0" dy="0" fill="#5da9e9" font-family="Arial, sans-serif" font-size="26.71118530884808" text-anchor="middle" dominant-baseline="central" transform="matrix(-1,0,0,1,400,316.96160267111844)" class="pcb-silkscreen-text pcb-silkscreen-bottom" data-pcb-silkscreen-text-id="null" stroke="none">TXS0108</text><text x="0" y="0" dx="0" dy="0" fill="#f2eda1" font-family="Arial, sans-serif" font-size="26.71118530884808" text-anchor="middle" dominant-baseline="central" transform="matrix(1,0,0,1,693.8230383973289,316.96160267111844)" class="pcb-silkscreen-text pcb-silkscreen-top" data-pcb-silkscreen-text-id="null" stroke="none">TXS0108</text><g><circle class="pcb-hole-outer" fill="rgb(200, 52, 52)" cx="60.63439065108514" cy="452.6544240400667" r="25.108514190317194"/><circle class="pcb-hole-inner" fill="#FF26E2" cx="60.63439065108514" cy="452.6544240400667" r="13.569282136894826"/></g><g><circle class="pcb-hole-outer" fill="rgb(200, 52, 52)" cx="128.48080133555925" cy="452.6544240400667" r="25.108514190317194"/><circle class="pcb-hole-inner" fill="#FF26E2" cx="128.48080133555925" cy="452.6544240400667" r="13.569282136894826"/></g><g><circle class="pcb-hole-outer" fill="rgb(200, 52, 52)" cx="196.32721202003341" cy="452.6544240400667" r="25.108514190317194"/><circle class="pcb-hole-inner" fill="#FF26E2" cx="196.32721202003341" cy="452.6544240400667" r="13.569282136894826"/></g><g><circle class="pcb-hole-outer" fill="rgb(200, 52, 52)" cx="264.1736227045076" cy="452.6544240400667" r="25.108514190317194"/><circle class="pcb-hole-inner" fill="#FF26E2" cx="264.1736227045076" cy="452.6544240400667" r="13.569282136894826"/></g><g><circle class="pcb-hole-outer" fill="rgb(200, 52, 52)" cx="332.0200333889817" cy="452.6544240400667" r="25.108514190317194"/><circle class="pcb-hole-inner" fill="#FF26E2" cx="332.0200333889817" cy="452.6544240400667" r="13.569282136894826"/></g><g><circle class="pcb-hole-outer" fill="rgb(200, 52, 52)" cx="399.86644407345574" cy="452.6544240400667" r="25.108514190317194"/><circle class="pcb-hole-inner" fill="#FF26E2" cx="399.86644407345574" cy="452.6544240400667" r="13.569282136894826"/></g><g><circle class="pcb-hole-outer" fill="rgb(200, 52, 52)" cx="467.7128547579299" cy="452.6544240400667" r="25.108514190317194"/><circle class="pcb-hole-inner" fill="#FF26E2" cx="467.7128547579299" cy="452.6544240400667" r="13.569282136894826"/></g><g><circle class="pcb-hole-outer" fill="rgb(200, 52, 52)" cx="535.559265442404" cy="452.6544240400667" r="25.108514190317194"/><circle class="pcb-hole-inner" fill="#FF26E2" cx="535.559265442404" cy="452.6544240400667" r="13.569282136894826"/></g><g><circle class="pcb-hole-outer" fill="rgb(200, 52, 52)" cx="603.4056761268781" cy="452.6544240400667" r="25.108514190317194"/><circle class="pcb-hole-inner" fill="#FF26E2" cx="603.4056761268781" cy="452.6544240400667" r="13.569282136894826"/></g><g><circle class="pcb-hole-outer" fill="rgb(200, 52, 52)" cx="671.2520868113522" cy="452.6544240400667" r="25.108514190317194"/><circle class="pcb-hole-inner" fill="#FF26E2" cx="671.2520868113522" cy="452.6544240400667" r="13.569282136894826"/></g><g><circle class="pcb-hole-outer" fill="rgb(200, 52, 52)" cx="739.0984974958263" cy="452.6544240400667" r="25.108514190317194"/><circle class="pcb-hole-inner" fill="#FF26E2" cx="739.0984974958263" cy="452.6544240400667" r="13.569282136894826"/></g><g><circle class="pcb-hole-outer" fill="rgb(200, 52, 52)" cx="60.63439065108514" cy="181.2687813021702" r="25.108514190317194"/><circle class="pcb-hole-inner" fill="#FF26E2" cx="60.63439065108514" cy="181.2687813021702" r="13.569282136894826"/></g><g><circle class="pcb-hole-outer" fill="rgb(200, 52, 52)" cx="128.48080133555925" cy="181.2687813021702" r="25.108514190317194"/><circle class="pcb-hole-inner" fill="#FF26E2" cx="128.48080133555925" cy="181.2687813021702" r="13.569282136894826"/></g><g><circle class="pcb-hole-outer" fill="rgb(200, 52, 52)" cx="196.3272120200334" cy="181.2687813021702" r="25.108514190317194"/><circle class="pcb-hole-inner" fill="#FF26E2" cx="196.3272120200334" cy="181.2687813021702" r="13.569282136894826"/></g><g><circle class="pcb-hole-outer" fill="rgb(200, 52, 52)" cx="264.1736227045076" cy="181.2687813021702" r="25.108514190317194"/><circle class="pcb-hole-inner" fill="#FF26E2" cx="264.1736227045076" cy="181.2687813021702" r="13.569282136894826"/></g><g><circle class="pcb-hole-outer" fill="rgb(200, 52, 52)" cx="332.02003338898163" cy="181.2687813021702" r="25.108514190317194"/><circle class="pcb-hole-inner" fill="#FF26E2" cx="332.02003338898163" cy="181.2687813021702" r="13.569282136894826"/></g><g><circle class="pcb-hole-outer" fill="rgb(200, 52, 52)" cx="399.86644407345574" cy="181.2687813021702" r="25.108514190317194"/><circle class="pcb-hole-inner" fill="#FF26E2" cx="399.86644407345574" cy="181.2687813021702" r="13.569282136894826"/></g><g><circle class="pcb-hole-outer" fill="rgb(200, 52, 52)" cx="467.7128547579299" cy="181.2687813021702" r="25.108514190317194"/><circle class="pcb-hole-inner" fill="#FF26E2" cx="467.7128547579299" cy="181.2687813021702" r="13.569282136894826"/></g><g><circle class="pcb-hole-outer" fill="rgb(200, 52, 52)" cx="535.559265442404" cy="181.2687813021702" r="25.108514190317194"/><circle class="pcb-hole-inner" fill="#FF26E2" cx="535.559265442404" cy="181.2687813021702" r="13.569282136894826"/></g><g><circle class="pcb-hole-outer" fill="rgb(200, 52, 52)" cx="603.4056761268781" cy="181.2687813021702" r="25.108514190317194"/><circle class="pcb-hole-inner" fill="#FF26E2" cx="603.4056761268781" cy="181.2687813021702" r="13.569282136894826"/></g><g><circle class="pcb-hole-outer" fill="rgb(200, 52, 52)" cx="671.2520868113522" cy="181.2687813021702" r="25.108514190317194"/><circle class="pcb-hole-inner" fill="#FF26E2" cx="671.2520868113522" cy="181.2687813021702" r="13.569282136894826"/></g></svg>