<svg xmlns="http://www.w3.org/2000/svg" width="800" height="600"><style></style><rect class="boundary" x="0" y="0" fill="#000" width="800" height="600" data-type="pcb_background" data-pcb-layer="global"/><rect class="pcb-boundary" fill="none" stroke="#fff" stroke-width="0.3" x="209.14214151534122" y="37.570444583594224" width="381.71571696931744" height="524.8591108328114" data-type="pcb_boundary" data-pcb-layer="global"/><path class="pcb-board" d="M 543.143393863494 562.4295554164057 L 256.8566061365059 562.4295554164057 L 252.17977076198335 562.1997972275651 L 247.5479758687357 561.5127353580001 L 243.00582817358162 560.374986589101 L 238.59707104181595 558.797508063469 L 234.36416321468937 556.7954917616435 L 230.34786990851987 554.3882181950244 L 226.58687022337514 551.5988707240078 L 223.11738464219474 548.4543122895523 L 219.9728262077391 544.9848267083719 L 217.18347873672258 541.2238270232272 L 214.77620517010348 537.2075337170577 L 212.77418886827792 532.9746258899311 L 211.19671034264596 528.5658687581654 L 210.05896157374684 524.0237210630113 L 209.3718997041819 519.3919261697636 L 209.14214151534122 514.715090795241 L 209.14214151534122 85.28490920475897 L 209.3718997041819 80.6080738302364 L 210.05896157374684 75.97627893698876 L 211.19671034264596 71.43413124183468 L 212.77418886827792 67.02537411006904 L 214.77620517010345 62.79246628294243 L 217.18347873672255 58.776172976772926 L 219.97282620773908 55.0151732916282 L 223.1173846421947 51.545687710447794 L 226.58687022337514 48.40112927599213 L 230.34786990851987 45.61178180497561 L 234.3641632146893 43.20450823835654 L 238.59707104181595 41.202491936530976 L 243.00582817358162 39.62501341089899 L 247.5479758687357 38.4872646419999 L 252.17977076198332 37.80020277243494 L 256.8566061365059 37.57044458359428 L 447.7144646211646 37.570444583594224 L 452.3912999956872 37.80020277243494 L 457.0230948889348 38.4872646419999 L 461.5652425840889 39.62501341089899 L 465.9739997158546 41.202491936530976 L 470.2069075429812 43.20450823835654 L 474.22320084915066 45.61178180497561 L 477.9842005342954 48.40112927599213 L 481.45368611547576 51.545687710447794 L 484.59824454993145 55.0151732916282 L 487.3875920209479 58.776172976772926 L 489.7948655875671 62.79246628294243 L 491.7968818893926 67.02537411006904 L 493.37436041502457 71.43413124183473 L 494.51210918392366 75.97627893698876 L 495.1991710534886 80.6080738302364 L 495.42892924232933 85.28490920475897 L 495.42892924232933 216.97683155917343 L 567.0006261740764 216.97683155917343 L 567.2009669182191 219.25086497004463 L 567.6177381038281 221.49533955140402 L 568.2471237252842 223.68970463201987 L 569.0833610543787 225.81386834909804 L 570.1187934045242 227.84838161172235 L 571.3439402362723 229.77461617900119 L 572.7475839622377 231.57493522241538 L 574.3168726566389 233.23285481067856 L 576.0374377290298 234.7331948385358 L 577.8935254847911 236.06221801757937 L 579.8681413677972 237.20775565646443 L 581.9432055645551 238.15931907886755 L 584.0997185450875 238.9081956590311 L 586.3179350248464 239.44752859558167 L 588.5775447548432 239.7723796932038 L 590.8578584846587 239.8797745773325 L 590.8578584846587 514.715090795241 L 590.628100295818 519.3919261697636 L 589.941038426253 524.0237210630112 L 588.8032896573538 528.5658687581654 L 587.2258111317219 532.974625889931 L 585.2237948298964 537.2075337170577 L 582.8165212632773 541.223827023227 L 580.0271737922608 544.9848267083718 L 576.8826153578052 548.4543122895523 L 573.4131297766247 551.5988707240078 L 569.65213009148 554.3882181950244 L 565.6358367853105 556.7954917616435 L 561.4029289581839 558.797508063469 L 556.9941718264183 560.374986589101 L 552.4520241312641 561.5127353580001 L 547.8202292380165 562.1997972275651 L 543.143393863494 562.4295554164057 Z" fill="none" stroke="rgba(255, 255, 255, 0.5)" stroke-width="3.757044458359424" data-type="pcb_board" data-pcb-layer="board"/><text x="0" y="0" dx="0" dy="0" fill="#5da9e9" font-family="Arial, sans-serif" font-size="30.05635566687539" text-anchor="middle" dominant-baseline="central" transform="matrix(-1,0,0,1,358.6725109580463,89.60551033187227)" class="pcb-silkscreen-text pcb-silkscreen-bottom" data-pcb-silkscreen-text-id="pcb_silkscreen_text_5" stroke="none" data-type="pcb_silkscreen_text" data-pcb-layer="bottom">Pi SHIM</text><rect class="pcb-pad" fill="rgb(200, 52, 52)" x="366.70927614276764" y="322.43438697557923" width="58.234549780839075" height="22.542221665623046" data-type="pcb_smtpad" data-pcb-layer="top"/><rect class="pcb-pad" fill="rgb(200, 52, 52)" x="366.70927614276764" y="284.86401753287413" width="58.234549780839075" height="22.542221665623046" data-type="pcb_smtpad" data-pcb-layer="top"/><rect class="pcb-pad" fill="rgb(200, 52, 52)" x="366.6901903569191" y="397.5846687539136" width="58.234549780839075" height="22.542221665623046" data-type="pcb_smtpad" data-pcb-layer="top"/><rect class="pcb-pad" fill="rgb(200, 52, 52)" x="366.6901903569192" y="360.0142993112085" width="58.234549780839075" height="22.542221665623046" data-type="pcb_smtpad" data-pcb-layer="top"/><rect class="pcb-pad" fill="rgb(200, 52, 52)" x="216.4077582968065" y="224.7428378209142" width="67.62666499686912" height="45.08444333124609" data-type="pcb_smtpad" data-pcb-layer="top"/><rect class="pcb-pad" fill="rgb(200, 52, 52)" x="216.38867251095797" y="435.14454101440197" width="67.62666499686912" height="45.08444333124609" data-type="pcb_smtpad" data-pcb-layer="top"/><rect class="pcb-pad" fill="rgb(200, 52, 52)" x="461.8259236067626" y="390.3719474013776" width="22.542266750156543" height="49.780839073262364" data-type="pcb_smtpad" data-pcb-layer="top"/><rect class="pcb-pad" fill="rgb(200, 52, 52)" x="497.51784596117716" y="390.3719474013776" width="22.542266750156543" height="49.780839073262364" data-type="pcb_smtpad" data-pcb-layer="top"/><rect class="pcb-pad" fill="rgb(200, 52, 52)" x="533.2097683155916" y="390.3719474013776" width="22.542266750156543" height="49.780839073262364" data-type="pcb_smtpad" data-pcb-layer="top"/><rect class="pcb-pad" fill="rgb(200, 52, 52)" x="533.2097683155916" y="304.89918597370075" width="22.542266750156543" height="49.780839073262364" data-type="pcb_smtpad" data-pcb-layer="top"/><rect class="pcb-pad" fill="rgb(200, 52, 52)" x="461.8259236067627" y="304.89918597370075" width="22.542266750156543" height="49.780839073262364" data-type="pcb_smtpad" data-pcb-layer="top"/><rect class="pcb-pad" fill="rgb(200, 52, 52)" x="444.6336881653099" y="459.2460864120226" width="30.05635566687539" height="35.69192235441452" data-type="pcb_smtpad" data-pcb-layer="top"/><rect class="pcb-pad" fill="rgb(200, 52, 52)" x="506.62492172824045" y="459.2460864120226" width="30.05635566687539" height="35.69192235441452" data-type="pcb_smtpad" data-pcb-layer="top"/><rect class="pcb-pad" fill="rgb(200, 52, 52)" x="461.81089542892914" y="248.75391358797745" width="30.05635566687539" height="35.69192235441452" data-type="pcb_smtpad" data-pcb-layer="top"/><rect class="pcb-pad" fill="rgb(200, 52, 52)" x="523.8021289918597" y="248.75391358797745" width="30.05635566687539" height="35.69192235441452" data-type="pcb_smtpad" data-pcb-layer="top"/><circle class="pcb-pad" fill="rgb(200, 52, 52)" cx="399.99999999999994" cy="60.4733876017533" r="11.92861615529117" data-type="pcb_smtpad" data-pcb-layer="top"/><circle class="pcb-pad" fill="rgb(200, 52, 52)" cx="232.04508453350027" cy="499.4464621164684" r="11.92861615529117" data-type="pcb_smtpad" data-pcb-layer="top"/><path class="pcb-silkscreen pcb-silkscreen-top" d="M 232.99937382592356 241.01440200375708 L 280.7138384470883 241.01440200375708" fill="none" stroke="#f2eda1" stroke-width="3.757044458359424" stroke-linecap="round" stroke-linejoin="round" data-pcb-component-id="pcb_component_0" data-pcb-silkscreen-path-id="pcb_silkscreen_path_0" data-type="pcb_silkscreen_path" data-pcb-layer="top"/><path class="pcb-silkscreen pcb-silkscreen-top" d="M 230.5923143393849 276.5951008140241 L 230.59231433938484 423.11858735128203" fill="none" stroke="#f2eda1" stroke-width="3.757044458359424" stroke-linecap="round" stroke-linejoin="round" data-pcb-component-id="pcb_component_1" data-pcb-silkscreen-path-id="pcb_silkscreen_path_1" data-type="pcb_silkscreen_path" data-pcb-layer="top"/><path class="pcb-silkscreen pcb-silkscreen-top" d="M 390.63998872885895 279.59824921728205 L 390.63998872885895 239.02473137131884 L 292.958936756413 239.02473137131884" fill="none" stroke="#f2eda1" stroke-width="3.757044458359424" stroke-linecap="round" stroke-linejoin="round" data-pcb-component-id="pcb_component_1" data-pcb-silkscreen-path-id="pcb_silkscreen_path_2" data-type="pcb_silkscreen_path" data-pcb-layer="top"/><path class="pcb-silkscreen pcb-silkscreen-top" d="M 390.63998872885895 429.1296556042565 L 390.63998872885895 463.69496806512126 L 292.7022329367534 463.69496806512126" fill="none" stroke="#f2eda1" stroke-width="3.757044458359424" stroke-linecap="round" stroke-linejoin="round" data-pcb-component-id="pcb_component_1" data-pcb-silkscreen-path-id="pcb_silkscreen_path_3" data-type="pcb_silkscreen_path" data-pcb-layer="top"/><path class="pcb-silkscreen pcb-silkscreen-top" d="M 372.3224057607963 263.2789480275495 L 371.1072236031886 263.11896626147995 L 369.9748541014335 262.6499234562387 L 369.0024663657565 261.90378410386796 L 368.25632701339003 260.9313963681867 L 367.78728420814457 259.79902686644016 L 367.6273024420707 258.58384470883243 L 367.78728420814457 257.36866255122044 L 368.25632701339003 256.2362930494696 L 369.0024663657565 255.2639053137884 L 369.9748541014335 254.51776596141764 L 371.1072236031886 254.04872315618067 L 372.3224057607963 253.88874139010682 L 373.5375879184083 254.04872315618067 L 374.6699574201591 254.51776596141764 L 375.64234515584036 255.2639053137884 L 376.38848450820257 256.2362930494696 L 376.8575273134481 257.36866255122044 L 377.017509079522 258.58384470883243 L 376.8575273134481 259.79902686644016 L 376.38848450820257 260.9313963681867 L 375.64234515584036 261.90378410386796 L 374.6699574201591 262.6499234562387 L 373.5375879184083 263.11896626147995 L 372.3224057607963 263.2789480275495 Z" fill="none" stroke="#f2eda1" stroke-width="3.757044458359424" stroke-linecap="round" stroke-linejoin="round" data-pcb-component-id="pcb_component_1" data-pcb-silkscreen-path-id="pcb_silkscreen_path_4" data-type="pcb_silkscreen_path" data-pcb-layer="top"/><text x="0" y="0" dx="0" dy="0" fill="#f2eda1" font-family="Arial, sans-serif" font-size="37.57044458359424" text-anchor="middle" dominant-baseline="central" transform="matrix(-3.8285686989269494e-16,1,-1,-3.8285686989269494e-16,462.9799636819035,352.4954539762054)" class="pcb-silkscreen-text pcb-silkscreen-top" data-pcb-silkscreen-text-id="pcb_silkscreen_text_0" stroke="none" data-type="pcb_silkscreen_text" data-pcb-layer="top">J1</text><text x="0" y="0" dx="0" dy="0" fill="#f2eda1" font-family="Arial, sans-serif" font-size="18.78522229179712" text-anchor="middle" dominant-baseline="central" transform="matrix(6.123233995736766e-17,-1,1,6.123233995736766e-17,394.57482780212894,372.5259862241703)" class="pcb-silkscreen-text pcb-silkscreen-top" data-pcb-silkscreen-text-id="pcb_silkscreen_text_1" stroke="none" data-type="pcb_silkscreen_text" data-pcb-layer="top">U2</text><path class="pcb-silkscreen pcb-silkscreen-top" d="M 429.8621453687201 408.21790857858485 L 429.8621453687201 336.8340638697558" fill="none" stroke="#f2eda1" stroke-width="1.878522229179712" stroke-linecap="round" stroke-linejoin="round" data-pcb-component-id="pcb_component_2" data-pcb-silkscreen-path-id="pcb_silkscreen_path_5" data-type="pcb_silkscreen_path" data-pcb-layer="top"/><path class="pcb-silkscreen pcb-silkscreen-top" d="M 587.7158133037907 408.21790857858485 L 587.7158133037907 336.8340638697558" fill="none" stroke="#f2eda1" stroke-width="1.878522229179712" stroke-linecap="round" stroke-linejoin="round" data-pcb-component-id="pcb_component_2" data-pcb-silkscreen-path-id="pcb_silkscreen_path_6" data-type="pcb_silkscreen_path" data-pcb-layer="top"/><path class="pcb-silkscreen pcb-silkscreen-top" d="M 473.09705698184086 443.4402003757044 L 465.58296806512203 454.7113337507827 L 480.61114589855976 454.7113337507827 L 473.09705698184086 443.4402003757044 Z" fill="none" stroke="#f2eda1" stroke-width="1.878522229179712" stroke-linecap="round" stroke-linejoin="round" data-pcb-component-id="pcb_component_2" data-pcb-silkscreen-path-id="pcb_silkscreen_path_7" data-type="pcb_silkscreen_path" data-pcb-layer="top"/><path class="pcb-silkscreen pcb-silkscreen-top" d="M 521.6530995616781 444.21790857858485 L 437.11959924859104 444.21790857858485 L 437.11959924859104 509.9661865998748 L 521.6530995616781 509.9661865998748" fill="none" stroke="#f2eda1" stroke-width="3.757044458359424" stroke-linecap="round" stroke-linejoin="round" data-pcb-component-id="pcb_component_3" data-pcb-silkscreen-path-id="pcb_silkscreen_path_8" data-type="pcb_silkscreen_path" data-pcb-layer="top"/><text x="0" y="0" dx="0" dy="0" fill="#f2eda1" font-family="Arial, sans-serif" font-size="15.028177833437695" text-anchor="middle" dominant-baseline="central" transform="matrix(1,0,0,1,490.65748278021283,528.7514088916719)" class="pcb-silkscreen-text pcb-silkscreen-top" data-pcb-silkscreen-text-id="pcb_silkscreen_text_2" stroke="none" data-type="pcb_silkscreen_text" data-pcb-layer="top">C1</text><path class="pcb-silkscreen pcb-silkscreen-top" d="M 538.8303068252974 233.72573575453978 L 454.2968065122103 233.72573575453978 L 454.2968065122103 299.4740137758297 L 538.8303068252974 299.4740137758297" fill="none" stroke="#f2eda1" stroke-width="3.757044458359424" stroke-linecap="round" stroke-linejoin="round" data-pcb-component-id="pcb_component_4" data-pcb-silkscreen-path-id="pcb_silkscreen_path_9" data-type="pcb_silkscreen_path" data-pcb-layer="top"/><text x="0" y="0" dx="0" dy="0" fill="#f2eda1" font-family="Arial, sans-serif" font-size="15.028177833437695" text-anchor="middle" dominant-baseline="central" transform="matrix(1,0,0,1,507.8346900438321,214.94051346274267)" class="pcb-silkscreen-text pcb-silkscreen-top" data-pcb-silkscreen-text-id="pcb_silkscreen_text_3" stroke="none" data-type="pcb_silkscreen_text" data-pcb-layer="top">C3</text><text x="0" y="0" dx="0" dy="0" fill="#f2eda1" font-family="Arial, sans-serif" font-size="33.813400125234814" text-anchor="middle" dominant-baseline="central" transform="matrix(1,0,0,1,336.13024420788975,514.1515341264871)" class="pcb-silkscreen-text pcb-silkscreen-top" data-pcb-silkscreen-text-id="pcb_silkscreen_text_4" stroke="none" data-type="pcb_silkscreen_text" data-pcb-layer="top">qwiic</text><g data-type="pcb_plated_hole" data-pcb-layer="through"><circle class="pcb-hole-outer" fill="rgb(200, 52, 52)" cx="256.8566061365059" cy="174.03381340012527" r="28.62867877269881" data-type="pcb_plated_hole" data-pcb-layer="top"/><circle class="pcb-hole-inner" fill="#FF26E2" cx="256.8566061365059" cy="174.03381340012527" r="19.085785848465875" data-type="pcb_plated_hole_drill" data-pcb-layer="drill"/></g><g data-type="pcb_plated_hole" data-pcb-layer="through"><path class="pcb-hole-outer" fill="rgb(200, 52, 52)" d="M-19.085785848465875,-23.85723231058234 h38.17157169693175 a23.85723231058234,23.85723231058234 0 0 1 0,47.71446462116468 h-38.17157169693175 a23.85723231058234,23.85723231058234 0 0 1 0,-47.71446462116468 z" transform="translate(257.3337507827175 92.25046963055732)" data-type="pcb_plated_hole" data-pcb-layer="top"/><path class="pcb-hole-inner" fill="#FF26E2" d="M-19.085785848465875,-19.085785848465875 h38.17157169693175 a19.085785848465875,19.085785848465875 0 0 1 0,38.17157169693175 h-38.17157169693175 a19.085785848465875,19.085785848465875 0 0 1 0,-38.17157169693175 z" transform="translate(257.3337507827175 92.25046963055732)" data-type="pcb_plated_hole_drill" data-pcb-layer="drill"/></g><g data-type="pcb_plated_hole" data-pcb-layer="through"><circle class="pcb-hole-outer" fill="rgb(200, 52, 52)" cx="352.2855353788353" cy="174.03381340012527" r="31.014402003757045" data-type="pcb_plated_hole" data-pcb-layer="top"/><circle class="pcb-hole-inner" fill="#FF26E2" cx="352.2855353788353" cy="174.03381340012527" r="19.085785848465875" data-type="pcb_plated_hole_drill" data-pcb-layer="drill"/></g><g data-type="pcb_plated_hole" data-pcb-layer="through"><path class="pcb-hole-outer" fill="rgb(200, 52, 52)" d="M-19.085785848465875,-23.85723231058234 h38.17157169693175 a23.85723231058234,23.85723231058234 0 0 1 0,47.71446462116468 h-38.17157169693175 a23.85723231058234,23.85723231058234 0 0 1 0,-47.71446462116468 z" transform="translate(352.7626800250469 92.25046963055732)" data-type="pcb_plated_hole" data-pcb-layer="top"/><path class="pcb-hole-inner" fill="#FF26E2" d="M-19.085785848465875,-19.085785848465875 h38.17157169693175 a19.085785848465875,19.085785848465875 0 0 1 0,38.17157169693175 h-38.17157169693175 a19.085785848465875,19.085785848465875 0 0 1 0,-38.17157169693175 z" transform="translate(352.7626800250469 92.25046963055732)" data-type="pcb_plated_hole_drill" data-pcb-layer="drill"/></g><g data-type="pcb_plated_hole" data-pcb-layer="through"><circle class="pcb-hole-outer" fill="rgb(200, 52, 52)" cx="447.7144646211646" cy="174.03381340012527" r="31.014402003757045" data-type="pcb_plated_hole" data-pcb-layer="top"/><circle class="pcb-hole-inner" fill="#FF26E2" cx="447.7144646211646" cy="174.03381340012527" r="19.085785848465875" data-type="pcb_plated_hole_drill" data-pcb-layer="drill"/></g><g data-type="pcb_plated_hole" data-pcb-layer="through"><path class="pcb-hole-outer" fill="rgb(200, 52, 52)" d="M-19.085785848465875,-23.85723231058234 h38.17157169693175 a23.85723231058234,23.85723231058234 0 0 1 0,47.71446462116468 h-38.17157169693175 a23.85723231058234,23.85723231058234 0 0 1 0,-47.71446462116468 z" transform="translate(448.1916092673763 92.25046963055732)" data-type="pcb_plated_hole" data-pcb-layer="top"/><path class="pcb-hole-inner" fill="#FF26E2" d="M-19.085785848465875,-19.085785848465875 h38.17157169693175 a19.085785848465875,19.085785848465875 0 0 1 0,38.17157169693175 h-38.17157169693175 a19.085785848465875,19.085785848465875 0 0 1 0,-38.17157169693175 z" transform="translate(448.1916092673763 92.25046963055732)" data-type="pcb_plated_hole_drill" data-pcb-layer="drill"/></g></svg>