<svg xmlns="http://www.w3.org/2000/svg" width="1200" height="600" style="background-color: rgb(245, 241, 237)" data-real-to-screen-transform="matrix(56.8990042674,0,0,-56.8990042674,582.2190611664,274.5376955903)" data-software-used-string="@tscircuit/core@0.0.616"><style>
              .boundary { fill: rgb(245, 241, 237); }
              .schematic-boundary { fill: none; stroke: #fff; }
              .component { fill: none; stroke: rgb(132, 0, 0); }
              .chip { fill: rgb(255, 255, 194); stroke: rgb(132, 0, 0); }
              .component-pin { fill: none; stroke: rgb(132, 0, 0); }
              .trace:hover {
                filter: invert(1);
              }
              .trace:hover .trace-crossing-outline {
                opacity: 0;
              }
              .trace:hover .trace-junction {
                filter: invert(1);
              }
              .text { font-family: sans-serif; fill: rgb(0, 150, 0); }
              .pin-number { fill: rgb(169, 0, 0); }
              .port-label { fill: rgb(0, 100, 100); }
              .component-name { fill: rgb(0, 100, 100); }
            </style><rect class="boundary" x="0" y="0" width="1200" height="600"/><g data-circuit-json-type="schematic_component" data-schematic-component-id="schematic_component_0"><rect class="component chip" x="115.64722617372007" y="467.99431009946" width="22.759601706959927" height="22.75960170696004" stroke-width="1.137980085348px" fill="rgb(255, 255, 194)" stroke="rgb(132, 0, 0)"/><rect class="component-overlay" x="115.64722617372007" y="467.99431009946" width="22.759601706959927" height="22.75960170696004" fill="transparent"/><text x="115.64722617372007" y="498.150782361182" fill="#006464" text-anchor="start" dominant-baseline="middle" font-family="sans-serif" font-size="10.241820768132px" transform="rotate(0, 115.64722617372007, 498.150782361182)">SCD40_D_R1</text><text x="115.64722617372007" y="460.59743954469803" fill="#006464" text-anchor="start" dominant-baseline="middle" font-family="sans-serif" font-size="10.241820768132px" transform="rotate(0, 115.64722617372007, 460.59743954469803)">U6</text><line class="component-pin" x1="94.025604552108" y1="479.37411095294004" x2="115.64722617372007" y2="479.37411095294004" stroke-width="1.137980085348px"/><g data-schematic-port-id="source_port_0"><circle class="component-pin" cx="92.88762446676003" cy="479.37411095294004" r="1.137980085348" stroke-width="1.137980085348px"/><rect x="91.74964438141203" y="478.23613086759207" width="2.275960170696" height="2.275960170696" opacity="0"/></g><text class="pin-number" x="104.26742532023997" y="478.236130867592" style="font-family: sans-serif;" fill="rgb(169, 0, 0)" text-anchor="middle" dominant-baseline="auto" font-size="8.53485064011px" transform="">1</text></g><g data-circuit-json-type="schematic_component" data-schematic-component-id="schematic_component_1"><rect class="component chip" x="115.64722617372007" y="536.2731152203401" width="22.759601706959927" height="22.759601706959984" stroke-width="1.137980085348px" fill="rgb(255, 255, 194)" stroke="rgb(132, 0, 0)"/><rect class="component-overlay" x="115.64722617372007" y="536.2731152203401" width="22.759601706959927" height="22.759601706959984" fill="transparent"/><text x="115.64722617372007" y="566.4295874820621" fill="#006464" text-anchor="start" dominant-baseline="middle" font-family="sans-serif" font-size="10.241820768132px" transform="rotate(0, 115.64722617372007, 566.4295874820621)">SCD41_D_R1</text><text x="115.64722617372007" y="528.876244665578" fill="#006464" text-anchor="start" dominant-baseline="middle" font-family="sans-serif" font-size="10.241820768132px" transform="rotate(0, 115.64722617372007, 528.876244665578)">U7</text><line class="component-pin" x1="94.025604552108" y1="547.65291607382" x2="115.64722617372007" y2="547.65291607382" stroke-width="1.137980085348px"/><g data-schematic-port-id="source_port_1"><circle class="component-pin" cx="92.88762446676003" cy="547.65291607382" r="1.137980085348" stroke-width="1.137980085348px"/><rect x="91.74964438141203" y="546.5149359884721" width="2.275960170696" height="2.275960170696" opacity="0"/></g><text class="pin-number" x="104.26742532023997" y="546.514935988472" style="font-family: sans-serif;" fill="rgb(169, 0, 0)" text-anchor="middle" dominant-baseline="auto" font-size="8.53485064011px" transform="">1</text></g><g data-circuit-json-type="schematic_component" data-schematic-component-id="schematic_component_2"><rect class="component chip" x="1017.49644381201" y="132.2901849218" width="39.82930298717997" height="56.89900426740002" stroke-width="1.137980085348px" fill="rgb(255, 255, 194)" stroke="rgb(132, 0, 0)"/><rect class="component-overlay" x="1017.49644381201" y="132.2901849218" width="39.82930298717997" height="56.89900426740002" fill="transparent"/><text x="1017.49644381201" y="196.586059743962" fill="#006464" text-anchor="start" dominant-baseline="middle" font-family="sans-serif" font-size="10.241820768132px" transform="rotate(0, 1017.49644381201, 196.586059743962)">SM04B_SRSS_TB_LF_SN</text><text x="1017.49644381201" y="124.89331436703802" fill="#006464" text-anchor="start" dominant-baseline="middle" font-family="sans-serif" font-size="10.241820768132px" transform="rotate(0, 1017.49644381201, 124.89331436703802)">JP4</text><line class="component-pin" x1="995.8748221903979" y1="177.80938833572003" x2="1017.49644381201" y2="177.80938833572003" stroke-width="1.137980085348px"/><g data-schematic-port-id="source_port_2"><rect x="993.5988620197021" y="176.67140825037202" width="2.275960170696" height="2.275960170696" opacity="0"/></g><text class="pin-number" x="1006.1166429585301" y="176.671408250372" style="font-family: sans-serif;" fill="rgb(169, 0, 0)" text-anchor="middle" dominant-baseline="auto" font-size="8.53485064011px" transform="">1</text><text class="pin-number" x="1023.18634423875" y="177.80938833572003" style="font-family: sans-serif;" fill="rgb(169, 0, 0)" text-anchor="start" dominant-baseline="middle" font-size="8.53485064011px" transform="">GND</text><line class="component-pin" x1="995.8748221903979" y1="166.42958748224004" x2="1017.49644381201" y2="166.42958748224004" stroke-width="1.137980085348px"/><g data-schematic-port-id="source_port_3"><rect x="993.5988620197021" y="165.29160739689203" width="2.275960170696" height="2.275960170696" opacity="0"/></g><text class="pin-number" x="1006.1166429585301" y="165.291607396892" style="font-family: sans-serif;" fill="rgb(169, 0, 0)" text-anchor="middle" dominant-baseline="auto" font-size="8.53485064011px" transform="">2</text><text class="pin-number" x="1023.18634423875" y="166.42958748224004" style="font-family: sans-serif;" fill="rgb(169, 0, 0)" text-anchor="start" dominant-baseline="middle" font-size="8.53485064011px" transform="">VDD</text><line class="component-pin" x1="995.8748221903979" y1="155.04978662876" x2="1017.49644381201" y2="155.04978662876" stroke-width="1.137980085348px"/><g data-schematic-port-id="source_port_4"><rect x="993.5988620197021" y="153.91180654341198" width="2.275960170696" height="2.275960170696" opacity="0"/></g><text class="pin-number" x="1006.1166429585301" y="153.911806543412" style="font-family: sans-serif;" fill="rgb(169, 0, 0)" text-anchor="middle" dominant-baseline="auto" font-size="8.53485064011px" transform="">3</text><text class="pin-number" x="1023.18634423875" y="155.04978662876" style="font-family: sans-serif;" fill="rgb(169, 0, 0)" text-anchor="start" dominant-baseline="middle" font-size="8.53485064011px" transform="">SDA</text><line class="component-pin" x1="995.8748221903979" y1="143.66998577528003" x2="1017.49644381201" y2="143.66998577528003" stroke-width="1.137980085348px"/><g data-schematic-port-id="source_port_5"><rect x="993.5988620197021" y="142.53200568993202" width="2.275960170696" height="2.275960170696" opacity="0"/></g><text class="pin-number" x="1006.1166429585301" y="142.53200568993202" style="font-family: sans-serif;" fill="rgb(169, 0, 0)" text-anchor="middle" dominant-baseline="auto" font-size="8.53485064011px" transform="">4</text><text class="pin-number" x="1023.18634423875" y="143.66998577528003" style="font-family: sans-serif;" fill="rgb(169, 0, 0)" text-anchor="start" dominant-baseline="middle" font-size="8.53485064011px" transform="">SCL</text></g><g data-circuit-json-type="schematic_component" data-schematic-component-id="schematic_component_3"><rect class="component chip" x="1017.49644381201" y="246.0881934566" width="39.82930298717997" height="56.89900426739999" stroke-width="1.137980085348px" fill="rgb(255, 255, 194)" stroke="rgb(132, 0, 0)"/><rect class="component-overlay" x="1017.49644381201" y="246.0881934566" width="39.82930298717997" height="56.89900426739999" fill="transparent"/><text x="1017.49644381201" y="310.384068278762" fill="#006464" text-anchor="start" dominant-baseline="middle" font-family="sans-serif" font-size="10.241820768132px" transform="rotate(0, 1017.49644381201, 310.384068278762)">SM04B_SRSS_TB_LF_SN</text><text x="1017.49644381201" y="238.69132290183802" fill="#006464" text-anchor="start" dominant-baseline="middle" font-family="sans-serif" font-size="10.241820768132px" transform="rotate(0, 1017.49644381201, 238.69132290183802)">JP5</text><line class="component-pin" x1="995.8748221903979" y1="291.60739687052" x2="1017.49644381201" y2="291.60739687052" stroke-width="1.137980085348px"/><g data-schematic-port-id="source_port_6"><rect x="993.5988620197021" y="290.46941678517203" width="2.275960170696" height="2.275960170696" opacity="0"/></g><text class="pin-number" x="1006.1166429585301" y="290.46941678517203" style="font-family: sans-serif;" fill="rgb(169, 0, 0)" text-anchor="middle" dominant-baseline="auto" font-size="8.53485064011px" transform="">1</text><text class="pin-number" x="1023.18634423875" y="291.60739687052" style="font-family: sans-serif;" fill="rgb(169, 0, 0)" text-anchor="start" dominant-baseline="middle" font-size="8.53485064011px" transform="">GND</text><line class="component-pin" x1="995.8748221903979" y1="280.22759601704" x2="1017.49644381201" y2="280.22759601704" stroke-width="1.137980085348px"/><g data-schematic-port-id="source_port_7"><rect x="993.5988620197021" y="279.08961593169204" width="2.275960170696" height="2.275960170696" opacity="0"/></g><text class="pin-number" x="1006.1166429585301" y="279.08961593169204" style="font-family: sans-serif;" fill="rgb(169, 0, 0)" text-anchor="middle" dominant-baseline="auto" font-size="8.53485064011px" transform="">2</text><text class="pin-number" x="1023.18634423875" y="280.22759601704" style="font-family: sans-serif;" fill="rgb(169, 0, 0)" text-anchor="start" dominant-baseline="middle" font-size="8.53485064011px" transform="">VDD</text><line class="component-pin" x1="995.8748221903979" y1="268.84779516356" x2="1017.49644381201" y2="268.84779516356" stroke-width="1.137980085348px"/><g data-schematic-port-id="source_port_8"><rect x="993.5988620197021" y="267.70981507821205" width="2.275960170696" height="2.275960170696" opacity="0"/></g><text class="pin-number" x="1006.1166429585301" y="267.709815078212" style="font-family: sans-serif;" fill="rgb(169, 0, 0)" text-anchor="middle" dominant-baseline="auto" font-size="8.53485064011px" transform="">3</text><text class="pin-number" x="1023.18634423875" y="268.84779516356" style="font-family: sans-serif;" fill="rgb(169, 0, 0)" text-anchor="start" dominant-baseline="middle" font-size="8.53485064011px" transform="">SDA</text><line class="component-pin" x1="995.8748221903979" y1="257.46799431008003" x2="1017.49644381201" y2="257.46799431008003" stroke-width="1.137980085348px"/><g data-schematic-port-id="source_port_9"><rect x="993.5988620197021" y="256.33001422473205" width="2.275960170696" height="2.275960170696" opacity="0"/></g><text class="pin-number" x="1006.1166429585301" y="256.330014224732" style="font-family: sans-serif;" fill="rgb(169, 0, 0)" text-anchor="middle" dominant-baseline="auto" font-size="8.53485064011px" transform="">4</text><text class="pin-number" x="1023.18634423875" y="257.46799431008003" style="font-family: sans-serif;" fill="rgb(169, 0, 0)" text-anchor="start" dominant-baseline="middle" font-size="8.53485064011px" transform="">SCL</text></g><g data-circuit-json-type="schematic_component" data-schematic-component-id="schematic_component_4"><rect class="component chip" x="548.07965860596" y="251.77809388334" width="68.27880512087995" height="45.519203413919996" stroke-width="1.137980085348px" fill="rgb(255, 255, 194)" stroke="rgb(132, 0, 0)"/><rect class="component-overlay" x="548.07965860596" y="251.77809388334" width="68.27880512087995" height="45.519203413919996" fill="transparent"/><text x="548.07965860596" y="304.694167852022" fill="#006464" text-anchor="start" dominant-baseline="middle" font-family="sans-serif" font-size="10.241820768132px" transform="rotate(0, 548.07965860596, 304.694167852022)">SCD41_D_R1</text><text x="548.07965860596" y="244.38122332857802" fill="#006464" text-anchor="start" dominant-baseline="middle" font-family="sans-serif" font-size="10.241820768132px" transform="rotate(0, 548.07965860596, 244.38122332857802)">U1</text><line class="component-pin" x1="526.458036984348" y1="285.91749644378" x2="548.07965860596" y2="285.91749644378" stroke-width="1.137980085348px"/><g data-schematic-port-id="source_port_15"><rect x="524.1820768136521" y="284.77951635843203" width="2.275960170696" height="2.275960170696" opacity="0"/></g><text class="pin-number" x="536.69985775248" y="284.77951635843203" style="font-family: sans-serif;" fill="rgb(169, 0, 0)" text-anchor="middle" dominant-baseline="auto" font-size="8.53485064011px" transform="">6</text><text class="pin-number" x="553.7695590327" y="285.91749644378" style="font-family: sans-serif;" fill="rgb(169, 0, 0)" text-anchor="start" dominant-baseline="middle" font-size="8.53485064011px" transform="">GND</text><line class="component-pin" x1="526.458036984348" y1="263.15789473682" x2="548.07965860596" y2="263.15789473682" stroke-width="1.137980085348px"/><g data-schematic-port-id="source_port_16"><rect x="524.1820768136521" y="262.01991465147205" width="2.275960170696" height="2.275960170696" opacity="0"/></g><text class="pin-number" x="536.69985775248" y="262.019914651472" style="font-family: sans-serif;" fill="rgb(169, 0, 0)" text-anchor="middle" dominant-baseline="auto" font-size="8.53485064011px" transform="">7</text><text class="pin-number" x="553.7695590327" y="263.15789473682" style="font-family: sans-serif;" fill="rgb(169, 0, 0)" text-anchor="start" dominant-baseline="middle" font-size="8.53485064011px" transform="">VDD</text><line class="component-pin" x1="637.980085348452" y1="280.22759601704" x2="616.35846372684" y2="280.22759601704" stroke-width="1.137980085348px"/><g data-schematic-port-id="source_port_18"><rect x="637.980085348452" y="279.08961593169204" width="2.275960170696" height="2.275960170696" opacity="0"/></g><text class="pin-number" x="627.73826458032" y="279.08961593169204" style="font-family: sans-serif;" fill="rgb(169, 0, 0)" text-anchor="middle" dominant-baseline="auto" font-size="8.53485064011px" transform="">9</text><text class="pin-number" x="610.6685633001" y="280.22759601704" style="font-family: sans-serif;" fill="rgb(169, 0, 0)" text-anchor="end" dominant-baseline="middle" font-size="8.53485064011px" transform="">SCL</text><line class="component-pin" x1="637.980085348452" y1="268.84779516356" x2="616.35846372684" y2="268.84779516356" stroke-width="1.137980085348px"/><g data-schematic-port-id="source_port_19"><rect x="637.980085348452" y="267.70981507821205" width="2.275960170696" height="2.275960170696" opacity="0"/></g><text class="pin-number" x="627.73826458032" y="267.70981507821205" style="font-family: sans-serif;" fill="rgb(169, 0, 0)" text-anchor="middle" dominant-baseline="auto" font-size="8.53485064011px" transform="">10</text><text class="pin-number" x="610.6685633001" y="268.84779516356" style="font-family: sans-serif;" fill="rgb(169, 0, 0)" text-anchor="end" dominant-baseline="middle" font-size="8.53485064011px" transform="">SDA</text><line class="component-pin" x1="526.458036984348" y1="274.5376955903" x2="548.07965860596" y2="274.5376955903" stroke-width="1.137980085348px"/><g data-schematic-port-id="source_port_28"><rect x="524.1820768136521" y="273.39971550495204" width="2.275960170696" height="2.275960170696" opacity="0"/></g><text class="pin-number" x="536.69985775248" y="273.39971550495204" style="font-family: sans-serif;" fill="rgb(169, 0, 0)" text-anchor="middle" dominant-baseline="auto" font-size="8.53485064011px" transform="">19</text><text class="pin-number" x="553.7695590327" y="274.5376955903" style="font-family: sans-serif;" fill="rgb(169, 0, 0)" text-anchor="start" dominant-baseline="middle" font-size="8.53485064011px" transform="">VDDH</text></g><g data-circuit-json-type="schematic_component" data-schematic-component-id="schematic_component_5"><rect class="component-overlay" x="424.9528392603533" y="244.07422475105326" width="30.109052631565532" height="60.21811095303153" fill="transparent"/><path d="M 440.0073655761362 304.2923357040848 L 440.0073655761362 278.6996415362441" stroke="rgb(132, 0, 0)" fill="none" stroke-width="1.137980085348px" stroke-linecap="round"/><path d="M 440.0073655761362 269.6669246087944 L 440.0073655761362 244.07422475105326" stroke="rgb(132, 0, 0)" fill="none" stroke-width="1.137980085348px" stroke-linecap="round"/><path d="M 455.06189189191883 278.6996415362441 L 424.9528392603533 278.69964153624414" stroke="rgb(132, 0, 0)" fill="none" stroke-width="1.137980085348px" stroke-linecap="round"/><path d="M 455.06189189191883 269.6669246087944 L 424.9528392603533 269.6669246087944" stroke="rgb(132, 0, 0)" fill="none" stroke-width="1.137980085348px" stroke-linecap="round"/><text x="450.94177809391203" y="263.26372806682" fill="rgb(15, 15, 15)" font-family="sans-serif" text-anchor="start" dominant-baseline="auto" font-size="10.241820768132px">C1</text><text x="450.94177809391203" y="285.81166311378" fill="rgb(15, 15, 15)" font-family="sans-serif" text-anchor="start" dominant-baseline="hanging" font-size="10.241820768132px">100nF</text></g><g data-circuit-json-type="schematic_component" data-schematic-component-id="schematic_component_6"><rect class="component-overlay" x="339.60433285925336" y="244.07422475105326" width="30.109052631565532" height="60.21811095303153" fill="transparent"/><path d="M 354.65885917503624 304.2923357040848 L 354.65885917503624 278.6996415362441" stroke="rgb(132, 0, 0)" fill="none" stroke-width="1.137980085348px" stroke-linecap="round"/><path d="M 354.65885917503624 269.6669246087944 L 354.65885917503624 244.07422475105326" stroke="rgb(132, 0, 0)" fill="none" stroke-width="1.137980085348px" stroke-linecap="round"/><path d="M 369.7133854908189 278.6996415362441 L 339.60433285925336 278.69964153624414" stroke="rgb(132, 0, 0)" fill="none" stroke-width="1.137980085348px" stroke-linecap="round"/><path d="M 369.7133854908189 269.6669246087944 L 339.60433285925336 269.6669246087944" stroke="rgb(132, 0, 0)" fill="none" stroke-width="1.137980085348px" stroke-linecap="round"/><text x="365.5932716928121" y="263.26372806682" fill="rgb(15, 15, 15)" font-family="sans-serif" text-anchor="start" dominant-baseline="auto" font-size="10.241820768132px">C2</text><text x="365.5932716928121" y="285.81166311378" fill="rgb(15, 15, 15)" font-family="sans-serif" text-anchor="start" dominant-baseline="hanging" font-size="10.241820768132px">4.7µF</text></g><g data-circuit-json-type="schematic_component" data-schematic-component-id="schematic_component_7"><rect class="component-overlay" x="733.9731920340422" y="187.54011379802006" width="15.0545320056832" height="60.2181109530315" fill="transparent"/><path d="M 741.5004580368837 247.75822475105156 L 741.5004580368837 232.70369843526882" stroke="rgb(132, 0, 0)" fill="none" stroke-width="1.137980085348px" stroke-linecap="round"/><path d="M 741.5004580368837 202.5946458037032 L 741.5004580368837 187.54011379802006" stroke="rgb(132, 0, 0)" fill="none" stroke-width="1.137980085348px" stroke-linecap="round"/><path d="M 733.9731920340422 217.64917780938646 L 733.9731920340422 202.59465149360372 L 749.0277240397254 202.59465149360372 L 749.0277240397254 232.70370981506971 L 733.9731920340422 232.70370981506971 L 733.9731920340422 217.64917780938657" stroke="rgb(132, 0, 0)" fill="none" stroke-width="1.137980085348px" stroke-linecap="round"/><text x="757.1827766713008" y="209.5305832147955" fill="rgb(15, 15, 15)" font-family="sans-serif" text-anchor="start" dominant-baseline="middle" font-size="10.241820768132px">R1</text><text x="757.1827766713008" y="227.7382645803635" fill="rgb(15, 15, 15)" font-family="sans-serif" text-anchor="start" dominant-baseline="middle" font-size="10.241820768132px">2.2kΩ</text></g><g data-circuit-json-type="schematic_component" data-schematic-component-id="schematic_component_8"><rect class="component-overlay" x="813.6317980084023" y="187.54011379802006" width="15.0545320056832" height="60.2181109530315" fill="transparent"/><path d="M 821.1590640112438 247.75822475105156 L 821.1590640112438 232.70369843526882" stroke="rgb(132, 0, 0)" fill="none" stroke-width="1.137980085348px" stroke-linecap="round"/><path d="M 821.1590640112438 202.5946458037032 L 821.1590640112438 187.54011379802006" stroke="rgb(132, 0, 0)" fill="none" stroke-width="1.137980085348px" stroke-linecap="round"/><path d="M 813.6317980084023 217.64917780938646 L 813.6317980084023 202.59465149360372 L 828.6863300140855 202.59465149360372 L 828.6863300140855 232.70370981506971 L 813.6317980084023 232.70370981506971 L 813.6317980084023 217.64917780938657" stroke="rgb(132, 0, 0)" fill="none" stroke-width="1.137980085348px" stroke-linecap="round"/><text x="836.8413826456608" y="209.5305832147955" fill="rgb(15, 15, 15)" font-family="sans-serif" text-anchor="start" dominant-baseline="middle" font-size="10.241820768132px">R2</text><text x="836.8413826456608" y="227.7382645803635" fill="rgb(15, 15, 15)" font-family="sans-serif" text-anchor="start" dominant-baseline="middle" font-size="10.241820768132px">2.2kΩ</text></g><g data-circuit-json-type="schematic_component" data-schematic-component-id="schematic_component_9"><rect class="component-overlay" x="108.62198577543022" y="290.1507368420712" width="26.142628733985546" height="59.86669701277566" fill="transparent"/><path d="M 127.237348506574 327.7870554764784 L 134.76461450941576 312.7325291606956" stroke="rgb(132, 0, 0)" fill="none" stroke-width="1.137980085348px" stroke-linecap="round"/><path d="M 127.25008250372906 327.31930014219694 L 127.25008250372906 350.01743385484684" stroke="rgb(132, 0, 0)" fill="none" stroke-width="1.137980085348px" stroke-linecap="round"/><path d="M 119.71008250373241 312.7325291606956 L 127.237348506574 327.7870554764784" stroke="rgb(132, 0, 0)" fill="none" stroke-width="1.137980085348px" stroke-linecap="round"/><path d="M 134.76461450941576 312.7325291606956 L 119.71008250373241 312.7325291606956" stroke="rgb(132, 0, 0)" fill="none" stroke-width="1.137980085348px" stroke-linecap="round"/><path d="M 119.71008250373241 327.7870554764784 L 134.76461450941576 327.7870554764784" stroke="rgb(132, 0, 0)" fill="none" stroke-width="1.137980085348px" stroke-linecap="round"/><path d="M 127.237348506574 312.61623897577385 L 127.23734850657398 290.1507368420712" stroke="rgb(132, 0, 0)" fill="none" stroke-width="1.137980085348px" stroke-linecap="round"/><path d="M 110.78504694185885 328.91857183494153 L 109.82463726902846 334.45725177804 L 115.10274822208439 332.5054566144563" stroke="rgb(132, 0, 0)" fill="none" stroke-width="1.137980085348px" stroke-linecap="round"/><path d="M 117.58702702720433 324.60907539113117 L 117.0787482220835 325.2932005689403 L 111.93190327187237 332.221024182024 L 111.87784921781837 332.2568705547124" stroke="rgb(132, 0, 0)" fill="none" stroke-width="1.137980085348px" stroke-linecap="round"/><path d="M 109.58239544826061 318.8209160739218 L 108.62198577543022 324.35959601702035 L 113.90009672848615 322.4078008534366" stroke="rgb(132, 0, 0)" fill="none" stroke-width="1.137980085348px" stroke-linecap="round"/><path d="M 116.38437553360609 314.5114196301115 L 115.87609672848527 315.19554480792056 L 110.72925177827413 322.1233684210043 L 110.67519772422013 322.15921479369274" stroke="rgb(132, 0, 0)" fill="none" stroke-width="1.137980085348px" stroke-linecap="round"/><text x="138.40682788068" y="331.43669985770003" fill="rgb(15, 15, 15)" font-family="sans-serif" text-anchor="start" dominant-baseline="middle" font-size="10.241820768132px">RED</text><text x="138.40682788068" y="309.24608819341404" fill="rgb(15, 15, 15)" font-family="sans-serif" text-anchor="start" dominant-baseline="middle" font-size="10.241820768132px">D1</text></g><g data-circuit-json-type="schematic_component" data-schematic-component-id="schematic_component_10"><rect class="component-overlay" x="756.2207795162515" y="146.56166546233425" width="50.31584068276561" height="27.261354196289375" fill="transparent"/><path d="M 793.8915220482403 166.46958580371935 L 806.5366201990171 166.46958580371935" stroke="rgb(132, 0, 0)" fill="none" stroke-width="1.137980085348px" stroke-linecap="round"/><path d="M 756.2207795162515 166.56715052633672 L 768.8349587481093 166.56715052633672" stroke="rgb(132, 0, 0)" fill="none" stroke-width="1.137980085348px" stroke-linecap="round"/><path d="M 774.5646998576373 166.56670671410342 L 778.8100483640366 166.56670671410342" stroke="rgb(132, 0, 0)" fill="none" stroke-width="1.137980085348px" stroke-linecap="round"/><path d="M 781.513991465031 159.20676361311098 L 781.513991465031 146.56166546233425" stroke="rgb(132, 0, 0)" fill="none" stroke-width="1.137980085348px" stroke-linecap="round"/><path d="M 774.5273058320328 173.70370813657536 L 774.5273058320328 159.36592150784776" stroke="rgb(132, 0, 0)" fill="none" stroke-width="1.137980085348px" stroke-linecap="round"/><path d="M 778.9138776670237 173.45864981509607 L 778.9138776670237 159.6023823897822" stroke="rgb(132, 0, 0)" fill="none" stroke-width="1.137980085348px" stroke-linecap="round"/><path d="M 784.0078463725691 173.47448480798366 L 784.0078463725691 159.6348489616171" stroke="rgb(132, 0, 0)" fill="none" stroke-width="1.137980085348px" stroke-linecap="round"/><path d="M 779.0247283071374 173.5001462589083 L 783.9625775247739 173.5001462589083" stroke="rgb(132, 0, 0)" fill="none" stroke-width="1.137980085348px" stroke-linecap="round"/><path d="M 779.0357780937661 159.5837877951876 L 783.9421337125406 159.5837877951876" stroke="rgb(132, 0, 0)" fill="none" stroke-width="1.137980085348px" stroke-linecap="round"/><path d="M 788.2508051207891 173.7091875106863 L 788.2508051207891 159.37140088195872" stroke="rgb(132, 0, 0)" fill="none" stroke-width="1.137980085348px" stroke-linecap="round"/><path d="M 788.5151465148147 159.1801576387155 L 788.5151465148147 159.1801576387155 L 789.4042927576886 159.65963714411544 L 790.2041563060789 160.15669839505034 L 790.9177334223526 160.6695212973208 L 791.5480203688778 161.19628575672735 L 792.098013408022 161.7351716790705 L 792.5707088021528 162.2843589701508 L 792.9691028136377 162.8420275357688 L 793.2961917048447 163.40635728172504 L 793.5549717381409 163.97552811382005 L 793.7484391758944 164.54771993785437 L 793.8795902804726 165.1211126596285 L 793.9514213142432 165.69388618494304 L 793.9669285395738 166.2642204195985 L 793.929108218832 166.8302952693954 L 793.8409566143855 167.3902906401343 L 793.7054699886019 167.94238643761577 L 793.5256446038488 168.4847625676403 L 793.3044767224939 169.01559893600842 L 793.0449626069047 169.53307544852072 L 792.7500985194489 170.03537201097768 L 792.4228807224943 170.5206685291799 L 792.0663054784083 170.98714490892783 L 791.6833690495585 171.4329810560221 L 791.2770676983126 171.8563568762632 L 790.8503976870385 172.2554522754517 L 790.4063552781034 172.6284471593881 L 789.9479367338752 172.97352143387295 L 789.4781383167214 173.2888550047068 L 788.9999562890097 173.57262777769017 L 788.5163869131077 173.82301965862362 L 788.5163869131077 173.82301965862362" stroke="rgb(132, 0, 0)" fill="none" stroke-width="1.137980085348px" stroke-linecap="round"/><path d="M 774.2672091037257 159.17294284497441 L 774.2672091037257 159.17294284497441 L 773.3780628608516 159.65242235037434 L 772.5781993124615 160.14948360130927 L 771.8646221961876 160.66230650357974 L 771.2343352496624 161.18907096298628 L 770.6843422105183 161.72795688532943 L 770.2116468163874 162.27714417640973 L 769.8132528049025 162.83481274202774 L 769.4861639136956 163.39914248798397 L 769.2273838803993 163.96831332007898 L 769.0339164426458 164.54050514411327 L 768.9027653380676 165.11389786588742 L 768.830934304297 165.68667139120197 L 768.8154270789664 166.2570056258574 L 768.8532473997083 166.82308047565434 L 768.9413990041547 167.38307584639324 L 769.0768856299384 167.9351716438747 L 769.2567110146914 168.4775477738992 L 769.4778788960464 169.00838414226735 L 769.7373930116355 169.52586065477962 L 770.0322570990913 170.02815721723658 L 770.359474896046 170.5134537354388 L 770.716050140132 170.97993011518676 L 771.0989865689818 171.425766262281 L 771.5052879202276 171.84914208252212 L 771.9319579315018 172.2482374817106 L 772.3760003404369 172.621232365647 L 772.8344188846651 172.96630664013185 L 773.3042173018189 173.28164021096572 L 773.7823993295306 173.56541298394907 L 774.2659687054326 173.81580486488252 L 774.2659687054326 173.81580486488252" stroke="rgb(132, 0, 0)" fill="none" stroke-width="1.137980085348px" stroke-linecap="round"/><path d="M 784.0122788050015 166.56670671410342 L 788.2576273114008 166.56670671410342" stroke="rgb(132, 0, 0)" fill="none" stroke-width="1.137980085348px" stroke-linecap="round"/><text x="782.5396984351586" y="176.66659573758392" fill="rgb(15, 15, 15)" font-family="sans-serif" text-anchor="middle" dominant-baseline="hanging" font-size="10.241820768132px">JP1</text></g><g data-circuit-json-type="schematic_component" data-schematic-component-id="schematic_component_11"><rect class="component-overlay" x="119.46394594612222" y="198.91991465150008" width="15.054532005683157" height="60.21811095303153" fill="transparent"/><path d="M 126.99121194896381 259.1380256045316 L 126.99121194896381 244.08349928874884" stroke="rgb(132, 0, 0)" fill="none" stroke-width="1.137980085348px" stroke-linecap="round"/><path d="M 126.99121194896381 213.97444665718325 L 126.99121194896381 198.91991465150008" stroke="rgb(132, 0, 0)" fill="none" stroke-width="1.137980085348px" stroke-linecap="round"/><path d="M 119.46394594612222 229.02897866286648 L 119.46394594612222 213.97445234708374 L 134.51847795180538 213.97445234708374 L 134.51847795180538 244.08351066854974 L 119.46394594612222 244.08351066854974 L 119.46394594612222 229.0289786628666" stroke="rgb(132, 0, 0)" fill="none" stroke-width="1.137980085348px" stroke-linecap="round"/><text x="142.67353058338085" y="220.91038406827553" fill="rgb(15, 15, 15)" font-family="sans-serif" text-anchor="start" dominant-baseline="middle" font-size="10.241820768132px">R3</text><text x="142.67353058338085" y="239.11806543384353" fill="rgb(15, 15, 15)" font-family="sans-serif" text-anchor="start" dominant-baseline="middle" font-size="10.241820768132px">4.7kΩ</text></g><g data-circuit-json-type="schematic_component" data-schematic-component-id="schematic_component_12"><rect class="component-overlay" x="119.72036984370396" y="135.68350497869753" width="14.650076813649207" height="50.1392375533205" fill="transparent"/><path d="M 127.07380369860823 171.04839829304876 L 127.07380369860823 185.82274253201803" stroke="rgb(132, 0, 0)" fill="none" stroke-width="1.137980085348px" stroke-linecap="round"/><path d="M 126.97623897599087 135.68350497869753 L 126.97623897599087 150.37863442392566" stroke="rgb(132, 0, 0)" fill="none" stroke-width="1.137980085348px" stroke-linecap="round"/><path d="M 126.97668278822417 156.92635561880184 L 126.97668278822417 164.50150782363488" stroke="rgb(132, 0, 0)" fill="none" stroke-width="1.137980085348px" stroke-linecap="round"/><path d="M 119.83968136575223 156.8182304409925 L 134.17746799447983 156.8182304409925" stroke="rgb(132, 0, 0)" fill="none" stroke-width="1.137980085348px" stroke-linecap="round"/><path d="M 119.8342019916413 164.6140085348724 L 134.17198862036886 164.6140085348724" stroke="rgb(132, 0, 0)" fill="none" stroke-width="1.137980085348px" stroke-linecap="round"/><path d="M 134.36323186361207 164.8783499288979 L 134.36323186361207 164.8783499288979 L 133.88375235821215 165.76749617177197 L 133.38669110727722 166.5673597201621 L 132.87386820500677 167.28093683643596 L 132.34710374560024 167.91122378296114 L 131.80821782325708 168.4612168221053 L 131.25903053217675 168.93391221623608 L 130.70136196655875 169.33230622772106 L 130.13703222060252 169.6593951189279 L 129.56786138850754 169.91817515222425 L 128.99566956447322 170.11164258997772 L 128.42227684269906 170.24279369455593 L 127.84950331738453 170.3146247283265 L 127.27916908272908 170.3301319536571 L 126.71309423293216 170.2923116329153 L 126.15309886219326 170.2041600284688 L 125.6010030647118 170.0686734026852 L 125.05862693468728 169.88884801793208 L 124.52779056631915 169.66768013657713 L 124.01031405380687 169.40816602098798 L 123.5080174913499 169.11330193353226 L 123.0227209731477 168.78608413657753 L 122.55624459339974 168.4295088924915 L 122.11040844630548 168.04657246364178 L 121.68703262606438 167.64027111239596 L 121.2879372268759 167.21360110112172 L 120.9149423429395 166.76955869218668 L 120.56986806845464 166.31114014795844 L 120.25453449762078 165.84134173080466 L 119.97076172463741 165.36315970309295 L 119.72036984370396 164.87959032719095 L 119.72036984370396 164.87959032719095" stroke="rgb(132, 0, 0)" fill="none" stroke-width="1.137980085348px" stroke-linecap="round"/><path d="M 134.37044665735317 156.5581337126853 L 134.37044665735317 156.5581337126853 L 133.89096715195325 155.66898746981124 L 133.39390590101831 154.8691239214211 L 132.88108299874784 154.15554680514725 L 132.3543185393413 153.52525985862206 L 131.81543261699815 152.9752668194779 L 131.26624532591785 152.50257142534713 L 130.70857676029985 152.10417741386215 L 130.14424701434362 151.7770885226553 L 129.5750761822486 151.51830848935896 L 129.00288435821432 151.3248410516055 L 128.42949163644016 151.19368994702728 L 127.85671811112563 151.12185891325672 L 127.28638387647017 151.10635168792612 L 126.72030902667325 151.1441720086679 L 126.16031365593435 151.2323236131144 L 125.60821785845289 151.36781023889802 L 125.06584172842837 151.54763562365113 L 124.53500536006024 151.76880350500608 L 124.01752884754796 152.02831762059523 L 123.51523228509099 152.32318170805098 L 123.0299357668888 152.65039950500568 L 122.56345938714082 153.0069747490917 L 122.11762324004657 153.38991117794143 L 121.69424741980546 153.79621252918724 L 121.29515202061698 154.22288254046148 L 120.92215713668058 154.66692494939653 L 120.57708286219572 155.12534349362477 L 120.26174929136187 155.59514191077855 L 119.9779765183785 156.07332393849026 L 119.72758463744505 156.55689331439225 L 119.72758463744505 156.55689331439225" stroke="rgb(132, 0, 0)" fill="none" stroke-width="1.137980085348px" stroke-linecap="round"/><text x="116.82888193474366" y="161.9138093883586" fill="rgb(15, 15, 15)" font-family="sans-serif" text-anchor="end" dominant-baseline="middle" font-size="10.241820768132px">JP2</text></g><g data-circuit-json-type="schematic_component" data-schematic-component-id="schematic_component_13"><rect class="component chip" x="1017.49644381201" y="359.8862019914" width="39.82930298717997" height="56.89900426740002" stroke-width="1.137980085348px" fill="rgb(255, 255, 194)" stroke="rgb(132, 0, 0)"/><rect class="component-overlay" x="1017.49644381201" y="359.8862019914" width="39.82930298717997" height="56.89900426740002" fill="transparent"/><text x="1017.49644381201" y="424.18207681356205" fill="#006464" text-anchor="start" dominant-baseline="middle" font-family="sans-serif" font-size="10.241820768132px" transform="rotate(0, 1017.49644381201, 424.18207681356205)"></text><text x="1017.49644381201" y="352.48933143663805" fill="#006464" text-anchor="start" dominant-baseline="middle" font-family="sans-serif" font-size="10.241820768132px" transform="rotate(0, 1017.49644381201, 352.48933143663805)">JP3</text><line class="component-pin" x1="995.8748221903979" y1="405.40540540532004" x2="1017.49644381201" y2="405.40540540532004" stroke-width="1.137980085348px"/><g data-schematic-port-id="source_port_48"><rect x="993.5988620197021" y="404.26742531997206" width="2.275960170696" height="2.275960170696" opacity="0"/></g><text class="pin-number" x="1006.1166429585301" y="404.267425319972" style="font-family: sans-serif;" fill="rgb(169, 0, 0)" text-anchor="middle" dominant-baseline="auto" font-size="8.53485064011px" transform="">1</text><text class="pin-number" x="1023.18634423875" y="405.40540540532004" style="font-family: sans-serif;" fill="rgb(169, 0, 0)" text-anchor="start" dominant-baseline="middle" font-size="8.53485064011px" transform="">GND</text><line class="component-pin" x1="995.8748221903979" y1="394.02560455184005" x2="1017.49644381201" y2="394.02560455184005" stroke-width="1.137980085348px"/><g data-schematic-port-id="source_port_49"><rect x="993.5988620197021" y="392.88762446649207" width="2.275960170696" height="2.275960170696" opacity="0"/></g><text class="pin-number" x="1006.1166429585301" y="392.887624466492" style="font-family: sans-serif;" fill="rgb(169, 0, 0)" text-anchor="middle" dominant-baseline="auto" font-size="8.53485064011px" transform="">2</text><text class="pin-number" x="1023.18634423875" y="394.02560455184005" style="font-family: sans-serif;" fill="rgb(169, 0, 0)" text-anchor="start" dominant-baseline="middle" font-size="8.53485064011px" transform="">VDD</text><line class="component-pin" x1="995.8748221903979" y1="382.64580369836" x2="1017.49644381201" y2="382.64580369836" stroke-width="1.137980085348px"/><g data-schematic-port-id="source_port_50"><rect x="993.5988620197021" y="381.507823613012" width="2.275960170696" height="2.275960170696" opacity="0"/></g><text class="pin-number" x="1006.1166429585301" y="381.507823613012" style="font-family: sans-serif;" fill="rgb(169, 0, 0)" text-anchor="middle" dominant-baseline="auto" font-size="8.53485064011px" transform="">3</text><text class="pin-number" x="1023.18634423875" y="382.64580369836" style="font-family: sans-serif;" fill="rgb(169, 0, 0)" text-anchor="start" dominant-baseline="middle" font-size="8.53485064011px" transform="">SDA</text><line class="component-pin" x1="995.8748221903979" y1="371.26600284488" x2="1017.49644381201" y2="371.26600284488" stroke-width="1.137980085348px"/><g data-schematic-port-id="source_port_51"><rect x="993.5988620197021" y="370.12802275953203" width="2.275960170696" height="2.275960170696" opacity="0"/></g><text class="pin-number" x="1006.1166429585301" y="370.12802275953203" style="font-family: sans-serif;" fill="rgb(169, 0, 0)" text-anchor="middle" dominant-baseline="auto" font-size="8.53485064011px" transform="">4</text><text class="pin-number" x="1023.18634423875" y="371.26600284488" style="font-family: sans-serif;" fill="rgb(169, 0, 0)" text-anchor="start" dominant-baseline="middle" font-size="8.53485064011px" transform="">SCL</text></g><g class="trace" data-circuit-json-type="schematic_trace" data-schematic-trace-id="schematic_trace_0"><path d="M 741.551820768036 186.27079943102206 L 741.551820768036 166.51282335706213 L 755.9999544806897 166.51282335706213" class="trace-invisible-hover-outline" stroke="rgb(0, 150, 0)" fill="none" stroke-width="9.103840682784px" stroke-linecap="round" opacity="0" stroke-linejoin="round"/><path d="M 741.551820768036 186.27079943102206 L 741.551820768036 166.51282335706213 L 755.9999544806897 166.51282335706213" stroke="rgb(0, 150, 0)" fill="none" stroke-width="1.137980085348px" stroke-linecap="round" stroke-linejoin="round"/></g><g class="trace" data-circuit-json-type="schematic_trace" data-schematic-trace-id="schematic_trace_1"><path d="M 821.2104267423961 186.27079943102206 L 821.2104267423961 166.51990159319303 L 806.7311977239103 166.51990159319303" class="trace-invisible-hover-outline" stroke="rgb(0, 150, 0)" fill="none" stroke-width="9.103840682784px" stroke-linecap="round" opacity="0" stroke-linejoin="round"/><path d="M 821.2104267423961 186.27079943102206 L 821.2104267423961 166.51990159319303 L 806.7311977239103 166.51990159319303" stroke="rgb(0, 150, 0)" fill="none" stroke-width="1.137980085348px" stroke-linecap="round" stroke-linejoin="round"/></g><g class="trace" data-circuit-json-type="schematic_trace" data-schematic-trace-id="schematic_trace_2"><path d="M 127.01147937428397 260.38638406825794 L 127.01147937428397 274.9667539117792 L 127.27925462321701 274.9667539117792 L 127.27925462321701 289.54712375530045" class="trace-invisible-hover-outline" stroke="rgb(0, 150, 0)" fill="none" stroke-width="9.103840682784px" stroke-linecap="round" opacity="0" stroke-linejoin="round"/><path d="M 127.01147937428397 260.38638406825794 L 127.01147937428397 274.9667539117792 L 127.27925462321701 274.9667539117792 L 127.27925462321701 289.54712375530045" stroke="rgb(0, 150, 0)" fill="none" stroke-width="1.137980085348px" stroke-linecap="round" stroke-linejoin="round"/></g><g class="trace" data-circuit-json-type="schematic_trace" data-schematic-trace-id="schematic_trace_3"><path d="M 127.04257468011605 197.65060028450205 L 127.04257468011605 191.87795448080618 L 127.02348790913453 191.87795448080618 L 127.02348790913453 186.10530867711032" class="trace-invisible-hover-outline" stroke="rgb(0, 150, 0)" fill="none" stroke-width="9.103840682784px" stroke-linecap="round" opacity="0" stroke-linejoin="round"/><path d="M 127.04257468011605 197.65060028450205 L 127.04257468011605 191.87795448080618 L 127.02348790913453 191.87795448080618 L 127.02348790913453 186.10530867711032" stroke="rgb(0, 150, 0)" fill="none" stroke-width="1.137980085348px" stroke-linecap="round" stroke-linejoin="round"/></g><g class="schematic-port-hover" data-schematic-port-id="source_port_0"><circle cx="92.88762446676003" cy="479.37411095294004" r="2.275960170696" fill="red" opacity="0"/></g><g class="schematic-port-hover" data-schematic-port-id="source_port_1"><circle cx="92.88762446676003" cy="547.65291607382" r="2.275960170696" fill="red" opacity="0"/></g><g class="schematic-port-hover" data-schematic-port-id="source_port_2"><circle cx="994.7368421050501" cy="177.80938833572003" r="2.275960170696" fill="red" opacity="0"/></g><g class="schematic-port-hover" data-schematic-port-id="source_port_3"><circle cx="994.7368421050501" cy="166.42958748224004" r="2.275960170696" fill="red" opacity="0"/></g><g class="schematic-port-hover" data-schematic-port-id="source_port_4"><circle cx="994.7368421050501" cy="155.04978662876" r="2.275960170696" fill="red" opacity="0"/></g><g class="schematic-port-hover" data-schematic-port-id="source_port_5"><circle cx="994.7368421050501" cy="143.66998577528003" r="2.275960170696" fill="red" opacity="0"/></g><g class="schematic-port-hover" data-schematic-port-id="source_port_6"><circle cx="994.7368421050501" cy="291.60739687052" r="2.275960170696" fill="red" opacity="0"/></g><g class="schematic-port-hover" data-schematic-port-id="source_port_7"><circle cx="994.7368421050501" cy="280.22759601704" r="2.275960170696" fill="red" opacity="0"/></g><g class="schematic-port-hover" data-schematic-port-id="source_port_8"><circle cx="994.7368421050501" cy="268.84779516356" r="2.275960170696" fill="red" opacity="0"/></g><g class="schematic-port-hover" data-schematic-port-id="source_port_9"><circle cx="994.7368421050501" cy="257.46799431008003" r="2.275960170696" fill="red" opacity="0"/></g><g class="schematic-port-hover" data-schematic-port-id="source_port_15"><circle cx="525.3200568990001" cy="285.91749644378" r="2.275960170696" fill="red" opacity="0"/></g><g class="schematic-port-hover" data-schematic-port-id="source_port_16"><circle cx="525.3200568990001" cy="263.15789473682" r="2.275960170696" fill="red" opacity="0"/></g><g class="schematic-port-hover" data-schematic-port-id="source_port_18"><circle cx="639.1180654338" cy="280.22759601704" r="2.275960170696" fill="red" opacity="0"/></g><g class="schematic-port-hover" data-schematic-port-id="source_port_19"><circle cx="639.1180654338" cy="268.84779516356" r="2.275960170696" fill="red" opacity="0"/></g><g class="schematic-port-hover" data-schematic-port-id="source_port_28"><circle cx="525.3200568990001" cy="274.5376955903" r="2.275960170696" fill="red" opacity="0"/></g><g class="schematic-port-hover" data-schematic-port-id="source_port_31"><circle cx="439.95599715508354" cy="243.17443527736944" r="2.275960170696" fill="red" opacity="0"/></g><g class="schematic-port-hover" data-schematic-port-id="source_port_32"><circle cx="439.9871038407165" cy="305.9009559032306" r="2.275960170696" fill="red" opacity="0"/></g><g class="schematic-port-hover" data-schematic-port-id="source_port_33"><circle cx="354.60749075398354" cy="243.17443527736944" r="2.275960170696" fill="red" opacity="0"/></g><g class="schematic-port-hover" data-schematic-port-id="source_port_34"><circle cx="354.6385974396165" cy="305.9009559032306" r="2.275960170696" fill="red" opacity="0"/></g><g class="schematic-port-hover" data-schematic-port-id="source_port_35"><circle cx="741.5207254622039" cy="249.00658321477798" r="2.275960170696" fill="red" opacity="0"/></g><g class="schematic-port-hover" data-schematic-port-id="source_port_36"><circle cx="741.551820768036" cy="186.27079943102206" r="2.275960170696" fill="red" opacity="0"/></g><g class="schematic-port-hover" data-schematic-port-id="source_port_37"><circle cx="821.179331436564" cy="249.00658321477798" r="2.275960170696" fill="red" opacity="0"/></g><g class="schematic-port-hover" data-schematic-port-id="source_port_38"><circle cx="821.2104267423961" cy="186.27079943102206" r="2.275960170696" fill="red" opacity="0"/></g><g class="schematic-port-hover" data-schematic-port-id="source_port_39"><circle cx="127.27925462321701" cy="289.54712375530045" r="2.275960170696" fill="red" opacity="0"/></g><g class="schematic-port-hover" data-schematic-port-id="source_port_40"><circle cx="127.30505832165244" cy="350.5666742531396" r="2.275960170696" fill="red" opacity="0"/></g><g class="schematic-port-hover" data-schematic-port-id="source_port_41"><circle cx="806.7311977239103" cy="166.51990159319303" r="2.275960170696" fill="red" opacity="0"/></g><g class="schematic-port-hover" data-schematic-port-id="source_port_42"><circle cx="781.5643129444052" cy="146.36705379803843" r="2.275960170696" fill="red" opacity="0"/></g><g class="schematic-port-hover" data-schematic-port-id="source_port_43"><circle cx="755.9999544806897" cy="166.51282335706213" r="2.275960170696" fill="red" opacity="0"/></g><g class="schematic-port-hover" data-schematic-port-id="source_port_44"><circle cx="127.01147937428397" cy="260.38638406825794" r="2.275960170696" fill="red" opacity="0"/></g><g class="schematic-port-hover" data-schematic-port-id="source_port_45"><circle cx="127.04257468011605" cy="197.65060028450205" r="2.275960170696" fill="red" opacity="0"/></g><g class="schematic-port-hover" data-schematic-port-id="source_port_46"><circle cx="127.02348790913453" cy="186.10530867711032" r="2.275960170696" fill="red" opacity="0"/></g><g class="schematic-port-hover" data-schematic-port-id="source_port_47"><circle cx="127.03056614526548" cy="135.37406543388965" r="2.275960170696" fill="red" opacity="0"/></g><g class="schematic-port-hover" data-schematic-port-id="source_port_48"><circle cx="994.7368421050501" cy="405.40540540532004" r="2.275960170696" fill="red" opacity="0"/></g><g class="schematic-port-hover" data-schematic-port-id="source_port_49"><circle cx="994.7368421050501" cy="394.02560455184005" r="2.275960170696" fill="red" opacity="0"/></g><g class="schematic-port-hover" data-schematic-port-id="source_port_50"><circle cx="994.7368421050501" cy="382.64580369836" r="2.275960170696" fill="red" opacity="0"/></g><g class="schematic-port-hover" data-schematic-port-id="source_port_51"><circle cx="994.7368421050501" cy="371.26600284488" r="2.275960170696" fill="red" opacity="0"/></g><path class="net-label" d="
    M 994.7368421050501,143.66998577528003
    L 991.6642958746105,149.81507823615922
    L 966.2266477001315,149.81507823615922
    L 966.2266477001315,137.52489331440083
    L 991.6642958746105,137.52489331440083
    Z
  " fill="rgba(255, 255, 255, 0.6)" stroke="rgb(132, 0, 0)" stroke-width="1.137980085348px"/><text class="net-label-text" x="989.6159317209841" y="143.66998577528003" fill="rgb(132, 0, 0)" text-anchor="end" dominant-baseline="central" font-family="sans-serif" font-variant-numeric="tabular-nums" font-size="10.241820768132px" transform="">SCL</text><path class="net-label" d="
    M 994.7368421050501,155.04978662876
    L 991.6642958746105,161.1948790896392
    L 965.0886676147835,161.1948790896392
    L 965.0886676147835,148.9046941678808
    L 991.6642958746105,148.9046941678808
    Z
  " fill="rgba(255, 255, 255, 0.6)" stroke="rgb(132, 0, 0)" stroke-width="1.137980085348px"/><text class="net-label-text" x="989.6159317209841" y="155.04978662876" fill="rgb(132, 0, 0)" text-anchor="end" dominant-baseline="central" font-family="sans-serif" font-variant-numeric="tabular-nums" font-size="10.241820768132px" transform="">SDA</text><path class="net-label" d="
    M 994.7368421050501,166.42958748224004
    L 991.6642958746105,172.57467994311924
    L 962.1981981979995,172.57467994311924
    L 962.1981981979995,160.28449502136084
    L 991.6642958746105,160.28449502136084
    Z
  " fill="rgba(255, 255, 255, 0.6)" stroke="rgb(132, 0, 0)" stroke-width="1.137980085348px"/><text class="net-label-text" x="989.6159317209841" y="166.42958748224004" fill="rgb(132, 0, 0)" text-anchor="end" dominant-baseline="central" font-family="sans-serif" font-variant-numeric="tabular-nums" font-size="10.241820768132px" transform="">V3_3</text><path class="net-label" d="
    M 994.7368421050501,177.80938833572003
    L 991.6642958746105,183.95448079659923
    L 963.5713608343195,183.95448079659923
    L 963.5713608343195,171.66429587484083
    L 991.6642958746105,171.66429587484083
    Z
  " fill="rgba(255, 255, 255, 0.6)" stroke="rgb(132, 0, 0)" stroke-width="1.137980085348px"/><text class="net-label-text" x="989.6159317209841" y="177.80938833572003" fill="rgb(132, 0, 0)" text-anchor="end" dominant-baseline="central" font-family="sans-serif" font-variant-numeric="tabular-nums" font-size="10.241820768132px" transform="">GND</text><path class="net-label" d="
    M 994.7368421050501,257.46799431008003
    L 991.6642958746105,263.6130867709592
    L 966.2266477001315,263.6130867709592
    L 966.2266477001315,251.32290184920083
    L 991.6642958746105,251.32290184920083
    Z
  " fill="rgba(255, 255, 255, 0.6)" stroke="rgb(132, 0, 0)" stroke-width="1.137980085348px"/><text class="net-label-text" x="989.6159317209841" y="257.46799431008003" fill="rgb(132, 0, 0)" text-anchor="end" dominant-baseline="central" font-family="sans-serif" font-variant-numeric="tabular-nums" font-size="10.241820768132px" transform="">SCL</text><path class="net-label" d="
    M 994.7368421050501,268.84779516356
    L 991.6642958746105,274.9928876244392
    L 965.0886676147835,274.9928876244392
    L 965.0886676147835,262.7027027026808
    L 991.6642958746105,262.7027027026808
    Z
  " fill="rgba(255, 255, 255, 0.6)" stroke="rgb(132, 0, 0)" stroke-width="1.137980085348px"/><text class="net-label-text" x="989.6159317209841" y="268.84779516356" fill="rgb(132, 0, 0)" text-anchor="end" dominant-baseline="central" font-family="sans-serif" font-variant-numeric="tabular-nums" font-size="10.241820768132px" transform="">SDA</text><path class="net-label" d="
    M 994.7368421050501,280.22759601704
    L 991.6642958746105,286.3726884779192
    L 962.1981981979995,286.3726884779192
    L 962.1981981979995,274.0825035561608
    L 991.6642958746105,274.0825035561608
    Z
  " fill="rgba(255, 255, 255, 0.6)" stroke="rgb(132, 0, 0)" stroke-width="1.137980085348px"/><text class="net-label-text" x="989.6159317209841" y="280.22759601704" fill="rgb(132, 0, 0)" text-anchor="end" dominant-baseline="central" font-family="sans-serif" font-variant-numeric="tabular-nums" font-size="10.241820768132px" transform="">V3_3</text><path class="net-label" d="
    M 994.7368421050501,291.60739687052
    L 991.6642958746105,297.7524893313992
    L 963.5713608343195,297.7524893313992
    L 963.5713608343195,285.4623044096408
    L 991.6642958746105,285.4623044096408
    Z
  " fill="rgba(255, 255, 255, 0.6)" stroke="rgb(132, 0, 0)" stroke-width="1.137980085348px"/><text class="net-label-text" x="989.6159317209841" y="291.60739687052" fill="rgb(132, 0, 0)" text-anchor="end" dominant-baseline="central" font-family="sans-serif" font-variant-numeric="tabular-nums" font-size="10.241820768132px" transform="">GND</text><path class="net-label" d="
    M 639.1180654338,280.22759601704
    L 642.1906116642396,274.0825035561608
    L 667.6282598387186,274.0825035561608
    L 667.6282598387186,286.3726884779192
    L 642.1906116642396,286.3726884779192
    Z
  " fill="rgba(255, 255, 255, 0.6)" stroke="rgb(132, 0, 0)" stroke-width="1.137980085348px"/><text class="net-label-text" x="644.2389758178659" y="280.22759601704" fill="rgb(132, 0, 0)" text-anchor="start" dominant-baseline="central" font-family="sans-serif" font-variant-numeric="tabular-nums" font-size="10.241820768132px" transform="">SCL</text><path class="net-label" d="
    M 639.1180654338,268.84779516356
    L 642.1906116642396,262.7027027026808
    L 668.7662399240666,262.7027027026808
    L 668.7662399240666,274.9928876244392
    L 642.1906116642396,274.9928876244392
    Z
  " fill="rgba(255, 255, 255, 0.6)" stroke="rgb(132, 0, 0)" stroke-width="1.137980085348px"/><text class="net-label-text" x="644.2389758178659" y="268.84779516356" fill="rgb(132, 0, 0)" text-anchor="start" dominant-baseline="central" font-family="sans-serif" font-variant-numeric="tabular-nums" font-size="10.241820768132px" transform="">SDA</text><path class="net-label" d="
    M 525.3200568990001,263.15789473682
    L 522.2475106685605,269.3029871976992
    L 492.7814129919496,269.3029871976992
    L 492.7814129919496,257.0128022759408
    L 522.2475106685605,257.0128022759408
    Z
  " fill="rgba(255, 255, 255, 0.6)" stroke="rgb(132, 0, 0)" stroke-width="1.137980085348px"/><text class="net-label-text" x="520.1991465149341" y="263.15789473682" fill="rgb(132, 0, 0)" text-anchor="end" dominant-baseline="central" font-family="sans-serif" font-variant-numeric="tabular-nums" font-size="10.241820768132px" transform="">V3_3</text><path class="net-label" d="
    M 525.3200568990001,274.5376955903
    L 522.2475106685605,280.6827880511792
    L 492.7814129919496,280.6827880511792
    L 492.7814129919496,268.3926031294208
    L 522.2475106685605,268.3926031294208
    Z
  " fill="rgba(255, 255, 255, 0.6)" stroke="rgb(132, 0, 0)" stroke-width="1.137980085348px"/><text class="net-label-text" x="520.1991465149341" y="274.5376955903" fill="rgb(132, 0, 0)" text-anchor="end" dominant-baseline="central" font-family="sans-serif" font-variant-numeric="tabular-nums" font-size="10.241820768132px" transform="">V3_3</text><path class="net-label" d="
    M 525.3200568990001,285.91749644378
    L 522.2475106685605,292.0625889046592
    L 494.1545756282695,292.0625889046592
    L 494.1545756282695,279.7724039829008
    L 522.2475106685605,279.7724039829008
    Z
  " fill="rgba(255, 255, 255, 0.6)" stroke="rgb(132, 0, 0)" stroke-width="1.137980085348px"/><text class="net-label-text" x="520.1991465149341" y="285.91749644378" fill="rgb(132, 0, 0)" text-anchor="end" dominant-baseline="central" font-family="sans-serif" font-variant-numeric="tabular-nums" font-size="10.241820768132px" transform="">GND</text><rect class="component-overlay" x="426.88667709819026" y="305.8393058321069" width="25.565934566133706" height="27.506651493586617" fill="transparent"/><path d="M 439.92530014228123 305.8393058321069 L 439.92530014228123 324.59511806538444" stroke="rgb(132, 0, 0)" fill="none" stroke-width="1.137980085348px" stroke-linecap="round"/><path d="M 426.88667709819026 324.5932517780445 L 452.45261166432397 324.5932517780445" stroke="rgb(132, 0, 0)" fill="none" stroke-width="1.137980085348px" stroke-linecap="round"/><path d="M 430.0824210526697 328.96960455186905 L 449.2568677098446 328.96960455186905" stroke="rgb(132, 0, 0)" fill="none" stroke-width="1.137980085348px" stroke-linecap="round"/><path d="M 436.47390327172803 333.3459573256935 L 442.86538549078637 333.3459573256935" stroke="rgb(132, 0, 0)" fill="none" stroke-width="1.137980085348px" stroke-linecap="round"/><text x="438.6999687055819" y="340.0105889046379" fill="rgb(15, 15, 15)" font-family="sans-serif" text-anchor="middle" dominant-baseline="hanging" font-size="10.241820768132px">GND</text><rect class="component-overlay" x="434.6424551920702" y="219.02033001422228" width="10.542219061161632" height="23.30366429586448" fill="transparent"/><path d="M 439.8302844950552 219.02033001422228 L 434.6424551920702 229.8920625888974" stroke="rgb(132, 0, 0)" fill="none" stroke-width="1.137980085348px" stroke-linecap="round"/><path d="M 439.99684495024707 219.0259971550473 L 445.18467425323183 229.89775817922458" stroke="rgb(132, 0, 0)" fill="none" stroke-width="1.137980085348px" stroke-linecap="round"/><path d="M 439.8903186344577 219.30719772403725 L 439.8903186344577 242.32399431008676" stroke="rgb(132, 0, 0)" fill="none" stroke-width="1.137980085348px" stroke-linecap="round"/><text x="439.6358150782699" y="215.68598008534755" fill="rgb(15, 15, 15)" font-family="sans-serif" text-anchor="middle" dominant-baseline="ideographic" font-size="10.241820768132px">V3_3</text><rect class="component-overlay" x="341.5381706970903" y="305.8393058321069" width="25.56593456613365" height="27.506651493586617" fill="transparent"/><path d="M 354.57679374118123 305.8393058321069 L 354.57679374118123 324.59511806538444" stroke="rgb(132, 0, 0)" fill="none" stroke-width="1.137980085348px" stroke-linecap="round"/><path d="M 341.5381706970903 324.5932517780445 L 367.10410526322397 324.5932517780445" stroke="rgb(132, 0, 0)" fill="none" stroke-width="1.137980085348px" stroke-linecap="round"/><path d="M 344.7339146515697 328.96960455186905 L 363.9083613087446 328.96960455186905" stroke="rgb(132, 0, 0)" fill="none" stroke-width="1.137980085348px" stroke-linecap="round"/><path d="M 351.12539687062804 333.3459573256935 L 357.51687908968637 333.3459573256935" stroke="rgb(132, 0, 0)" fill="none" stroke-width="1.137980085348px" stroke-linecap="round"/><text x="353.3514623044819" y="340.0105889046379" fill="rgb(15, 15, 15)" font-family="sans-serif" text-anchor="middle" dominant-baseline="hanging" font-size="10.241820768132px">GND</text><rect class="component-overlay" x="349.29394879097026" y="219.02033001422228" width="10.542219061161632" height="23.30366429586448" fill="transparent"/><path d="M 354.48177809395526 219.02033001422228 L 349.29394879097026 229.8920625888974" stroke="rgb(132, 0, 0)" fill="none" stroke-width="1.137980085348px" stroke-linecap="round"/><path d="M 354.6483385491471 219.0259971550473 L 359.8361678521319 229.89775817922458" stroke="rgb(132, 0, 0)" fill="none" stroke-width="1.137980085348px" stroke-linecap="round"/><path d="M 354.54181223335775 219.30719772403725 L 354.54181223335775 242.32399431008676" stroke="rgb(132, 0, 0)" fill="none" stroke-width="1.137980085348px" stroke-linecap="round"/><text x="354.28730867716996" y="215.68598008534755" fill="rgb(15, 15, 15)" font-family="sans-serif" text-anchor="middle" dominant-baseline="ideographic" font-size="10.241820768132px">V3_3</text><path class="net-label" d="
    M 741.5207254622039,249.00658321477798
    L 747.6658179230832,252.07912944521757
    L 747.6658179230832,277.51677761969654
    L 735.3756330013248,277.51677761969654
    L 735.3756330013247,252.07912944521757
    Z
  " fill="rgba(255, 255, 255, 0.6)" stroke="rgb(132, 0, 0)" stroke-width="1.137980085348px"/><text class="net-label-text" x="741.5207254622039" y="254.12749359884398" fill="rgb(132, 0, 0)" text-anchor="start" dominant-baseline="central" font-family="sans-serif" font-variant-numeric="tabular-nums" font-size="10.241820768132px" transform="rotate(90 741.5207254622039 254.12749359884398)">SCL</text><path class="net-label" d="
    M 821.179331436564,249.00658321477798
    L 827.3244238974432,252.07912944521757
    L 827.3244238974432,278.6547577050445
    L 815.0342389756847,278.6547577050445
    L 815.0342389756847,252.07912944521757
    Z
  " fill="rgba(255, 255, 255, 0.6)" stroke="rgb(132, 0, 0)" stroke-width="1.137980085348px"/><text class="net-label-text" x="821.179331436564" y="254.12749359884398" fill="rgb(132, 0, 0)" text-anchor="start" dominant-baseline="central" font-family="sans-serif" font-variant-numeric="tabular-nums" font-size="10.241820768132px" transform="rotate(90 821.179331436564 254.12749359884398)">SDA</text><rect class="component-overlay" x="114.20463157912624" y="350.50502418201586" width="25.565934566133677" height="27.506651493586617" fill="transparent"/><path d="M 127.2432546232172 350.50502418201586 L 127.24325462321721 369.2608364152934" stroke="rgb(132, 0, 0)" fill="none" stroke-width="1.137980085348px" stroke-linecap="round"/><path d="M 114.20463157912624 369.25897012795343 L 139.77056614525992 369.25897012795343" stroke="rgb(132, 0, 0)" fill="none" stroke-width="1.137980085348px" stroke-linecap="round"/><path d="M 117.40037553360565 373.635322901778 L 136.5748221907805 373.635322901778" stroke="rgb(132, 0, 0)" fill="none" stroke-width="1.137980085348px" stroke-linecap="round"/><path d="M 123.79185775266397 378.0116756756025 L 130.1833399717223 378.0116756756025" stroke="rgb(132, 0, 0)" fill="none" stroke-width="1.137980085348px" stroke-linecap="round"/><text x="126.01792318651786" y="384.6763072545469" fill="rgb(15, 15, 15)" font-family="sans-serif" text-anchor="middle" dominant-baseline="hanging" font-size="10.241820768132px">GND</text><rect class="component-overlay" x="776.250770981392" y="122.21294853489125" width="10.542219061161632" height="23.303664295864493" fill="transparent"/><path d="M 781.438600284377 122.21294853489125 L 776.250770981392 133.0846811095664" stroke="rgb(132, 0, 0)" fill="none" stroke-width="1.137980085348px" stroke-linecap="round"/><path d="M 781.6051607395688 122.21861567571628 L 786.7929900425536 133.09037669989357" stroke="rgb(132, 0, 0)" fill="none" stroke-width="1.137980085348px" stroke-linecap="round"/><path d="M 781.4986344237794 122.49981624470624 L 781.4986344237794 145.51661283075575" stroke="rgb(132, 0, 0)" fill="none" stroke-width="1.137980085348px" stroke-linecap="round"/><text x="781.2441308675917" y="118.87859860601654" fill="rgb(15, 15, 15)" font-family="sans-serif" text-anchor="middle" dominant-baseline="ideographic" font-size="10.241820768132px">V3_3</text><rect class="component-overlay" x="121.71702418225215" y="111.21996017074251" width="10.54221906116166" height="23.303664295864493" fill="transparent"/><path d="M 126.90485348523715 111.21996017074251 L 121.71702418225215 122.09169274541765" stroke="rgb(132, 0, 0)" fill="none" stroke-width="1.137980085348px" stroke-linecap="round"/><path d="M 127.071413940429 111.22562731156754 L 132.2592432434138 122.09738833574481" stroke="rgb(132, 0, 0)" fill="none" stroke-width="1.137980085348px" stroke-linecap="round"/><path d="M 126.9648876246396 111.5068278805575 L 126.9648876246396 134.523624466607" stroke="rgb(132, 0, 0)" fill="none" stroke-width="1.137980085348px" stroke-linecap="round"/><text x="126.71038406845187" y="107.8856102418678" fill="rgb(15, 15, 15)" font-family="sans-serif" text-anchor="middle" dominant-baseline="ideographic" font-size="10.241820768132px">V3_3</text><path class="net-label" d="
    M 994.7368421050501,382.64580369836
    L 991.6642958746105,388.7908961592392
    L 965.0886676147835,388.7908961592392
    L 965.0886676147835,376.5007112374808
    L 991.6642958746105,376.5007112374808
    Z
  " fill="rgba(255, 255, 255, 0.6)" stroke="rgb(132, 0, 0)" stroke-width="1.137980085348px"/><text class="net-label-text" x="989.6159317209841" y="382.64580369836" fill="rgb(132, 0, 0)" text-anchor="end" dominant-baseline="central" font-family="sans-serif" font-variant-numeric="tabular-nums" font-size="10.241820768132px" transform="">SDA</text><path class="net-label" d="
    M 994.7368421050501,371.26600284488
    L 991.6642958746105,377.4110953057592
    L 966.2266477001315,377.4110953057592
    L 966.2266477001315,365.1209103840008
    L 991.6642958746105,365.1209103840008
    Z
  " fill="rgba(255, 255, 255, 0.6)" stroke="rgb(132, 0, 0)" stroke-width="1.137980085348px"/><text class="net-label-text" x="989.6159317209841" y="371.26600284488" fill="rgb(132, 0, 0)" text-anchor="end" dominant-baseline="central" font-family="sans-serif" font-variant-numeric="tabular-nums" font-size="10.241820768132px" transform="">SCL</text><path class="net-label" d="
    M 994.7368421050501,394.02560455184005
    L 991.6642958746105,400.17069701271924
    L 962.1981981979995,400.17069701271924
    L 962.1981981979995,387.88051209096085
    L 991.6642958746105,387.88051209096085
    Z
  " fill="rgba(255, 255, 255, 0.6)" stroke="rgb(132, 0, 0)" stroke-width="1.137980085348px"/><text class="net-label-text" x="989.6159317209841" y="394.02560455184005" fill="rgb(132, 0, 0)" text-anchor="end" dominant-baseline="central" font-family="sans-serif" font-variant-numeric="tabular-nums" font-size="10.241820768132px" transform="">V3_3</text><path class="net-label" d="
    M 994.7368421050501,405.40540540532004
    L 991.6642958746105,411.55049786619924
    L 963.5713608343195,411.55049786619924
    L 963.5713608343195,399.26031294444084
    L 991.6642958746105,399.26031294444084
    Z
  " fill="rgba(255, 255, 255, 0.6)" stroke="rgb(132, 0, 0)" stroke-width="1.137980085348px"/><text class="net-label-text" x="989.6159317209841" y="405.40540540532004" fill="rgb(132, 0, 0)" text-anchor="end" dominant-baseline="central" font-family="sans-serif" font-variant-numeric="tabular-nums" font-size="10.241820768132px" transform="">GND</text><text x="127.0270270272" y="35.56187766721999" fill="red" text-anchor="middle" dominant-baseline="middle" font-family="sans-serif" font-size="14.22475106685px" transform="rotate(0, 127.0270270272, 35.56187766721999)">Power LED</text><text x="582.2190611664" y="35.56187766721999" fill="red" text-anchor="middle" dominant-baseline="middle" font-family="sans-serif" font-size="14.22475106685px" transform="rotate(0, 582.2190611664, 35.56187766721999)">SCD4X CO2 Sensor</text><text x="1037.4110953056002" y="35.56187766721999" fill="red" text-anchor="middle" dominant-baseline="middle" font-family="sans-serif" font-size="14.22475106685px" transform="rotate(0, 1037.4110953056002, 35.56187766721999)">SCD4X CO2 Sensor</text><text x="127.0270270272" y="433.85490753902" fill="red" text-anchor="middle" dominant-baseline="middle" font-family="sans-serif" font-size="14.22475106685px" transform="rotate(0, 127.0270270272, 433.85490753902)">Part Number</text></svg>