<svg xmlns="http://www.w3.org/2000/svg" width="800" height="600" data-software-used-string="@tscircuit/core@0.0.747"><style></style><rect class="boundary" x="0" y="0" fill="#000" width="800" height="600"/><rect class="pcb-boundary" fill="none" stroke="#fff" stroke-width="0.3" x="188.1193124368049" y="30.333670374115286" width="423.76137512639025" height="539.3326592517694"/><path class="pcb-board" d="M 226.64307381193132 569.6663296258847 L 611.8806875631951 569.6663296258847 L 611.8806875631951 30.333670374115286 L 226.64307381193132 30.333670374115286 Z" fill="none" stroke="rgba(255, 255, 255, 0.5)" stroke-width="3.0333670374115265"/><rect class="pcb-pad" fill="rgb(200, 52, 52)" x="316.1274014155714" y="175.32861476238625" width="36.40040444893832" height="18.20020222446916" data-layer="top"/><rect class="pcb-pad" fill="rgb(200, 52, 52)" x="316.12740141557134" y="213.85237613751266" width="36.40040444893832" height="18.20020222446916" data-layer="top"/><rect class="pcb-pad" fill="rgb(200, 52, 52)" x="316.12740141557134" y="252.37613751263902" width="36.40040444893832" height="18.20020222446916" data-layer="top"/><rect class="pcb-pad" fill="rgb(200, 52, 52)" x="316.12740141557134" y="290.8998988877654" width="36.40040444893832" height="18.20020222446916" data-layer="top"/><rect class="pcb-pad" fill="rgb(200, 52, 52)" x="316.12740141557134" y="329.42366026289176" width="36.40040444893832" height="18.20020222446916" data-layer="top"/><rect class="pcb-pad" fill="rgb(200, 52, 52)" x="316.12740141557134" y="367.94742163801817" width="36.40040444893832" height="18.20020222446916" data-layer="top"/><rect class="pcb-pad" fill="rgb(200, 52, 52)" x="316.12740141557134" y="406.4711830131446" width="36.40040444893832" height="18.20020222446916" data-layer="top"/><rect class="pcb-pad" fill="rgb(200, 52, 52)" x="485.9959555106168" y="406.4711830131446" width="36.40040444893832" height="18.20020222446916" data-layer="top"/><rect class="pcb-pad" fill="rgb(200, 52, 52)" x="485.99595551061685" y="367.94742163801817" width="36.40040444893832" height="18.20020222446916" data-layer="top"/><rect class="pcb-pad" fill="rgb(200, 52, 52)" x="485.99595551061685" y="329.4236602628918" width="36.40040444893832" height="18.20020222446916" data-layer="top"/><rect class="pcb-pad" fill="rgb(200, 52, 52)" x="485.99595551061685" y="290.8998988877654" width="36.40040444893832" height="18.20020222446916" data-layer="top"/><rect class="pcb-pad" fill="rgb(200, 52, 52)" x="485.99595551061685" y="252.37613751263908" width="36.40040444893832" height="18.20020222446916" data-layer="top"/><rect class="pcb-pad" fill="rgb(200, 52, 52)" x="485.99595551061685" y="213.85237613751266" width="36.40040444893832" height="18.20020222446916" data-layer="top"/><rect class="pcb-pad" fill="rgb(200, 52, 52)" x="485.99595551061685" y="175.32861476238628" width="36.40040444893832" height="18.20020222446916" data-layer="top"/><rect class="pcb-pad" fill="rgb(200, 52, 52)" x="400.00000000000006" y="47.065722952477294" width="38.523761375126384" height="19.261880687563192" data-layer="top"/><rect class="pcb-pad" fill="rgb(200, 52, 52)" x="400.00000000000006" y="71.74519716885746" width="38.523761375126384" height="19.261880687563192" data-layer="top"/><rect class="pcb-pad" fill="rgb(200, 52, 52)" x="327.8058645096057" y="120.27300303336706" width="28.8169868554095" height="24.26693629929221" data-layer="top"/><rect class="pcb-pad" fill="rgb(200, 52, 52)" x="327.8058645096057" y="70.22244691607686" width="28.8169868554095" height="24.26693629929221" data-layer="top"/><rect class="pcb-pad" fill="rgb(200, 52, 52)" x="481.90091001011126" y="120.27300303336706" width="28.8169868554095" height="24.26693629929221" data-layer="top"/><rect class="pcb-pad" fill="rgb(200, 52, 52)" x="481.90091001011126" y="70.22244691607686" width="28.8169868554095" height="24.26693629929221" data-layer="top"/><path class="pcb-silkscreen pcb-silkscreen-top" d="M 315.67239635995963 82.35591506572297 L 315.67239635995963 150.60667340748233 L 368.7563195146613 150.60667340748233 L 368.7563195146613 82.35591506572297" fill="none" stroke="#f2eda1" stroke-width="3.0333670374115265" stroke-linecap="round" stroke-linejoin="round" data-pcb-component-id="pcb_component_4" data-pcb-silkscreen-path-id="pcb_silkscreen_path_0"/><path class="pcb-silkscreen pcb-silkscreen-top" d="M 469.76744186046517 82.35591506572297 L 469.76744186046517 150.60667340748233 L 522.8513650151668 150.60667340748233 L 522.8513650151668 82.35591506572297" fill="none" stroke="#f2eda1" stroke-width="3.0333670374115265" stroke-linecap="round" stroke-linejoin="round" data-pcb-component-id="pcb_component_5" data-pcb-silkscreen-path-id="pcb_silkscreen_path_1"/><text x="0" y="0" dx="0" dy="0" fill="#5da9e9" font-family="Arial, sans-serif" font-size="45.5005055611729" text-anchor="middle" dominant-baseline="central" transform="matrix(-6.123233995736766e-17,1,1,6.123233995736766e-17,419.26188068756323,148.33164812942368)" class="pcb-silkscreen-text pcb-silkscreen-bottom" data-pcb-silkscreen-text-id="null" stroke="none">TXB0104</text><text x="0" y="0" dx="0" dy="0" fill="#f2eda1" font-family="Arial, sans-serif" font-size="45.5005055611729" text-anchor="middle" dominant-baseline="central" transform="matrix(1,0,0,1,419.26188068756323,114.9646107178969)" class="pcb-silkscreen-text pcb-silkscreen-top" data-pcb-silkscreen-text-id="null" stroke="none">OE</text><text x="0" y="0" dx="0" dy="0" fill="#5da9e9" font-family="Arial, sans-serif" font-size="17.45338725985844" text-anchor="end" dominant-baseline="central" transform="matrix(-6.123233995736766e-17,1,1,6.123233995736766e-17,307.8667846309404,531.1425682507584)" class="pcb-silkscreen-text pcb-silkscreen-bottom" data-pcb-silkscreen-text-id="pcb_component_1" stroke="none">GND</text><text x="0" y="0" dx="0" dy="0" fill="#5da9e9" font-family="Arial, sans-serif" font-size="17.45338725985844" text-anchor="end" dominant-baseline="central" transform="matrix(-6.123233995736766e-17,1,1,6.123233995736766e-17,307.8667846309404,454.09504550050553)" class="pcb-silkscreen-text pcb-silkscreen-bottom" data-pcb-silkscreen-text-id="pcb_component_1" stroke="none">VccA</text><text x="0" y="0" dx="0" dy="0" fill="#5da9e9" font-family="Arial, sans-serif" font-size="17.45338725985844" text-anchor="end" dominant-baseline="central" transform="matrix(-6.123233995736766e-17,1,1,6.123233995736766e-17,307.8667846309404,377.04752275025277)" class="pcb-silkscreen-text pcb-silkscreen-bottom" data-pcb-silkscreen-text-id="pcb_component_1" stroke="none">A4</text><text x="0" y="0" dx="0" dy="0" fill="#5da9e9" font-family="Arial, sans-serif" font-size="17.45338725985844" text-anchor="end" dominant-baseline="central" transform="matrix(-6.123233995736766e-17,1,1,6.123233995736766e-17,307.8667846309404,300)" class="pcb-silkscreen-text pcb-silkscreen-bottom" data-pcb-silkscreen-text-id="pcb_component_1" stroke="none">A3</text><text x="0" y="0" dx="0" dy="0" fill="#5da9e9" font-family="Arial, sans-serif" font-size="17.45338725985844" text-anchor="end" dominant-baseline="central" transform="matrix(-6.123233995736766e-17,1,1,6.123233995736766e-17,307.8667846309404,222.95247724974723)" class="pcb-silkscreen-text pcb-silkscreen-bottom" data-pcb-silkscreen-text-id="pcb_component_1" stroke="none">A2</text><text x="0" y="0" dx="0" dy="0" fill="#5da9e9" font-family="Arial, sans-serif" font-size="17.45338725985844" text-anchor="end" dominant-baseline="central" transform="matrix(-6.123233995736766e-17,1,1,6.123233995736766e-17,307.8667846309404,145.9049544994945)" class="pcb-silkscreen-text pcb-silkscreen-bottom" data-pcb-silkscreen-text-id="pcb_component_1" stroke="none">A1</text><text x="0" y="0" dx="0" dy="0" fill="#5da9e9" font-family="Arial, sans-serif" font-size="17.45338725985844" text-anchor="end" dominant-baseline="central" transform="matrix(-6.123233995736766e-17,1,1,6.123233995736766e-17,307.8667846309404,68.85743174924167)" class="pcb-silkscreen-text pcb-silkscreen-bottom" data-pcb-silkscreen-text-id="pcb_component_1" stroke="none">OE</text><text x="0" y="0" dx="0" dy="0" fill="#f2eda1" font-family="Arial, sans-serif" font-size="21.233569261880685" text-anchor="middle" dominant-baseline="central" transform="matrix(6.123233995736766e-17,-1,1,6.123233995736766e-17,188.1193124368049,300)" class="pcb-silkscreen-text pcb-silkscreen-top" data-pcb-silkscreen-text-id="pcb_component_1" stroke="none">JP1</text><text x="0" y="0" dx="0" dy="0" fill="#5da9e9" font-family="Arial, sans-serif" font-size="17.45338725985844" text-anchor="start" dominant-baseline="central" transform="matrix(-6.123233995736766e-17,1,1,6.123233995736766e-17,530.6569767441861,531.1425682507584)" class="pcb-silkscreen-text pcb-silkscreen-bottom" data-pcb-silkscreen-text-id="pcb_component_3" stroke="none">GND</text><text x="0" y="0" dx="0" dy="0" fill="#5da9e9" font-family="Arial, sans-serif" font-size="17.45338725985844" text-anchor="start" dominant-baseline="central" transform="matrix(-6.123233995736766e-17,1,1,6.123233995736766e-17,530.6569767441861,454.09504550050553)" class="pcb-silkscreen-text pcb-silkscreen-bottom" data-pcb-silkscreen-text-id="pcb_component_3" stroke="none">VccB</text><text x="0" y="0" dx="0" dy="0" fill="#5da9e9" font-family="Arial, sans-serif" font-size="17.45338725985844" text-anchor="start" dominant-baseline="central" transform="matrix(-6.123233995736766e-17,1,1,6.123233995736766e-17,530.6569767441861,377.04752275025277)" class="pcb-silkscreen-text pcb-silkscreen-bottom" data-pcb-silkscreen-text-id="pcb_component_3" stroke="none">B4</text><text x="0" y="0" dx="0" dy="0" fill="#5da9e9" font-family="Arial, sans-serif" font-size="17.45338725985844" text-anchor="start" dominant-baseline="central" transform="matrix(-6.123233995736766e-17,1,1,6.123233995736766e-17,530.6569767441861,300)" class="pcb-silkscreen-text pcb-silkscreen-bottom" data-pcb-silkscreen-text-id="pcb_component_3" stroke="none">B3</text><text x="0" y="0" dx="0" dy="0" fill="#5da9e9" font-family="Arial, sans-serif" font-size="17.45338725985844" text-anchor="start" dominant-baseline="central" transform="matrix(-6.123233995736766e-17,1,1,6.123233995736766e-17,530.6569767441861,222.95247724974723)" class="pcb-silkscreen-text pcb-silkscreen-bottom" data-pcb-silkscreen-text-id="pcb_component_3" stroke="none">B2</text><text x="0" y="0" dx="0" dy="0" fill="#5da9e9" font-family="Arial, sans-serif" font-size="17.45338725985844" text-anchor="start" dominant-baseline="central" transform="matrix(-6.123233995736766e-17,1,1,6.123233995736766e-17,530.6569767441861,145.9049544994945)" class="pcb-silkscreen-text pcb-silkscreen-bottom" data-pcb-silkscreen-text-id="pcb_component_3" stroke="none">B1</text><text x="0" y="0" dx="0" dy="0" fill="#5da9e9" font-family="Arial, sans-serif" font-size="17.45338725985844" text-anchor="start" dominant-baseline="central" transform="matrix(-6.123233995736766e-17,1,1,6.123233995736766e-17,530.6569767441861,68.85743174924167)" class="pcb-silkscreen-text pcb-silkscreen-bottom" data-pcb-silkscreen-text-id="pcb_component_3" stroke="none">OE</text><text x="0" y="0" dx="0" dy="0" fill="#f2eda1" font-family="Arial, sans-serif" font-size="21.233569261880685" text-anchor="middle" dominant-baseline="central" transform="matrix(6.123233995736766e-17,-1,1,6.123233995736766e-17,496.309403437816,300)" class="pcb-silkscreen-text pcb-silkscreen-top" data-pcb-silkscreen-text-id="pcb_component_3" stroke="none">JP2</text><text x="0" y="0" dx="0" dy="0" fill="#f2eda1" font-family="Arial, sans-serif" font-size="12.133468149646106" text-anchor="middle" dominant-baseline="central" transform="matrix(6.123233995736766e-17,-1,1,6.123233995736766e-17,383.92315470171894,107.38119312436808)" class="pcb-silkscreen-text pcb-silkscreen-top" data-pcb-silkscreen-text-id="pcb_component_4" stroke="none">C1</text><text x="0" y="0" dx="0" dy="0" fill="#f2eda1" font-family="Arial, sans-serif" font-size="12.133468149646106" text-anchor="middle" dominant-baseline="central" transform="matrix(6.123233995736766e-17,-1,1,6.123233995736766e-17,454.6006066734075,107.38119312436808)" class="pcb-silkscreen-text pcb-silkscreen-top" data-pcb-silkscreen-text-id="pcb_component_5" stroke="none">C2</text><g><circle class="pcb-hole-outer" fill="rgb(200, 52, 52)" cx="265.1668351870577" cy="531.1425682507584" r="28.46663296258847"/><circle class="pcb-hole-inner" fill="#FF26E2" cx="265.1668351870577" cy="531.1425682507584" r="15.409504550050555"/></g><g><circle class="pcb-hole-outer" fill="rgb(200, 52, 52)" cx="265.1668351870577" cy="454.09504550050553" r="28.46663296258847"/><circle class="pcb-hole-inner" fill="#FF26E2" cx="265.1668351870577" cy="454.09504550050553" r="15.409504550050555"/></g><g><circle class="pcb-hole-outer" fill="rgb(200, 52, 52)" cx="265.1668351870577" cy="377.04752275025277" r="28.46663296258847"/><circle class="pcb-hole-inner" fill="#FF26E2" cx="265.1668351870577" cy="377.04752275025277" r="15.409504550050555"/></g><g><circle class="pcb-hole-outer" fill="rgb(200, 52, 52)" cx="265.1668351870577" cy="300" r="28.46663296258847"/><circle class="pcb-hole-inner" fill="#FF26E2" cx="265.1668351870577" cy="300" r="15.409504550050555"/></g><g><circle class="pcb-hole-outer" fill="rgb(200, 52, 52)" cx="265.1668351870577" cy="222.95247724974723" r="28.46663296258847"/><circle class="pcb-hole-inner" fill="#FF26E2" cx="265.1668351870577" cy="222.95247724974723" r="15.409504550050555"/></g><g><circle class="pcb-hole-outer" fill="rgb(200, 52, 52)" cx="265.1668351870577" cy="145.9049544994945" r="28.46663296258847"/><circle class="pcb-hole-inner" fill="#FF26E2" cx="265.1668351870577" cy="145.9049544994945" r="15.409504550050555"/></g><g><circle class="pcb-hole-outer" fill="rgb(200, 52, 52)" cx="265.1668351870577" cy="68.85743174924167" r="28.46663296258847"/><circle class="pcb-hole-inner" fill="#FF26E2" cx="265.1668351870577" cy="68.85743174924167" r="15.409504550050555"/></g><g><circle class="pcb-hole-outer" fill="rgb(200, 52, 52)" cx="573.3569261880688" cy="531.1425682507584" r="28.46663296258847"/><circle class="pcb-hole-inner" fill="#FF26E2" cx="573.3569261880688" cy="531.1425682507584" r="15.409504550050555"/></g><g><circle class="pcb-hole-outer" fill="rgb(200, 52, 52)" cx="573.3569261880688" cy="454.09504550050553" r="28.46663296258847"/><circle class="pcb-hole-inner" fill="#FF26E2" cx="573.3569261880688" cy="454.09504550050553" r="15.409504550050555"/></g><g><circle class="pcb-hole-outer" fill="rgb(200, 52, 52)" cx="573.3569261880688" cy="377.04752275025277" r="28.46663296258847"/><circle class="pcb-hole-inner" fill="#FF26E2" cx="573.3569261880688" cy="377.04752275025277" r="15.409504550050555"/></g><g><circle class="pcb-hole-outer" fill="rgb(200, 52, 52)" cx="573.3569261880688" cy="300" r="28.46663296258847"/><circle class="pcb-hole-inner" fill="#FF26E2" cx="573.3569261880688" cy="300" r="15.409504550050555"/></g><g><circle class="pcb-hole-outer" fill="rgb(200, 52, 52)" cx="573.3569261880688" cy="222.95247724974723" r="28.46663296258847"/><circle class="pcb-hole-inner" fill="#FF26E2" cx="573.3569261880688" cy="222.95247724974723" r="15.409504550050555"/></g><g><circle class="pcb-hole-outer" fill="rgb(200, 52, 52)" cx="573.3569261880688" cy="145.9049544994945" r="28.46663296258847"/><circle class="pcb-hole-inner" fill="#FF26E2" cx="573.3569261880688" cy="145.9049544994945" r="15.409504550050555"/></g><g><circle class="pcb-hole-outer" fill="rgb(200, 52, 52)" cx="573.3569261880688" cy="68.85743174924167" r="28.46663296258847"/><circle class="pcb-hole-inner" fill="#FF26E2" cx="573.3569261880688" cy="68.85743174924167" r="15.409504550050555"/></g></svg>