<svg xmlns="http://www.w3.org/2000/svg" width="1200" height="600" style="background-color: rgb(245, 241, 237)" data-real-to-screen-transform="matrix(53.7110259256,0,0,-53.7110259256,482.881421443,355.7365770305)" data-software-used-string="@tscircuit/core@0.0.530"><style>
              .boundary { fill: rgb(245, 241, 237); }
              .schematic-boundary { fill: none; stroke: #fff; }
              .component { fill: none; stroke: rgb(132, 0, 0); }
              .chip { fill: rgb(255, 255, 194); stroke: rgb(132, 0, 0); }
              .component-pin { fill: none; stroke: rgb(132, 0, 0); }
              .trace:hover {
                filter: invert(1);
              }
              .trace:hover .trace-crossing-outline {
                opacity: 0;
              }
              .trace:hover .trace-junction {
                filter: invert(1);
              }
              .text { font-family: sans-serif; fill: rgb(0, 150, 0); }
              .pin-number { fill: rgb(169, 0, 0); }
              .port-label { fill: rgb(0, 100, 100); }
              .component-name { fill: rgb(0, 100, 100); }
            </style><rect class="boundary" x="0" y="0" width="1200" height="600"/><g data-circuit-json-type="schematic_component" data-schematic-component-id="schematic_component_0"><rect class="component chip" x="550.02020385" y="204.00292879067996" width="80.56653888840003" height="88.62319277724004" stroke-width="1.074220518512px" fill="rgb(255, 255, 194)" stroke="rgb(132, 0, 0)"/><rect class="component-overlay" x="550.02020385" y="204.00292879067996" width="80.56653888840003" height="88.62319277724004" fill="transparent"/><text x="550.02020385" y="299.60855493824795" fill="#006464" text-anchor="start" dominant-baseline="middle" font-family="sans-serif" font-size="9.667984666608px" transform="rotate(0, 550.02020385, 299.60855493824795)">OPT4048</text><text x="550.02020385" y="197.02049542035198" fill="#006464" text-anchor="start" dominant-baseline="middle" font-family="sans-serif" font-size="9.667984666608px" transform="rotate(0, 550.02020385, 197.02049542035198)">U1</text><line class="component-pin" x1="529.610013998272" y1="216.08790962393996" x2="550.02020385" y2="216.08790962393996" stroke-width="1.074220518512px"/><text class="pin-number" x="539.27799866488" y="215.01368910542797" style="font-family: sans-serif;" fill="rgb(169, 0, 0)" text-anchor="middle" dominant-baseline="auto" font-size="8.05665388884px" transform="">1</text><text class="pin-number" x="555.39130644256" y="216.08790962393996" style="font-family: sans-serif;" fill="rgb(169, 0, 0)" text-anchor="start" dominant-baseline="middle" font-size="8.05665388884px" transform="">VDD</text><line class="component-pin" x1="650.996932590128" y1="225.48733916092" x2="630.5867427384001" y2="225.48733916092" stroke-width="1.074220518512px"/><text class="pin-number" x="641.32894792352" y="224.413118642408" style="font-family: sans-serif;" fill="rgb(169, 0, 0)" text-anchor="middle" dominant-baseline="auto" font-size="8.05665388884px" transform="">2</text><text class="pin-number" x="625.21564014584" y="225.48733916092" style="font-family: sans-serif;" fill="rgb(169, 0, 0)" text-anchor="end" dominant-baseline="middle" font-size="8.05665388884px" transform="">ADDR</text><line class="component-pin" x1="529.610013998272" y1="280.54114073465996" x2="550.02020385" y2="280.54114073465996" stroke-width="1.074220518512px"/><text class="pin-number" x="539.27799866488" y="279.46692021614797" style="font-family: sans-serif;" fill="rgb(169, 0, 0)" text-anchor="middle" dominant-baseline="auto" font-size="8.05665388884px" transform="">4</text><text class="pin-number" x="555.39130644256" y="280.54114073465996" style="font-family: sans-serif;" fill="rgb(169, 0, 0)" text-anchor="start" dominant-baseline="middle" font-size="8.05665388884px" transform="">GND</text><line class="component-pin" x1="650.996932590128" y1="281.88391638279995" x2="630.5867427384001" y2="281.88391638279995" stroke-width="1.074220518512px"/><text class="pin-number" x="641.32894792352" y="280.80969586428796" style="font-family: sans-serif;" fill="rgb(169, 0, 0)" text-anchor="middle" dominant-baseline="auto" font-size="8.05665388884px" transform="">5</text><text class="pin-number" x="625.21564014584" y="281.88391638279995" style="font-family: sans-serif;" fill="rgb(169, 0, 0)" text-anchor="end" dominant-baseline="middle" font-size="8.05665388884px" transform="">SCL</text><line class="component-pin" x1="650.996932590128" y1="214.74513397579997" x2="630.5867427384001" y2="214.74513397579997" stroke-width="1.074220518512px"/><text class="pin-number" x="641.32894792352" y="213.67091345728798" style="font-family: sans-serif;" fill="rgb(169, 0, 0)" text-anchor="middle" dominant-baseline="auto" font-size="8.05665388884px" transform="">7</text><text class="pin-number" x="625.21564014584" y="214.74513397579997" style="font-family: sans-serif;" fill="rgb(169, 0, 0)" text-anchor="end" dominant-baseline="middle" font-size="8.05665388884px" transform="">INT</text><line class="component-pin" x1="650.996932590128" y1="271.14171119767997" x2="630.5867427384001" y2="271.14171119767997" stroke-width="1.074220518512px"/><text class="pin-number" x="641.32894792352" y="270.067490679168" style="font-family: sans-serif;" fill="rgb(169, 0, 0)" text-anchor="middle" dominant-baseline="auto" font-size="8.05665388884px" transform="">8</text><text class="pin-number" x="625.21564014584" y="271.14171119767997" style="font-family: sans-serif;" fill="rgb(169, 0, 0)" text-anchor="end" dominant-baseline="middle" font-size="8.05665388884px" transform="">SDA</text></g><g data-circuit-json-type="schematic_component" data-schematic-component-id="schematic_component_1"><rect class="component-overlay" x="636.9427846966273" y="123.20270397068296" width="14.211045856883402" height="56.84416731422576" fill="transparent"/><path d="M 644.048307625069 123.20270397068296 L 644.048307625069 137.41374445646375" stroke="rgb(132, 0, 0)" fill="none" stroke-width="1.074220518512px" stroke-linecap="round"/><path d="M 644.048307625069 165.83582542802537 L 644.048307625069 180.04687128490872" stroke="rgb(132, 0, 0)" fill="none" stroke-width="1.074220518512px" stroke-linecap="round"/><path d="M 651.1538305535107 151.62477957114194 L 651.1538305535107 165.8358200569227 L 636.9427846966273 165.8358200569227 L 636.9427846966273 137.41373371425848 L 651.1538305535107 137.41373371425848 L 651.1538305535107 151.62477957114186" stroke="rgb(132, 0, 0)" fill="none" stroke-width="1.074220518512px" stroke-linecap="round"/><text x="653.8932137255244" y="142.100971411426" fill="rgb(15, 15, 15)" font-family="sans-serif" text-anchor="start" dominant-baseline="middle" font-size="9.667984666608px">R3</text><text x="653.8932137255244" y="159.288499707618" fill="rgb(15, 15, 15)" font-family="sans-serif" text-anchor="start" dominant-baseline="middle" font-size="9.667984666608px">10Ω</text></g><g data-circuit-json-type="schematic_component" data-schematic-component-id="schematic_component_2"><rect class="component-overlay" x="441.7810595891504" y="220.22699944602374" width="28.42208097156157" height="56.844167314225786" fill="transparent"/><path d="M 455.9921000749311 220.22699944602374 L 455.9921000749311 244.38576773474085" stroke="rgb(132, 0, 0)" fill="none" stroke-width="1.074220518512px" stroke-linecap="round"/><path d="M 455.9921000749311 252.91239310042985 L 455.9921000749311 277.0711667602495" stroke="rgb(132, 0, 0)" fill="none" stroke-width="1.074220518512px" stroke-linecap="round"/><path d="M 441.7810595891504 244.38576773474088 L 470.203140560712 244.38576773474085" stroke="rgb(132, 0, 0)" fill="none" stroke-width="1.074220518512px" stroke-linecap="round"/><path d="M 441.7810595891504 252.91239310042985 L 470.203140560712 252.91239310042985" stroke="rgb(132, 0, 0)" fill="none" stroke-width="1.074220518512px" stroke-linecap="round"/><text x="468.1704521556603" y="237.67815332418" fill="rgb(15, 15, 15)" font-family="sans-serif" text-anchor="start" dominant-baseline="auto" font-size="9.667984666608px">C1</text><text x="468.1704521556603" y="258.95089703442" fill="rgb(15, 15, 15)" font-family="sans-serif" text-anchor="start" dominant-baseline="hanging" font-size="9.667984666608px">100nF</text></g><g data-circuit-json-type="schematic_component" data-schematic-component-id="schematic_component_3"><rect class="component-overlay" x="888.833663012964" y="73.79780220221747" width="47.496708565931385" height="25.733935432729353" fill="transparent"/><path d="M 924.3937620836523 92.59030726181042 L 936.3303715788954 92.59030726181041" stroke="rgb(132, 0, 0)" fill="none" stroke-width="1.074220518512px" stroke-linecap="round"/><path d="M 888.833663012964 92.6824055579651 L 900.7410859367192 92.6824055579651" stroke="rgb(132, 0, 0)" fill="none" stroke-width="1.074220518512px" stroke-linecap="round"/><path d="M 912.7097286878243 85.73441169746057 L 912.7097286878243 73.79780220221747" stroke="rgb(132, 0, 0)" fill="none" stroke-width="1.074220518512px" stroke-linecap="round"/><path d="M 906.114498103394 99.41911098468347 L 906.114498103394 85.8846521791797" stroke="rgb(132, 0, 0)" fill="none" stroke-width="1.074220518512px" stroke-linecap="round"/><path d="M 910.2552959361021 99.18778296712448 L 910.2552959361021 86.10786446072127" stroke="rgb(132, 0, 0)" fill="none" stroke-width="1.074220518512px" stroke-linecap="round"/><path d="M 915.0638560986305 99.20273074563954 L 915.0638560986305 86.13851197211437" stroke="rgb(132, 0, 0)" fill="none" stroke-width="1.074220518512px" stroke-linecap="round"/><path d="M 910.3599357568104 99.22695441833204 L 915.021123606404 99.22695441833204" stroke="rgb(132, 0, 0)" fill="none" stroke-width="1.074220518512px" stroke-linecap="round"/><path d="M 910.3703664380452 86.09031169744875 L 915.0018252347888 86.09031169744875" stroke="rgb(132, 0, 0)" fill="none" stroke-width="1.074220518512px" stroke-linecap="round"/><path d="M 919.0690873019024 99.42428335648009 L 919.0690873019024 85.88982455097633" stroke="rgb(132, 0, 0)" fill="none" stroke-width="1.074220518512px" stroke-linecap="round"/><path d="M 919.3186179861476 85.70929642173775 L 919.3186179861476 85.70929642173775 L 920.1579465037122 86.16191130449211 L 920.9129947218255 86.63112285009508 L 921.586591026112 87.1152129418943 L 922.1815638021958 87.61246346323743 L 922.7007414357014 88.1211562974721 L 923.146952312253 88.63957332794594 L 923.523024817475 89.16599643800663 L 923.8317873369915 89.69870751100179 L 924.0760682564271 90.23598843027905 L 924.2586959614059 90.77612107918607 L 924.3824988375522 91.3173873410705 L 924.4503052704906 91.85806909927997 L 924.4649436458451 92.39644823716215 L 924.4292423492402 92.93080663806464 L 924.3460297663001 93.45942618533512 L 924.2181342826492 93.9805887623212 L 924.0483842839117 94.49257625237055 L 923.839608155712 94.99367053883083 L 923.5946342836744 95.48215350504964 L 923.3162910534232 95.95630703437463 L 923.0074068505828 96.41441301015348 L 922.6708100607774 96.85475331573379 L 922.3093290696313 97.27560983446324 L 921.9257922627688 97.67526444968945 L 921.5230280258144 98.05199904476007 L 921.1038647443922 98.40409550302273 L 920.6711308041267 98.7298357078251 L 920.227654590642 99.02750154251481 L 919.7762644895627 99.2953748904395 L 919.3197888865128 99.53173763494682 L 919.3197888865128 99.53173763494682" stroke="rgb(132, 0, 0)" fill="none" stroke-width="1.074220518512px" stroke-linecap="round"/><path d="M 905.8689742616829 85.7024858636504 L 905.8689742616829 85.7024858636504 L 905.0296457441183 86.15510074640476 L 904.274597526005 86.62431229200773 L 903.6010012217184 87.10840238380696 L 903.0060284456346 87.60565290515008 L 902.4868508121291 88.11434573938475 L 902.0406399355775 88.6327627698586 L 901.6645674303555 89.15918587991928 L 901.355804910839 89.69189695291443 L 901.1115239914034 90.2291778721917 L 900.9288962864246 90.76931052109873 L 900.8050934102782 91.31057678298316 L 900.7372869773399 91.85125854119264 L 900.7226486019854 92.3896376790748 L 900.7583498985903 92.9239960799773 L 900.8415624815303 93.45261562724777 L 900.9694579651813 93.97377820423387 L 901.1392079639188 94.48576569428322 L 901.3479840921185 94.98685998074347 L 901.5929579641561 95.47534294696229 L 901.8713011944072 95.9494964762873 L 902.1801853972477 96.40760245206613 L 902.5167821870531 96.84794275764645 L 902.8782631781992 97.26879927637589 L 903.2617999850617 97.6684538916021 L 903.6645642220161 98.04518848667271 L 904.0837275034382 98.3972849449354 L 904.5164614437037 98.72302514973777 L 904.9599376571884 99.02069098442746 L 905.4113277582678 99.28856433235215 L 905.8678033613177 99.52492707685947 L 905.8678033613177 99.52492707685947" stroke="rgb(132, 0, 0)" fill="none" stroke-width="1.074220518512px" stroke-linecap="round"/><text x="913.6779666099799" y="102.21330734933136" fill="rgb(15, 15, 15)" font-family="sans-serif" text-anchor="middle" dominant-baseline="hanging" font-size="9.667984666608px">I2C_PU</text></g><g data-circuit-json-type="schematic_component" data-schematic-component-id="schematic_component_4"><rect class="component-overlay" x="881.851157132751" y="101.73807537129125" width="14.211045856883288" height="56.844167314225786" fill="transparent"/><path d="M 888.9566800611926 158.58224268551703 L 888.9566800611926 144.37120219973625" stroke="rgb(132, 0, 0)" fill="none" stroke-width="1.074220518512px" stroke-linecap="round"/><path d="M 888.9566800611926 115.9491212281746 L 888.9566800611926 101.73807537129125" stroke="rgb(132, 0, 0)" fill="none" stroke-width="1.074220518512px" stroke-linecap="round"/><path d="M 881.851157132751 130.16016708505805 L 881.851157132751 115.94912659927726 L 896.0622029896343 115.94912659927726 L 896.0622029896343 144.37121294194148 L 881.851157132751 144.37121294194148 L 881.851157132751 130.16016708505813" stroke="rgb(132, 0, 0)" fill="none" stroke-width="1.074220518512px" stroke-linecap="round"/><text x="903.7603384659724" y="122.49644694858198" fill="rgb(15, 15, 15)" font-family="sans-serif" text-anchor="start" dominant-baseline="middle" font-size="9.667984666608px">R1</text><text x="903.7603384659724" y="139.683975244774" fill="rgb(15, 15, 15)" font-family="sans-serif" text-anchor="start" dominant-baseline="middle" font-size="9.667984666608px">2.2Ω</text></g><g data-circuit-json-type="schematic_component" data-schematic-component-id="schematic_component_5"><rect class="component-overlay" x="929.0094378954278" y="101.73807537129125" width="14.211045856883288" height="56.844167314225786" fill="transparent"/><path d="M 936.1149608238694 158.58224268551703 L 936.1149608238694 144.37120219973625" stroke="rgb(132, 0, 0)" fill="none" stroke-width="1.074220518512px" stroke-linecap="round"/><path d="M 936.1149608238694 115.9491212281746 L 936.1149608238694 101.73807537129125" stroke="rgb(132, 0, 0)" fill="none" stroke-width="1.074220518512px" stroke-linecap="round"/><path d="M 929.0094378954278 130.16016708505805 L 929.0094378954278 115.94912659927726 L 943.2204837523111 115.94912659927726 L 943.2204837523111 144.37121294194148 L 929.0094378954278 144.37121294194148 L 929.0094378954278 130.16016708505813" stroke="rgb(132, 0, 0)" fill="none" stroke-width="1.074220518512px" stroke-linecap="round"/><text x="950.9186192286492" y="122.49644694858198" fill="rgb(15, 15, 15)" font-family="sans-serif" text-anchor="start" dominant-baseline="middle" font-size="9.667984666608px">R2</text><text x="950.9186192286492" y="139.683975244774" fill="rgb(15, 15, 15)" font-family="sans-serif" text-anchor="start" dominant-baseline="middle" font-size="9.667984666608px">2.2Ω</text></g><g data-circuit-json-type="schematic_component" data-schematic-component-id="schematic_component_6"><rect class="component-overlay" x="1039.7078623280893" y="58.76925463081129" width="14.211045856883402" height="56.84416731422576" fill="transparent"/><path d="M 1046.8133852565309 115.61342194503705 L 1046.8133852565309 101.40238145925628" stroke="rgb(132, 0, 0)" fill="none" stroke-width="1.074220518512px" stroke-linecap="round"/><path d="M 1046.8133852565309 72.98030048769465 L 1046.8133852565309 58.76925463081129" stroke="rgb(132, 0, 0)" fill="none" stroke-width="1.074220518512px" stroke-linecap="round"/><path d="M 1039.7078623280893 87.19134634457806 L 1039.7078623280893 72.9803058587973 L 1053.9189081849727 72.9803058587973 L 1053.9189081849727 101.40239220146151 L 1039.7078623280893 101.40239220146151 L 1039.7078623280893 87.19134634457816" stroke="rgb(132, 0, 0)" fill="none" stroke-width="1.074220518512px" stroke-linecap="round"/><text x="1061.6170436613106" y="79.52762620810202" fill="rgb(15, 15, 15)" font-family="sans-serif" text-anchor="start" dominant-baseline="middle" font-size="9.667984666608px">R4</text><text x="1061.6170436613106" y="96.715154504294" fill="rgb(15, 15, 15)" font-family="sans-serif" text-anchor="start" dominant-baseline="middle" font-size="9.667984666608px">4.7Ω</text></g><g data-circuit-json-type="schematic_component" data-schematic-component-id="schematic_component_7"><rect class="component-overlay" x="1029.4733633010826" y="123.40412031790387" width="24.677890725390625" height="56.512442647006736" fill="transparent"/><path d="M 1047.0457310980314 158.93172421790717 L 1054.1512540264732 144.7206837321264" stroke="rgb(132, 0, 0)" fill="none" stroke-width="1.074220518512px" stroke-linecap="round"/><path d="M 1047.0577516256335 158.49017661597804 L 1047.0577516256335 179.9165629649106" stroke="rgb(132, 0, 0)" fill="none" stroke-width="1.074220518512px" stroke-linecap="round"/><path d="M 1039.9402081695896 144.7206837321264 L 1047.0457310980314 158.93172421790717" stroke="rgb(132, 0, 0)" fill="none" stroke-width="1.074220518512px" stroke-linecap="round"/><path d="M 1054.1512540264732 144.7206837321264 L 1039.9402081695896 144.7206837321264" stroke="rgb(132, 0, 0)" fill="none" stroke-width="1.074220518512px" stroke-linecap="round"/><path d="M 1039.9402081695896 158.93172421790717 L 1054.1512540264732 158.93172421790717" stroke="rgb(132, 0, 0)" fill="none" stroke-width="1.074220518512px" stroke-linecap="round"/><path d="M 1047.0457310980314 144.61090913733963 L 1047.0457310980314 123.40412031790387" stroke="rgb(132, 0, 0)" fill="none" stroke-width="1.074220518512px" stroke-linecap="round"/><path d="M 1031.515230920465 159.99984316387398 L 1030.6086317716615 165.2281979628315 L 1035.5910169273927 163.38575938271083" stroke="rgb(132, 0, 0)" fill="none" stroke-width="1.074220518512px" stroke-linecap="round"/><path d="M 1037.9361047725356 155.9318022868846 L 1037.4563041779422 156.57759680710103 L 1032.5978303590211 163.11726333521136 L 1032.546804884392 163.15110128154447" stroke="rgb(132, 0, 0)" fill="none" stroke-width="1.074220518512px" stroke-linecap="round"/><path d="M 1030.379962449886 150.46794612365366 L 1029.4733633010826 155.69630092261121 L 1034.4557484568138 153.85386234249052" stroke="rgb(132, 0, 0)" fill="none" stroke-width="1.074220518512px" stroke-linecap="round"/><path d="M 1036.8008363019567 146.39990524666425 L 1036.3210357073633 147.04569976688072 L 1031.4625618884422 153.58536629499105 L 1031.4115364138129 153.61920424132418" stroke="rgb(132, 0, 0)" fill="none" stroke-width="1.074220518512px" stroke-linecap="round"/><text x="1057.58939884692" y="162.37688369833995" fill="rgb(15, 15, 15)" font-family="sans-serif" text-anchor="start" dominant-baseline="middle" font-size="9.667984666608px">RED</text><text x="1057.58939884692" y="141.42958358735595" fill="rgb(15, 15, 15)" font-family="sans-serif" text-anchor="start" dominant-baseline="middle" font-size="9.667984666608px">D1</text><circle cx="1047.109647218883" cy="180.4350301270678" r="1.074220518512px" stroke-width="1.074220518512px" fill="none" stroke="rgb(132, 0, 0)"/></g><g data-circuit-json-type="schematic_component" data-schematic-component-id="schematic_component_8"><rect class="component-overlay" x="1039.949919123077" y="181.69338815576054" width="13.829251771296413" height="47.33000028366351" fill="transparent"/><path d="M 1046.8913494962135 215.07683178750608 L 1046.8913494962135 229.02338843942405" stroke="rgb(132, 0, 0)" fill="none" stroke-width="1.074220518512px" stroke-linecap="round"/><path d="M 1046.7992512000587 181.69338815576054 L 1046.7992512000587 195.56516831738486" stroke="rgb(132, 0, 0)" fill="none" stroke-width="1.074220518512px" stroke-linecap="round"/><path d="M 1040.0625457733404 201.64396201643797 L 1053.5970045788442 201.64396201643797" stroke="rgb(132, 0, 0)" fill="none" stroke-width="1.074220518512px" stroke-linecap="round"/><path d="M 1040.0573734015438 209.00295264732517 L 1053.5918322070474 209.0029526473252" stroke="rgb(132, 0, 0)" fill="none" stroke-width="1.074220518512px" stroke-linecap="round"/><path d="M 1053.772360336286 209.25248333157035 L 1053.772360336286 209.25248333157035 L 1053.3197454535318 210.09181184913493 L 1052.8505339079288 210.84686006724831 L 1052.3664438161295 211.52045637153475 L 1051.8691932947863 212.1154291476186 L 1051.3605004605517 212.63460678112418 L 1050.842083430078 213.08081765767577 L 1050.3156603200173 213.45689016289768 L 1049.782949247022 213.76565268241427 L 1049.2456683277449 214.0099336018498 L 1048.7055356788378 214.19256130682862 L 1048.1642694169534 214.31636418297504 L 1047.6235876587439 214.38417061591335 L 1047.0852085208617 214.39880899126788 L 1046.5508501199593 214.36310769466294 L 1046.0222305726888 214.27989511172285 L 1045.5010679957027 214.1519996280719 L 1044.9890805056532 213.98224962933446 L 1044.487986219193 213.77347350113476 L 1043.9995032529741 213.52849962909718 L 1043.5253497236492 213.250156398846 L 1043.0672437478704 212.94127219600554 L 1042.62690344229 212.6046754062001 L 1042.2060469235607 212.24319441505403 L 1041.8063923083344 211.8596576081916 L 1041.4296577132639 211.4568933712372 L 1041.0775612550012 211.03773008981503 L 1040.7518210501987 210.60499614954946 L 1040.454155215509 210.16151993606482 L 1040.1862818675843 209.71012983498542 L 1039.949919123077 209.25365423193554 L 1039.949919123077 209.25365423193554" stroke="rgb(132, 0, 0)" fill="none" stroke-width="1.074220518512px" stroke-linecap="round"/><path d="M 1053.7791708943735 201.39843817472683 L 1053.7791708943735 201.39843817472683 L 1053.326556011619 200.55910965716222 L 1052.8573444660162 199.80406143904887 L 1052.373254374217 199.1304651347624 L 1051.8760038528737 198.53549235867857 L 1051.3673110186392 198.016314725173 L 1050.8488939881652 197.57010384862141 L 1050.3224708781047 197.19403134339947 L 1049.7897598051095 196.8852688238829 L 1049.2524788858323 196.64098790444737 L 1048.7123462369252 196.45836019946853 L 1048.1710799750408 196.33455732332212 L 1047.6303982168313 196.2667508903838 L 1047.092019078949 196.2521125150293 L 1046.5576606780467 196.2878138116342 L 1046.029041130776 196.3710263945743 L 1045.50787855379 196.49892187822525 L 1044.9958910637406 196.66867187696272 L 1044.4947967772805 196.8774480051624 L 1044.0063138110615 197.1224218772 L 1043.5321602817367 197.40076510745118 L 1043.0740543059578 197.70964931029164 L 1042.6337140003775 198.04624610009705 L 1042.212857481648 198.40772709124315 L 1041.8132028664218 198.79126389810557 L 1041.4364682713513 199.19402813506 L 1041.0843718130884 199.61319141648215 L 1040.7586316082861 200.04592535674772 L 1040.4609657735964 200.48940157023233 L 1040.1930924256717 200.94079167131176 L 1039.9567296811645 201.39726727436164 L 1039.9567296811645 201.39726727436164" stroke="rgb(132, 0, 0)" fill="none" stroke-width="1.074220518512px" stroke-linecap="round"/><text x="1037.2204375786926" y="206.45404220099985" fill="rgb(15, 15, 15)" font-family="sans-serif" text-anchor="end" dominant-baseline="middle" font-size="9.667984666608px">LED</text><circle cx="1046.8505344876125" cy="181.40128611236676" r="1.074220518512px" stroke-width="1.074220518512px" fill="none" stroke="rgb(132, 0, 0)"/></g><g data-circuit-json-type="schematic_component" data-schematic-component-id="schematic_component_9"><rect class="component-overlay" x="905.4302975140895" y="273.6133583332113" width="14.211045856883288" height="56.84416731422573" fill="transparent"/><path d="M 912.5358204425311 330.457525647437 L 912.5358204425311 316.24648516165627" stroke="rgb(132, 0, 0)" fill="none" stroke-width="1.074220518512px" stroke-linecap="round"/><path d="M 912.5358204425311 287.82440419009464 L 912.5358204425311 273.6133583332113" stroke="rgb(132, 0, 0)" fill="none" stroke-width="1.074220518512px" stroke-linecap="round"/><path d="M 905.4302975140895 302.03545004697804 L 905.4302975140895 287.8244095611973 L 919.6413433709728 287.8244095611973 L 919.6413433709728 316.2464959038615 L 905.4302975140895 316.2464959038615 L 905.4302975140895 302.03545004697816" stroke="rgb(132, 0, 0)" fill="none" stroke-width="1.074220518512px" stroke-linecap="round"/><text x="927.3394788473108" y="294.371729910502" fill="rgb(15, 15, 15)" font-family="sans-serif" text-anchor="start" dominant-baseline="middle" font-size="9.667984666608px">R5</text><text x="927.3394788473108" y="311.559258206694" fill="rgb(15, 15, 15)" font-family="sans-serif" text-anchor="start" dominant-baseline="middle" font-size="9.667984666608px">10kΩ</text></g><g data-circuit-json-type="schematic_component" data-schematic-component-id="schematic_component_10"><rect class="component-overlay" x="856.6906970093805" y="342.8963869461105" width="47.330000283663594" height="13.829251771296413" fill="transparent"/><path d="M 890.0741406411261 349.78420834427055 L 904.0206972930441 349.78420834427055" stroke="rgb(132, 0, 0)" fill="none" stroke-width="1.074220518512px" stroke-linecap="round"/><path d="M 856.6906970093805 349.87630664042524 L 870.5624771710048 349.87630664042524" stroke="rgb(132, 0, 0)" fill="none" stroke-width="1.074220518512px" stroke-linecap="round"/><path d="M 876.641270870058 356.6130120671436 L 876.641270870058 343.07855326163985" stroke="rgb(132, 0, 0)" fill="none" stroke-width="1.074220518512px" stroke-linecap="round"/><path d="M 884.0002615009452 356.6181844389402 L 884.0002615009452 343.0837256334365" stroke="rgb(132, 0, 0)" fill="none" stroke-width="1.074220518512px" stroke-linecap="round"/><path d="M 884.2497921851904 342.90319750419786 L 884.2497921851904 342.90319750419786 L 885.0891207027549 343.35581238695227 L 885.8441689208684 343.8250239325552 L 886.5177652251548 344.3091140243544 L 887.1127380012387 344.80636454569753 L 887.6319156347442 345.3150573799322 L 888.0781265112957 345.8334744104061 L 888.4541990165177 346.35989752046675 L 888.7629615360343 346.8926085934619 L 889.0072424554699 347.4298895127392 L 889.1898701604487 347.9700221616462 L 889.3136730365951 348.51128842353063 L 889.3814794695334 349.0519701817401 L 889.396117844888 349.59034931962225 L 889.360416548283 350.1247077205248 L 889.2772039653429 350.65332726779525 L 889.149308481692 351.17448984478136 L 888.9795584829544 351.68647733483067 L 888.7707823547548 352.18757162129094 L 888.5258084827171 352.6760545875098 L 888.247465252466 353.1502081168348 L 887.9385810496256 353.6083140926136 L 887.6019842598201 354.04865439819395 L 887.240503268674 354.46951091692335 L 886.8569664618117 354.86916553214957 L 886.4542022248572 355.2459001272202 L 886.035038943435 355.59799658548286 L 885.6023050031695 355.9237367902852 L 885.1588287896849 356.2214026249749 L 884.7074386886054 356.48927597289963 L 884.2509630855556 356.7256387174069 L 884.2509630855556 356.7256387174069" stroke="rgb(132, 0, 0)" fill="none" stroke-width="1.074220518512px" stroke-linecap="round"/><path d="M 876.3957470283468 342.8963869461105 L 876.3957470283468 342.8963869461105 L 875.5564185107822 343.3490018288649 L 874.8013702926689 343.81821337446786 L 874.1277739883824 344.3023034662671 L 873.5328012122985 344.79955398761024 L 873.013623578793 345.3082468218449 L 872.5674127022414 345.82666385231875 L 872.1913401970195 346.3530869623794 L 871.8825776775029 346.8857980353746 L 871.6382967580673 347.4230789546518 L 871.4556690530885 347.9632116035589 L 871.3318661769422 348.5044778654433 L 871.2640597440038 349.04515962365275 L 871.2494213686493 349.58353876153495 L 871.2851226652542 350.11789716243743 L 871.3683352481943 350.6465167097079 L 871.4962307318452 351.167679286694 L 871.6659807305828 351.6796667767434 L 871.8747568587825 352.1807610632036 L 872.11973073082 352.66924402942243 L 872.3980739610712 353.14339755874744 L 872.7069581639116 353.6015035345263 L 873.043554953717 354.0418438401066 L 873.4050359448631 354.462700358836 L 873.7885727517256 354.8623549740622 L 874.1913369886801 355.23908956913283 L 874.6105002701022 355.5911860273955 L 875.0432342103677 355.9169262321979 L 875.4867104238524 356.2145920668876 L 875.9381005249318 356.4824654148123 L 876.3945761279816 356.7188281593196 L 876.3945761279816 356.7188281593196" stroke="rgb(132, 0, 0)" fill="none" stroke-width="1.074220518512px" stroke-linecap="round"/><text x="881.4513510546199" y="359.4293727517915" fill="rgb(15, 15, 15)" font-family="sans-serif" text-anchor="middle" dominant-baseline="hanging" font-size="9.667984666608px">OX45</text></g><g data-circuit-json-type="schematic_component" data-schematic-component-id="schematic_component_11"><rect class="component-overlay" x="856.6906970093805" y="381.0312153532865" width="47.330000283663594" height="13.829251771296413" fill="transparent"/><path d="M 890.0741406411261 387.9190367514465 L 904.0206972930441 387.9190367514465" stroke="rgb(132, 0, 0)" fill="none" stroke-width="1.074220518512px" stroke-linecap="round"/><path d="M 856.6906970093805 388.0111350476012 L 870.5624771710048 388.0111350476012" stroke="rgb(132, 0, 0)" fill="none" stroke-width="1.074220518512px" stroke-linecap="round"/><path d="M 876.641270870058 394.74784047431956 L 876.641270870058 381.2133816688158" stroke="rgb(132, 0, 0)" fill="none" stroke-width="1.074220518512px" stroke-linecap="round"/><path d="M 884.0002615009452 394.7530128461162 L 884.0002615009452 381.21855404061245" stroke="rgb(132, 0, 0)" fill="none" stroke-width="1.074220518512px" stroke-linecap="round"/><path d="M 884.2497921851904 381.03802591137384 L 884.2497921851904 381.03802591137384 L 885.0891207027549 381.49064079412824 L 885.8441689208684 381.9598523397312 L 886.5177652251548 382.4439424315304 L 887.1127380012387 382.9411929528735 L 887.6319156347442 383.4498857871082 L 888.0781265112957 383.96830281758207 L 888.4541990165177 384.4947259276427 L 888.7629615360343 385.02743700063786 L 889.0072424554699 385.56471791991515 L 889.1898701604487 386.1048505688222 L 889.3136730365951 386.6461168307066 L 889.3814794695334 387.1867985889161 L 889.396117844888 387.7251777267982 L 889.360416548283 388.25953612770076 L 889.2772039653429 388.7881556749712 L 889.149308481692 389.30931825195734 L 888.9795584829544 389.82130574200664 L 888.7707823547548 390.3224000284669 L 888.5258084827171 390.81088299468576 L 888.247465252466 391.28503652401076 L 887.9385810496256 391.7431424997896 L 887.6019842598201 392.1834828053699 L 887.240503268674 392.6043393240993 L 886.8569664618117 393.00399393932554 L 886.4542022248572 393.38072853439616 L 886.035038943435 393.73282499265883 L 885.6023050031695 394.0585651974612 L 885.1588287896849 394.3562310321509 L 884.7074386886054 394.6241043800756 L 884.2509630855556 394.8604671245829 L 884.2509630855556 394.8604671245829" stroke="rgb(132, 0, 0)" fill="none" stroke-width="1.074220518512px" stroke-linecap="round"/><path d="M 876.3957470283468 381.0312153532865 L 876.3957470283468 381.0312153532865 L 875.5564185107822 381.4838302360409 L 874.8013702926689 381.95304178164383 L 874.1277739883824 382.4371318734431 L 873.5328012122985 382.9343823947862 L 873.013623578793 383.44307522902085 L 872.5674127022414 383.9614922594947 L 872.1913401970195 384.48791536955537 L 871.8825776775029 385.02062644255057 L 871.6382967580673 385.5579073618278 L 871.4556690530885 386.09804001073485 L 871.3318661769422 386.63930627261925 L 871.2640597440038 387.1799880308287 L 871.2494213686493 387.7183671687109 L 871.2851226652542 388.2527255696134 L 871.3683352481943 388.78134511688387 L 871.4962307318452 389.30250769387 L 871.6659807305828 389.81449518391935 L 871.8747568587825 390.31558947037956 L 872.11973073082 390.8040724365984 L 872.3980739610712 391.2782259659234 L 872.7069581639116 391.73633194170225 L 873.043554953717 392.17667224728257 L 873.4050359448631 392.597528766012 L 873.7885727517256 392.9971833812382 L 874.1913369886801 393.3739179763088 L 874.6105002701022 393.7260144345715 L 875.0432342103677 394.0517546393739 L 875.4867104238524 394.34942047406355 L 875.9381005249318 394.61729382198826 L 876.3945761279816 394.8536565664956 L 876.3945761279816 394.8536565664956" stroke="rgb(132, 0, 0)" fill="none" stroke-width="1.074220518512px" stroke-linecap="round"/><text x="881.4513510546199" y="397.5642011589675" fill="rgb(15, 15, 15)" font-family="sans-serif" text-anchor="middle" dominant-baseline="hanging" font-size="9.667984666608px">OX46</text></g><g data-circuit-json-type="schematic_component" data-schematic-component-id="schematic_component_12"><rect class="component-overlay" x="856.6906970093805" y="418.6289335012065" width="47.330000283663594" height="13.829251771296413" fill="transparent"/><path d="M 890.0741406411261 425.51675489936656 L 904.0206972930441 425.51675489936656" stroke="rgb(132, 0, 0)" fill="none" stroke-width="1.074220518512px" stroke-linecap="round"/><path d="M 856.6906970093805 425.60885319552125 L 870.5624771710048 425.60885319552125" stroke="rgb(132, 0, 0)" fill="none" stroke-width="1.074220518512px" stroke-linecap="round"/><path d="M 876.641270870058 432.3455586222396 L 876.641270870058 418.81109981673586" stroke="rgb(132, 0, 0)" fill="none" stroke-width="1.074220518512px" stroke-linecap="round"/><path d="M 884.0002615009452 432.3507309940362 L 884.0002615009452 418.8162721885325" stroke="rgb(132, 0, 0)" fill="none" stroke-width="1.074220518512px" stroke-linecap="round"/><path d="M 884.2497921851904 418.63574405929387 L 884.2497921851904 418.63574405929387 L 885.0891207027549 419.0883589420483 L 885.8441689208684 419.5575704876512 L 886.5177652251548 420.0416605794504 L 887.1127380012387 420.53891110079354 L 887.6319156347442 421.04760393502823 L 888.0781265112957 421.5660209655021 L 888.4541990165177 422.09244407556275 L 888.7629615360343 422.6251551485579 L 889.0072424554699 423.1624360678352 L 889.1898701604487 423.70256871674223 L 889.3136730365951 424.24383497862664 L 889.3814794695334 424.7845167368361 L 889.396117844888 425.32289587471826 L 889.360416548283 425.8572542756208 L 889.2772039653429 426.38587382289126 L 889.149308481692 426.90703639987737 L 888.9795584829544 427.4190238899267 L 888.7707823547548 427.92011817638695 L 888.5258084827171 428.4086011426058 L 888.247465252466 428.8827546719308 L 887.9385810496256 429.34086064770963 L 887.6019842598201 429.78120095328995 L 887.240503268674 430.20205747201936 L 886.8569664618117 430.6017120872456 L 886.4542022248572 430.9784466823162 L 886.035038943435 431.33054314057887 L 885.6023050031695 431.6562833453812 L 885.1588287896849 431.95394918007094 L 884.7074386886054 432.22182252799564 L 884.2509630855556 432.45818527250293 L 884.2509630855556 432.45818527250293" stroke="rgb(132, 0, 0)" fill="none" stroke-width="1.074220518512px" stroke-linecap="round"/><path d="M 876.3957470283468 418.6289335012065 L 876.3957470283468 418.6289335012065 L 875.5564185107822 419.0815483839609 L 874.8013702926689 419.55075992956387 L 874.1277739883824 420.0348500213631 L 873.5328012122985 420.53210054270625 L 873.013623578793 421.0407933769409 L 872.5674127022414 421.55921040741475 L 872.1913401970195 422.0856335174754 L 871.8825776775029 422.6183445904706 L 871.6382967580673 423.15562550974784 L 871.4556690530885 423.6957581586549 L 871.3318661769422 424.2370244205393 L 871.2640597440038 424.77770617874876 L 871.2494213686493 425.31608531663096 L 871.2851226652542 425.85044371753344 L 871.3683352481943 426.3790632648039 L 871.4962307318452 426.90022584179 L 871.6659807305828 427.4122133318393 L 871.8747568587825 427.9133076182996 L 872.11973073082 428.40179058451844 L 872.3980739610712 428.87594411384345 L 872.7069581639116 429.3340500896223 L 873.043554953717 429.7743903952026 L 873.4050359448631 430.195246913932 L 873.7885727517256 430.5949015291582 L 874.1913369886801 430.97163612422884 L 874.6105002701022 431.3237325824915 L 875.0432342103677 431.6494727872939 L 875.4867104238524 431.9471386219836 L 875.9381005249318 432.2150119699083 L 876.3945761279816 432.4513747144156 L 876.3945761279816 432.4513747144156" stroke="rgb(132, 0, 0)" fill="none" stroke-width="1.074220518512px" stroke-linecap="round"/><text x="881.4513510546199" y="435.1619193068875" fill="rgb(15, 15, 15)" font-family="sans-serif" text-anchor="middle" dominant-baseline="hanging" font-size="9.667984666608px">OX44</text></g><g data-circuit-json-type="schematic_component" data-schematic-component-id="schematic_component_13"><rect class="component chip" x="418.42819033228" y="430.93201332634" width="21.484410370240028" height="64.45323111072003" stroke-width="1.074220518512px" fill="rgb(255, 255, 194)" stroke="rgb(132, 0, 0)"/><rect class="component-overlay" x="418.42819033228" y="430.93201332634" width="21.484410370240028" height="64.45323111072003" fill="transparent"/><text x="418.42819033228" y="502.36767780738796" fill="#006464" text-anchor="start" dominant-baseline="middle" font-family="sans-serif" font-size="9.667984666608px" transform="rotate(0, 418.42819033228, 502.36767780738796)"></text><text x="418.42819033228" y="423.949579956012" fill="#006464" text-anchor="start" dominant-baseline="middle" font-family="sans-serif" font-size="9.667984666608px" transform="rotate(0, 418.42819033228, 423.949579956012)">J3</text><line class="component-pin" x1="460.322790554248" y1="484.64303925193997" x2="439.91260070252" y2="484.64303925193997" stroke-width="1.074220518512px"/><text class="pin-number" x="450.65480588764" y="483.568818733428" style="font-family: sans-serif;" fill="rgb(169, 0, 0)" text-anchor="middle" dominant-baseline="auto" font-size="8.05665388884px" transform="">1</text><line class="component-pin" x1="460.322790554248" y1="473.90083406682" x2="439.91260070252" y2="473.90083406682" stroke-width="1.074220518512px"/><text class="pin-number" x="450.65480588764" y="472.826613548308" style="font-family: sans-serif;" fill="rgb(169, 0, 0)" text-anchor="middle" dominant-baseline="auto" font-size="8.05665388884px" transform="">2</text><line class="component-pin" x1="460.322790554248" y1="463.1586288817" x2="439.91260070252" y2="463.1586288817" stroke-width="1.074220518512px"/><text class="pin-number" x="450.65480588764" y="462.08440836318795" style="font-family: sans-serif;" fill="rgb(169, 0, 0)" text-anchor="middle" dominant-baseline="auto" font-size="8.05665388884px" transform="">3</text><line class="component-pin" x1="460.322790554248" y1="452.41642369657995" x2="439.91260070252" y2="452.41642369657995" stroke-width="1.074220518512px"/><text class="pin-number" x="450.65480588764" y="451.34220317806796" style="font-family: sans-serif;" fill="rgb(169, 0, 0)" text-anchor="middle" dominant-baseline="auto" font-size="8.05665388884px" transform="">4</text><line class="component-pin" x1="460.322790554248" y1="441.67421851145997" x2="439.91260070252" y2="441.67421851145997" stroke-width="1.074220518512px"/><text class="pin-number" x="450.65480588764" y="440.599997992948" style="font-family: sans-serif;" fill="rgb(169, 0, 0)" text-anchor="middle" dominant-baseline="auto" font-size="8.05665388884px" transform="">5</text></g><g data-circuit-json-type="schematic_component" data-schematic-component-id="schematic_component_14"><rect class="component chip" x="552.70575514628" y="382.59208999329996" width="75.19543629584007" height="53.711025925599984" stroke-width="1.074220518512px" fill="rgb(255, 255, 194)" stroke="rgb(132, 0, 0)"/><rect class="component-overlay" x="552.70575514628" y="382.59208999329996" width="75.19543629584007" height="53.711025925599984" fill="transparent"/><text x="552.70575514628" y="443.28554928922796" fill="#006464" text-anchor="start" dominant-baseline="middle" font-family="sans-serif" font-size="9.667984666608px" transform="rotate(0, 552.70575514628, 443.28554928922796)">QWIIC_RIGHT_ANGLE</text><text x="552.70575514628" y="375.60965662297195" fill="#006464" text-anchor="start" dominant-baseline="middle" font-family="sans-serif" font-size="9.667984666608px" transform="rotate(0, 552.70575514628, 375.60965662297195)">J2</text><line class="component-pin" x1="648.3113812938481" y1="393.33429517841995" x2="627.9011914421201" y2="393.33429517841995" stroke-width="1.074220518512px"/><text class="pin-number" x="638.64339662724" y="392.26007465990796" style="font-family: sans-serif;" fill="rgb(169, 0, 0)" text-anchor="middle" dominant-baseline="auto" font-size="8.05665388884px" transform="">4</text><text class="pin-number" x="622.53008884956" y="393.33429517841995" style="font-family: sans-serif;" fill="rgb(169, 0, 0)" text-anchor="end" dominant-baseline="middle" font-size="8.05665388884px" transform="">SCL</text><line class="component-pin" x1="648.3113812938481" y1="404.07650036354" x2="627.9011914421201" y2="404.07650036354" stroke-width="1.074220518512px"/><text class="pin-number" x="638.64339662724" y="403.00227984502794" style="font-family: sans-serif;" fill="rgb(169, 0, 0)" text-anchor="middle" dominant-baseline="auto" font-size="8.05665388884px" transform="">3</text><text class="pin-number" x="622.53008884956" y="404.07650036354" style="font-family: sans-serif;" fill="rgb(169, 0, 0)" text-anchor="end" dominant-baseline="middle" font-size="8.05665388884px" transform="">SDA</text><line class="component-pin" x1="648.3113812938481" y1="414.81870554866" x2="627.9011914421201" y2="414.81870554866" stroke-width="1.074220518512px"/><text class="pin-number" x="638.64339662724" y="413.744485030148" style="font-family: sans-serif;" fill="rgb(169, 0, 0)" text-anchor="middle" dominant-baseline="auto" font-size="8.05665388884px" transform="">2</text><text class="pin-number" x="622.53008884956" y="414.81870554866" style="font-family: sans-serif;" fill="rgb(169, 0, 0)" text-anchor="end" dominant-baseline="middle" font-size="8.05665388884px" transform="">VCC</text><line class="component-pin" x1="648.3113812938481" y1="425.56091073377996" x2="627.9011914421201" y2="425.56091073377996" stroke-width="1.074220518512px"/><text class="pin-number" x="638.64339662724" y="424.48669021526797" style="font-family: sans-serif;" fill="rgb(169, 0, 0)" text-anchor="middle" dominant-baseline="auto" font-size="8.05665388884px" transform="">1</text><text class="pin-number" x="622.53008884956" y="425.56091073377996" style="font-family: sans-serif;" fill="rgb(169, 0, 0)" text-anchor="end" dominant-baseline="middle" font-size="8.05665388884px" transform="">GND</text></g><g data-circuit-json-type="schematic_component" data-schematic-component-id="schematic_component_15"><rect class="component chip" x="552.70575514628" y="490.01414184449993" width="75.19543629584007" height="53.711025925599984" stroke-width="1.074220518512px" fill="rgb(255, 255, 194)" stroke="rgb(132, 0, 0)"/><rect class="component-overlay" x="552.70575514628" y="490.01414184449993" width="75.19543629584007" height="53.711025925599984" fill="transparent"/><text x="552.70575514628" y="550.707601140428" fill="#006464" text-anchor="start" dominant-baseline="middle" font-family="sans-serif" font-size="9.667984666608px" transform="rotate(0, 552.70575514628, 550.707601140428)">QWIIC_RIGHT_ANGLE</text><text x="552.70575514628" y="483.031708474172" fill="#006464" text-anchor="start" dominant-baseline="middle" font-family="sans-serif" font-size="9.667984666608px" transform="rotate(0, 552.70575514628, 483.031708474172)">J1</text><line class="component-pin" x1="648.3113812938481" y1="500.75634702962" x2="627.9011914421201" y2="500.75634702962" stroke-width="1.074220518512px"/><text class="pin-number" x="638.64339662724" y="499.682126511108" style="font-family: sans-serif;" fill="rgb(169, 0, 0)" text-anchor="middle" dominant-baseline="auto" font-size="8.05665388884px" transform="">4</text><text class="pin-number" x="622.53008884956" y="500.75634702962" style="font-family: sans-serif;" fill="rgb(169, 0, 0)" text-anchor="end" dominant-baseline="middle" font-size="8.05665388884px" transform="">SCL</text><line class="component-pin" x1="648.3113812938481" y1="511.49855221473996" x2="627.9011914421201" y2="511.49855221473996" stroke-width="1.074220518512px"/><text class="pin-number" x="638.64339662724" y="510.42433169622797" style="font-family: sans-serif;" fill="rgb(169, 0, 0)" text-anchor="middle" dominant-baseline="auto" font-size="8.05665388884px" transform="">3</text><text class="pin-number" x="622.53008884956" y="511.49855221473996" style="font-family: sans-serif;" fill="rgb(169, 0, 0)" text-anchor="end" dominant-baseline="middle" font-size="8.05665388884px" transform="">SDA</text><line class="component-pin" x1="648.3113812938481" y1="522.24075739986" x2="627.9011914421201" y2="522.24075739986" stroke-width="1.074220518512px"/><text class="pin-number" x="638.64339662724" y="521.166536881348" style="font-family: sans-serif;" fill="rgb(169, 0, 0)" text-anchor="middle" dominant-baseline="auto" font-size="8.05665388884px" transform="">2</text><text class="pin-number" x="622.53008884956" y="522.24075739986" style="font-family: sans-serif;" fill="rgb(169, 0, 0)" text-anchor="end" dominant-baseline="middle" font-size="8.05665388884px" transform="">VCC</text><line class="component-pin" x1="648.3113812938481" y1="532.98296258498" x2="627.9011914421201" y2="532.98296258498" stroke-width="1.074220518512px"/><text class="pin-number" x="638.64339662724" y="531.908742066468" style="font-family: sans-serif;" fill="rgb(169, 0, 0)" text-anchor="middle" dominant-baseline="auto" font-size="8.05665388884px" transform="">1</text><text class="pin-number" x="622.53008884956" y="532.98296258498" style="font-family: sans-serif;" fill="rgb(169, 0, 0)" text-anchor="end" dominant-baseline="middle" font-size="8.05665388884px" transform="">GND</text></g><g class="trace" data-circuit-json-type="schematic_trace" data-schematic-trace-id="schematic_trace_0"><path d="M 528.5357934797601 280.54114073465996 L 509.7369344058 280.54114073465996" class="trace-invisible-hover-outline" stroke="rgb(0, 150, 0)" fill="none" stroke-width="8.593764148096px" stroke-linecap="round" opacity="0" stroke-linejoin="round"/><path d="M 528.5357934797601 280.54114073465996 L 509.7369344058 280.54114073465996" stroke="rgb(0, 150, 0)" fill="none" stroke-width="1.074220518512px" stroke-linecap="round" stroke-linejoin="round"/></g><g class="trace" data-circuit-json-type="schematic_trace" data-schematic-trace-id="schematic_trace_1"><path d="M 528.5357934797601 216.08790962393996 L 509.7369344058 216.08790962393996" class="trace-invisible-hover-outline" stroke="rgb(0, 150, 0)" fill="none" stroke-width="8.593764148096px" stroke-linecap="round" opacity="0" stroke-linejoin="round"/><path d="M 528.5357934797601 216.08790962393996 L 509.7369344058 216.08790962393996" stroke="rgb(0, 150, 0)" fill="none" stroke-width="1.074220518512px" stroke-linecap="round" stroke-linejoin="round"/></g><g class="trace" data-circuit-json-type="schematic_trace" data-schematic-trace-id="schematic_trace_2"><path d="M 888.6252105213468 92.63112227041125 L 888.6252105213468 92.63112227041125 L 888.6252105213468 100.53987906273781" class="trace-invisible-hover-outline" stroke="rgb(0, 150, 0)" fill="none" stroke-width="8.593764148096px" stroke-linecap="round" opacity="0" stroke-linejoin="round"/><path d="M 888.6252105213468 92.63112227041125 L 888.6252105213468 92.63112227041125 L 888.6252105213468 100.53987906273781" stroke="rgb(0, 150, 0)" fill="none" stroke-width="1.074220518512px" stroke-linecap="round" stroke-linejoin="round"/></g><g class="trace" data-circuit-json-type="schematic_trace" data-schematic-trace-id="schematic_trace_3"><path d="M 936.5140471742533 92.63780392203643 L 936.5140471742533 92.63780392203643 L 936.5140471742533 100.53987906273781" class="trace-invisible-hover-outline" stroke="rgb(0, 150, 0)" fill="none" stroke-width="8.593764148096px" stroke-linecap="round" opacity="0" stroke-linejoin="round"/><path d="M 936.5140471742533 92.63780392203643 L 936.5140471742533 92.63780392203643 L 936.5140471742533 100.53987906273781" stroke="rgb(0, 150, 0)" fill="none" stroke-width="1.074220518512px" stroke-linecap="round" stroke-linejoin="round"/></g><g class="trace" data-circuit-json-type="schematic_trace" data-schematic-trace-id="schematic_trace_4"><path d="M 936.1340926913042 159.76065722322218 L 966.2806547734 159.76065722322218 L 966.2806547734 159.69133240206" class="trace-invisible-hover-outline" stroke="rgb(0, 150, 0)" fill="none" stroke-width="8.593764148096px" stroke-linecap="round" opacity="0" stroke-linejoin="round"/><path d="M 936.1340926913042 159.76065722322218 L 966.2806547734 159.76065722322218 L 966.2806547734 159.69133240206" stroke="rgb(0, 150, 0)" fill="none" stroke-width="1.074220518512px" stroke-linecap="round" stroke-linejoin="round"/></g><g class="trace" data-circuit-json-type="schematic_trace" data-schematic-trace-id="schematic_trace_5"><path d="M 888.9758119286275 159.76065722322218 L 966.2806547734 159.76065722322218 L 966.2806547734 194.60349925369997" class="trace-invisible-hover-outline" stroke="rgb(0, 150, 0)" fill="none" stroke-width="8.593764148096px" stroke-linecap="round" opacity="0" stroke-linejoin="round"/><path d="M 888.9758119286275 159.76065722322218 L 966.2806547734 159.76065722322218 L 966.2806547734 194.60349925369997" stroke="rgb(0, 150, 0)" fill="none" stroke-width="1.074220518512px" stroke-linecap="round" stroke-linejoin="round"/></g><g class="trace" data-circuit-json-type="schematic_trace" data-schematic-trace-id="schematic_trace_6"><path d="M 1047.0852892686257 122.83432689937214 L 1047.0852892686257 122.83432689937214 L 1047.0852892686257 116.79183648274216" class="trace-invisible-hover-outline" stroke="rgb(0, 150, 0)" fill="none" stroke-width="8.593764148096px" stroke-linecap="round" opacity="0" stroke-linejoin="round"/><path d="M 1047.0852892686257 122.83432689937214 L 1047.0852892686257 122.83432689937214 L 1047.0852892686257 116.79183648274216" stroke="rgb(0, 150, 0)" fill="none" stroke-width="1.074220518512px" stroke-linecap="round" stroke-linejoin="round"/></g><g class="trace" data-circuit-json-type="schematic_trace" data-schematic-trace-id="schematic_trace_7"><path d="M 912.5549523099659 331.63594018514215 L 912.5549523099659 349.83170500449654 L 904.2874316188932 349.83170500449654" class="trace-invisible-hover-outline" stroke="rgb(0, 150, 0)" fill="none" stroke-width="8.593764148096px" stroke-linecap="round" opacity="0" stroke-linejoin="round"/><path d="M 912.5549523099659 331.63594018514215 L 912.5549523099659 349.83170500449654 L 904.2874316188932 349.83170500449654" stroke="rgb(0, 150, 0)" fill="none" stroke-width="1.074220518512px" stroke-linecap="round" stroke-linejoin="round"/></g><g class="trace" data-circuit-json-type="schematic_trace" data-schematic-trace-id="schematic_trace_8"><path d="M 904.2874316188932 425.56425155959255 L 944.79624440316 425.56425155959255 L 944.79624440316 425.56091073377996" class="trace-invisible-hover-outline" stroke="rgb(0, 150, 0)" fill="none" stroke-width="8.593764148096px" stroke-linecap="round" opacity="0" stroke-linejoin="round"/><path d="M 904.2874316188932 425.56425155959255 L 944.79624440316 425.56425155959255 L 944.79624440316 425.56091073377996" stroke="rgb(0, 150, 0)" fill="none" stroke-width="1.074220518512px" stroke-linecap="round" stroke-linejoin="round"/></g><g class="trace" data-circuit-json-type="schematic_trace" data-schematic-trace-id="schematic_trace_9"><path d="M 461.39701107276005 473.90083406682 L 482.881421443 473.90083406682 L 482.881421443 409.44760295609996" class="trace-invisible-hover-outline" stroke="rgb(0, 150, 0)" fill="none" stroke-width="8.593764148096px" stroke-linecap="round" opacity="0" stroke-linejoin="round"/><path d="M 461.39701107276005 473.90083406682 L 482.881421443 473.90083406682 L 482.881421443 409.44760295609996" stroke="rgb(0, 150, 0)" fill="none" stroke-width="1.074220518512px" stroke-linecap="round" stroke-linejoin="round"/></g><g class="trace" data-circuit-json-type="schematic_trace" data-schematic-trace-id="schematic_trace_10"><path d="M 461.39701107276005 484.64303925193997 L 482.881421443 484.64303925193997 L 482.881421443 516.8696548073" class="trace-invisible-hover-outline" stroke="rgb(0, 150, 0)" fill="none" stroke-width="8.593764148096px" stroke-linecap="round" opacity="0" stroke-linejoin="round"/><path d="M 461.39701107276005 484.64303925193997 L 482.881421443 484.64303925193997 L 482.881421443 516.8696548073" stroke="rgb(0, 150, 0)" fill="none" stroke-width="1.074220518512px" stroke-linecap="round" stroke-linejoin="round"/></g><g class="trace" data-circuit-json-type="schematic_trace" data-schematic-trace-id="schematic_trace_11"><path d="M 649.38560181236 532.98296258498 L 670.8700121826 532.98296258498 L 670.8700121826 543.7251677700999" class="trace-invisible-hover-outline" stroke="rgb(0, 150, 0)" fill="none" stroke-width="8.593764148096px" stroke-linecap="round" opacity="0" stroke-linejoin="round"/><path d="M 649.38560181236 532.98296258498 L 670.8700121826 532.98296258498 L 670.8700121826 543.7251677700999" stroke="rgb(0, 150, 0)" fill="none" stroke-width="1.074220518512px" stroke-linecap="round" stroke-linejoin="round"/></g><g class="trace" data-circuit-json-type="schematic_trace" data-schematic-trace-id="schematic_trace_12"><path d="M 649.38560181236 425.56091073377996 L 670.8700121826 425.56091073377996 L 670.8700121826 543.7251677700999" class="trace-invisible-hover-outline" stroke="rgb(0, 150, 0)" fill="none" stroke-width="8.593764148096px" stroke-linecap="round" opacity="0" stroke-linejoin="round"/><path d="M 649.38560181236 425.56091073377996 L 670.8700121826 425.56091073377996 L 670.8700121826 543.7251677700999" stroke="rgb(0, 150, 0)" fill="none" stroke-width="1.074220518512px" stroke-linecap="round" stroke-linejoin="round"/></g><g class="trace" data-circuit-json-type="schematic_trace" data-schematic-trace-id="schematic_trace_13"><path d="M 649.38560181236 522.24075739986 L 670.8700121826 522.24075739986 L 670.8700121826 355.7365770305" class="trace-invisible-hover-outline" stroke="rgb(0, 150, 0)" fill="none" stroke-width="8.593764148096px" stroke-linecap="round" opacity="0" stroke-linejoin="round"/><path d="M 649.38560181236 522.24075739986 L 670.8700121826 522.24075739986 L 670.8700121826 355.7365770305" stroke="rgb(0, 150, 0)" fill="none" stroke-width="1.074220518512px" stroke-linecap="round" stroke-linejoin="round"/></g><g class="trace" data-circuit-json-type="schematic_trace" data-schematic-trace-id="schematic_trace_14"><path d="M 649.38560181236 414.81870554866 L 670.8700121826 414.81870554866 L 670.8700121826 355.7365770305" class="trace-invisible-hover-outline" stroke="rgb(0, 150, 0)" fill="none" stroke-width="8.593764148096px" stroke-linecap="round" opacity="0" stroke-linejoin="round"/><path d="M 649.38560181236 414.81870554866 L 670.8700121826 414.81870554866 L 670.8700121826 355.7365770305" stroke="rgb(0, 150, 0)" fill="none" stroke-width="1.074220518512px" stroke-linecap="round" stroke-linejoin="round"/></g><rect class="component-overlay" x="497.3705077966898" y="280.48294483806956" width="24.13350799322427" height="25.96548903659732" fill="transparent"/><path d="M 509.6785934894396 280.48294483806956 L 509.6785934894396 298.1878929314132" stroke="rgb(132, 0, 0)" fill="none" stroke-width="1.074220518512px" stroke-linecap="round"/><path d="M 497.3705077966898 298.1861312097629 L 521.5040157899141 298.1861312097629" stroke="rgb(132, 0, 0)" fill="none" stroke-width="1.074220518512px" stroke-linecap="round"/><path d="M 500.3871983100064 302.3172825422149 L 518.4873252765975 302.3172825422149" stroke="rgb(132, 0, 0)" fill="none" stroke-width="1.074220518512px" stroke-linecap="round"/><path d="M 506.4205739655368 306.4484338746669 L 512.4539496210672 306.4484338746669" stroke="rgb(132, 0, 0)" fill="none" stroke-width="1.074220518512px" stroke-linecap="round"/><text x="508.5219158039266" y="312.7396546812557" fill="rgb(15, 15, 15)" font-family="sans-serif" text-anchor="middle" dominant-baseline="hanging" font-size="9.667984666608px">GND</text><rect class="component-overlay" x="504.7211033942249" y="193.28712794590498" width="9.951552027982075" height="21.997989829038033" fill="transparent"/><path d="M 509.6182652651201 193.28712794590498 L 504.7211033942249 203.54973126722754" stroke="rgb(132, 0, 0)" fill="none" stroke-width="1.074220518512px" stroke-linecap="round"/><path d="M 509.77549355131197 193.29247756408716 L 514.672655422207 203.5551077409227" stroke="rgb(132, 0, 0)" fill="none" stroke-width="1.074220518512px" stroke-linecap="round"/><path d="M 509.67493576857413 193.5579228253141 L 509.6749357685741 215.28511777494302" stroke="rgb(132, 0, 0)" fill="none" stroke-width="1.074220518512px" stroke-linecap="round"/><text x="509.4346917207114" y="190.13959737343376" fill="rgb(15, 15, 15)" font-family="sans-serif" text-anchor="middle" dominant-baseline="ideographic" font-size="9.667984666608px">V3_3</text><path class="net-label" d="
    M 966.2806547734,159.69133240206
    L 969.1810501733823,153.8905416020952
    L 994.2676800156993,153.8905416020952
    L 994.2676800156993,165.4921232020248
    L 969.1810501733823,165.4921232020248
    Z
  " fill="rgba(255, 255, 255, 0.6)" stroke="rgb(132, 0, 0)" stroke-width="1.074220518512px"/><text class="net-label-text" x="971.114647106704" y="159.69133240206" fill="rgb(132, 0, 0)" text-anchor="start" dominant-baseline="central" font-family="sans-serif" font-variant-numeric="tabular-nums" font-size="9.667984666608px" transform="">SDA</text><path class="net-label" d="
    M 966.2806547734,194.60349925369997
    L 969.1810501733823,188.80270845373516
    L 993.1934594971873,188.80270845373516
    L 993.1934594971873,200.40429005366477
    L 969.1810501733823,200.40429005366477
    Z
  " fill="rgba(255, 255, 255, 0.6)" stroke="rgb(132, 0, 0)" stroke-width="1.074220518512px"/><text class="net-label-text" x="971.114647106704" y="194.60349925369997" fill="rgb(132, 0, 0)" text-anchor="start" dominant-baseline="central" font-family="sans-serif" font-variant-numeric="tabular-nums" font-size="9.667984666608px" transform="">SCL</text><rect class="component-overlay" x="932.4298177940498" y="425.50271483718956" width="24.13350799322427" height="25.96548903659732" fill="transparent"/><path d="M 944.7379034867995 425.50271483718956 L 944.7379034867995 443.2076629305332" stroke="rgb(132, 0, 0)" fill="none" stroke-width="1.074220518512px" stroke-linecap="round"/><path d="M 932.4298177940498 443.2059012088829 L 956.563325787274 443.2059012088829" stroke="rgb(132, 0, 0)" fill="none" stroke-width="1.074220518512px" stroke-linecap="round"/><path d="M 935.4465083073662 447.3370525413349 L 953.5466352739575 447.3370525413349" stroke="rgb(132, 0, 0)" fill="none" stroke-width="1.074220518512px" stroke-linecap="round"/><path d="M 941.4798839628967 451.4682038737869 L 947.5132596184271 451.4682038737869" stroke="rgb(132, 0, 0)" fill="none" stroke-width="1.074220518512px" stroke-linecap="round"/><text x="943.5812258012865" y="457.7594246803757" fill="rgb(15, 15, 15)" font-family="sans-serif" text-anchor="middle" dominant-baseline="hanging" font-size="9.667984666608px">GND</text><rect class="component-overlay" x="477.8655904314249" y="386.646821278065" width="9.951552027982132" height="21.997989829038033" fill="transparent"/><path d="M 482.7627523023201 386.646821278065 L 477.8655904314249 396.90942459938753" stroke="rgb(132, 0, 0)" fill="none" stroke-width="1.074220518512px" stroke-linecap="round"/><path d="M 482.919980588512 386.6521708962472 L 487.817142459407 396.9148010730827" stroke="rgb(132, 0, 0)" fill="none" stroke-width="1.074220518512px" stroke-linecap="round"/><path d="M 482.81942280577414 386.9176161574741 L 482.8194228057741 408.644811107103" stroke="rgb(132, 0, 0)" fill="none" stroke-width="1.074220518512px" stroke-linecap="round"/><text x="482.5791787579114" y="383.49929070559375" fill="rgb(15, 15, 15)" font-family="sans-serif" text-anchor="middle" dominant-baseline="ideographic" font-size="9.667984666608px">V3_3</text><rect class="component-overlay" x="470.51499483388983" y="516.8114589107097" width="24.13350799322427" height="25.965489036597205" fill="transparent"/><path d="M 482.8230805266396 516.8114589107097 L 482.8230805266396 534.5164070040533" stroke="rgb(132, 0, 0)" fill="none" stroke-width="1.074220518512px" stroke-linecap="round"/><path d="M 470.51499483388983 534.514645282403 L 494.6485028271141 534.514645282403" stroke="rgb(132, 0, 0)" fill="none" stroke-width="1.074220518512px" stroke-linecap="round"/><path d="M 473.5316853472064 538.6457966148549 L 491.6318123137976 538.6457966148549" stroke="rgb(132, 0, 0)" fill="none" stroke-width="1.074220518512px" stroke-linecap="round"/><path d="M 479.5650610027368 542.7769479473069 L 485.59843665826725 542.7769479473069" stroke="rgb(132, 0, 0)" fill="none" stroke-width="1.074220518512px" stroke-linecap="round"/><text x="481.6664028411266" y="549.0681687538957" fill="rgb(15, 15, 15)" font-family="sans-serif" text-anchor="middle" dominant-baseline="hanging" font-size="9.667984666608px">GND</text><rect class="component-overlay" x="658.5035855734899" y="543.6669718735096" width="24.13350799322427" height="25.965489036597205" fill="transparent"/><path d="M 670.8116712662396 543.6669718735096 L 670.8116712662396 561.3719199668533" stroke="rgb(132, 0, 0)" fill="none" stroke-width="1.074220518512px" stroke-linecap="round"/><path d="M 658.5035855734899 561.3701582452029 L 682.6370935667142 561.3701582452029" stroke="rgb(132, 0, 0)" fill="none" stroke-width="1.074220518512px" stroke-linecap="round"/><path d="M 661.5202760868063 565.5013095776549 L 679.6204030533976 565.5013095776549" stroke="rgb(132, 0, 0)" fill="none" stroke-width="1.074220518512px" stroke-linecap="round"/><path d="M 667.5536517423368 569.6324609101068 L 673.5870273978672 569.6324609101068" stroke="rgb(132, 0, 0)" fill="none" stroke-width="1.074220518512px" stroke-linecap="round"/><text x="669.6549935807266" y="575.9236817166957" fill="rgb(15, 15, 15)" font-family="sans-serif" text-anchor="middle" dominant-baseline="hanging" font-size="9.667984666608px">GND</text><rect class="component-overlay" x="665.8541811710248" y="332.935795352465" width="9.951552027982189" height="21.997989829038033" fill="transparent"/><path d="M 670.7513430419201 332.935795352465 L 665.8541811710248 343.19839867378755" stroke="rgb(132, 0, 0)" fill="none" stroke-width="1.074220518512px" stroke-linecap="round"/><path d="M 670.908571328112 332.9411449706472 L 675.805733199007 343.2037751474827" stroke="rgb(132, 0, 0)" fill="none" stroke-width="1.074220518512px" stroke-linecap="round"/><path d="M 670.8080135453741 333.2065902318741 L 670.8080135453741 354.933785181503" stroke="rgb(132, 0, 0)" fill="none" stroke-width="1.074220518512px" stroke-linecap="round"/><text x="670.5677694975114" y="329.78826477999377" fill="rgb(15, 15, 15)" font-family="sans-serif" text-anchor="middle" dominant-baseline="ideographic" font-size="9.667984666608px">V3_3</text><path class="net-label" d="
    M 652.07115310864,281.88391638279995
    L 654.9715485086224,276.0831255828352
    L 678.9839578324273,276.0831255828352
    L 678.9839578324273,287.6847071827647
    L 654.9715485086224,287.6847071827647
    Z
  " fill="rgba(255, 255, 255, 0.6)" stroke="rgb(132, 0, 0)" stroke-width="1.074220518512px"/><text class="net-label-text" x="656.905145441944" y="281.88391638279995" fill="rgb(132, 0, 0)" text-anchor="start" dominant-baseline="central" font-family="sans-serif" font-variant-numeric="tabular-nums" font-size="9.667984666608px" transform="">SCL</text><path class="net-label" d="
    M 652.07115310864,271.14171119767997
    L 654.9715485086224,265.3409203977152
    L 680.0581783509393,265.3409203977152
    L 680.0581783509393,276.94250199764474
    L 654.9715485086224,276.94250199764474
    Z
  " fill="rgba(255, 255, 255, 0.6)" stroke="rgb(132, 0, 0)" stroke-width="1.074220518512px"/><text class="net-label-text" x="656.905145441944" y="271.14171119767997" fill="rgb(132, 0, 0)" text-anchor="start" dominant-baseline="central" font-family="sans-serif" font-variant-numeric="tabular-nums" font-size="9.667984666608px" transform="">SDA</text><path class="net-label" d="
    M 652.07115310864,225.48733916092
    L 654.9715485086224,219.6865483609552
    L 687.0835805420078,219.6865483609552
    L 687.0835805420078,231.2881299608848
    L 654.9715485086224,231.2881299608848
    Z
  " fill="rgba(255, 255, 255, 0.6)" stroke="rgb(132, 0, 0)" stroke-width="1.074220518512px"/><text class="net-label-text" x="656.905145441944" y="225.48733916092" fill="rgb(132, 0, 0)" text-anchor="start" dominant-baseline="central" font-family="sans-serif" font-variant-numeric="tabular-nums" font-size="9.667984666608px" transform="">ADDR</text><path class="net-label" d="
    M 652.07115310864,214.74513397579997
    L 654.9715485086224,208.94434317583517
    L 676.4774432892327,208.94434317583517
    L 676.4774432892327,220.54592477576477
    L 654.9715485086224,220.54592477576477
    Z
  " fill="rgba(255, 255, 255, 0.6)" stroke="rgb(132, 0, 0)" stroke-width="1.074220518512px"/><text class="net-label-text" x="656.905145441944" y="214.74513397579997" fill="rgb(132, 0, 0)" text-anchor="start" dominant-baseline="central" font-family="sans-serif" font-variant-numeric="tabular-nums" font-size="9.667984666608px" transform="">INT</text><rect class="component-overlay" x="639.013344746059" y="99.2235077549428" width="9.951552027982189" height="21.997989829038033" fill="transparent"/><path d="M 643.9105066169543 99.2235077549428 L 639.013344746059 109.48611107626536" stroke="rgb(132, 0, 0)" fill="none" stroke-width="1.074220518512px" stroke-linecap="round"/><path d="M 644.0677349031462 99.22885737312498 L 648.9648967740412 109.49148754996051" stroke="rgb(132, 0, 0)" fill="none" stroke-width="1.074220518512px" stroke-linecap="round"/><path d="M 643.9671771204083 99.49430263435193 L 643.9671771204083 121.22149758398083" stroke="rgb(132, 0, 0)" fill="none" stroke-width="1.074220518512px" stroke-linecap="round"/><text x="643.7269330725456" y="96.07597718247158" fill="rgb(15, 15, 15)" font-family="sans-serif" text-anchor="middle" dominant-baseline="ideographic" font-size="9.667984666608px">V3_3</text><path class="net-label" d="
    M 643.9998226819658,181.24506759346215
    L 649.8006134819307,184.14546299344454
    L 649.8006134819307,205.6513577740548
    L 638.199031882001,205.6513577740548
    L 638.199031882001,184.14546299344454
    Z
  " fill="rgba(255, 255, 255, 0.6)" stroke="rgb(132, 0, 0)" stroke-width="1.074220518512px"/><text class="net-label-text" x="643.9998226819658" y="186.07905992676615" fill="rgb(132, 0, 0)" text-anchor="start" dominant-baseline="central" font-family="sans-serif" font-variant-numeric="tabular-nums" font-size="9.667984666608px" transform="rotate(90 643.9998226819658 186.07905992676615)">INT</text><rect class="component-overlay" x="443.67416378002656" y="277.8623462854414" width="24.13350799322427" height="25.96548903659732" fill="transparent"/><path d="M 455.98224947277635 277.8623462854414 L 455.98224947277635 295.56729437878505" stroke="rgb(132, 0, 0)" fill="none" stroke-width="1.074220518512px" stroke-linecap="round"/><path d="M 443.67416378002656 295.5655326571347 L 467.80767177325083 295.5655326571347" stroke="rgb(132, 0, 0)" fill="none" stroke-width="1.074220518512px" stroke-linecap="round"/><path d="M 446.69085429334314 299.69668398958675 L 464.7909812599343 299.69668398958675" stroke="rgb(132, 0, 0)" fill="none" stroke-width="1.074220518512px" stroke-linecap="round"/><path d="M 452.72422994887353 303.8278353220387 L 458.757605604404 303.8278353220387" stroke="rgb(132, 0, 0)" fill="none" stroke-width="1.074220518512px" stroke-linecap="round"/><text x="454.82557178726336" y="310.1190561286275" fill="rgb(15, 15, 15)" font-family="sans-serif" text-anchor="middle" dominant-baseline="hanging" font-size="9.667984666608px">GND</text><rect class="component-overlay" x="450.9953955596882" y="195.90772649853315" width="9.951552027982075" height="21.997989829038033" fill="transparent"/><path d="M 455.8925574305834 195.90772649853315 L 450.9953955596882 206.1703298198557" stroke="rgb(132, 0, 0)" fill="none" stroke-width="1.074220518512px" stroke-linecap="round"/><path d="M 456.04978571677526 195.91307611671533 L 460.94694758767025 206.17570629355086" stroke="rgb(132, 0, 0)" fill="none" stroke-width="1.074220518512px" stroke-linecap="round"/><path d="M 455.9492279340374 196.17852137794227 L 455.94922793403737 217.90571632757118" stroke="rgb(132, 0, 0)" fill="none" stroke-width="1.074220518512px" stroke-linecap="round"/><text x="455.7089838861747" y="192.76019592606193" fill="rgb(15, 15, 15)" font-family="sans-serif" text-anchor="middle" dominant-baseline="ideographic" font-size="9.667984666608px">V3_3</text><rect class="component-overlay" x="907.7413997075777" y="50.81331270220908" width="9.951552027982189" height="21.99798982903804" fill="transparent"/><path d="M 912.638561578473 50.81331270220908 L 907.7413997075777 61.07591602353165" stroke="rgb(132, 0, 0)" fill="none" stroke-width="1.074220518512px" stroke-linecap="round"/><path d="M 912.7957898646648 50.81866232039127 L 917.6929517355599 61.081292497226805" stroke="rgb(132, 0, 0)" fill="none" stroke-width="1.074220518512px" stroke-linecap="round"/><path d="M 912.695232081927 51.084107581618206 L 912.695232081927 72.81130253124712" stroke="rgb(132, 0, 0)" fill="none" stroke-width="1.074220518512px" stroke-linecap="round"/><text x="912.4549880340643" y="47.66578212973786" fill="rgb(15, 15, 15)" font-family="sans-serif" text-anchor="middle" dominant-baseline="ideographic" font-size="9.667984666608px">V3_3</text><rect class="component-overlay" x="1041.846039188059" y="34.7702766442228" width="9.951552027981961" height="21.99798982903804" fill="transparent"/><path d="M 1046.7432010589541 34.7702766442228 L 1041.846039188059 45.03287996554536" stroke="rgb(132, 0, 0)" fill="none" stroke-width="1.074220518512px" stroke-linecap="round"/><path d="M 1046.900429345146 34.775626262404984 L 1051.797591216041 45.03825643924052" stroke="rgb(132, 0, 0)" fill="none" stroke-width="1.074220518512px" stroke-linecap="round"/><path d="M 1046.799871562408 35.04107152363192 L 1046.799871562408 56.76826647326084" stroke="rgb(132, 0, 0)" fill="none" stroke-width="1.074220518512px" stroke-linecap="round"/><text x="1046.5596275145454" y="31.622746071751575" fill="rgb(15, 15, 15)" font-family="sans-serif" text-anchor="middle" dominant-baseline="ideographic" font-size="9.667984666608px">V3_3</text><rect class="component-overlay" x="1034.4774262268772" y="229.23192686868282" width="24.133507993224157" height="25.965489036597262" fill="transparent"/><path d="M 1046.785511919627 229.23192686868282 L 1046.785511919627 246.93687496202648" stroke="rgb(132, 0, 0)" fill="none" stroke-width="1.074220518512px" stroke-linecap="round"/><path d="M 1034.4774262268772 246.93511324037613 L 1058.6109342201014 246.93511324037613" stroke="rgb(132, 0, 0)" fill="none" stroke-width="1.074220518512px" stroke-linecap="round"/><path d="M 1037.4941167401937 251.06626457282812 L 1055.594243706785 251.06626457282812" stroke="rgb(132, 0, 0)" fill="none" stroke-width="1.074220518512px" stroke-linecap="round"/><path d="M 1043.5274923957243 255.19741590528008 L 1049.5608680512546 255.19741590528008" stroke="rgb(132, 0, 0)" fill="none" stroke-width="1.074220518512px" stroke-linecap="round"/><text x="1045.628834234114" y="261.48863671186893" fill="rgb(15, 15, 15)" font-family="sans-serif" text-anchor="middle" dominant-baseline="hanging" font-size="9.667984666608px">GND</text><rect class="component-overlay" x="907.568474374059" y="249.6143803466228" width="9.951552027982189" height="21.997989829038033" fill="transparent"/><path d="M 912.4656362449542 249.6143803466228 L 907.568474374059 259.87698366794535" stroke="rgb(132, 0, 0)" fill="none" stroke-width="1.074220518512px" stroke-linecap="round"/><path d="M 912.6228645311461 249.61972996480497 L 917.5200264020411 259.8823601416405" stroke="rgb(132, 0, 0)" fill="none" stroke-width="1.074220518512px" stroke-linecap="round"/><path d="M 912.5223067484083 249.88517522603192 L 912.5223067484083 271.6123701756608" stroke="rgb(132, 0, 0)" fill="none" stroke-width="1.074220518512px" stroke-linecap="round"/><text x="912.2820627005456" y="246.46684977415157" fill="rgb(15, 15, 15)" font-family="sans-serif" text-anchor="middle" dominant-baseline="ideographic" font-size="9.667984666608px">V3_3</text><path class="net-label" d="
    M 904.2874316188932,387.9665334116726
    L 907.1878270188755,382.1657426117078
    L 932.2744568611924,382.1657426117078
    L 932.2744568611924,393.76732421163734
    L 907.1878270188755,393.76732421163734
    Z
  " fill="rgba(255, 255, 255, 0.6)" stroke="rgb(132, 0, 0)" stroke-width="1.074220518512px"/><text class="net-label-text" x="909.1214239521971" y="387.9665334116726" fill="rgb(132, 0, 0)" text-anchor="start" dominant-baseline="central" font-family="sans-serif" font-variant-numeric="tabular-nums" font-size="9.667984666608px" transform="">SDA</text><path class="net-label" d="
    M 856.3985949659868,425.5575699079674
    L 853.4981995660045,431.35836070793215
    L 821.3861675326191,431.35836070793215
    L 821.3861675326191,419.75677910800255
    L 853.4981995660045,419.7567791080026
    Z
  " fill="rgba(255, 255, 255, 0.6)" stroke="rgb(132, 0, 0)" stroke-width="1.074220518512px"/><text class="net-label-text" x="851.5646026326829" y="425.5575699079674" fill="rgb(132, 0, 0)" text-anchor="end" dominant-baseline="central" font-family="sans-serif" font-variant-numeric="tabular-nums" font-size="9.667984666608px" transform="">ADDR</text><path class="net-label" d="
    M 856.3985949659868,349.8250233528714
    L 853.4981995660045,355.6258141528362
    L 821.3861675326191,355.6258141528362
    L 821.3861675326191,344.0242325529066
    L 853.4981995660045,344.02423255290665
    Z
  " fill="rgba(255, 255, 255, 0.6)" stroke="rgb(132, 0, 0)" stroke-width="1.074220518512px"/><text class="net-label-text" x="851.5646026326829" y="349.8250233528714" fill="rgb(132, 0, 0)" text-anchor="end" dominant-baseline="central" font-family="sans-serif" font-variant-numeric="tabular-nums" font-size="9.667984666608px" transform="">ADDR</text><path class="net-label" d="
    M 856.3985949659868,387.9598517600474
    L 853.4981995660045,393.7606425600122
    L 821.3861675326191,393.7606425600122
    L 821.3861675326191,382.15906096008257
    L 853.4981995660045,382.1590609600826
    Z
  " fill="rgba(255, 255, 255, 0.6)" stroke="rgb(132, 0, 0)" stroke-width="1.074220518512px"/><text class="net-label-text" x="851.5646026326829" y="387.9598517600474" fill="rgb(132, 0, 0)" text-anchor="end" dominant-baseline="central" font-family="sans-serif" font-variant-numeric="tabular-nums" font-size="9.667984666608px" transform="">ADDR</text><path class="net-label" d="
    M 461.39701107276005,441.67421851145997
    L 464.29740647274247,435.8734277114952
    L 485.8033012533527,435.8734277114952
    L 485.8033012533527,447.47500931142474
    L 464.29740647274247,447.47500931142474
    Z
  " fill="rgba(255, 255, 255, 0.6)" stroke="rgb(132, 0, 0)" stroke-width="1.074220518512px"/><text class="net-label-text" x="466.2310034060641" y="441.67421851145997" fill="rgb(132, 0, 0)" text-anchor="start" dominant-baseline="central" font-family="sans-serif" font-variant-numeric="tabular-nums" font-size="9.667984666608px" transform="">INT</text><path class="net-label" d="
    M 461.39701107276005,452.41642369657995
    L 464.29740647274247,446.6156328966152
    L 488.30981579654735,446.6156328966152
    L 488.30981579654735,458.2172144965447
    L 464.29740647274247,458.2172144965447
    Z
  " fill="rgba(255, 255, 255, 0.6)" stroke="rgb(132, 0, 0)" stroke-width="1.074220518512px"/><text class="net-label-text" x="466.2310034060641" y="452.41642369657995" fill="rgb(132, 0, 0)" text-anchor="start" dominant-baseline="central" font-family="sans-serif" font-variant-numeric="tabular-nums" font-size="9.667984666608px" transform="">SCL</text><path class="net-label" d="
    M 461.39701107276005,463.1586288817
    L 464.29740647274247,457.3578380817352
    L 489.38403631505935,457.3578380817352
    L 489.38403631505935,468.95941968166477
    L 464.29740647274247,468.95941968166477
    Z
  " fill="rgba(255, 255, 255, 0.6)" stroke="rgb(132, 0, 0)" stroke-width="1.074220518512px"/><text class="net-label-text" x="466.2310034060641" y="463.1586288817" fill="rgb(132, 0, 0)" text-anchor="start" dominant-baseline="central" font-family="sans-serif" font-variant-numeric="tabular-nums" font-size="9.667984666608px" transform="">SDA</text><path class="net-label" d="
    M 649.38560181236,393.33429517841995
    L 652.2859972123424,387.5335043784552
    L 676.2984065361474,387.5335043784552
    L 676.2984065361474,399.1350859783847
    L 652.2859972123424,399.1350859783847
    Z
  " fill="rgba(255, 255, 255, 0.6)" stroke="rgb(132, 0, 0)" stroke-width="1.074220518512px"/><text class="net-label-text" x="654.219594145664" y="393.33429517841995" fill="rgb(132, 0, 0)" text-anchor="start" dominant-baseline="central" font-family="sans-serif" font-variant-numeric="tabular-nums" font-size="9.667984666608px" transform="">SCL</text><path class="net-label" d="
    M 649.38560181236,404.07650036354
    L 652.2859972123424,398.2757095635752
    L 677.3726270546593,398.2757095635752
    L 677.3726270546593,409.87729116350476
    L 652.2859972123424,409.87729116350476
    Z
  " fill="rgba(255, 255, 255, 0.6)" stroke="rgb(132, 0, 0)" stroke-width="1.074220518512px"/><text class="net-label-text" x="654.219594145664" y="404.07650036354" fill="rgb(132, 0, 0)" text-anchor="start" dominant-baseline="central" font-family="sans-serif" font-variant-numeric="tabular-nums" font-size="9.667984666608px" transform="">SDA</text><path class="net-label" d="
    M 649.38560181236,500.75634702962
    L 652.2859972123424,494.9555562296552
    L 676.2984065361474,494.9555562296552
    L 676.2984065361474,506.55713782958475
    L 652.2859972123424,506.55713782958475
    Z
  " fill="rgba(255, 255, 255, 0.6)" stroke="rgb(132, 0, 0)" stroke-width="1.074220518512px"/><text class="net-label-text" x="654.219594145664" y="500.75634702962" fill="rgb(132, 0, 0)" text-anchor="start" dominant-baseline="central" font-family="sans-serif" font-variant-numeric="tabular-nums" font-size="9.667984666608px" transform="">SCL</text><path class="net-label" d="
    M 649.38560181236,511.49855221473996
    L 652.2859972123424,505.6977614147752
    L 677.3726270546593,505.6977614147752
    L 677.3726270546593,517.2993430147047
    L 652.2859972123424,517.2993430147047
    Z
  " fill="rgba(255, 255, 255, 0.6)" stroke="rgb(132, 0, 0)" stroke-width="1.074220518512px"/><text class="net-label-text" x="654.219594145664" y="511.49855221473996" fill="rgb(132, 0, 0)" text-anchor="start" dominant-baseline="central" font-family="sans-serif" font-variant-numeric="tabular-nums" font-size="9.667984666608px" transform="">SDA</text><text x="321.7483436662" y="140.89247332809998" fill="#000000" text-anchor="start" dominant-baseline="middle" font-family="sans-serif" font-size="16.11330777768px" transform="rotate(0, 321.7483436662, 140.89247332809998)">VDD Range: 1.71V - 3.6V</text><text x="407.68598514716" y="355.7365770305" fill="#000000" text-anchor="middle" dominant-baseline="middle" font-family="sans-serif" font-size="5.37110259256px" transform="rotate(0, 407.68598514716, 355.7365770305)">Cut traces to remove I2C pull-up resistors.</text><text x="649.38560181236" y="473.90083406682" fill="#000000" text-anchor="middle" dominant-baseline="middle" font-family="sans-serif" font-size="5.37110259256px" transform="rotate(0, 649.38560181236, 473.90083406682)">Cut trace to disconnect Power LED.</text></svg>