<svg xmlns="http://www.w3.org/2000/svg" width="1200" height="600" style="background-color: rgb(245, 241, 237)" data-real-to-screen-transform="matrix(53.5822726028,0,0,-53.5822726028,362.8984437327,356.3221128085)" data-software-used-string="@tscircuit/core@0.0.574"><style>
              .boundary { fill: rgb(245, 241, 237); }
              .schematic-boundary { fill: none; stroke: #fff; }
              .component { fill: none; stroke: rgb(132, 0, 0); }
              .chip { fill: rgb(255, 255, 194); stroke: rgb(132, 0, 0); }
              .component-pin { fill: none; stroke: rgb(132, 0, 0); }
              .trace:hover {
                filter: invert(1);
              }
              .trace:hover .trace-crossing-outline {
                opacity: 0;
              }
              .trace:hover .trace-junction {
                filter: invert(1);
              }
              .text { font-family: sans-serif; fill: rgb(0, 150, 0); }
              .pin-number { fill: rgb(169, 0, 0); }
              .port-label { fill: rgb(0, 100, 100); }
              .component-name { fill: rgb(0, 100, 100); }
            </style><rect class="boundary" x="0" y="0" width="1200" height="600"/><g data-circuit-json-type="schematic_component" data-schematic-component-id="schematic_component_0"><rect class="component chip" x="429.8762844862" y="204.95219270558997" width="80.3734089042" height="88.41074979461999" stroke-width="1.0716454520560001px" fill="rgb(255, 255, 194)" stroke="rgb(132, 0, 0)"/><rect class="component-overlay" x="429.8762844862" y="204.95219270558997" width="80.3734089042" height="88.41074979461999" fill="transparent"/><text x="429.8762844862" y="300.328637938574" fill="#006464" text-anchor="start" dominant-baseline="middle" font-family="sans-serif" font-size="9.644809068504001px" transform="rotate(0, 429.8762844862, 300.328637938574)">OPT4048</text><text x="429.8762844862" y="197.98649726722596" fill="#006464" text-anchor="start" dominant-baseline="middle" font-family="sans-serif" font-size="9.644809068504001px" transform="rotate(0, 429.8762844862, 197.98649726722596)">U1</text><line class="component-pin" x1="409.515020897136" y1="217.00820404121995" x2="429.8762844862" y2="217.00820404121995" stroke-width="1.0716454520560001px"/><g data-schematic-port-id="source_port_0"><rect x="407.371729993024" y="215.93655858916395" width="2.1432909041120003" height="2.1432909041120003" opacity="0"/></g><text class="pin-number" x="419.15982996564003" y="215.93655858916398" style="font-family: sans-serif;" fill="rgb(169, 0, 0)" text-anchor="middle" dominant-baseline="auto" font-size="8.03734089042px" transform="">1</text><text class="pin-number" x="435.23451174648" y="217.00820404121995" style="font-family: sans-serif;" fill="rgb(169, 0, 0)" text-anchor="start" dominant-baseline="middle" font-size="8.03734089042px" transform="">VDD</text><line class="component-pin" x1="530.610956979464" y1="226.38510174670998" x2="510.2496933904" y2="226.38510174670998" stroke-width="1.0716454520560001px"/><g data-schematic-port-id="source_port_1"><rect x="530.6109569794639" y="225.31345629465397" width="2.1432909041120003" height="2.1432909041120003" opacity="0"/></g><text class="pin-number" x="520.96614791096" y="225.31345629465397" style="font-family: sans-serif;" fill="rgb(169, 0, 0)" text-anchor="middle" dominant-baseline="auto" font-size="8.03734089042px" transform="">2</text><text class="pin-number" x="504.89146613011997" y="226.38510174670998" style="font-family: sans-serif;" fill="rgb(169, 0, 0)" text-anchor="end" dominant-baseline="middle" font-size="8.03734089042px" transform="">ADDR</text><line class="component-pin" x1="409.515020897136" y1="281.30693116457996" x2="429.8762844862" y2="281.30693116457996" stroke-width="1.0716454520560001px"/><g data-schematic-port-id="source_port_3"><rect x="407.371729993024" y="280.235285712524" width="2.1432909041120003" height="2.1432909041120003" opacity="0"/></g><text class="pin-number" x="419.15982996564003" y="280.235285712524" style="font-family: sans-serif;" fill="rgb(169, 0, 0)" text-anchor="middle" dominant-baseline="auto" font-size="8.03734089042px" transform="">4</text><text class="pin-number" x="435.23451174648" y="281.30693116457996" style="font-family: sans-serif;" fill="rgb(169, 0, 0)" text-anchor="start" dominant-baseline="middle" font-size="8.03734089042px" transform="">GND</text><line class="component-pin" x1="530.610956979464" y1="282.64648797965" x2="510.2496933904" y2="282.64648797965" stroke-width="1.0716454520560001px"/><g data-schematic-port-id="source_port_4"><rect x="530.6109569794639" y="281.574842527594" width="2.1432909041120003" height="2.1432909041120003" opacity="0"/></g><text class="pin-number" x="520.96614791096" y="281.574842527594" style="font-family: sans-serif;" fill="rgb(169, 0, 0)" text-anchor="middle" dominant-baseline="auto" font-size="8.03734089042px" transform="">5</text><text class="pin-number" x="504.89146613011997" y="282.64648797965" style="font-family: sans-serif;" fill="rgb(169, 0, 0)" text-anchor="end" dominant-baseline="middle" font-size="8.03734089042px" transform="">SCL</text><line class="component-pin" x1="530.610956979464" y1="215.66864722614997" x2="510.2496933904" y2="215.66864722614997" stroke-width="1.0716454520560001px"/><g data-schematic-port-id="source_port_6"><rect x="530.6109569794639" y="214.59700177409397" width="2.1432909041120003" height="2.1432909041120003" opacity="0"/></g><text class="pin-number" x="520.96614791096" y="214.59700177409397" style="font-family: sans-serif;" fill="rgb(169, 0, 0)" text-anchor="middle" dominant-baseline="auto" font-size="8.03734089042px" transform="">7</text><text class="pin-number" x="504.89146613011997" y="215.66864722614997" style="font-family: sans-serif;" fill="rgb(169, 0, 0)" text-anchor="end" dominant-baseline="middle" font-size="8.03734089042px" transform="">INT</text><line class="component-pin" x1="530.610956979464" y1="271.93003345909" x2="510.2496933904" y2="271.93003345909" stroke-width="1.0716454520560001px"/><g data-schematic-port-id="source_port_7"><rect x="530.6109569794639" y="270.858388007034" width="2.1432909041120003" height="2.1432909041120003" opacity="0"/></g><text class="pin-number" x="520.96614791096" y="270.85838800703397" style="font-family: sans-serif;" fill="rgb(169, 0, 0)" text-anchor="middle" dominant-baseline="auto" font-size="8.03734089042px" transform="">8</text><text class="pin-number" x="504.89146613011997" y="271.93003345909" style="font-family: sans-serif;" fill="rgb(169, 0, 0)" text-anchor="end" dominant-baseline="middle" font-size="8.03734089042px" transform="">SDA</text></g><g data-circuit-json-type="schematic_component" data-schematic-component-id="schematic_component_1"><rect class="component-overlay" x="516.5904989701021" y="124.34565804974977" width="14.176979864975692" height="56.707903385220845" fill="transparent"/><path d="M 523.6789889025899 124.34565804974977 L 523.6789889025899 138.52263255649814" stroke="rgb(132, 0, 0)" fill="none" stroke-width="1.0716454520560001px" stroke-linecap="round"/><path d="M 523.6789889025899 166.876581569995 L 523.6789889025899 181.05356143497062" stroke="rgb(132, 0, 0)" fill="none" stroke-width="1.0716454520560001px" stroke-linecap="round"/><path d="M 530.7674788350778 152.6996017050193 L 530.7674788350778 166.87657621176768 L 516.5904989701021 166.87657621176768 L 516.5904989701021 138.52262184004357 L 530.7674788350778 138.52262184004357 L 530.7674788350778 152.6996017050192" stroke="rgb(132, 0, 0)" fill="none" stroke-width="1.0716454520560001px" stroke-linecap="round"/><text x="533.5002952979338" y="143.19862353086296" fill="rgb(15, 15, 15)" font-family="sans-serif" text-anchor="start" dominant-baseline="middle" font-size="9.644809068504001px">R3</text><text x="533.5002952979338" y="160.34495076375896" fill="rgb(15, 15, 15)" font-family="sans-serif" text-anchor="start" dominant-baseline="middle" font-size="9.644809068504001px">10Ω</text></g><g data-circuit-json-type="schematic_component" data-schematic-component-id="schematic_component_2"><rect class="component-overlay" x="321.8966055630618" y="221.13737184899148" width="28.353949013496788" height="56.70790338522093" fill="transparent"/><path d="M 336.07358006981013 221.13737184899148 L 336.07358006981013 245.23822797464106" stroke="rgb(132, 0, 0)" fill="none" stroke-width="1.0716454520560001px" stroke-linecap="round"/><path d="M 336.07358006981013 253.74441375033555 L 336.07358006981013 277.8452752342124" stroke="rgb(132, 0, 0)" fill="none" stroke-width="1.0716454520560001px" stroke-linecap="round"/><path d="M 321.8966055630618 245.2382279746411 L 350.2505545765586 245.23822797464106" stroke="rgb(132, 0, 0)" fill="none" stroke-width="1.0716454520560001px" stroke-linecap="round"/><path d="M 321.8966055630618 253.74441375033555 L 350.2505545765586 253.74441375033555" stroke="rgb(132, 0, 0)" fill="none" stroke-width="1.0716454520560001px" stroke-linecap="round"/><text x="348.22273882813295" y="238.54694641234" fill="rgb(15, 15, 15)" font-family="sans-serif" text-anchor="start" dominant-baseline="auto" font-size="9.644809068504001px">C1</text><text x="348.22273882813295" y="259.76818879346" fill="rgb(15, 15, 15)" font-family="sans-serif" text-anchor="start" dominant-baseline="hanging" font-size="9.644809068504001px">100nF</text></g><g data-circuit-json-type="schematic_component" data-schematic-component-id="schematic_component_3"><rect class="component-overlay" x="767.8775573629251" y="75.05918718361164" width="47.38285188670136" height="25.67224735959006" fill="transparent"/><path d="M 803.3524135838345 93.80664381174267 L 815.2604092496265 93.80664381174267" stroke="rgb(132, 0, 0)" fill="none" stroke-width="1.0716454520560001px" stroke-linecap="round"/><path d="M 767.8775573629251 93.89852133457475 L 779.7564364217849 93.89852133457475" stroke="rgb(132, 0, 0)" fill="none" stroke-width="1.0716454520560001px" stroke-linecap="round"/><path d="M 785.1521819893413 93.89810339284843 L 789.1500625127815 93.89810339284843" stroke="rgb(132, 0, 0)" fill="none" stroke-width="1.0716454520560001px" stroke-linecap="round"/><path d="M 791.6963885549571 86.96718284940366 L 791.6963885549571 75.05918718361164" stroke="rgb(132, 0, 0)" fill="none" stroke-width="1.0716454520560001px" stroke-linecap="round"/><path d="M 785.1169677197868 100.61907787578093 L 785.1169677197868 87.11706318232824" stroke="rgb(132, 0, 0)" fill="none" stroke-width="1.0716454520560001px" stroke-linecap="round"/><path d="M 789.2478394438269 100.38830438590792 L 789.2478394438269 87.33974039081092" stroke="rgb(132, 0, 0)" fill="none" stroke-width="1.0716454520560001px" stroke-linecap="round"/><path d="M 794.0448727720016 100.40321633237325 L 794.0448727720016 87.37031443555803" stroke="rgb(132, 0, 0)" fill="none" stroke-width="1.0716454520560001px" stroke-linecap="round"/><path d="M 789.3522284273117 100.42738193731716 L 794.0022427159188 100.42738193731716" stroke="rgb(132, 0, 0)" fill="none" stroke-width="1.0716454520560001px" stroke-linecap="round"/><path d="M 789.3626341046512 87.3222297041243 L 793.9829906053725 87.3222297041243" stroke="rgb(132, 0, 0)" fill="none" stroke-width="1.0716454520560001px" stroke-linecap="round"/><path d="M 798.0405028399924 100.62423784863257 L 798.0405028399924 87.12222315517988" stroke="rgb(132, 0, 0)" fill="none" stroke-width="1.0716454520560001px" stroke-linecap="round"/><path d="M 798.2894353620505 86.94212777873456 L 798.2894353620505 86.94212777873456 L 799.1267518842436 87.3936576762536 L 799.8799901394066 87.86174445195037 L 800.5519717331023 88.34467410775382 L 801.1455182708937 88.84073264559294 L 801.6634513583441 89.34820606739666 L 802.1085926010163 89.86538037509396 L 802.4837636044734 90.3905415706138 L 802.7917859742786 90.92197565588513 L 803.0354813159946 91.45796863283694 L 803.2176712351846 91.99680650339816 L 803.3411773374116 92.53677526949777 L 803.4088212282388 93.07616093306471 L 803.4234245132291 93.61324949602796 L 803.3878087979454 94.14632696031649 L 803.3047956879509 94.67367932785923 L 803.1772067888086 95.19359260058518 L 803.0078637060815 95.70435278042326 L 802.7995880453326 96.20424586930247 L 802.555201412125 96.69155786915175 L 802.2775254120218 97.16457478190007 L 801.9693816505859 97.62158260947638 L 801.6335917333803 98.06086735380966 L 801.2729772659682 98.48071501682884 L 800.8903598539125 98.87941160046292 L 800.4885611027763 99.25524310664083 L 800.0704026181226 99.60649553729155 L 799.6387060055143 99.93145489434404 L 799.1962928705148 100.22840717972726 L 798.7459848186867 100.49563839537015 L 798.2906034555932 100.7314345432017 L 798.2906034555932 100.7314345432017" stroke="rgb(132, 0, 0)" fill="none" stroke-width="1.0716454520560001px" stroke-linecap="round"/><path d="M 784.8720324352648 86.93533354656854 L 784.8720324352648 86.93533354656854 L 784.0347159130716 87.38686344408758 L 783.2814776579088 87.85495021978436 L 782.6094960642131 88.3378798755878 L 782.0159495264215 88.83393841342692 L 781.4980164389713 89.34141183523064 L 781.0528751962989 89.85858614292795 L 780.6777041928418 90.38374733844779 L 780.3696818230368 90.91518142371913 L 780.1259864813208 91.45117440067092 L 779.9437965621307 91.99001227123215 L 779.8202904599036 92.52998103733175 L 779.7526465690765 93.0693667008987 L 779.7380432840863 93.60645526386195 L 779.77365899937 94.13953272815047 L 779.8566721093645 94.66688509569322 L 779.9842610085068 95.18679836841916 L 780.1536040912339 95.69755854825726 L 780.3618797519828 96.19745163713647 L 780.6062663851903 96.68476363698574 L 780.8839423852936 97.15778054973406 L 781.1920861467295 97.61478837731036 L 781.527876063935 98.05407312164364 L 781.8884905313471 98.47392078466282 L 782.2711079434029 98.8726173682969 L 782.672906694539 99.24844887447482 L 783.0910651791928 99.59970130512554 L 783.522761791801 99.92466066217803 L 783.9651749268006 100.22161294756124 L 784.4154829786287 100.48884416320413 L 784.870864341722 100.7246403110357 L 784.870864341722 100.7246403110357" stroke="rgb(132, 0, 0)" fill="none" stroke-width="1.0716454520560001px" stroke-linecap="round"/><path d="M 794.0490468310373 93.89810339284843 L 798.0469273544775 93.89810339284843" stroke="rgb(132, 0, 0)" fill="none" stroke-width="1.0716454520560001px" stroke-linecap="round"/><text x="792.6623054667133" y="103.40646128410353" fill="rgb(15, 15, 15)" font-family="sans-serif" text-anchor="middle" dominant-baseline="hanging" font-size="9.644809068504001px">I2C_PU</text></g><g data-circuit-json-type="schematic_component" data-schematic-component-id="schematic_component_4"><rect class="component-overlay" x="760.9117895884931" y="102.93248335962927" width="14.176979864975692" height="56.70790338522089" fill="transparent"/><path d="M 768.0002795209809 159.64038674485016 L 768.0002795209809 145.4634122381018" stroke="rgb(132, 0, 0)" fill="none" stroke-width="1.0716454520560001px" stroke-linecap="round"/><path d="M 768.0002795209809 117.10946322460491 L 768.0002795209809 102.93248335962927" stroke="rgb(132, 0, 0)" fill="none" stroke-width="1.0716454520560001px" stroke-linecap="round"/><path d="M 760.9117895884931 131.28644308958062 L 760.9117895884931 117.10946858283224 L 775.0887694534688 117.10946858283224 L 775.0887694534688 145.46342295455636 L 760.9117895884931 145.46342295455636 L 760.9117895884931 131.28644308958073" stroke="rgb(132, 0, 0)" fill="none" stroke-width="1.0716454520560001px" stroke-linecap="round"/><text x="782.7684513533789" y="123.64109403084096" fill="rgb(15, 15, 15)" font-family="sans-serif" text-anchor="start" dominant-baseline="middle" font-size="9.644809068504001px">R1</text><text x="782.7684513533789" y="140.78742126373697" fill="rgb(15, 15, 15)" font-family="sans-serif" text-anchor="start" dominant-baseline="middle" font-size="9.644809068504001px">2.2Ω</text></g><g data-circuit-json-type="schematic_component" data-schematic-component-id="schematic_component_5"><rect class="component-overlay" x="807.9570249337515" y="102.93248335962927" width="14.176979864975692" height="56.70790338522089" fill="transparent"/><path d="M 815.0455148662394 159.64038674485016 L 815.0455148662394 145.4634122381018" stroke="rgb(132, 0, 0)" fill="none" stroke-width="1.0716454520560001px" stroke-linecap="round"/><path d="M 815.0455148662394 117.10946322460491 L 815.0455148662394 102.93248335962927" stroke="rgb(132, 0, 0)" fill="none" stroke-width="1.0716454520560001px" stroke-linecap="round"/><path d="M 807.9570249337515 131.28644308958062 L 807.9570249337515 117.10946858283224 L 822.1340047987272 117.10946858283224 L 822.1340047987272 145.46342295455636 L 807.9570249337515 145.46342295455636 L 807.9570249337515 131.28644308958073" stroke="rgb(132, 0, 0)" fill="none" stroke-width="1.0716454520560001px" stroke-linecap="round"/><text x="829.8136866986373" y="123.64109403084096" fill="rgb(15, 15, 15)" font-family="sans-serif" text-anchor="start" dominant-baseline="middle" font-size="9.644809068504001px">R2</text><text x="829.8136866986373" y="140.78742126373697" fill="rgb(15, 15, 15)" font-family="sans-serif" text-anchor="start" dominant-baseline="middle" font-size="9.644809068504001px">2.2Ω</text></g><g data-circuit-json-type="schematic_component" data-schematic-component-id="schematic_component_6"><rect class="component-overlay" x="918.3900887681223" y="60.06666527738929" width="14.176979864975692" height="56.707903385220874" fill="transparent"/><path d="M 925.4785787006101 116.77456866261016 L 925.4785787006101 102.59759415586178" stroke="rgb(132, 0, 0)" fill="none" stroke-width="1.0716454520560001px" stroke-linecap="round"/><path d="M 925.4785787006101 74.24364514236493 L 925.4785787006101 60.06666527738929" stroke="rgb(132, 0, 0)" fill="none" stroke-width="1.0716454520560001px" stroke-linecap="round"/><path d="M 918.3900887681223 88.42062500734063 L 918.3900887681223 74.24365050059225 L 932.567068633098 74.24365050059225 L 932.567068633098 102.59760487231635 L 918.3900887681223 102.59760487231635 L 918.3900887681223 88.42062500734072" stroke="rgb(132, 0, 0)" fill="none" stroke-width="1.0716454520560001px" stroke-linecap="round"/><text x="940.246750533008" y="80.77527594860096" fill="rgb(15, 15, 15)" font-family="sans-serif" text-anchor="start" dominant-baseline="middle" font-size="9.644809068504001px">R4</text><text x="940.246750533008" y="97.92160318149696" fill="rgb(15, 15, 15)" font-family="sans-serif" text-anchor="start" dominant-baseline="middle" font-size="9.644809068504001px">4.7Ω</text></g><g data-circuit-json-type="schematic_component" data-schematic-component-id="schematic_component_7"><rect class="component-overlay" x="908.1801233584541" y="124.54659157201019" width="24.618734148582917" height="56.37697391139881" fill="transparent"/><path d="M 925.710367574549 159.98903051799488 L 932.798857507037 145.81205601124645" stroke="rgb(132, 0, 0)" fill="none" stroke-width="1.0716454520560001px" stroke-linecap="round"/><path d="M 925.7223592871576 159.5485413713818 L 925.7223592871576 180.923565483409" stroke="rgb(132, 0, 0)" fill="none" stroke-width="1.0716454520560001px" stroke-linecap="round"/><path d="M 918.6218776420611 145.81205601124645 L 925.710367574549 159.98903051799488" stroke="rgb(132, 0, 0)" fill="none" stroke-width="1.0716454520560001px" stroke-linecap="round"/><path d="M 932.798857507037 145.81205601124645 L 918.6218776420611 145.81205601124645" stroke="rgb(132, 0, 0)" fill="none" stroke-width="1.0716454520560001px" stroke-linecap="round"/><path d="M 918.6218776420611 159.98903051799488 L 932.798857507037 159.98903051799488" stroke="rgb(132, 0, 0)" fill="none" stroke-width="1.0716454520560001px" stroke-linecap="round"/><path d="M 925.710367574549 145.70254456250083 L 925.710367574549 124.54659157201019" stroke="rgb(132, 0, 0)" fill="none" stroke-width="1.0716454520560001px" stroke-linecap="round"/><path d="M 910.2170963172676 161.05458902388312 L 909.3126704215504 166.27041067826667 L 914.2831120585492 164.43238869762735" stroke="rgb(132, 0, 0)" fill="none" stroke-width="1.0716454520560001px" stroke-linecap="round"/><path d="M 916.6225783791148 156.99629984631062 L 916.1439279379539 157.64054630095035 L 911.2971006038495 164.16453627511322 L 911.2461974448768 164.19829310685296" stroke="rgb(132, 0, 0)" fill="none" stroke-width="1.0716454520560001px" stroke-linecap="round"/><path d="M 909.0845492541714 151.54554135947282 L 908.1801233584541 156.76136301385637 L 913.150564995453 154.92334103321704" stroke="rgb(132, 0, 0)" fill="none" stroke-width="1.0716454520560001px" stroke-linecap="round"/><path d="M 915.4900313160185 147.48725218190032 L 915.0113808748577 148.13149863654007 L 910.1645535407532 154.6554886107029 L 910.1136503817805 154.68924544244268" stroke="rgb(132, 0, 0)" fill="none" stroke-width="1.0716454520560001px" stroke-linecap="round"/><text x="936.22876058266" y="163.42593143841992" fill="rgb(15, 15, 15)" font-family="sans-serif" text-anchor="start" dominant-baseline="middle" font-size="9.644809068504001px">RED</text><text x="936.22876058266" y="142.52884512332793" fill="rgb(15, 15, 15)" font-family="sans-serif" text-anchor="start" dominant-baseline="middle" font-size="9.644809068504001px">D1</text></g><g data-circuit-json-type="schematic_component" data-schematic-component-id="schematic_component_8"><rect class="component-overlay" x="918.6315653169478" y="182.69613135983673" width="13.796100996633186" height="47.21654322899681" fill="transparent"/><path d="M 925.5563560484068 215.9995499088358 L 925.5563560484068 229.91267458883354" stroke="rgb(132, 0, 0)" fill="none" stroke-width="1.0716454520560001px" stroke-linecap="round"/><path d="M 925.4644785255747 182.69613135983673 L 925.4644785255747 196.5346587999168" stroke="rgb(132, 0, 0)" fill="none" stroke-width="1.0716454520560001px" stroke-linecap="round"/><path d="M 925.4648964673011 202.70070311841113 L 925.4648964673011 209.83428789152148" stroke="rgb(132, 0, 0)" fill="none" stroke-width="1.0716454520560001px" stroke-linecap="round"/><path d="M 918.7439219843685 202.59888072578403 L 932.2459366778212 202.59888072578403" stroke="rgb(132, 0, 0)" fill="none" stroke-width="1.0716454520560001px" stroke-linecap="round"/><path d="M 918.7387620115169 209.94023076091176 L 932.2407767049696 209.94023076091176" stroke="rgb(132, 0, 0)" fill="none" stroke-width="1.0716454520560001px" stroke-linecap="round"/><path d="M 932.4208720814149 210.18916328296984 L 932.4208720814149 210.18916328296984 L 931.9693421838958 211.026479805163 L 931.5012554081991 211.77971806032593 L 931.0183257523956 212.4516996540216 L 930.5222672145566 213.04524619181313 L 930.0147937927528 213.56317927926347 L 929.4976194850555 214.0083205219357 L 928.9724582895357 214.38349152539283 L 928.4410242042643 214.6915138951979 L 927.9050312273125 214.93520923691392 L 927.3661933567513 215.11739915610397 L 926.8262245906517 215.24090525833103 L 926.2868389270848 215.30854914915815 L 925.7497503641215 215.32315243414837 L 925.2166728998329 215.28753671886471 L 924.6893205322903 215.2045236088702 L 924.1694072595643 215.0769347097279 L 923.6586470797262 214.9075916270008 L 923.158753990847 214.69931596625196 L 922.6714419909977 214.4549293330444 L 922.1984250782494 214.17725333294115 L 921.7414172506731 213.86910957150522 L 921.3021325063398 213.5333196542997 L 920.8822848433206 213.17270518688755 L 920.4835882596866 212.79008777483187 L 920.1077567535086 212.38828902369565 L 919.756504322858 211.97013053904192 L 919.4315449658054 211.53843392643373 L 919.1345926804222 211.09602079143409 L 918.8673614647793 210.64571273960604 L 918.6315653169478 210.19033137651263 L 918.6315653169478 210.19033137651263" stroke="rgb(132, 0, 0)" fill="none" stroke-width="1.0716454520560001px" stroke-linecap="round"/><path d="M 932.427666313581 202.35394544126206 L 932.427666313581 202.35394544126206 L 931.9761364160619 201.5166289190689 L 931.5080496403651 200.763390663906 L 931.0251199845617 200.0914090702103 L 930.5290614467226 199.4978625324188 L 930.0215880249189 198.97992944496843 L 929.5044137172215 198.53478820229623 L 928.9792525217017 198.1596171988391 L 928.4478184364303 197.851594829034 L 927.9118254594786 197.607899487318 L 927.3729875889173 197.42570956812796 L 926.8330188228177 197.3022034659009 L 926.2936331592508 197.23455957507377 L 925.7565445962875 197.21995629008356 L 925.223467131999 197.2555720053672 L 924.6961147644563 197.3385851153617 L 924.1762014917304 197.46617401450402 L 923.6654413118922 197.63551709723112 L 923.165548223013 197.84379275797997 L 922.6782362231637 198.08817939118754 L 922.2052193104154 198.36585539129078 L 921.7482114828391 198.67399915272668 L 921.3089267385059 199.00978906993222 L 920.8890790754866 199.37040353734434 L 920.4903824918525 199.75302094940005 L 920.1145509856747 200.15481970053628 L 919.7632985550239 200.57297818519 L 919.4383391979715 201.0046747977982 L 919.1413869125882 201.44708793279784 L 918.8741556969453 201.8973959846259 L 918.6383595491138 202.3527773477193 L 918.6383595491138 202.3527773477193" stroke="rgb(132, 0, 0)" fill="none" stroke-width="1.0716454520560001px" stroke-linecap="round"/><text x="915.9086267460459" y="207.39743043227324" fill="rgb(15, 15, 15)" font-family="sans-serif" text-anchor="end" dominant-baseline="middle" font-size="9.644809068504001px">LED</text></g><g data-circuit-json-type="schematic_component" data-schematic-component-id="schematic_component_9"><rect class="component-overlay" x="784.4344072611223" y="274.3957556885893" width="14.176979864975692" height="56.7079033852209" fill="transparent"/><path d="M 791.5228971936101 331.1036590738102 L 791.5228971936101 316.9266845670618" stroke="rgb(132, 0, 0)" fill="none" stroke-width="1.0716454520560001px" stroke-linecap="round"/><path d="M 791.5228971936101 288.57273555356494 L 791.5228971936101 274.3957556885893" stroke="rgb(132, 0, 0)" fill="none" stroke-width="1.0716454520560001px" stroke-linecap="round"/><path d="M 784.4344072611223 302.74971541854063 L 784.4344072611223 288.57274091179227 L 798.611387126098 288.57274091179227 L 798.611387126098 316.9266952835164 L 784.4344072611223 316.9266952835164 L 784.4344072611223 302.74971541854075" stroke="rgb(132, 0, 0)" fill="none" stroke-width="1.0716454520560001px" stroke-linecap="round"/><text x="806.291069026008" y="295.10436635980096" fill="rgb(15, 15, 15)" font-family="sans-serif" text-anchor="start" dominant-baseline="middle" font-size="9.644809068504001px">R5</text><text x="806.291069026008" y="312.25069359269696" fill="rgb(15, 15, 15)" font-family="sans-serif" text-anchor="start" dominant-baseline="middle" font-size="9.644809068504001px">10kΩ</text></g><g data-circuit-json-type="schematic_component" data-schematic-component-id="schematic_component_10"><rect class="component-overlay" x="735.8116428325968" y="343.5127025707111" width="47.216543228996784" height="13.796100996633129" fill="transparent"/><path d="M 769.1150613815959 350.38401283588524 L 783.0281860615936 350.38401283588524" stroke="rgb(132, 0, 0)" fill="none" stroke-width="1.0716454520560001px" stroke-linecap="round"/><path d="M 735.8116428325968 350.4758903587173 L 749.6501702726769 350.4758903587173" stroke="rgb(132, 0, 0)" fill="none" stroke-width="1.0716454520560001px" stroke-linecap="round"/><path d="M 755.8162145911713 350.47547241699095 L 762.9497993642816 350.47547241699095" stroke="rgb(132, 0, 0)" fill="none" stroke-width="1.0716454520560001px" stroke-linecap="round"/><path d="M 755.7143921985441 357.1964468999235 L 755.7143921985441 343.69443220647076" stroke="rgb(132, 0, 0)" fill="none" stroke-width="1.0716454520560001px" stroke-linecap="round"/><path d="M 763.0557422336718 357.20160687277513 L 763.0557422336718 343.69959217932245" stroke="rgb(132, 0, 0)" fill="none" stroke-width="1.0716454520560001px" stroke-linecap="round"/><path d="M 763.3046747557299 343.51949680287714 L 763.3046747557299 343.51949680287714 L 764.1419912779231 343.9710267003962 L 764.8952295330861 344.4391134760929 L 765.5672111267817 344.9220431318964 L 766.1607576645732 345.4181016697355 L 766.6786907520236 345.9255750915392 L 767.1238319946958 346.4427493992365 L 767.499002998153 346.96791059475635 L 767.807025367958 347.4993446800277 L 768.050720709674 348.0353376569795 L 768.232910628864 348.5741755275407 L 768.3564167310911 349.1141442936403 L 768.4240606219182 349.65352995720724 L 768.4386639069085 350.1906185201705 L 768.4030481916249 350.723695984459 L 768.3200350816303 351.25104835200176 L 768.192446182488 351.7709616247277 L 768.0231030997609 352.2817218045658 L 767.8148274390121 352.781614893445 L 767.5704408058045 353.2689268932943 L 767.2927648057013 353.7419438060426 L 766.9846210442654 354.19895163361895 L 766.6488311270598 354.6382363779522 L 766.2882166596477 355.0580840409714 L 765.905599247592 355.45678062460547 L 765.5038004964557 355.8326121307834 L 765.0856420118021 356.1838645614341 L 764.6539453991938 356.5088239184866 L 764.2115322641941 356.8057762038698 L 763.7612242123662 357.0730074195127 L 763.3058428492727 357.3088035673442 L 763.3058428492727 357.3088035673442" stroke="rgb(132, 0, 0)" fill="none" stroke-width="1.0716454520560001px" stroke-linecap="round"/><path d="M 755.4694569140222 343.5127025707111 L 755.4694569140222 343.5127025707111 L 754.632140391829 343.96423246823014 L 753.878902136666 344.4323192439269 L 753.2069205429705 344.9152488997304 L 752.6133740051789 345.41130743756946 L 752.0954409177285 345.9187808593732 L 751.6502996750563 346.4359551670705 L 751.2751286715992 346.96111636259036 L 750.9671063017942 347.4925504478617 L 750.7234109600781 348.02854342481345 L 750.5412210408881 348.5673812953747 L 750.417714938661 349.1073500614743 L 750.3500710478339 349.64673572504125 L 750.3354677628437 350.1838242880045 L 750.3710834781273 350.71690175229304 L 750.4540965881218 351.2442541198358 L 750.5816854872642 351.7641673925617 L 750.7510285699913 352.2749275723998 L 750.95930423074 352.774820661279 L 751.2036908639476 353.2621326611283 L 751.4813668640509 353.7351495738766 L 751.7895106254869 354.1921574014529 L 752.1253005426923 354.6314421457862 L 752.4859150101045 355.0512898088054 L 752.8685324221601 355.4499863924394 L 753.2703311732964 355.82581789861734 L 753.6884896579501 356.1770703292681 L 754.1201862705583 356.50202968632055 L 754.562599405558 356.79898197170377 L 755.012907457386 357.0662131873467 L 755.4682888204794 357.30200933517824 L 755.4682888204794 357.30200933517824" stroke="rgb(132, 0, 0)" fill="none" stroke-width="1.0716454520560001px" stroke-linecap="round"/><text x="760.5129419050334" y="360.00599462824607" fill="rgb(15, 15, 15)" font-family="sans-serif" text-anchor="middle" dominant-baseline="hanging" font-size="9.644809068504001px">OX45</text></g><g data-circuit-json-type="schematic_component" data-schematic-component-id="schematic_component_11"><rect class="component-overlay" x="735.8116428325968" y="381.5561161186991" width="47.216543228996784" height="13.796100996633129" fill="transparent"/><path d="M 769.1150613815959 388.42742638387324 L 783.0281860615936 388.42742638387324" stroke="rgb(132, 0, 0)" fill="none" stroke-width="1.0716454520560001px" stroke-linecap="round"/><path d="M 735.8116428325968 388.5193039067053 L 749.6501702726769 388.5193039067053" stroke="rgb(132, 0, 0)" fill="none" stroke-width="1.0716454520560001px" stroke-linecap="round"/><path d="M 755.8162145911713 388.51888596497895 L 762.9497993642816 388.51888596497895" stroke="rgb(132, 0, 0)" fill="none" stroke-width="1.0716454520560001px" stroke-linecap="round"/><path d="M 755.7143921985441 395.2398604479115 L 755.7143921985441 381.73784575445876" stroke="rgb(132, 0, 0)" fill="none" stroke-width="1.0716454520560001px" stroke-linecap="round"/><path d="M 763.0557422336718 395.2450204207631 L 763.0557422336718 381.74300572731045" stroke="rgb(132, 0, 0)" fill="none" stroke-width="1.0716454520560001px" stroke-linecap="round"/><path d="M 763.3046747557299 381.56291035086514 L 763.3046747557299 381.56291035086514 L 764.1419912779231 382.0144402483842 L 764.8952295330861 382.4825270240809 L 765.5672111267817 382.96545667988437 L 766.1607576645732 383.4615152177235 L 766.6786907520236 383.9689886395272 L 767.1238319946958 384.4861629472245 L 767.499002998153 385.01132414274434 L 767.807025367958 385.5427582280157 L 768.050720709674 386.0787512049675 L 768.232910628864 386.6175890755287 L 768.3564167310911 387.1575578416283 L 768.4240606219182 387.69694350519524 L 768.4386639069085 388.2340320681585 L 768.4030481916249 388.767109532447 L 768.3200350816303 389.29446189998976 L 768.192446182488 389.8143751727157 L 768.0231030997609 390.3251353525538 L 767.8148274390121 390.825028441433 L 767.5704408058045 391.3123404412823 L 767.2927648057013 391.7853573540306 L 766.9846210442654 392.24236518160694 L 766.6488311270598 392.6816499259402 L 766.2882166596477 393.1014975889594 L 765.905599247592 393.50019417259347 L 765.5038004964557 393.8760256787714 L 765.0856420118021 394.2272781094221 L 764.6539453991938 394.5522374664746 L 764.2115322641941 394.8491897518578 L 763.7612242123662 395.1164209675007 L 763.3058428492727 395.3522171153322 L 763.3058428492727 395.3522171153322" stroke="rgb(132, 0, 0)" fill="none" stroke-width="1.0716454520560001px" stroke-linecap="round"/><path d="M 755.4694569140222 381.5561161186991 L 755.4694569140222 381.5561161186991 L 754.632140391829 382.00764601621813 L 753.878902136666 382.4757327919149 L 753.2069205429705 382.9586624477184 L 752.6133740051789 383.45472098555746 L 752.0954409177285 383.9621944073612 L 751.6502996750563 384.4793687150585 L 751.2751286715992 385.00452991057836 L 750.9671063017942 385.53596399584967 L 750.7234109600781 386.07195697280144 L 750.5412210408881 386.61079484336267 L 750.417714938661 387.1507636094623 L 750.3500710478339 387.69014927302925 L 750.3354677628437 388.22723783599247 L 750.3710834781273 388.76031530028104 L 750.4540965881218 389.28766766782377 L 750.5816854872642 389.8075809405497 L 750.7510285699913 390.3183411203878 L 750.95930423074 390.818234209267 L 751.2036908639476 391.3055462091163 L 751.4813668640509 391.7785631218646 L 751.7895106254869 392.2355709494409 L 752.1253005426923 392.6748556937742 L 752.4859150101045 393.0947033567934 L 752.8685324221601 393.4933999404274 L 753.2703311732964 393.86923144660534 L 753.6884896579501 394.2204838772561 L 754.1201862705583 394.54544323430855 L 754.562599405558 394.84239551969176 L 755.012907457386 395.1096267353347 L 755.4682888204794 395.34542288316624 L 755.4682888204794 395.34542288316624" stroke="rgb(132, 0, 0)" fill="none" stroke-width="1.0716454520560001px" stroke-linecap="round"/><text x="760.5129419050334" y="398.04940817623407" fill="rgb(15, 15, 15)" font-family="sans-serif" text-anchor="middle" dominant-baseline="hanging" font-size="9.644809068504001px">OX46</text></g><g data-circuit-json-type="schematic_component" data-schematic-component-id="schematic_component_12"><rect class="component-overlay" x="735.8116428325968" y="419.06370694065913" width="47.216543228996784" height="13.796100996633129" fill="transparent"/><path d="M 769.1150613815959 425.9350172058333 L 783.0281860615936 425.9350172058333" stroke="rgb(132, 0, 0)" fill="none" stroke-width="1.0716454520560001px" stroke-linecap="round"/><path d="M 735.8116428325968 426.02689472866535 L 749.6501702726769 426.02689472866535" stroke="rgb(132, 0, 0)" fill="none" stroke-width="1.0716454520560001px" stroke-linecap="round"/><path d="M 755.8162145911713 426.026476786939 L 762.9497993642816 426.026476786939" stroke="rgb(132, 0, 0)" fill="none" stroke-width="1.0716454520560001px" stroke-linecap="round"/><path d="M 755.7143921985441 432.74745126987153 L 755.7143921985441 419.2454365764188" stroke="rgb(132, 0, 0)" fill="none" stroke-width="1.0716454520560001px" stroke-linecap="round"/><path d="M 763.0557422336718 432.75261124272316 L 763.0557422336718 419.2505965492705" stroke="rgb(132, 0, 0)" fill="none" stroke-width="1.0716454520560001px" stroke-linecap="round"/><path d="M 763.3046747557299 419.0705011728252 L 763.3046747557299 419.0705011728252 L 764.1419912779231 419.5220310703442 L 764.8952295330861 419.99011784604096 L 765.5672111267817 420.4730475018444 L 766.1607576645732 420.96910603968354 L 766.6786907520236 421.47657946148723 L 767.1238319946958 421.99375376918454 L 767.499002998153 422.5189149647044 L 767.807025367958 423.05034904997575 L 768.050720709674 423.5863420269275 L 768.232910628864 424.12517989748875 L 768.3564167310911 424.66514866358835 L 768.4240606219182 425.2045343271553 L 768.4386639069085 425.74162289011855 L 768.4030481916249 426.27470035440706 L 768.3200350816303 426.8020527219498 L 768.192446182488 427.32196599467574 L 768.0231030997609 427.8327261745138 L 767.8148274390121 428.33261926339304 L 767.5704408058045 428.8199312632423 L 767.2927648057013 429.29294817599066 L 766.9846210442654 429.749956003567 L 766.6488311270598 430.1892407479002 L 766.2882166596477 430.6090884109194 L 765.905599247592 431.0077849945535 L 765.5038004964557 431.3836165007314 L 765.0856420118021 431.73486893138215 L 764.6539453991938 432.05982828843463 L 764.2115322641941 432.35678057381784 L 763.7612242123662 432.6240117894607 L 763.3058428492727 432.85980793729226 L 763.3058428492727 432.85980793729226" stroke="rgb(132, 0, 0)" fill="none" stroke-width="1.0716454520560001px" stroke-linecap="round"/><path d="M 755.4694569140222 419.06370694065913 L 755.4694569140222 419.06370694065913 L 754.632140391829 419.51523683817817 L 753.878902136666 419.9833236138749 L 753.2069205429705 420.4662532696784 L 752.6133740051789 420.9623118075175 L 752.0954409177285 421.46978522932125 L 751.6502996750563 421.98695953701855 L 751.2751286715992 422.5121207325384 L 750.9671063017942 423.0435548178097 L 750.7234109600781 423.5795477947615 L 750.5412210408881 424.1183856653227 L 750.417714938661 424.6583544314223 L 750.3500710478339 425.1977400949893 L 750.3354677628437 425.7348286579525 L 750.3710834781273 426.2679061222411 L 750.4540965881218 426.7952584897838 L 750.5816854872642 427.31517176250975 L 750.7510285699913 427.82593194234784 L 750.95930423074 428.32582503122705 L 751.2036908639476 428.81313703107634 L 751.4813668640509 429.2861539438246 L 751.7895106254869 429.74316177140093 L 752.1253005426923 430.1824465157342 L 752.4859150101045 430.6022941787534 L 752.8685324221601 431.00099076238746 L 753.2703311732964 431.3768222685654 L 753.6884896579501 431.7280746992161 L 754.1201862705583 432.0530340562686 L 754.562599405558 432.3499863416518 L 755.012907457386 432.61721755729474 L 755.4682888204794 432.8530137051263 L 755.4682888204794 432.8530137051263" stroke="rgb(132, 0, 0)" fill="none" stroke-width="1.0716454520560001px" stroke-linecap="round"/><text x="760.5129419050334" y="435.5569989981941" fill="rgb(15, 15, 15)" font-family="sans-serif" text-anchor="middle" dominant-baseline="hanging" font-size="9.644809068504001px">OX44</text></g><g data-circuit-json-type="schematic_component" data-schematic-component-id="schematic_component_13"><rect class="component chip" x="293.24148934906" y="415.26261267158" width="32.14936356168005" height="96.44809068504003" stroke-width="1.0716454520560001px" fill="rgb(255, 255, 194)" stroke="rgb(132, 0, 0)"/><rect class="component-overlay" x="293.24148934906" y="415.26261267158" width="32.14936356168005" height="96.44809068504003" fill="transparent"/><text x="293.24148934906" y="518.6763987949839" fill="#006464" text-anchor="start" dominant-baseline="middle" font-family="sans-serif" font-size="9.644809068504001px" transform="rotate(0, 293.24148934906, 518.6763987949839)"></text><text x="293.24148934906" y="408.296917233216" fill="#006464" text-anchor="start" dominant-baseline="middle" font-family="sans-serif" font-size="9.644809068504001px" transform="rotate(0, 293.24148934906, 408.296917233216)">J3</text><line class="component-pin" x1="345.752116499804" y1="495.63602157578" x2="325.39085291074" y2="495.63602157578" stroke-width="1.0716454520560001px"/><g data-schematic-port-id="source_port_34"><rect x="345.752116499804" y="494.564376123724" width="2.1432909041120003" height="2.1432909041120003" opacity="0"/></g><text class="pin-number" x="336.1073074313" y="494.564376123724" style="font-family: sans-serif;" fill="rgb(169, 0, 0)" text-anchor="middle" dominant-baseline="auto" font-size="8.03734089042px" transform="">1</text><line class="component-pin" x1="345.752116499804" y1="479.56133979493995" x2="325.39085291074" y2="479.56133979493995" stroke-width="1.0716454520560001px"/><g data-schematic-port-id="source_port_35"><rect x="345.752116499804" y="478.489694342884" width="2.1432909041120003" height="2.1432909041120003" opacity="0"/></g><text class="pin-number" x="336.1073074313" y="478.489694342884" style="font-family: sans-serif;" fill="rgb(169, 0, 0)" text-anchor="middle" dominant-baseline="auto" font-size="8.03734089042px" transform="">2</text><line class="component-pin" x1="345.752116499804" y1="463.4866580141" x2="325.39085291074" y2="463.4866580141" stroke-width="1.0716454520560001px"/><g data-schematic-port-id="source_port_36"><rect x="345.752116499804" y="462.415012562044" width="2.1432909041120003" height="2.1432909041120003" opacity="0"/></g><text class="pin-number" x="336.1073074313" y="462.415012562044" style="font-family: sans-serif;" fill="rgb(169, 0, 0)" text-anchor="middle" dominant-baseline="auto" font-size="8.03734089042px" transform="">3</text><line class="component-pin" x1="345.752116499804" y1="447.41197623326" x2="325.39085291074" y2="447.41197623326" stroke-width="1.0716454520560001px"/><g data-schematic-port-id="source_port_37"><rect x="345.752116499804" y="446.34033078120405" width="2.1432909041120003" height="2.1432909041120003" opacity="0"/></g><text class="pin-number" x="336.1073074313" y="446.340330781204" style="font-family: sans-serif;" fill="rgb(169, 0, 0)" text-anchor="middle" dominant-baseline="auto" font-size="8.03734089042px" transform="">4</text><line class="component-pin" x1="345.752116499804" y1="431.33729445242" x2="325.39085291074" y2="431.33729445242" stroke-width="1.0716454520560001px"/><g data-schematic-port-id="source_port_38"><rect x="345.752116499804" y="430.265649000364" width="2.1432909041120003" height="2.1432909041120003" opacity="0"/></g><text class="pin-number" x="336.1073074313" y="430.26564900036396" style="font-family: sans-serif;" fill="rgb(169, 0, 0)" text-anchor="middle" dominant-baseline="auto" font-size="8.03734089042px" transform="">5</text></g><g data-circuit-json-type="schematic_component" data-schematic-component-id="schematic_component_14"><rect class="component chip" x="432.55539811634003" y="383.1132491099" width="75.01518164391996" height="53.5822726028" stroke-width="1.0716454520560001px" fill="rgb(255, 255, 194)" stroke="rgb(132, 0, 0)"/><rect class="component-overlay" x="432.55539811634003" y="383.1132491099" width="75.01518164391996" height="53.5822726028" fill="transparent"/><text x="432.55539811634003" y="443.66121715106397" fill="#006464" text-anchor="start" dominant-baseline="middle" font-family="sans-serif" font-size="9.644809068504001px" transform="rotate(0, 432.55539811634003, 443.66121715106397)">QWIIC_RIGHT_ANGLE</text><text x="432.55539811634003" y="376.147553671536" fill="#006464" text-anchor="start" dominant-baseline="middle" font-family="sans-serif" font-size="9.644809068504001px" transform="rotate(0, 432.55539811634003, 376.147553671536)">J2</text><line class="component-pin" x1="527.931843349324" y1="393.82970363045996" x2="507.57057976026" y2="393.82970363045996" stroke-width="1.0716454520560001px"/><g data-schematic-port-id="source_port_39"><rect x="527.931843349324" y="392.758058178404" width="2.1432909041120003" height="2.1432909041120003" opacity="0"/></g><text class="pin-number" x="518.28703428082" y="392.758058178404" style="font-family: sans-serif;" fill="rgb(169, 0, 0)" text-anchor="middle" dominant-baseline="auto" font-size="8.03734089042px" transform="">4</text><text class="pin-number" x="502.21235249998006" y="393.82970363045996" style="font-family: sans-serif;" fill="rgb(169, 0, 0)" text-anchor="end" dominant-baseline="middle" font-size="8.03734089042px" transform="">SCL</text><line class="component-pin" x1="527.931843349324" y1="404.54615815102" x2="507.57057976026" y2="404.54615815102" stroke-width="1.0716454520560001px"/><g data-schematic-port-id="source_port_40"><rect x="527.931843349324" y="403.474512698964" width="2.1432909041120003" height="2.1432909041120003" opacity="0"/></g><text class="pin-number" x="518.28703428082" y="403.47451269896396" style="font-family: sans-serif;" fill="rgb(169, 0, 0)" text-anchor="middle" dominant-baseline="auto" font-size="8.03734089042px" transform="">3</text><text class="pin-number" x="502.21235249998006" y="404.54615815102" style="font-family: sans-serif;" fill="rgb(169, 0, 0)" text-anchor="end" dominant-baseline="middle" font-size="8.03734089042px" transform="">SDA</text><line class="component-pin" x1="527.931843349324" y1="415.26261267158" x2="507.57057976026" y2="415.26261267158" stroke-width="1.0716454520560001px"/><g data-schematic-port-id="source_port_41"><rect x="527.931843349324" y="414.190967219524" width="2.1432909041120003" height="2.1432909041120003" opacity="0"/></g><text class="pin-number" x="518.28703428082" y="414.190967219524" style="font-family: sans-serif;" fill="rgb(169, 0, 0)" text-anchor="middle" dominant-baseline="auto" font-size="8.03734089042px" transform="">2</text><text class="pin-number" x="502.21235249998006" y="415.26261267158" style="font-family: sans-serif;" fill="rgb(169, 0, 0)" text-anchor="end" dominant-baseline="middle" font-size="8.03734089042px" transform="">VCC</text><line class="component-pin" x1="527.931843349324" y1="425.97906719214" x2="507.57057976026" y2="425.97906719214" stroke-width="1.0716454520560001px"/><g data-schematic-port-id="source_port_42"><rect x="527.931843349324" y="424.90742174008403" width="2.1432909041120003" height="2.1432909041120003" opacity="0"/></g><text class="pin-number" x="518.28703428082" y="424.907421740084" style="font-family: sans-serif;" fill="rgb(169, 0, 0)" text-anchor="middle" dominant-baseline="auto" font-size="8.03734089042px" transform="">1</text><text class="pin-number" x="502.21235249998006" y="425.97906719214" style="font-family: sans-serif;" fill="rgb(169, 0, 0)" text-anchor="end" dominant-baseline="middle" font-size="8.03734089042px" transform="">GND</text></g><g data-circuit-json-type="schematic_component" data-schematic-component-id="schematic_component_15"><rect class="component chip" x="432.55539811634003" y="476.8822261648" width="75.01518164391996" height="80.37340890419995" stroke-width="1.0716454520560001px" fill="rgb(255, 255, 194)" stroke="rgb(132, 0, 0)"/><rect class="component-overlay" x="432.55539811634003" y="476.8822261648" width="75.01518164391996" height="80.37340890419995" fill="transparent"/><text x="432.55539811634003" y="564.221330507364" fill="#006464" text-anchor="start" dominant-baseline="middle" font-family="sans-serif" font-size="9.644809068504001px" transform="rotate(0, 432.55539811634003, 564.221330507364)">QWIIC_RIGHT_ANGLE</text><text x="432.55539811634003" y="469.916530726436" fill="#006464" text-anchor="start" dominant-baseline="middle" font-family="sans-serif" font-size="9.644809068504001px" transform="rotate(0, 432.55539811634003, 469.916530726436)">J1</text><line class="component-pin" x1="527.931843349324" y1="492.95690794563995" x2="507.57057976026" y2="492.95690794563995" stroke-width="1.0716454520560001px"/><g data-schematic-port-id="source_port_43"><rect x="527.931843349324" y="491.885262493584" width="2.1432909041120003" height="2.1432909041120003" opacity="0"/></g><text class="pin-number" x="518.28703428082" y="491.885262493584" style="font-family: sans-serif;" fill="rgb(169, 0, 0)" text-anchor="middle" dominant-baseline="auto" font-size="8.03734089042px" transform="">4</text><text class="pin-number" x="502.21235249998006" y="492.95690794563995" style="font-family: sans-serif;" fill="rgb(169, 0, 0)" text-anchor="end" dominant-baseline="middle" font-size="8.03734089042px" transform="">SCL</text><line class="component-pin" x1="527.931843349324" y1="509.03158972648" x2="507.57057976026" y2="509.03158972648" stroke-width="1.0716454520560001px"/><g data-schematic-port-id="source_port_44"><rect x="527.931843349324" y="507.959944274424" width="2.1432909041120003" height="2.1432909041120003" opacity="0"/></g><text class="pin-number" x="518.28703428082" y="507.959944274424" style="font-family: sans-serif;" fill="rgb(169, 0, 0)" text-anchor="middle" dominant-baseline="auto" font-size="8.03734089042px" transform="">3</text><text class="pin-number" x="502.21235249998006" y="509.03158972648" style="font-family: sans-serif;" fill="rgb(169, 0, 0)" text-anchor="end" dominant-baseline="middle" font-size="8.03734089042px" transform="">SDA</text><line class="component-pin" x1="527.931843349324" y1="525.10627150732" x2="507.57057976026" y2="525.10627150732" stroke-width="1.0716454520560001px"/><g data-schematic-port-id="source_port_45"><rect x="527.931843349324" y="524.034626055264" width="2.1432909041120003" height="2.1432909041120003" opacity="0"/></g><text class="pin-number" x="518.28703428082" y="524.034626055264" style="font-family: sans-serif;" fill="rgb(169, 0, 0)" text-anchor="middle" dominant-baseline="auto" font-size="8.03734089042px" transform="">2</text><text class="pin-number" x="502.21235249998006" y="525.10627150732" style="font-family: sans-serif;" fill="rgb(169, 0, 0)" text-anchor="end" dominant-baseline="middle" font-size="8.03734089042px" transform="">VCC</text><line class="component-pin" x1="527.931843349324" y1="541.18095328816" x2="507.57057976026" y2="541.18095328816" stroke-width="1.0716454520560001px"/><g data-schematic-port-id="source_port_46"><rect x="527.931843349324" y="540.109307836104" width="2.1432909041120003" height="2.1432909041120003" opacity="0"/></g><text class="pin-number" x="518.28703428082" y="540.109307836104" style="font-family: sans-serif;" fill="rgb(169, 0, 0)" text-anchor="middle" dominant-baseline="auto" font-size="8.03734089042px" transform="">1</text><text class="pin-number" x="502.21235249998006" y="541.18095328816" style="font-family: sans-serif;" fill="rgb(169, 0, 0)" text-anchor="end" dominant-baseline="middle" font-size="8.03734089042px" transform="">GND</text></g><g class="trace" data-circuit-json-type="schematic_trace" data-schematic-trace-id="schematic_trace_0"><path d="M 408.44337544508 281.30693116457996 L 389.6895800341 281.30693116457996" class="trace-invisible-hover-outline" stroke="rgb(0, 150, 0)" fill="none" stroke-width="8.573163616448001px" stroke-linecap="round" opacity="0" stroke-linejoin="round"/><path d="M 408.44337544508 281.30693116457996 L 389.6895800341 281.30693116457996" stroke="rgb(0, 150, 0)" fill="none" stroke-width="1.0716454520560001px" stroke-linecap="round" stroke-linejoin="round"/></g><g class="trace" data-circuit-json-type="schematic_trace" data-schematic-trace-id="schematic_trace_1"><path d="M 408.44337544508 217.00820404121995 L 389.6895800341 217.00820404121995" class="trace-invisible-hover-outline" stroke="rgb(0, 150, 0)" fill="none" stroke-width="8.573163616448001px" stroke-linecap="round" opacity="0" stroke-linejoin="round"/><path d="M 408.44337544508 217.00820404121995 L 389.6895800341 217.00820404121995" stroke="rgb(0, 150, 0)" fill="none" stroke-width="1.0716454520560001px" stroke-linecap="round" stroke-linejoin="round"/></g><g class="trace" data-circuit-json-type="schematic_trace" data-schematic-trace-id="schematic_trace_2"><path d="M 767.6696045629537 93.84736098069357 L 767.8591264007066 93.84736098069357 L 767.8591264007066 101.73715930595151 L 768.0486482384595 101.73715930595151" class="trace-invisible-hover-outline" stroke="rgb(0, 150, 0)" fill="none" stroke-width="8.573163616448001px" stroke-linecap="round" opacity="0" stroke-linejoin="round"/><path d="M 767.6696045629537 93.84736098069357 L 767.8591264007066 93.84736098069357 L 767.8591264007066 101.73715930595151 L 768.0486482384595 101.73715930595151" stroke="rgb(0, 150, 0)" fill="none" stroke-width="1.0716454520560001px" stroke-linecap="round" stroke-linejoin="round"/></g><g class="trace" data-circuit-json-type="schematic_trace" data-schematic-trace-id="schematic_trace_3"><path d="M 815.4436445472463 93.8540266154053 L 815.2687640654822 93.8540266154053 L 815.2687640654822 101.73715930595151 L 815.0938835837179 101.73715930595151" class="trace-invisible-hover-outline" stroke="rgb(0, 150, 0)" fill="none" stroke-width="8.573163616448001px" stroke-linecap="round" opacity="0" stroke-linejoin="round"/><path d="M 815.4436445472463 93.8540266154053 L 815.2687640654822 93.8540266154053 L 815.2687640654822 101.73715930595151 L 815.0938835837179 101.73715930595151" stroke="rgb(0, 150, 0)" fill="none" stroke-width="1.0716454520560001px" stroke-linecap="round" stroke-linejoin="round"/></g><g class="trace" data-circuit-json-type="schematic_trace" data-schematic-trace-id="schematic_trace_4"><path d="M 815.0646008717406 160.8159764475284 L 845.1388971579 160.8159764475284 L 845.1388971579 160.74681780827999" class="trace-invisible-hover-outline" stroke="rgb(0, 150, 0)" fill="none" stroke-width="8.573163616448001px" stroke-linecap="round" opacity="0" stroke-linejoin="round"/><path d="M 815.0646008717406 160.8159764475284 L 845.1388971579 160.8159764475284 L 845.1388971579 160.74681780827999" stroke="rgb(0, 150, 0)" fill="none" stroke-width="1.0716454520560001px" stroke-linecap="round" stroke-linejoin="round"/></g><g class="trace" data-circuit-json-type="schematic_trace" data-schematic-trace-id="schematic_trace_5"><path d="M 768.0193655264821 160.8159764475284 L 845.1388971579 160.8159764475284 L 845.1388971579 195.57529500009997" class="trace-invisible-hover-outline" stroke="rgb(0, 150, 0)" fill="none" stroke-width="8.573163616448001px" stroke-linecap="round" opacity="0" stroke-linejoin="round"/><path d="M 768.0193655264821 160.8159764475284 L 845.1388971579 160.8159764475284 L 845.1388971579 195.57529500009997" stroke="rgb(0, 150, 0)" fill="none" stroke-width="1.0716454520560001px" stroke-linecap="round" stroke-linejoin="round"/></g><g class="trace" data-circuit-json-type="schematic_trace" data-schematic-trace-id="schematic_trace_6"><path d="M 925.7498309183211 123.97816403310338 L 925.6237478122162 123.97816403310338 L 925.6237478122162 117.95015836528839 L 925.4976647061113 117.95015836528839" class="trace-invisible-hover-outline" stroke="rgb(0, 150, 0)" fill="none" stroke-width="8.573163616448001px" stroke-linecap="round" opacity="0" stroke-linejoin="round"/><path d="M 925.7498309183211 123.97816403310338 L 925.6237478122162 123.97816403310338 L 925.6237478122162 117.95015836528839 L 925.4976647061113 117.95015836528839" stroke="rgb(0, 150, 0)" fill="none" stroke-width="1.0716454520560001px" stroke-linecap="round" stroke-linejoin="round"/></g><g class="trace" data-circuit-json-type="schematic_trace" data-schematic-trace-id="schematic_trace_7"><path d="M 925.515638879456 182.40472952851366 L 925.6448846792013 182.40472952851366 L 925.6448846792013 181.44078980261654 L 925.7741304789465 181.44078980261654" class="trace-invisible-hover-outline" stroke="rgb(0, 150, 0)" fill="none" stroke-width="8.573163616448001px" stroke-linecap="round" opacity="0" stroke-linejoin="round"/><path d="M 925.515638879456 182.40472952851366 L 925.6448846792013 182.40472952851366 L 925.6448846792013 181.44078980261654 L 925.7741304789465 181.44078980261654" stroke="rgb(0, 150, 0)" fill="none" stroke-width="1.0716454520560001px" stroke-linecap="round" stroke-linejoin="round"/></g><g class="trace" data-circuit-json-type="schematic_trace" data-schematic-trace-id="schematic_trace_8"><path d="M 791.5419831991114 332.27924877648843 L 787.4181320923389 332.27924877648843 L 787.4181320923389 350.4313956395479 L 783.2942809855663 350.4313956395479" class="trace-invisible-hover-outline" stroke="rgb(0, 150, 0)" fill="none" stroke-width="8.573163616448001px" stroke-linecap="round" opacity="0" stroke-linejoin="round"/><path d="M 791.5419831991114 332.27924877648843 L 787.4181320923389 332.27924877648843 L 787.4181320923389 350.4313956395479 L 783.2942809855663 350.4313956395479" stroke="rgb(0, 150, 0)" fill="none" stroke-width="1.0716454520560001px" stroke-linecap="round" stroke-linejoin="round"/></g><g class="trace" data-circuit-json-type="schematic_trace" data-schematic-trace-id="schematic_trace_9"><path d="M 783.2942809855663 425.9824000094959 L 823.70598811678 425.9824000094959 L 823.70598811678 425.97906719214" class="trace-invisible-hover-outline" stroke="rgb(0, 150, 0)" fill="none" stroke-width="8.573163616448001px" stroke-linecap="round" opacity="0" stroke-linejoin="round"/><path d="M 783.2942809855663 425.9824000094959 L 823.70598811678 425.9824000094959 L 823.70598811678 425.97906719214" stroke="rgb(0, 150, 0)" fill="none" stroke-width="1.0716454520560001px" stroke-linecap="round" stroke-linejoin="round"/></g><g class="trace" data-circuit-json-type="schematic_trace" data-schematic-trace-id="schematic_trace_10"><path d="M 735.5202410012737 425.9757343747841 L 721.89967017146 425.9757343747841 L 721.89967017146 425.97906719214" class="trace-invisible-hover-outline" stroke="rgb(0, 150, 0)" fill="none" stroke-width="8.573163616448001px" stroke-linecap="round" opacity="0" stroke-linejoin="round"/><path d="M 735.5202410012737 425.9757343747841 L 721.89967017146 425.9757343747841 L 721.89967017146 425.97906719214" stroke="rgb(0, 150, 0)" fill="none" stroke-width="1.0716454520560001px" stroke-linecap="round" stroke-linejoin="round"/></g><g class="trace" data-circuit-json-type="schematic_trace" data-schematic-trace-id="schematic_trace_11"><path d="M 735.5202410012737 350.4247300048361 L 721.89967017146 350.4247300048361 L 721.89967017146 425.97906719214" class="trace-invisible-hover-outline" stroke="rgb(0, 150, 0)" fill="none" stroke-width="8.573163616448001px" stroke-linecap="round" opacity="0" stroke-linejoin="round"/><path d="M 735.5202410012737 350.4247300048361 L 721.89967017146 350.4247300048361 L 721.89967017146 425.97906719214" stroke="rgb(0, 150, 0)" fill="none" stroke-width="1.0716454520560001px" stroke-linecap="round" stroke-linejoin="round"/></g><g class="trace" data-circuit-json-type="schematic_trace" data-schematic-trace-id="schematic_trace_12"><path d="M 735.5202410012737 388.4681435528241 L 721.89967017146 388.4681435528241 L 721.89967017146 425.97906719214" class="trace-invisible-hover-outline" stroke="rgb(0, 150, 0)" fill="none" stroke-width="8.573163616448001px" stroke-linecap="round" opacity="0" stroke-linejoin="round"/><path d="M 735.5202410012737 388.4681435528241 L 721.89967017146 388.4681435528241 L 721.89967017146 425.97906719214" stroke="rgb(0, 150, 0)" fill="none" stroke-width="1.0716454520560001px" stroke-linecap="round" stroke-linejoin="round"/></g><g class="trace" data-circuit-json-type="schematic_trace" data-schematic-trace-id="schematic_trace_13"><path d="M 346.82376195186 431.33729445242 L 346.82376195186004 431.33729445242" class="trace-invisible-hover-outline" stroke="rgb(0, 150, 0)" fill="none" stroke-width="8.573163616448001px" stroke-linecap="round" opacity="0" stroke-linejoin="round"/><path d="M 346.82376195186 431.33729445242 L 346.82376195186004 431.33729445242" stroke="rgb(0, 150, 0)" fill="none" stroke-width="1.0716454520560001px" stroke-linecap="round" stroke-linejoin="round"/></g><g class="trace" data-circuit-json-type="schematic_trace" data-schematic-trace-id="schematic_trace_14"><path d="M 346.82376195186 447.41197623326 L 346.82376195186004 447.41197623326" class="trace-invisible-hover-outline" stroke="rgb(0, 150, 0)" fill="none" stroke-width="8.573163616448001px" stroke-linecap="round" opacity="0" stroke-linejoin="round"/><path d="M 346.82376195186 447.41197623326 L 346.82376195186004 447.41197623326" stroke="rgb(0, 150, 0)" fill="none" stroke-width="1.0716454520560001px" stroke-linecap="round" stroke-linejoin="round"/></g><g class="trace" data-circuit-json-type="schematic_trace" data-schematic-trace-id="schematic_trace_15"><path d="M 346.82376195186 463.4866580141 L 346.82376195186004 463.4866580141" class="trace-invisible-hover-outline" stroke="rgb(0, 150, 0)" fill="none" stroke-width="8.573163616448001px" stroke-linecap="round" opacity="0" stroke-linejoin="round"/><path d="M 346.82376195186 463.4866580141 L 346.82376195186004 463.4866580141" stroke="rgb(0, 150, 0)" fill="none" stroke-width="1.0716454520560001px" stroke-linecap="round" stroke-linejoin="round"/></g><g class="trace" data-circuit-json-type="schematic_trace" data-schematic-trace-id="schematic_trace_16"><path d="M 346.82376195186 479.56133979493995 L 362.8984437327 479.56133979493995 L 362.8984437327 409.9043854113" class="trace-invisible-hover-outline" stroke="rgb(0, 150, 0)" fill="none" stroke-width="8.573163616448001px" stroke-linecap="round" opacity="0" stroke-linejoin="round"/><path d="M 346.82376195186 479.56133979493995 L 362.8984437327 479.56133979493995 L 362.8984437327 409.9043854113" stroke="rgb(0, 150, 0)" fill="none" stroke-width="1.0716454520560001px" stroke-linecap="round" stroke-linejoin="round"/></g><g class="trace" data-circuit-json-type="schematic_trace" data-schematic-trace-id="schematic_trace_17"><path d="M 346.82376195186 495.63602157578 L 362.8984437327 495.63602157578 L 362.8984437327 517.0689306168999" class="trace-invisible-hover-outline" stroke="rgb(0, 150, 0)" fill="none" stroke-width="8.573163616448001px" stroke-linecap="round" opacity="0" stroke-linejoin="round"/><path d="M 346.82376195186 495.63602157578 L 362.8984437327 495.63602157578 L 362.8984437327 517.0689306168999" stroke="rgb(0, 150, 0)" fill="none" stroke-width="1.0716454520560001px" stroke-linecap="round" stroke-linejoin="round"/></g><g class="trace" data-circuit-json-type="schematic_trace" data-schematic-trace-id="schematic_trace_18"><path d="M 529.0034888013801 541.18095328816 L 550.4363978425 541.18095328816 L 550.4363978425 543.8600669182999" class="trace-invisible-hover-outline" stroke="rgb(0, 150, 0)" fill="none" stroke-width="8.573163616448001px" stroke-linecap="round" opacity="0" stroke-linejoin="round"/><path d="M 529.0034888013801 541.18095328816 L 550.4363978425 541.18095328816 L 550.4363978425 543.8600669182999" stroke="rgb(0, 150, 0)" fill="none" stroke-width="1.0716454520560001px" stroke-linecap="round" stroke-linejoin="round"/></g><g class="trace" data-circuit-json-type="schematic_trace" data-schematic-trace-id="schematic_trace_19"><path d="M 529.0034888013801 425.97906719214 L 550.4363978425 425.97906719214 L 550.4363978425 543.8600669182999" class="trace-invisible-hover-outline" stroke="rgb(0, 150, 0)" fill="none" stroke-width="8.573163616448001px" stroke-linecap="round" opacity="0" stroke-linejoin="round"/><path d="M 529.0034888013801 425.97906719214 L 550.4363978425 425.97906719214 L 550.4363978425 543.8600669182999" stroke="rgb(0, 150, 0)" fill="none" stroke-width="1.0716454520560001px" stroke-linecap="round" stroke-linejoin="round"/></g><g class="trace" data-circuit-json-type="schematic_trace" data-schematic-trace-id="schematic_trace_20"><path d="M 529.0034888013801 525.10627150732 L 550.4363978425 525.10627150732 L 550.4363978425 356.3221128085" class="trace-invisible-hover-outline" stroke="rgb(0, 150, 0)" fill="none" stroke-width="8.573163616448001px" stroke-linecap="round" opacity="0" stroke-linejoin="round"/><path d="M 529.0034888013801 525.10627150732 L 550.4363978425 525.10627150732 L 550.4363978425 356.3221128085" stroke="rgb(0, 150, 0)" fill="none" stroke-width="1.0716454520560001px" stroke-linecap="round" stroke-linejoin="round"/></g><g class="trace" data-circuit-json-type="schematic_trace" data-schematic-trace-id="schematic_trace_21"><path d="M 529.0034888013801 415.26261267158 L 550.4363978425 415.26261267158 L 550.4363978425 356.3221128085" class="trace-invisible-hover-outline" stroke="rgb(0, 150, 0)" fill="none" stroke-width="8.573163616448001px" stroke-linecap="round" opacity="0" stroke-linejoin="round"/><path d="M 529.0034888013801 415.26261267158 L 550.4363978425 415.26261267158 L 550.4363978425 356.3221128085" stroke="rgb(0, 150, 0)" fill="none" stroke-width="1.0716454520560001px" stroke-linecap="round" stroke-linejoin="round"/></g><g class="schematic-port-hover" data-schematic-port-id="source_port_0"><circle cx="408.44337544508" cy="217.00820404121995" r="2.1432909041120003" fill="red" opacity="0"/></g><g class="schematic-port-hover" data-schematic-port-id="source_port_1"><circle cx="531.68260243152" cy="226.38510174670998" r="2.1432909041120003" fill="red" opacity="0"/></g><g class="schematic-port-hover" data-schematic-port-id="source_port_3"><circle cx="408.44337544508" cy="281.30693116457996" r="2.1432909041120003" fill="red" opacity="0"/></g><g class="schematic-port-hover" data-schematic-port-id="source_port_4"><circle cx="531.68260243152" cy="282.64648797965" r="2.1432909041120003" fill="red" opacity="0"/></g><g class="schematic-port-hover" data-schematic-port-id="source_port_6"><circle cx="531.68260243152" cy="215.66864722614997" r="2.1432909041120003" fill="red" opacity="0"/></g><g class="schematic-port-hover" data-schematic-port-id="source_port_7"><circle cx="531.68260243152" cy="271.93003345909" r="2.1432909041120003" fill="red" opacity="0"/></g><g class="schematic-port-hover" data-schematic-port-id="source_port_8"><circle cx="523.6599028970887" cy="123.17006834707155" r="2.1432909041120003" fill="red" opacity="0"/></g><g class="schematic-port-hover" data-schematic-port-id="source_port_9"><circle cx="523.6306201851113" cy="182.24888548864843" r="2.1432909041120003" fill="red" opacity="0"/></g><g class="schematic-port-hover" data-schematic-port-id="source_port_10"><circle cx="336.12195414551593" cy="278.6926145766986" r="2.1432909041120003" fill="red" opacity="0"/></g><g class="schematic-port-hover" data-schematic-port-id="source_port_11"><circle cx="336.0926607170841" cy="219.62252062910142" r="2.1432909041120003" fill="red" opacity="0"/></g><g class="schematic-port-hover" data-schematic-port-id="source_port_12"><circle cx="815.4436445472463" cy="93.8540266154053" r="2.1432909041120003" fill="red" opacity="0"/></g><g class="schematic-port-hover" data-schematic-port-id="source_port_13"><circle cx="791.7437767168472" cy="74.87591973662825" r="2.1432909041120003" fill="red" opacity="0"/></g><g class="schematic-port-hover" data-schematic-port-id="source_port_14"><circle cx="767.6696045629537" cy="93.84736098069357" r="2.1432909041120003" fill="red" opacity="0"/></g><g class="schematic-port-hover" data-schematic-port-id="source_port_15"><circle cx="768.0193655264821" cy="160.8159764475284" r="2.1432909041120003" fill="red" opacity="0"/></g><g class="schematic-port-hover" data-schematic-port-id="source_port_16"><circle cx="768.0486482384595" cy="101.73715930595151" r="2.1432909041120003" fill="red" opacity="0"/></g><g class="schematic-port-hover" data-schematic-port-id="source_port_17"><circle cx="815.0646008717406" cy="160.8159764475284" r="2.1432909041120003" fill="red" opacity="0"/></g><g class="schematic-port-hover" data-schematic-port-id="source_port_18"><circle cx="815.0938835837179" cy="101.73715930595151" r="2.1432909041120003" fill="red" opacity="0"/></g><g class="schematic-port-hover" data-schematic-port-id="source_port_19"><circle cx="925.4976647061113" cy="117.95015836528839" r="2.1432909041120003" fill="red" opacity="0"/></g><g class="schematic-port-hover" data-schematic-port-id="source_port_20"><circle cx="925.5269474180888" cy="58.87134122371151" r="2.1432909041120003" fill="red" opacity="0"/></g><g class="schematic-port-hover" data-schematic-port-id="source_port_21"><circle cx="925.7498309183211" cy="123.97816403310338" r="2.1432909041120003" fill="red" opacity="0"/></g><g class="schematic-port-hover" data-schematic-port-id="source_port_22"><circle cx="925.7741304789465" cy="181.44078980261654" r="2.1432909041120003" fill="red" opacity="0"/></g><g class="schematic-port-hover" data-schematic-port-id="source_port_24"><circle cx="925.5089732447441" cy="230.1787695128063" r="2.1432909041120003" fill="red" opacity="0"/></g><g class="schematic-port-hover" data-schematic-port-id="source_port_25"><circle cx="925.515638879456" cy="182.40472952851366" r="2.1432909041120003" fill="red" opacity="0"/></g><g class="schematic-port-hover" data-schematic-port-id="source_port_26"><circle cx="791.5419831991114" cy="332.27924877648843" r="2.1432909041120003" fill="red" opacity="0"/></g><g class="schematic-port-hover" data-schematic-port-id="source_port_27"><circle cx="791.5712659110886" cy="273.2004316349115" r="2.1432909041120003" fill="red" opacity="0"/></g><g class="schematic-port-hover" data-schematic-port-id="source_port_28"><circle cx="783.2942809855663" cy="350.4313956395479" r="2.1432909041120003" fill="red" opacity="0"/></g><g class="schematic-port-hover" data-schematic-port-id="source_port_29"><circle cx="735.5202410012737" cy="350.4247300048361" r="2.1432909041120003" fill="red" opacity="0"/></g><g class="schematic-port-hover" data-schematic-port-id="source_port_30"><circle cx="783.2942809855663" cy="388.47480918753587" r="2.1432909041120003" fill="red" opacity="0"/></g><g class="schematic-port-hover" data-schematic-port-id="source_port_31"><circle cx="735.5202410012737" cy="388.4681435528241" r="2.1432909041120003" fill="red" opacity="0"/></g><g class="schematic-port-hover" data-schematic-port-id="source_port_32"><circle cx="783.2942809855663" cy="425.9824000094959" r="2.1432909041120003" fill="red" opacity="0"/></g><g class="schematic-port-hover" data-schematic-port-id="source_port_33"><circle cx="735.5202410012737" cy="425.9757343747841" r="2.1432909041120003" fill="red" opacity="0"/></g><g class="schematic-port-hover" data-schematic-port-id="source_port_34"><circle cx="346.82376195186" cy="495.63602157578" r="2.1432909041120003" fill="red" opacity="0"/></g><g class="schematic-port-hover" data-schematic-port-id="source_port_35"><circle cx="346.82376195186" cy="479.56133979493995" r="2.1432909041120003" fill="red" opacity="0"/></g><g class="schematic-port-hover" data-schematic-port-id="source_port_36"><circle cx="346.82376195186" cy="463.4866580141" r="2.1432909041120003" fill="red" opacity="0"/></g><g class="schematic-port-hover" data-schematic-port-id="source_port_37"><circle cx="346.82376195186" cy="447.41197623326" r="2.1432909041120003" fill="red" opacity="0"/></g><g class="schematic-port-hover" data-schematic-port-id="source_port_38"><circle cx="346.82376195186" cy="431.33729445242" r="2.1432909041120003" fill="red" opacity="0"/></g><g class="schematic-port-hover" data-schematic-port-id="source_port_39"><circle cx="529.0034888013801" cy="393.82970363045996" r="2.1432909041120003" fill="red" opacity="0"/></g><g class="schematic-port-hover" data-schematic-port-id="source_port_40"><circle cx="529.0034888013801" cy="404.54615815102" r="2.1432909041120003" fill="red" opacity="0"/></g><g class="schematic-port-hover" data-schematic-port-id="source_port_41"><circle cx="529.0034888013801" cy="415.26261267158" r="2.1432909041120003" fill="red" opacity="0"/></g><g class="schematic-port-hover" data-schematic-port-id="source_port_42"><circle cx="529.0034888013801" cy="425.97906719214" r="2.1432909041120003" fill="red" opacity="0"/></g><g class="schematic-port-hover" data-schematic-port-id="source_port_43"><circle cx="529.0034888013801" cy="492.95690794563995" r="2.1432909041120003" fill="red" opacity="0"/></g><g class="schematic-port-hover" data-schematic-port-id="source_port_44"><circle cx="529.0034888013801" cy="509.03158972648" r="2.1432909041120003" fill="red" opacity="0"/></g><g class="schematic-port-hover" data-schematic-port-id="source_port_45"><circle cx="529.0034888013801" cy="525.10627150732" r="2.1432909041120003" fill="red" opacity="0"/></g><g class="schematic-port-hover" data-schematic-port-id="source_port_46"><circle cx="529.0034888013801" cy="541.18095328816" r="2.1432909041120003" fill="red" opacity="0"/></g><rect class="component-overlay" x="377.35279759003134" y="281.24887477221483" width="24.075656382844443" height="25.90324589500807" fill="transparent"/><path d="M 389.63137896959887 281.24887477221483 L 389.63137896959887 298.9113814700026" stroke="rgb(132, 0, 0)" fill="none" stroke-width="1.0716454520560001px" stroke-linecap="round"/><path d="M 377.35279759003134 298.90962397146126 L 401.4284539728758 298.90962397146126" stroke="rgb(132, 0, 0)" fill="none" stroke-width="1.0716454520560001px" stroke-linecap="round"/><path d="M 380.3622566472221 303.0308723193421 L 398.41899491568495 303.0308723193421" stroke="rgb(132, 0, 0)" fill="none" stroke-width="1.0716454520560001px" stroke-linecap="round"/><path d="M 386.3811694033765 307.1521206672229 L 392.40008215953077 307.1521206672229" stroke="rgb(132, 0, 0)" fill="none" stroke-width="1.0716454520560001px" stroke-linecap="round"/><text x="388.47747401264303" y="313.42826048123413" fill="rgb(15, 15, 15)" font-family="sans-serif" text-anchor="middle" dominant-baseline="hanging" font-size="9.644809068504001px">GND</text><rect class="component-overlay" x="384.6857727159512" y="194.26207923024148" width="9.927696676710411" height="21.945257373520747" fill="transparent"/><path d="M 389.57119536101146 194.26207923024148 L 384.6857727159512 204.5000815640493" stroke="rgb(132, 0, 0)" fill="none" stroke-width="1.0716454520560001px" stroke-linecap="round"/><path d="M 389.7280467476015 194.2674160245927 L 394.6134693926616 204.50544514953685" stroke="rgb(132, 0, 0)" fill="none" stroke-width="1.0716454520560001px" stroke-linecap="round"/><path d="M 389.6277300168346 194.53222497402305 L 389.6277300168346 216.20733660376223" stroke="rgb(132, 0, 0)" fill="none" stroke-width="1.0716454520560001px" stroke-linecap="round"/><text x="389.3880618697095" y="191.12209375699032" fill="rgb(15, 15, 15)" font-family="sans-serif" text-anchor="middle" dominant-baseline="ideographic" font-size="9.644809068504001px">V3_3</text><path class="net-label" d="
    M 845.1388971579,160.74681780827999
    L 848.0323398784512,154.95993236717757
    L 873.0588333354657,154.95993236717757
    L 873.0588333354657,166.5337032493824
    L 848.0323398784512,166.5337032493824
    Z
  " fill="rgba(255, 255, 255, 0.6)" stroke="rgb(132, 0, 0)" stroke-width="1.0716454520560001px"/><text class="net-label-text" x="849.961301692152" y="160.74681780827999" fill="rgb(132, 0, 0)" text-anchor="start" dominant-baseline="central" font-family="sans-serif" font-variant-numeric="tabular-nums" font-size="9.644809068504001px" transform="">SDA</text><path class="net-label" d="
    M 845.1388971579,195.57529500009997
    L 848.0323398784512,189.78840955899756
    L 871.9871878834097,189.78840955899756
    L 871.9871878834097,201.36218044120238
    L 848.0323398784512,201.36218044120238
    Z
  " fill="rgba(255, 255, 255, 0.6)" stroke="rgb(132, 0, 0)" stroke-width="1.0716454520560001px"/><text class="net-label-text" x="849.961301692152" y="195.57529500009997" fill="rgb(132, 0, 0)" text-anchor="start" dominant-baseline="central" font-family="sans-serif" font-variant-numeric="tabular-nums" font-size="9.644809068504001px" transform="">SCL</text><rect class="component-overlay" x="811.3692056727112" y="425.9210107997749" width="24.0756563828445" height="25.90324589500807" fill="transparent"/><path d="M 823.6477870522789 425.9210107997749 L 823.6477870522789 443.58351749756264" stroke="rgb(132, 0, 0)" fill="none" stroke-width="1.0716454520560001px" stroke-linecap="round"/><path d="M 811.3692056727112 443.5817599990213 L 835.4448620555557 443.5817599990213" stroke="rgb(132, 0, 0)" fill="none" stroke-width="1.0716454520560001px" stroke-linecap="round"/><path d="M 814.3786647299021 447.70300834690215 L 832.4354029983649 447.70300834690215" stroke="rgb(132, 0, 0)" fill="none" stroke-width="1.0716454520560001px" stroke-linecap="round"/><path d="M 820.3975774860564 451.82425669478295 L 826.4164902422107 451.82425669478295" stroke="rgb(132, 0, 0)" fill="none" stroke-width="1.0716454520560001px" stroke-linecap="round"/><text x="822.493882095323" y="458.10039650879423" fill="rgb(15, 15, 15)" font-family="sans-serif" text-anchor="middle" dominant-baseline="hanging" font-size="9.644809068504001px">GND</text><path class="net-label" d="
    M 721.89967017146,425.97906719214
    L 719.0062274509088,431.7659526332424
    L 686.9711727374481,431.7659526332424
    L 686.9711727374481,420.1921817510376
    L 719.0062274509088,420.1921817510376
    Z
  " fill="rgba(255, 255, 255, 0.6)" stroke="rgb(132, 0, 0)" stroke-width="1.0716454520560001px"/><text class="net-label-text" x="717.077265637208" y="425.97906719214" fill="rgb(132, 0, 0)" text-anchor="end" dominant-baseline="central" font-family="sans-serif" font-variant-numeric="tabular-nums" font-size="9.644809068504001px" transform="">ADDR</text><path class="net-label" d="
    M 346.82376195186004,431.33729445242
    L 349.71720467241124,425.5504090113176
    L 371.17154662257235,425.5504090113176
    L 371.17154662257235,437.1241798935224
    L 349.71720467241124,437.1241798935224
    Z
  " fill="rgba(255, 255, 255, 0.6)" stroke="rgb(132, 0, 0)" stroke-width="1.0716454520560001px"/><text class="net-label-text" x="351.646166486112" y="431.33729445242" fill="rgb(132, 0, 0)" text-anchor="start" dominant-baseline="central" font-family="sans-serif" font-variant-numeric="tabular-nums" font-size="9.644809068504001px" transform="">INT</text><path class="net-label" d="
    M 346.82376195186004,447.41197623326
    L 349.71720467241124,441.6250907921576
    L 373.67205267736966,441.6250907921576
    L 373.67205267736966,453.19886167436243
    L 349.71720467241124,453.19886167436243
    Z
  " fill="rgba(255, 255, 255, 0.6)" stroke="rgb(132, 0, 0)" stroke-width="1.0716454520560001px"/><text class="net-label-text" x="351.646166486112" y="447.41197623326" fill="rgb(132, 0, 0)" text-anchor="start" dominant-baseline="central" font-family="sans-serif" font-variant-numeric="tabular-nums" font-size="9.644809068504001px" transform="">SCL</text><path class="net-label" d="
    M 346.82376195186004,463.4866580141
    L 349.71720467241124,457.6997725729976
    L 374.7436981294257,457.6997725729976
    L 374.7436981294257,469.2735434552024
    L 349.71720467241124,469.2735434552024
    Z
  " fill="rgba(255, 255, 255, 0.6)" stroke="rgb(132, 0, 0)" stroke-width="1.0716454520560001px"/><text class="net-label-text" x="351.646166486112" y="463.4866580141" fill="rgb(132, 0, 0)" text-anchor="start" dominant-baseline="central" font-family="sans-serif" font-variant-numeric="tabular-nums" font-size="9.644809068504001px" transform="">SDA</text><rect class="component-overlay" x="357.8946364145512" y="387.15826060032146" width="9.927696676710411" height="21.945257373520803" fill="transparent"/><path d="M 362.78005905961146 387.15826060032146 L 357.8946364145512 397.3962629341293" stroke="rgb(132, 0, 0)" fill="none" stroke-width="1.0716454520560001px" stroke-linecap="round"/><path d="M 362.9369104462015 387.1635973946727 L 367.8223330912616 397.40162651961685" stroke="rgb(132, 0, 0)" fill="none" stroke-width="1.0716454520560001px" stroke-linecap="round"/><path d="M 362.8365937154346 387.42840634410305 L 362.8365937154346 409.10351797384226" stroke="rgb(132, 0, 0)" fill="none" stroke-width="1.0716454520560001px" stroke-linecap="round"/><text x="362.5969255683095" y="384.0182751270703" fill="rgb(15, 15, 15)" font-family="sans-serif" text-anchor="middle" dominant-baseline="ideographic" font-size="9.644809068504001px">V3_3</text><rect class="component-overlay" x="350.56166128863134" y="517.0108742245349" width="24.075656382844443" height="25.903245895008013" fill="transparent"/><path d="M 362.84024266819887 517.0108742245349 L 362.84024266819887 534.6733809223226" stroke="rgb(132, 0, 0)" fill="none" stroke-width="1.0716454520560001px" stroke-linecap="round"/><path d="M 350.56166128863134 534.6716234237813 L 374.6373176714758 534.6716234237813" stroke="rgb(132, 0, 0)" fill="none" stroke-width="1.0716454520560001px" stroke-linecap="round"/><path d="M 353.5711203458221 538.7928717716621 L 371.62785861428495 538.7928717716621" stroke="rgb(132, 0, 0)" fill="none" stroke-width="1.0716454520560001px" stroke-linecap="round"/><path d="M 359.5900331019765 542.9141201195429 L 365.60894585813077 542.9141201195429" stroke="rgb(132, 0, 0)" fill="none" stroke-width="1.0716454520560001px" stroke-linecap="round"/><text x="361.686337711243" y="549.1902599335542" fill="rgb(15, 15, 15)" font-family="sans-serif" text-anchor="middle" dominant-baseline="hanging" font-size="9.644809068504001px">GND</text><rect class="component-overlay" x="538.0996153984313" y="543.8020105259349" width="24.0756563828445" height="25.903245895008013" fill="transparent"/><path d="M 550.3781967779989 543.8020105259349 L 550.3781967779989 561.4645172237226" stroke="rgb(132, 0, 0)" fill="none" stroke-width="1.0716454520560001px" stroke-linecap="round"/><path d="M 538.0996153984313 561.4627597251813 L 562.1752717812758 561.4627597251813" stroke="rgb(132, 0, 0)" fill="none" stroke-width="1.0716454520560001px" stroke-linecap="round"/><path d="M 541.1090744556221 565.5840080730621 L 559.165812724085 565.5840080730621" stroke="rgb(132, 0, 0)" fill="none" stroke-width="1.0716454520560001px" stroke-linecap="round"/><path d="M 547.1279872117765 569.7052564209429 L 553.1468999679307 569.7052564209429" stroke="rgb(132, 0, 0)" fill="none" stroke-width="1.0716454520560001px" stroke-linecap="round"/><text x="549.224291821043" y="575.9813962349542" fill="rgb(15, 15, 15)" font-family="sans-serif" text-anchor="middle" dominant-baseline="hanging" font-size="9.644809068504001px">GND</text><rect class="component-overlay" x="545.4325905243512" y="333.57598799752145" width="9.927696676710411" height="21.945257373520803" fill="transparent"/><path d="M 550.3180131694115 333.57598799752145 L 545.4325905243512 343.8139903313293" stroke="rgb(132, 0, 0)" fill="none" stroke-width="1.0716454520560001px" stroke-linecap="round"/><path d="M 550.4748645560015 333.5813247918727 L 555.3602872010616 343.81935391681685" stroke="rgb(132, 0, 0)" fill="none" stroke-width="1.0716454520560001px" stroke-linecap="round"/><path d="M 550.3745478252347 333.84613374130305 L 550.3745478252346 355.52124537104226" stroke="rgb(132, 0, 0)" fill="none" stroke-width="1.0716454520560001px" stroke-linecap="round"/><text x="550.1348796781095" y="330.4360025242703" fill="rgb(15, 15, 15)" font-family="sans-serif" text-anchor="middle" dominant-baseline="ideographic" font-size="9.644809068504001px">V3_3</text><path class="net-label" d="
    M 531.68260243152,282.64648797965
    L 534.5760451520712,276.85960253854756
    L 558.5308931570296,276.85960253854756
    L 558.5308931570296,288.4333734207524
    L 534.5760451520712,288.4333734207524
    Z
  " fill="rgba(255, 255, 255, 0.6)" stroke="rgb(132, 0, 0)" stroke-width="1.0716454520560001px"/><text class="net-label-text" x="536.5050069657719" y="282.64648797965" fill="rgb(132, 0, 0)" text-anchor="start" dominant-baseline="central" font-family="sans-serif" font-variant-numeric="tabular-nums" font-size="9.644809068504001px" transform="">SCL</text><path class="net-label" d="
    M 531.68260243152,271.93003345909
    L 534.5760451520712,266.1431480179876
    L 559.6025386090856,266.1431480179876
    L 559.6025386090856,277.7169189001924
    L 534.5760451520712,277.7169189001924
    Z
  " fill="rgba(255, 255, 255, 0.6)" stroke="rgb(132, 0, 0)" stroke-width="1.0716454520560001px"/><text class="net-label-text" x="536.5050069657719" y="271.93003345909" fill="rgb(132, 0, 0)" text-anchor="start" dominant-baseline="central" font-family="sans-serif" font-variant-numeric="tabular-nums" font-size="9.644809068504001px" transform="">SDA</text><path class="net-label" d="
    M 531.68260243152,226.38510174670998
    L 534.5760451520712,220.59821630560756
    L 566.6110998655319,220.59821630560756
    L 566.6110998655319,232.1719871878124
    L 534.5760451520712,232.1719871878124
    Z
  " fill="rgba(255, 255, 255, 0.6)" stroke="rgb(132, 0, 0)" stroke-width="1.0716454520560001px"/><text class="net-label-text" x="536.5050069657719" y="226.38510174670998" fill="rgb(132, 0, 0)" text-anchor="start" dominant-baseline="central" font-family="sans-serif" font-variant-numeric="tabular-nums" font-size="9.644809068504001px" transform="">ADDR</text><path class="net-label" d="
    M 531.68260243152,215.66864722614997
    L 534.5760451520712,209.88176178504756
    L 556.0303871022323,209.88176178504756
    L 556.0303871022323,221.45553266725238
    L 534.5760451520712,221.45553266725238
    Z
  " fill="rgba(255, 255, 255, 0.6)" stroke="rgb(132, 0, 0)" stroke-width="1.0716454520560001px"/><text class="net-label-text" x="536.5050069657719" y="215.66864722614997" fill="rgb(132, 0, 0)" text-anchor="start" dominant-baseline="central" font-family="sans-serif" font-variant-numeric="tabular-nums" font-size="9.644809068504001px" transform="">INT</text><rect class="component-overlay" x="518.6560955789399" y="100.42394353609305" width="9.927696676710411" height="21.945257373520747" fill="transparent"/><path d="M 523.5415182240002 100.42394353609305 L 518.6560955789399 110.66194586990089" stroke="rgb(132, 0, 0)" fill="none" stroke-width="1.0716454520560001px" stroke-linecap="round"/><path d="M 523.6983696105902 100.42928033044429 L 528.5837922556503 110.66730945538843" stroke="rgb(132, 0, 0)" fill="none" stroke-width="1.0716454520560001px" stroke-linecap="round"/><path d="M 523.5980528798234 100.6940892798746 L 523.5980528798233 122.3692009096138" stroke="rgb(132, 0, 0)" fill="none" stroke-width="1.0716454520560001px" stroke-linecap="round"/><text x="523.3583847326983" y="97.28395806284189" fill="rgb(15, 15, 15)" font-family="sans-serif" text-anchor="middle" dominant-baseline="ideographic" font-size="9.644809068504001px">V3_3</text><path class="net-label" d="
    M 523.6306201851113,182.24888548864843
    L 529.4175056262137,185.14232820919963
    L 529.4175056262137,206.59667015936074
    L 517.8437347440089,206.59667015936074
    L 517.8437347440089,185.14232820919963
    Z
  " fill="rgba(255, 255, 255, 0.6)" stroke="rgb(132, 0, 0)" stroke-width="1.0716454520560001px"/><text class="net-label-text" x="523.6306201851113" y="187.07129002290043" fill="rgb(132, 0, 0)" text-anchor="start" dominant-baseline="central" font-family="sans-serif" font-variant-numeric="tabular-nums" font-size="9.644809068504001px" transform="rotate(90 523.6306201851113 187.07129002290043)">INT</text><rect class="component-overlay" x="323.78517170144727" y="278.6345581843334" width="24.075656382844443" height="25.90324589500807" fill="transparent"/><path d="M 336.0637530810148 278.6345581843334 L 336.0637530810148 296.29706488212116" stroke="rgb(132, 0, 0)" fill="none" stroke-width="1.0716454520560001px" stroke-linecap="round"/><path d="M 323.78517170144727 296.2953073835798 L 347.8608280842917 296.2953073835798" stroke="rgb(132, 0, 0)" fill="none" stroke-width="1.0716454520560001px" stroke-linecap="round"/><path d="M 326.79463075863805 300.4165557314607 L 344.8513690271009 300.4165557314607" stroke="rgb(132, 0, 0)" fill="none" stroke-width="1.0716454520560001px" stroke-linecap="round"/><path d="M 332.8135435147924 304.53780407934147 L 338.8324562709467 304.53780407934147" stroke="rgb(132, 0, 0)" fill="none" stroke-width="1.0716454520560001px" stroke-linecap="round"/><text x="334.90984812405895" y="310.81394389335276" fill="rgb(15, 15, 15)" font-family="sans-serif" text-anchor="middle" dominant-baseline="hanging" font-size="9.644809068504001px">GND</text><rect class="component-overlay" x="331.0888533989352" y="196.87639581812292" width="9.927696676710411" height="21.945257373520747" fill="transparent"/><path d="M 335.9742760439955 196.87639581812292 L 331.0888533989352 207.11439815193074" stroke="rgb(132, 0, 0)" fill="none" stroke-width="1.0716454520560001px" stroke-linecap="round"/><path d="M 336.13112743058554 196.88173261247414 L 341.0165500756456 207.1197617374183" stroke="rgb(132, 0, 0)" fill="none" stroke-width="1.0716454520560001px" stroke-linecap="round"/><path d="M 336.03081069981863 197.14654156190448 L 336.03081069981863 218.82165319164366" stroke="rgb(132, 0, 0)" fill="none" stroke-width="1.0716454520560001px" stroke-linecap="round"/><text x="335.7911425526935" y="193.73641034487176" fill="rgb(15, 15, 15)" font-family="sans-serif" text-anchor="middle" dominant-baseline="ideographic" font-size="9.644809068504001px">V3_3</text><rect class="component-overlay" x="786.7399693986982" y="52.12979492564974" width="9.927696676710411" height="21.945257373520754" fill="transparent"/><path d="M 791.6253920437586 52.12979492564974 L 786.7399693986982 62.36779725945759" stroke="rgb(132, 0, 0)" fill="none" stroke-width="1.0716454520560001px" stroke-linecap="round"/><path d="M 791.7822434303486 52.13513172000098 L 796.6676660754086 62.37316084494513" stroke="rgb(132, 0, 0)" fill="none" stroke-width="1.0716454520560001px" stroke-linecap="round"/><path d="M 791.6819266995817 52.3999406694313 L 791.6819266995816 74.0750522991705" stroke="rgb(132, 0, 0)" fill="none" stroke-width="1.0716454520560001px" stroke-linecap="round"/><text x="791.4422585524566" y="48.98980945239859" fill="rgb(15, 15, 15)" font-family="sans-serif" text-anchor="middle" dominant-baseline="ideographic" font-size="9.644809068504001px">V3_3</text><rect class="component-overlay" x="920.5231400999398" y="36.125216412733" width="9.927696676710411" height="21.94525737352076" fill="transparent"/><path d="M 925.4085627450002 36.125216412733 L 920.5231400999398 46.36321874654085" stroke="rgb(132, 0, 0)" fill="none" stroke-width="1.0716454520560001px" stroke-linecap="round"/><path d="M 925.5654141315902 36.13055320708424 L 930.4508367766502 46.368582332028396" stroke="rgb(132, 0, 0)" fill="none" stroke-width="1.0716454520560001px" stroke-linecap="round"/><path d="M 925.4650974008233 36.395362156514565 L 925.4650974008232 58.070473786253764" stroke="rgb(132, 0, 0)" fill="none" stroke-width="1.0716454520560001px" stroke-linecap="round"/><text x="925.2254292536982" y="32.98523093948185" fill="rgb(15, 15, 15)" font-family="sans-serif" text-anchor="middle" dominant-baseline="ideographic" font-size="9.644809068504001px">V3_3</text><rect class="component-overlay" x="913.1721908006754" y="230.12071312044117" width="24.0756563828445" height="25.90324589500807" fill="transparent"/><path d="M 925.450772180243 230.12071312044117 L 925.450772180243 247.78321981822896" stroke="rgb(132, 0, 0)" fill="none" stroke-width="1.0716454520560001px" stroke-linecap="round"/><path d="M 913.1721908006754 247.7814623196876 L 937.2478471835199 247.7814623196876" stroke="rgb(132, 0, 0)" fill="none" stroke-width="1.0716454520560001px" stroke-linecap="round"/><path d="M 916.1816498578662 251.90271066756844 L 934.238388126329 251.90271066756844" stroke="rgb(132, 0, 0)" fill="none" stroke-width="1.0716454520560001px" stroke-linecap="round"/><path d="M 922.2005626140206 256.02395901544924 L 928.2194753701748 256.02395901544924" stroke="rgb(132, 0, 0)" fill="none" stroke-width="1.0716454520560001px" stroke-linecap="round"/><text x="924.2968672232871" y="262.30009882946047" fill="rgb(15, 15, 15)" font-family="sans-serif" text-anchor="middle" dominant-baseline="hanging" font-size="9.644809068504001px">GND</text><rect class="component-overlay" x="786.5674585929399" y="250.45430682393302" width="9.927696676710411" height="21.945257373520775" fill="transparent"/><path d="M 791.4528812380003 250.45430682393302 L 786.5674585929399 260.69230915774085" stroke="rgb(132, 0, 0)" fill="none" stroke-width="1.0716454520560001px" stroke-linecap="round"/><path d="M 791.6097326245903 250.45964361828425 L 796.4951552696504 260.6976727432284" stroke="rgb(132, 0, 0)" fill="none" stroke-width="1.0716454520560001px" stroke-linecap="round"/><path d="M 791.5094158938234 250.7244525677146 L 791.5094158938233 272.3995641974538" stroke="rgb(132, 0, 0)" fill="none" stroke-width="1.0716454520560001px" stroke-linecap="round"/><text x="791.2697477466983" y="247.31432135068187" fill="rgb(15, 15, 15)" font-family="sans-serif" text-anchor="middle" dominant-baseline="ideographic" font-size="9.644809068504001px">V3_3</text><path class="net-label" d="
    M 783.2942809855663,388.47480918753587
    L 786.1877237061175,382.68792374643346
    L 811.2142171631319,382.68792374643346
    L 811.2142171631319,394.2616946286383
    L 786.1877237061175,394.2616946286383
    Z
  " fill="rgba(255, 255, 255, 0.6)" stroke="rgb(132, 0, 0)" stroke-width="1.0716454520560001px"/><text class="net-label-text" x="788.1166855198182" y="388.47480918753587" fill="rgb(132, 0, 0)" text-anchor="start" dominant-baseline="central" font-family="sans-serif" font-variant-numeric="tabular-nums" font-size="9.644809068504001px" transform="">SDA</text><path class="net-label" d="
    M 529.0034888013801,393.82970363045996
    L 531.8969315219313,388.04281818935755
    L 555.8517795268897,388.04281818935755
    L 555.8517795268897,399.6165890715624
    L 531.8969315219313,399.6165890715624
    Z
  " fill="rgba(255, 255, 255, 0.6)" stroke="rgb(132, 0, 0)" stroke-width="1.0716454520560001px"/><text class="net-label-text" x="533.825893335632" y="393.82970363045996" fill="rgb(132, 0, 0)" text-anchor="start" dominant-baseline="central" font-family="sans-serif" font-variant-numeric="tabular-nums" font-size="9.644809068504001px" transform="">SCL</text><path class="net-label" d="
    M 529.0034888013801,404.54615815102
    L 531.8969315219313,398.7592727099176
    L 556.9234249789457,398.7592727099176
    L 556.9234249789457,410.3330435921224
    L 531.8969315219313,410.3330435921224
    Z
  " fill="rgba(255, 255, 255, 0.6)" stroke="rgb(132, 0, 0)" stroke-width="1.0716454520560001px"/><text class="net-label-text" x="533.825893335632" y="404.54615815102" fill="rgb(132, 0, 0)" text-anchor="start" dominant-baseline="central" font-family="sans-serif" font-variant-numeric="tabular-nums" font-size="9.644809068504001px" transform="">SDA</text><path class="net-label" d="
    M 529.0034888013801,492.95690794563995
    L 531.8969315219313,487.17002250453754
    L 555.8517795268897,487.17002250453754
    L 555.8517795268897,498.74379338674237
    L 531.8969315219313,498.74379338674237
    Z
  " fill="rgba(255, 255, 255, 0.6)" stroke="rgb(132, 0, 0)" stroke-width="1.0716454520560001px"/><text class="net-label-text" x="533.825893335632" y="492.95690794563995" fill="rgb(132, 0, 0)" text-anchor="start" dominant-baseline="central" font-family="sans-serif" font-variant-numeric="tabular-nums" font-size="9.644809068504001px" transform="">SCL</text><path class="net-label" d="
    M 529.0034888013801,509.03158972648
    L 531.8969315219313,503.24470428537757
    L 556.9234249789457,503.24470428537757
    L 556.9234249789457,514.8184751675824
    L 531.8969315219313,514.8184751675824
    Z
  " fill="rgba(255, 255, 255, 0.6)" stroke="rgb(132, 0, 0)" stroke-width="1.0716454520560001px"/><text class="net-label-text" x="533.825893335632" y="509.03158972648" fill="rgb(132, 0, 0)" text-anchor="start" dominant-baseline="central" font-family="sans-serif" font-variant-numeric="tabular-nums" font-size="9.644809068504001px" transform="">SDA</text><text x="309.3161711299" y="34.82847719169996" fill="#000000" text-anchor="start" dominant-baseline="middle" font-family="sans-serif" font-size="16.07468178084px" transform="rotate(0, 309.3161711299, 34.82847719169996)">VDD Range: 1.71V - 3.6V</text><text x="716.54144291118" y="88.41074979449996" fill="#000000" text-anchor="middle" dominant-baseline="middle" font-family="sans-serif" font-size="5.3582272602800005px" transform="rotate(0, 716.54144291118, 88.41074979449996)">Cut traces to remove I2C pull-up resistors.</text><text x="984.45280592518" y="206.29174952065998" fill="#000000" text-anchor="middle" dominant-baseline="middle" font-family="sans-serif" font-size="5.3582272602800005px" transform="rotate(0, 984.45280592518, 206.29174952065998)">Cut trace to disconnect Power LED.</text></svg>