<svg xmlns="http://www.w3.org/2000/svg" width="1200" height="600" style="background-color: rgb(245, 241, 237)" data-real-to-screen-transform="matrix(55.334436245,0,0,-55.334436245,479.3415242665,366.4886790462)" data-software-used-string="@tscircuit/core@0.0.518"><style>
              .boundary { fill: rgb(245, 241, 237); }
              .schematic-boundary { fill: none; stroke: #fff; }
              .component { fill: none; stroke: rgb(132, 0, 0); }
              .chip { fill: rgb(255, 255, 194); stroke: rgb(132, 0, 0); }
              .component-pin { fill: none; stroke: rgb(132, 0, 0); }
              .trace:hover {
                filter: invert(1);
              }
              .trace:hover .trace-crossing-outline {
                opacity: 0;
              }
              .trace:hover .trace-junction {
                filter: invert(1);
              }
              .text { font-family: sans-serif; fill: rgb(0, 150, 0); }
              .pin-number { fill: rgb(169, 0, 0); }
              .port-label { fill: rgb(0, 100, 100); }
              .component-name { fill: rgb(0, 100, 100); }
            </style><rect class="boundary" x="0" y="0" width="1200" height="600"/><g data-circuit-json-type="schematic_component" data-schematic-component-id="schematic_component_0"><rect class="component chip" x="548.50956957275" y="210.16889665407498" width="83.00165436750001" height="91.30181980425002" stroke-width="1.1066887249px" fill="rgb(255, 255, 194)" stroke="rgb(132, 0, 0)"/><rect class="component-overlay" x="548.50956957275" y="210.16889665407498" width="83.00165436750001" height="91.30181980425002" fill="transparent"/><text x="548.50956957275" y="308.664193170175" fill="#006464" text-anchor="start" dominant-baseline="middle" font-family="sans-serif" font-size="9.960198524099999px" transform="rotate(0, 548.50956957275, 308.664193170175)">OPT4048</text><text x="548.50956957275" y="202.975419942225" fill="#006464" text-anchor="start" dominant-baseline="middle" font-family="sans-serif" font-size="9.960198524099999px" transform="rotate(0, 548.50956957275, 202.975419942225)">U1</text><line class="component-pin" x1="527.48248379965" y1="222.61914480919998" x2="548.50956957275" y2="222.61914480919998" stroke-width="1.1066887249px"/><text class="pin-number" x="537.44268232375" y="221.5124560843" style="font-family: sans-serif;" fill="rgb(169, 0, 0)" text-anchor="middle" dominant-baseline="auto" font-size="8.30016543675px" transform="">1</text><text class="pin-number" x="554.04301319725" y="222.61914480919998" style="font-family: sans-serif;" fill="rgb(169, 0, 0)" text-anchor="start" dominant-baseline="middle" font-size="8.30016543675px" transform="">VDD</text><line class="component-pin" x1="652.53830971335" y1="232.302671152075" x2="631.51122394025" y2="232.302671152075" stroke-width="1.1066887249px"/><text class="pin-number" x="642.57811118925" y="231.195982427175" style="font-family: sans-serif;" fill="rgb(169, 0, 0)" text-anchor="middle" dominant-baseline="auto" font-size="8.30016543675px" transform="">2</text><text class="pin-number" x="625.97778031575" y="232.302671152075" style="font-family: sans-serif;" fill="rgb(169, 0, 0)" text-anchor="end" dominant-baseline="middle" font-size="8.30016543675px" transform="">ADDR</text><line class="component-pin" x1="527.48248379965" y1="289.0204683032" x2="548.50956957275" y2="289.0204683032" stroke-width="1.1066887249px"/><text class="pin-number" x="537.44268232375" y="287.9137795783" style="font-family: sans-serif;" fill="rgb(169, 0, 0)" text-anchor="middle" dominant-baseline="auto" font-size="8.30016543675px" transform="">4</text><text class="pin-number" x="554.04301319725" y="289.0204683032" style="font-family: sans-serif;" fill="rgb(169, 0, 0)" text-anchor="start" dominant-baseline="middle" font-size="8.30016543675px" transform="">GND</text><line class="component-pin" x1="652.53830971335" y1="290.403829209325" x2="631.51122394025" y2="290.403829209325" stroke-width="1.1066887249px"/><text class="pin-number" x="642.57811118925" y="289.297140484425" style="font-family: sans-serif;" fill="rgb(169, 0, 0)" text-anchor="middle" dominant-baseline="auto" font-size="8.30016543675px" transform="">5</text><text class="pin-number" x="625.97778031575" y="290.403829209325" style="font-family: sans-serif;" fill="rgb(169, 0, 0)" text-anchor="end" dominant-baseline="middle" font-size="8.30016543675px" transform="">SCL</text><line class="component-pin" x1="652.53830971335" y1="221.235783903075" x2="631.51122394025" y2="221.235783903075" stroke-width="1.1066887249px"/><text class="pin-number" x="642.57811118925" y="220.129095178175" style="font-family: sans-serif;" fill="rgb(169, 0, 0)" text-anchor="middle" dominant-baseline="auto" font-size="8.30016543675px" transform="">7</text><text class="pin-number" x="625.97778031575" y="221.235783903075" style="font-family: sans-serif;" fill="rgb(169, 0, 0)" text-anchor="end" dominant-baseline="middle" font-size="8.30016543675px" transform="">INT</text><line class="component-pin" x1="652.53830971335" y1="279.336941960325" x2="631.51122394025" y2="279.336941960325" stroke-width="1.1066887249px"/><text class="pin-number" x="642.57811118925" y="278.230253235425" style="font-family: sans-serif;" fill="rgb(169, 0, 0)" text-anchor="middle" dominant-baseline="auto" font-size="8.30016543675px" transform="">8</text><text class="pin-number" x="625.97778031575" y="279.336941960325" style="font-family: sans-serif;" fill="rgb(169, 0, 0)" text-anchor="end" dominant-baseline="middle" font-size="8.30016543675px" transform="">SDA</text></g><g data-circuit-json-type="schematic_component" data-schematic-component-id="schematic_component_1"><rect class="component-overlay" x="638.0593766230019" y="126.92649322136032" width="14.640573278785268" height="58.56227651481041" fill="transparent"/><path d="M 645.3796632623945 126.92649322136032 L 645.3796632623945 141.56706096670197" stroke="rgb(132, 0, 0)" fill="none" stroke-width="1.1066887249px" stroke-linecap="round"/><path d="M 645.3796632623945 170.84819645738543 L 645.3796632623945 185.48876973617072" stroke="rgb(132, 0, 0)" fill="none" stroke-width="1.1066887249px" stroke-linecap="round"/><path d="M 652.6999499017871 156.20762317860007 L 652.6999499017871 170.84819092394173 L 638.0593766230019 170.84819092394173 L 638.0593766230019 141.56704989981466 L 652.6999499017871 141.56704989981466 L 652.6999499017871 156.20762317859996" stroke="rgb(132, 0, 0)" fill="none" stroke-width="1.1066887249px" stroke-linecap="round"/><text x="655.5221306527635" y="146.3959588817125" fill="rgb(15, 15, 15)" font-family="sans-serif" text-anchor="start" dominant-baseline="middle" font-size="9.960198524099999px">R3</text><text x="655.5221306527635" y="164.10297848011248" fill="rgb(15, 15, 15)" font-family="sans-serif" text-anchor="start" dominant-baseline="middle" font-size="9.960198524099999px">10Ω</text></g><g data-circuit-json-type="schematic_component" data-schematic-component-id="schematic_component_2"><rect class="component-overlay" x="436.9989081377639" y="226.8833382019994" width="29.281135490683425" height="58.56227651481046" fill="transparent"/><path d="M 451.63947588310555 226.8833382019994 L 451.63947588310555 251.77230281573597" stroke="rgb(132, 0, 0)" fill="none" stroke-width="1.1066887249px" stroke-linecap="round"/><path d="M 451.63947588310555 260.5566445696297 L 451.63947588310555 285.44561471680987" stroke="rgb(132, 0, 0)" fill="none" stroke-width="1.1066887249px" stroke-linecap="round"/><path d="M 436.9989081377639 251.772302815736 L 466.28004362844734 251.77230281573597" stroke="rgb(132, 0, 0)" fill="none" stroke-width="1.1066887249px" stroke-linecap="round"/><path d="M 436.9989081377639 260.5566445696297 L 466.28004362844734 260.5566445696297" stroke="rgb(132, 0, 0)" fill="none" stroke-width="1.1066887249px" stroke-linecap="round"/><text x="464.185917422199" y="244.85875263719998" fill="rgb(15, 15, 15)" font-family="sans-serif" text-anchor="start" dominant-baseline="auto" font-size="9.960198524099999px">C1</text><text x="464.185917422199" y="266.7808604752" fill="rgb(15, 15, 15)" font-family="sans-serif" text-anchor="start" dominant-baseline="hanging" font-size="9.960198524099999px">100nF</text></g><g data-circuit-json-type="schematic_component" data-schematic-component-id="schematic_component_3"><rect class="component-overlay" x="897.5636312279969" y="76.0283333000722" width="48.93229177244609" height="26.511741025162735" fill="transparent"/><path d="M 934.1985306920011 95.38883992201437 L 946.495923000443 95.38883992201437" stroke="rgb(132, 0, 0)" fill="none" stroke-width="1.1066887249px" stroke-linecap="round"/><path d="M 897.5636312279969 95.48372187984373 L 909.8309548037831 95.48372187984373" stroke="rgb(132, 0, 0)" fill="none" stroke-width="1.1066887249px" stroke-linecap="round"/><path d="M 922.1613485700015 88.325725608514 L 922.1613485700015 76.0283333000722" stroke="rgb(132, 0, 0)" fill="none" stroke-width="1.1066887249px" stroke-linecap="round"/><path d="M 915.3667778090417 102.42404354587285 L 915.3667778090417 88.48050709357855" stroke="rgb(132, 0, 0)" fill="none" stroke-width="1.1066887249px" stroke-linecap="round"/><path d="M 919.6327308369137 102.18572366240923 L 919.6327308369137 88.7104659437255" stroke="rgb(132, 0, 0)" fill="none" stroke-width="1.1066887249px" stroke-linecap="round"/><path d="M 924.5866292434017 102.20112323601619 L 924.5866292434017 88.74203977304683" stroke="rgb(132, 0, 0)" fill="none" stroke-width="1.1066887249px" stroke-linecap="round"/><path d="M 919.7405333856061 102.22607906676274 L 924.5426051659251 102.22607906676274" stroke="rgb(132, 0, 0)" fill="none" stroke-width="1.1066887249px" stroke-linecap="round"/><path d="M 919.7512793331249 88.69238264996059 L 924.5227235029822 88.69238264996059" stroke="rgb(132, 0, 0)" fill="none" stroke-width="1.1066887249px" stroke-linecap="round"/><path d="M 928.7129181541914 102.42937225208323 L 928.7129181541914 88.48583579978894" stroke="rgb(132, 0, 0)" fill="none" stroke-width="1.1066887249px" stroke-linecap="round"/><path d="M 928.9699908780984 88.29985122612582 L 928.9699908780984 88.29985122612582 L 929.8346880151094 88.76614634787609 L 930.6125574891531 89.24953976492885 L 931.306513173523 89.74826143072994 L 931.9194689415123 90.26054129872516 L 932.4543386664145 90.78460932236032 L 932.914036221523 91.31869545508125 L 933.3014754801312 91.86102965033378 L 933.6195703155325 92.40984186156369 L 933.8712346010202 92.96336204221681 L 934.0593822098876 93.51982014573898 L 934.1869270154283 94.07744612557599 L 934.2567828909356 94.63446993517366 L 934.2718637097029 95.18912152797779 L 934.2350833450234 95.73963085743424 L 934.1493556701907 96.28422787698878 L 934.0175945584981 96.82114254008725 L 933.8427138832391 97.34860480017547 L 933.6276275177069 97.86484461069924 L 933.3752493351949 98.36809192510438 L 933.0884932089966 98.85657669683671 L 932.7702730124054 99.32852887934204 L 932.4235026187145 99.78217842606621 L 932.0510959012174 100.21575529045501 L 931.6559667332075 100.62748942595425 L 931.2410289879782 101.01561078600977 L 930.8091965388229 101.37834932406737 L 930.3633832590348 101.71393499357288 L 929.9065030219075 102.02059774797209 L 929.4414697007343 102.29656754071084 L 928.9711971688085 102.54007432523494 L 928.9711971688085 102.54007432523494" stroke="rgb(132, 0, 0)" fill="none" stroke-width="1.1066887249px" stroke-linecap="round"/><path d="M 915.1138330340785 88.29283481960998 L 915.1138330340785 88.29283481960998 L 914.2491358970675 88.75912994136024 L 913.4712664230238 89.24252335841301 L 912.777310738654 89.7412450242141 L 912.1643549706646 90.25352489220931 L 911.6294852457623 90.77759291584448 L 911.1697876906538 91.31167904856541 L 910.7823484320456 91.85401324381793 L 910.4642535966444 92.40282545504785 L 910.2125893111568 92.95634563570097 L 910.0244417022892 93.51280373922313 L 909.8968968967486 94.07042971906014 L 909.8270410212413 94.62745352865781 L 909.8119602024741 95.18210512146194 L 909.8487405671535 95.73261445091839 L 909.9344682419862 96.27721147047293 L 910.0662293536788 96.8141261335714 L 910.2411100289379 97.34158839365962 L 910.4561963944701 97.85782820418339 L 910.7085745769821 98.36107551858854 L 910.9953307031803 98.84956029032087 L 911.3135508997716 99.3215124728262 L 911.6603212934624 99.77516201955036 L 912.0327280109595 100.20873888393916 L 912.4278571789694 100.6204730194384 L 912.8427949241986 101.00859437949393 L 913.2746273733541 101.37133291755153 L 913.7204406531421 101.70691858705703 L 914.1773208902694 102.01358134145624 L 914.6423542114426 102.289551134195 L 915.1126267433684 102.5330579187191 L 915.1126267433684 102.5330579187191" stroke="rgb(132, 0, 0)" fill="none" stroke-width="1.1066887249px" stroke-linecap="round"/><text x="923.1588513853028" y="105.30414234288972" fill="rgb(15, 15, 15)" font-family="sans-serif" text-anchor="middle" dominant-baseline="hanging" font-size="9.960198524099999px">I2C_PU</text></g><g data-circuit-json-type="schematic_component" data-schematic-component-id="schematic_component_4"><rect class="component-overlay" x="890.3700798146579" y="104.81309839622924" width="14.640573278785268" height="58.562276514810435" fill="transparent"/><path d="M 897.6903664540505 163.37537491103967 L 897.6903664540505 148.734807165698" stroke="rgb(132, 0, 0)" fill="none" stroke-width="1.1066887249px" stroke-linecap="round"/><path d="M 897.6903664540505 119.45367167501453 L 897.6903664540505 104.81309839622924" stroke="rgb(132, 0, 0)" fill="none" stroke-width="1.1066887249px" stroke-linecap="round"/><path d="M 890.3700798146579 134.09424495379992 L 890.3700798146579 119.45367720845823 L 905.0106530934431 119.45367720845823 L 905.0106530934431 148.7348182325853 L 890.3700798146579 148.7348182325853 L 890.3700798146579 134.0942449538" stroke="rgb(132, 0, 0)" fill="none" stroke-width="1.1066887249px" stroke-linecap="round"/><text x="912.9414639349798" y="126.19888965228749" fill="rgb(15, 15, 15)" font-family="sans-serif" text-anchor="start" dominant-baseline="middle" font-size="9.960198524099999px">R1</text><text x="912.9414639349798" y="143.9059092506875" fill="rgb(15, 15, 15)" font-family="sans-serif" text-anchor="start" dominant-baseline="middle" font-size="9.960198524099999px">2.2Ω</text></g><g data-circuit-json-type="schematic_component" data-schematic-component-id="schematic_component_5"><rect class="component-overlay" x="938.9537148377678" y="104.81309839622924" width="14.640573278785268" height="58.562276514810435" fill="transparent"/><path d="M 946.2740014771605 163.37537491103967 L 946.2740014771605 148.734807165698" stroke="rgb(132, 0, 0)" fill="none" stroke-width="1.1066887249px" stroke-linecap="round"/><path d="M 946.2740014771605 119.45367167501453 L 946.2740014771605 104.81309839622924" stroke="rgb(132, 0, 0)" fill="none" stroke-width="1.1066887249px" stroke-linecap="round"/><path d="M 938.9537148377678 134.09424495379992 L 938.9537148377678 119.45367720845823 L 953.5942881165531 119.45367720845823 L 953.5942881165531 148.7348182325853 L 938.9537148377678 148.7348182325853 L 938.9537148377678 134.0942449538" stroke="rgb(132, 0, 0)" fill="none" stroke-width="1.1066887249px" stroke-linecap="round"/><text x="961.5250989580898" y="126.19888965228749" fill="rgb(15, 15, 15)" font-family="sans-serif" text-anchor="start" dominant-baseline="middle" font-size="9.960198524099999px">R2</text><text x="961.5250989580898" y="143.9059092506875" fill="rgb(15, 15, 15)" font-family="sans-serif" text-anchor="start" dominant-baseline="middle" font-size="9.960198524099999px">2.2Ω</text></g><g data-circuit-json-type="schematic_component" data-schematic-component-id="schematic_component_6"><rect class="component-overlay" x="1052.9979879387129" y="60.54554940022928" width="14.640573278785268" height="58.56227651481041" fill="transparent"/><path d="M 1060.3182745781055 119.10782591503968 L 1060.3182745781055 104.467258169698" stroke="rgb(132, 0, 0)" fill="none" stroke-width="1.1066887249px" stroke-linecap="round"/><path d="M 1060.3182745781055 75.18612267901456 L 1060.3182745781055 60.54554940022928" stroke="rgb(132, 0, 0)" fill="none" stroke-width="1.1066887249px" stroke-linecap="round"/><path d="M 1052.9979879387129 89.82669595779993 L 1052.9979879387129 75.18612821245824 L 1067.6385612174981 75.18612821245824 L 1067.6385612174981 104.46726923658531 L 1052.9979879387129 104.46726923658531 L 1052.9979879387129 89.82669595780003" stroke="rgb(132, 0, 0)" fill="none" stroke-width="1.1066887249px" stroke-linecap="round"/><text x="1075.5693720590345" y="81.9313406562875" fill="rgb(15, 15, 15)" font-family="sans-serif" text-anchor="start" dominant-baseline="middle" font-size="9.960198524099999px">R4</text><text x="1075.5693720590345" y="99.6383602546875" fill="rgb(15, 15, 15)" font-family="sans-serif" text-anchor="start" dominant-baseline="middle" font-size="9.960198524099999px">4.7Ω</text></g><g data-circuit-json-type="schematic_component" data-schematic-component-id="schematic_component_7"><rect class="component-overlay" x="1042.4541522150407" y="127.13399735727899" width="25.423777473488144" height="58.220525503117756" fill="transparent"/><path d="M 1060.557643049136 163.7354194873551 L 1067.8779296885289 149.0948517420134" stroke="rgb(132, 0, 0)" fill="none" stroke-width="1.1066887249px" stroke-linecap="round"/><path d="M 1060.5700268959677 163.28052615387222 L 1060.5700268959677 185.35452286039674" stroke="rgb(132, 0, 0)" fill="none" stroke-width="1.1066887249px" stroke-linecap="round"/><path d="M 1053.2373564097434 149.0948517420134 L 1060.557643049136 163.7354194873551" stroke="rgb(132, 0, 0)" fill="none" stroke-width="1.1066887249px" stroke-linecap="round"/><path d="M 1067.8779296885289 149.0948517420134 L 1053.2373564097434 149.0948517420134" stroke="rgb(132, 0, 0)" fill="none" stroke-width="1.1066887249px" stroke-linecap="round"/><path d="M 1053.2373564097434 163.7354194873551 L 1067.8779296885289 163.7354194873551" stroke="rgb(132, 0, 0)" fill="none" stroke-width="1.1066887249px" stroke-linecap="round"/><path d="M 1060.557643049136 148.98175922121584 L 1060.557643049136 127.13399735727899" stroke="rgb(132, 0, 0)" fill="none" stroke-width="1.1066887249px" stroke-linecap="round"/><path d="M 1044.5577350764434 164.83582222029762 L 1043.6237340601767 170.22220351358925 L 1048.7567113026844 168.3240774139643" stroke="rgb(132, 0, 0)" fill="none" stroke-width="1.1066887249px" stroke-linecap="round"/><path d="M 1051.1726791904646 160.64482521976305 L 1050.678376671488 161.31013881395478 L 1045.6730559733974 168.04746610061915 L 1045.6204882589648 168.08232679545347" stroke="rgb(132, 0, 0)" fill="none" stroke-width="1.1066887249px" stroke-linecap="round"/><path d="M 1043.3881532313073 155.01582455731153 L 1042.4541522150407 160.40220585060322 L 1047.5871294575484 158.5040797509782" stroke="rgb(132, 0, 0)" fill="none" stroke-width="1.1066887249px" stroke-linecap="round"/><path d="M 1050.0030973453288 150.82482755677697 L 1049.508794826352 151.49014115096875 L 1044.5034741282614 158.2274684376331 L 1044.4509064138288 158.26232913246744" stroke="rgb(132, 0, 0)" fill="none" stroke-width="1.1066887249px" stroke-linecap="round"/><text x="1071.419992088" y="167.28470856419997" fill="rgb(15, 15, 15)" font-family="sans-serif" text-anchor="start" dominant-baseline="middle" font-size="9.960198524099999px">RED</text><text x="1071.419992088" y="145.70427842864996" fill="rgb(15, 15, 15)" font-family="sans-serif" text-anchor="start" dominant-baseline="middle" font-size="9.960198524099999px">D1</text><circle cx="1060.6234910282678" cy="185.88866064002607" r="1.1066887249px" stroke-width="1.1066887249px" fill="none" stroke="rgb(132, 0, 0)"/></g><g data-circuit-json-type="schematic_component" data-schematic-component-id="schematic_component_8"><rect class="component-overlay" x="1053.2473608758164" y="187.1850524127048" width="14.247239505624975" height="48.76054474922887" fill="transparent"/><path d="M 1060.398595279037 221.5775072475496 L 1060.398595279037 235.94559716193368" stroke="rgb(132, 0, 0)" fill="none" stroke-width="1.1066887249px" stroke-linecap="round"/><path d="M 1060.3037133212076 187.1850524127048 L 1060.3037133212076 201.47610572494855" stroke="rgb(132, 0, 0)" fill="none" stroke-width="1.1066887249px" stroke-linecap="round"/><path d="M 1053.3633916551785 207.73863034796906 L 1067.306928107473 207.73863034796906" stroke="rgb(132, 0, 0)" fill="none" stroke-width="1.1066887249px" stroke-linecap="round"/><path d="M 1053.3580629489682 215.32004572544554 L 1067.3015994012624 215.32004572544554" stroke="rgb(132, 0, 0)" fill="none" stroke-width="1.1066887249px" stroke-linecap="round"/><path d="M 1067.4875839749257 215.57711844935255 L 1067.4875839749257 215.57711844935255 L 1067.0212888531753 216.44181558636353 L 1066.5378954361227 217.21968506040724 L 1066.0391737703214 217.9136407447771 L 1065.5268939023263 218.52659651276645 L 1065.002825878691 219.0614662376687 L 1064.4687397459702 219.52116379277723 L 1063.9264055507176 219.90860305138543 L 1063.3775933394877 220.2266978867867 L 1062.8240731588346 220.47836217227436 L 1062.2676150553125 220.66650978114185 L 1061.7099890754755 220.79405458668253 L 1061.1529652658778 220.86391046218978 L 1060.5983136730736 220.87899128095702 L 1060.0478043436171 220.8422109162776 L 1059.5032073240627 220.7564832414449 L 1058.9662926609642 220.6247221297523 L 1058.438830400876 220.44984145449322 L 1057.9225905903522 220.234755088961 L 1057.419343275947 219.98237690644908 L 1056.9308585042147 219.69562078025078 L 1056.4589063217093 219.3774005836595 L 1056.0052567749851 219.03063018996863 L 1055.5716799105965 218.6582234724716 L 1055.1599457750972 218.2630943044617 L 1054.7718244150417 217.8481565592324 L 1054.4090858769841 217.41632411007703 L 1054.0735002074784 216.97051083028902 L 1053.7668374530792 216.51363059316168 L 1053.4908676603407 216.04859727198846 L 1053.2473608758164 215.57832474006273 L 1053.2473608758164 215.57832474006273" stroke="rgb(132, 0, 0)" fill="none" stroke-width="1.1066887249px" stroke-linecap="round"/><path d="M 1067.4946003814414 207.48568557300587 L 1067.4946003814414 207.48568557300587 L 1067.0283052596913 206.6209884359949 L 1066.5449118426384 205.84311896195118 L 1066.0461901768374 205.14916327758132 L 1065.533910308842 204.53620750959197 L 1065.009842285207 204.00133778468972 L 1064.475756152486 203.5416402295812 L 1063.9334219572336 203.154200970973 L 1063.3846097460037 202.83610613557175 L 1062.8310895653503 202.58444185008406 L 1062.2746314618282 202.3962942412166 L 1061.7170054819912 202.26874943567591 L 1061.1599816723935 202.19889356016864 L 1060.6053300795895 202.18381274140143 L 1060.054820750133 202.22059310608083 L 1059.5102237305784 202.30632078091355 L 1058.97330906748 202.43808189260614 L 1058.4458468073917 202.61296256786522 L 1057.929606996868 202.8280489333974 L 1057.4263596824628 203.08042711590937 L 1056.9378749107304 203.36718324210767 L 1056.4659227282252 203.68540343869893 L 1056.012273181501 204.0321738323898 L 1055.5786963171122 204.40458054988684 L 1055.166962181613 204.79970971789672 L 1054.7788408215574 205.21464746312603 L 1054.4161022834999 205.6464799122814 L 1054.0805166139944 206.09229319206943 L 1053.7738538595952 206.54917342919674 L 1053.4978840668564 207.01420675036996 L 1053.2543772823324 207.48447928229572 L 1053.2543772823324 207.48447928229572" stroke="rgb(132, 0, 0)" fill="none" stroke-width="1.1066887249px" stroke-linecap="round"/><text x="1050.4353810281616" y="212.69409471900275" fill="rgb(15, 15, 15)" font-family="sans-serif" text-anchor="end" dominant-baseline="middle" font-size="9.960198524099999px">LED</text><circle cx="1060.3565466409345" cy="186.88412161462998" r="1.1066887249px" stroke-width="1.1066887249px" fill="none" stroke="rgb(132, 0, 0)"/></g><g data-circuit-json-type="schematic_component" data-schematic-component-id="schematic_component_9"><rect class="component-overlay" x="914.6618973262129" y="281.88329438022924" width="14.640573278785268" height="58.562276514810435" fill="transparent"/><path d="M 921.9821839656055 340.4455708950397 L 921.9821839656055 325.805003149698" stroke="rgb(132, 0, 0)" fill="none" stroke-width="1.1066887249px" stroke-linecap="round"/><path d="M 921.9821839656055 296.5238676590145 L 921.9821839656055 281.88329438022924" stroke="rgb(132, 0, 0)" fill="none" stroke-width="1.1066887249px" stroke-linecap="round"/><path d="M 914.6618973262129 311.1644409377999 L 914.6618973262129 296.5238731924582 L 929.3024706049981 296.5238731924582 L 929.3024706049981 325.8050142165853 L 914.6618973262129 325.8050142165853 L 914.6618973262129 311.1644409378" stroke="rgb(132, 0, 0)" fill="none" stroke-width="1.1066887249px" stroke-linecap="round"/><text x="937.2332814465348" y="303.26908563628746" fill="rgb(15, 15, 15)" font-family="sans-serif" text-anchor="start" dominant-baseline="middle" font-size="9.960198524099999px">R5</text><text x="937.2332814465348" y="320.97610523468745" fill="rgb(15, 15, 15)" font-family="sans-serif" text-anchor="start" dominant-baseline="middle" font-size="9.960198524099999px">10kΩ</text></g><g data-circuit-json-type="schematic_component" data-schematic-component-id="schematic_component_10"><rect class="component-overlay" x="864.4491473320048" y="353.26039551680856" width="48.76054474922887" height="14.247239505624975" fill="transparent"/><path d="M 898.8416021668496 360.356400619213 L 913.2096920812337 360.356400619213" stroke="rgb(132, 0, 0)" fill="none" stroke-width="1.1066887249px" stroke-linecap="round"/><path d="M 864.4491473320048 360.4512825770423 L 878.7402006442486 360.4512825770423" stroke="rgb(132, 0, 0)" fill="none" stroke-width="1.1066887249px" stroke-linecap="round"/><path d="M 885.002725267269 367.3916042430714 L 885.002725267269 353.44806779077715" stroke="rgb(132, 0, 0)" fill="none" stroke-width="1.1066887249px" stroke-linecap="round"/><path d="M 892.5841406447455 367.3969329492818 L 892.5841406447455 353.4533964969875" stroke="rgb(132, 0, 0)" fill="none" stroke-width="1.1066887249px" stroke-linecap="round"/><path d="M 892.8412133686526 353.2674119233244 L 892.8412133686526 353.2674119233244 L 893.7059105056635 353.7337070450747 L 894.4837799797073 354.21710046212746 L 895.1777356640771 354.71582212792856 L 895.7906914320664 355.22810199592374 L 896.3255611569687 355.75217001955895 L 896.7852587120773 356.28625615227986 L 897.1726979706855 356.8285903475324 L 897.4907928060867 357.3774025587623 L 897.7424570915744 357.9309227394154 L 897.9306047004418 358.48738084293757 L 898.0581495059826 359.04500682277455 L 898.1280053814897 359.60203063237225 L 898.143086200257 360.1566822251764 L 898.1063058355776 360.7071915546328 L 898.0205781607449 361.25178857418734 L 897.8888170490522 361.78870323728586 L 897.7139363737932 362.3161654973741 L 897.498850008261 362.83240530789783 L 897.246471825749 363.335652622303 L 896.9597156995508 363.8241373940353 L 896.6414955029595 364.2960895765406 L 896.2947251092686 364.7497391232648 L 895.9223183917716 365.1833159876536 L 895.5271892237618 365.5950501231528 L 895.1122514785324 365.98317148320837 L 894.680419029377 366.345910021266 L 894.234605749589 366.68149569077144 L 893.7777255124616 366.98815844517065 L 893.3126921912884 367.2641282379094 L 892.8424196593627 367.50763502243353 L 892.8424196593627 367.50763502243353" stroke="rgb(132, 0, 0)" fill="none" stroke-width="1.1066887249px" stroke-linecap="round"/><path d="M 884.7497804923058 353.26039551680856 L 884.7497804923058 353.26039551680856 L 883.8850833552949 353.72669063855886 L 883.1072138812511 354.2100840556116 L 882.4132581968813 354.7088057214127 L 881.800302428892 355.2210855894079 L 881.2654327039897 355.7451536130431 L 880.8057351488812 356.279239745764 L 880.4182958902729 356.82157394101654 L 880.1002010548717 357.37038615224645 L 879.848536769384 357.92390633289955 L 879.6603891605166 358.4803644364217 L 879.5328443549759 359.0379904162587 L 879.4629884794687 359.5950142258564 L 879.4479076607014 360.14966581866054 L 879.4846880253808 360.70017514811695 L 879.5704157002135 361.2447721676715 L 879.7021768119062 361.78168683077 L 879.8770574871652 362.3091490908582 L 880.0921438526974 362.825388901382 L 880.3445220352094 363.3286362157871 L 880.6312781614076 363.81712098751944 L 880.9494983579989 364.2890731700248 L 881.2962687516898 364.742722716749 L 881.6686754691868 365.17629958113776 L 882.0638046371968 365.58803371663697 L 882.478742382426 365.9761550766925 L 882.9105748315814 366.33889361475013 L 883.3563881113695 366.6744792842556 L 883.8132683484968 366.9811420386548 L 884.27830166967 367.25711183139356 L 884.7485742015957 367.5006186159177 L 884.7485742015957 367.5006186159177" stroke="rgb(132, 0, 0)" fill="none" stroke-width="1.1066887249px" stroke-linecap="round"/><text x="889.9581896383028" y="370.2938673600883" fill="rgb(15, 15, 15)" font-family="sans-serif" text-anchor="middle" dominant-baseline="hanging" font-size="9.960198524099999px">OX45</text></g><g data-circuit-json-type="schematic_component" data-schematic-component-id="schematic_component_11"><rect class="component-overlay" x="864.4491473320048" y="392.5478452507586" width="48.76054474922887" height="14.247239505624975" fill="transparent"/><path d="M 898.8416021668496 399.64385035316303 L 913.2096920812337 399.64385035316303" stroke="rgb(132, 0, 0)" fill="none" stroke-width="1.1066887249px" stroke-linecap="round"/><path d="M 864.4491473320048 399.73873231099236 L 878.7402006442486 399.73873231099236" stroke="rgb(132, 0, 0)" fill="none" stroke-width="1.1066887249px" stroke-linecap="round"/><path d="M 885.002725267269 406.67905397702145 L 885.002725267269 392.7355175247272" stroke="rgb(132, 0, 0)" fill="none" stroke-width="1.1066887249px" stroke-linecap="round"/><path d="M 892.5841406447455 406.68438268323183 L 892.5841406447455 392.74084623093756" stroke="rgb(132, 0, 0)" fill="none" stroke-width="1.1066887249px" stroke-linecap="round"/><path d="M 892.8412133686526 392.55486165727444 L 892.8412133686526 392.55486165727444 L 893.7059105056635 393.02115677902475 L 894.4837799797073 393.5045501960775 L 895.1777356640771 394.0032718618786 L 895.7906914320664 394.5155517298738 L 896.3255611569687 395.039619753509 L 896.7852587120773 395.5737058862299 L 897.1726979706855 396.1160400814824 L 897.4907928060867 396.66485229271234 L 897.7424570915744 397.21837247336543 L 897.9306047004418 397.7748305768876 L 898.0581495059826 398.3324565567246 L 898.1280053814897 398.8894803663223 L 898.143086200257 399.4441319591264 L 898.1063058355776 399.99464128858284 L 898.0205781607449 400.5392383081374 L 897.8888170490522 401.0761529712359 L 897.7139363737932 401.6036152313241 L 897.498850008261 402.11985504184787 L 897.246471825749 402.623102356253 L 896.9597156995508 403.11158712798533 L 896.6414955029595 403.58353931049066 L 896.2947251092686 404.03718885721486 L 895.9223183917716 404.47076572160364 L 895.5271892237618 404.88249985710286 L 895.1122514785324 405.2706212171584 L 894.680419029377 405.633359755216 L 894.234605749589 405.9689454247215 L 893.7777255124616 406.2756081791207 L 893.3126921912884 406.5515779718595 L 892.8424196593627 406.7950847563836 L 892.8424196593627 406.7950847563836" stroke="rgb(132, 0, 0)" fill="none" stroke-width="1.1066887249px" stroke-linecap="round"/><path d="M 884.7497804923058 392.5478452507586 L 884.7497804923058 392.5478452507586 L 883.8850833552949 393.0141403725089 L 883.1072138812511 393.49753378956166 L 882.4132581968813 393.99625545536276 L 881.800302428892 394.50853532335793 L 881.2654327039897 395.03260334699314 L 880.8057351488812 395.56668947971406 L 880.4182958902729 396.1090236749666 L 880.1002010548717 396.6578358861965 L 879.848536769384 397.2113560668496 L 879.6603891605166 397.76781417037176 L 879.5328443549759 398.32544015020875 L 879.4629884794687 398.88246395980644 L 879.4479076607014 399.4371155526106 L 879.4846880253808 399.987624882067 L 879.5704157002135 400.5322219016216 L 879.7021768119062 401.06913656472005 L 879.8770574871652 401.59659882480827 L 880.0921438526974 402.112838635332 L 880.3445220352094 402.61608594973717 L 880.6312781614076 403.1045707214695 L 880.9494983579989 403.5765229039748 L 881.2962687516898 404.030172450699 L 881.6686754691868 404.4637493150878 L 882.0638046371968 404.875483450587 L 882.478742382426 405.26360481064256 L 882.9105748315814 405.6263433487002 L 883.3563881113695 405.96192901820564 L 883.8132683484968 406.26859177260485 L 884.27830166967 406.54456156534366 L 884.7485742015957 406.78806834986773 L 884.7485742015957 406.78806834986773" stroke="rgb(132, 0, 0)" fill="none" stroke-width="1.1066887249px" stroke-linecap="round"/><text x="889.9581896383028" y="409.58131709403835" fill="rgb(15, 15, 15)" font-family="sans-serif" text-anchor="middle" dominant-baseline="hanging" font-size="9.960198524099999px">OX46</text></g><g data-circuit-json-type="schematic_component" data-schematic-component-id="schematic_component_12"><rect class="component-overlay" x="864.4491473320048" y="431.2819506222586" width="48.76054474922887" height="14.247239505624975" fill="transparent"/><path d="M 898.8416021668496 438.377955724663 L 913.2096920812337 438.377955724663" stroke="rgb(132, 0, 0)" fill="none" stroke-width="1.1066887249px" stroke-linecap="round"/><path d="M 864.4491473320048 438.47283768249235 L 878.7402006442486 438.47283768249235" stroke="rgb(132, 0, 0)" fill="none" stroke-width="1.1066887249px" stroke-linecap="round"/><path d="M 885.002725267269 445.41315934852145 L 885.002725267269 431.4696228962272" stroke="rgb(132, 0, 0)" fill="none" stroke-width="1.1066887249px" stroke-linecap="round"/><path d="M 892.5841406447455 445.4184880547318 L 892.5841406447455 431.47495160243756" stroke="rgb(132, 0, 0)" fill="none" stroke-width="1.1066887249px" stroke-linecap="round"/><path d="M 892.8412133686526 431.28896702877444 L 892.8412133686526 431.28896702877444 L 893.7059105056635 431.75526215052474 L 894.4837799797073 432.2386555675775 L 895.1777356640771 432.7373772333786 L 895.7906914320664 433.24965710137377 L 896.3255611569687 433.773725125009 L 896.7852587120773 434.3078112577299 L 897.1726979706855 434.8501454529824 L 897.4907928060867 435.39895766421233 L 897.7424570915744 435.9524778448654 L 897.9306047004418 436.5089359483876 L 898.0581495059826 437.0665619282246 L 898.1280053814897 437.6235857378223 L 898.143086200257 438.1782373306264 L 898.1063058355776 438.72874666008283 L 898.0205781607449 439.2733436796374 L 897.8888170490522 439.8102583427359 L 897.7139363737932 440.3377206028241 L 897.498850008261 440.85396041334786 L 897.246471825749 441.357207727753 L 896.9597156995508 441.8456924994853 L 896.6414955029595 442.31764468199066 L 896.2947251092686 442.77129422871485 L 895.9223183917716 443.20487109310363 L 895.5271892237618 443.61660522860285 L 895.1122514785324 444.0047265886584 L 894.680419029377 444.367465126716 L 894.234605749589 444.7030507962215 L 893.7777255124616 445.0097135506207 L 893.3126921912884 445.28568334335944 L 892.8424196593627 445.52919012788357 L 892.8424196593627 445.52919012788357" stroke="rgb(132, 0, 0)" fill="none" stroke-width="1.1066887249px" stroke-linecap="round"/><path d="M 884.7497804923058 431.2819506222586 L 884.7497804923058 431.2819506222586 L 883.8850833552949 431.7482457440089 L 883.1072138812511 432.23163916106165 L 882.4132581968813 432.73036082686275 L 881.800302428892 433.2426406948579 L 881.2654327039897 433.76670871849313 L 880.8057351488812 434.30079485121405 L 880.4182958902729 434.8431290464666 L 880.1002010548717 435.3919412576965 L 879.848536769384 435.9454614383496 L 879.6603891605166 436.50191954187176 L 879.5328443549759 437.05954552170874 L 879.4629884794687 437.61656933130644 L 879.4479076607014 438.17122092411057 L 879.4846880253808 438.721730253567 L 879.5704157002135 439.26632727312153 L 879.7021768119062 439.80324193622005 L 879.8770574871652 440.33070419630826 L 880.0921438526974 440.846944006832 L 880.3445220352094 441.35019132123716 L 880.6312781614076 441.8386760929695 L 880.9494983579989 442.3106282754748 L 881.2962687516898 442.764277822199 L 881.6686754691868 443.1978546865878 L 882.0638046371968 443.609588822087 L 882.478742382426 443.99771018214255 L 882.9105748315814 444.36044872020017 L 883.3563881113695 444.69603438970563 L 883.8132683484968 445.00269714410484 L 884.27830166967 445.2786669368436 L 884.7485742015957 445.5221737213677 L 884.7485742015957 445.5221737213677" stroke="rgb(132, 0, 0)" fill="none" stroke-width="1.1066887249px" stroke-linecap="round"/><text x="889.9581896383028" y="448.31542246553835" fill="rgb(15, 15, 15)" font-family="sans-serif" text-anchor="middle" dominant-baseline="hanging" font-size="9.960198524099999px">OX44</text></g><g data-circuit-json-type="schematic_component" data-schematic-component-id="schematic_component_13"><rect class="component chip" x="412.9402007725" y="443.9568897892" width="22.13377449799998" height="66.40132349400005" stroke-width="1.1066887249px" fill="rgb(255, 255, 194)" stroke="rgb(132, 0, 0)"/><rect class="component-overlay" x="412.9402007725" y="443.9568897892" width="22.13377449799998" height="66.40132349400005" fill="transparent"/><text x="412.9402007725" y="517.55168999505" fill="#006464" text-anchor="start" dominant-baseline="middle" font-family="sans-serif" font-size="9.960198524099999px" transform="rotate(0, 412.9402007725, 517.55168999505)"></text><text x="412.9402007725" y="436.76341307735" fill="#006464" text-anchor="start" dominant-baseline="middle" font-family="sans-serif" font-size="9.960198524099999px" transform="rotate(0, 412.9402007725, 436.76341307735)">J3</text><line class="component-pin" x1="456.1010610436" y1="499.2913260342" x2="435.0739752705" y2="499.2913260342" stroke-width="1.1066887249px"/><text class="pin-number" x="446.14086251950005" y="498.1846373093" style="font-family: sans-serif;" fill="rgb(169, 0, 0)" text-anchor="middle" dominant-baseline="auto" font-size="8.30016543675px" transform="">1</text><line class="component-pin" x1="456.1010610436" y1="488.2244387852" x2="435.0739752705" y2="488.2244387852" stroke-width="1.1066887249px"/><text class="pin-number" x="446.14086251950005" y="487.1177500603" style="font-family: sans-serif;" fill="rgb(169, 0, 0)" text-anchor="middle" dominant-baseline="auto" font-size="8.30016543675px" transform="">2</text><line class="component-pin" x1="456.1010610436" y1="477.1575515362" x2="435.0739752705" y2="477.1575515362" stroke-width="1.1066887249px"/><text class="pin-number" x="446.14086251950005" y="476.0508628113" style="font-family: sans-serif;" fill="rgb(169, 0, 0)" text-anchor="middle" dominant-baseline="auto" font-size="8.30016543675px" transform="">3</text><line class="component-pin" x1="456.1010610436" y1="466.09066428719996" x2="435.0739752705" y2="466.09066428719996" stroke-width="1.1066887249px"/><text class="pin-number" x="446.14086251950005" y="464.9839755623" style="font-family: sans-serif;" fill="rgb(169, 0, 0)" text-anchor="middle" dominant-baseline="auto" font-size="8.30016543675px" transform="">4</text><line class="component-pin" x1="456.1010610436" y1="455.0237770382" x2="435.0739752705" y2="455.0237770382" stroke-width="1.1066887249px"/><text class="pin-number" x="446.14086251950005" y="453.9170883133" style="font-family: sans-serif;" fill="rgb(169, 0, 0)" text-anchor="middle" dominant-baseline="auto" font-size="8.30016543675px" transform="">5</text></g><g data-circuit-json-type="schematic_component" data-schematic-component-id="schematic_component_14"><rect class="component chip" x="551.276291385" y="394.1558971687" width="77.46821074299999" height="55.334436245000006" stroke-width="1.1066887249px" fill="rgb(255, 255, 194)" stroke="rgb(132, 0, 0)"/><rect class="component-overlay" x="551.276291385" y="394.1558971687" width="77.46821074299999" height="55.334436245000006" fill="transparent"/><text x="551.276291385" y="456.68381012555" fill="#006464" text-anchor="start" dominant-baseline="middle" font-family="sans-serif" font-size="9.960198524099999px" transform="rotate(0, 551.276291385, 456.68381012555)">QWIIC_RIGHT_ANGLE</text><text x="551.276291385" y="386.96242045685" fill="#006464" text-anchor="start" dominant-baseline="middle" font-family="sans-serif" font-size="9.960198524099999px" transform="rotate(0, 551.276291385, 386.96242045685)">J2</text><line class="component-pin" x1="649.7715879011" y1="405.2227844177" x2="628.744502128" y2="405.2227844177" stroke-width="1.1066887249px"/><text class="pin-number" x="639.8113893770001" y="404.1160956928" style="font-family: sans-serif;" fill="rgb(169, 0, 0)" text-anchor="middle" dominant-baseline="auto" font-size="8.30016543675px" transform="">4</text><text class="pin-number" x="623.2110585035" y="405.2227844177" style="font-family: sans-serif;" fill="rgb(169, 0, 0)" text-anchor="end" dominant-baseline="middle" font-size="8.30016543675px" transform="">SCL</text><line class="component-pin" x1="649.7715879011" y1="416.2896716667" x2="628.744502128" y2="416.2896716667" stroke-width="1.1066887249px"/><text class="pin-number" x="639.8113893770001" y="415.1829829418" style="font-family: sans-serif;" fill="rgb(169, 0, 0)" text-anchor="middle" dominant-baseline="auto" font-size="8.30016543675px" transform="">3</text><text class="pin-number" x="623.2110585035" y="416.2896716667" style="font-family: sans-serif;" fill="rgb(169, 0, 0)" text-anchor="end" dominant-baseline="middle" font-size="8.30016543675px" transform="">SDA</text><line class="component-pin" x1="649.7715879011" y1="427.3565589157" x2="628.744502128" y2="427.3565589157" stroke-width="1.1066887249px"/><text class="pin-number" x="639.8113893770001" y="426.2498701908" style="font-family: sans-serif;" fill="rgb(169, 0, 0)" text-anchor="middle" dominant-baseline="auto" font-size="8.30016543675px" transform="">2</text><text class="pin-number" x="623.2110585035" y="427.3565589157" style="font-family: sans-serif;" fill="rgb(169, 0, 0)" text-anchor="end" dominant-baseline="middle" font-size="8.30016543675px" transform="">VCC</text><line class="component-pin" x1="649.7715879011" y1="438.4234461647" x2="628.744502128" y2="438.4234461647" stroke-width="1.1066887249px"/><text class="pin-number" x="639.8113893770001" y="437.31675743979997" style="font-family: sans-serif;" fill="rgb(169, 0, 0)" text-anchor="middle" dominant-baseline="auto" font-size="8.30016543675px" transform="">1</text><text class="pin-number" x="623.2110585035" y="438.4234461647" style="font-family: sans-serif;" fill="rgb(169, 0, 0)" text-anchor="end" dominant-baseline="middle" font-size="8.30016543675px" transform="">GND</text></g><g data-circuit-json-type="schematic_component" data-schematic-component-id="schematic_component_15"><rect class="component chip" x="551.276291385" y="504.8247696587" width="77.46821074299999" height="55.334436245000006" stroke-width="1.1066887249px" fill="rgb(255, 255, 194)" stroke="rgb(132, 0, 0)"/><rect class="component-overlay" x="551.276291385" y="504.8247696587" width="77.46821074299999" height="55.334436245000006" fill="transparent"/><text x="551.276291385" y="567.35268261555" fill="#006464" text-anchor="start" dominant-baseline="middle" font-family="sans-serif" font-size="9.960198524099999px" transform="rotate(0, 551.276291385, 567.35268261555)">QWIIC_RIGHT_ANGLE</text><text x="551.276291385" y="497.63129294684995" fill="#006464" text-anchor="start" dominant-baseline="middle" font-family="sans-serif" font-size="9.960198524099999px" transform="rotate(0, 551.276291385, 497.63129294684995)">J1</text><line class="component-pin" x1="649.7715879011" y1="515.8916569077" x2="628.744502128" y2="515.8916569077" stroke-width="1.1066887249px"/><text class="pin-number" x="639.8113893770001" y="514.7849681828" style="font-family: sans-serif;" fill="rgb(169, 0, 0)" text-anchor="middle" dominant-baseline="auto" font-size="8.30016543675px" transform="">4</text><text class="pin-number" x="623.2110585035" y="515.8916569077" style="font-family: sans-serif;" fill="rgb(169, 0, 0)" text-anchor="end" dominant-baseline="middle" font-size="8.30016543675px" transform="">SCL</text><line class="component-pin" x1="649.7715879011" y1="526.9585441567" x2="628.744502128" y2="526.9585441567" stroke-width="1.1066887249px"/><text class="pin-number" x="639.8113893770001" y="525.8518554318" style="font-family: sans-serif;" fill="rgb(169, 0, 0)" text-anchor="middle" dominant-baseline="auto" font-size="8.30016543675px" transform="">3</text><text class="pin-number" x="623.2110585035" y="526.9585441567" style="font-family: sans-serif;" fill="rgb(169, 0, 0)" text-anchor="end" dominant-baseline="middle" font-size="8.30016543675px" transform="">SDA</text><line class="component-pin" x1="649.7715879011" y1="538.0254314057" x2="628.744502128" y2="538.0254314057" stroke-width="1.1066887249px"/><text class="pin-number" x="639.8113893770001" y="536.9187426808" style="font-family: sans-serif;" fill="rgb(169, 0, 0)" text-anchor="middle" dominant-baseline="auto" font-size="8.30016543675px" transform="">2</text><text class="pin-number" x="623.2110585035" y="538.0254314057" style="font-family: sans-serif;" fill="rgb(169, 0, 0)" text-anchor="end" dominant-baseline="middle" font-size="8.30016543675px" transform="">VCC</text><line class="component-pin" x1="649.7715879011" y1="549.0923186547" x2="628.744502128" y2="549.0923186547" stroke-width="1.1066887249px"/><text class="pin-number" x="639.8113893770001" y="547.9856299298" style="font-family: sans-serif;" fill="rgb(169, 0, 0)" text-anchor="middle" dominant-baseline="auto" font-size="8.30016543675px" transform="">1</text><text class="pin-number" x="623.2110585035" y="549.0923186547" style="font-family: sans-serif;" fill="rgb(169, 0, 0)" text-anchor="end" dominant-baseline="middle" font-size="8.30016543675px" transform="">GND</text></g><g class="trace" data-circuit-json-type="schematic_trace" data-schematic-trace-id="schematic_trace_0"><path d="M 526.37579507475 289.0204683032 L 507.008742389 289.0204683032" class="trace-invisible-hover-outline" stroke="rgb(0, 150, 0)" fill="none" stroke-width="8.8535097992px" stroke-linecap="round" opacity="0" stroke-linejoin="round"/><path d="M 526.37579507475 289.0204683032 L 507.008742389 289.0204683032" stroke="rgb(0, 150, 0)" fill="none" stroke-width="1.1066887249px" stroke-linecap="round" stroke-linejoin="round"/></g><g class="trace" data-circuit-json-type="schematic_trace" data-schematic-trace-id="schematic_trace_1"><path d="M 526.37579507475 222.61914480919998 L 507.008742389 222.61914480919998" class="trace-invisible-hover-outline" stroke="rgb(0, 150, 0)" fill="none" stroke-width="8.8535097992px" stroke-linecap="round" opacity="0" stroke-linejoin="round"/><path d="M 526.37579507475 222.61914480919998 L 507.008742389 222.61914480919998" stroke="rgb(0, 150, 0)" fill="none" stroke-width="1.1066887249px" stroke-linecap="round" stroke-linejoin="round"/></g><g class="trace" data-circuit-json-type="schematic_trace" data-schematic-trace-id="schematic_trace_2"><path d="M 897.34887828093 95.4308885601169 L 897.34887828093 95.4308885601169 L 897.34887828093 103.57868672558857" class="trace-invisible-hover-outline" stroke="rgb(0, 150, 0)" fill="none" stroke-width="8.8535097992px" stroke-linecap="round" opacity="0" stroke-linejoin="round"/><path d="M 897.34887828093 95.4308885601169 L 897.34887828093 95.4308885601169 L 897.34887828093 103.57868672558857" stroke="rgb(0, 150, 0)" fill="none" stroke-width="1.1066887249px" stroke-linecap="round" stroke-linejoin="round"/></g><g class="trace" data-circuit-json-type="schematic_trace" data-schematic-trace-id="schematic_trace_3"><path d="M 946.68515017207 95.43777216398581 L 946.68515017207 95.43777216398581 L 946.68515017207 103.57868672558857" class="trace-invisible-hover-outline" stroke="rgb(0, 150, 0)" fill="none" stroke-width="8.8535097992px" stroke-linecap="round" opacity="0" stroke-linejoin="round"/><path d="M 946.68515017207 95.43777216398581 L 946.68515017207 95.43777216398581 L 946.68515017207 103.57868672558857" stroke="rgb(0, 150, 0)" fill="none" stroke-width="1.1066887249px" stroke-linecap="round" stroke-linejoin="round"/></g><g class="trace" data-circuit-json-type="schematic_trace" data-schematic-trace-id="schematic_trace_4"><path d="M 946.2937116033511 164.58940690881144 L 977.3514504715 164.58940690881144 L 977.3514504715 164.51798675195" class="trace-invisible-hover-outline" stroke="rgb(0, 150, 0)" fill="none" stroke-width="8.8535097992px" stroke-linecap="round" opacity="0" stroke-linejoin="round"/><path d="M 946.2937116033511 164.58940690881144 L 977.3514504715 164.58940690881144 L 977.3514504715 164.51798675195" stroke="rgb(0, 150, 0)" fill="none" stroke-width="1.1066887249px" stroke-linecap="round" stroke-linejoin="round"/></g><g class="trace" data-circuit-json-type="schematic_trace" data-schematic-trace-id="schematic_trace_5"><path d="M 897.7100765802411 164.58940690881144 L 977.3514504715 164.58940690881144 L 977.3514504715 200.4853703112" class="trace-invisible-hover-outline" stroke="rgb(0, 150, 0)" fill="none" stroke-width="8.8535097992px" stroke-linecap="round" opacity="0" stroke-linejoin="round"/><path d="M 897.7100765802411 164.58940690881144 L 977.3514504715 164.58940690881144 L 977.3514504715 200.4853703112" stroke="rgb(0, 150, 0)" fill="none" stroke-width="1.1066887249px" stroke-linecap="round" stroke-linejoin="round"/></g><g class="trace" data-circuit-json-type="schematic_trace" data-schematic-trace-id="schematic_trace_6"><path d="M 1060.5983968614305 126.5469819903739 L 1060.5983968614305 126.5469819903739 L 1060.5983968614305 120.32185791281142" class="trace-invisible-hover-outline" stroke="rgb(0, 150, 0)" fill="none" stroke-width="8.8535097992px" stroke-linecap="round" opacity="0" stroke-linejoin="round"/><path d="M 1060.5983968614305 126.5469819903739 L 1060.5983968614305 126.5469819903739 L 1060.5983968614305 120.32185791281142" stroke="rgb(0, 150, 0)" fill="none" stroke-width="1.1066887249px" stroke-linecap="round" stroke-linejoin="round"/></g><g class="trace" data-circuit-json-type="schematic_trace" data-schematic-trace-id="schematic_trace_7"><path d="M 922.0018940917961 341.65960289281145 L 922.0018940917961 360.40533286118443 L 913.48448842507 360.40533286118443" class="trace-invisible-hover-outline" stroke="rgb(0, 150, 0)" fill="none" stroke-width="8.8535097992px" stroke-linecap="round" opacity="0" stroke-linejoin="round"/><path d="M 922.0018940917961 341.65960289281145 L 922.0018940917961 360.40533286118443 L 913.48448842507 360.40533286118443" stroke="rgb(0, 150, 0)" fill="none" stroke-width="1.1066887249px" stroke-linecap="round" stroke-linejoin="round"/></g><g class="trace" data-circuit-json-type="schematic_trace" data-schematic-trace-id="schematic_trace_8"><path d="M 913.48448842507 438.42688796663447 L 955.2176759735 438.42688796663447 L 955.2176759735 438.4234461647" class="trace-invisible-hover-outline" stroke="rgb(0, 150, 0)" fill="none" stroke-width="8.8535097992px" stroke-linecap="round" opacity="0" stroke-linejoin="round"/><path d="M 913.48448842507 438.42688796663447 L 955.2176759735 438.42688796663447 L 955.2176759735 438.4234461647" stroke="rgb(0, 150, 0)" fill="none" stroke-width="1.1066887249px" stroke-linecap="round" stroke-linejoin="round"/></g><g class="trace" data-circuit-json-type="schematic_trace" data-schematic-trace-id="schematic_trace_9"><path d="M 457.20774976850004 488.2244387852 L 479.3415242665 488.2244387852 L 479.3415242665 421.8231152912" class="trace-invisible-hover-outline" stroke="rgb(0, 150, 0)" fill="none" stroke-width="8.8535097992px" stroke-linecap="round" opacity="0" stroke-linejoin="round"/><path d="M 457.20774976850004 488.2244387852 L 479.3415242665 488.2244387852 L 479.3415242665 421.8231152912" stroke="rgb(0, 150, 0)" fill="none" stroke-width="1.1066887249px" stroke-linecap="round" stroke-linejoin="round"/></g><g class="trace" data-circuit-json-type="schematic_trace" data-schematic-trace-id="schematic_trace_10"><path d="M 457.20774976850004 499.2913260342 L 479.3415242665 499.2913260342 L 479.3415242665 532.4919877812" class="trace-invisible-hover-outline" stroke="rgb(0, 150, 0)" fill="none" stroke-width="8.8535097992px" stroke-linecap="round" opacity="0" stroke-linejoin="round"/><path d="M 457.20774976850004 499.2913260342 L 479.3415242665 499.2913260342 L 479.3415242665 532.4919877812" stroke="rgb(0, 150, 0)" fill="none" stroke-width="1.1066887249px" stroke-linecap="round" stroke-linejoin="round"/></g><g class="trace" data-circuit-json-type="schematic_trace" data-schematic-trace-id="schematic_trace_11"><path d="M 650.878276626 549.0923186547 L 673.012051124 549.0923186547 L 673.012051124 560.1592059037" class="trace-invisible-hover-outline" stroke="rgb(0, 150, 0)" fill="none" stroke-width="8.8535097992px" stroke-linecap="round" opacity="0" stroke-linejoin="round"/><path d="M 650.878276626 549.0923186547 L 673.012051124 549.0923186547 L 673.012051124 560.1592059037" stroke="rgb(0, 150, 0)" fill="none" stroke-width="1.1066887249px" stroke-linecap="round" stroke-linejoin="round"/></g><g class="trace" data-circuit-json-type="schematic_trace" data-schematic-trace-id="schematic_trace_12"><path d="M 650.878276626 438.4234461647 L 673.012051124 438.4234461647 L 673.012051124 560.1592059037" class="trace-invisible-hover-outline" stroke="rgb(0, 150, 0)" fill="none" stroke-width="8.8535097992px" stroke-linecap="round" opacity="0" stroke-linejoin="round"/><path d="M 650.878276626 438.4234461647 L 673.012051124 438.4234461647 L 673.012051124 560.1592059037" stroke="rgb(0, 150, 0)" fill="none" stroke-width="1.1066887249px" stroke-linecap="round" stroke-linejoin="round"/></g><g class="trace" data-circuit-json-type="schematic_trace" data-schematic-trace-id="schematic_trace_13"><path d="M 650.878276626 538.0254314057 L 673.012051124 538.0254314057 L 673.012051124 366.4886790462" class="trace-invisible-hover-outline" stroke="rgb(0, 150, 0)" fill="none" stroke-width="8.8535097992px" stroke-linecap="round" opacity="0" stroke-linejoin="round"/><path d="M 650.878276626 538.0254314057 L 673.012051124 538.0254314057 L 673.012051124 366.4886790462" stroke="rgb(0, 150, 0)" fill="none" stroke-width="1.1066887249px" stroke-linecap="round" stroke-linejoin="round"/></g><g class="trace" data-circuit-json-type="schematic_trace" data-schematic-trace-id="schematic_trace_14"><path d="M 650.878276626 427.3565589157 L 673.012051124 427.3565589157 L 673.012051124 366.4886790462" class="trace-invisible-hover-outline" stroke="rgb(0, 150, 0)" fill="none" stroke-width="8.8535097992px" stroke-linecap="round" opacity="0" stroke-linejoin="round"/><path d="M 650.878276626 427.3565589157 L 673.012051124 427.3565589157 L 673.012051124 366.4886790462" stroke="rgb(0, 150, 0)" fill="none" stroke-width="1.1066887249px" stroke-linecap="round" stroke-linejoin="round"/></g><rect class="component-overlay" x="383.5996692979512" y="399.62938593152853" width="24.862940828370483" height="26.750293313258624" fill="transparent"/><path d="M 396.2797656343507 399.62938593152853 L 396.2797656343507 417.86946428805106" stroke="rgb(132, 0, 0)" fill="none" stroke-width="1.1066887249px" stroke-linecap="round"/><path d="M 383.5996692979512 417.86764931854225 L 408.4626101263217 417.86764931854225" stroke="rgb(132, 0, 0)" fill="none" stroke-width="1.1066887249px" stroke-linecap="round"/><path d="M 386.70753897653896 422.12366428166473 L 405.354740447734 422.12366428166473" stroke="rgb(132, 0, 0)" fill="none" stroke-width="1.1066887249px" stroke-linecap="round"/><path d="M 392.92327280027064 426.37967924478716 L 399.1390066240024 426.37967924478716" stroke="rgb(132, 0, 0)" fill="none" stroke-width="1.1066887249px" stroke-linecap="round"/><text x="395.0881274829274" y="432.8610515631566" fill="rgb(15, 15, 15)" font-family="sans-serif" text-anchor="middle" dominant-baseline="hanging" font-size="9.960198524099999px">GND</text><rect class="component-overlay" x="391.1724359030426" y="309.79808430393297" width="10.252336680255382" height="22.662876843931144" fill="transparent"/><path d="M 396.21761399556044 309.79808430393297 L 391.1724359030426 320.3708737713705" stroke="rgb(132, 0, 0)" fill="none" stroke-width="1.1066887249px" stroke-linecap="round"/><path d="M 396.3795944907803 309.803595613783 L 401.42477258329797 320.37641274843867" stroke="rgb(132, 0, 0)" fill="none" stroke-width="1.1066887249px" stroke-linecap="round"/><path d="M 396.27599735924247 310.07706393114944 L 396.2759973592424 332.4609611478641" stroke="rgb(132, 0, 0)" fill="none" stroke-width="1.1066887249px" stroke-linecap="round"/><text x="396.0284919593621" y="306.55541993865256" fill="rgb(15, 15, 15)" font-family="sans-serif" text-anchor="middle" dominant-baseline="ideographic" font-size="9.960198524099999px">V3_3</text><path class="net-label" d="
    M 534.6759605115,441.19016797694997
    L 537.66402006873,435.21404886248996
    L 563.5088907575613,435.21404886248996
    L 563.5088907575613,447.16628709140997
    L 537.66402006873,447.16628709140997
    Z
  " fill="rgba(255, 255, 255, 0.6)" stroke="rgb(132, 0, 0)" stroke-width="1.1066887249px"/><text class="net-label-text" x="539.6560597735499" y="441.19016797694997" fill="rgb(132, 0, 0)" text-anchor="start" dominant-baseline="central" font-family="sans-serif" font-variant-numeric="tabular-nums" font-size="9.960198524099999px" transform="">SDA</text><path class="net-label" d="
    M 534.6759605115,477.1575515362
    L 537.66402006873,471.18143242174
    L 562.4022020326613,471.18143242174
    L 562.4022020326613,483.13367065066
    L 537.66402006873,483.13367065066
    Z
  " fill="rgba(255, 255, 255, 0.6)" stroke="rgb(132, 0, 0)" stroke-width="1.1066887249px"/><text class="net-label-text" x="539.6560597735499" y="477.1575515362" fill="rgb(132, 0, 0)" text-anchor="start" dominant-baseline="central" font-family="sans-serif" font-variant-numeric="tabular-nums" font-size="9.960198524099999px" transform="">SCL</text><rect class="component-overlay" x="499.80198541245113" y="438.3634913030285" width="24.862940828370483" height="26.750293313258624" fill="transparent"/><path d="M 512.4820817488506 438.3634913030285 L 512.4820817488506 456.60356965955106" stroke="rgb(132, 0, 0)" fill="none" stroke-width="1.1066887249px" stroke-linecap="round"/><path d="M 499.80198541245113 456.60175469004224 L 524.6649262408216 456.60175469004224" stroke="rgb(132, 0, 0)" fill="none" stroke-width="1.1066887249px" stroke-linecap="round"/><path d="M 502.9098550910389 460.8577696531647 L 521.5570565622339 460.8577696531647" stroke="rgb(132, 0, 0)" fill="none" stroke-width="1.1066887249px" stroke-linecap="round"/><path d="M 509.12558891477056 465.11378461628715 L 515.3413227385023 465.11378461628715" stroke="rgb(132, 0, 0)" fill="none" stroke-width="1.1066887249px" stroke-linecap="round"/><text x="511.2904435974273" y="471.5951569346566" fill="rgb(15, 15, 15)" font-family="sans-serif" text-anchor="middle" dominant-baseline="hanging" font-size="9.960198524099999px">GND</text><rect class="component-overlay" x="363.5052177805426" y="287.664309805933" width="10.252336680255382" height="22.662876843931144" fill="transparent"/><path d="M 368.55039587306044 287.664309805933 L 363.5052177805426 298.2370992733705" stroke="rgb(132, 0, 0)" fill="none" stroke-width="1.1066887249px" stroke-linecap="round"/><path d="M 368.7123763682803 287.669821115783 L 373.75755446079796 298.2426382504387" stroke="rgb(132, 0, 0)" fill="none" stroke-width="1.1066887249px" stroke-linecap="round"/><path d="M 368.60877923674246 287.94328943314946 L 368.6087792367424 310.32718664986413" stroke="rgb(132, 0, 0)" fill="none" stroke-width="1.1066887249px" stroke-linecap="round"/><text x="368.3612738368621" y="284.4216454406526" fill="rgb(15, 15, 15)" font-family="sans-serif" text-anchor="middle" dominant-baseline="ideographic" font-size="9.960198524099999px">V3_3</text><rect class="component-overlay" x="355.9324511754512" y="421.7631604295285" width="24.862940828370483" height="26.750293313258624" fill="transparent"/><path d="M 368.6125475118507 421.7631604295285 L 368.6125475118507 440.00323878605104" stroke="rgb(132, 0, 0)" fill="none" stroke-width="1.1066887249px" stroke-linecap="round"/><path d="M 355.9324511754512 440.00142381654223 L 380.7953920038217 440.00142381654223" stroke="rgb(132, 0, 0)" fill="none" stroke-width="1.1066887249px" stroke-linecap="round"/><path d="M 359.04032085403895 444.2574387796647 L 377.687522325234 444.2574387796647" stroke="rgb(132, 0, 0)" fill="none" stroke-width="1.1066887249px" stroke-linecap="round"/><path d="M 365.25605467777063 448.51345374278714 L 371.4717885015024 448.51345374278714" stroke="rgb(132, 0, 0)" fill="none" stroke-width="1.1066887249px" stroke-linecap="round"/><text x="367.4209093604274" y="454.9948260611566" fill="rgb(15, 15, 15)" font-family="sans-serif" text-anchor="middle" dominant-baseline="hanging" font-size="9.960198524099999px">GND</text><rect class="component-overlay" x="549.6029780329512" y="449.4303785520285" width="24.862940828370483" height="26.750293313258624" fill="transparent"/><path d="M 562.2830743693507 449.4303785520285 L 562.2830743693507 467.67045690855105" stroke="rgb(132, 0, 0)" fill="none" stroke-width="1.1066887249px" stroke-linecap="round"/><path d="M 549.6029780329512 467.66864193904223 L 574.4659188613217 467.66864193904223" stroke="rgb(132, 0, 0)" fill="none" stroke-width="1.1066887249px" stroke-linecap="round"/><path d="M 552.7108477115389 471.9246569021647 L 571.358049182734 471.9246569021647" stroke="rgb(132, 0, 0)" fill="none" stroke-width="1.1066887249px" stroke-linecap="round"/><path d="M 558.9265815352707 476.18067186528714 L 565.1423153590024 476.18067186528714" stroke="rgb(132, 0, 0)" fill="none" stroke-width="1.1066887249px" stroke-linecap="round"/><text x="561.0914362179274" y="482.6620441836566" fill="rgb(15, 15, 15)" font-family="sans-serif" text-anchor="middle" dominant-baseline="hanging" font-size="9.960198524099999px">GND</text><rect class="component-overlay" x="557.1757446380425" y="232.329873560933" width="10.25233668025544" height="22.662876843931116" fill="transparent"/><path d="M 562.2209227305603 232.329873560933 L 557.1757446380425 242.90266302837057" stroke="rgb(132, 0, 0)" fill="none" stroke-width="1.1066887249px" stroke-linecap="round"/><path d="M 562.3829032257803 232.33538487078303 L 567.4280813182979 242.90820200543868" stroke="rgb(132, 0, 0)" fill="none" stroke-width="1.1066887249px" stroke-linecap="round"/><path d="M 562.2793060942424 232.60885318814945 L 562.2793060942424 254.99275040486413" stroke="rgb(132, 0, 0)" fill="none" stroke-width="1.1066887249px" stroke-linecap="round"/><text x="562.031800694362" y="229.08720919565258" fill="rgb(15, 15, 15)" font-family="sans-serif" text-anchor="middle" dominant-baseline="ideographic" font-size="9.960198524099999px">V3_3</text><path class="net-label" d="
    M 653.64499843825,290.403829209325
    L 656.63305799548,284.427710094865
    L 681.3712399594114,284.427710094865
    L 681.3712399594114,296.379948323785
    L 656.63305799548,296.379948323785
    Z
  " fill="rgba(255, 255, 255, 0.6)" stroke="rgb(132, 0, 0)" stroke-width="1.1066887249px"/><text class="net-label-text" x="658.6250977003" y="290.403829209325" fill="rgb(132, 0, 0)" text-anchor="start" dominant-baseline="central" font-family="sans-serif" font-variant-numeric="tabular-nums" font-size="9.960198524099999px" transform="">SCL</text><path class="net-label" d="
    M 653.64499843825,279.336941960325
    L 656.63305799548,273.360822845865
    L 682.4779286843113,273.360822845865
    L 682.4779286843113,285.313061074785
    L 656.63305799548,285.313061074785
    Z
  " fill="rgba(255, 255, 255, 0.6)" stroke="rgb(132, 0, 0)" stroke-width="1.1066887249px"/><text class="net-label-text" x="658.6250977003" y="279.336941960325" fill="rgb(132, 0, 0)" text-anchor="start" dominant-baseline="central" font-family="sans-serif" font-variant-numeric="tabular-nums" font-size="9.960198524099999px" transform="">SDA</text><path class="net-label" d="
    M 653.64499843825,232.302671152075
    L 656.63305799548,226.326552037615
    L 689.7156729451574,226.326552037615
    L 689.7156729451574,238.278790266535
    L 656.63305799548,238.278790266535
    Z
  " fill="rgba(255, 255, 255, 0.6)" stroke="rgb(132, 0, 0)" stroke-width="1.1066887249px"/><text class="net-label-text" x="658.6250977003" y="232.302671152075" fill="rgb(132, 0, 0)" text-anchor="start" dominant-baseline="central" font-family="sans-serif" font-variant-numeric="tabular-nums" font-size="9.960198524099999px" transform="">ADDR</text><path class="net-label" d="
    M 653.64499843825,221.235783903075
    L 656.63305799548,215.259664788615
    L 678.788966267978,215.259664788615
    L 678.788966267978,227.211903017535
    L 656.63305799548,227.211903017535
    Z
  " fill="rgba(255, 255, 255, 0.6)" stroke="rgb(132, 0, 0)" stroke-width="1.1066887249px"/><text class="net-label-text" x="658.6250977003" y="221.235783903075" fill="rgb(132, 0, 0)" text-anchor="start" dominant-baseline="central" font-family="sans-serif" font-variant-numeric="tabular-nums" font-size="9.960198524099999px" transform="">INT</text><rect class="component-overlay" x="640.1925191402464" y="102.2225282283216" width="10.25233668025544" height="22.6628768439311" fill="transparent"/><path d="M 645.2376972327643 102.2225282283216 L 640.1925191402464 112.79531769575914" stroke="rgb(132, 0, 0)" fill="none" stroke-width="1.1066887249px" stroke-linecap="round"/><path d="M 645.3996777279842 102.22803953817159 L 650.4448558205019 112.80085667282727" stroke="rgb(132, 0, 0)" fill="none" stroke-width="1.1066887249px" stroke-linecap="round"/><path d="M 645.2960805964464 102.50150785553804 L 645.2960805964464 124.8854050722527" stroke="rgb(132, 0, 0)" fill="none" stroke-width="1.1066887249px" stroke-linecap="round"/><text x="645.0485751965659" y="98.97986386304115" fill="rgb(15, 15, 15)" font-family="sans-serif" text-anchor="middle" dominant-baseline="ideographic" font-size="9.960198524099999px">V3_3</text><path class="net-label" d="
    M 645.3297128667962,186.72318140681142
    L 651.3058319812561,189.71124096404142
    L 651.3058319812561,211.8671492365394
    L 639.3535937523362,211.8671492365394
    L 639.3535937523362,189.71124096404142
    Z
  " fill="rgba(255, 255, 255, 0.6)" stroke="rgb(132, 0, 0)" stroke-width="1.1066887249px"/><text class="net-label-text" x="645.3297128667962" y="191.70328066886142" fill="rgb(132, 0, 0)" text-anchor="start" dominant-baseline="central" font-family="sans-serif" font-variant-numeric="tabular-nums" font-size="9.960198524099999px" transform="rotate(90 645.3297128667962 191.70328066886142)">INT</text><rect class="component-overlay" x="438.9492312110987" y="286.26070756302965" width="24.862940828370483" height="26.750293313258624" fill="transparent"/><path d="M 451.62932754749824 286.26070756302965 L 451.62932754749824 304.5007859195522" stroke="rgb(132, 0, 0)" fill="none" stroke-width="1.1066887249px" stroke-linecap="round"/><path d="M 438.9492312110987 304.4989709500434 L 463.8121720394692 304.4989709500434" stroke="rgb(132, 0, 0)" fill="none" stroke-width="1.1066887249px" stroke-linecap="round"/><path d="M 442.05710088968647 308.75498591316585 L 460.7043023608815 308.75498591316585" stroke="rgb(132, 0, 0)" fill="none" stroke-width="1.1066887249px" stroke-linecap="round"/><path d="M 448.27283471341815 313.0110008762883 L 454.4885685371499 313.0110008762883" stroke="rgb(132, 0, 0)" fill="none" stroke-width="1.1066887249px" stroke-linecap="round"/><text x="450.4376893960749" y="319.4923731946577" fill="rgb(15, 15, 15)" font-family="sans-serif" text-anchor="middle" dominant-baseline="hanging" font-size="9.960198524099999px">GND</text><rect class="component-overlay" x="446.491746479895" y="201.82901769243193" width="10.252336680255382" height="22.662876843931116" fill="transparent"/><path d="M 451.5369245724129 201.82901769243193 L 446.491746479895 212.4018071598695" stroke="rgb(132, 0, 0)" fill="none" stroke-width="1.1066887249px" stroke-linecap="round"/><path d="M 451.6989050676327 201.83452900228195 L 456.7440831601504 212.4073461369376" stroke="rgb(132, 0, 0)" fill="none" stroke-width="1.1066887249px" stroke-linecap="round"/><path d="M 451.5953079360949 202.10799731964838 L 451.59530793609485 224.49189453636305" stroke="rgb(132, 0, 0)" fill="none" stroke-width="1.1066887249px" stroke-linecap="round"/><text x="451.34780253621454" y="198.5863533271515" fill="rgb(15, 15, 15)" font-family="sans-serif" text-anchor="middle" dominant-baseline="ideographic" font-size="9.960198524099999px">V3_3</text><rect class="component-overlay" x="917.0428523494589" y="52.349139932516394" width="10.25233668025544" height="22.6628768439311" fill="transparent"/><path d="M 922.0880304419768 52.349139932516394 L 917.0428523494589 62.92192939995394" stroke="rgb(132, 0, 0)" fill="none" stroke-width="1.1066887249px" stroke-linecap="round"/><path d="M 922.2500109371967 52.35465124236639 L 927.2951890297144 62.927468377022066" stroke="rgb(132, 0, 0)" fill="none" stroke-width="1.1066887249px" stroke-linecap="round"/><path d="M 922.1464138056589 52.62811955973284 L 922.1464138056589 75.0120167764475" stroke="rgb(132, 0, 0)" fill="none" stroke-width="1.1066887249px" stroke-linecap="round"/><text x="921.8989084057785" y="49.10647556723595" fill="rgb(15, 15, 15)" font-family="sans-serif" text-anchor="middle" dominant-baseline="ideographic" font-size="9.960198524099999px">V3_3</text><rect class="component-overlay" x="1055.2007909777465" y="35.82120473432157" width="10.252336680255212" height="22.66287684393111" fill="transparent"/><path d="M 1060.2459690702642 35.82120473432157 L 1055.2007909777465 46.393994201759114" stroke="rgb(132, 0, 0)" fill="none" stroke-width="1.1066887249px" stroke-linecap="round"/><path d="M 1060.4079495654842 35.82671604417156 L 1065.4531276580017 46.39953317882724" stroke="rgb(132, 0, 0)" fill="none" stroke-width="1.1066887249px" stroke-linecap="round"/><path d="M 1060.3043524339462 36.10018436153801 L 1060.3043524339462 58.48408157825268" stroke="rgb(132, 0, 0)" fill="none" stroke-width="1.1066887249px" stroke-linecap="round"/><text x="1060.0568470340659" y="32.57854036904112" fill="rgb(15, 15, 15)" font-family="sans-serif" text-anchor="middle" dominant-baseline="ideographic" font-size="9.960198524099999px">V3_3</text><rect class="component-overlay" x="1047.6094624360167" y="236.16043864409855" width="24.862940828370483" height="26.750293313258595" fill="transparent"/><path d="M 1060.2895587724163 236.16043864409855 L 1060.2895587724163 254.4005170006211" stroke="rgb(132, 0, 0)" fill="none" stroke-width="1.1066887249px" stroke-linecap="round"/><path d="M 1047.6094624360167 254.3987020311123 L 1072.4724032643871 254.3987020311123" stroke="rgb(132, 0, 0)" fill="none" stroke-width="1.1066887249px" stroke-linecap="round"/><path d="M 1050.7173321146045 258.6547169942348 L 1069.3645335857996 258.6547169942347" stroke="rgb(132, 0, 0)" fill="none" stroke-width="1.1066887249px" stroke-linecap="round"/><path d="M 1056.933065938336 262.91073195735714 L 1063.148799762068 262.91073195735714" stroke="rgb(132, 0, 0)" fill="none" stroke-width="1.1066887249px" stroke-linecap="round"/><text x="1059.097920620993" y="269.3921042757266" fill="rgb(15, 15, 15)" font-family="sans-serif" text-anchor="middle" dominant-baseline="hanging" font-size="9.960198524099999px">GND</text><rect class="component-overlay" x="916.8647003652464" y="257.1589497143215" width="10.25233668025544" height="22.662876843931144" fill="transparent"/><path d="M 921.9098784577643 257.1589497143215 L 916.8647003652464 267.73173918175905" stroke="rgb(132, 0, 0)" fill="none" stroke-width="1.1066887249px" stroke-linecap="round"/><path d="M 922.0718589529843 257.16446102417154 L 927.1170370455019 267.7372781588272" stroke="rgb(132, 0, 0)" fill="none" stroke-width="1.1066887249px" stroke-linecap="round"/><path d="M 921.9682618214464 257.437929341538 L 921.9682618214464 279.82182655825267" stroke="rgb(132, 0, 0)" fill="none" stroke-width="1.1066887249px" stroke-linecap="round"/><text x="921.720756421566" y="253.9162853490411" fill="rgb(15, 15, 15)" font-family="sans-serif" text-anchor="middle" dominant-baseline="ideographic" font-size="9.960198524099999px">V3_3</text><path class="net-label" d="
    M 913.48448842507,399.6927825951344
    L 916.4725479823001,393.7166634806744
    L 942.3174186711313,393.7166634806744
    L 942.3174186711313,405.6689017095944
    L 916.4725479823001,405.6689017095944
    Z
  " fill="rgba(255, 255, 255, 0.6)" stroke="rgb(132, 0, 0)" stroke-width="1.1066887249px"/><text class="net-label-text" x="918.46458768712" y="399.6927825951344" fill="rgb(132, 0, 0)" text-anchor="start" dominant-baseline="central" font-family="sans-serif" font-variant-numeric="tabular-nums" font-size="9.960198524099999px" transform="">SDA</text><path class="net-label" d="
    M 864.14821653393,438.42000436276555
    L 861.1601569767,444.39612347722556
    L 828.0775420270227,444.39612347722556
    L 828.0775420270227,432.44388524830555
    L 861.1601569767,432.44388524830555
    Z
  " fill="rgba(255, 255, 255, 0.6)" stroke="rgb(132, 0, 0)" stroke-width="1.1066887249px"/><text class="net-label-text" x="859.1681172718801" y="438.42000436276555" fill="rgb(132, 0, 0)" text-anchor="end" dominant-baseline="central" font-family="sans-serif" font-variant-numeric="tabular-nums" font-size="9.960198524099999px" transform="">ADDR</text><path class="net-label" d="
    M 864.14821653393,360.3984492573156
    L 861.1601569767,366.3745683717756
    L 828.0775420270227,366.3745683717756
    L 828.0775420270227,354.42233014285557
    L 861.1601569767,354.42233014285557
    Z
  " fill="rgba(255, 255, 255, 0.6)" stroke="rgb(132, 0, 0)" stroke-width="1.1066887249px"/><text class="net-label-text" x="859.1681172718801" y="360.3984492573156" fill="rgb(132, 0, 0)" text-anchor="end" dominant-baseline="central" font-family="sans-serif" font-variant-numeric="tabular-nums" font-size="9.960198524099999px" transform="">ADDR</text><path class="net-label" d="
    M 864.14821653393,399.68589899126556
    L 861.1601569767,405.66201810572556
    L 828.0775420270227,405.66201810572556
    L 828.0775420270227,393.70977987680556
    L 861.1601569767,393.70977987680556
    Z
  " fill="rgba(255, 255, 255, 0.6)" stroke="rgb(132, 0, 0)" stroke-width="1.1066887249px"/><text class="net-label-text" x="859.1681172718801" y="399.68589899126556" fill="rgb(132, 0, 0)" text-anchor="end" dominant-baseline="central" font-family="sans-serif" font-variant-numeric="tabular-nums" font-size="9.960198524099999px" transform="">ADDR</text><path class="net-label" d="
    M 457.20774976850004,455.0237770382
    L 460.19580932573,449.04765792374
    L 482.35171759822805,449.04765792374
    L 482.35171759822805,460.99989615266
    L 460.19580932573,460.99989615266
    Z
  " fill="rgba(255, 255, 255, 0.6)" stroke="rgb(132, 0, 0)" stroke-width="1.1066887249px"/><text class="net-label-text" x="462.18784903055" y="455.0237770382" fill="rgb(132, 0, 0)" text-anchor="start" dominant-baseline="central" font-family="sans-serif" font-variant-numeric="tabular-nums" font-size="9.960198524099999px" transform="">INT</text><path class="net-label" d="
    M 457.20774976850004,466.09066428719996
    L 460.19580932573,460.11454517273995
    L 484.9339912896614,460.11454517273995
    L 484.9339912896614,472.06678340165996
    L 460.19580932573,472.06678340165996
    Z
  " fill="rgba(255, 255, 255, 0.6)" stroke="rgb(132, 0, 0)" stroke-width="1.1066887249px"/><text class="net-label-text" x="462.18784903055" y="466.09066428719996" fill="rgb(132, 0, 0)" text-anchor="start" dominant-baseline="central" font-family="sans-serif" font-variant-numeric="tabular-nums" font-size="9.960198524099999px" transform="">SCL</text><path class="net-label" d="
    M 457.20774976850004,477.1575515362
    L 460.19580932573,471.18143242174
    L 486.04068001456136,471.18143242174
    L 486.04068001456136,483.13367065066
    L 460.19580932573,483.13367065066
    Z
  " fill="rgba(255, 255, 255, 0.6)" stroke="rgb(132, 0, 0)" stroke-width="1.1066887249px"/><text class="net-label-text" x="462.18784903055" y="477.1575515362" fill="rgb(132, 0, 0)" text-anchor="start" dominant-baseline="central" font-family="sans-serif" font-variant-numeric="tabular-nums" font-size="9.960198524099999px" transform="">SDA</text><path class="net-label" d="
    M 650.878276626,405.2227844177
    L 653.86633618323,399.24666530324
    L 678.6045181471613,399.24666530324
    L 678.6045181471613,411.19890353216
    L 653.86633618323,411.19890353216
    Z
  " fill="rgba(255, 255, 255, 0.6)" stroke="rgb(132, 0, 0)" stroke-width="1.1066887249px"/><text class="net-label-text" x="655.85837588805" y="405.2227844177" fill="rgb(132, 0, 0)" text-anchor="start" dominant-baseline="central" font-family="sans-serif" font-variant-numeric="tabular-nums" font-size="9.960198524099999px" transform="">SCL</text><path class="net-label" d="
    M 650.878276626,416.2896716667
    L 653.86633618323,410.31355255223997
    L 679.7112068720613,410.31355255223997
    L 679.7112068720613,422.26579078116
    L 653.86633618323,422.26579078116
    Z
  " fill="rgba(255, 255, 255, 0.6)" stroke="rgb(132, 0, 0)" stroke-width="1.1066887249px"/><text class="net-label-text" x="655.85837588805" y="416.2896716667" fill="rgb(132, 0, 0)" text-anchor="start" dominant-baseline="central" font-family="sans-serif" font-variant-numeric="tabular-nums" font-size="9.960198524099999px" transform="">SDA</text><path class="net-label" d="
    M 650.878276626,515.8916569077
    L 653.86633618323,509.91553779324005
    L 678.6045181471613,509.91553779324005
    L 678.6045181471613,521.86777602216
    L 653.86633618323,521.86777602216
    Z
  " fill="rgba(255, 255, 255, 0.6)" stroke="rgb(132, 0, 0)" stroke-width="1.1066887249px"/><text class="net-label-text" x="655.85837588805" y="515.8916569077" fill="rgb(132, 0, 0)" text-anchor="start" dominant-baseline="central" font-family="sans-serif" font-variant-numeric="tabular-nums" font-size="9.960198524099999px" transform="">SCL</text><path class="net-label" d="
    M 650.878276626,526.9585441567
    L 653.86633618323,520.98242504224
    L 679.7112068720613,520.98242504224
    L 679.7112068720613,532.9346632711599
    L 653.86633618323,532.9346632711599
    Z
  " fill="rgba(255, 255, 255, 0.6)" stroke="rgb(132, 0, 0)" stroke-width="1.1066887249px"/><text class="net-label-text" x="655.85837588805" y="526.9585441567" fill="rgb(132, 0, 0)" text-anchor="start" dominant-baseline="central" font-family="sans-serif" font-variant-numeric="tabular-nums" font-size="9.960198524099999px" transform="">SDA</text><text x="313.33821553150005" y="145.1509340662" fill="#000000" text-anchor="start" dominant-baseline="middle" font-family="sans-serif" font-size="16.6003308735px" transform="rotate(0, 313.33821553150005, 145.1509340662)">VDD Range: 1.71V - 3.6V</text><text x="401.87331352350003" y="366.4886790462" fill="#000000" text-anchor="middle" dominant-baseline="middle" font-family="sans-serif" font-size="5.5334436245px" transform="rotate(0, 401.87331352350003, 366.4886790462)">Cut traces to remove I2C pull-up resistors.</text><text x="650.878276626" y="488.2244387852" fill="#000000" text-anchor="middle" dominant-baseline="middle" font-family="sans-serif" font-size="5.5334436245px" transform="rotate(0, 650.878276626, 488.2244387852)">Cut trace to disconnect Power LED.</text></svg>