<svg xmlns="http://www.w3.org/2000/svg" width="1200" height="600" style="background-color: rgb(245, 241, 237)" data-real-to-screen-transform="matrix(38.9036098227,0,0,-38.9036098227,656.410234243,286.9141224426)" data-software-used-string="@tscircuit/core@0.0.611"><style>
              .boundary { fill: rgb(245, 241, 237); }
              .schematic-boundary { fill: none; stroke: #fff; }
              .component { fill: none; stroke: rgb(132, 0, 0); }
              .chip { fill: rgb(255, 255, 194); stroke: rgb(132, 0, 0); }
              .component-pin { fill: none; stroke: rgb(132, 0, 0); }
              .trace:hover {
                filter: invert(1);
              }
              .trace:hover .trace-crossing-outline {
                opacity: 0;
              }
              .trace:hover .trace-junction {
                filter: invert(1);
              }
              .text { font-family: sans-serif; fill: rgb(0, 150, 0); }
              .pin-number { fill: rgb(169, 0, 0); }
              .port-label { fill: rgb(0, 100, 100); }
              .component-name { fill: rgb(0, 100, 100); }
            </style><rect class="boundary" x="0" y="0" width="1200" height="600"/><g data-circuit-json-type="schematic_component" data-schematic-component-id="schematic_component_0"><rect class="component chip" x="621.39698540257" y="255.79123458444" width="70.02649768086007" height="62.245775716320026" stroke-width="0.7780721964539999px" fill="rgb(255, 255, 194)" stroke="rgb(132, 0, 0)"/><rect class="component-overlay" x="621.39698540257" y="255.79123458444" width="70.02649768086007" height="62.245775716320026" fill="transparent"/><text x="621.39698540257" y="323.094479577711" fill="#006464" text-anchor="start" dominant-baseline="middle" font-family="sans-serif" font-size="7.002649768085999px" transform="rotate(0, 621.39698540257, 323.094479577711)">BME280</text><text x="621.39698540257" y="250.733765307489" fill="#006464" text-anchor="start" dominant-baseline="middle" font-family="sans-serif" font-size="7.002649768085999px" transform="rotate(0, 621.39698540257, 250.733765307489)">U1</text><line class="component-pin" x1="606.613613669944" y1="263.57195654898" x2="621.39698540257" y2="263.57195654898" stroke-width="0.7780721964539999px"/><g data-schematic-port-id="source_port_0"><rect x="605.057469277036" y="262.793884352526" width="1.5561443929079999" height="1.5561443929079999" opacity="0"/></g><text class="pin-number" x="613.61626343803" y="262.793884352526" style="font-family: sans-serif;" fill="rgb(169, 0, 0)" text-anchor="middle" dominant-baseline="auto" font-size="5.835541473405px" transform="">1</text><text class="pin-number" x="625.28734638484" y="263.57195654898" style="font-family: sans-serif;" fill="rgb(169, 0, 0)" text-anchor="start" dominant-baseline="middle" font-size="5.835541473405px" transform="">VDD</text><line class="component-pin" x1="606.613613669944" y1="279.13340047805997" x2="621.39698540257" y2="279.13340047805997" stroke-width="0.7780721964539999px"/><g data-schematic-port-id="source_port_1"><rect x="605.057469277036" y="278.355328281606" width="1.5561443929079999" height="1.5561443929079999" opacity="0"/></g><text class="pin-number" x="613.61626343803" y="278.355328281606" style="font-family: sans-serif;" fill="rgb(169, 0, 0)" text-anchor="middle" dominant-baseline="auto" font-size="5.835541473405px" transform="">2</text><text class="pin-number" x="625.28734638484" y="279.13340047805997" style="font-family: sans-serif;" fill="rgb(169, 0, 0)" text-anchor="start" dominant-baseline="middle" font-size="5.835541473405px" transform="">GND2</text><line class="component-pin" x1="606.613613669944" y1="294.69484440714" x2="621.39698540257" y2="294.69484440714" stroke-width="0.7780721964539999px"/><g data-schematic-port-id="source_port_2"><rect x="605.057469277036" y="293.916772210686" width="1.5561443929079999" height="1.5561443929079999" opacity="0"/></g><text class="pin-number" x="613.61626343803" y="293.916772210686" style="font-family: sans-serif;" fill="rgb(169, 0, 0)" text-anchor="middle" dominant-baseline="auto" font-size="5.835541473405px" transform="">3</text><text class="pin-number" x="625.28734638484" y="294.69484440714" style="font-family: sans-serif;" fill="rgb(169, 0, 0)" text-anchor="start" dominant-baseline="middle" font-size="5.835541473405px" transform="">VDDIO</text><line class="component-pin" x1="606.613613669944" y1="310.25628833622" x2="621.39698540257" y2="310.25628833622" stroke-width="0.7780721964539999px"/><g data-schematic-port-id="source_port_3"><rect x="605.057469277036" y="309.478216139766" width="1.5561443929079999" height="1.5561443929079999" opacity="0"/></g><text class="pin-number" x="613.61626343803" y="309.478216139766" style="font-family: sans-serif;" fill="rgb(169, 0, 0)" text-anchor="middle" dominant-baseline="auto" font-size="5.835541473405px" transform="">4</text><text class="pin-number" x="625.28734638484" y="310.25628833622" style="font-family: sans-serif;" fill="rgb(169, 0, 0)" text-anchor="start" dominant-baseline="middle" font-size="5.835541473405px" transform="">SDO_ADR</text><line class="component-pin" x1="706.206854816056" y1="310.25628833622" x2="691.42348308343" y2="310.25628833622" stroke-width="0.7780721964539999px"/><g data-schematic-port-id="source_port_4"><rect x="706.206854816056" y="309.478216139766" width="1.5561443929079999" height="1.5561443929079999" opacity="0"/></g><text class="pin-number" x="699.2042050479699" y="309.478216139766" style="font-family: sans-serif;" fill="rgb(169, 0, 0)" text-anchor="middle" dominant-baseline="auto" font-size="5.835541473405px" transform="">5</text><text class="pin-number" x="687.53312210116" y="310.25628833622" style="font-family: sans-serif;" fill="rgb(169, 0, 0)" text-anchor="end" dominant-baseline="middle" font-size="5.835541473405px" transform="">SCK_SCL</text><line class="component-pin" x1="706.206854816056" y1="294.69484440714" x2="691.42348308343" y2="294.69484440714" stroke-width="0.7780721964539999px"/><g data-schematic-port-id="source_port_5"><rect x="706.206854816056" y="293.916772210686" width="1.5561443929079999" height="1.5561443929079999" opacity="0"/></g><text class="pin-number" x="699.2042050479699" y="293.91677221068596" style="font-family: sans-serif;" fill="rgb(169, 0, 0)" text-anchor="middle" dominant-baseline="auto" font-size="5.835541473405px" transform="">6</text><text class="pin-number" x="687.53312210116" y="294.69484440714" style="font-family: sans-serif;" fill="rgb(169, 0, 0)" text-anchor="end" dominant-baseline="middle" font-size="5.835541473405px" transform="">SDI_SDA</text><line class="component-pin" x1="706.206854816056" y1="279.13340047805997" x2="691.42348308343" y2="279.13340047805997" stroke-width="0.7780721964539999px"/><g data-schematic-port-id="source_port_6"><rect x="706.206854816056" y="278.355328281606" width="1.5561443929079999" height="1.5561443929079999" opacity="0"/></g><text class="pin-number" x="699.2042050479699" y="278.355328281606" style="font-family: sans-serif;" fill="rgb(169, 0, 0)" text-anchor="middle" dominant-baseline="auto" font-size="5.835541473405px" transform="">7</text><text class="pin-number" x="687.53312210116" y="279.13340047805997" style="font-family: sans-serif; text-decoration: overline;" fill="rgb(169, 0, 0)" text-anchor="end" dominant-baseline="middle" font-size="4.668433178723999px" transform="">CS</text><line class="component-pin" x1="706.206854816056" y1="263.57195654898" x2="691.42348308343" y2="263.57195654898" stroke-width="0.7780721964539999px"/><g data-schematic-port-id="source_port_7"><rect x="706.206854816056" y="262.793884352526" width="1.5561443929079999" height="1.5561443929079999" opacity="0"/></g><text class="pin-number" x="699.2042050479699" y="262.793884352526" style="font-family: sans-serif;" fill="rgb(169, 0, 0)" text-anchor="middle" dominant-baseline="auto" font-size="5.835541473405px" transform="">8</text><text class="pin-number" x="687.53312210116" y="263.57195654898" style="font-family: sans-serif;" fill="rgb(169, 0, 0)" text-anchor="end" dominant-baseline="middle" font-size="5.835541473405px" transform="">GND1</text></g><g data-circuit-json-type="schematic_component" data-schematic-component-id="schematic_component_1"><rect class="component-overlay" x="740.7174242784254" y="204.08901794324356" width="10.293249359163383" height="41.1729857655705" fill="transparent"/><path d="M 745.8640489580071 245.26200370881406 L 745.8640489580071 234.9687582400117" stroke="rgb(132, 0, 0)" fill="none" stroke-width="0.7780721964539999px" stroke-linecap="round"/><path d="M 745.8640489580071 214.3822673024069 L 745.8640489580071 204.08901794324356" stroke="rgb(132, 0, 0)" fill="none" stroke-width="0.7780721964539999px" stroke-linecap="round"/><path d="M 740.7174242784254 224.6755166615703 L 740.7174242784254 214.38227119276792 L 751.0106736375888 214.38227119276792 L 751.0106736375888 234.9687660207337 L 740.7174242784254 234.9687660207337 L 740.7174242784254 224.67551666157036" stroke="rgb(132, 0, 0)" fill="none" stroke-width="0.7780721964539999px" stroke-linecap="round"/><text x="756.5865354606078" y="219.12458232654524" fill="rgb(15, 15, 15)" font-family="sans-serif" text-anchor="start" dominant-baseline="middle" font-size="7.002649768085999px">R1</text><text x="756.5865354606078" y="231.57373746980923" fill="rgb(15, 15, 15)" font-family="sans-serif" text-anchor="start" dominant-baseline="middle" font-size="7.002649768085999px">4.7k立</text></g><g data-circuit-json-type="schematic_component" data-schematic-component-id="schematic_component_2"><rect class="component-overlay" x="759.8191492212444" y="176.07078483499592" width="34.40249717946244" height="18.639431402115292" fill="transparent"/><path d="M 785.5758015223736 189.68244597589887 L 794.2216464007068 189.68244597589887" stroke="rgb(132, 0, 0)" fill="none" stroke-width="0.7780721964539999px" stroke-linecap="round"/><path d="M 759.8191492212444 189.74915399566189 L 768.443853878 189.74915399566189" stroke="rgb(132, 0, 0)" fill="none" stroke-width="0.7780721964539999px" stroke-linecap="round"/><path d="M 772.3614551678679 189.74885054750524 L 775.2641313039592 189.74885054750524" stroke="rgb(132, 0, 0)" fill="none" stroke-width="0.7780721964539999px" stroke-linecap="round"/><path d="M 777.1129008692316 184.71662971332918 L 777.1129008692316 176.07078483499592" stroke="rgb(132, 0, 0)" fill="none" stroke-width="0.7780721964539999px" stroke-linecap="round"/><path d="M 772.3358877154924 194.62863925767402 L 772.3358877154924 184.82545089072525" stroke="rgb(132, 0, 0)" fill="none" stroke-width="0.7780721964539999px" stroke-linecap="round"/><path d="M 775.3351226111636 194.46108530052862 L 775.3351226111636 184.9871265124264" stroke="rgb(132, 0, 0)" fill="none" stroke-width="0.7780721964539999px" stroke-linecap="round"/><path d="M 778.8180266359556 194.47191217514225 L 778.8180266359556 185.0093249121912" stroke="rgb(132, 0, 0)" fill="none" stroke-width="0.7780721964539999px" stroke-linecap="round"/><path d="M 775.4109146238202 194.48945770317235 L 778.7870749239806 194.48945770317235" stroke="rgb(132, 0, 0)" fill="none" stroke-width="0.7780721964539999px" stroke-linecap="round"/><path d="M 775.4184697048478 184.97441281273635 L 778.7730968569713 184.97441281273635" stroke="rgb(132, 0, 0)" fill="none" stroke-width="0.7780721964539999px" stroke-linecap="round"/><path d="M 781.7190688204344 194.63238567529993 L 781.7190688204344 184.82919730835118" stroke="rgb(132, 0, 0)" fill="none" stroke-width="0.7780721964539999px" stroke-linecap="round"/><path d="M 781.8998072109487 184.69843838537608 L 781.8998072109487 184.69843838537608 L 782.5077440097286 185.02627335957698 L 783.0546354676482 185.36612951722566 L 783.5425302220003 185.7167624035995 L 783.9734769100781 186.07692756397574 L 784.3495241691744 186.44538054363176 L 784.6727206365823 186.82087688784486 L 784.9451149495948 187.20217214189233 L 785.1687557455049 187.58802185105156 L 785.3456916616054 187.9771815605998 L 785.4779713351896 188.36840681581438 L 785.5676434035505 188.76045316197263 L 785.6167565039808 189.1520761443519 L 785.6273592737738 189.54203130822947 L 785.6015003502222 189.92907419888266 L 785.5412283706193 190.31196036158877 L 785.448591972258 190.6894453416252 L 785.3256397924312 191.06028468426916 L 785.1744204684319 191.42323393479808 L 784.9969826375532 191.77704863848916 L 784.7953749370881 192.12048434061984 L 784.5716460043295 192.45229658646733 L 784.3278444765706 192.77124092130902 L 784.0660189911042 193.0760728904222 L 783.7882181852233 193.36554803908422 L 783.496490696221 193.63842191257234 L 783.1928851613902 193.89345005616394 L 782.8794502180241 194.1293880151363 L 782.5582345034154 194.34499133476675 L 782.2312866548573 194.53901556033261 L 781.9006553096428 194.7102162371112 L 781.9006553096428 194.7102162371112" stroke="rgb(132, 0, 0)" fill="none" stroke-width="0.7780721964539999px" stroke-linecap="round"/><path d="M 772.1580515342708 184.69350540765058 L 772.1580515342708 184.69350540765058 L 771.5501147354909 185.02134038185147 L 771.0032232775714 185.36119653950016 L 770.5153285232192 185.711829425874 L 770.0843818351415 186.07199458625024 L 769.7083345760451 186.44044756590625 L 769.3851381086372 186.81594391011936 L 769.1127437956247 187.19723916416686 L 768.8891029997146 187.58308887332606 L 768.7121670836141 187.9722485828743 L 768.5798874100299 188.36347383808888 L 768.4902153416691 188.75552018424713 L 768.4411022412387 189.1471431666264 L 768.4304994714458 189.53709833050397 L 768.4563583949973 189.92414122115716 L 768.5166303746003 190.30702738386327 L 768.6092667729616 190.6845123638997 L 768.7322189527883 191.05535170654366 L 768.8834382767876 191.41830095707257 L 769.0608761076663 191.77211566076366 L 769.2624838081314 192.11555136289434 L 769.48621274089 192.44736360874182 L 769.7300142686489 192.7663079435835 L 769.9918397541154 193.0711399126967 L 770.2696405599962 193.36061506135871 L 770.5613680489985 193.63348893484684 L 770.8649735838293 193.88851707843844 L 771.1784085271955 194.1244550374108 L 771.4996242418041 194.34005835704124 L 771.8265720903622 194.5340825826071 L 772.1572034355768 194.7052832593857 L 772.1572034355768 194.7052832593857" stroke="rgb(132, 0, 0)" fill="none" stroke-width="0.7780721964539999px" stroke-linecap="round"/><path d="M 778.8210572271607 189.74885054750524 L 781.7237333632521 189.74885054750524" stroke="rgb(132, 0, 0)" fill="none" stroke-width="0.7780721964539999px" stroke-linecap="round"/><text x="777.8142084627834" y="196.6393041607202" fill="rgb(15, 15, 15)" font-family="sans-serif" text-anchor="middle" dominant-baseline="hanging" font-size="7.002649768085999px">SJ1</text></g><g data-circuit-json-type="schematic_component" data-schematic-component-id="schematic_component_3"><rect class="component-overlay" x="802.9631999947453" y="204.08901794324356" width="10.293249359163383" height="41.1729857655705" fill="transparent"/><path d="M 808.109824674327 245.26200370881406 L 808.109824674327 234.9687582400117" stroke="rgb(132, 0, 0)" fill="none" stroke-width="0.7780721964539999px" stroke-linecap="round"/><path d="M 808.109824674327 214.3822673024069 L 808.109824674327 204.08901794324356" stroke="rgb(132, 0, 0)" fill="none" stroke-width="0.7780721964539999px" stroke-linecap="round"/><path d="M 802.9631999947453 224.6755166615703 L 802.9631999947453 214.38227119276792 L 813.2564493539087 214.38227119276792 L 813.2564493539087 234.9687660207337 L 802.9631999947453 234.9687660207337 L 802.9631999947453 224.67551666157036" stroke="rgb(132, 0, 0)" fill="none" stroke-width="0.7780721964539999px" stroke-linecap="round"/><text x="818.8323111769278" y="219.12458232654524" fill="rgb(15, 15, 15)" font-family="sans-serif" text-anchor="start" dominant-baseline="middle" font-size="7.002649768085999px">R2</text><text x="818.8323111769278" y="231.57373746980923" fill="rgb(15, 15, 15)" font-family="sans-serif" text-anchor="start" dominant-baseline="middle" font-size="7.002649768085999px">4.7k立</text></g><g data-circuit-json-type="schematic_component" data-schematic-component-id="schematic_component_4"><rect class="component-overlay" x="861.4939396820029" y="176.41377187793225" width="10.016710829460635" height="34.281748155294764" fill="transparent"/><path d="M 866.5217099432152 200.59384371991354 L 866.5217099432152 210.695520033227" stroke="rgb(132, 0, 0)" fill="none" stroke-width="0.7780721964539999px" stroke-linecap="round"/><path d="M 866.4550019234522 176.41377187793225 L 866.4550019234522 186.46128658565053" stroke="rgb(132, 0, 0)" fill="none" stroke-width="0.7780721964539999px" stroke-linecap="round"/><path d="M 866.4553053716088 190.9381661703295 L 866.4553053716088 196.11753212793798" stroke="rgb(132, 0, 0)" fill="none" stroke-width="0.7780721964539999px" stroke-linecap="round"/><path d="M 861.57551666144 190.86423764058344 L 871.3787050283888 190.86423764058344" stroke="rgb(132, 0, 0)" fill="none" stroke-width="0.7780721964539999px" stroke-linecap="round"/><path d="M 861.5717702438142 196.19445234527944 L 871.3749586107629 196.19445234527944" stroke="rgb(132, 0, 0)" fill="none" stroke-width="0.7780721964539999px" stroke-linecap="round"/><path d="M 871.505717533738 196.37519073579372 L 871.505717533738 196.37519073579372 L 871.1778825595371 196.98312753457373 L 870.8380264018884 197.5300189924933 L 870.4873935155146 198.01791374684544 L 870.1272283551383 198.44886043492318 L 869.7587753754823 198.82490769401952 L 869.3832790312692 199.1481041614274 L 869.0019837772218 199.42049847443988 L 868.6161340680625 199.64413927034994 L 868.2269743585143 199.82107518645057 L 867.8357491032997 199.95335486003478 L 867.4437027571414 200.04302692839556 L 867.0520797747622 200.0921400288259 L 866.6621246108846 200.10274279861883 L 866.2750817202315 200.07688387506732 L 865.8921955575253 200.0166118954644 L 865.5147105774889 199.92397549710302 L 865.1438712348449 199.80102331727622 L 864.780921984316 199.64980399327698 L 864.4271072806249 199.47236616239832 L 864.0836715784942 199.2707584619332 L 863.7518593326467 199.04702952917467 L 863.432914997805 198.80322800141568 L 863.1280830286919 198.54140251594927 L 862.8386078800298 198.2636017100684 L 862.5657340065418 197.9718742210661 L 862.3107058629502 197.66826868623534 L 862.0747679039778 197.35483374286915 L 861.8591645843474 197.03361802826052 L 861.6651403587815 196.70667017970243 L 861.4939396820029 196.3760388344879 L 861.4939396820029 196.3760388344879" stroke="rgb(132, 0, 0)" fill="none" stroke-width="0.7780721964539999px" stroke-linecap="round"/><path d="M 871.5106505114635 190.6864014593619 L 871.5106505114635 190.6864014593619 L 871.1828155372626 190.0784646605819 L 870.842959379614 189.53157320266232 L 870.4923264932401 189.04367844831015 L 870.1321613328638 188.61273176023244 L 869.7637083532078 188.2366845011361 L 869.3882120089947 187.9134880337282 L 869.0069167549473 187.64109372071573 L 868.621067045788 187.41745292480567 L 868.2319073362398 187.24051700870504 L 867.8406820810252 187.10823733512083 L 867.4486357348669 187.01856526676005 L 867.0570127524877 186.9694521663297 L 866.6670575886101 186.95884939653678 L 866.280014697957 186.9847083200883 L 865.8971285352508 187.04498029969122 L 865.5196435552144 187.1376166980526 L 865.1488042125704 187.2605688778794 L 864.7858549620415 187.4117882018786 L 864.4320402583504 187.5892260327573 L 864.0886045562197 187.7908337332224 L 863.7567923103722 188.01456266598095 L 863.4378479755305 188.25836419373994 L 863.1330160064174 188.52018967920634 L 862.8435408577553 188.7979904850872 L 862.5706669842673 189.08971797408952 L 862.3156388406757 189.39332350892028 L 862.0797008817033 189.70675845228646 L 861.8640975620729 190.0279741668951 L 861.670073336507 190.35492201545318 L 861.4988726597284 190.68555336066774 L 861.4988726597284 190.68555336066774" stroke="rgb(132, 0, 0)" fill="none" stroke-width="0.7780721964539999px" stroke-linecap="round"/><text x="859.5169399283939" y="194.34824263753333" fill="rgb(15, 15, 15)" font-family="sans-serif" text-anchor="end" dominant-baseline="middle" font-size="7.002649768085999px">SJ2</text></g><g data-circuit-json-type="schematic_component" data-schematic-component-id="schematic_component_5"><rect class="component-overlay" x="861.3186147287953" y="219.65046187232358" width="10.293249359163383" height="41.17298576557047" fill="transparent"/><path d="M 866.465239408377 260.82344763789405 L 866.465239408377 250.5302021690917" stroke="rgb(132, 0, 0)" fill="none" stroke-width="0.7780721964539999px" stroke-linecap="round"/><path d="M 866.465239408377 229.9437112314869 L 866.465239408377 219.65046187232358" stroke="rgb(132, 0, 0)" fill="none" stroke-width="0.7780721964539999px" stroke-linecap="round"/><path d="M 861.3186147287953 240.2369605906503 L 861.3186147287953 229.94371512184793 L 871.6118640879587 229.94371512184793 L 871.6118640879587 250.5302099498137 L 861.3186147287953 250.5302099498137 L 861.3186147287953 240.23696059065037" stroke="rgb(132, 0, 0)" fill="none" stroke-width="0.7780721964539999px" stroke-linecap="round"/><text x="877.1877259109777" y="234.68602625562525" fill="rgb(15, 15, 15)" font-family="sans-serif" text-anchor="start" dominant-baseline="middle" font-size="7.002649768085999px">R3</text><text x="877.1877259109777" y="247.13518139888924" fill="rgb(15, 15, 15)" font-family="sans-serif" text-anchor="start" dominant-baseline="middle" font-size="7.002649768085999px">4.7k立</text></g><g data-circuit-json-type="schematic_component" data-schematic-component-id="schematic_component_6"><rect class="component-overlay" x="537.1623933934347" y="317.14464707936884" width="20.58649093760482" height="41.1729857655705" fill="transparent"/><path d="M 547.4556388622372 317.14464707936884 L 547.4556388622372 334.6431639872968" stroke="rgb(132, 0, 0)" fill="none" stroke-width="0.7780721964539999px" stroke-linecap="round"/><path d="M 547.4556388622372 340.81911204665045 L 547.4556388622372 358.31763284493934" stroke="rgb(132, 0, 0)" fill="none" stroke-width="0.7780721964539999px" stroke-linecap="round"/><path d="M 537.1623933934347 334.6431639872968 L 557.7488843310396 334.6431639872968" stroke="rgb(132, 0, 0)" fill="none" stroke-width="0.7780721964539999px" stroke-linecap="round"/><path d="M 537.1623933934347 340.81911204665045 L 557.7488843310396 340.81911204665045" stroke="rgb(132, 0, 0)" fill="none" stroke-width="0.7780721964539999px" stroke-linecap="round"/><text x="556.2765811076605" y="329.81392657757" fill="rgb(15, 15, 15)" font-family="sans-serif" text-anchor="start" dominant-baseline="auto" font-size="7.002649768085999px">C2</text><text x="556.2765811076605" y="345.16370384665" fill="rgb(15, 15, 15)" font-family="sans-serif" text-anchor="start" dominant-baseline="hanging" font-size="7.002649768085999px">100mF</text></g><g data-circuit-json-type="schematic_component" data-schematic-component-id="schematic_component_7"><rect class="component-overlay" x="498.25878357073475" y="317.14464707936884" width="20.586490937604708" height="41.1729857655705" fill="transparent"/><path d="M 508.55202903953705 317.14464707936884 L 508.55202903953705 334.6431639872968" stroke="rgb(132, 0, 0)" fill="none" stroke-width="0.7780721964539999px" stroke-linecap="round"/><path d="M 508.55202903953705 340.81911204665045 L 508.55202903953705 358.31763284493934" stroke="rgb(132, 0, 0)" fill="none" stroke-width="0.7780721964539999px" stroke-linecap="round"/><path d="M 498.25878357073475 334.6431639872968 L 518.8452745083395 334.6431639872968" stroke="rgb(132, 0, 0)" fill="none" stroke-width="0.7780721964539999px" stroke-linecap="round"/><path d="M 498.25878357073475 340.81911204665045 L 518.8452745083395 340.81911204665045" stroke="rgb(132, 0, 0)" fill="none" stroke-width="0.7780721964539999px" stroke-linecap="round"/><text x="517.3729712849604" y="329.81392657757" fill="rgb(15, 15, 15)" font-family="sans-serif" text-anchor="start" dominant-baseline="auto" font-size="7.002649768085999px">C1</text><text x="517.3729712849604" y="345.16370384665" fill="rgb(15, 15, 15)" font-family="sans-serif" text-anchor="start" dominant-baseline="hanging" font-size="7.002649768085999px">100mF</text></g><g data-circuit-json-type="schematic_component" data-schematic-component-id="schematic_component_8"><rect class="component-overlay" x="375.13948615056876" y="230.81823714777437" width="18.639431402115292" height="34.40249717946244" fill="transparent"/><path d="M 380.1672564117811 256.57488944890355 L 380.1672564117811 265.2207343272368" stroke="rgb(132, 0, 0)" fill="none" stroke-width="0.7780721964539999px" stroke-linecap="round"/><path d="M 380.10054839201814 230.81823714777437 L 380.10054839201814 239.44294180453" stroke="rgb(132, 0, 0)" fill="none" stroke-width="0.7780721964539999px" stroke-linecap="round"/><path d="M 380.10085184017476 243.36054309439785 L 380.10085184017476 246.26321923048917" stroke="rgb(132, 0, 0)" fill="none" stroke-width="0.7780721964539999px" stroke-linecap="round"/><path d="M 385.1330726743508 248.1119887957615 L 393.77891755268405 248.1119887957615" stroke="rgb(132, 0, 0)" fill="none" stroke-width="0.7780721964539999px" stroke-linecap="round"/><path d="M 375.221063130006 243.33497564202236 L 385.0242514969547 243.33497564202236" stroke="rgb(132, 0, 0)" fill="none" stroke-width="0.7780721964539999px" stroke-linecap="round"/><path d="M 375.3886170871514 246.33421053769356 L 384.8625758752536 246.33421053769356" stroke="rgb(132, 0, 0)" fill="none" stroke-width="0.7780721964539999px" stroke-linecap="round"/><path d="M 375.3777902125377 249.81711456248556 L 384.84037747548876 249.81711456248556" stroke="rgb(132, 0, 0)" fill="none" stroke-width="0.7780721964539999px" stroke-linecap="round"/><path d="M 375.3602446845077 246.41000255035016 L 375.3602446845077 249.7861628505106" stroke="rgb(132, 0, 0)" fill="none" stroke-width="0.7780721964539999px" stroke-linecap="round"/><path d="M 384.8752895749437 246.41755763137772 L 384.8752895749437 249.77218478350127" stroke="rgb(132, 0, 0)" fill="none" stroke-width="0.7780721964539999px" stroke-linecap="round"/><path d="M 375.21731671238007 252.7181567469643 L 385.0205050793288 252.7181567469643" stroke="rgb(132, 0, 0)" fill="none" stroke-width="0.7780721964539999px" stroke-linecap="round"/><path d="M 385.1512640023039 252.8988951374786 L 385.1512640023039 252.8988951374786 L 384.823429028103 253.5068319362586 L 384.48357287045434 254.05372339417818 L 384.1329399840805 254.54161814853032 L 383.77277482370425 254.97256483660806 L 383.40432184404824 255.34861209570437 L 383.02882549983514 255.67180856311228 L 382.64753024578766 255.94420287612476 L 382.26168053662843 256.1678436720348 L 381.8725208270802 256.34477958813545 L 381.4812955718656 256.47705926171966 L 381.08924922570736 256.5667313300804 L 380.6976262433281 256.6158444305108 L 380.30767107945053 256.6264472003037 L 379.92062818879737 256.6005882767522 L 379.5377420260912 256.5403162971493 L 379.1602570460548 256.4476798987879 L 378.78941770341083 256.32472771896107 L 378.4264684528819 256.17350839496186 L 378.0726537491908 255.9960705640832 L 377.72921804706016 255.7944628636181 L 377.39740580121264 255.57073393085955 L 377.078461466371 255.32693240310056 L 376.7736294972578 255.06510691763413 L 376.4841543485958 254.78730611175328 L 376.2112804751076 254.49557862275097 L 375.95625233151605 254.19197308792022 L 375.72031437254367 253.87853814455403 L 375.50471105291325 253.55732242994537 L 375.31068682734735 253.23037458138728 L 375.13948615056876 252.89974323617275 L 375.13948615056876 252.89974323617275" stroke="rgb(132, 0, 0)" fill="none" stroke-width="0.7780721964539999px" stroke-linecap="round"/><path d="M 385.15619698002945 243.15713946080086 L 385.15619698002945 243.15713946080086 L 384.8283620058285 242.54920266202086 L 384.48850584817984 242.0023112041013 L 384.137872961806 241.51441644974912 L 383.77770780142976 241.08346976167138 L 383.40925482177374 240.70742250257507 L 383.03375847756064 240.3842260351672 L 382.65246322351317 240.1118317221547 L 382.26661351435393 239.88819092624465 L 381.8774538048057 239.71125501014401 L 381.48622854959115 239.5789753365598 L 381.09418220343287 239.48930326819902 L 380.7025592210536 239.44019016776866 L 380.31260405717603 239.42958739797575 L 379.92556116652287 239.45544632152726 L 379.5426750038167 239.5157183011302 L 379.1651900237803 239.60835469949157 L 378.79435068113634 239.73130687931837 L 378.4314014306074 239.88252620331758 L 378.0775867269163 240.05996403419627 L 377.73415102478566 240.26157173466137 L 377.40233877893814 240.48530066741992 L 377.0833944440965 240.7291021951789 L 376.7785624749833 240.9909276806453 L 376.4890873263213 241.2687284865262 L 376.21621345283313 241.5604559755285 L 375.96118530924156 241.86406151035925 L 375.72524735026917 242.17749645372544 L 375.50964403063875 242.49871216833407 L 375.31561980507286 242.82566001689216 L 375.1444191282943 243.1562913621067 L 375.1444191282943 243.1562913621067" stroke="rgb(132, 0, 0)" fill="none" stroke-width="0.7780721964539999px" stroke-linecap="round"/><text x="373.1624863969598" y="248.81329638931334" fill="rgb(15, 15, 15)" font-family="sans-serif" text-anchor="end" dominant-baseline="middle" font-size="7.002649768085999px">SJ3</text></g><g data-circuit-json-type="schematic_component" data-schematic-component-id="schematic_component_9"><rect class="component-overlay" x="375.02349194504535" y="176.85649106735357" width="10.293249359163383" height="41.1729857655705" fill="transparent"/><path d="M 380.17011662462704 218.02947683292408 L 380.17011662462704 207.7362313641217" stroke="rgb(132, 0, 0)" fill="none" stroke-width="0.7780721964539999px" stroke-linecap="round"/><path d="M 380.17011662462704 187.1497404265169 L 380.17011662462704 176.85649106735357" stroke="rgb(132, 0, 0)" fill="none" stroke-width="0.7780721964539999px" stroke-linecap="round"/><path d="M 375.0234919450454 197.4429897856803 L 375.0234919450454 187.14974431687793 L 385.31674130420873 187.14974431687793 L 385.31674130420873 207.7362391448437 L 375.02349194504535 207.7362391448437 L 375.0234919450454 197.44298978568037" stroke="rgb(132, 0, 0)" fill="none" stroke-width="0.7780721964539999px" stroke-linecap="round"/><text x="390.8926031272278" y="191.89205545065525" fill="rgb(15, 15, 15)" font-family="sans-serif" text-anchor="start" dominant-baseline="middle" font-size="7.002649768085999px">R4</text><text x="390.8926031272278" y="204.34121059391924" fill="rgb(15, 15, 15)" font-family="sans-serif" text-anchor="start" dominant-baseline="middle" font-size="7.002649768085999px">4.7k立</text></g><g data-circuit-json-type="schematic_component" data-schematic-component-id="schematic_component_10"><rect class="component chip" x="294.60666289189" y="500.88397646745" width="23.342165893620063" height="38.90360982269999" stroke-width="0.7780721964539999px" fill="rgb(255, 255, 194)" stroke="rgb(132, 0, 0)"/><rect class="component-overlay" x="294.60666289189" y="500.88397646745" width="23.342165893620063" height="38.90360982269999" fill="transparent"/><text x="294.60666289189" y="544.845055567101" fill="#006464" text-anchor="start" dominant-baseline="middle" font-family="sans-serif" font-size="7.002649768085999px" transform="rotate(0, 294.60666289189, 544.845055567101)"></text><text x="294.60666289189" y="495.826507190499" fill="#006464" text-anchor="start" dominant-baseline="middle" font-family="sans-serif" font-size="7.002649768085999px" transform="rotate(0, 294.60666289189, 495.826507190499)">JP1</text><line class="component-pin" x1="332.732200518136" y1="532.00686432561" x2="317.94882878551" y2="532.00686432561" stroke-width="0.7780721964539999px"/><g data-schematic-port-id="source_port_28"><rect x="332.732200518136" y="531.228792129156" width="1.5561443929079999" height="1.5561443929079999" opacity="0"/></g><text class="pin-number" x="325.72955075005" y="531.228792129156" style="font-family: sans-serif;" fill="rgb(169, 0, 0)" text-anchor="middle" dominant-baseline="auto" font-size="5.835541473405px" transform="">1</text><text class="pin-number" x="314.05846780324" y="532.00686432561" style="font-family: sans-serif;" fill="rgb(169, 0, 0)" text-anchor="end" dominant-baseline="middle" font-size="5.835541473405px" transform="">GND</text><line class="component-pin" x1="332.732200518136" y1="524.22614236107" x2="317.94882878551" y2="524.22614236107" stroke-width="0.7780721964539999px"/><g data-schematic-port-id="source_port_29"><rect x="332.732200518136" y="523.448070164616" width="1.5561443929079999" height="1.5561443929079999" opacity="0"/></g><text class="pin-number" x="325.72955075005" y="523.448070164616" style="font-family: sans-serif;" fill="rgb(169, 0, 0)" text-anchor="middle" dominant-baseline="auto" font-size="5.835541473405px" transform="">2</text><text class="pin-number" x="314.05846780324" y="524.22614236107" style="font-family: sans-serif;" fill="rgb(169, 0, 0)" text-anchor="end" dominant-baseline="middle" font-size="5.835541473405px" transform="">VCC</text><line class="component-pin" x1="332.732200518136" y1="516.4454203965299" x2="317.94882878551" y2="516.4454203965299" stroke-width="0.7780721964539999px"/><g data-schematic-port-id="source_port_30"><rect x="332.732200518136" y="515.6673482000759" width="1.5561443929079999" height="1.5561443929079999" opacity="0"/></g><text class="pin-number" x="325.72955075005" y="515.667348200076" style="font-family: sans-serif;" fill="rgb(169, 0, 0)" text-anchor="middle" dominant-baseline="auto" font-size="5.835541473405px" transform="">3</text><text class="pin-number" x="314.05846780324" y="516.4454203965299" style="font-family: sans-serif;" fill="rgb(169, 0, 0)" text-anchor="end" dominant-baseline="middle" font-size="5.835541473405px" transform="">SDA</text><line class="component-pin" x1="332.732200518136" y1="508.66469843199" x2="317.94882878551" y2="508.66469843199" stroke-width="0.7780721964539999px"/><g data-schematic-port-id="source_port_31"><rect x="332.732200518136" y="507.886626235536" width="1.5561443929079999" height="1.5561443929079999" opacity="0"/></g><text class="pin-number" x="325.72955075005" y="507.886626235536" style="font-family: sans-serif;" fill="rgb(169, 0, 0)" text-anchor="middle" dominant-baseline="auto" font-size="5.835541473405px" transform="">4</text><text class="pin-number" x="314.05846780324" y="508.66469843199" style="font-family: sans-serif;" fill="rgb(169, 0, 0)" text-anchor="end" dominant-baseline="middle" font-size="5.835541473405px" transform="">SCL</text></g><g data-circuit-json-type="schematic_component" data-schematic-component-id="schematic_component_11"><rect class="component chip" x="489.12471200539" y="493.10325450291" width="23.342165893620006" height="54.46505375178003" stroke-width="0.7780721964539999px" fill="rgb(255, 255, 194)" stroke="rgb(132, 0, 0)"/><rect class="component-overlay" x="489.12471200539" y="493.10325450291" width="23.342165893620006" height="54.46505375178003" fill="transparent"/><text x="489.12471200539" y="552.625777531641" fill="#006464" text-anchor="start" dominant-baseline="middle" font-family="sans-serif" font-size="7.002649768085999px" transform="rotate(0, 489.12471200539, 552.625777531641)"></text><text x="489.12471200539" y="488.045785225959" fill="#006464" text-anchor="start" dominant-baseline="middle" font-family="sans-serif" font-size="7.002649768085999px" transform="rotate(0, 489.12471200539, 488.045785225959)">JP2</text><line class="component-pin" x1="527.250249631636" y1="539.78758629015" x2="512.46687789901" y2="539.78758629015" stroke-width="0.7780721964539999px"/><g data-schematic-port-id="source_port_32"><rect x="527.250249631636" y="539.009514093696" width="1.5561443929079999" height="1.5561443929079999" opacity="0"/></g><text class="pin-number" x="520.24759986355" y="539.009514093696" style="font-family: sans-serif;" fill="rgb(169, 0, 0)" text-anchor="middle" dominant-baseline="auto" font-size="5.835541473405px" transform="">1</text><line class="component-pin" x1="527.250249631636" y1="532.00686432561" x2="512.46687789901" y2="532.00686432561" stroke-width="0.7780721964539999px"/><g data-schematic-port-id="source_port_33"><rect x="527.250249631636" y="531.228792129156" width="1.5561443929079999" height="1.5561443929079999" opacity="0"/></g><text class="pin-number" x="520.24759986355" y="531.228792129156" style="font-family: sans-serif;" fill="rgb(169, 0, 0)" text-anchor="middle" dominant-baseline="auto" font-size="5.835541473405px" transform="">2</text><line class="component-pin" x1="527.250249631636" y1="524.22614236107" x2="512.46687789901" y2="524.22614236107" stroke-width="0.7780721964539999px"/><g data-schematic-port-id="source_port_34"><rect x="527.250249631636" y="523.448070164616" width="1.5561443929079999" height="1.5561443929079999" opacity="0"/></g><text class="pin-number" x="520.24759986355" y="523.448070164616" style="font-family: sans-serif;" fill="rgb(169, 0, 0)" text-anchor="middle" dominant-baseline="auto" font-size="5.835541473405px" transform="">3</text><line class="component-pin" x1="527.250249631636" y1="516.4454203965299" x2="512.46687789901" y2="516.4454203965299" stroke-width="0.7780721964539999px"/><g data-schematic-port-id="source_port_35"><rect x="527.250249631636" y="515.6673482000759" width="1.5561443929079999" height="1.5561443929079999" opacity="0"/></g><text class="pin-number" x="520.24759986355" y="515.667348200076" style="font-family: sans-serif;" fill="rgb(169, 0, 0)" text-anchor="middle" dominant-baseline="auto" font-size="5.835541473405px" transform="">4</text><line class="component-pin" x1="527.250249631636" y1="508.66469843199" x2="512.46687789901" y2="508.66469843199" stroke-width="0.7780721964539999px"/><g data-schematic-port-id="source_port_36"><rect x="527.250249631636" y="507.886626235536" width="1.5561443929079999" height="1.5561443929079999" opacity="0"/></g><text class="pin-number" x="520.24759986355" y="507.886626235536" style="font-family: sans-serif;" fill="rgb(169, 0, 0)" text-anchor="middle" dominant-baseline="auto" font-size="5.835541473405px" transform="">5</text><line class="component-pin" x1="527.250249631636" y1="500.88397646745" x2="512.46687789901" y2="500.88397646745" stroke-width="0.7780721964539999px"/><g data-schematic-port-id="source_port_37"><rect x="527.250249631636" y="500.105904270996" width="1.5561443929079999" height="1.5561443929079999" opacity="0"/></g><text class="pin-number" x="520.24759986355" y="500.105904270996" style="font-family: sans-serif;" fill="rgb(169, 0, 0)" text-anchor="middle" dominant-baseline="auto" font-size="5.835541473405px" transform="">6</text></g><g class="trace" data-circuit-json-type="schematic_trace" data-schematic-trace-id="schematic_trace_0"><path d="M 706.98492701251 263.57195654898 L 726.43673192386 263.57195654898 L 726.43673192386 364.721342088" class="trace-invisible-hover-outline" stroke="rgb(0, 150, 0)" fill="none" stroke-width="6.2245775716319995px" stroke-linecap="round" opacity="0" stroke-linejoin="round"/><path d="M 706.98492701251 263.57195654898 L 726.43673192386 263.57195654898 L 726.43673192386 364.721342088" stroke="rgb(0, 150, 0)" fill="none" stroke-width="0.7780721964539999px" stroke-linecap="round" stroke-linejoin="round"/></g><g class="trace" data-circuit-json-type="schematic_trace" data-schematic-trace-id="schematic_trace_1"><path d="M 706.98492701251 279.13340047805997 L 889.8318931792 279.13340047805997 L 889.8318931792 279.13340047805997" class="trace-invisible-hover-outline" stroke="rgb(0, 150, 0)" fill="none" stroke-width="6.2245775716319995px" stroke-linecap="round" opacity="0" stroke-linejoin="round"/><path d="M 706.98492701251 279.13340047805997 L 889.8318931792 279.13340047805997 L 889.8318931792 279.13340047805997" stroke="rgb(0, 150, 0)" fill="none" stroke-width="0.7780721964539999px" stroke-linecap="round" stroke-linejoin="round"/></g><g class="trace" data-circuit-json-type="schematic_trace" data-schematic-trace-id="schematic_trace_2"><path d="M 706.98492701251 294.69484440714 L 889.8318931792 294.69484440714 L 889.8318931792 294.69484440714" class="trace-invisible-hover-outline" stroke="rgb(0, 150, 0)" fill="none" stroke-width="6.2245775716319995px" stroke-linecap="round" opacity="0" stroke-linejoin="round"/><path d="M 706.98492701251 294.69484440714 L 889.8318931792 294.69484440714 L 889.8318931792 294.69484440714" stroke="rgb(0, 150, 0)" fill="none" stroke-width="0.7780721964539999px" stroke-linecap="round" stroke-linejoin="round"/></g><g class="trace" data-circuit-json-type="schematic_trace" data-schematic-trace-id="schematic_trace_3"><path d="M 706.98492701251 310.25628833622 L 889.8318931792 310.25628833622" class="trace-invisible-hover-outline" stroke="rgb(0, 150, 0)" fill="none" stroke-width="6.2245775716319995px" stroke-linecap="round" opacity="0" stroke-linejoin="round"/><path d="M 706.98492701251 310.25628833622 L 889.8318931792 310.25628833622" stroke="rgb(0, 150, 0)" fill="none" stroke-width="0.7780721964539999px" stroke-linecap="round" stroke-linejoin="round"/></g><g class="trace" data-circuit-json-type="schematic_trace" data-schematic-trace-id="schematic_trace_4"><path class="trace-crossing-outline" d="M 745.877906423826 277.67451510970875 Q 743.8354669081342 279.13340047806 745.877906423826 280.59228584641124" stroke="rgb(245, 241, 237)" fill="none" stroke-width="1.1671082946809999px" stroke-linecap="round"/><path d="M 745.877906423826 277.67451510970875 Q 743.8354669081342 279.13340047806 745.877906423826 280.59228584641124" stroke="rgb(0, 150, 0)" fill="none" stroke-width="0.7780721964539999px" stroke-linecap="round"/><path class="trace-crossing-outline" d="M 727.8956172922112 294.69484440714 Q 726.43673192386 292.6524048914482 724.9778465555087 294.69484440714" stroke="rgb(245, 241, 237)" fill="none" stroke-width="1.1671082946809999px" stroke-linecap="round"/><path d="M 727.8956172922112 294.69484440714 Q 726.43673192386 292.6524048914482 724.9778465555087 294.69484440714" stroke="rgb(0, 150, 0)" fill="none" stroke-width="0.7780721964539999px" stroke-linecap="round"/><path d="M 745.877906423826 246.11554501796317 L 745.877906423826 277.67451510970875M 745.877906423826 280.59228584641124 L 745.877906423826 294.69484440714 L 727.8956172922112 294.69484440714M 724.9778465555087 294.69484440714 L 706.98492701251 294.69484440714" class="trace-invisible-hover-outline" stroke="rgb(0, 150, 0)" fill="none" stroke-width="6.2245775716319995px" stroke-linecap="round" opacity="0" stroke-linejoin="round"/><path d="M 745.877906423826 246.11554501796317 L 745.877906423826 277.67451510970875M 745.877906423826 280.59228584641124 L 745.877906423826 294.69484440714 L 727.8956172922112 294.69484440714M 724.9778465555087 294.69484440714 L 706.98492701251 294.69484440714" stroke="rgb(0, 150, 0)" fill="none" stroke-width="0.7780721964539999px" stroke-linecap="round" stroke-linejoin="round"/><circle cx="745.877906423826" cy="294.69484440714" r="1.1671082946809999" class="trace-junction" fill="rgb(0, 150, 0)"/></g><g class="trace" data-circuit-json-type="schematic_trace" data-schematic-trace-id="schematic_trace_5"><path d="M 794.3546850752175 189.71684843806506 L 808.144942962914 189.71684843806506 L 808.144942962914 203.2211484345968" class="trace-invisible-hover-outline" stroke="rgb(0, 150, 0)" fill="none" stroke-width="6.2245775716319995px" stroke-linecap="round" opacity="0" stroke-linejoin="round"/><path d="M 794.3546850752175 189.71684843806506 L 808.144942962914 189.71684843806506 L 808.144942962914 203.2211484345968" stroke="rgb(0, 150, 0)" fill="none" stroke-width="0.7780721964539999px" stroke-linecap="round" stroke-linejoin="round"/></g><g class="trace" data-circuit-json-type="schematic_trace" data-schematic-trace-id="schematic_trace_6"><path d="M 759.6681643115224 189.71200882900314 L 745.8991672465941 189.71200882900314 L 745.8991672465941 203.2211484345968" class="trace-invisible-hover-outline" stroke="rgb(0, 150, 0)" fill="none" stroke-width="6.2245775716319995px" stroke-linecap="round" opacity="0" stroke-linejoin="round"/><path d="M 759.6681643115224 189.71200882900314 L 745.8991672465941 189.71200882900314 L 745.8991672465941 203.2211484345968" stroke="rgb(0, 150, 0)" fill="none" stroke-width="0.7780721964539999px" stroke-linecap="round" stroke-linejoin="round"/></g><g class="trace" data-circuit-json-type="schematic_trace" data-schematic-trace-id="schematic_trace_7"><path d="M 777.1473072217588 175.93772281831934 L 777.01142469337 175.93772281831934 L 777.01142469337 166.31293199223" class="trace-invisible-hover-outline" stroke="rgb(0, 150, 0)" fill="none" stroke-width="6.2245775716319995px" stroke-linecap="round" opacity="0" stroke-linejoin="round"/><path d="M 777.1473072217588 175.93772281831934 L 777.01142469337 175.93772281831934 L 777.01142469337 166.31293199223" stroke="rgb(0, 150, 0)" fill="none" stroke-width="0.7780721964539999px" stroke-linecap="round" stroke-linejoin="round"/></g><g class="trace" data-circuit-json-type="schematic_trace" data-schematic-trace-id="schematic_trace_8"><path class="trace-crossing-outline" d="M 808.123682140146 277.67451510970875 Q 806.0812426244543 279.13340047806 808.123682140146 280.59228584641124" stroke="rgb(245, 241, 237)" fill="none" stroke-width="1.1671082946809999px" stroke-linecap="round"/><path d="M 808.123682140146 277.67451510970875 Q 806.0812426244543 279.13340047806 808.123682140146 280.59228584641124" stroke="rgb(0, 150, 0)" fill="none" stroke-width="0.7780721964539999px" stroke-linecap="round"/><path class="trace-crossing-outline" d="M 808.123682140146 293.23595903878874 Q 806.0812426244543 294.69484440713995 808.123682140146 296.15372977549123" stroke="rgb(245, 241, 237)" fill="none" stroke-width="1.1671082946809999px" stroke-linecap="round"/><path d="M 808.123682140146 293.23595903878874 Q 806.0812426244543 294.69484440713995 808.123682140146 296.15372977549123" stroke="rgb(0, 150, 0)" fill="none" stroke-width="0.7780721964539999px" stroke-linecap="round"/><path class="trace-crossing-outline" d="M 727.8956172922112 310.25628833622 Q 726.43673192386 308.2138488205282 724.9778465555087 310.25628833622" stroke="rgb(245, 241, 237)" fill="none" stroke-width="1.1671082946809999px" stroke-linecap="round"/><path d="M 727.8956172922112 310.25628833622 Q 726.43673192386 308.2138488205282 724.9778465555087 310.25628833622" stroke="rgb(0, 150, 0)" fill="none" stroke-width="0.7780721964539999px" stroke-linecap="round"/><path d="M 808.123682140146 246.11554501796317 L 808.123682140146 277.67451510970875M 808.123682140146 280.59228584641124 L 808.123682140146 293.23595903878874M 808.123682140146 296.15372977549123 L 808.123682140146 310.25628833622 L 727.8956172922112 310.25628833622M 724.9778465555087 310.25628833622 L 706.98492701251 310.25628833622" class="trace-invisible-hover-outline" stroke="rgb(0, 150, 0)" fill="none" stroke-width="6.2245775716319995px" stroke-linecap="round" opacity="0" stroke-linejoin="round"/><path d="M 808.123682140146 246.11554501796317 L 808.123682140146 277.67451510970875M 808.123682140146 280.59228584641124 L 808.123682140146 293.23595903878874M 808.123682140146 296.15372977549123 L 808.123682140146 310.25628833622 L 727.8956172922112 310.25628833622M 724.9778465555087 310.25628833622 L 706.98492701251 310.25628833622" stroke="rgb(0, 150, 0)" fill="none" stroke-width="0.7780721964539999px" stroke-linecap="round" stroke-linejoin="round"/><circle cx="808.123682140146" cy="310.25628833622" r="1.1671082946809999" class="trace-junction" fill="rgb(0, 150, 0)"/></g><g class="trace" data-circuit-json-type="schematic_trace" data-schematic-trace-id="schematic_trace_9"><path d="M 866.487307481049 210.8887192499675 L 866.487307481049 214.83565580682216 L 866.500357696964 214.83565580682216 L 866.500357696964 218.78259236367683" class="trace-invisible-hover-outline" stroke="rgb(0, 150, 0)" fill="none" stroke-width="6.2245775716319995px" stroke-linecap="round" opacity="0" stroke-linejoin="round"/><path d="M 866.487307481049 210.8887192499675 L 866.487307481049 214.83565580682216 L 866.500357696964 214.83565580682216 L 866.500357696964 218.78259236367683" stroke="rgb(0, 150, 0)" fill="none" stroke-width="0.7780721964539999px" stroke-linecap="round" stroke-linejoin="round"/></g><g class="trace" data-circuit-json-type="schematic_trace" data-schematic-trace-id="schematic_trace_10"><path d="M 866.492147090111 176.20219848627247 L 866.48972728558 176.20219848627247 L 866.48972728558 166.31293199223" class="trace-invisible-hover-outline" stroke="rgb(0, 150, 0)" fill="none" stroke-width="6.2245775716319995px" stroke-linecap="round" opacity="0" stroke-linejoin="round"/><path d="M 866.492147090111 176.20219848627247 L 866.48972728558 176.20219848627247 L 866.48972728558 166.31293199223" stroke="rgb(0, 150, 0)" fill="none" stroke-width="0.7780721964539999px" stroke-linecap="round" stroke-linejoin="round"/></g><g class="trace" data-circuit-json-type="schematic_trace" data-schematic-trace-id="schematic_trace_11"><path class="trace-crossing-outline" d="M 809.5825675084973 279.13340047805997 Q 808.123682140146 277.0909609623682 806.6647967717947 279.13340047805997" stroke="rgb(245, 241, 237)" fill="none" stroke-width="1.1671082946809999px" stroke-linecap="round"/><path d="M 809.5825675084973 279.13340047805997 Q 808.123682140146 277.0909609623682 806.6647967717947 279.13340047805997" stroke="rgb(0, 150, 0)" fill="none" stroke-width="0.7780721964539999px" stroke-linecap="round"/><path class="trace-crossing-outline" d="M 747.3367917921772 279.13340047805997 Q 745.877906423826 277.0909609623682 744.4190210554747 279.13340047805997" stroke="rgb(245, 241, 237)" fill="none" stroke-width="1.1671082946809999px" stroke-linecap="round"/><path d="M 747.3367917921772 279.13340047805997 Q 745.877906423826 277.0909609623682 744.4190210554747 279.13340047805997" stroke="rgb(0, 150, 0)" fill="none" stroke-width="0.7780721964539999px" stroke-linecap="round"/><path class="trace-crossing-outline" d="M 727.8956172922112 279.13340047805997 Q 726.43673192386 277.0909609623682 724.9778465555087 279.13340047805997" stroke="rgb(245, 241, 237)" fill="none" stroke-width="1.1671082946809999px" stroke-linecap="round"/><path d="M 727.8956172922112 279.13340047805997 Q 726.43673192386 277.0909609623682 724.9778465555087 279.13340047805997" stroke="rgb(0, 150, 0)" fill="none" stroke-width="0.7780721964539999px" stroke-linecap="round"/><path d="M 866.479096874196 261.6769889470432 L 866.479096874196 279.13340047805997 L 809.5825675084973 279.13340047805997M 806.6647967717947 279.13340047805997 L 747.3367917921772 279.13340047805997M 744.4190210554747 279.13340047805997 L 727.8956172922112 279.13340047805997M 724.9778465555087 279.13340047805997 L 706.98492701251 279.13340047805997" class="trace-invisible-hover-outline" stroke="rgb(0, 150, 0)" fill="none" stroke-width="6.2245775716319995px" stroke-linecap="round" opacity="0" stroke-linejoin="round"/><path d="M 866.479096874196 261.6769889470432 L 866.479096874196 279.13340047805997 L 809.5825675084973 279.13340047805997M 806.6647967717947 279.13340047805997 L 747.3367917921772 279.13340047805997M 744.4190210554747 279.13340047805997 L 727.8956172922112 279.13340047805997M 724.9778465555087 279.13340047805997 L 706.98492701251 279.13340047805997" stroke="rgb(0, 150, 0)" fill="none" stroke-width="0.7780721964539999px" stroke-linecap="round" stroke-linejoin="round"/><circle cx="866.479096874196" cy="279.13340047805997" r="1.1671082946809999" class="trace-junction" fill="rgb(0, 150, 0)"/></g><g class="trace" data-circuit-json-type="schematic_trace" data-schematic-trace-id="schematic_trace_12"><path d="M 605.83554147349 279.13340047805997 L 586.38373656214 279.13340047805997 L 586.38373656214 364.721342088" class="trace-invisible-hover-outline" stroke="rgb(0, 150, 0)" fill="none" stroke-width="6.2245775716319995px" stroke-linecap="round" opacity="0" stroke-linejoin="round"/><path d="M 605.83554147349 279.13340047805997 L 586.38373656214 279.13340047805997 L 586.38373656214 364.721342088" stroke="rgb(0, 150, 0)" fill="none" stroke-width="0.7780721964539999px" stroke-linecap="round" stroke-linejoin="round"/></g><g class="trace" data-circuit-json-type="schematic_trace" data-schematic-trace-id="schematic_trace_13"><path d="M 547.490761041185 358.93284674995357 L 547.48012673944 358.93284674995357 L 547.48012673944 364.721342088" class="trace-invisible-hover-outline" stroke="rgb(0, 150, 0)" fill="none" stroke-width="6.2245775716319995px" stroke-linecap="round" opacity="0" stroke-linejoin="round"/><path d="M 547.490761041185 358.93284674995357 L 547.48012673944 358.93284674995357 L 547.48012673944 364.721342088" stroke="rgb(0, 150, 0)" fill="none" stroke-width="0.7780721964539999px" stroke-linecap="round" stroke-linejoin="round"/></g><g class="trace" data-circuit-json-type="schematic_trace" data-schematic-trace-id="schematic_trace_14"><path d="M 547.469492437695 316.0447836742664 L 547.48012673944 316.0447836742664 L 547.48012673944 240.22979065535998" class="trace-invisible-hover-outline" stroke="rgb(0, 150, 0)" fill="none" stroke-width="6.2245775716319995px" stroke-linecap="round" opacity="0" stroke-linejoin="round"/><path d="M 547.469492437695 316.0447836742664 L 547.48012673944 316.0447836742664 L 547.48012673944 240.22979065535998" stroke="rgb(0, 150, 0)" fill="none" stroke-width="0.7780721964539999px" stroke-linecap="round" stroke-linejoin="round"/></g><g class="trace" data-circuit-json-type="schematic_trace" data-schematic-trace-id="schematic_trace_15"><path d="M 605.83554147349 263.57195654898 L 547.48012673944 263.57195654898 L 547.48012673944 240.22979065535998" class="trace-invisible-hover-outline" stroke="rgb(0, 150, 0)" fill="none" stroke-width="6.2245775716319995px" stroke-linecap="round" opacity="0" stroke-linejoin="round"/><path d="M 605.83554147349 263.57195654898 L 547.48012673944 263.57195654898 L 547.48012673944 240.22979065535998" stroke="rgb(0, 150, 0)" fill="none" stroke-width="0.7780721964539999px" stroke-linecap="round" stroke-linejoin="round"/></g><g class="trace" data-circuit-json-type="schematic_trace" data-schematic-trace-id="schematic_trace_16"><path d="M 508.587151218485 358.93284674995357 L 508.57651691674 358.93284674995357 L 508.57651691674 364.721342088" class="trace-invisible-hover-outline" stroke="rgb(0, 150, 0)" fill="none" stroke-width="6.2245775716319995px" stroke-linecap="round" opacity="0" stroke-linejoin="round"/><path d="M 508.587151218485 358.93284674995357 L 508.57651691674 358.93284674995357 L 508.57651691674 364.721342088" stroke="rgb(0, 150, 0)" fill="none" stroke-width="0.7780721964539999px" stroke-linecap="round" stroke-linejoin="round"/></g><g class="trace" data-circuit-json-type="schematic_trace" data-schematic-trace-id="schematic_trace_17"><path d="M 508.56588261499496 316.0447836742664 L 508.57651691674 316.0447836742664 L 508.57651691674 240.22979065535998" class="trace-invisible-hover-outline" stroke="rgb(0, 150, 0)" fill="none" stroke-width="6.2245775716319995px" stroke-linecap="round" opacity="0" stroke-linejoin="round"/><path d="M 508.56588261499496 316.0447836742664 L 508.57651691674 316.0447836742664 L 508.57651691674 240.22979065535998" stroke="rgb(0, 150, 0)" fill="none" stroke-width="0.7780721964539999px" stroke-linecap="round" stroke-linejoin="round"/></g><g class="trace" data-circuit-json-type="schematic_trace" data-schematic-trace-id="schematic_trace_18"><path d="M 605.83554147349 294.69484440714 L 508.57651691674 294.69484440714 L 508.57651691674 240.22979065535998" class="trace-invisible-hover-outline" stroke="rgb(0, 150, 0)" fill="none" stroke-width="6.2245775716319995px" stroke-linecap="round" opacity="0" stroke-linejoin="round"/><path d="M 605.83554147349 294.69484440714 L 508.57651691674 294.69484440714 L 508.57651691674 240.22979065535998" stroke="rgb(0, 150, 0)" fill="none" stroke-width="0.7780721964539999px" stroke-linecap="round" stroke-linejoin="round"/></g><g class="trace" data-circuit-json-type="schematic_trace" data-schematic-trace-id="schematic_trace_19"><path d="M 605.83554147349 310.25628833622 L 446.33074120042 310.25628833622" class="trace-invisible-hover-outline" stroke="rgb(0, 150, 0)" fill="none" stroke-width="6.2245775716319995px" stroke-linecap="round" opacity="0" stroke-linejoin="round"/><path d="M 605.83554147349 310.25628833622 L 446.33074120042 310.25628833622" stroke="rgb(0, 150, 0)" fill="none" stroke-width="0.7780721964539999px" stroke-linecap="round" stroke-linejoin="round"/></g><g class="trace" data-circuit-json-type="schematic_trace" data-schematic-trace-id="schematic_trace_20"><path d="M 393.91197956936065 248.14639514828872 L 446.33074120042 248.14639514828872 L 446.33074120042 310.25628833622" class="trace-invisible-hover-outline" stroke="rgb(0, 150, 0)" fill="none" stroke-width="6.2245775716319995px" stroke-linecap="round" opacity="0" stroke-linejoin="round"/><path d="M 393.91197956936065 248.14639514828872 L 446.33074120042 248.14639514828872 L 446.33074120042 310.25628833622" stroke="rgb(0, 150, 0)" fill="none" stroke-width="0.7780721964539999px" stroke-linecap="round" stroke-linejoin="round"/></g><g class="trace" data-circuit-json-type="schematic_trace" data-schematic-trace-id="schematic_trace_21"><path d="M 380.13769355867686 230.66725223805247 L 380.13769355867686 218.88301814207318" class="trace-invisible-hover-outline" stroke="rgb(0, 150, 0)" fill="none" stroke-width="6.2245775716319995px" stroke-linecap="round" opacity="0" stroke-linejoin="round"/><path d="M 380.13769355867686 230.66725223805247 L 380.13769355867686 218.88301814207318" stroke="rgb(0, 150, 0)" fill="none" stroke-width="0.7780721964539999px" stroke-linecap="round" stroke-linejoin="round"/></g><g class="trace" data-circuit-json-type="schematic_trace" data-schematic-trace-id="schematic_trace_22"><path d="M 380.1328539496149 265.3537730017475 L 380.19460450183004 265.3537730017475 L 380.19460450183004 279.13340047805997" class="trace-invisible-hover-outline" stroke="rgb(0, 150, 0)" fill="none" stroke-width="6.2245775716319995px" stroke-linecap="round" opacity="0" stroke-linejoin="round"/><path d="M 380.1328539496149 265.3537730017475 L 380.19460450183004 265.3537730017475 L 380.19460450183004 279.13340047805997" stroke="rgb(0, 150, 0)" fill="none" stroke-width="0.7780721964539999px" stroke-linecap="round" stroke-linejoin="round"/></g><g class="trace" data-circuit-json-type="schematic_trace" data-schematic-trace-id="schematic_trace_23"><path d="M 380.20523491321404 175.98862155870682 L 380.19460450183004 175.98862155870682 L 380.19460450183004 162.42257100996" class="trace-invisible-hover-outline" stroke="rgb(0, 150, 0)" fill="none" stroke-width="6.2245775716319995px" stroke-linecap="round" opacity="0" stroke-linejoin="round"/><path d="M 380.20523491321404 175.98862155870682 L 380.19460450183004 175.98862155870682 L 380.19460450183004 162.42257100996" stroke="rgb(0, 150, 0)" fill="none" stroke-width="0.7780721964539999px" stroke-linecap="round" stroke-linejoin="round"/></g><g class="trace" data-circuit-json-type="schematic_trace" data-schematic-trace-id="schematic_trace_24"><path d="M 333.51027271459 532.00686432561 L 384.0849654841 532.00686432561 L 384.0849654841 559.2393912015" class="trace-invisible-hover-outline" stroke="rgb(0, 150, 0)" fill="none" stroke-width="6.2245775716319995px" stroke-linecap="round" opacity="0" stroke-linejoin="round"/><path d="M 333.51027271459 532.00686432561 L 384.0849654841 532.00686432561 L 384.0849654841 559.2393912015" stroke="rgb(0, 150, 0)" fill="none" stroke-width="0.7780721964539999px" stroke-linecap="round" stroke-linejoin="round"/></g><g class="trace" data-circuit-json-type="schematic_trace" data-schematic-trace-id="schematic_trace_25"><path d="M 333.51027271459 524.22614236107 L 384.0849654841 524.22614236107 L 384.0849654841 469.76108860929" class="trace-invisible-hover-outline" stroke="rgb(0, 150, 0)" fill="none" stroke-width="6.2245775716319995px" stroke-linecap="round" opacity="0" stroke-linejoin="round"/><path d="M 333.51027271459 524.22614236107 L 384.0849654841 524.22614236107 L 384.0849654841 469.76108860929" stroke="rgb(0, 150, 0)" fill="none" stroke-width="0.7780721964539999px" stroke-linecap="round" stroke-linejoin="round"/></g><g class="trace" data-circuit-json-type="schematic_trace" data-schematic-trace-id="schematic_trace_26"><path d="M 528.02832182809 500.88397646745 L 590.27409754441 500.88397646745 L 590.27409754441 559.2393912015" class="trace-invisible-hover-outline" stroke="rgb(0, 150, 0)" fill="none" stroke-width="6.2245775716319995px" stroke-linecap="round" opacity="0" stroke-linejoin="round"/><path d="M 528.02832182809 500.88397646745 L 590.27409754441 500.88397646745 L 590.27409754441 559.2393912015" stroke="rgb(0, 150, 0)" fill="none" stroke-width="0.7780721964539999px" stroke-linecap="round" stroke-linejoin="round"/></g><g class="trace" data-circuit-json-type="schematic_trace" data-schematic-trace-id="schematic_trace_27"><path d="M 528.02832182809 508.66469843199 L 582.49337557987 508.66469843199 L 582.49337557987 481.4321715561" class="trace-invisible-hover-outline" stroke="rgb(0, 150, 0)" fill="none" stroke-width="6.2245775716319995px" stroke-linecap="round" opacity="0" stroke-linejoin="round"/><path d="M 528.02832182809 508.66469843199 L 582.49337557987 508.66469843199 L 582.49337557987 481.4321715561" stroke="rgb(0, 150, 0)" fill="none" stroke-width="0.7780721964539999px" stroke-linecap="round" stroke-linejoin="round"/></g><g class="schematic-port-hover" data-schematic-port-id="source_port_0"><circle cx="605.83554147349" cy="263.57195654898" r="1.5561443929079999" fill="red" opacity="0"/></g><g class="schematic-port-hover" data-schematic-port-id="source_port_1"><circle cx="605.83554147349" cy="279.13340047805997" r="1.5561443929079999" fill="red" opacity="0"/></g><g class="schematic-port-hover" data-schematic-port-id="source_port_2"><circle cx="605.83554147349" cy="294.69484440714" r="1.5561443929079999" fill="red" opacity="0"/></g><g class="schematic-port-hover" data-schematic-port-id="source_port_3"><circle cx="605.83554147349" cy="310.25628833622" r="1.5561443929079999" fill="red" opacity="0"/></g><g class="schematic-port-hover" data-schematic-port-id="source_port_4"><circle cx="706.98492701251" cy="310.25628833622" r="1.5561443929079999" fill="red" opacity="0"/></g><g class="schematic-port-hover" data-schematic-port-id="source_port_5"><circle cx="706.98492701251" cy="294.69484440714" r="1.5561443929079999" fill="red" opacity="0"/></g><g class="schematic-port-hover" data-schematic-port-id="source_port_6"><circle cx="706.98492701251" cy="279.13340047805997" r="1.5561443929079999" fill="red" opacity="0"/></g><g class="schematic-port-hover" data-schematic-port-id="source_port_7"><circle cx="706.98492701251" cy="263.57195654898" r="1.5561443929079999" fill="red" opacity="0"/></g><g class="schematic-port-hover" data-schematic-port-id="source_port_8"><circle cx="745.877906423826" cy="246.11554501796317" r="1.5561443929079999" fill="red" opacity="0"/></g><g class="schematic-port-hover" data-schematic-port-id="source_port_9"><circle cx="745.8991672465941" cy="203.2211484345968" r="1.5561443929079999" fill="red" opacity="0"/></g><g class="schematic-port-hover" data-schematic-port-id="source_port_10"><circle cx="794.3546850752175" cy="189.71684843806506" r="1.5561443929079999" fill="red" opacity="0"/></g><g class="schematic-port-hover" data-schematic-port-id="source_port_11"><circle cx="777.1473072217588" cy="175.93772281831934" r="1.5561443929079999" fill="red" opacity="0"/></g><g class="schematic-port-hover" data-schematic-port-id="source_port_12"><circle cx="759.6681643115224" cy="189.71200882900314" r="1.5561443929079999" fill="red" opacity="0"/></g><g class="schematic-port-hover" data-schematic-port-id="source_port_13"><circle cx="808.123682140146" cy="246.11554501796317" r="1.5561443929079999" fill="red" opacity="0"/></g><g class="schematic-port-hover" data-schematic-port-id="source_port_14"><circle cx="808.144942962914" cy="203.2211484345968" r="1.5561443929079999" fill="red" opacity="0"/></g><g class="schematic-port-hover" data-schematic-port-id="source_port_15"><circle cx="866.487307481049" cy="210.8887192499675" r="1.5561443929079999" fill="red" opacity="0"/></g><g class="schematic-port-hover" data-schematic-port-id="source_port_16"><circle cx="866.492147090111" cy="176.20219848627247" r="1.5561443929079999" fill="red" opacity="0"/></g><g class="schematic-port-hover" data-schematic-port-id="source_port_17"><circle cx="866.479096874196" cy="261.6769889470432" r="1.5561443929079999" fill="red" opacity="0"/></g><g class="schematic-port-hover" data-schematic-port-id="source_port_18"><circle cx="866.500357696964" cy="218.78259236367683" r="1.5561443929079999" fill="red" opacity="0"/></g><g class="schematic-port-hover" data-schematic-port-id="source_port_19"><circle cx="547.490761041185" cy="358.93284674995357" r="1.5561443929079999" fill="red" opacity="0"/></g><g class="schematic-port-hover" data-schematic-port-id="source_port_20"><circle cx="547.469492437695" cy="316.0447836742664" r="1.5561443929079999" fill="red" opacity="0"/></g><g class="schematic-port-hover" data-schematic-port-id="source_port_21"><circle cx="508.587151218485" cy="358.93284674995357" r="1.5561443929079999" fill="red" opacity="0"/></g><g class="schematic-port-hover" data-schematic-port-id="source_port_22"><circle cx="508.56588261499496" cy="316.0447836742664" r="1.5561443929079999" fill="red" opacity="0"/></g><g class="schematic-port-hover" data-schematic-port-id="source_port_23"><circle cx="380.1328539496149" cy="265.3537730017475" r="1.5561443929079999" fill="red" opacity="0"/></g><g class="schematic-port-hover" data-schematic-port-id="source_port_24"><circle cx="393.91197956936065" cy="248.14639514828872" r="1.5561443929079999" fill="red" opacity="0"/></g><g class="schematic-port-hover" data-schematic-port-id="source_port_25"><circle cx="380.13769355867686" cy="230.66725223805247" r="1.5561443929079999" fill="red" opacity="0"/></g><g class="schematic-port-hover" data-schematic-port-id="source_port_26"><circle cx="380.183974090446" cy="218.88301814207318" r="1.5561443929079999" fill="red" opacity="0"/></g><g class="schematic-port-hover" data-schematic-port-id="source_port_27"><circle cx="380.20523491321404" cy="175.98862155870682" r="1.5561443929079999" fill="red" opacity="0"/></g><g class="schematic-port-hover" data-schematic-port-id="source_port_28"><circle cx="333.51027271459" cy="532.00686432561" r="1.5561443929079999" fill="red" opacity="0"/></g><g class="schematic-port-hover" data-schematic-port-id="source_port_29"><circle cx="333.51027271459" cy="524.22614236107" r="1.5561443929079999" fill="red" opacity="0"/></g><g class="schematic-port-hover" data-schematic-port-id="source_port_30"><circle cx="333.51027271459" cy="516.4454203965299" r="1.5561443929079999" fill="red" opacity="0"/></g><g class="schematic-port-hover" data-schematic-port-id="source_port_31"><circle cx="333.51027271459" cy="508.66469843199" r="1.5561443929079999" fill="red" opacity="0"/></g><g class="schematic-port-hover" data-schematic-port-id="source_port_32"><circle cx="528.02832182809" cy="539.78758629015" r="1.5561443929079999" fill="red" opacity="0"/></g><g class="schematic-port-hover" data-schematic-port-id="source_port_33"><circle cx="528.02832182809" cy="532.00686432561" r="1.5561443929079999" fill="red" opacity="0"/></g><g class="schematic-port-hover" data-schematic-port-id="source_port_34"><circle cx="528.02832182809" cy="524.22614236107" r="1.5561443929079999" fill="red" opacity="0"/></g><g class="schematic-port-hover" data-schematic-port-id="source_port_35"><circle cx="528.02832182809" cy="516.4454203965299" r="1.5561443929079999" fill="red" opacity="0"/></g><g class="schematic-port-hover" data-schematic-port-id="source_port_36"><circle cx="528.02832182809" cy="508.66469843199" r="1.5561443929079999" fill="red" opacity="0"/></g><g class="schematic-port-hover" data-schematic-port-id="source_port_37"><circle cx="528.02832182809" cy="500.88397646745" r="1.5561443929079999" fill="red" opacity="0"/></g><rect class="component-overlay" x="717.4795647982814" y="364.6791900267571" width="17.4802205402284" height="18.807148754421974" fill="transparent"/><path d="M 726.3944748228705 364.6791900267571 L 726.3944748228705 377.5031192048871" stroke="rgb(132, 0, 0)" fill="none" stroke-width="0.7780721964539999px" stroke-linecap="round"/><path d="M 717.4795647982814 377.50184316648495 L 734.9597853385098 377.50184316648495" stroke="rgb(132, 0, 0)" fill="none" stroke-width="0.7780721964539999px" stroke-linecap="round"/><path d="M 719.6645938246954 380.49409097383204 L 732.7747563120959 380.49409097383204" stroke="rgb(132, 0, 0)" fill="none" stroke-width="0.7780721964539999px" stroke-linecap="round"/><path d="M 724.0346479871623 383.4863387811791 L 728.4047021496291 383.4863387811791" stroke="rgb(132, 0, 0)" fill="none" stroke-width="0.7780721964539999px" stroke-linecap="round"/><text x="725.5566778046167" y="388.04315361296074" fill="rgb(15, 15, 15)" font-family="sans-serif" text-anchor="middle" dominant-baseline="hanging" font-size="7.002649768085999px">GND</text><path class="net-label" d="
    M 889.8318931792,279.13340047805997
    L 891.9326881096258,274.9318106172084
    L 914.154430040352,274.9318106172084
    L 914.154430040352,283.33499033891155
    L 891.9326881096258,283.33499033891155
    Z
  " fill="rgba(255, 255, 255, 0.6)" stroke="rgb(132, 0, 0)" stroke-width="0.7780721964539999px"/><text class="net-label-text" x="893.3332180632431" y="279.13340047805997" fill="rgb(132, 0, 0)" text-anchor="start" dominant-baseline="central" font-family="sans-serif" font-variant-numeric="tabular-nums" font-size="7.002649768085999px" transform="">N_CS</text><path class="net-label" d="
    M 889.8318931792,294.69484440714
    L 891.9326881096258,290.4932545462884
    L 925.5298455525095,290.4932545462884
    L 925.5298455525095,298.8964342679916
    L 891.9326881096258,298.8964342679916
    Z
  " fill="rgba(255, 255, 255, 0.6)" stroke="rgb(132, 0, 0)" stroke-width="0.7780721964539999px"/><text class="net-label-text" x="893.3332180632431" y="294.69484440714" fill="rgb(132, 0, 0)" text-anchor="start" dominant-baseline="central" font-family="sans-serif" font-variant-numeric="tabular-nums" font-size="7.002649768085999px" transform="">SDI_SDA</text><path class="net-label" d="
    M 889.8318931792,310.25628833622
    L 891.9326881096258,306.0546984753684
    L 927.0859899454176,306.0546984753684
    L 927.0859899454176,314.4578781970716
    L 891.9326881096258,314.4578781970716
    Z
  " fill="rgba(255, 255, 255, 0.6)" stroke="rgb(132, 0, 0)" stroke-width="0.7780721964539999px"/><text class="net-label-text" x="893.3332180632431" y="310.25628833622" fill="rgb(132, 0, 0)" text-anchor="start" dominant-baseline="central" font-family="sans-serif" font-variant-numeric="tabular-nums" font-size="7.002649768085999px" transform="">SCK_SCL</text><rect class="component-overlay" x="773.3783916382723" y="149.79802283217134" width="7.20804137614482" height="15.933436355843696" fill="transparent"/><path d="M 776.9254710578278 149.79802283217134 L 773.3783916382723 157.2313627935215" stroke="rgb(132, 0, 0)" fill="none" stroke-width="0.7780721964539999px" stroke-linecap="round"/><path d="M 777.0393535948617 149.80189763170966 L 780.5864330144171 157.23525704486477" stroke="rgb(132, 0, 0)" fill="none" stroke-width="0.7780721964539999px" stroke-linecap="round"/><path d="M 776.9665182565517 149.99416316181444 L 776.9665182565517 165.73145918801504" stroke="rgb(132, 0, 0)" fill="none" stroke-width="0.7780721964539999px" stroke-linecap="round"/><text x="776.7925063001757" y="147.51822461222935" fill="rgb(15, 15, 15)" font-family="sans-serif" text-anchor="middle" dominant-baseline="ideographic" font-size="7.002649768085999px">V3_3</text><rect class="component-overlay" x="862.8566942304823" y="149.79802283217134" width="7.20804137614482" height="15.933436355843696" fill="transparent"/><path d="M 866.4037736500378 149.79802283217134 L 862.8566942304823 157.2313627935215" stroke="rgb(132, 0, 0)" fill="none" stroke-width="0.7780721964539999px" stroke-linecap="round"/><path d="M 866.5176561870717 149.80189763170966 L 870.0647356066271 157.23525704486477" stroke="rgb(132, 0, 0)" fill="none" stroke-width="0.7780721964539999px" stroke-linecap="round"/><path d="M 866.4448208487617 149.99416316181444 L 866.4448208487617 165.73145918801504" stroke="rgb(132, 0, 0)" fill="none" stroke-width="0.7780721964539999px" stroke-linecap="round"/><text x="866.2708088923856" y="147.51822461222935" fill="rgb(15, 15, 15)" font-family="sans-serif" text-anchor="middle" dominant-baseline="ideographic" font-size="7.002649768085999px">V3_3</text><rect class="component-overlay" x="577.4265694365615" y="364.6791900267571" width="17.4802205402284" height="18.807148754421974" fill="transparent"/><path d="M 586.3414794611506 364.6791900267571 L 586.3414794611506 377.5031192048871" stroke="rgb(132, 0, 0)" fill="none" stroke-width="0.7780721964539999px" stroke-linecap="round"/><path d="M 577.4265694365615 377.50184316648495 L 594.9067899767899 377.50184316648495" stroke="rgb(132, 0, 0)" fill="none" stroke-width="0.7780721964539999px" stroke-linecap="round"/><path d="M 579.6115984629755 380.49409097383204 L 592.7217609503759 380.49409097383204" stroke="rgb(132, 0, 0)" fill="none" stroke-width="0.7780721964539999px" stroke-linecap="round"/><path d="M 583.9816526254424 383.4863387811791 L 588.3517067879092 383.4863387811791" stroke="rgb(132, 0, 0)" fill="none" stroke-width="0.7780721964539999px" stroke-linecap="round"/><text x="585.5036824428968" y="388.04315361296074" fill="rgb(15, 15, 15)" font-family="sans-serif" text-anchor="middle" dominant-baseline="hanging" font-size="7.002649768085999px">GND</text><rect class="component-overlay" x="538.5229596138615" y="364.6791900267571" width="17.4802205402284" height="18.807148754421974" fill="transparent"/><path d="M 547.4378696384506 364.6791900267571 L 547.4378696384506 377.5031192048871" stroke="rgb(132, 0, 0)" fill="none" stroke-width="0.7780721964539999px" stroke-linecap="round"/><path d="M 538.5229596138615 377.50184316648495 L 556.0031801540899 377.50184316648495" stroke="rgb(132, 0, 0)" fill="none" stroke-width="0.7780721964539999px" stroke-linecap="round"/><path d="M 540.7079886402755 380.49409097383204 L 553.818151127676 380.49409097383204" stroke="rgb(132, 0, 0)" fill="none" stroke-width="0.7780721964539999px" stroke-linecap="round"/><path d="M 545.0780428027424 383.4863387811791 L 549.4480969652092 383.4863387811791" stroke="rgb(132, 0, 0)" fill="none" stroke-width="0.7780721964539999px" stroke-linecap="round"/><text x="546.6000726201968" y="388.04315361296074" fill="rgb(15, 15, 15)" font-family="sans-serif" text-anchor="middle" dominant-baseline="hanging" font-size="7.002649768085999px">GND</text><rect class="component-overlay" x="543.8470936843422" y="223.7148814953013" width="7.20804137614482" height="15.933436355843696" fill="transparent"/><path d="M 547.3941731038977 223.7148814953013 L 543.8470936843422 231.14822145665147" stroke="rgb(132, 0, 0)" fill="none" stroke-width="0.7780721964539999px" stroke-linecap="round"/><path d="M 547.5080556409316 223.71875629483964 L 551.055135060487 231.15211570799474" stroke="rgb(132, 0, 0)" fill="none" stroke-width="0.7780721964539999px" stroke-linecap="round"/><path d="M 547.4352203026216 223.9110218249444 L 547.4352203026216 239.648317851145" stroke="rgb(132, 0, 0)" fill="none" stroke-width="0.7780721964539999px" stroke-linecap="round"/><text x="547.2612083462456" y="221.43508327535932" fill="rgb(15, 15, 15)" font-family="sans-serif" text-anchor="middle" dominant-baseline="ideographic" font-size="7.002649768085999px">V3_3</text><rect class="component-overlay" x="499.61934979116154" y="364.6791900267571" width="17.480220540228288" height="18.807148754421974" fill="transparent"/><path d="M 508.5342598157506 364.6791900267571 L 508.5342598157506 377.5031192048871" stroke="rgb(132, 0, 0)" fill="none" stroke-width="0.7780721964539999px" stroke-linecap="round"/><path d="M 499.61934979116154 377.50184316648495 L 517.0995703313898 377.50184316648495" stroke="rgb(132, 0, 0)" fill="none" stroke-width="0.7780721964539999px" stroke-linecap="round"/><path d="M 501.80437881757547 380.49409097383204 L 514.914541304976 380.49409097383204" stroke="rgb(132, 0, 0)" fill="none" stroke-width="0.7780721964539999px" stroke-linecap="round"/><path d="M 506.1744329800423 383.4863387811791 L 510.5444871425091 383.4863387811791" stroke="rgb(132, 0, 0)" fill="none" stroke-width="0.7780721964539999px" stroke-linecap="round"/><text x="507.69646279749674" y="388.04315361296074" fill="rgb(15, 15, 15)" font-family="sans-serif" text-anchor="middle" dominant-baseline="hanging" font-size="7.002649768085999px">GND</text><rect class="component-overlay" x="504.9434838616423" y="223.7148814953013" width="7.208041376144877" height="15.933436355843696" fill="transparent"/><path d="M 508.4905632811978 223.7148814953013 L 504.9434838616423 231.14822145665147" stroke="rgb(132, 0, 0)" fill="none" stroke-width="0.7780721964539999px" stroke-linecap="round"/><path d="M 508.60444581823174 223.71875629483964 L 512.1515252377872 231.15211570799474" stroke="rgb(132, 0, 0)" fill="none" stroke-width="0.7780721964539999px" stroke-linecap="round"/><path d="M 508.5316104799217 223.9110218249444 L 508.5316104799217 239.648317851145" stroke="rgb(132, 0, 0)" fill="none" stroke-width="0.7780721964539999px" stroke-linecap="round"/><text x="508.3575985235457" y="221.43508327535932" fill="rgb(15, 15, 15)" font-family="sans-serif" text-anchor="middle" dominant-baseline="ideographic" font-size="7.002649768085999px">V3_3</text><path class="net-label" d="
    M 446.33074120042,310.25628833622
    L 444.2299462699942,314.4578781970716
    L 407.7798574401125,314.4578781970716
    L 407.7798574401125,306.0546984753684
    L 444.2299462699942,306.0546984753684
    Z
  " fill="rgba(255, 255, 255, 0.6)" stroke="rgb(132, 0, 0)" stroke-width="0.7780721964539999px"/><text class="net-label-text" x="442.829416316377" y="310.25628833622" fill="rgb(132, 0, 0)" text-anchor="end" dominant-baseline="central" font-family="sans-serif" font-variant-numeric="tabular-nums" font-size="7.002649768085999px" transform="">SDD_ADR</text><rect class="component-overlay" x="371.2374373762516" y="279.0912484168171" width="17.480220540228288" height="18.807148754421974" fill="transparent"/><path d="M 380.15234740084065 279.0912484168171 L 380.15234740084065 291.9151775949471" stroke="rgb(132, 0, 0)" fill="none" stroke-width="0.7780721964539999px" stroke-linecap="round"/><path d="M 371.2374373762516 291.91390155654494 L 388.7176579164799 291.91390155654494" stroke="rgb(132, 0, 0)" fill="none" stroke-width="0.7780721964539999px" stroke-linecap="round"/><path d="M 373.4224664026655 294.90614936389204 L 386.53262889006595 294.90614936389204" stroke="rgb(132, 0, 0)" fill="none" stroke-width="0.7780721964539999px" stroke-linecap="round"/><path d="M 377.79252056513235 297.8983971712391 L 382.1625747275992 297.8983971712391" stroke="rgb(132, 0, 0)" fill="none" stroke-width="0.7780721964539999px" stroke-linecap="round"/><text x="379.3145503825868" y="302.45521200302073" fill="rgb(15, 15, 15)" font-family="sans-serif" text-anchor="middle" dominant-baseline="hanging" font-size="7.002649768085999px">GND</text><rect class="component-overlay" x="376.5615714467323" y="145.90766184990133" width="7.208041376144877" height="15.933436355843696" fill="transparent"/><path d="M 380.1086508662878 145.90766184990133 L 376.5615714467323 153.3410018112515" stroke="rgb(132, 0, 0)" fill="none" stroke-width="0.7780721964539999px" stroke-linecap="round"/><path d="M 380.22253340332173 145.91153664943965 L 383.76961282287715 153.34489606259476" stroke="rgb(132, 0, 0)" fill="none" stroke-width="0.7780721964539999px" stroke-linecap="round"/><path d="M 380.1496980650117 146.10380217954443 L 380.1496980650117 161.84109820574503" stroke="rgb(132, 0, 0)" fill="none" stroke-width="0.7780721964539999px" stroke-linecap="round"/><text x="379.97568610863567" y="143.62786362995934" fill="rgb(15, 15, 15)" font-family="sans-serif" text-anchor="middle" dominant-baseline="ideographic" font-size="7.002649768085999px">V3_3</text><rect class="component-overlay" x="375.12779835852155" y="559.1972391402571" width="17.480220540228288" height="18.807148754421974" fill="transparent"/><path d="M 384.0427083831106 559.1972391402571 L 384.0427083831106 572.0211683183871" stroke="rgb(132, 0, 0)" fill="none" stroke-width="0.7780721964539999px" stroke-linecap="round"/><path d="M 375.12779835852155 572.0198922799849 L 392.60801889874983 572.0198922799849" stroke="rgb(132, 0, 0)" fill="none" stroke-width="0.7780721964539999px" stroke-linecap="round"/><path d="M 377.3128273849355 575.012140087332 L 390.4229898723359 575.012140087332" stroke="rgb(132, 0, 0)" fill="none" stroke-width="0.7780721964539999px" stroke-linecap="round"/><path d="M 381.6828815474023 578.0043878946791 L 386.05293570986913 578.0043878946791" stroke="rgb(132, 0, 0)" fill="none" stroke-width="0.7780721964539999px" stroke-linecap="round"/><text x="383.20491136485674" y="582.5612027264608" fill="rgb(15, 15, 15)" font-family="sans-serif" text-anchor="middle" dominant-baseline="hanging" font-size="7.002649768085999px">GND</text><rect class="component-overlay" x="380.4519324290023" y="453.2461794492313" width="7.208041376144877" height="15.933436355843696" fill="transparent"/><path d="M 383.9990118485578 453.2461794492313 L 380.4519324290023 460.67951941058146" stroke="rgb(132, 0, 0)" fill="none" stroke-width="0.7780721964539999px" stroke-linecap="round"/><path d="M 384.11289438559174 453.25005424876963 L 387.65997380514716 460.6834136619247" stroke="rgb(132, 0, 0)" fill="none" stroke-width="0.7780721964539999px" stroke-linecap="round"/><path d="M 384.0400590472817 453.44231977887443 L 384.0400590472817 469.179615805075" stroke="rgb(132, 0, 0)" fill="none" stroke-width="0.7780721964539999px" stroke-linecap="round"/><text x="383.8660470909057" y="450.9663812292893" fill="rgb(15, 15, 15)" font-family="sans-serif" text-anchor="middle" dominant-baseline="ideographic" font-size="7.002649768085999px">V3_3</text><rect class="component-overlay" x="581.3169304188316" y="559.1972391402571" width="17.480220540228288" height="18.807148754421974" fill="transparent"/><path d="M 590.2318404434205 559.1972391402571 L 590.2318404434205 572.0211683183871" stroke="rgb(132, 0, 0)" fill="none" stroke-width="0.7780721964539999px" stroke-linecap="round"/><path d="M 581.3169304188316 572.0198922799849 L 598.7971509590599 572.0198922799849" stroke="rgb(132, 0, 0)" fill="none" stroke-width="0.7780721964539999px" stroke-linecap="round"/><path d="M 583.5019594452455 575.012140087332 L 596.6121219326459 575.012140087332" stroke="rgb(132, 0, 0)" fill="none" stroke-width="0.7780721964539999px" stroke-linecap="round"/><path d="M 587.8720136077123 578.0043878946791 L 592.2420677701791 578.0043878946791" stroke="rgb(132, 0, 0)" fill="none" stroke-width="0.7780721964539999px" stroke-linecap="round"/><text x="589.3940434251667" y="582.5612027264608" fill="rgb(15, 15, 15)" font-family="sans-serif" text-anchor="middle" dominant-baseline="hanging" font-size="7.002649768085999px">GND</text><rect class="component-overlay" x="578.8603425247722" y="464.9172623960413" width="7.20804137614482" height="15.933436355843696" fill="transparent"/><path d="M 582.4074219443278 464.9172623960413 L 578.8603425247722 472.35060235739144" stroke="rgb(132, 0, 0)" fill="none" stroke-width="0.7780721964539999px" stroke-linecap="round"/><path d="M 582.5213044813617 464.9211371955796 L 586.0683839009171 472.3544966087347" stroke="rgb(132, 0, 0)" fill="none" stroke-width="0.7780721964539999px" stroke-linecap="round"/><path d="M 582.4484691430516 465.1134027256844 L 582.4484691430516 480.850698751885" stroke="rgb(132, 0, 0)" fill="none" stroke-width="0.7780721964539999px" stroke-linecap="round"/><text x="582.2744571866756" y="462.6374641760993" fill="rgb(15, 15, 15)" font-family="sans-serif" text-anchor="middle" dominant-baseline="ideographic" font-size="7.002649768085999px">V3_3</text><path class="net-label" d="
    M 333.51027271459,516.4454203965299
    L 335.6110676450158,512.2438305356783
    L 369.2082250878995,512.2438305356783
    L 369.2082250878995,520.6470102573816
    L 335.6110676450158,520.6470102573816
    Z
  " fill="rgba(255, 255, 255, 0.6)" stroke="rgb(132, 0, 0)" stroke-width="0.7780721964539999px"/><text class="net-label-text" x="337.011597598633" y="516.4454203965299" fill="rgb(132, 0, 0)" text-anchor="start" dominant-baseline="central" font-family="sans-serif" font-variant-numeric="tabular-nums" font-size="7.002649768085999px" transform="">SDI_SDA</text><path class="net-label" d="
    M 333.51027271459,508.66469843199
    L 335.6110676450158,504.46310857113843
    L 370.7643694808075,504.46310857113843
    L 370.7643694808075,512.8662882928417
    L 335.6110676450158,512.8662882928417
    Z
  " fill="rgba(255, 255, 255, 0.6)" stroke="rgb(132, 0, 0)" stroke-width="0.7780721964539999px"/><text class="net-label-text" x="337.011597598633" y="508.66469843199" fill="rgb(132, 0, 0)" text-anchor="start" dominant-baseline="central" font-family="sans-serif" font-variant-numeric="tabular-nums" font-size="7.002649768085999px" transform="">SCK_SCL</text><path class="net-label" d="
    M 528.02832182809,539.78758629015
    L 530.1291167585158,535.5859964292983
    L 552.350858689242,535.5859964292983
    L 552.350858689242,543.9891761510016
    L 530.1291167585158,543.9891761510016
    Z
  " fill="rgba(255, 255, 255, 0.6)" stroke="rgb(132, 0, 0)" stroke-width="0.7780721964539999px"/><text class="net-label-text" x="531.5296467121331" y="539.78758629015" fill="rgb(132, 0, 0)" text-anchor="start" dominant-baseline="central" font-family="sans-serif" font-variant-numeric="tabular-nums" font-size="7.002649768085999px" transform="">N_CS</text><path class="net-label" d="
    M 528.02832182809,532.00686432561
    L 530.1291167585158,527.8052744647583
    L 563.7262742013995,527.8052744647583
    L 563.7262742013995,536.2084541864616
    L 530.1291167585158,536.2084541864616
    Z
  " fill="rgba(255, 255, 255, 0.6)" stroke="rgb(132, 0, 0)" stroke-width="0.7780721964539999px"/><text class="net-label-text" x="531.5296467121331" y="532.00686432561" fill="rgb(132, 0, 0)" text-anchor="start" dominant-baseline="central" font-family="sans-serif" font-variant-numeric="tabular-nums" font-size="7.002649768085999px" transform="">SDI_SDA</text><path class="net-label" d="
    M 528.02832182809,524.22614236107
    L 530.1291167585158,520.0245525002183
    L 567.0979203860336,520.0245525002183
    L 567.0979203860336,528.4277322219216
    L 530.1291167585158,528.4277322219216
    Z
  " fill="rgba(255, 255, 255, 0.6)" stroke="rgb(132, 0, 0)" stroke-width="0.7780721964539999px"/><text class="net-label-text" x="531.5296467121331" y="524.22614236107" fill="rgb(132, 0, 0)" text-anchor="start" dominant-baseline="central" font-family="sans-serif" font-variant-numeric="tabular-nums" font-size="7.002649768085999px" transform="">SDO_ADR</text><path class="net-label" d="
    M 528.02832182809,516.4454203965299
    L 530.1291167585158,512.2438305356783
    L 565.2824185943075,512.2438305356783
    L 565.2824185943075,520.6470102573816
    L 530.1291167585158,520.6470102573816
    Z
  " fill="rgba(255, 255, 255, 0.6)" stroke="rgb(132, 0, 0)" stroke-width="0.7780721964539999px"/><text class="net-label-text" x="531.5296467121331" y="516.4454203965299" fill="rgb(132, 0, 0)" text-anchor="start" dominant-baseline="central" font-family="sans-serif" font-variant-numeric="tabular-nums" font-size="7.002649768085999px" transform="">SCK_SCL</text><text x="356.85243860821" y="228.55870770855" fill="gray" text-anchor="middle" dominant-baseline="middle" font-family="sans-serif" font-size="7.78072196454px" transform="rotate(-90, 356.85243860821, 228.55870770855)">EN ADR PULLUP</text><text x="656.410234243" y="119.62860020499" fill="gray" text-anchor="start" dominant-baseline="middle" font-family="sans-serif" font-size="7.78072196454px" transform="rotate(0, 656.410234243, 119.62860020499)">SJ1 pulls up the SCK and SDA lines</text><text x="656.410234243" y="129.354502660665" fill="gray" text-anchor="start" dominant-baseline="middle" font-family="sans-serif" font-size="7.78072196454px" transform="rotate(0, 656.410234243, 129.354502660665)">for I2C operation</text><text x="788.68250764018" y="228.55870770855" fill="gray" text-anchor="middle" dominant-baseline="middle" font-family="sans-serif" font-size="7.78072196454px" transform="rotate(-90, 788.68250764018, 228.55870770855)">EN I2C PULL</text><text x="879.7169546252981" y="201.32618083266" fill="gray" text-anchor="middle" dominant-baseline="middle" font-family="sans-serif" font-size="7.78072196454px" transform="rotate(-90, 879.7169546252981, 201.32618083266)">EN I2C MODE</text><text x="850.9282833565" y="119.62860020499" fill="gray" text-anchor="start" dominant-baseline="middle" font-family="sans-serif" font-size="7.78072196454px" transform="rotate(0, 850.9282833565, 119.62860020499)">SJ2 pulls up the N_CS line forcing I2C</text><text x="850.9282833565" y="127.40932216953001" fill="gray" text-anchor="start" dominant-baseline="middle" font-family="sans-serif" font-size="7.78072196454px" transform="rotate(0, 850.9282833565, 127.40932216953001)">mode if no signal is on N_CS</text><text x="345.1813556614" y="131.2996831518" fill="gray" text-anchor="end" dominant-baseline="middle" font-family="sans-serif" font-size="7.78072196454px" transform="rotate(0, 345.1813556614, 131.2996831518)">SJ3 must be opened.</text><text x="310.16810682096997" y="119.62860020499" fill="gray" text-anchor="end" dominant-baseline="middle" font-family="sans-serif" font-size="9.725902455675px" transform="rotate(0, 310.16810682096997, 119.62860020499)">SPI 3-WIRE:</text><text x="329.61991173232" y="107.95751725818002" fill="gray" text-anchor="end" dominant-baseline="middle" font-family="sans-serif" font-size="7.78072196454px" transform="rotate(0, 329.61991173232, 107.95751725818002)">is not necessary.</text><text x="400.813517707861" y="100.17679529364" fill="gray" text-anchor="end" dominant-baseline="middle" font-family="sans-serif" font-size="7.78072196454px" transform="rotate(0, 400.813517707861, 100.17679529364)">remove 4.7k load on the SPI lines but</text><text x="389.92050695750504" y="92.3960733291" fill="gray" text-anchor="end" dominant-baseline="middle" font-family="sans-serif" font-size="7.78072196454px" transform="rotate(0, 389.92050695750504, 92.3960733291)">Jumpers SJ1-SJ3 can be opend to</text><text x="310.16810682096997" y="84.61535136455998" fill="gray" text-anchor="end" dominant-baseline="middle" font-family="sans-serif" font-size="9.725902455675px" transform="rotate(0, 310.16810682096997, 84.61535136455998)">SPI 4-WIRE:</text><text x="400.424481609634" y="57.382824488669996" fill="gray" text-anchor="end" dominant-baseline="middle" font-family="sans-serif" font-size="7.78072196454px" transform="rotate(0, 400.424481609634, 57.382824488669996)">Leave the copper-connected jumpers</text><text x="391.08761525218597" y="65.16354645320999" fill="gray" text-anchor="end" dominant-baseline="middle" font-family="sans-serif" font-size="7.78072196454px" transform="rotate(0, 391.08761525218597, 65.16354645320999)">SJ1-SJ2 as default, use SJ3 to set</text><text x="327.67473124118504" y="72.94426841775001" fill="gray" text-anchor="end" dominant-baseline="middle" font-family="sans-serif" font-size="7.78072196454px" transform="rotate(0, 327.67473124118504, 72.94426841775001)">the I2C address</text><text x="271.26449699827" y="49.602102524130004" fill="gray" text-anchor="end" dominant-baseline="middle" font-family="sans-serif" font-size="9.725902455675px" transform="rotate(0, 271.26449699827, 49.602102524130004)">I2C:</text><text x="271.26449699827" y="39.876200068455006" fill="gray" text-anchor="end" dominant-baseline="middle" font-family="sans-serif" font-size="9.725902455675px" transform="rotate(0, 271.26449699827, 39.876200068455006)">MODES:</text><text x="343.23617517026497" y="26.25993663050997" fill="gray" text-anchor="end" dominant-baseline="middle" font-family="sans-serif" font-size="13.616263437945px" transform="rotate(0, 343.23617517026497, 26.25993663050997)">BME280 Breakout</text><text x="306.2777458387" y="240.22979065535998" fill="gray" text-anchor="end" dominant-baseline="middle" font-family="sans-serif" font-size="7.78072196454px" transform="rotate(0, 306.2777458387, 240.22979065535998)">SJ3 controls the lowest bit</text><text x="310.16810682096997" y="248.0105126199" fill="gray" text-anchor="end" dominant-baseline="middle" font-family="sans-serif" font-size="7.78072196454px" transform="rotate(0, 310.16810682096997, 248.0105126199)">of the I2C address--can be:</text><text x="259.59341405146006" y="255.79123458444" fill="gray" text-anchor="end" dominant-baseline="middle" font-family="sans-serif" font-size="7.78072196454px" transform="rotate(0, 259.59341405146006, 255.79123458444)">0x1110110</text><text x="259.59341405146006" y="263.57195654898" fill="gray" text-anchor="end" dominant-baseline="middle" font-family="sans-serif" font-size="7.78072196454px" transform="rotate(0, 259.59341405146006, 263.57195654898)">0x1110111</text><text x="312.113287312105" y="271.35267851352" fill="gray" text-anchor="end" dominant-baseline="middle" font-family="sans-serif" font-size="7.78072196454px" transform="rotate(0, 312.113287312105, 271.35267851352)">Open for SPI 3-wire mode</text><text x="267.374136016" y="442.5285617334" fill="gray" text-anchor="end" dominant-baseline="middle" font-family="sans-serif" font-size="13.616263437945px" transform="rotate(0, 267.374136016, 442.5285617334)">Ports:</text><text x="275.15485798054" y="454.19964468021" fill="gray" text-anchor="end" dominant-baseline="middle" font-family="sans-serif" font-size="7.78072196454px" transform="rotate(0, 275.15485798054, 454.19964468021)">(Use only 1)</text><text x="306.2777458387" y="481.4321715561" fill="gray" text-anchor="end" dominant-baseline="middle" font-family="sans-serif" font-size="13.616263437945px" transform="rotate(0, 306.2777458387, 481.4321715561)">I2C</text><text x="500.7957949522" y="477.54181057383" fill="gray" text-anchor="end" dominant-baseline="middle" font-family="sans-serif" font-size="13.616263437945px" transform="rotate(0, 500.7957949522, 477.54181057383)">SPI</text></svg>