<svg xmlns="http://www.w3.org/2000/svg" width="1200" height="600" style="background-color: rgb(245, 241, 237)" data-real-to-screen-transform="matrix(59.4656191266,0,0,-59.4656191266,583.9523798232,328.6029627999)"><style>
              .boundary { fill: rgb(245, 241, 237); }
              .schematic-boundary { fill: none; stroke: #fff; }
              .component { fill: none; stroke: rgb(132, 0, 0); }
              .chip { fill: rgb(255, 255, 194); stroke: rgb(132, 0, 0); }
              .component-pin { fill: none; stroke: rgb(132, 0, 0); }
              /* Basic per-trace hover fallback */
              .trace:hover {
                filter: invert(1);
              }
              .trace:hover .trace-crossing-outline {
                opacity: 0;
              }
              .trace:hover .trace-junction {
                filter: invert(1);
              }
              /* Net-hover highlighting: when a trace or its overlays are hovered,
                 invert color for all traces (base + overlays) sharing the same
                 subcircuit connectivity key. Also hide crossing outline during hover. */
              svg:has(:is(g.trace[data-subcircuit-connectivity-map-key="unnamedsubcircuit97_connectivity_net0"], g.trace-overlays[data-subcircuit-connectivity-map-key="unnamedsubcircuit97_connectivity_net0"]):hover) :is(g.trace[data-subcircuit-connectivity-map-key="unnamedsubcircuit97_connectivity_net0"], g.trace-overlays[data-subcircuit-connectivity-map-key="unnamedsubcircuit97_connectivity_net0"]) { filter: invert(1); }
svg:has(:is(g.trace[data-subcircuit-connectivity-map-key="unnamedsubcircuit97_connectivity_net0"], g.trace-overlays[data-subcircuit-connectivity-map-key="unnamedsubcircuit97_connectivity_net0"]):hover) g.trace-overlays[data-subcircuit-connectivity-map-key="unnamedsubcircuit97_connectivity_net0"] .trace-crossing-outline { opacity: 0; }
svg:has(:is(g.trace[data-subcircuit-connectivity-map-key="unnamedsubcircuit97_connectivity_net1"], g.trace-overlays[data-subcircuit-connectivity-map-key="unnamedsubcircuit97_connectivity_net1"]):hover) :is(g.trace[data-subcircuit-connectivity-map-key="unnamedsubcircuit97_connectivity_net1"], g.trace-overlays[data-subcircuit-connectivity-map-key="unnamedsubcircuit97_connectivity_net1"]) { filter: invert(1); }
svg:has(:is(g.trace[data-subcircuit-connectivity-map-key="unnamedsubcircuit97_connectivity_net1"], g.trace-overlays[data-subcircuit-connectivity-map-key="unnamedsubcircuit97_connectivity_net1"]):hover) g.trace-overlays[data-subcircuit-connectivity-map-key="unnamedsubcircuit97_connectivity_net1"] .trace-crossing-outline { opacity: 0; }
svg:has(:is(g.trace[data-subcircuit-connectivity-map-key="unnamedsubcircuit97_connectivity_net2"], g.trace-overlays[data-subcircuit-connectivity-map-key="unnamedsubcircuit97_connectivity_net2"]):hover) :is(g.trace[data-subcircuit-connectivity-map-key="unnamedsubcircuit97_connectivity_net2"], g.trace-overlays[data-subcircuit-connectivity-map-key="unnamedsubcircuit97_connectivity_net2"]) { filter: invert(1); }
svg:has(:is(g.trace[data-subcircuit-connectivity-map-key="unnamedsubcircuit97_connectivity_net2"], g.trace-overlays[data-subcircuit-connectivity-map-key="unnamedsubcircuit97_connectivity_net2"]):hover) g.trace-overlays[data-subcircuit-connectivity-map-key="unnamedsubcircuit97_connectivity_net2"] .trace-crossing-outline { opacity: 0; }
svg:has(:is(g.trace[data-subcircuit-connectivity-map-key="unnamedsubcircuit97_connectivity_net8"], g.trace-overlays[data-subcircuit-connectivity-map-key="unnamedsubcircuit97_connectivity_net8"]):hover) :is(g.trace[data-subcircuit-connectivity-map-key="unnamedsubcircuit97_connectivity_net8"], g.trace-overlays[data-subcircuit-connectivity-map-key="unnamedsubcircuit97_connectivity_net8"]) { filter: invert(1); }
svg:has(:is(g.trace[data-subcircuit-connectivity-map-key="unnamedsubcircuit97_connectivity_net8"], g.trace-overlays[data-subcircuit-connectivity-map-key="unnamedsubcircuit97_connectivity_net8"]):hover) g.trace-overlays[data-subcircuit-connectivity-map-key="unnamedsubcircuit97_connectivity_net8"] .trace-crossing-outline { opacity: 0; }
svg:has(:is(g.trace[data-subcircuit-connectivity-map-key="undefined"], g.trace-overlays[data-subcircuit-connectivity-map-key="undefined"]):hover) :is(g.trace[data-subcircuit-connectivity-map-key="undefined"], g.trace-overlays[data-subcircuit-connectivity-map-key="undefined"]) { filter: invert(1); }
svg:has(:is(g.trace[data-subcircuit-connectivity-map-key="undefined"], g.trace-overlays[data-subcircuit-connectivity-map-key="undefined"]):hover) g.trace-overlays[data-subcircuit-connectivity-map-key="undefined"] .trace-crossing-outline { opacity: 0; }
              .text { font-family: sans-serif; fill: rgb(0, 150, 0); }
              .pin-number { fill: rgb(169, 0, 0); }
              .port-label { fill: rgb(0, 100, 100); }
              .component-name { fill: rgb(0, 100, 100); }
            </style><rect class="boundary" x="0" y="0" width="1200" height="600"/><g class="trace" data-layer="base" data-circuit-json-type="schematic_trace" data-schematic-trace-id="schematic_trace_0" data-subcircuit-connectivity-map-key="unnamedsubcircuit97_connectivity_net0"><path d="M 851.5476658928999 414.82811053347 L 851.5476658928999 402.93498670815 L 762.349237203 402.93498670815 L 762.349237203 418.098719585433" class="trace-invisible-hover-outline" stroke="rgb(0, 150, 0)" fill="none" stroke-width="9.514499060256px" stroke-linecap="round" opacity="0" stroke-linejoin="round"/><path d="M 851.5476658928999 414.82811053347 L 851.5476658928999 402.93498670815 L 762.349237203 402.93498670815 L 762.349237203 418.098719585433" stroke="rgb(0, 150, 0)" fill="none" stroke-width="1.189312382532px" stroke-linecap="round" stroke-linejoin="round"/></g><g class="trace" data-layer="base" data-circuit-json-type="schematic_trace" data-schematic-trace-id="schematic_trace_1" data-subcircuit-connectivity-map-key="unnamedsubcircuit97_connectivity_net0"><path d="M 888.416349751392 310.76327706192 L 851.5476658928999 310.76327706192 L 851.5476658928999 414.82811053347" class="trace-invisible-hover-outline" stroke="rgb(0, 150, 0)" fill="none" stroke-width="9.514499060256px" stroke-linecap="round" opacity="0" stroke-linejoin="round"/><path d="M 888.416349751392 310.76327706192 L 851.5476658928999 310.76327706192 L 851.5476658928999 414.82811053347" stroke="rgb(0, 150, 0)" fill="none" stroke-width="1.189312382532px" stroke-linecap="round" stroke-linejoin="round"/></g><g class="trace" data-layer="base" data-circuit-json-type="schematic_trace" data-schematic-trace-id="schematic_trace_2" data-subcircuit-connectivity-map-key="unnamedsubcircuit97_connectivity_net0"><path d="M 673.1508085131 150.20610542010002 L 661.2576846877799 150.20610542010002 L 661.2576846877799 184.39883641789504 L 732.6164276397 184.39883641789504 L 732.6164276397 218.59156741569" class="trace-invisible-hover-outline" stroke="rgb(0, 150, 0)" fill="none" stroke-width="9.514499060256px" stroke-linecap="round" opacity="0" stroke-linejoin="round"/><path d="M 673.1508085131 150.20610542010002 L 661.2576846877799 150.20610542010002 L 661.2576846877799 184.39883641789504 L 732.6164276397 184.39883641789504 L 732.6164276397 218.59156741569" stroke="rgb(0, 150, 0)" fill="none" stroke-width="1.189312382532px" stroke-linecap="round" stroke-linejoin="round"/></g><g class="trace" data-layer="base" data-circuit-json-type="schematic_trace" data-schematic-trace-id="schematic_trace_3" data-subcircuit-connectivity-map-key="unnamedsubcircuit97_connectivity_net1"><path d="M 851.5476658928999 480.24029157273003 L 851.5476658928999 492.13341539805003 L 762.349237203 492.13341539805003 L 762.349237203 476.96968252076704" class="trace-invisible-hover-outline" stroke="rgb(0, 150, 0)" fill="none" stroke-width="9.514499060256px" stroke-linecap="round" opacity="0" stroke-linejoin="round"/><path d="M 851.5476658928999 480.24029157273003 L 851.5476658928999 492.13341539805003 L 762.349237203 492.13341539805003 L 762.349237203 476.96968252076704" stroke="rgb(0, 150, 0)" fill="none" stroke-width="1.189312382532px" stroke-linecap="round" stroke-linejoin="round"/></g><g class="trace" data-layer="base" data-circuit-json-type="schematic_trace" data-schematic-trace-id="schematic_trace_4" data-subcircuit-connectivity-map-key="unnamedsubcircuit97_connectivity_net1"><path d="M 888.416349751392 298.8701532366 L 839.65454206758 298.8701532366 L 839.65454206758 248.32437697899005" class="trace-invisible-hover-outline" stroke="rgb(0, 150, 0)" fill="none" stroke-width="9.514499060256px" stroke-linecap="round" opacity="0" stroke-linejoin="round"/><path d="M 888.416349751392 298.8701532366 L 839.65454206758 298.8701532366 L 839.65454206758 248.32437697899005" stroke="rgb(0, 150, 0)" fill="none" stroke-width="1.189312382532px" stroke-linecap="round" stroke-linejoin="round"/></g><g class="trace" data-layer="base" data-circuit-json-type="schematic_trace" data-schematic-trace-id="schematic_trace_5" data-subcircuit-connectivity-map-key="unnamedsubcircuit97_connectivity_net2"><path d="M 792.0820467663 150.20610542010002 L 839.65454206758 150.20610542010002 L 839.65454206758 182.91219593973" class="trace-invisible-hover-outline" stroke="rgb(0, 150, 0)" fill="none" stroke-width="9.514499060256px" stroke-linecap="round" opacity="0" stroke-linejoin="round"/><path d="M 792.0820467663 150.20610542010002 L 839.65454206758 150.20610542010002 L 839.65454206758 182.91219593973" stroke="rgb(0, 150, 0)" fill="none" stroke-width="1.189312382532px" stroke-linecap="round" stroke-linejoin="round"/></g><g class="trace" data-layer="base" data-circuit-json-type="schematic_trace" data-schematic-trace-id="schematic_trace_6" data-subcircuit-connectivity-map-key="unnamedsubcircuit97_connectivity_net8"><path d="M 1052.541458540808 275.08390558596 L 1052.541458540808 263.19078176064 L 1064.4345823661279 263.19078176064 L 1064.4345823661279 286.97702941128 L 1052.541458540808 286.97702941128" class="trace-invisible-hover-outline" stroke="rgb(0, 150, 0)" fill="none" stroke-width="9.514499060256px" stroke-linecap="round" opacity="0" stroke-linejoin="round"/><path d="M 1052.541458540808 275.08390558596 L 1052.541458540808 263.19078176064 L 1064.4345823661279 263.19078176064 L 1064.4345823661279 286.97702941128 L 1052.541458540808 286.97702941128" stroke="rgb(0, 150, 0)" fill="none" stroke-width="1.189312382532px" stroke-linecap="round" stroke-linejoin="round"/></g><g class="trace" data-layer="base" data-circuit-json-type="schematic_trace" data-schematic-trace-id="schematic_trace_7"><path d="M 134.98695541737004 417.80139148980004 L 198.91249597846502 417.80139148980004 L 198.91249597846502 132.36641968212004 L 262.83803653956 132.36641968212004" class="trace-invisible-hover-outline" stroke="rgb(0, 150, 0)" fill="none" stroke-width="9.514499060256px" stroke-linecap="round" opacity="0" stroke-linejoin="round"/><path d="M 134.98695541737004 417.80139148980004 L 198.91249597846502 417.80139148980004 L 198.91249597846502 132.36641968212004 L 262.83803653956 132.36641968212004" stroke="rgb(0, 150, 0)" fill="none" stroke-width="1.189312382532px" stroke-linecap="round" stroke-linejoin="round"/></g><g class="trace" data-layer="base" data-circuit-json-type="schematic_trace" data-schematic-trace-id="schematic_trace_8"><path d="M 1052.541458540808 298.8701532366 L 1106.655171946014 298.8701532366 L 1106.655171946014 197.77860072138 L 1160.76888535122 197.77860072138 L 1160.76888535122 209.67172454670003" class="trace-invisible-hover-outline" stroke="rgb(0, 150, 0)" fill="none" stroke-width="9.514499060256px" stroke-linecap="round" opacity="0" stroke-linejoin="round"/><path d="M 1052.541458540808 298.8701532366 L 1106.655171946014 298.8701532366 L 1106.655171946014 197.77860072138 L 1160.76888535122 197.77860072138 L 1160.76888535122 209.67172454670003" stroke="rgb(0, 150, 0)" fill="none" stroke-width="1.189312382532px" stroke-linecap="round" stroke-linejoin="round"/></g><g class="trace" data-layer="base" data-circuit-json-type="schematic_trace" data-schematic-trace-id="schematic_trace_9"><path d="M 274.73116036488 272.11062462963 L 274.73116036488 304.87618076838663 L 393.66239861808 304.87618076838663 L 393.66239861808 126.41985776946001 L 381.76927479276 126.41985776946001" class="trace-invisible-hover-outline" stroke="rgb(0, 150, 0)" fill="none" stroke-width="9.514499060256px" stroke-linecap="round" opacity="0" stroke-linejoin="round"/><path d="M 274.73116036488 272.11062462963 L 274.73116036488 304.87618076838663 L 393.66239861808 304.87618076838663 L 393.66239861808 126.41985776946001 L 381.76927479276 126.41985776946001" stroke="rgb(0, 150, 0)" fill="none" stroke-width="1.189312382532px" stroke-linecap="round" stroke-linejoin="round"/></g><g class="trace-overlays" data-layer="overlay" data-circuit-json-type="schematic_trace" data-schematic-trace-id="schematic_trace_0" data-subcircuit-connectivity-map-key="unnamedsubcircuit97_connectivity_net0"><circle cx="851.5476658928999" cy="402.93498670815" r="1.7839685737979998" class="trace-junction" fill="rgb(0, 150, 0)"/></g><g class="trace-overlays" data-layer="overlay" data-circuit-json-type="schematic_trace" data-schematic-trace-id="schematic_trace_1" data-subcircuit-connectivity-map-key="unnamedsubcircuit97_connectivity_net0"><circle cx="851.5476658928999" cy="402.93498670815" r="1.7839685737979998" class="trace-junction" fill="rgb(0, 150, 0)"/></g><g class="trace-overlays" data-layer="overlay" data-circuit-json-type="schematic_trace" data-schematic-trace-id="schematic_trace_2" data-subcircuit-connectivity-map-key="unnamedsubcircuit97_connectivity_net0"/><g class="trace-overlays" data-layer="overlay" data-circuit-json-type="schematic_trace" data-schematic-trace-id="schematic_trace_3" data-subcircuit-connectivity-map-key="unnamedsubcircuit97_connectivity_net1"/><g class="trace-overlays" data-layer="overlay" data-circuit-json-type="schematic_trace" data-schematic-trace-id="schematic_trace_4" data-subcircuit-connectivity-map-key="unnamedsubcircuit97_connectivity_net1"/><g class="trace-overlays" data-layer="overlay" data-circuit-json-type="schematic_trace" data-schematic-trace-id="schematic_trace_5" data-subcircuit-connectivity-map-key="unnamedsubcircuit97_connectivity_net2"/><g class="trace-overlays" data-layer="overlay" data-circuit-json-type="schematic_trace" data-schematic-trace-id="schematic_trace_6" data-subcircuit-connectivity-map-key="unnamedsubcircuit97_connectivity_net8"/><g class="trace-overlays" data-layer="overlay" data-circuit-json-type="schematic_trace" data-schematic-trace-id="schematic_trace_7"/><g class="trace-overlays" data-layer="overlay" data-circuit-json-type="schematic_trace" data-schematic-trace-id="schematic_trace_8"/><g class="trace-overlays" data-layer="overlay" data-circuit-json-type="schematic_trace" data-schematic-trace-id="schematic_trace_9"/><g data-circuit-json-type="schematic_component" data-schematic-component-id="schematic_component_0"><rect class="component chip" x="45.78852672746996" y="382.12202001384003" width="65.41218103926002" height="59.46561912659996" stroke-width="1.189312382532px" fill="rgb(255, 255, 194)" stroke="rgb(132, 0, 0)"/><rect class="component-overlay" x="45.78852672746996" y="382.12202001384003" width="65.41218103926002" height="59.46561912659996" fill="transparent"/><text x="45.78852672746996" y="449.318169626898" fill="#006464" text-anchor="start" dominant-baseline="middle" font-family="sans-serif" font-size="10.703811442787998px" transform="rotate(0, 45.78852672746996, 449.318169626898)"></text><text x="45.78852672746996" y="374.391489527382" fill="#006464" text-anchor="start" dominant-baseline="middle" font-family="sans-serif" font-size="10.703811442787998px" transform="rotate(0, 45.78852672746996, 374.391489527382)">JP1</text><line class="component-pin" x1="111.20070776672998" y1="441.58763914044" x2="134.98695541737004" y2="441.58763914044" stroke-width="1.189312382532px"/><g data-schematic-port-id="source_port_0"><rect x="133.79764303483805" y="440.39832675790797" width="2.378624765064" height="2.378624765064" opacity="0"/></g><text class="pin-number" x="123.09383159204998" y="440.39832675790797" style="font-family: sans-serif;" fill="rgb(169, 0, 0)" text-anchor="middle" dominant-baseline="auto" font-size="8.91984286899px" transform="">1</text><text class="pin-number" x="105.25414585406998" y="441.58763914044" style="font-family: sans-serif;" fill="rgb(169, 0, 0)" text-anchor="end" dominant-baseline="middle" font-size="8.91984286899px" transform="">VL</text><line class="component-pin" x1="111.20070776672998" y1="429.69451531512" x2="134.98695541737004" y2="429.69451531512" stroke-width="1.189312382532px"/><g data-schematic-port-id="source_port_1"><rect x="133.79764303483805" y="428.50520293258796" width="2.378624765064" height="2.378624765064" opacity="0"/></g><text class="pin-number" x="123.09383159204998" y="428.505202932588" style="font-family: sans-serif;" fill="rgb(169, 0, 0)" text-anchor="middle" dominant-baseline="auto" font-size="8.91984286899px" transform="">2</text><text class="pin-number" x="105.25414585406998" y="429.69451531512" style="font-family: sans-serif;" fill="rgb(169, 0, 0)" text-anchor="end" dominant-baseline="middle" font-size="8.91984286899px" transform="">GND</text><line class="component-pin" x1="111.20070776672998" y1="417.80139148980004" x2="134.98695541737004" y2="417.80139148980004" stroke-width="1.189312382532px"/><g data-schematic-port-id="source_port_2"><rect x="133.79764303483805" y="416.612079107268" width="2.378624765064" height="2.378624765064" opacity="0"/></g><text class="pin-number" x="123.09383159204998" y="416.612079107268" style="font-family: sans-serif;" fill="rgb(169, 0, 0)" text-anchor="middle" dominant-baseline="auto" font-size="8.91984286899px" transform="">3</text><text class="pin-number" x="105.25414585406998" y="417.80139148980004" style="font-family: sans-serif;" fill="rgb(169, 0, 0)" text-anchor="end" dominant-baseline="middle" font-size="8.91984286899px" transform="">VCC</text><line class="component-pin" x1="111.20070776672998" y1="405.90826766448" x2="134.98695541737004" y2="405.90826766448" stroke-width="1.189312382532px"/><g data-schematic-port-id="source_port_3"><rect x="133.79764303483805" y="404.71895528194796" width="2.378624765064" height="2.378624765064" opacity="0"/></g><text class="pin-number" x="123.09383159204998" y="404.718955281948" style="font-family: sans-serif;" fill="rgb(169, 0, 0)" text-anchor="middle" dominant-baseline="auto" font-size="8.91984286899px" transform="">4</text><text class="pin-number" x="105.25414585406998" y="405.90826766448" style="font-family: sans-serif;" fill="rgb(169, 0, 0)" text-anchor="end" dominant-baseline="middle" font-size="8.91984286899px" transform="">SDA</text><line class="component-pin" x1="111.20070776672998" y1="394.01514383916003" x2="134.98695541737004" y2="394.01514383916003" stroke-width="1.189312382532px"/><g data-schematic-port-id="source_port_4"><rect x="133.79764303483805" y="392.825831456628" width="2.378624765064" height="2.378624765064" opacity="0"/></g><text class="pin-number" x="123.09383159204998" y="392.825831456628" style="font-family: sans-serif;" fill="rgb(169, 0, 0)" text-anchor="middle" dominant-baseline="auto" font-size="8.91984286899px" transform="">5</text><text class="pin-number" x="105.25414585406998" y="394.01514383916003" style="font-family: sans-serif;" fill="rgb(169, 0, 0)" text-anchor="end" dominant-baseline="middle" font-size="8.91984286899px" transform="">SCL</text><line class="component-pin" x1="111.20070776672998" y1="382.12202001384003" x2="134.98695541737004" y2="382.12202001384003" stroke-width="1.189312382532px"/><g data-schematic-port-id="source_port_5"><rect x="133.79764303483805" y="380.932707631308" width="2.378624765064" height="2.378624765064" opacity="0"/></g><text class="pin-number" x="123.09383159204998" y="380.932707631308" style="font-family: sans-serif;" fill="rgb(169, 0, 0)" text-anchor="middle" dominant-baseline="auto" font-size="8.91984286899px" transform="">6</text><text class="pin-number" x="105.25414585406998" y="382.12202001384003" style="font-family: sans-serif;" fill="rgb(169, 0, 0)" text-anchor="end" dominant-baseline="middle" font-size="8.91984286899px" transform="">INT</text></g><g data-circuit-json-type="schematic_component" data-schematic-component-id="schematic_component_1"><rect class="component chip" x="912.2025974020319" y="275.08390558596" width="116.5526134881361" height="47.572495301280014" stroke-width="1.189312382532px" fill="rgb(255, 255, 194)" stroke="rgb(132, 0, 0)"/><rect class="component-overlay" x="912.2025974020319" y="275.08390558596" width="116.5526134881361" height="47.572495301280014" fill="transparent"/><text x="912.2025974020319" y="330.386931373698" fill="#006464" text-anchor="start" dominant-baseline="middle" font-family="sans-serif" font-size="10.703811442787998px" transform="rotate(0, 912.2025974020319, 330.386931373698)">APDS-9960</text><text x="912.2025974020319" y="267.35337509950205" fill="#006464" text-anchor="start" dominant-baseline="middle" font-family="sans-serif" font-size="10.703811442787998px" transform="rotate(0, 912.2025974020319, 267.35337509950205)">U1</text><line class="component-pin" x1="1028.755210890168" y1="322.65640088724" x2="1052.541458540808" y2="322.65640088724" stroke-width="1.189312382532px"/><g data-schematic-port-id="source_port_6"><rect x="1051.352146158276" y="321.467088504708" width="2.378624765064" height="2.378624765064" opacity="0"/></g><text class="pin-number" x="1040.6483347154879" y="321.467088504708" style="font-family: sans-serif;" fill="rgb(169, 0, 0)" text-anchor="middle" dominant-baseline="auto" font-size="8.91984286899px" transform="">1</text><text class="pin-number" x="1022.808648977508" y="322.65640088724" style="font-family: sans-serif;" fill="rgb(169, 0, 0)" text-anchor="end" dominant-baseline="middle" font-size="8.91984286899px" transform="">SDA</text><line class="component-pin" x1="1028.755210890168" y1="298.8701532366" x2="1052.541458540808" y2="298.8701532366" stroke-width="1.189312382532px"/><g data-schematic-port-id="source_port_7"><rect x="1051.352146158276" y="297.680840854068" width="2.378624765064" height="2.378624765064" opacity="0"/></g><text class="pin-number" x="1040.6483347154879" y="297.68084085406804" style="font-family: sans-serif;" fill="rgb(169, 0, 0)" text-anchor="middle" dominant-baseline="auto" font-size="8.91984286899px" transform="">2</text><text class="pin-number" x="1022.808648977508" y="298.8701532366" style="font-family: sans-serif;" fill="rgb(169, 0, 0)" text-anchor="end" dominant-baseline="middle" font-size="8.91984286899px" transform="">INT</text><line class="component-pin" x1="1028.755210890168" y1="286.97702941128" x2="1052.541458540808" y2="286.97702941128" stroke-width="1.189312382532px"/><g data-schematic-port-id="source_port_8"><rect x="1051.352146158276" y="285.787717028748" width="2.378624765064" height="2.378624765064" opacity="0"/></g><text class="pin-number" x="1040.6483347154879" y="285.78771702874803" style="font-family: sans-serif;" fill="rgb(169, 0, 0)" text-anchor="middle" dominant-baseline="auto" font-size="8.91984286899px" transform="">3</text><text class="pin-number" x="1022.808648977508" y="286.97702941128" style="font-family: sans-serif;" fill="rgb(169, 0, 0)" text-anchor="end" dominant-baseline="middle" font-size="8.91984286899px" transform="">LDR</text><line class="component-pin" x1="1028.755210890168" y1="275.08390558596" x2="1052.541458540808" y2="275.08390558596" stroke-width="1.189312382532px"/><g data-schematic-port-id="source_port_9"><rect x="1051.352146158276" y="273.894593203428" width="2.378624765064" height="2.378624765064" opacity="0"/></g><text class="pin-number" x="1040.6483347154879" y="273.89459320342803" style="font-family: sans-serif;" fill="rgb(169, 0, 0)" text-anchor="middle" dominant-baseline="auto" font-size="8.91984286899px" transform="">4</text><text class="pin-number" x="1022.808648977508" y="275.08390558596" style="font-family: sans-serif;" fill="rgb(169, 0, 0)" text-anchor="end" dominant-baseline="middle" font-size="8.91984286899px" transform="">LEDK</text><line class="component-pin" x1="912.202597402032" y1="310.76327706192" x2="888.416349751392" y2="310.76327706192" stroke-width="1.189312382532px"/><g data-schematic-port-id="source_port_10"><rect x="887.22703736886" y="309.573964679388" width="2.378624765064" height="2.378624765064" opacity="0"/></g><text class="pin-number" x="900.309473576712" y="309.57396467938804" style="font-family: sans-serif;" fill="rgb(169, 0, 0)" text-anchor="middle" dominant-baseline="auto" font-size="8.91984286899px" transform="">5</text><text class="pin-number" x="918.149159314692" y="310.76327706192" style="font-family: sans-serif;" fill="rgb(169, 0, 0)" text-anchor="start" dominant-baseline="middle" font-size="8.91984286899px" transform="">LEDA</text><line class="component-pin" x1="912.202597402032" y1="298.8701532366" x2="888.416349751392" y2="298.8701532366" stroke-width="1.189312382532px"/><g data-schematic-port-id="source_port_11"><rect x="887.22703736886" y="297.680840854068" width="2.378624765064" height="2.378624765064" opacity="0"/></g><text class="pin-number" x="900.309473576712" y="297.68084085406804" style="font-family: sans-serif;" fill="rgb(169, 0, 0)" text-anchor="middle" dominant-baseline="auto" font-size="8.91984286899px" transform="">6</text><text class="pin-number" x="918.149159314692" y="298.8701532366" style="font-family: sans-serif;" fill="rgb(169, 0, 0)" text-anchor="start" dominant-baseline="middle" font-size="8.91984286899px" transform="">GND</text><line class="component-pin" x1="1028.755210890168" y1="310.76327706192" x2="1052.541458540808" y2="310.76327706192" stroke-width="1.189312382532px"/><g data-schematic-port-id="source_port_12"><rect x="1051.352146158276" y="309.573964679388" width="2.378624765064" height="2.378624765064" opacity="0"/></g><text class="pin-number" x="1040.6483347154879" y="309.57396467938804" style="font-family: sans-serif;" fill="rgb(169, 0, 0)" text-anchor="middle" dominant-baseline="auto" font-size="8.91984286899px" transform="">7</text><text class="pin-number" x="1022.808648977508" y="310.76327706192" style="font-family: sans-serif;" fill="rgb(169, 0, 0)" text-anchor="end" dominant-baseline="middle" font-size="8.91984286899px" transform="">SCL</text><line class="component-pin" x1="912.202597402032" y1="286.97702941128" x2="888.416349751392" y2="286.97702941128" stroke-width="1.189312382532px"/><g data-schematic-port-id="source_port_13"><rect x="887.22703736886" y="285.787717028748" width="2.378624765064" height="2.378624765064" opacity="0"/></g><text class="pin-number" x="900.309473576712" y="285.78771702874803" style="font-family: sans-serif;" fill="rgb(169, 0, 0)" text-anchor="middle" dominant-baseline="auto" font-size="8.91984286899px" transform="">8</text><text class="pin-number" x="918.149159314692" y="286.97702941128" style="font-family: sans-serif;" fill="rgb(169, 0, 0)" text-anchor="start" dominant-baseline="middle" font-size="8.91984286899px" transform="">VDD</text></g><g data-circuit-json-type="schematic_component" data-schematic-component-id="schematic_component_2"><rect class="component-overlay" x="1152.4436986734959" y="209.67172454670003" width="16.055717164181942" height="65.41218103925996" fill="transparent"/><path d="M 1160.76888535122 209.67172454670003 L 1160.76888535122 226.32209790214802" stroke="rgb(132, 0, 0)" fill="none" stroke-width="1.189312382532px" stroke-linecap="round"/><path d="M 1160.76888535122 257.83887603924603 L 1160.76888535122 275.08390558596" stroke="rgb(132, 0, 0)" fill="none" stroke-width="1.189312382532px" stroke-linecap="round"/><path d="M 1168.4994158376778 242.37781506633002 L 1168.4994158376778 257.83887603924603 L 1152.4436986734959 257.83887603924603 L 1152.4436986734959 226.32209790214802 L 1168.4994158376778 226.32209790214802 L 1168.4994158376778 242.37781506633002" stroke="rgb(132, 0, 0)" fill="none" stroke-width="1.189312382532px" stroke-linecap="round"/><text x="1171.4403088445506" y="231.674003623542" stroke="rgb(245, 241, 237)" stroke-width="1.189312382532px" paint-order="stroke" fill="rgb(15, 15, 15)" font-family="sans-serif" text-anchor="start" dominant-baseline="middle" font-size="10.703811442787998px">R1</text><text x="1171.4403088445506" y="250.703001744054" fill="rgb(15, 15, 15)" font-family="sans-serif" text-anchor="start" dominant-baseline="middle" font-size="10.703811442787998px">10kΩ</text></g><g data-circuit-json-type="schematic_component" data-schematic-component-id="schematic_component_3"><rect class="component-overlay" x="266.405973687156" y="206.69844359037003" width="16.055717164182" height="65.41218103925999" fill="transparent"/><path d="M 274.73116036488005 206.69844359037003 L 274.73116036488005 223.34881694581802" stroke="rgb(132, 0, 0)" fill="none" stroke-width="1.189312382532px" stroke-linecap="round"/><path d="M 274.73116036488005 254.865595082916 L 274.73116036488005 272.11062462963" stroke="rgb(132, 0, 0)" fill="none" stroke-width="1.189312382532px" stroke-linecap="round"/><path d="M 282.461690851338 239.40453411000001 L 282.461690851338 254.865595082916 L 266.405973687156 254.865595082916 L 266.405973687156 223.34881694581802 L 282.461690851338 223.34881694581802 L 282.461690851338 239.40453411000001" stroke="rgb(132, 0, 0)" fill="none" stroke-width="1.189312382532px" stroke-linecap="round"/><text x="285.4025838582107" y="228.700722667212" stroke="rgb(245, 241, 237)" stroke-width="1.189312382532px" paint-order="stroke" fill="rgb(15, 15, 15)" font-family="sans-serif" text-anchor="start" dominant-baseline="middle" font-size="10.703811442787998px">R2</text><text x="285.4025838582107" y="247.729720787724" fill="rgb(15, 15, 15)" font-family="sans-serif" text-anchor="start" dominant-baseline="middle" font-size="10.703811442787998px">4.7kΩ</text></g><g data-circuit-json-type="schematic_component" data-schematic-component-id="schematic_component_4"><rect class="component-overlay" x="361.5509642897159" y="206.69844359037003" width="16.055717164182" height="65.41218103925999" fill="transparent"/><path d="M 369.87615096743997 206.69844359037003 L 369.87615096743997 223.34881694581802" stroke="rgb(132, 0, 0)" fill="none" stroke-width="1.189312382532px" stroke-linecap="round"/><path d="M 369.87615096743997 254.865595082916 L 369.87615096743997 272.11062462963" stroke="rgb(132, 0, 0)" fill="none" stroke-width="1.189312382532px" stroke-linecap="round"/><path d="M 377.6066814538979 239.40453411000001 L 377.6066814538979 254.865595082916 L 361.5509642897159 254.865595082916 L 361.5509642897159 223.34881694581802 L 377.6066814538979 223.34881694581802 L 377.6066814538979 239.40453411000001" stroke="rgb(132, 0, 0)" fill="none" stroke-width="1.189312382532px" stroke-linecap="round"/><text x="380.5475744607706" y="228.700722667212" stroke="rgb(245, 241, 237)" stroke-width="1.189312382532px" paint-order="stroke" fill="rgb(15, 15, 15)" font-family="sans-serif" text-anchor="start" dominant-baseline="middle" font-size="10.703811442787998px">R3</text><text x="380.5475744607706" y="247.729720787724" fill="rgb(15, 15, 15)" font-family="sans-serif" text-anchor="start" dominant-baseline="middle" font-size="10.703811442787998px">4.7kΩ</text></g><g data-circuit-json-type="schematic_component" data-schematic-component-id="schematic_component_5"><rect class="component-overlay" x="724.291240961976" y="218.59156741569" width="16.055717164182056" height="65.41218103926002" fill="transparent"/><path d="M 732.6164276397 218.59156741569 L 732.6164276397 235.24194077113802" stroke="rgb(132, 0, 0)" fill="none" stroke-width="1.189312382532px" stroke-linecap="round"/><path d="M 732.6164276397 266.758718908236 L 732.6164276397 284.00374845495" stroke="rgb(132, 0, 0)" fill="none" stroke-width="1.189312382532px" stroke-linecap="round"/><path d="M 740.346958126158 251.29765793532002 L 740.346958126158 266.758718908236 L 724.291240961976 266.758718908236 L 724.291240961976 235.24194077113802 L 740.346958126158 235.24194077113802 L 740.346958126158 251.29765793532002" stroke="rgb(132, 0, 0)" fill="none" stroke-width="1.189312382532px" stroke-linecap="round"/><text x="743.2878511330307" y="240.593846492532" stroke="rgb(245, 241, 237)" stroke-width="1.189312382532px" paint-order="stroke" fill="rgb(15, 15, 15)" font-family="sans-serif" text-anchor="start" dominant-baseline="middle" font-size="10.703811442787998px">R4</text><text x="743.2878511330307" y="259.62284461304404" fill="rgb(15, 15, 15)" font-family="sans-serif" text-anchor="start" dominant-baseline="middle" font-size="10.703811442787998px">10kΩ</text></g><g data-circuit-json-type="schematic_component" data-schematic-component-id="schematic_component_6"><rect class="component-overlay" x="835.491948728718" y="414.82811053347" width="31.51677813709796" height="65.41218103926002" fill="transparent"/><path d="M 851.5476658928999 480.24029157273003 L 851.5476658928999 451.696794391962" stroke="rgb(132, 0, 0)" fill="none" stroke-width="1.189312382532px" stroke-linecap="round"/><path d="M 851.5476658928999 442.18229533170603 L 851.5476658928999 414.82811053347" stroke="rgb(132, 0, 0)" fill="none" stroke-width="1.189312382532px" stroke-linecap="round"/><path d="M 867.0087268658159 451.696794391962 L 835.491948728718 451.696794391962" stroke="rgb(132, 0, 0)" fill="none" stroke-width="1.189312382532px" stroke-linecap="round"/><path d="M 867.0087268658159 442.18229533170603 L 835.491948728718 442.18229533170603" stroke="rgb(132, 0, 0)" fill="none" stroke-width="1.189312382532px" stroke-linecap="round"/><text x="857.1968997099269" y="435.64107722778004" stroke="rgb(245, 241, 237)" stroke-width="1.189312382532px" paint-order="stroke" fill="rgb(15, 15, 15)" font-family="sans-serif" text-anchor="start" dominant-baseline="ideographic" font-size="10.703811442787998px">C2</text><text x="857.1968997099269" y="459.42732487842" fill="rgb(15, 15, 15)" font-family="sans-serif" text-anchor="start" dominant-baseline="hanging" font-size="10.703811442787998px">1uF</text></g><g data-circuit-json-type="schematic_component" data-schematic-component-id="schematic_component_7"><rect class="component-overlay" x="823.5988249033979" y="182.91219593973" width="31.516778137098072" height="65.41218103926002" fill="transparent"/><path d="M 839.65454206758 248.32437697899002 L 839.65454206758 219.780879798222" stroke="rgb(132, 0, 0)" fill="none" stroke-width="1.189312382532px" stroke-linecap="round"/><path d="M 839.65454206758 210.266380737966 L 839.65454206758 182.91219593973" stroke="rgb(132, 0, 0)" fill="none" stroke-width="1.189312382532px" stroke-linecap="round"/><path d="M 855.115603040496 219.780879798222 L 823.5988249033979 219.780879798222" stroke="rgb(132, 0, 0)" fill="none" stroke-width="1.189312382532px" stroke-linecap="round"/><path d="M 855.115603040496 210.266380737966 L 823.5988249033979 210.266380737966" stroke="rgb(132, 0, 0)" fill="none" stroke-width="1.189312382532px" stroke-linecap="round"/><text x="845.303775884607" y="203.72516263404" stroke="rgb(245, 241, 237)" stroke-width="1.189312382532px" paint-order="stroke" fill="rgb(15, 15, 15)" font-family="sans-serif" text-anchor="start" dominant-baseline="ideographic" font-size="10.703811442787998px">C3</text><text x="845.303775884607" y="227.51141028468" fill="rgb(15, 15, 15)" font-family="sans-serif" text-anchor="start" dominant-baseline="hanging" font-size="10.703811442787998px">1uF</text></g><g data-circuit-json-type="schematic_component" data-schematic-component-id="schematic_component_8"><rect class="component-overlay" x="744.50955146502" y="418.098719585433" width="33.895402902162004" height="58.870962935334035" fill="transparent"/><path d="M 762.349237203 418.098719585433 L 762.349237203 444.85824819240304" stroke="rgb(132, 0, 0)" fill="none" stroke-width="1.189312382532px" stroke-linecap="round"/><path d="M 762.349237203 450.210153913797 L 762.349237203 476.96968252076704" stroke="rgb(132, 0, 0)" fill="none" stroke-width="1.189312382532px" stroke-linecap="round"/><path d="M 746.888176230084 444.85824819240304 L 778.404954367182 444.85824819240304" stroke="rgb(132, 0, 0)" fill="none" stroke-width="1.189312382532px" stroke-linecap="round"/><path d="M 777.8102981759159 453.18343487012703 L 777.8102981759159 453.18343487012703 L 777.8102981759159 453.18343487012703 L 777.8102981759159 453.18343487012703 L 777.8102981759159 453.18343487012703 L 777.8102981759159 453.18343487012703 L 777.8102981759159 453.18343487012703 L 777.8102981759159 453.18343487012703 L 777.8102981759159 453.18343487012703 L 777.21564198465 453.18343487012703 L 777.21564198465 453.18343487012703 L 777.21564198465 453.18343487012703 L 777.21564198465 453.18343487012703 L 777.21564198465 452.588778678861 L 777.21564198465 452.588778678861 L 777.21564198465 452.588778678861 L 777.21564198465 452.588778678861 L 776.620985793384 452.588778678861 L 776.620985793384 452.588778678861 L 776.620985793384 452.588778678861 L 776.620985793384 452.588778678861 L 776.620985793384 452.588778678861 L 776.620985793384 452.588778678861 L 776.620985793384 452.588778678861 L 776.620985793384 452.588778678861 L 776.026329602118 452.588778678861 L 776.026329602118 452.588778678861 L 776.026329602118 452.588778678861 L 776.026329602118 451.994122487595 L 776.026329602118 451.994122487595 L 776.026329602118 451.994122487595 L 776.026329602118 451.994122487595 L 776.026329602118 451.994122487595 L 775.431673410852 451.994122487595 L 775.431673410852 451.994122487595 L 775.431673410852 451.994122487595 L 775.431673410852 451.994122487595 L 775.431673410852 451.994122487595 L 775.431673410852 451.994122487595 L 775.431673410852 451.994122487595 L 775.431673410852 451.994122487595 L 774.837017219586 451.994122487595 L 774.837017219586 451.994122487595 L 774.837017219586 451.994122487595 L 774.837017219586 451.994122487595 L 774.837017219586 451.399466296329 L 774.837017219586 451.399466296329 L 774.837017219586 451.399466296329 L 774.24236102832 451.399466296329 L 774.24236102832 451.399466296329 L 774.24236102832 451.399466296329 L 774.24236102832 451.399466296329 L 774.24236102832 451.399466296329 L 774.24236102832 451.399466296329 L 774.24236102832 451.399466296329 L 774.24236102832 451.399466296329 L 773.647704837054 451.399466296329 L 773.647704837054 451.399466296329 L 773.647704837054 451.399466296329 L 773.647704837054 451.399466296329 L 773.647704837054 451.399466296329 L 773.647704837054 451.399466296329 L 773.647704837054 451.399466296329 L 773.647704837054 451.399466296329 L 773.053048645788 450.80481010506304 L 773.053048645788 450.80481010506304 L 773.053048645788 450.80481010506304 L 773.053048645788 450.80481010506304 L 773.053048645788 450.80481010506304 L 773.053048645788 450.80481010506304 L 773.053048645788 450.80481010506304 L 773.053048645788 450.80481010506304 L 772.458392454522 450.80481010506304 L 772.458392454522 450.80481010506304 L 772.458392454522 450.80481010506304 L 772.458392454522 450.80481010506304 L 772.458392454522 450.80481010506304 L 772.458392454522 450.80481010506304 L 772.458392454522 450.80481010506304 L 771.863736263256 450.80481010506304 L 771.863736263256 450.80481010506304 L 771.863736263256 450.80481010506304 L 771.863736263256 450.80481010506304 L 771.863736263256 450.80481010506304 L 771.863736263256 450.80481010506304 L 771.863736263256 450.80481010506304 L 771.863736263256 450.210153913797 L 771.26908007199 450.210153913797 L 771.26908007199 450.210153913797 L 771.26908007199 450.210153913797 L 771.26908007199 450.210153913797 L 771.26908007199 450.210153913797 L 771.26908007199 450.210153913797 L 771.26908007199 450.210153913797 L 771.26908007199 450.210153913797 L 770.674423880724 450.210153913797 L 770.674423880724 450.210153913797 L 770.674423880724 450.210153913797 L 770.674423880724 450.210153913797 L 770.674423880724 450.210153913797 L 770.674423880724 450.210153913797 L 770.674423880724 450.210153913797 L 770.674423880724 450.210153913797 L 770.079767689458 450.210153913797 L 770.079767689458 450.210153913797 L 770.079767689458 450.210153913797 L 770.079767689458 450.210153913797 L 770.079767689458 450.210153913797 L 770.079767689458 450.210153913797 L 769.4851114981919 450.210153913797 L 769.4851114981919 450.210153913797 L 769.4851114981919 450.210153913797 L 769.4851114981919 450.210153913797 L 769.4851114981919 450.210153913797 L 769.4851114981919 450.210153913797 L 768.890455306926 449.615497722531 L 768.890455306926 449.615497722531 L 768.890455306926 449.615497722531 L 768.890455306926 449.615497722531 L 768.890455306926 449.615497722531 L 768.890455306926 449.615497722531 L 768.29579911566 449.615497722531 L 768.29579911566 449.615497722531 L 768.29579911566 449.615497722531 L 768.29579911566 449.615497722531 L 768.29579911566 449.615497722531 L 768.29579911566 449.615497722531 L 767.7011429243939 449.615497722531 L 767.7011429243939 449.615497722531 L 767.7011429243939 449.615497722531 L 767.7011429243939 449.615497722531 L 767.7011429243939 449.615497722531 L 767.7011429243939 449.615497722531 L 767.106486733128 449.615497722531 L 767.106486733128 449.615497722531 L 767.106486733128 449.615497722531 L 767.106486733128 449.615497722531 L 767.106486733128 449.615497722531 L 766.511830541862 449.615497722531 L 766.511830541862 449.615497722531 L 766.511830541862 449.615497722531 L 766.511830541862 449.615497722531 L 766.511830541862 449.615497722531 L 766.511830541862 449.615497722531 L 765.9171743505959 449.615497722531 L 765.9171743505959 449.615497722531 L 765.9171743505959 449.615497722531 L 765.9171743505959 449.615497722531 L 765.9171743505959 449.615497722531 L 765.9171743505959 449.615497722531 L 765.32251815933 449.615497722531 L 765.32251815933 449.615497722531 L 765.32251815933 449.615497722531 L 765.32251815933 449.615497722531 L 765.32251815933 449.615497722531 L 765.32251815933 449.615497722531 L 764.727861968064 449.615497722531 L 764.727861968064 449.615497722531 L 764.727861968064 449.615497722531 L 764.727861968064 449.615497722531 L 764.727861968064 449.615497722531 L 764.727861968064 449.615497722531 L 764.133205776798 449.615497722531 L 764.133205776798 449.615497722531 L 764.133205776798 449.615497722531 L 764.133205776798 449.615497722531 L 764.133205776798 449.615497722531 L 763.538549585532 449.615497722531 L 763.538549585532 449.615497722531 L 763.538549585532 449.615497722531 L 763.538549585532 449.615497722531 L 763.538549585532 449.615497722531 L 763.538549585532 449.615497722531 L 762.943893394266 449.615497722531 L 762.943893394266 449.02084153126503 L 762.943893394266 449.02084153126503 L 762.943893394266 449.02084153126503 L 762.943893394266 449.02084153126503 L 762.943893394266 449.02084153126503 L 762.349237203 449.615497722531 L 762.349237203 449.615497722531 L 762.349237203 449.615497722531 L 762.349237203 449.615497722531 L 762.349237203 449.615497722531 L 762.349237203 449.615497722531 L 761.754581011734 449.615497722531 L 761.754581011734 449.615497722531 L 761.754581011734 449.615497722531 L 761.754581011734 449.615497722531 L 761.754581011734 449.615497722531 L 761.754581011734 449.615497722531 L 761.159924820468 449.615497722531 L 761.159924820468 449.615497722531 L 761.159924820468 449.615497722531 L 761.159924820468 449.615497722531 L 761.159924820468 449.615497722531 L 760.565268629202 449.615497722531 L 760.565268629202 449.615497722531 L 760.565268629202 449.615497722531 L 760.565268629202 449.615497722531 L 760.565268629202 449.615497722531 L 760.565268629202 449.615497722531 L 759.970612437936 449.615497722531 L 759.970612437936 449.615497722531 L 759.970612437936 449.615497722531 L 759.970612437936 449.615497722531 L 759.970612437936 449.615497722531 L 759.970612437936 449.615497722531 L 759.970612437936 449.615497722531 L 759.970612437936 449.615497722531 L 759.37595624667 449.615497722531 L 759.37595624667 449.615497722531 L 759.37595624667 449.615497722531 L 759.37595624667 449.615497722531 L 759.37595624667 449.615497722531 L 759.37595624667 449.615497722531 L 759.37595624667 449.615497722531 L 758.781300055404 449.615497722531 L 758.781300055404 449.615497722531 L 758.781300055404 449.615497722531 L 758.781300055404 449.615497722531 L 758.781300055404 449.615497722531 L 758.781300055404 449.615497722531 L 758.186643864138 449.615497722531 L 758.186643864138 449.615497722531 L 758.186643864138 449.615497722531 L 758.186643864138 449.615497722531 L 758.186643864138 449.615497722531 L 758.186643864138 449.615497722531 L 758.186643864138 449.615497722531 L 757.5919876728719 449.615497722531 L 757.5919876728719 449.615497722531 L 757.5919876728719 449.615497722531 L 757.5919876728719 449.615497722531 L 757.5919876728719 449.615497722531 L 757.5919876728719 449.615497722531 L 757.5919876728719 449.615497722531 L 756.997331481606 449.615497722531 L 756.997331481606 449.615497722531 L 756.997331481606 449.615497722531 L 756.997331481606 449.615497722531 L 756.997331481606 449.615497722531 L 756.997331481606 449.615497722531 L 756.997331481606 449.615497722531 L 756.40267529034 449.615497722531 L 756.40267529034 449.615497722531 L 756.40267529034 449.615497722531 L 756.40267529034 449.615497722531 L 756.40267529034 450.210153913797 L 756.40267529034 450.210153913797 L 756.40267529034 450.210153913797 L 755.8080190990739 450.210153913797 L 755.8080190990739 450.210153913797 L 755.8080190990739 450.210153913797 L 755.8080190990739 450.210153913797 L 755.8080190990739 450.210153913797 L 755.8080190990739 450.210153913797 L 755.213362907808 450.210153913797 L 755.213362907808 450.210153913797 L 755.213362907808 450.210153913797 L 755.213362907808 450.210153913797 L 755.213362907808 450.210153913797 L 755.213362907808 450.210153913797 L 755.213362907808 450.210153913797 L 754.618706716542 450.210153913797 L 754.618706716542 450.210153913797 L 754.618706716542 450.210153913797 L 754.618706716542 450.210153913797 L 754.618706716542 450.210153913797 L 754.618706716542 450.210153913797 L 754.618706716542 450.210153913797 L 754.0240505252759 450.210153913797 L 754.0240505252759 450.210153913797 L 754.0240505252759 450.210153913797 L 754.0240505252759 450.210153913797 L 754.0240505252759 450.210153913797 L 754.0240505252759 450.210153913797 L 754.0240505252759 450.210153913797 L 753.42939433401 450.210153913797 L 753.42939433401 450.210153913797 L 753.42939433401 450.80481010506304 L 753.42939433401 450.80481010506304 L 753.42939433401 450.80481010506304 L 753.42939433401 450.80481010506304 L 753.42939433401 450.80481010506304 L 752.834738142744 450.80481010506304 L 752.834738142744 450.80481010506304 L 752.834738142744 450.80481010506304 L 752.834738142744 450.80481010506304 L 752.834738142744 450.80481010506304 L 752.834738142744 450.80481010506304 L 752.834738142744 450.80481010506304 L 752.240081951478 450.80481010506304 L 752.240081951478 450.80481010506304 L 752.240081951478 450.80481010506304 L 752.240081951478 450.80481010506304 L 752.240081951478 450.80481010506304 L 752.240081951478 450.80481010506304 L 752.240081951478 450.80481010506304 L 751.645425760212 450.80481010506304 L 751.645425760212 450.80481010506304 L 751.645425760212 450.80481010506304 L 751.645425760212 450.80481010506304 L 751.645425760212 450.80481010506304 L 751.645425760212 450.80481010506304 L 751.645425760212 451.399466296329 L 751.645425760212 451.399466296329 L 751.645425760212 451.399466296329 L 751.050769568946 451.399466296329 L 751.050769568946 451.399466296329 L 751.050769568946 451.399466296329 L 751.050769568946 451.399466296329 L 751.050769568946 451.399466296329 L 751.050769568946 451.399466296329 L 751.050769568946 451.399466296329 L 751.050769568946 451.399466296329 L 751.050769568946 451.399466296329 L 751.050769568946 451.399466296329 L 751.050769568946 451.399466296329 L 751.050769568946 451.399466296329 L 751.050769568946 451.399466296329 L 750.45611337768 451.399466296329 L 750.45611337768 451.399466296329 L 750.45611337768 451.399466296329 L 750.45611337768 451.399466296329 L 750.45611337768 451.399466296329 L 750.45611337768 451.399466296329 L 750.45611337768 451.399466296329 L 750.45611337768 451.399466296329 L 750.45611337768 451.399466296329 L 750.45611337768 451.399466296329 L 750.45611337768 451.399466296329 L 750.45611337768 451.399466296329 L 749.861457186414 451.399466296329 L 749.861457186414 451.399466296329 L 749.861457186414 451.399466296329 L 749.861457186414 451.399466296329 L 749.861457186414 451.994122487595 L 749.861457186414 451.994122487595 L 749.861457186414 451.994122487595 L 749.861457186414 451.994122487595 L 749.861457186414 451.994122487595 L 749.861457186414 451.994122487595 L 749.861457186414 451.994122487595 L 749.861457186414 451.994122487595 L 749.266800995148 451.994122487595 L 749.266800995148 451.994122487595 L 749.266800995148 451.994122487595 L 749.266800995148 451.994122487595 L 749.266800995148 451.994122487595 L 749.266800995148 451.994122487595 L 749.266800995148 451.994122487595 L 749.266800995148 451.994122487595 L 749.266800995148 451.994122487595 L 749.266800995148 451.994122487595 L 749.266800995148 451.994122487595 L 749.266800995148 451.994122487595 L 748.672144803882 451.994122487595 L 748.672144803882 451.994122487595 L 748.672144803882 451.994122487595 L 748.672144803882 451.994122487595 L 748.672144803882 451.994122487595 L 748.672144803882 451.994122487595 L 748.672144803882 452.588778678861 L 748.672144803882 452.588778678861 L 748.672144803882 452.588778678861 L 748.672144803882 452.588778678861 L 748.672144803882 452.588778678861 L 748.672144803882 452.588778678861 L 748.672144803882 452.588778678861 L 748.077488612616 452.588778678861 L 748.077488612616 452.588778678861 L 748.077488612616 452.588778678861 L 748.077488612616 452.588778678861 L 748.077488612616 452.588778678861 L 748.077488612616 452.588778678861 L 748.077488612616 452.588778678861 L 748.077488612616 452.588778678861 L 748.077488612616 452.588778678861 L 748.077488612616 452.588778678861 L 748.077488612616 452.588778678861 L 748.077488612616 452.588778678861 L 748.077488612616 452.588778678861 L 747.4828324213499 452.588778678861 L 747.4828324213499 452.588778678861 L 747.4828324213499 452.588778678861 L 747.4828324213499 452.588778678861 L 747.4828324213499 453.18343487012703 L 747.4828324213499 453.18343487012703 L 747.4828324213499 453.18343487012703 L 747.4828324213499 453.18343487012703 L 747.4828324213499 453.18343487012703 L 747.4828324213499 453.18343487012703 L 747.4828324213499 453.18343487012703 L 747.4828324213499 453.18343487012703 L 747.4828324213499 453.18343487012703 L 746.888176230084 453.18343487012703 L 746.888176230084 453.18343487012703 L 746.888176230084 453.18343487012703 L 746.888176230084 453.18343487012703 L 746.888176230084 453.18343487012703 L 746.888176230084 453.18343487012703 L 746.888176230084 453.18343487012703 L 746.888176230084 453.18343487012703 L 746.888176230084 453.18343487012703" stroke="rgb(132, 0, 0)" fill="none" stroke-width="1.189312382532px" stroke-linecap="round"/><path d="M 748.672144803882 429.397187219487 L 748.672144803882 437.722373897211 L 748.672144803882 437.722373897211 L 748.672144803882 429.397187219487" stroke="rgb(132, 0, 0)" fill="none" stroke-width="1.189312382532px" stroke-linecap="round"/><path d="M 744.50955146502 432.96512436708304 L 752.834738142744 432.96512436708304 L 752.834738142744 433.559780558349 L 744.50955146502 433.559780558349" stroke="rgb(132, 0, 0)" fill="none" stroke-width="1.189312382532px" stroke-linecap="round"/><text x="775.9939416526606" y="438.91168627974304" stroke="rgb(245, 241, 237)" stroke-width="1.189312382532px" paint-order="stroke" fill="rgb(15, 15, 15)" font-family="sans-serif" text-anchor="start" dominant-baseline="ideographic" font-size="10.703811442787998px">C1</text><text x="775.9939416526606" y="456.75137201772304" fill="rgb(15, 15, 15)" font-family="sans-serif" text-anchor="start" dominant-baseline="hanging" font-size="10.703811442787998px">100uF</text></g><g data-circuit-json-type="schematic_component" data-schematic-component-id="schematic_component_9"><rect class="component chip" x="286.6242841902" y="114.52673394414003" width="71.35874295191996" height="23.786247650640007" stroke-width="1.189312382532px" fill="rgb(255, 255, 194)" stroke="rgb(132, 0, 0)"/><rect class="component-overlay" x="286.6242841902" y="114.52673394414003" width="71.35874295191996" height="23.786247650640007" fill="transparent"/><text x="286.6242841902" y="146.04351208123802" fill="#006464" text-anchor="start" dominant-baseline="middle" font-family="sans-serif" font-size="10.703811442787998px" transform="rotate(0, 286.6242841902, 146.04351208123802)"></text><text x="286.6242841902" y="106.79620345768203" fill="#006464" text-anchor="start" dominant-baseline="middle" font-family="sans-serif" font-size="10.703811442787998px" transform="rotate(0, 286.6242841902, 106.79620345768203)">SJ1</text><line class="component-pin" x1="286.6242841902" y1="120.47329585680004" x2="262.83803653956" y2="120.47329585680004" stroke-width="1.189312382532px"/><g data-schematic-port-id="source_port_28"><rect x="261.64872415702797" y="119.28398347426804" width="2.378624765064" height="2.378624765064" opacity="0"/></g><text class="pin-number" x="274.73116036488" y="119.28398347426801" style="font-family: sans-serif;" fill="rgb(169, 0, 0)" text-anchor="middle" dominant-baseline="auto" font-size="8.91984286899px" transform="">1</text><line class="component-pin" x1="286.6242841902" y1="132.36641968212004" x2="262.83803653956" y2="132.36641968212004" stroke-width="1.189312382532px"/><g data-schematic-port-id="source_port_29"><rect x="261.64872415702797" y="131.17710729958804" width="2.378624765064" height="2.378624765064" opacity="0"/></g><text class="pin-number" x="274.73116036488" y="131.17710729958804" style="font-family: sans-serif;" fill="rgb(169, 0, 0)" text-anchor="middle" dominant-baseline="auto" font-size="8.91984286899px" transform="">2</text><line class="component-pin" x1="357.98302714211997" y1="126.41985776946004" x2="381.76927479276" y2="126.41985776946004" stroke-width="1.189312382532px"/><g data-schematic-port-id="source_port_30"><rect x="380.57996241022795" y="125.23054538692804" width="2.378624765064" height="2.378624765064" opacity="0"/></g><text class="pin-number" x="369.87615096743997" y="125.23054538692804" style="font-family: sans-serif;" fill="rgb(169, 0, 0)" text-anchor="middle" dominant-baseline="auto" font-size="8.91984286899px" transform="">3</text></g><g data-circuit-json-type="schematic_component" data-schematic-component-id="schematic_component_10"><rect class="component chip" x="696.93705616374" y="138.31298159478" width="71.35874295192002" height="23.786247650640007" stroke-width="1.189312382532px" fill="rgb(255, 255, 194)" stroke="rgb(132, 0, 0)"/><rect class="component-overlay" x="696.93705616374" y="138.31298159478" width="71.35874295192002" height="23.786247650640007" fill="transparent"/><text x="696.93705616374" y="169.82975973187803" fill="#006464" text-anchor="start" dominant-baseline="middle" font-family="sans-serif" font-size="10.703811442787998px" transform="rotate(0, 696.93705616374, 169.82975973187803)"></text><text x="696.93705616374" y="130.58245110832203" fill="#006464" text-anchor="start" dominant-baseline="middle" font-family="sans-serif" font-size="10.703811442787998px" transform="rotate(0, 696.93705616374, 130.58245110832203)">SJ2</text><line class="component-pin" x1="696.93705616374" y1="150.20610542010002" x2="673.1508085131" y2="150.20610542010002" stroke-width="1.189312382532px"/><g data-schematic-port-id="source_port_31"><rect x="671.961496130568" y="149.01679303756802" width="2.378624765064" height="2.378624765064" opacity="0"/></g><text class="pin-number" x="685.04393233842" y="149.01679303756802" style="font-family: sans-serif;" fill="rgb(169, 0, 0)" text-anchor="middle" dominant-baseline="auto" font-size="8.91984286899px" transform="">1</text><line class="component-pin" x1="768.29579911566" y1="150.20610542010002" x2="792.0820467663" y2="150.20610542010002" stroke-width="1.189312382532px"/><g data-schematic-port-id="source_port_32"><rect x="790.892734383768" y="149.01679303756802" width="2.378624765064" height="2.378624765064" opacity="0"/></g><text class="pin-number" x="780.18892294098" y="149.01679303756802" style="font-family: sans-serif;" fill="rgb(169, 0, 0)" text-anchor="middle" dominant-baseline="auto" font-size="8.91984286899px" transform="">2</text></g><g class="schematic-port-hover" data-schematic-port-id="source_port_0"><circle cx="134.98695541737004" cy="441.58763914044" r="2.378624765064" fill="red" opacity="0"/></g><g class="schematic-port-hover" data-schematic-port-id="source_port_1"><circle cx="134.98695541737004" cy="429.69451531512" r="2.378624765064" fill="red" opacity="0"/></g><g class="schematic-port-hover" data-schematic-port-id="source_port_2"><circle cx="134.98695541737004" cy="417.80139148980004" r="2.378624765064" fill="red" opacity="0"/></g><g class="schematic-port-hover" data-schematic-port-id="source_port_3"><circle cx="134.98695541737004" cy="405.90826766448" r="2.378624765064" fill="red" opacity="0"/></g><g class="schematic-port-hover" data-schematic-port-id="source_port_4"><circle cx="134.98695541737004" cy="394.01514383916003" r="2.378624765064" fill="red" opacity="0"/></g><g class="schematic-port-hover" data-schematic-port-id="source_port_5"><circle cx="134.98695541737004" cy="382.12202001384003" r="2.378624765064" fill="red" opacity="0"/></g><g class="schematic-port-hover" data-schematic-port-id="source_port_6"><circle cx="1052.541458540808" cy="322.65640088724" r="2.378624765064" fill="red" opacity="0"/></g><g class="schematic-port-hover" data-schematic-port-id="source_port_7"><circle cx="1052.541458540808" cy="298.8701532366" r="2.378624765064" fill="red" opacity="0"/></g><g class="schematic-port-hover" data-schematic-port-id="source_port_8"><circle cx="1052.541458540808" cy="286.97702941128" r="2.378624765064" fill="red" opacity="0"/></g><g class="schematic-port-hover" data-schematic-port-id="source_port_9"><circle cx="1052.541458540808" cy="275.08390558596" r="2.378624765064" fill="red" opacity="0"/></g><g class="schematic-port-hover" data-schematic-port-id="source_port_10"><circle cx="888.416349751392" cy="310.76327706192" r="2.378624765064" fill="red" opacity="0"/></g><g class="schematic-port-hover" data-schematic-port-id="source_port_11"><circle cx="888.416349751392" cy="298.8701532366" r="2.378624765064" fill="red" opacity="0"/></g><g class="schematic-port-hover" data-schematic-port-id="source_port_12"><circle cx="1052.541458540808" cy="310.76327706192" r="2.378624765064" fill="red" opacity="0"/></g><g class="schematic-port-hover" data-schematic-port-id="source_port_13"><circle cx="888.416349751392" cy="286.97702941128" r="2.378624765064" fill="red" opacity="0"/></g><g class="schematic-port-hover" data-schematic-port-id="source_port_14"><circle cx="1160.76888535122" cy="209.67172454670003" r="2.378624765064" fill="red" opacity="0"/></g><g class="schematic-port-hover" data-schematic-port-id="source_port_15"><circle cx="1160.76888535122" cy="275.08390558596" r="2.378624765064" fill="red" opacity="0"/></g><g class="schematic-port-hover" data-schematic-port-id="source_port_16"><circle cx="274.73116036488" cy="206.69844359037003" r="2.378624765064" fill="red" opacity="0"/></g><g class="schematic-port-hover" data-schematic-port-id="source_port_17"><circle cx="274.73116036488" cy="272.11062462963" r="2.378624765064" fill="red" opacity="0"/></g><g class="schematic-port-hover" data-schematic-port-id="source_port_18"><circle cx="369.87615096744" cy="206.69844359037003" r="2.378624765064" fill="red" opacity="0"/></g><g class="schematic-port-hover" data-schematic-port-id="source_port_19"><circle cx="369.87615096744" cy="272.11062462963" r="2.378624765064" fill="red" opacity="0"/></g><g class="schematic-port-hover" data-schematic-port-id="source_port_20"><circle cx="732.6164276397" cy="218.59156741569" r="2.378624765064" fill="red" opacity="0"/></g><g class="schematic-port-hover" data-schematic-port-id="source_port_21"><circle cx="732.6164276397" cy="284.00374845495" r="2.378624765064" fill="red" opacity="0"/></g><g class="schematic-port-hover" data-schematic-port-id="source_port_22"><circle cx="851.5476658928999" cy="414.82811053347" r="2.378624765064" fill="red" opacity="0"/></g><g class="schematic-port-hover" data-schematic-port-id="source_port_23"><circle cx="851.5476658928999" cy="480.24029157273003" r="2.378624765064" fill="red" opacity="0"/></g><g class="schematic-port-hover" data-schematic-port-id="source_port_24"><circle cx="839.65454206758" cy="182.91219593973" r="2.378624765064" fill="red" opacity="0"/></g><g class="schematic-port-hover" data-schematic-port-id="source_port_25"><circle cx="839.65454206758" cy="248.32437697899002" r="2.378624765064" fill="red" opacity="0"/></g><g class="schematic-port-hover" data-schematic-port-id="source_port_26"><circle cx="762.349237203" cy="476.96968252076704" r="2.378624765064" fill="red" opacity="0"/></g><g class="schematic-port-hover" data-schematic-port-id="source_port_27"><circle cx="762.349237203" cy="418.098719585433" r="2.378624765064" fill="red" opacity="0"/></g><g class="schematic-port-hover" data-schematic-port-id="source_port_28"><circle cx="262.83803653956" cy="120.47329585680004" r="2.378624765064" fill="red" opacity="0"/></g><g class="schematic-port-hover" data-schematic-port-id="source_port_29"><circle cx="262.83803653956" cy="132.36641968212004" r="2.378624765064" fill="red" opacity="0"/></g><g class="schematic-port-hover" data-schematic-port-id="source_port_30"><circle cx="381.76927479276" cy="126.41985776946004" r="2.378624765064" fill="red" opacity="0"/></g><g class="schematic-port-hover" data-schematic-port-id="source_port_31"><circle cx="673.1508085131" cy="150.20610542010002" r="2.378624765064" fill="red" opacity="0"/></g><g class="schematic-port-hover" data-schematic-port-id="source_port_32"><circle cx="792.0820467663" cy="150.20610542010002" r="2.378624765064" fill="red" opacity="0"/></g><path class="net-label" d="
    M 134.98695541737004,441.58763914044
    L 138.19809885020643,435.1653522747672
    L 157.4015294534898,435.1653522747672
    L 157.4015294534898,448.0099260061128
    L 138.19809885020643,448.0099260061128
    Z
  " fill="rgba(255, 255, 255, 0.6)" stroke="rgb(132, 0, 0)" stroke-width="1.189312382532px"/><text class="net-label-text" x="140.33886113876403" y="441.58763914044" fill="rgb(132, 0, 0)" text-anchor="start" dominant-baseline="central" font-family="sans-serif" font-variant-numeric="tabular-nums" font-size="10.703811442787998px" transform="">VL</text><path class="net-label" d="
    M 869.982007822146,310.76327706192
    L 876.4042946878188,313.97442049475643
    L 876.4042946878188,333.17785109803975
    L 863.5597209564731,333.17785109803975
    L 863.5597209564731,313.97442049475643
    Z
  " fill="rgba(255, 255, 255, 0.6)" stroke="rgb(132, 0, 0)" stroke-width="1.189312382532px"/><text class="net-label-text" x="869.982007822146" y="316.115182783314" fill="rgb(132, 0, 0)" text-anchor="start" dominant-baseline="central" font-family="sans-serif" font-variant-numeric="tabular-nums" font-size="10.703811442787998px" transform="rotate(90 869.982007822146 316.115182783314)">VL</text><rect class="component-overlay" x="654.1218103925879" y="139.50229397731204" width="14.27174859038405" height="10.70381144278798" fill="transparent"/><path d="M 668.393558982972 139.50229397731204 L 654.1218103925879 139.50229397731204" stroke="rgb(132, 0, 0)" fill="none" stroke-width="1.189312382532px" stroke-linecap="round"/><path d="M 661.2576846877799 139.50229397731204 L 661.2576846877799 150.20610542010002" stroke="rgb(132, 0, 0)" fill="none" stroke-width="1.189312382532px" stroke-linecap="round"/><text x="661.2576846877799" y="136.52901302098203" fill="rgb(15, 15, 15)" font-family="sans-serif" text-anchor="middle" dominant-baseline="ideographic" font-size="10.703811442787998px">VL</text><path class="net-label" d="
    M 134.98695541737004,429.69451531512
    L 138.19809885020643,423.2722284494472
    L 167.55825720031308,423.2722284494472
    L 167.55825720031308,436.1168021807928
    L 138.19809885020643,436.1168021807928
    Z
  " fill="rgba(255, 255, 255, 0.6)" stroke="rgb(132, 0, 0)" stroke-width="1.189312382532px"/><text class="net-label-text" x="140.33886113876403" y="429.69451531512" fill="rgb(132, 0, 0)" text-anchor="start" dominant-baseline="central" font-family="sans-serif" font-variant-numeric="tabular-nums" font-size="10.703811442787998px" transform="">GND</text><path class="net-label" d="
    M 864.0354459094859,298.8701532366
    L 857.6131590438131,295.6590098037636
    L 857.6131590438131,266.298851453657
    L 870.4577327751588,266.298851453657
    L 870.4577327751588,295.6590098037636
    Z
  " fill="rgba(255, 255, 255, 0.6)" stroke="rgb(132, 0, 0)" stroke-width="1.189312382532px"/><text class="net-label-text" x="864.0354459094859" y="293.518247515206" fill="rgb(132, 0, 0)" text-anchor="start" dominant-baseline="central" font-family="sans-serif" font-variant-numeric="tabular-nums" font-size="10.703811442787998px" transform="rotate(-90 864.0354459094859 293.518247515206)">GND</text><path class="net-label" d="
    M 851.5476658928999,492.13341539805003
    L 854.7588093257363,485.71112853237724
    L 884.1189676758429,485.71112853237724
    L 884.1189676758429,498.5557022637228
    L 854.7588093257363,498.5557022637228
    Z
  " fill="rgba(255, 255, 255, 0.6)" stroke="rgb(132, 0, 0)" stroke-width="1.189312382532px"/><text class="net-label-text" x="856.8995716142939" y="492.13341539805003" fill="rgb(132, 0, 0)" text-anchor="start" dominant-baseline="central" font-family="sans-serif" font-variant-numeric="tabular-nums" font-size="10.703811442787998px" transform="">GND</text><rect class="component-overlay" x="159.81385140272553" y="407.097580047012" width="14.271748590383993" height="10.703811442788037" fill="transparent"/><path d="M 174.08559999310953 407.097580047012 L 159.81385140272553 407.097580047012" stroke="rgb(132, 0, 0)" fill="none" stroke-width="1.189312382532px" stroke-linecap="round"/><path d="M 166.94972569791753 407.097580047012 L 166.94972569791753 417.80139148980004" stroke="rgb(132, 0, 0)" fill="none" stroke-width="1.189312382532px" stroke-linecap="round"/><text x="166.94972569791753" y="404.12429909068203" fill="rgb(15, 15, 15)" font-family="sans-serif" text-anchor="middle" dominant-baseline="ideographic" font-size="10.703811442787998px">VCC</text><path class="net-label" d="
    M 888.416349751392,286.97702941128
    L 885.2052063185556,293.3993162769528
    L 857.0343603509809,293.3993162769528
    L 857.0343603509809,280.5547425456072
    L 885.2052063185556,280.5547425456072
    Z
  " fill="rgba(255, 255, 255, 0.6)" stroke="rgb(132, 0, 0)" stroke-width="1.189312382532px"/><text class="net-label-text" x="883.064444029998" y="286.97702941128" fill="rgb(132, 0, 0)" text-anchor="end" dominant-baseline="central" font-family="sans-serif" font-variant-numeric="tabular-nums" font-size="10.703811442787998px" transform="">VCC</text><rect class="component-overlay" x="808.732420121748" y="139.50229397731204" width="14.27174859038405" height="10.70381144278798" fill="transparent"/><path d="M 823.004168712132 139.50229397731204 L 808.732420121748 139.50229397731204" stroke="rgb(132, 0, 0)" fill="none" stroke-width="1.189312382532px" stroke-linecap="round"/><path d="M 815.86829441694 139.50229397731204 L 815.86829441694 150.20610542010002" stroke="rgb(132, 0, 0)" fill="none" stroke-width="1.189312382532px" stroke-linecap="round"/><text x="815.86829441694" y="136.52901302098203" fill="rgb(15, 15, 15)" font-family="sans-serif" text-anchor="middle" dominant-baseline="ideographic" font-size="10.703811442787998px">VCC</text><path class="net-label" d="
    M 1160.76888535122,275.08390558596
    L 1167.1911722168927,278.2950490187964
    L 1167.1911722168927,306.46589498637104
    L 1154.3465984855472,306.46589498637104
    L 1154.3465984855472,278.2950490187964
    Z
  " fill="rgba(255, 255, 255, 0.6)" stroke="rgb(132, 0, 0)" stroke-width="1.189312382532px"/><text class="net-label-text" x="1160.76888535122" y="280.435811307354" fill="rgb(132, 0, 0)" text-anchor="start" dominant-baseline="central" font-family="sans-serif" font-variant-numeric="tabular-nums" font-size="10.703811442787998px" transform="rotate(90 1160.76888535122 280.435811307354)">VCC</text><path class="net-label" d="
    M 732.6164276397,284.00374845495
    L 739.0387145053728,287.21489188778645
    L 739.0387145053728,315.38573785536107
    L 726.1941407740271,315.38573785536107
    L 726.1941407740271,287.21489188778645
    Z
  " fill="rgba(255, 255, 255, 0.6)" stroke="rgb(132, 0, 0)" stroke-width="1.189312382532px"/><text class="net-label-text" x="732.6164276397" y="289.35565417634405" fill="rgb(132, 0, 0)" text-anchor="start" dominant-baseline="central" font-family="sans-serif" font-variant-numeric="tabular-nums" font-size="10.703811442787998px" transform="rotate(90 732.6164276397 289.35565417634405)">VCC</text><path class="net-label" d="
    M 134.98695541737004,405.90826766448
    L 138.19809885020643,399.4859807988072
    L 165.9725073569371,399.4859807988072
    L 165.9725073569371,412.33055453015277
    L 138.19809885020643,412.33055453015277
    Z
  " fill="rgba(255, 255, 255, 0.6)" stroke="rgb(132, 0, 0)" stroke-width="1.189312382532px"/><text class="net-label-text" x="140.33886113876403" y="405.90826766448" fill="rgb(132, 0, 0)" text-anchor="start" dominant-baseline="central" font-family="sans-serif" font-variant-numeric="tabular-nums" font-size="10.703811442787998px" transform="">SDA</text><path class="net-label" d="
    M 1052.541458540808,322.65640088724
    L 1055.7526019736445,316.2341140215672
    L 1083.527010480375,316.2341140215672
    L 1083.527010480375,329.0786877529128
    L 1055.7526019736445,329.0786877529128
    Z
  " fill="rgba(255, 255, 255, 0.6)" stroke="rgb(132, 0, 0)" stroke-width="1.189312382532px"/><text class="net-label-text" x="1057.8933642622019" y="322.65640088724" fill="rgb(132, 0, 0)" text-anchor="start" dominant-baseline="central" font-family="sans-serif" font-variant-numeric="tabular-nums" font-size="10.703811442787998px" transform="">SDA</text><path class="net-label" d="
    M 274.73116036488,206.69844359037003
    L 268.3088734992072,203.48730015753364
    L 268.3088734992072,175.712891650803
    L 281.1534472305528,175.712891650803
    L 281.1534472305528,203.48730015753364
    Z
  " fill="rgba(255, 255, 255, 0.6)" stroke="rgb(132, 0, 0)" stroke-width="1.189312382532px"/><text class="net-label-text" x="274.73116036488" y="201.34653786897604" fill="rgb(132, 0, 0)" text-anchor="start" dominant-baseline="central" font-family="sans-serif" font-variant-numeric="tabular-nums" font-size="10.703811442787998px" transform="rotate(-90 274.73116036488 201.34653786897604)">SDA</text><path class="net-label" d="
    M 134.98695541737004,394.01514383916003
    L 138.19809885020643,387.59285697348724
    L 164.78319497440506,387.59285697348724
    L 164.78319497440506,400.4374307048328
    L 138.19809885020643,400.4374307048328
    Z
  " fill="rgba(255, 255, 255, 0.6)" stroke="rgb(132, 0, 0)" stroke-width="1.189312382532px"/><text class="net-label-text" x="140.33886113876403" y="394.01514383916003" fill="rgb(132, 0, 0)" text-anchor="start" dominant-baseline="central" font-family="sans-serif" font-variant-numeric="tabular-nums" font-size="10.703811442787998px" transform="">SCL</text><path class="net-label" d="
    M 1052.541458540808,310.76327706192
    L 1055.7526019736445,304.3409901962472
    L 1082.337698097843,304.3409901962472
    L 1082.337698097843,317.1855639275928
    L 1055.7526019736445,317.1855639275928
    Z
  " fill="rgba(255, 255, 255, 0.6)" stroke="rgb(132, 0, 0)" stroke-width="1.189312382532px"/><text class="net-label-text" x="1057.8933642622019" y="310.76327706192" fill="rgb(132, 0, 0)" text-anchor="start" dominant-baseline="central" font-family="sans-serif" font-variant-numeric="tabular-nums" font-size="10.703811442787998px" transform="">SCL</text><path class="net-label" d="
    M 369.87615096744,206.69844359037003
    L 363.45386410176724,203.48730015753364
    L 363.45386410176724,176.902204033335
    L 376.2984378331128,176.902204033335
    L 376.2984378331128,203.48730015753364
    Z
  " fill="rgba(255, 255, 255, 0.6)" stroke="rgb(132, 0, 0)" stroke-width="1.189312382532px"/><text class="net-label-text" x="369.87615096744" y="201.34653786897604" fill="rgb(132, 0, 0)" text-anchor="start" dominant-baseline="central" font-family="sans-serif" font-variant-numeric="tabular-nums" font-size="10.703811442787998px" transform="rotate(-90 369.87615096744 201.34653786897604)">SCL</text><path class="net-label" d="
    M 134.98695541737004,382.12202001384003
    L 138.19809885020643,375.69973314816724
    L 162.00813274849708,375.69973314816724
    L 162.00813274849708,388.5443068795128
    L 138.19809885020643,388.5443068795128
    Z
  " fill="rgba(255, 255, 255, 0.6)" stroke="rgb(132, 0, 0)" stroke-width="1.189312382532px"/><text class="net-label-text" x="140.33886113876403" y="382.12202001384003" fill="rgb(132, 0, 0)" text-anchor="start" dominant-baseline="central" font-family="sans-serif" font-variant-numeric="tabular-nums" font-size="10.703811442787998px" transform="">INT</text><path class="net-label" d="
    M 1079.598315243411,298.8701532366
    L 1073.1760283777382,295.6590098037636
    L 1073.1760283777382,271.84897590547297
    L 1086.0206021090837,271.84897590547297
    L 1086.0206021090837,295.6590098037636
    Z
  " fill="rgba(255, 255, 255, 0.6)" stroke="rgb(132, 0, 0)" stroke-width="1.189312382532px"/><text class="net-label-text" x="1079.598315243411" y="293.518247515206" fill="rgb(132, 0, 0)" text-anchor="start" dominant-baseline="central" font-family="sans-serif" font-variant-numeric="tabular-nums" font-size="10.703811442787998px" transform="rotate(-90 1079.598315243411 293.518247515206)">INT</text><path class="net-label" d="
    M 274.73116036488,288.4934026990083
    L 277.9423037977164,282.0711158333355
    L 305.716712304447,282.0711158333355
    L 305.716712304447,294.9156895646811
    L 277.9423037977164,294.9156895646811
    Z
  " fill="rgba(255, 255, 255, 0.6)" stroke="rgb(132, 0, 0)" stroke-width="1.189312382532px"/><text class="net-label-text" x="280.083066086274" y="288.4934026990083" fill="rgb(132, 0, 0)" text-anchor="start" dominant-baseline="central" font-family="sans-serif" font-variant-numeric="tabular-nums" font-size="10.703811442787998px" transform="">SDA</text><path class="net-label" d="
    M 369.87615096744,272.11062462963
    L 376.2984378331128,275.32176806246645
    L 376.2984378331128,301.9068641866651
    L 363.45386410176724,301.9068641866651
    L 363.45386410176724,275.32176806246645
    Z
  " fill="rgba(255, 255, 255, 0.6)" stroke="rgb(132, 0, 0)" stroke-width="1.189312382532px"/><text class="net-label-text" x="369.87615096744" y="277.46253035102404" fill="rgb(132, 0, 0)" text-anchor="start" dominant-baseline="central" font-family="sans-serif" font-variant-numeric="tabular-nums" font-size="10.703811442787998px" transform="rotate(90 369.87615096744 277.46253035102404)">SCL</text><path class="net-label" d="
    M 262.83803653956,120.47329585680004
    L 259.62689310672357,126.89558272247284
    L 233.04179698252497,126.89558272247282
    L 233.04179698252497,114.05100899112723
    L 259.62689310672357,114.05100899112723
    Z
  " fill="rgba(255, 255, 255, 0.6)" stroke="rgb(132, 0, 0)" stroke-width="1.189312382532px"/><text class="net-label-text" x="257.486130818166" y="120.47329585680004" fill="rgb(132, 0, 0)" text-anchor="end" dominant-baseline="central" font-family="sans-serif" font-variant-numeric="tabular-nums" font-size="10.703811442787998px" transform="">SCL</text><text x="399.60896053074" y="135.33970063845" fill="red" text-anchor="middle" dominant-baseline="middle" font-family="sans-serif" font-size="14.271748590383998px" transform="rotate(0, 399.60896053074, 135.33970063845)"><tspan x="399.60896053074">I2C Pullup</tspan><tspan x="399.60896053074" dy="1em">Enable</tspan></text><text x="658.28440373145" y="194.80531976505003" fill="red" text-anchor="middle" dominant-baseline="middle" font-family="sans-serif" font-size="14.271748590383998px" transform="rotate(0, 658.28440373145, 194.80531976505003)"><tspan x="658.28440373145">Connect</tspan><tspan x="658.28440373145" dy="1em">Power Supplies</tspan></text><text x="994.2651517967399" y="135.33970063845" fill="red" text-anchor="middle" dominant-baseline="middle" font-family="sans-serif" font-size="14.86640478165px" transform="rotate(0, 994.2651517967399, 135.33970063845)">I2C Addr: 0x39</text></svg>