<svg xmlns="http://www.w3.org/2000/svg" width="1200" height="600" style="background-color: rgb(245, 241, 237)" data-real-to-screen-transform="matrix(59.4656191266,0,0,-59.4656191266,583.9523798232,323.9943773176)"><style>
              .boundary { fill: rgb(245, 241, 237); }
              .schematic-boundary { fill: none; stroke: #fff; }
              .component { fill: none; stroke: rgb(132, 0, 0); }
              .chip { fill: rgb(255, 255, 194); stroke: rgb(132, 0, 0); }
              .component-pin { fill: none; stroke: rgb(132, 0, 0); }
              /* Basic per-trace hover fallback */
              .trace:hover {
                filter: invert(1);
              }
              .trace:hover .trace-crossing-outline {
                opacity: 0;
              }
              .trace:hover .trace-junction {
                filter: invert(1);
              }
              /* Net-hover highlighting: when a trace or its overlays are hovered,
                 invert color for all traces (base + overlays) sharing the same
                 subcircuit connectivity key. Also hide crossing outline during hover. */
              svg:has(:is(g.trace[data-subcircuit-connectivity-map-key="undefined"], g.trace-overlays[data-subcircuit-connectivity-map-key="undefined"]):hover) :is(g.trace[data-subcircuit-connectivity-map-key="undefined"], g.trace-overlays[data-subcircuit-connectivity-map-key="undefined"]) { filter: invert(1); }
svg:has(:is(g.trace[data-subcircuit-connectivity-map-key="undefined"], g.trace-overlays[data-subcircuit-connectivity-map-key="undefined"]):hover) g.trace-overlays[data-subcircuit-connectivity-map-key="undefined"] .trace-crossing-outline { opacity: 0; }
              .text { font-family: sans-serif; fill: rgb(0, 150, 0); }
              .pin-number { fill: rgb(169, 0, 0); }
              .port-label { fill: rgb(0, 100, 100); }
              .component-name { fill: rgb(0, 100, 100); }
            </style><rect class="boundary" x="0" y="0" width="1200" height="600"/><g class="trace" data-layer="base" data-circuit-json-type="schematic_trace" data-schematic-trace-id="schematic_trace_0"><path d="M 851.5476658928999 410.21952505117 L 851.5476658928999 398.32640122585 L 762.349237203 398.32640122585 L 762.349237203 413.490134103133" class="trace-invisible-hover-outline" stroke="rgb(0, 150, 0)" fill="none" stroke-width="9.514499060256px" stroke-linecap="round" opacity="0" stroke-linejoin="round"/><path d="M 851.5476658928999 410.21952505117 L 851.5476658928999 398.32640122585 L 762.349237203 398.32640122585 L 762.349237203 413.490134103133" stroke="rgb(0, 150, 0)" fill="none" stroke-width="1.189312382532px" stroke-linecap="round" stroke-linejoin="round"/></g><g class="trace" data-layer="base" data-circuit-json-type="schematic_trace" data-schematic-trace-id="schematic_trace_1"><path d="M 888.416349751392 306.15469157962 L 851.5476658928999 306.15469157962 L 851.5476658928999 410.21952505117" class="trace-invisible-hover-outline" stroke="rgb(0, 150, 0)" fill="none" stroke-width="9.514499060256px" stroke-linecap="round" opacity="0" stroke-linejoin="round"/><path d="M 888.416349751392 306.15469157962 L 851.5476658928999 306.15469157962 L 851.5476658928999 410.21952505117" stroke="rgb(0, 150, 0)" fill="none" stroke-width="1.189312382532px" stroke-linecap="round" stroke-linejoin="round"/></g><g class="trace" data-layer="base" data-circuit-json-type="schematic_trace" data-schematic-trace-id="schematic_trace_2"><path d="M 705.85689903273 145.59751993780003 L 693.96377520741 145.59751993780003 L 693.96377520741 179.79025093559505 L 732.6164276397 179.79025093559505 L 732.6164276397 213.98298193339002" class="trace-invisible-hover-outline" stroke="rgb(0, 150, 0)" fill="none" stroke-width="9.514499060256px" stroke-linecap="round" opacity="0" stroke-linejoin="round"/><path d="M 705.85689903273 145.59751993780003 L 693.96377520741 145.59751993780003 L 693.96377520741 179.79025093559505 L 732.6164276397 179.79025093559505 L 732.6164276397 213.98298193339002" stroke="rgb(0, 150, 0)" fill="none" stroke-width="1.189312382532px" stroke-linecap="round" stroke-linejoin="round"/></g><g class="trace" data-layer="base" data-circuit-json-type="schematic_trace" data-schematic-trace-id="schematic_trace_3"><path d="M 851.5476658928999 475.63170609043004 L 851.5476658928999 487.52482991575005 L 762.349237203 487.52482991575005 L 762.349237203 472.36109703846705" class="trace-invisible-hover-outline" stroke="rgb(0, 150, 0)" fill="none" stroke-width="9.514499060256px" stroke-linecap="round" opacity="0" stroke-linejoin="round"/><path d="M 851.5476658928999 475.63170609043004 L 851.5476658928999 487.52482991575005 L 762.349237203 487.52482991575005 L 762.349237203 472.36109703846705" stroke="rgb(0, 150, 0)" fill="none" stroke-width="1.189312382532px" stroke-linecap="round" stroke-linejoin="round"/></g><g class="trace" data-layer="base" data-circuit-json-type="schematic_trace" data-schematic-trace-id="schematic_trace_4"><path d="M 888.416349751392 294.2615677543 L 839.65454206758 294.2615677543 L 839.65454206758 243.71579149669006" class="trace-invisible-hover-outline" stroke="rgb(0, 150, 0)" fill="none" stroke-width="9.514499060256px" stroke-linecap="round" opacity="0" stroke-linejoin="round"/><path d="M 888.416349751392 294.2615677543 L 839.65454206758 294.2615677543 L 839.65454206758 243.71579149669006" stroke="rgb(0, 150, 0)" fill="none" stroke-width="1.189312382532px" stroke-linecap="round" stroke-linejoin="round"/></g><g class="trace" data-layer="base" data-circuit-json-type="schematic_trace" data-schematic-trace-id="schematic_trace_5"><path d="M 759.37595624667 145.59751993780003 L 839.65454206758 145.59751993780003 L 839.65454206758 178.30361045743" class="trace-invisible-hover-outline" stroke="rgb(0, 150, 0)" fill="none" stroke-width="9.514499060256px" stroke-linecap="round" opacity="0" stroke-linejoin="round"/><path d="M 759.37595624667 145.59751993780003 L 839.65454206758 145.59751993780003 L 839.65454206758 178.30361045743" stroke="rgb(0, 150, 0)" fill="none" stroke-width="1.189312382532px" stroke-linecap="round" stroke-linejoin="round"/></g><g class="trace" data-layer="base" data-circuit-json-type="schematic_trace" data-schematic-trace-id="schematic_trace_6"><path d="M 1052.541458540808 270.47532010366 L 1052.541458540808 258.58219627834 L 1064.4345823661279 258.58219627834 L 1064.4345823661279 282.36844392898 L 1052.541458540808 282.36844392898" class="trace-invisible-hover-outline" stroke="rgb(0, 150, 0)" fill="none" stroke-width="9.514499060256px" stroke-linecap="round" opacity="0" stroke-linejoin="round"/><path d="M 1052.541458540808 270.47532010366 L 1052.541458540808 258.58219627834 L 1064.4345823661279 258.58219627834 L 1064.4345823661279 282.36844392898 L 1052.541458540808 282.36844392898" stroke="rgb(0, 150, 0)" fill="none" stroke-width="1.189312382532px" stroke-linecap="round" stroke-linejoin="round"/></g><g class="trace" data-layer="base" data-circuit-json-type="schematic_trace" data-schematic-trace-id="schematic_trace_7"><path d="M 134.98695541737004 401.29968218218 L 322.30365566615995 401.29968218218 L 322.30365566615995 137.56966135570906" class="trace-invisible-hover-outline" stroke="rgb(0, 150, 0)" fill="none" stroke-width="9.514499060256px" stroke-linecap="round" opacity="0" stroke-linejoin="round"/><path d="M 134.98695541737004 401.29968218218 L 322.30365566615995 401.29968218218 L 322.30365566615995 137.56966135570906" stroke="rgb(0, 150, 0)" fill="none" stroke-width="1.189312382532px" stroke-linecap="round" stroke-linejoin="round"/></g><g class="trace" data-layer="base" data-circuit-json-type="schematic_trace" data-schematic-trace-id="schematic_trace_8"><path d="M 134.98695541737004 389.40655835686005 L 204.85905789112502 389.40655835686005 L 204.85905789112502 190.19673428275004 L 274.73116036488 190.19673428275004 L 274.73116036488 202.08985810807005" class="trace-invisible-hover-outline" stroke="rgb(0, 150, 0)" fill="none" stroke-width="9.514499060256px" stroke-linecap="round" opacity="0" stroke-linejoin="round"/><path d="M 134.98695541737004 389.40655835686005 L 204.85905789112502 389.40655835686005 L 204.85905789112502 190.19673428275004 L 274.73116036488 190.19673428275004 L 274.73116036488 202.08985810807005" stroke="rgb(0, 150, 0)" fill="none" stroke-width="1.189312382532px" stroke-linecap="round" stroke-linejoin="round"/></g><g class="trace-overlays" data-layer="overlay" data-circuit-json-type="schematic_trace" data-schematic-trace-id="schematic_trace_0"><circle cx="851.5476658928999" cy="398.32640122585" r="1.7839685737979998" class="trace-junction" fill="rgb(0, 150, 0)"/></g><g class="trace-overlays" data-layer="overlay" data-circuit-json-type="schematic_trace" data-schematic-trace-id="schematic_trace_1"><circle cx="851.5476658928999" cy="398.32640122585" r="1.7839685737979998" class="trace-junction" fill="rgb(0, 150, 0)"/></g><g class="trace-overlays" data-layer="overlay" data-circuit-json-type="schematic_trace" data-schematic-trace-id="schematic_trace_2"/><g class="trace-overlays" data-layer="overlay" data-circuit-json-type="schematic_trace" data-schematic-trace-id="schematic_trace_3"/><g class="trace-overlays" data-layer="overlay" data-circuit-json-type="schematic_trace" data-schematic-trace-id="schematic_trace_4"/><g class="trace-overlays" data-layer="overlay" data-circuit-json-type="schematic_trace" data-schematic-trace-id="schematic_trace_5"/><g class="trace-overlays" data-layer="overlay" data-circuit-json-type="schematic_trace" data-schematic-trace-id="schematic_trace_6"/><g class="trace-overlays" data-layer="overlay" data-circuit-json-type="schematic_trace" data-schematic-trace-id="schematic_trace_7"/><g class="trace-overlays" data-layer="overlay" data-circuit-json-type="schematic_trace" data-schematic-trace-id="schematic_trace_8"/><g data-circuit-json-type="schematic_component" data-schematic-component-id="schematic_component_0"><rect class="component chip" x="45.78852672746996" y="377.51343453154004" width="65.41218103926002" height="59.46561912659996" stroke-width="1.189312382532px" fill="rgb(255, 255, 194)" stroke="rgb(132, 0, 0)"/><rect class="component-overlay" x="45.78852672746996" y="377.51343453154004" width="65.41218103926002" height="59.46561912659996" fill="transparent"/><text x="45.78852672746996" y="444.709584144598" fill="#006464" text-anchor="start" dominant-baseline="middle" font-family="sans-serif" font-size="10.703811442787998px" transform="rotate(0, 45.78852672746996, 444.709584144598)"></text><text x="45.78852672746996" y="369.78290404508203" fill="#006464" text-anchor="start" dominant-baseline="middle" font-family="sans-serif" font-size="10.703811442787998px" transform="rotate(0, 45.78852672746996, 369.78290404508203)">JP1</text><line class="component-pin" x1="111.20070776672998" y1="425.08592983282" x2="134.98695541737004" y2="425.08592983282" stroke-width="1.189312382532px"/><g data-schematic-port-id="source_port_0"><rect x="133.79764303483805" y="423.896617450288" width="2.378624765064" height="2.378624765064" opacity="0"/></g><text class="pin-number" x="123.09383159204998" y="423.89661745028803" style="font-family: sans-serif;" fill="rgb(169, 0, 0)" text-anchor="middle" dominant-baseline="auto" font-size="8.91984286899px" transform="">1</text><text class="pin-number" x="105.25414585406998" y="425.08592983282" style="font-family: sans-serif;" fill="rgb(169, 0, 0)" text-anchor="end" dominant-baseline="middle" font-size="8.91984286899px" transform="">VL</text><line class="component-pin" x1="111.20070776672998" y1="413.19280600750005" x2="134.98695541737004" y2="413.19280600750005" stroke-width="1.189312382532px"/><g data-schematic-port-id="source_port_1"><rect x="133.79764303483805" y="412.00349362496803" width="2.378624765064" height="2.378624765064" opacity="0"/></g><text class="pin-number" x="123.09383159204998" y="412.00349362496803" style="font-family: sans-serif;" fill="rgb(169, 0, 0)" text-anchor="middle" dominant-baseline="auto" font-size="8.91984286899px" transform="">2</text><text class="pin-number" x="105.25414585406998" y="413.19280600750005" style="font-family: sans-serif;" fill="rgb(169, 0, 0)" text-anchor="end" dominant-baseline="middle" font-size="8.91984286899px" transform="">GND</text><line class="component-pin" x1="111.20070776672998" y1="401.29968218218" x2="134.98695541737004" y2="401.29968218218" stroke-width="1.189312382532px"/><g data-schematic-port-id="source_port_2"><rect x="133.79764303483805" y="400.11036979964797" width="2.378624765064" height="2.378624765064" opacity="0"/></g><text class="pin-number" x="123.09383159204998" y="400.110369799648" style="font-family: sans-serif;" fill="rgb(169, 0, 0)" text-anchor="middle" dominant-baseline="auto" font-size="8.91984286899px" transform="">3</text><text class="pin-number" x="105.25414585406998" y="401.29968218218" style="font-family: sans-serif;" fill="rgb(169, 0, 0)" text-anchor="end" dominant-baseline="middle" font-size="8.91984286899px" transform="">VCC</text><line class="component-pin" x1="111.20070776672998" y1="389.40655835686005" x2="134.98695541737004" y2="389.40655835686005" stroke-width="1.189312382532px"/><g data-schematic-port-id="source_port_3"><rect x="133.79764303483805" y="388.217245974328" width="2.378624765064" height="2.378624765064" opacity="0"/></g><text class="pin-number" x="123.09383159204998" y="388.217245974328" style="font-family: sans-serif;" fill="rgb(169, 0, 0)" text-anchor="middle" dominant-baseline="auto" font-size="8.91984286899px" transform="">4</text><text class="pin-number" x="105.25414585406998" y="389.40655835686005" style="font-family: sans-serif;" fill="rgb(169, 0, 0)" text-anchor="end" dominant-baseline="middle" font-size="8.91984286899px" transform="">SDA</text><line class="component-pin" x1="111.20070776672998" y1="377.51343453154004" x2="134.98695541737004" y2="377.51343453154004" stroke-width="1.189312382532px"/><g data-schematic-port-id="source_port_4"><rect x="133.79764303483805" y="376.324122149008" width="2.378624765064" height="2.378624765064" opacity="0"/></g><text class="pin-number" x="123.09383159204998" y="376.324122149008" style="font-family: sans-serif;" fill="rgb(169, 0, 0)" text-anchor="middle" dominant-baseline="auto" font-size="8.91984286899px" transform="">5</text><text class="pin-number" x="105.25414585406998" y="377.51343453154004" style="font-family: sans-serif;" fill="rgb(169, 0, 0)" text-anchor="end" dominant-baseline="middle" font-size="8.91984286899px" transform="">SCL</text></g><g data-circuit-json-type="schematic_component" data-schematic-component-id="schematic_component_1"><rect class="component chip" x="912.2025974020319" y="270.47532010366" width="116.5526134881361" height="47.572495301280014" stroke-width="1.189312382532px" fill="rgb(255, 255, 194)" stroke="rgb(132, 0, 0)"/><rect class="component-overlay" x="912.2025974020319" y="270.47532010366" width="116.5526134881361" height="47.572495301280014" fill="transparent"/><text x="912.2025974020319" y="325.77834589139803" fill="#006464" text-anchor="start" dominant-baseline="middle" font-family="sans-serif" font-size="10.703811442787998px" transform="rotate(0, 912.2025974020319, 325.77834589139803)">APDS-9960</text><text x="912.2025974020319" y="262.74478961720206" fill="#006464" text-anchor="start" dominant-baseline="middle" font-family="sans-serif" font-size="10.703811442787998px" transform="rotate(0, 912.2025974020319, 262.74478961720206)">U1</text><line class="component-pin" x1="1028.755210890168" y1="318.04781540494" x2="1052.541458540808" y2="318.04781540494" stroke-width="1.189312382532px"/><g data-schematic-port-id="source_port_6"><rect x="1051.352146158276" y="316.858503022408" width="2.378624765064" height="2.378624765064" opacity="0"/></g><text class="pin-number" x="1040.6483347154879" y="316.858503022408" style="font-family: sans-serif;" fill="rgb(169, 0, 0)" text-anchor="middle" dominant-baseline="auto" font-size="8.91984286899px" transform="">1</text><text class="pin-number" x="1022.808648977508" y="318.04781540494" style="font-family: sans-serif;" fill="rgb(169, 0, 0)" text-anchor="end" dominant-baseline="middle" font-size="8.91984286899px" transform="">SDA</text><line class="component-pin" x1="1028.755210890168" y1="294.2615677543" x2="1052.541458540808" y2="294.2615677543" stroke-width="1.189312382532px"/><g data-schematic-port-id="source_port_7"><rect x="1051.352146158276" y="293.072255371768" width="2.378624765064" height="2.378624765064" opacity="0"/></g><text class="pin-number" x="1040.6483347154879" y="293.07225537176805" style="font-family: sans-serif;" fill="rgb(169, 0, 0)" text-anchor="middle" dominant-baseline="auto" font-size="8.91984286899px" transform="">2</text><text class="pin-number" x="1022.808648977508" y="294.2615677543" style="font-family: sans-serif;" fill="rgb(169, 0, 0)" text-anchor="end" dominant-baseline="middle" font-size="8.91984286899px" transform="">INT</text><line class="component-pin" x1="1028.755210890168" y1="282.36844392898" x2="1052.541458540808" y2="282.36844392898" stroke-width="1.189312382532px"/><g data-schematic-port-id="source_port_8"><rect x="1051.352146158276" y="281.179131546448" width="2.378624765064" height="2.378624765064" opacity="0"/></g><text class="pin-number" x="1040.6483347154879" y="281.17913154644805" style="font-family: sans-serif;" fill="rgb(169, 0, 0)" text-anchor="middle" dominant-baseline="auto" font-size="8.91984286899px" transform="">3</text><text class="pin-number" x="1022.808648977508" y="282.36844392898" style="font-family: sans-serif;" fill="rgb(169, 0, 0)" text-anchor="end" dominant-baseline="middle" font-size="8.91984286899px" transform="">LDR</text><line class="component-pin" x1="1028.755210890168" y1="270.47532010366" x2="1052.541458540808" y2="270.47532010366" stroke-width="1.189312382532px"/><g data-schematic-port-id="source_port_9"><rect x="1051.352146158276" y="269.286007721128" width="2.378624765064" height="2.378624765064" opacity="0"/></g><text class="pin-number" x="1040.6483347154879" y="269.28600772112804" style="font-family: sans-serif;" fill="rgb(169, 0, 0)" text-anchor="middle" dominant-baseline="auto" font-size="8.91984286899px" transform="">4</text><text class="pin-number" x="1022.808648977508" y="270.47532010366" style="font-family: sans-serif;" fill="rgb(169, 0, 0)" text-anchor="end" dominant-baseline="middle" font-size="8.91984286899px" transform="">LEDK</text><line class="component-pin" x1="912.202597402032" y1="306.15469157962" x2="888.416349751392" y2="306.15469157962" stroke-width="1.189312382532px"/><g data-schematic-port-id="source_port_10"><rect x="887.22703736886" y="304.965379197088" width="2.378624765064" height="2.378624765064" opacity="0"/></g><text class="pin-number" x="900.309473576712" y="304.96537919708805" style="font-family: sans-serif;" fill="rgb(169, 0, 0)" text-anchor="middle" dominant-baseline="auto" font-size="8.91984286899px" transform="">5</text><text class="pin-number" x="918.149159314692" y="306.15469157962" style="font-family: sans-serif;" fill="rgb(169, 0, 0)" text-anchor="start" dominant-baseline="middle" font-size="8.91984286899px" transform="">LEDA</text><line class="component-pin" x1="912.202597402032" y1="294.2615677543" x2="888.416349751392" y2="294.2615677543" stroke-width="1.189312382532px"/><g data-schematic-port-id="source_port_11"><rect x="887.22703736886" y="293.072255371768" width="2.378624765064" height="2.378624765064" opacity="0"/></g><text class="pin-number" x="900.309473576712" y="293.07225537176805" style="font-family: sans-serif;" fill="rgb(169, 0, 0)" text-anchor="middle" dominant-baseline="auto" font-size="8.91984286899px" transform="">6</text><text class="pin-number" x="918.149159314692" y="294.2615677543" style="font-family: sans-serif;" fill="rgb(169, 0, 0)" text-anchor="start" dominant-baseline="middle" font-size="8.91984286899px" transform="">GND</text><line class="component-pin" x1="1028.755210890168" y1="306.15469157962" x2="1052.541458540808" y2="306.15469157962" stroke-width="1.189312382532px"/><g data-schematic-port-id="source_port_12"><rect x="1051.352146158276" y="304.965379197088" width="2.378624765064" height="2.378624765064" opacity="0"/></g><text class="pin-number" x="1040.6483347154879" y="304.96537919708805" style="font-family: sans-serif;" fill="rgb(169, 0, 0)" text-anchor="middle" dominant-baseline="auto" font-size="8.91984286899px" transform="">7</text><text class="pin-number" x="1022.808648977508" y="306.15469157962" style="font-family: sans-serif;" fill="rgb(169, 0, 0)" text-anchor="end" dominant-baseline="middle" font-size="8.91984286899px" transform="">SCL</text><line class="component-pin" x1="912.202597402032" y1="282.36844392898" x2="888.416349751392" y2="282.36844392898" stroke-width="1.189312382532px"/><g data-schematic-port-id="source_port_13"><rect x="887.22703736886" y="281.179131546448" width="2.378624765064" height="2.378624765064" opacity="0"/></g><text class="pin-number" x="900.309473576712" y="281.17913154644805" style="font-family: sans-serif;" fill="rgb(169, 0, 0)" text-anchor="middle" dominant-baseline="auto" font-size="8.91984286899px" transform="">8</text><text class="pin-number" x="918.149159314692" y="282.36844392898" style="font-family: sans-serif;" fill="rgb(169, 0, 0)" text-anchor="start" dominant-baseline="middle" font-size="8.91984286899px" transform="">VDD</text></g><g data-circuit-json-type="schematic_component" data-schematic-component-id="schematic_component_2"><rect class="component-overlay" x="1152.4436986734959" y="205.06313906440005" width="16.055717164181942" height="65.41218103925996" fill="transparent"/><path d="M 1160.76888535122 205.06313906440005 L 1160.76888535122 221.71351241984803" stroke="rgb(132, 0, 0)" fill="none" stroke-width="1.189312382532px" stroke-linecap="round"/><path d="M 1160.76888535122 253.23029055694604 L 1160.76888535122 270.47532010366" stroke="rgb(132, 0, 0)" fill="none" stroke-width="1.189312382532px" stroke-linecap="round"/><path d="M 1168.4994158376778 237.76922958403003 L 1168.4994158376778 253.23029055694604 L 1152.4436986734959 253.23029055694604 L 1152.4436986734959 221.71351241984803 L 1168.4994158376778 221.71351241984803 L 1168.4994158376778 237.76922958403003" stroke="rgb(132, 0, 0)" fill="none" stroke-width="1.189312382532px" stroke-linecap="round"/><text x="1171.4403088445506" y="227.06541814124202" stroke="rgb(245, 241, 237)" stroke-width="1.189312382532px" paint-order="stroke" fill="rgb(15, 15, 15)" font-family="sans-serif" text-anchor="start" dominant-baseline="middle" font-size="10.703811442787998px">R1</text><text x="1171.4403088445506" y="246.09441626175402" fill="rgb(15, 15, 15)" font-family="sans-serif" text-anchor="start" dominant-baseline="middle" font-size="10.703811442787998px">10kΩ</text></g><g data-circuit-json-type="schematic_component" data-schematic-component-id="schematic_component_3"><rect class="component-overlay" x="266.405973687156" y="202.08985810807005" width="16.055717164182" height="65.41218103925999" fill="transparent"/><path d="M 274.73116036488005 202.08985810807005 L 274.73116036488005 218.74023146351803" stroke="rgb(132, 0, 0)" fill="none" stroke-width="1.189312382532px" stroke-linecap="round"/><path d="M 274.73116036488005 250.25700960061602 L 274.73116036488005 267.50203914733004" stroke="rgb(132, 0, 0)" fill="none" stroke-width="1.189312382532px" stroke-linecap="round"/><path d="M 282.461690851338 234.79594862770003 L 282.461690851338 250.25700960061602 L 266.405973687156 250.25700960061602 L 266.405973687156 218.74023146351803 L 282.461690851338 218.74023146351803 L 282.461690851338 234.79594862770003" stroke="rgb(132, 0, 0)" fill="none" stroke-width="1.189312382532px" stroke-linecap="round"/><text x="285.4025838582107" y="224.09213718491202" stroke="rgb(245, 241, 237)" stroke-width="1.189312382532px" paint-order="stroke" fill="rgb(15, 15, 15)" font-family="sans-serif" text-anchor="start" dominant-baseline="middle" font-size="10.703811442787998px">R2</text><text x="285.4025838582107" y="243.12113530542402" fill="rgb(15, 15, 15)" font-family="sans-serif" text-anchor="start" dominant-baseline="middle" font-size="10.703811442787998px">4.7kΩ</text></g><g data-circuit-json-type="schematic_component" data-schematic-component-id="schematic_component_4"><rect class="component-overlay" x="361.5509642897159" y="202.08985810807005" width="16.055717164182" height="65.41218103925999" fill="transparent"/><path d="M 369.87615096743997 202.08985810807005 L 369.87615096743997 218.74023146351803" stroke="rgb(132, 0, 0)" fill="none" stroke-width="1.189312382532px" stroke-linecap="round"/><path d="M 369.87615096743997 250.25700960061602 L 369.87615096743997 267.50203914733004" stroke="rgb(132, 0, 0)" fill="none" stroke-width="1.189312382532px" stroke-linecap="round"/><path d="M 377.6066814538979 234.79594862770003 L 377.6066814538979 250.25700960061602 L 361.5509642897159 250.25700960061602 L 361.5509642897159 218.74023146351803 L 377.6066814538979 218.74023146351803 L 377.6066814538979 234.79594862770003" stroke="rgb(132, 0, 0)" fill="none" stroke-width="1.189312382532px" stroke-linecap="round"/><text x="380.5475744607706" y="224.09213718491202" stroke="rgb(245, 241, 237)" stroke-width="1.189312382532px" paint-order="stroke" fill="rgb(15, 15, 15)" font-family="sans-serif" text-anchor="start" dominant-baseline="middle" font-size="10.703811442787998px">R3</text><text x="380.5475744607706" y="243.12113530542402" fill="rgb(15, 15, 15)" font-family="sans-serif" text-anchor="start" dominant-baseline="middle" font-size="10.703811442787998px">4.7kΩ</text></g><g data-circuit-json-type="schematic_component" data-schematic-component-id="schematic_component_5"><rect class="component-overlay" x="724.291240961976" y="213.98298193339002" width="16.055717164182056" height="65.41218103926002" fill="transparent"/><path d="M 732.6164276397 213.98298193339002 L 732.6164276397 230.63335528883803" stroke="rgb(132, 0, 0)" fill="none" stroke-width="1.189312382532px" stroke-linecap="round"/><path d="M 732.6164276397 262.150133425936 L 732.6164276397 279.39516297265004" stroke="rgb(132, 0, 0)" fill="none" stroke-width="1.189312382532px" stroke-linecap="round"/><path d="M 740.346958126158 246.68907245302003 L 740.346958126158 262.150133425936 L 724.291240961976 262.150133425936 L 724.291240961976 230.63335528883803 L 740.346958126158 230.63335528883803 L 740.346958126158 246.68907245302003" stroke="rgb(132, 0, 0)" fill="none" stroke-width="1.189312382532px" stroke-linecap="round"/><text x="743.2878511330307" y="235.98526101023202" stroke="rgb(245, 241, 237)" stroke-width="1.189312382532px" paint-order="stroke" fill="rgb(15, 15, 15)" font-family="sans-serif" text-anchor="start" dominant-baseline="middle" font-size="10.703811442787998px">DNP</text><text x="743.2878511330307" y="255.01425913074402" fill="rgb(15, 15, 15)" font-family="sans-serif" text-anchor="start" dominant-baseline="middle" font-size="10.703811442787998px">10kΩ</text></g><g data-circuit-json-type="schematic_component" data-schematic-component-id="schematic_component_6"><rect class="component-overlay" x="835.491948728718" y="410.21952505117" width="31.51677813709796" height="65.41218103926002" fill="transparent"/><path d="M 851.5476658928999 475.63170609043004 L 851.5476658928999 447.088208909662" stroke="rgb(132, 0, 0)" fill="none" stroke-width="1.189312382532px" stroke-linecap="round"/><path d="M 851.5476658928999 437.57370984940604 L 851.5476658928999 410.21952505117" stroke="rgb(132, 0, 0)" fill="none" stroke-width="1.189312382532px" stroke-linecap="round"/><path d="M 867.0087268658159 447.088208909662 L 835.491948728718 447.088208909662" stroke="rgb(132, 0, 0)" fill="none" stroke-width="1.189312382532px" stroke-linecap="round"/><path d="M 867.0087268658159 437.57370984940604 L 835.491948728718 437.57370984940604" stroke="rgb(132, 0, 0)" fill="none" stroke-width="1.189312382532px" stroke-linecap="round"/><text x="857.1968997099269" y="431.03249174548006" stroke="rgb(245, 241, 237)" stroke-width="1.189312382532px" paint-order="stroke" fill="rgb(15, 15, 15)" font-family="sans-serif" text-anchor="start" dominant-baseline="ideographic" font-size="10.703811442787998px">C2</text><text x="857.1968997099269" y="454.81873939612" fill="rgb(15, 15, 15)" font-family="sans-serif" text-anchor="start" dominant-baseline="hanging" font-size="10.703811442787998px">1.0uF</text></g><g data-circuit-json-type="schematic_component" data-schematic-component-id="schematic_component_7"><rect class="component-overlay" x="823.5988249033979" y="178.30361045743" width="31.516778137098072" height="65.41218103926002" fill="transparent"/><path d="M 839.65454206758 243.71579149669003 L 839.65454206758 215.17229431592202" stroke="rgb(132, 0, 0)" fill="none" stroke-width="1.189312382532px" stroke-linecap="round"/><path d="M 839.65454206758 205.657795255666 L 839.65454206758 178.30361045743" stroke="rgb(132, 0, 0)" fill="none" stroke-width="1.189312382532px" stroke-linecap="round"/><path d="M 855.115603040496 215.17229431592202 L 823.5988249033979 215.17229431592202" stroke="rgb(132, 0, 0)" fill="none" stroke-width="1.189312382532px" stroke-linecap="round"/><path d="M 855.115603040496 205.657795255666 L 823.5988249033979 205.657795255666" stroke="rgb(132, 0, 0)" fill="none" stroke-width="1.189312382532px" stroke-linecap="round"/><text x="845.303775884607" y="199.11657715174002" stroke="rgb(245, 241, 237)" stroke-width="1.189312382532px" paint-order="stroke" fill="rgb(15, 15, 15)" font-family="sans-serif" text-anchor="start" dominant-baseline="ideographic" font-size="10.703811442787998px">C3</text><text x="845.303775884607" y="222.90282480238002" fill="rgb(15, 15, 15)" font-family="sans-serif" text-anchor="start" dominant-baseline="hanging" font-size="10.703811442787998px">1.0uF</text></g><g data-circuit-json-type="schematic_component" data-schematic-component-id="schematic_component_8"><rect class="component-overlay" x="744.50955146502" y="413.490134103133" width="33.895402902162004" height="58.870962935334035" fill="transparent"/><path d="M 762.349237203 413.490134103133 L 762.349237203 440.24966271010305" stroke="rgb(132, 0, 0)" fill="none" stroke-width="1.189312382532px" stroke-linecap="round"/><path d="M 762.349237203 445.601568431497 L 762.349237203 472.36109703846705" stroke="rgb(132, 0, 0)" fill="none" stroke-width="1.189312382532px" stroke-linecap="round"/><path d="M 746.888176230084 440.24966271010305 L 778.404954367182 440.24966271010305" stroke="rgb(132, 0, 0)" fill="none" stroke-width="1.189312382532px" stroke-linecap="round"/><path d="M 777.8102981759159 448.57484938782704 L 777.8102981759159 448.57484938782704 L 777.8102981759159 448.57484938782704 L 777.8102981759159 448.57484938782704 L 777.8102981759159 448.57484938782704 L 777.8102981759159 448.57484938782704 L 777.8102981759159 448.57484938782704 L 777.8102981759159 448.57484938782704 L 777.8102981759159 448.57484938782704 L 777.21564198465 448.57484938782704 L 777.21564198465 448.57484938782704 L 777.21564198465 448.57484938782704 L 777.21564198465 448.57484938782704 L 777.21564198465 447.980193196561 L 777.21564198465 447.980193196561 L 777.21564198465 447.980193196561 L 777.21564198465 447.980193196561 L 776.620985793384 447.980193196561 L 776.620985793384 447.980193196561 L 776.620985793384 447.980193196561 L 776.620985793384 447.980193196561 L 776.620985793384 447.980193196561 L 776.620985793384 447.980193196561 L 776.620985793384 447.980193196561 L 776.620985793384 447.980193196561 L 776.026329602118 447.980193196561 L 776.026329602118 447.980193196561 L 776.026329602118 447.980193196561 L 776.026329602118 447.385537005295 L 776.026329602118 447.385537005295 L 776.026329602118 447.385537005295 L 776.026329602118 447.385537005295 L 776.026329602118 447.385537005295 L 775.431673410852 447.385537005295 L 775.431673410852 447.385537005295 L 775.431673410852 447.385537005295 L 775.431673410852 447.385537005295 L 775.431673410852 447.385537005295 L 775.431673410852 447.385537005295 L 775.431673410852 447.385537005295 L 775.431673410852 447.385537005295 L 774.837017219586 447.385537005295 L 774.837017219586 447.385537005295 L 774.837017219586 447.385537005295 L 774.837017219586 447.385537005295 L 774.837017219586 446.79088081402904 L 774.837017219586 446.79088081402904 L 774.837017219586 446.79088081402904 L 774.24236102832 446.79088081402904 L 774.24236102832 446.79088081402904 L 774.24236102832 446.79088081402904 L 774.24236102832 446.79088081402904 L 774.24236102832 446.79088081402904 L 774.24236102832 446.79088081402904 L 774.24236102832 446.79088081402904 L 774.24236102832 446.79088081402904 L 773.647704837054 446.79088081402904 L 773.647704837054 446.79088081402904 L 773.647704837054 446.79088081402904 L 773.647704837054 446.79088081402904 L 773.647704837054 446.79088081402904 L 773.647704837054 446.79088081402904 L 773.647704837054 446.79088081402904 L 773.647704837054 446.79088081402904 L 773.053048645788 446.19622462276305 L 773.053048645788 446.19622462276305 L 773.053048645788 446.19622462276305 L 773.053048645788 446.19622462276305 L 773.053048645788 446.19622462276305 L 773.053048645788 446.19622462276305 L 773.053048645788 446.19622462276305 L 773.053048645788 446.19622462276305 L 772.458392454522 446.19622462276305 L 772.458392454522 446.19622462276305 L 772.458392454522 446.19622462276305 L 772.458392454522 446.19622462276305 L 772.458392454522 446.19622462276305 L 772.458392454522 446.19622462276305 L 772.458392454522 446.19622462276305 L 771.863736263256 446.19622462276305 L 771.863736263256 446.19622462276305 L 771.863736263256 446.19622462276305 L 771.863736263256 446.19622462276305 L 771.863736263256 446.19622462276305 L 771.863736263256 446.19622462276305 L 771.863736263256 446.19622462276305 L 771.863736263256 445.601568431497 L 771.26908007199 445.601568431497 L 771.26908007199 445.601568431497 L 771.26908007199 445.601568431497 L 771.26908007199 445.601568431497 L 771.26908007199 445.601568431497 L 771.26908007199 445.601568431497 L 771.26908007199 445.601568431497 L 771.26908007199 445.601568431497 L 770.674423880724 445.601568431497 L 770.674423880724 445.601568431497 L 770.674423880724 445.601568431497 L 770.674423880724 445.601568431497 L 770.674423880724 445.601568431497 L 770.674423880724 445.601568431497 L 770.674423880724 445.601568431497 L 770.674423880724 445.601568431497 L 770.079767689458 445.601568431497 L 770.079767689458 445.601568431497 L 770.079767689458 445.601568431497 L 770.079767689458 445.601568431497 L 770.079767689458 445.601568431497 L 770.079767689458 445.601568431497 L 769.4851114981919 445.601568431497 L 769.4851114981919 445.601568431497 L 769.4851114981919 445.601568431497 L 769.4851114981919 445.601568431497 L 769.4851114981919 445.601568431497 L 769.4851114981919 445.601568431497 L 768.890455306926 445.00691224023103 L 768.890455306926 445.00691224023103 L 768.890455306926 445.00691224023103 L 768.890455306926 445.00691224023103 L 768.890455306926 445.00691224023103 L 768.890455306926 445.00691224023103 L 768.29579911566 445.00691224023103 L 768.29579911566 445.00691224023103 L 768.29579911566 445.00691224023103 L 768.29579911566 445.00691224023103 L 768.29579911566 445.00691224023103 L 768.29579911566 445.00691224023103 L 767.7011429243939 445.00691224023103 L 767.7011429243939 445.00691224023103 L 767.7011429243939 445.00691224023103 L 767.7011429243939 445.00691224023103 L 767.7011429243939 445.00691224023103 L 767.7011429243939 445.00691224023103 L 767.106486733128 445.00691224023103 L 767.106486733128 445.00691224023103 L 767.106486733128 445.00691224023103 L 767.106486733128 445.00691224023103 L 767.106486733128 445.00691224023103 L 766.511830541862 445.00691224023103 L 766.511830541862 445.00691224023103 L 766.511830541862 445.00691224023103 L 766.511830541862 445.00691224023103 L 766.511830541862 445.00691224023103 L 766.511830541862 445.00691224023103 L 765.9171743505959 445.00691224023103 L 765.9171743505959 445.00691224023103 L 765.9171743505959 445.00691224023103 L 765.9171743505959 445.00691224023103 L 765.9171743505959 445.00691224023103 L 765.9171743505959 445.00691224023103 L 765.32251815933 445.00691224023103 L 765.32251815933 445.00691224023103 L 765.32251815933 445.00691224023103 L 765.32251815933 445.00691224023103 L 765.32251815933 445.00691224023103 L 765.32251815933 445.00691224023103 L 764.727861968064 445.00691224023103 L 764.727861968064 445.00691224023103 L 764.727861968064 445.00691224023103 L 764.727861968064 445.00691224023103 L 764.727861968064 445.00691224023103 L 764.727861968064 445.00691224023103 L 764.133205776798 445.00691224023103 L 764.133205776798 445.00691224023103 L 764.133205776798 445.00691224023103 L 764.133205776798 445.00691224023103 L 764.133205776798 445.00691224023103 L 763.538549585532 445.00691224023103 L 763.538549585532 445.00691224023103 L 763.538549585532 445.00691224023103 L 763.538549585532 445.00691224023103 L 763.538549585532 445.00691224023103 L 763.538549585532 445.00691224023103 L 762.943893394266 445.00691224023103 L 762.943893394266 444.41225604896505 L 762.943893394266 444.41225604896505 L 762.943893394266 444.41225604896505 L 762.943893394266 444.41225604896505 L 762.943893394266 444.41225604896505 L 762.349237203 445.00691224023103 L 762.349237203 445.00691224023103 L 762.349237203 445.00691224023103 L 762.349237203 445.00691224023103 L 762.349237203 445.00691224023103 L 762.349237203 445.00691224023103 L 761.754581011734 445.00691224023103 L 761.754581011734 445.00691224023103 L 761.754581011734 445.00691224023103 L 761.754581011734 445.00691224023103 L 761.754581011734 445.00691224023103 L 761.754581011734 445.00691224023103 L 761.159924820468 445.00691224023103 L 761.159924820468 445.00691224023103 L 761.159924820468 445.00691224023103 L 761.159924820468 445.00691224023103 L 761.159924820468 445.00691224023103 L 760.565268629202 445.00691224023103 L 760.565268629202 445.00691224023103 L 760.565268629202 445.00691224023103 L 760.565268629202 445.00691224023103 L 760.565268629202 445.00691224023103 L 760.565268629202 445.00691224023103 L 759.970612437936 445.00691224023103 L 759.970612437936 445.00691224023103 L 759.970612437936 445.00691224023103 L 759.970612437936 445.00691224023103 L 759.970612437936 445.00691224023103 L 759.970612437936 445.00691224023103 L 759.970612437936 445.00691224023103 L 759.970612437936 445.00691224023103 L 759.37595624667 445.00691224023103 L 759.37595624667 445.00691224023103 L 759.37595624667 445.00691224023103 L 759.37595624667 445.00691224023103 L 759.37595624667 445.00691224023103 L 759.37595624667 445.00691224023103 L 759.37595624667 445.00691224023103 L 758.781300055404 445.00691224023103 L 758.781300055404 445.00691224023103 L 758.781300055404 445.00691224023103 L 758.781300055404 445.00691224023103 L 758.781300055404 445.00691224023103 L 758.781300055404 445.00691224023103 L 758.186643864138 445.00691224023103 L 758.186643864138 445.00691224023103 L 758.186643864138 445.00691224023103 L 758.186643864138 445.00691224023103 L 758.186643864138 445.00691224023103 L 758.186643864138 445.00691224023103 L 758.186643864138 445.00691224023103 L 757.5919876728719 445.00691224023103 L 757.5919876728719 445.00691224023103 L 757.5919876728719 445.00691224023103 L 757.5919876728719 445.00691224023103 L 757.5919876728719 445.00691224023103 L 757.5919876728719 445.00691224023103 L 757.5919876728719 445.00691224023103 L 756.997331481606 445.00691224023103 L 756.997331481606 445.00691224023103 L 756.997331481606 445.00691224023103 L 756.997331481606 445.00691224023103 L 756.997331481606 445.00691224023103 L 756.997331481606 445.00691224023103 L 756.997331481606 445.00691224023103 L 756.40267529034 445.00691224023103 L 756.40267529034 445.00691224023103 L 756.40267529034 445.00691224023103 L 756.40267529034 445.00691224023103 L 756.40267529034 445.601568431497 L 756.40267529034 445.601568431497 L 756.40267529034 445.601568431497 L 755.8080190990739 445.601568431497 L 755.8080190990739 445.601568431497 L 755.8080190990739 445.601568431497 L 755.8080190990739 445.601568431497 L 755.8080190990739 445.601568431497 L 755.8080190990739 445.601568431497 L 755.213362907808 445.601568431497 L 755.213362907808 445.601568431497 L 755.213362907808 445.601568431497 L 755.213362907808 445.601568431497 L 755.213362907808 445.601568431497 L 755.213362907808 445.601568431497 L 755.213362907808 445.601568431497 L 754.618706716542 445.601568431497 L 754.618706716542 445.601568431497 L 754.618706716542 445.601568431497 L 754.618706716542 445.601568431497 L 754.618706716542 445.601568431497 L 754.618706716542 445.601568431497 L 754.618706716542 445.601568431497 L 754.0240505252759 445.601568431497 L 754.0240505252759 445.601568431497 L 754.0240505252759 445.601568431497 L 754.0240505252759 445.601568431497 L 754.0240505252759 445.601568431497 L 754.0240505252759 445.601568431497 L 754.0240505252759 445.601568431497 L 753.42939433401 445.601568431497 L 753.42939433401 445.601568431497 L 753.42939433401 446.19622462276305 L 753.42939433401 446.19622462276305 L 753.42939433401 446.19622462276305 L 753.42939433401 446.19622462276305 L 753.42939433401 446.19622462276305 L 752.834738142744 446.19622462276305 L 752.834738142744 446.19622462276305 L 752.834738142744 446.19622462276305 L 752.834738142744 446.19622462276305 L 752.834738142744 446.19622462276305 L 752.834738142744 446.19622462276305 L 752.834738142744 446.19622462276305 L 752.240081951478 446.19622462276305 L 752.240081951478 446.19622462276305 L 752.240081951478 446.19622462276305 L 752.240081951478 446.19622462276305 L 752.240081951478 446.19622462276305 L 752.240081951478 446.19622462276305 L 752.240081951478 446.19622462276305 L 751.645425760212 446.19622462276305 L 751.645425760212 446.19622462276305 L 751.645425760212 446.19622462276305 L 751.645425760212 446.19622462276305 L 751.645425760212 446.19622462276305 L 751.645425760212 446.19622462276305 L 751.645425760212 446.79088081402904 L 751.645425760212 446.79088081402904 L 751.645425760212 446.79088081402904 L 751.050769568946 446.79088081402904 L 751.050769568946 446.79088081402904 L 751.050769568946 446.79088081402904 L 751.050769568946 446.79088081402904 L 751.050769568946 446.79088081402904 L 751.050769568946 446.79088081402904 L 751.050769568946 446.79088081402904 L 751.050769568946 446.79088081402904 L 751.050769568946 446.79088081402904 L 751.050769568946 446.79088081402904 L 751.050769568946 446.79088081402904 L 751.050769568946 446.79088081402904 L 751.050769568946 446.79088081402904 L 750.45611337768 446.79088081402904 L 750.45611337768 446.79088081402904 L 750.45611337768 446.79088081402904 L 750.45611337768 446.79088081402904 L 750.45611337768 446.79088081402904 L 750.45611337768 446.79088081402904 L 750.45611337768 446.79088081402904 L 750.45611337768 446.79088081402904 L 750.45611337768 446.79088081402904 L 750.45611337768 446.79088081402904 L 750.45611337768 446.79088081402904 L 750.45611337768 446.79088081402904 L 749.861457186414 446.79088081402904 L 749.861457186414 446.79088081402904 L 749.861457186414 446.79088081402904 L 749.861457186414 446.79088081402904 L 749.861457186414 447.385537005295 L 749.861457186414 447.385537005295 L 749.861457186414 447.385537005295 L 749.861457186414 447.385537005295 L 749.861457186414 447.385537005295 L 749.861457186414 447.385537005295 L 749.861457186414 447.385537005295 L 749.861457186414 447.385537005295 L 749.266800995148 447.385537005295 L 749.266800995148 447.385537005295 L 749.266800995148 447.385537005295 L 749.266800995148 447.385537005295 L 749.266800995148 447.385537005295 L 749.266800995148 447.385537005295 L 749.266800995148 447.385537005295 L 749.266800995148 447.385537005295 L 749.266800995148 447.385537005295 L 749.266800995148 447.385537005295 L 749.266800995148 447.385537005295 L 749.266800995148 447.385537005295 L 748.672144803882 447.385537005295 L 748.672144803882 447.385537005295 L 748.672144803882 447.385537005295 L 748.672144803882 447.385537005295 L 748.672144803882 447.385537005295 L 748.672144803882 447.385537005295 L 748.672144803882 447.980193196561 L 748.672144803882 447.980193196561 L 748.672144803882 447.980193196561 L 748.672144803882 447.980193196561 L 748.672144803882 447.980193196561 L 748.672144803882 447.980193196561 L 748.672144803882 447.980193196561 L 748.077488612616 447.980193196561 L 748.077488612616 447.980193196561 L 748.077488612616 447.980193196561 L 748.077488612616 447.980193196561 L 748.077488612616 447.980193196561 L 748.077488612616 447.980193196561 L 748.077488612616 447.980193196561 L 748.077488612616 447.980193196561 L 748.077488612616 447.980193196561 L 748.077488612616 447.980193196561 L 748.077488612616 447.980193196561 L 748.077488612616 447.980193196561 L 748.077488612616 447.980193196561 L 747.4828324213499 447.980193196561 L 747.4828324213499 447.980193196561 L 747.4828324213499 447.980193196561 L 747.4828324213499 447.980193196561 L 747.4828324213499 448.57484938782704 L 747.4828324213499 448.57484938782704 L 747.4828324213499 448.57484938782704 L 747.4828324213499 448.57484938782704 L 747.4828324213499 448.57484938782704 L 747.4828324213499 448.57484938782704 L 747.4828324213499 448.57484938782704 L 747.4828324213499 448.57484938782704 L 747.4828324213499 448.57484938782704 L 746.888176230084 448.57484938782704 L 746.888176230084 448.57484938782704 L 746.888176230084 448.57484938782704 L 746.888176230084 448.57484938782704 L 746.888176230084 448.57484938782704 L 746.888176230084 448.57484938782704 L 746.888176230084 448.57484938782704 L 746.888176230084 448.57484938782704 L 746.888176230084 448.57484938782704" stroke="rgb(132, 0, 0)" fill="none" stroke-width="1.189312382532px" stroke-linecap="round"/><path d="M 748.672144803882 424.78860173718704 L 748.672144803882 433.113788414911 L 748.672144803882 433.113788414911 L 748.672144803882 424.78860173718704" stroke="rgb(132, 0, 0)" fill="none" stroke-width="1.189312382532px" stroke-linecap="round"/><path d="M 744.50955146502 428.35653888478305 L 752.834738142744 428.35653888478305 L 752.834738142744 428.95119507604903 L 744.50955146502 428.95119507604903" stroke="rgb(132, 0, 0)" fill="none" stroke-width="1.189312382532px" stroke-linecap="round"/><text x="775.9939416526606" y="434.30310079744305" stroke="rgb(245, 241, 237)" stroke-width="1.189312382532px" paint-order="stroke" fill="rgb(15, 15, 15)" font-family="sans-serif" text-anchor="start" dominant-baseline="ideographic" font-size="10.703811442787998px">C1</text><text x="775.9939416526606" y="452.14278653542306" fill="rgb(15, 15, 15)" font-family="sans-serif" text-anchor="start" dominant-baseline="hanging" font-size="10.703811442787998px">100uF</text></g><g data-circuit-json-type="schematic_component" data-schematic-component-id="schematic_component_9"><rect class="component-overlay" x="295.5441270591899" y="108.13417988804204" width="53.51905721394007" height="28.543497180768014" fill="transparent"/><path d="M 309.2212194583079 115.86471037450005 L 295.5441270591899 115.86471037450005" stroke="rgb(132, 0, 0)" fill="none" stroke-width="1.189312382532px" stroke-linecap="round"/><path d="M 349.06318427313 115.86471037450005 L 335.386091874012 115.86471037450005" stroke="rgb(132, 0, 0)" fill="none" stroke-width="1.189312382532px" stroke-linecap="round"/><path d="M 322.30365566615995 123.59524086095806 L 322.30365566615995 136.67767706881006" stroke="rgb(132, 0, 0)" fill="none" stroke-width="1.189312382532px" stroke-linecap="round"/><path d="M 329.439529961352 108.13417988804204 L 329.439529961352 123.00058466969205" stroke="rgb(132, 0, 0)" fill="none" stroke-width="1.189312382532px" stroke-linecap="round"/><path d="M 324.68228043122394 108.72883607930805 L 324.68228043122394 123.00058466969205" stroke="rgb(132, 0, 0)" fill="none" stroke-width="1.189312382532px" stroke-linecap="round"/><path d="M 319.3303747098299 108.72883607930805 L 319.3303747098299 123.00058466969205" stroke="rgb(132, 0, 0)" fill="none" stroke-width="1.189312382532px" stroke-linecap="round"/><path d="M 324.68228043122394 108.72883607930805 L 319.3303747098299 108.72883607930805" stroke="rgb(132, 0, 0)" fill="none" stroke-width="1.189312382532px" stroke-linecap="round"/><path d="M 324.68228043122394 123.00058466969205 L 319.3303747098299 123.00058466969205" stroke="rgb(132, 0, 0)" fill="none" stroke-width="1.189312382532px" stroke-linecap="round"/><path d="M 315.16778137096793 108.13417988804204 L 315.16778137096793 123.00058466969205" stroke="rgb(132, 0, 0)" fill="none" stroke-width="1.189312382532px" stroke-linecap="round"/><path d="M 314.57312517970195 123.59524086095806 L 314.57312517970195 123.59524086095806 L 313.97846898843596 123.00058466969205 L 312.78915660590394 122.40592847842605 L 312.19450041463796 121.81127228716005 L 311.599844223372 121.21661609589405 L 311.00518803210593 120.62195990462806 L 310.41053184083995 120.02730371336204 L 310.41053184083995 119.43264752209605 L 309.81587564957397 118.83799133083005 L 309.81587564957397 118.24333513956405 L 309.2212194583079 117.64867894829806 L 309.2212194583079 117.05402275703204 L 309.2212194583079 116.45936656576605 L 309.2212194583079 115.86471037450005 L 309.2212194583079 115.27005418323405 L 309.2212194583079 114.67539799196805 L 309.2212194583079 114.08074180070204 L 309.81587564957397 113.48608560943605 L 309.81587564957397 112.89142941817005 L 309.81587564957397 112.89142941817005 L 310.41053184083995 112.29677322690405 L 311.00518803210593 111.70211703563805 L 311.00518803210593 111.10746084437204 L 311.599844223372 110.51280465310604 L 312.19450041463796 109.91814846184005 L 312.19450041463796 109.91814846184005 L 312.78915660590394 109.32349227057405 L 313.38381279717 108.72883607930805 L 313.97846898843596 108.72883607930805 L 314.57312517970195 108.13417988804204 L 314.57312517970195 108.13417988804204 L 314.57312517970195 108.13417988804204" stroke="rgb(132, 0, 0)" fill="none" stroke-width="1.189312382532px" stroke-linecap="round"/><path d="M 329.439529961352 123.59524086095806 L 329.439529961352 123.59524086095806 L 330.62884234388395 123.00058466969205 L 331.22349853514993 122.40592847842605 L 332.41281091768195 121.81127228716005 L 333.00746710894794 121.21661609589405 L 333.602123300214 120.62195990462806 L 334.19677949147996 120.02730371336204 L 334.19677949147996 119.43264752209605 L 334.79143568274594 118.83799133083005 L 334.79143568274594 118.24333513956405 L 335.386091874012 117.64867894829806 L 335.386091874012 117.05402275703204 L 335.386091874012 116.45936656576605 L 335.386091874012 115.86471037450005 L 335.386091874012 115.27005418323405 L 335.386091874012 114.67539799196805 L 335.386091874012 114.08074180070204 L 334.79143568274594 113.48608560943605 L 334.79143568274594 112.89142941817005 L 334.19677949147996 112.89142941817005 L 334.19677949147996 112.29677322690405 L 333.602123300214 111.70211703563805 L 333.602123300214 111.10746084437204 L 333.00746710894794 110.51280465310604 L 332.41281091768195 109.91814846184005 L 332.41281091768195 109.91814846184005 L 331.81815472641597 109.32349227057405 L 331.22349853514993 109.32349227057405 L 330.62884234388395 108.72883607930805 L 330.03418615261796 108.13417988804204 L 329.439529961352 108.13417988804204 L 329.439529961352 108.13417988804204" stroke="rgb(132, 0, 0)" fill="none" stroke-width="1.189312382532px" stroke-linecap="round"/><text x="321.11434328362793" y="105.16089893171204" stroke="rgb(245, 241, 237)" stroke-width="1.189312382532px" paint-order="stroke" fill="rgb(15, 15, 15)" font-family="sans-serif" text-anchor="middle" dominant-baseline="ideographic" font-size="10.703811442787998px">SJ1</text></g><g data-circuit-json-type="schematic_component" data-schematic-component-id="schematic_component_10"><rect class="component-overlay" x="705.85689903273" y="137.86698945134205" width="53.51905721393996" height="14.866404781650004" fill="transparent"/><path d="M 721.9126161969119 145.59751993780006 L 705.85689903273 145.59751993780006" stroke="rgb(132, 0, 0)" fill="none" stroke-width="1.189312382532px" stroke-linecap="round"/><path d="M 759.37595624667 145.59751993780006 L 743.320239082488 145.00286374653405" stroke="rgb(132, 0, 0)" fill="none" stroke-width="1.189312382532px" stroke-linecap="round"/><path d="M 736.779020978562 137.86698945134205 L 736.779020978562 152.73339423299205" stroke="rgb(132, 0, 0)" fill="none" stroke-width="1.189312382532px" stroke-linecap="round"/><path d="M 728.4538343008379 137.86698945134205 L 728.4538343008379 152.73339423299205" stroke="rgb(132, 0, 0)" fill="none" stroke-width="1.189312382532px" stroke-linecap="round"/><path d="M 728.4538343008379 152.73339423299205 L 728.4538343008379 152.73339423299205 L 727.264521918306 152.73339423299205 L 726.6698657270399 152.13873804172604 L 726.075209535774 151.54408185046006 L 724.885897153242 150.94942565919405 L 724.291240961976 150.35476946792807 L 724.291240961976 149.76011327666205 L 723.6965847707099 149.16545708539604 L 723.101928579444 148.57080089413006 L 723.101928579444 147.97614470286405 L 723.101928579444 147.38148851159806 L 722.507272388178 146.78683232033205 L 722.507272388178 146.19217612906604 L 722.507272388178 145.59751993780006 L 722.507272388178 145.00286374653405 L 722.507272388178 144.40820755526806 L 723.101928579444 143.81355136400205 L 723.101928579444 143.21889517273604 L 723.101928579444 142.62423898147006 L 723.6965847707099 142.02958279020405 L 723.6965847707099 141.43492659893806 L 724.291240961976 140.84027040767205 L 724.291240961976 140.84027040767205 L 724.885897153242 140.24561421640604 L 725.4805533445079 139.65095802514006 L 726.075209535774 139.05630183387404 L 726.075209535774 139.05630183387404 L 726.6698657270399 138.46164564260806 L 727.264521918306 138.46164564260806 L 727.859178109572 137.86698945134205 L 728.4538343008379 137.86698945134205 L 728.4538343008379 137.86698945134205" stroke="rgb(132, 0, 0)" fill="none" stroke-width="1.189312382532px" stroke-linecap="round"/><path d="M 736.779020978562 152.73339423299205 L 736.779020978562 152.73339423299205 L 737.968333361094 152.73339423299205 L 738.56298955236 152.13873804172604 L 739.752301934892 151.54408185046006 L 740.3469581261579 150.94942565919405 L 740.941614317424 150.35476946792807 L 740.941614317424 149.76011327666205 L 741.53627050869 149.16545708539604 L 742.1309266999559 148.57080089413006 L 742.1309266999559 147.97614470286405 L 742.725582891222 147.38148851159806 L 742.725582891222 146.78683232033205 L 742.725582891222 146.19217612906604 L 742.725582891222 145.59751993780006 L 742.725582891222 145.00286374653405 L 742.725582891222 144.40820755526806 L 742.1309266999559 143.81355136400205 L 742.1309266999559 143.21889517273604 L 742.1309266999559 142.62423898147006 L 741.53627050869 142.02958279020405 L 741.53627050869 141.43492659893806 L 740.941614317424 140.84027040767205 L 740.941614317424 140.84027040767205 L 740.3469581261579 140.24561421640604 L 739.752301934892 139.65095802514006 L 739.157645743626 139.05630183387404 L 739.157645743626 139.05630183387404 L 738.56298955236 138.46164564260806 L 737.968333361094 138.46164564260806 L 737.3736771698279 137.86698945134205 L 736.779020978562 137.86698945134205 L 736.779020978562 137.86698945134205" stroke="rgb(132, 0, 0)" fill="none" stroke-width="1.189312382532px" stroke-linecap="round"/><text x="731.427115257168" y="134.89370849501205" stroke="rgb(245, 241, 237)" stroke-width="1.189312382532px" paint-order="stroke" fill="rgb(15, 15, 15)" font-family="sans-serif" text-anchor="middle" dominant-baseline="ideographic" font-size="10.703811442787998px">SJ2</text></g><g class="schematic-port-hover" data-schematic-port-id="source_port_0"><circle cx="134.98695541737004" cy="425.08592983282" r="2.378624765064" fill="red" opacity="0"/></g><g class="schematic-port-hover" data-schematic-port-id="source_port_1"><circle cx="134.98695541737004" cy="413.19280600750005" r="2.378624765064" fill="red" opacity="0"/></g><g class="schematic-port-hover" data-schematic-port-id="source_port_2"><circle cx="134.98695541737004" cy="401.29968218218" r="2.378624765064" fill="red" opacity="0"/></g><g class="schematic-port-hover" data-schematic-port-id="source_port_3"><circle cx="134.98695541737004" cy="389.40655835686005" r="2.378624765064" fill="red" opacity="0"/></g><g class="schematic-port-hover" data-schematic-port-id="source_port_4"><circle cx="134.98695541737004" cy="377.51343453154004" r="2.378624765064" fill="red" opacity="0"/></g><g class="schematic-port-hover" data-schematic-port-id="source_port_6"><circle cx="1052.541458540808" cy="318.04781540494" r="2.378624765064" fill="red" opacity="0"/></g><g class="schematic-port-hover" data-schematic-port-id="source_port_7"><circle cx="1052.541458540808" cy="294.2615677543" r="2.378624765064" fill="red" opacity="0"/></g><g class="schematic-port-hover" data-schematic-port-id="source_port_8"><circle cx="1052.541458540808" cy="282.36844392898" r="2.378624765064" fill="red" opacity="0"/></g><g class="schematic-port-hover" data-schematic-port-id="source_port_9"><circle cx="1052.541458540808" cy="270.47532010366" r="2.378624765064" fill="red" opacity="0"/></g><g class="schematic-port-hover" data-schematic-port-id="source_port_10"><circle cx="888.416349751392" cy="306.15469157962" r="2.378624765064" fill="red" opacity="0"/></g><g class="schematic-port-hover" data-schematic-port-id="source_port_11"><circle cx="888.416349751392" cy="294.2615677543" r="2.378624765064" fill="red" opacity="0"/></g><g class="schematic-port-hover" data-schematic-port-id="source_port_12"><circle cx="1052.541458540808" cy="306.15469157962" r="2.378624765064" fill="red" opacity="0"/></g><g class="schematic-port-hover" data-schematic-port-id="source_port_13"><circle cx="888.416349751392" cy="282.36844392898" r="2.378624765064" fill="red" opacity="0"/></g><g class="schematic-port-hover" data-schematic-port-id="source_port_14"><circle cx="1160.76888535122" cy="205.06313906440005" r="2.378624765064" fill="red" opacity="0"/></g><g class="schematic-port-hover" data-schematic-port-id="source_port_15"><circle cx="1160.76888535122" cy="270.47532010366" r="2.378624765064" fill="red" opacity="0"/></g><g class="schematic-port-hover" data-schematic-port-id="source_port_16"><circle cx="274.73116036488" cy="202.08985810807005" r="2.378624765064" fill="red" opacity="0"/></g><g class="schematic-port-hover" data-schematic-port-id="source_port_17"><circle cx="274.73116036488" cy="267.50203914733004" r="2.378624765064" fill="red" opacity="0"/></g><g class="schematic-port-hover" data-schematic-port-id="source_port_18"><circle cx="369.87615096744" cy="202.08985810807005" r="2.378624765064" fill="red" opacity="0"/></g><g class="schematic-port-hover" data-schematic-port-id="source_port_19"><circle cx="369.87615096744" cy="267.50203914733004" r="2.378624765064" fill="red" opacity="0"/></g><g class="schematic-port-hover" data-schematic-port-id="source_port_20"><circle cx="732.6164276397" cy="213.98298193339002" r="2.378624765064" fill="red" opacity="0"/></g><g class="schematic-port-hover" data-schematic-port-id="source_port_21"><circle cx="732.6164276397" cy="279.39516297265004" r="2.378624765064" fill="red" opacity="0"/></g><g class="schematic-port-hover" data-schematic-port-id="source_port_22"><circle cx="851.5476658928999" cy="410.21952505117" r="2.378624765064" fill="red" opacity="0"/></g><g class="schematic-port-hover" data-schematic-port-id="source_port_23"><circle cx="851.5476658928999" cy="475.63170609043004" r="2.378624765064" fill="red" opacity="0"/></g><g class="schematic-port-hover" data-schematic-port-id="source_port_24"><circle cx="839.65454206758" cy="178.30361045743" r="2.378624765064" fill="red" opacity="0"/></g><g class="schematic-port-hover" data-schematic-port-id="source_port_25"><circle cx="839.65454206758" cy="243.71579149669003" r="2.378624765064" fill="red" opacity="0"/></g><g class="schematic-port-hover" data-schematic-port-id="source_port_26"><circle cx="762.349237203" cy="472.36109703846705" r="2.378624765064" fill="red" opacity="0"/></g><g class="schematic-port-hover" data-schematic-port-id="source_port_27"><circle cx="762.349237203" cy="413.490134103133" r="2.378624765064" fill="red" opacity="0"/></g><g class="schematic-port-hover" data-schematic-port-id="source_port_28"><circle cx="295.54412705919" cy="115.86471037450005" r="2.378624765064" fill="red" opacity="0"/></g><g class="schematic-port-hover" data-schematic-port-id="source_port_29"><circle cx="322.30365566615995" cy="136.67767706881006" r="2.378624765064" fill="red" opacity="0"/></g><g class="schematic-port-hover" data-schematic-port-id="source_port_30"><circle cx="349.06318427313" cy="115.86471037450005" r="2.378624765064" fill="red" opacity="0"/></g><g class="schematic-port-hover" data-schematic-port-id="source_port_31"><circle cx="705.85689903273" cy="145.59751993780003" r="2.378624765064" fill="red" opacity="0"/></g><g class="schematic-port-hover" data-schematic-port-id="source_port_32"><circle cx="759.37595624667" cy="145.59751993780003" r="2.378624765064" fill="red" opacity="0"/></g><path class="net-label" d="
    M 134.98695541737004,425.08592983282
    L 138.19809885020643,418.6636429671472
    L 157.4015294534898,418.6636429671472
    L 157.4015294534898,431.5082166984928
    L 138.19809885020643,431.5082166984928
    Z
  " fill="rgba(255, 255, 255, 0.6)" stroke="rgb(132, 0, 0)" stroke-width="1.189312382532px"/><text class="net-label-text" x="140.33886113876403" y="425.08592983282" fill="rgb(132, 0, 0)" text-anchor="start" dominant-baseline="central" font-family="sans-serif" font-variant-numeric="tabular-nums" font-size="10.703811442787998px" transform="">VL</text><path class="net-label" d="
    M 869.982007822146,306.15469157962
    L 876.4042946878188,309.36583501245644
    L 876.4042946878188,328.56926561573977
    L 863.5597209564731,328.56926561573977
    L 863.5597209564731,309.36583501245644
    Z
  " fill="rgba(255, 255, 255, 0.6)" stroke="rgb(132, 0, 0)" stroke-width="1.189312382532px"/><text class="net-label-text" x="869.982007822146" y="311.50659730101404" fill="rgb(132, 0, 0)" text-anchor="start" dominant-baseline="central" font-family="sans-serif" font-variant-numeric="tabular-nums" font-size="10.703811442787998px" transform="rotate(90 869.982007822146 311.50659730101404)">VL</text><rect class="component-overlay" x="686.827900912218" y="134.89370849501205" width="14.27174859038405" height="10.70381144278798" fill="transparent"/><path d="M 701.099649502602 134.89370849501205 L 686.827900912218 134.89370849501205" stroke="rgb(132, 0, 0)" fill="none" stroke-width="1.189312382532px" stroke-linecap="round"/><path d="M 693.96377520741 134.89370849501205 L 693.96377520741 145.59751993780003" stroke="rgb(132, 0, 0)" fill="none" stroke-width="1.189312382532px" stroke-linecap="round"/><text x="693.96377520741" y="131.92042753868205" fill="rgb(15, 15, 15)" font-family="sans-serif" text-anchor="middle" dominant-baseline="ideographic" font-size="10.703811442787998px">VL</text><path class="net-label" d="
    M 134.98695541737004,413.19280600750005
    L 138.19809885020643,406.77051914182726
    L 157.4015294534898,406.77051914182726
    L 157.4015294534898,419.61509287317284
    L 138.19809885020643,419.61509287317284
    Z
  " fill="rgba(255, 255, 255, 0.6)" stroke="rgb(132, 0, 0)" stroke-width="1.189312382532px"/><text class="net-label-text" x="140.33886113876403" y="413.19280600750005" fill="rgb(132, 0, 0)" text-anchor="start" dominant-baseline="central" font-family="sans-serif" font-variant-numeric="tabular-nums" font-size="10.703811442787998px" transform="">VL</text><rect class="component-overlay" x="856.8995716142939" y="283.557756311512" width="14.27174859038405" height="10.703811442788037" fill="transparent"/><path d="M 871.171320204678 283.557756311512 L 856.8995716142939 283.557756311512" stroke="rgb(132, 0, 0)" fill="none" stroke-width="1.189312382532px" stroke-linecap="round"/><path d="M 864.0354459094859 283.557756311512 L 864.0354459094859 294.2615677543" stroke="rgb(132, 0, 0)" fill="none" stroke-width="1.189312382532px" stroke-linecap="round"/><text x="864.0354459094859" y="280.584475355182" fill="rgb(15, 15, 15)" font-family="sans-serif" text-anchor="middle" dominant-baseline="ideographic" font-size="10.703811442787998px">VL</text><path class="net-label" d="
    M 851.5476658928999,487.52482991575005
    L 854.7588093257363,481.10254305007726
    L 873.9622399290197,481.10254305007726
    L 873.9622399290197,493.94711678142284
    L 854.7588093257363,493.94711678142284
    Z
  " fill="rgba(255, 255, 255, 0.6)" stroke="rgb(132, 0, 0)" stroke-width="1.189312382532px"/><text class="net-label-text" x="856.8995716142939" y="487.52482991575005" fill="rgb(132, 0, 0)" text-anchor="start" dominant-baseline="central" font-family="sans-serif" font-variant-numeric="tabular-nums" font-size="10.703811442787998px" transform="">VL</text><rect class="component-overlay" x="221.50943124657303" y="390.595870739392" width="14.271748590383993" height="10.703811442788037" fill="transparent"/><path d="M 235.78117983695702 390.595870739392 L 221.50943124657303 390.595870739392" stroke="rgb(132, 0, 0)" fill="none" stroke-width="1.189312382532px" stroke-linecap="round"/><path d="M 228.64530554176503 390.595870739392 L 228.64530554176503 401.29968218218005" stroke="rgb(132, 0, 0)" fill="none" stroke-width="1.189312382532px" stroke-linecap="round"/><text x="228.64530554176503" y="387.62258978306204" fill="rgb(15, 15, 15)" font-family="sans-serif" text-anchor="middle" dominant-baseline="ideographic" font-size="10.703811442787998px">VL</text><path class="net-label" d="
    M 888.416349751392,282.36844392898
    L 885.2052063185556,288.7907307946528
    L 866.0017757152722,288.7907307946528
    L 866.0017757152722,275.9461570633072
    L 885.2052063185556,275.9461570633072
    Z
  " fill="rgba(255, 255, 255, 0.6)" stroke="rgb(132, 0, 0)" stroke-width="1.189312382532px"/><text class="net-label-text" x="883.064444029998" y="282.36844392898" fill="rgb(132, 0, 0)" text-anchor="end" dominant-baseline="central" font-family="sans-serif" font-variant-numeric="tabular-nums" font-size="10.703811442787998px" transform="">VL</text><rect class="component-overlay" x="792.379374861933" y="134.89370849501205" width="14.27174859038405" height="10.70381144278798" fill="transparent"/><path d="M 806.651123452317 134.89370849501205 L 792.379374861933 134.89370849501205" stroke="rgb(132, 0, 0)" fill="none" stroke-width="1.189312382532px" stroke-linecap="round"/><path d="M 799.515249157125 134.89370849501205 L 799.515249157125 145.59751993780003" stroke="rgb(132, 0, 0)" fill="none" stroke-width="1.189312382532px" stroke-linecap="round"/><text x="799.515249157125" y="131.92042753868205" fill="rgb(15, 15, 15)" font-family="sans-serif" text-anchor="middle" dominant-baseline="ideographic" font-size="10.703811442787998px">VL</text><path class="net-label" d="
    M 1160.76888535122,270.47532010366
    L 1167.1911722168927,273.68646353649643
    L 1167.1911722168927,292.88989413977976
    L 1154.3465984855472,292.88989413977976
    L 1154.3465984855472,273.68646353649643
    Z
  " fill="rgba(255, 255, 255, 0.6)" stroke="rgb(132, 0, 0)" stroke-width="1.189312382532px"/><text class="net-label-text" x="1160.76888535122" y="275.82722582505403" fill="rgb(132, 0, 0)" text-anchor="start" dominant-baseline="central" font-family="sans-serif" font-variant-numeric="tabular-nums" font-size="10.703811442787998px" transform="rotate(90 1160.76888535122 275.82722582505403)">VL</text><path class="net-label" d="
    M 732.6164276397,279.39516297265004
    L 739.0387145053728,282.60630640548646
    L 739.0387145053728,301.8097370087698
    L 726.1941407740271,301.8097370087698
    L 726.1941407740271,282.60630640548646
    Z
  " fill="rgba(255, 255, 255, 0.6)" stroke="rgb(132, 0, 0)" stroke-width="1.189312382532px"/><text class="net-label-text" x="732.6164276397" y="284.74706869404406" fill="rgb(132, 0, 0)" text-anchor="start" dominant-baseline="central" font-family="sans-serif" font-variant-numeric="tabular-nums" font-size="10.703811442787998px" transform="rotate(90 732.6164276397 284.74706869404406)">VL</text><rect class="component-overlay" x="162.7871323590555" y="378.702746914072" width="14.271748590383993" height="10.703811442788037" fill="transparent"/><path d="M 177.0588809494395 378.702746914072 L 162.7871323590555 378.702746914072" stroke="rgb(132, 0, 0)" fill="none" stroke-width="1.189312382532px" stroke-linecap="round"/><path d="M 169.9230066542475 378.702746914072 L 169.9230066542475 389.40655835686005" stroke="rgb(132, 0, 0)" fill="none" stroke-width="1.189312382532px" stroke-linecap="round"/><text x="169.9230066542475" y="375.72946595774204" fill="rgb(15, 15, 15)" font-family="sans-serif" text-anchor="middle" dominant-baseline="ideographic" font-size="10.703811442787998px">VL</text><path class="net-label" d="
    M 1052.541458540808,318.04781540494
    L 1055.7526019736445,311.62552853926724
    L 1074.9560325769278,311.62552853926724
    L 1074.9560325769278,324.4701022706128
    L 1055.7526019736445,324.4701022706128
    Z
  " fill="rgba(255, 255, 255, 0.6)" stroke="rgb(132, 0, 0)" stroke-width="1.189312382532px"/><text class="net-label-text" x="1057.8933642622019" y="318.04781540494" fill="rgb(132, 0, 0)" text-anchor="start" dominant-baseline="central" font-family="sans-serif" font-variant-numeric="tabular-nums" font-size="10.703811442787998px" transform="">VL</text><path class="net-label" d="
    M 134.98695541737004,377.51343453154004
    L 138.19809885020643,371.09114766586725
    L 157.4015294534898,371.09114766586725
    L 157.4015294534898,383.93572139721283
    L 138.19809885020643,383.93572139721283
    Z
  " fill="rgba(255, 255, 255, 0.6)" stroke="rgb(132, 0, 0)" stroke-width="1.189312382532px"/><text class="net-label-text" x="140.33886113876403" y="377.51343453154004" fill="rgb(132, 0, 0)" text-anchor="start" dominant-baseline="central" font-family="sans-serif" font-variant-numeric="tabular-nums" font-size="10.703811442787998px" transform="">VL</text><path class="net-label" d="
    M 1052.541458540808,306.15469157962
    L 1055.7526019736445,299.73240471394723
    L 1074.9560325769278,299.73240471394723
    L 1074.9560325769278,312.5769784452928
    L 1055.7526019736445,312.5769784452928
    Z
  " fill="rgba(255, 255, 255, 0.6)" stroke="rgb(132, 0, 0)" stroke-width="1.189312382532px"/><text class="net-label-text" x="1057.8933642622019" y="306.15469157962" fill="rgb(132, 0, 0)" text-anchor="start" dominant-baseline="central" font-family="sans-serif" font-variant-numeric="tabular-nums" font-size="10.703811442787998px" transform="">VL</text><rect class="component-overlay" x="362.740276672248" y="191.38604666528207" width="14.27174859038405" height="10.70381144278798" fill="transparent"/><path d="M 377.01202526263205 191.38604666528207 L 362.740276672248 191.38604666528207" stroke="rgb(132, 0, 0)" fill="none" stroke-width="1.189312382532px" stroke-linecap="round"/><path d="M 369.87615096744 191.38604666528207 L 369.87615096744 202.08985810807005" stroke="rgb(132, 0, 0)" fill="none" stroke-width="1.189312382532px" stroke-linecap="round"/><text x="369.87615096744" y="188.41276570895207" fill="rgb(15, 15, 15)" font-family="sans-serif" text-anchor="middle" dominant-baseline="ideographic" font-size="10.703811442787998px">VL</text><path class="net-label" d="
    M 1052.541458540808,258.58219627834
    L 1049.3303151079715,265.0044831440128
    L 1030.1268845046882,265.0044831440128
    L 1030.1268845046882,252.15990941266722
    L 1049.3303151079715,252.15990941266722
    Z
  " fill="rgba(255, 255, 255, 0.6)" stroke="rgb(132, 0, 0)" stroke-width="1.189312382532px"/><text class="net-label-text" x="1047.189552819414" y="258.58219627834" fill="rgb(132, 0, 0)" text-anchor="end" dominant-baseline="central" font-family="sans-serif" font-variant-numeric="tabular-nums" font-size="10.703811442787998px" transform="">VL</text><path class="net-label" d="
    M 274.73116036488,267.50203914733004
    L 281.1534472305528,270.71318258016646
    L 281.1534472305528,289.9166131834498
    L 268.3088734992072,289.9166131834498
    L 268.3088734992072,270.71318258016646
    Z
  " fill="rgba(255, 255, 255, 0.6)" stroke="rgb(132, 0, 0)" stroke-width="1.189312382532px"/><text class="net-label-text" x="274.73116036488" y="272.85394486872406" fill="rgb(132, 0, 0)" text-anchor="start" dominant-baseline="central" font-family="sans-serif" font-variant-numeric="tabular-nums" font-size="10.703811442787998px" transform="rotate(90 274.73116036488 272.85394486872406)">VL</text><path class="net-label" d="
    M 349.06318427313,115.86471037450005
    L 352.2743277059664,109.44242350882725
    L 371.47775830924974,109.44242350882725
    L 371.47775830924974,122.28699724017285
    L 352.2743277059664,122.28699724017285
    Z
  " fill="rgba(255, 255, 255, 0.6)" stroke="rgb(132, 0, 0)" stroke-width="1.189312382532px"/><text class="net-label-text" x="354.415089994524" y="115.86471037450005" fill="rgb(132, 0, 0)" text-anchor="start" dominant-baseline="central" font-family="sans-serif" font-variant-numeric="tabular-nums" font-size="10.703811442787998px" transform="">VL</text><path class="net-label" d="
    M 369.87615096744,267.50203914733004
    L 376.2984378331128,270.71318258016646
    L 376.2984378331128,289.9166131834498
    L 363.45386410176724,289.9166131834498
    L 363.45386410176724,270.71318258016646
    Z
  " fill="rgba(255, 255, 255, 0.6)" stroke="rgb(132, 0, 0)" stroke-width="1.189312382532px"/><text class="net-label-text" x="369.87615096744" y="272.85394486872406" fill="rgb(132, 0, 0)" text-anchor="start" dominant-baseline="central" font-family="sans-serif" font-variant-numeric="tabular-nums" font-size="10.703811442787998px" transform="rotate(90 369.87615096744 272.85394486872406)">VL</text><path class="net-label" d="
    M 295.54412705919,115.86471037450005
    L 292.33298362635355,122.28699724017285
    L 273.12955302307023,122.28699724017285
    L 273.12955302307023,109.44242350882725
    L 292.33298362635355,109.44242350882725
    Z
  " fill="rgba(255, 255, 255, 0.6)" stroke="rgb(132, 0, 0)" stroke-width="1.189312382532px"/><text class="net-label-text" x="290.19222133779596" y="115.86471037450005" fill="rgb(132, 0, 0)" text-anchor="end" dominant-baseline="central" font-family="sans-serif" font-variant-numeric="tabular-nums" font-size="10.703811442787998px" transform="">VL</text><text x="399.60896053074" y="130.73111515615003" fill="red" text-anchor="middle" dominant-baseline="middle" font-family="sans-serif" font-size="14.271748590383998px" transform="rotate(0, 399.60896053074, 130.73111515615003)"><tspan x="399.60896053074">I2C Pullup</tspan><tspan x="399.60896053074" dy="1em">Enable</tspan></text><text x="658.28440373145" y="190.19673428275004" fill="red" text-anchor="middle" dominant-baseline="middle" font-family="sans-serif" font-size="14.271748590383998px" transform="rotate(0, 658.28440373145, 190.19673428275004)"><tspan x="658.28440373145">Connect</tspan><tspan x="658.28440373145" dy="1em">Power Supplies</tspan></text><text x="994.2651517967399" y="130.73111515615003" fill="red" text-anchor="middle" dominant-baseline="middle" font-family="sans-serif" font-size="14.86640478165px" transform="rotate(0, 994.2651517967399, 130.73111515615003)">I2C Addr: 0x39</text></svg>