<svg xmlns="http://www.w3.org/2000/svg" width="800" height="600" data-software-used-string="@tscircuit/core@0.0.931"><style></style><rect class="boundary" x="0" y="0" fill="#000" width="800" height="600" data-type="pcb_background" data-pcb-layer="global"/><rect class="pcb-boundary" fill="none" stroke="#fff" stroke-width="0.3" x="229.30107526881716" y="26.88172043010752" width="341.39784946236557" height="546.236559139785" data-type="pcb_boundary" data-pcb-layer="global"/><path class="pcb-board" d="M 229.30107526881716 573.1182795698925 L 536.5591397849462 573.1182795698925 L 536.5591397849462 26.88172043010752 L 229.30107526881716 26.88172043010752 Z" fill="none" stroke="rgba(255, 255, 255, 0.5)" stroke-width="2.688172043010753" data-type="pcb_board" data-pcb-layer="board"/><rect class="pcb-pad" fill="rgb(77, 127, 196)" x="384.1397849462365" y="457.9301075268817" width="21.505376344086024" height="25.537634408602152" data-type="pcb_smtpad" data-pcb-layer="bottom"/><rect class="pcb-pad" fill="rgb(77, 127, 196)" x="428.4946236559139" y="457.9301075268817" width="21.505376344086024" height="25.537634408602152" data-type="pcb_smtpad" data-pcb-layer="bottom"/><rect class="pcb-pad" fill="rgb(77, 127, 196)" x="384.1397849462365" y="116.53225806451614" width="21.505376344086024" height="25.537634408602152" data-type="pcb_smtpad" data-pcb-layer="bottom"/><rect class="pcb-pad" fill="rgb(77, 127, 196)" x="428.4946236559139" y="116.53225806451614" width="21.505376344086024" height="25.537634408602152" data-type="pcb_smtpad" data-pcb-layer="bottom"/><rect class="pcb-pad" fill="rgb(77, 127, 196)" x="377.47311827956986" y="40.86021505376342" width="17.741935483870968" height="40.322580645161295" data-type="pcb_smtpad" data-pcb-layer="bottom"/><rect class="pcb-pad" fill="rgb(77, 127, 196)" x="404.3548387096774" y="40.86021505376342" width="17.741935483870968" height="40.322580645161295" data-type="pcb_smtpad" data-pcb-layer="bottom"/><path class="pcb-trace" stroke="rgb(77, 127, 196)" fill="none" d="M 395.21505376344084 61.02150537634407 L 404.3548387096774 61.02150537634407" stroke-width="10.080645161290324" stroke-linecap="round" stroke-linejoin="round" shape-rendering="crispEdges" data-type="pcb_trace" data-pcb-layer="bottom"/><path class="pcb-copper-pour pcb-copper-pour-brep" d="M 531.1827956989247 515.0793456526401 L 531.1827956989247 567.741935483871 L 234.67741935483866 567.741935483871 L 234.67741935483866 32.258064516129025 L 531.1827956989247 32.258064516129025 L 531.1827956989247 84.92065434736 L 530.7317921253458 83.43389481461818 L 527.8998752157231 78.13575092359284 L 524.0887561976522 73.49188896363805 L 519.4448942376974 69.68076994556716 L 514.146750346672 66.84885303594444 L 508.3979292230748 65.10496721344941 L 502.41935483870964 64.51612903225805 L 496.4407804543444 65.10496721344941 L 490.6919593307472 66.84885303594444 L 485.39381543972183 69.68076994556716 L 480.74995347976704 73.49188896363805 L 476.93883446169616 78.13575092359284 L 474.1069175520734 83.43389481461818 L 472.3630317295783 89.18271593821538 L 471.7741935483871 95.16129032258064 L 472.3630317295783 101.13986470694584 L 474.1069175520734 106.88868583054307 L 476.9388344616961 112.18682972156842 L 480.749953479767 116.8306916815232 L 485.39381543972183 120.64181069959412 L 490.6919593307472 123.47372760921681 L 496.44078045434435 125.2176134317119 L 502.41935483870964 125.8064516129032 L 508.3979292230748 125.2176134317119 L 514.146750346672 123.47372760921681 L 519.4448942376974 120.64181069959412 L 524.0887561976522 116.83069168152323 L 527.8998752157231 112.18682972156844 L 530.7317921253458 106.8886858305431 L 531.1827956989247 105.40192629780111 L 531.1827956989247 153.2002242398331 L 530.7317921253459 151.71346470709133 L 527.8998752157231 146.41532081606593 L 524.0887561976522 141.7714588561112 L 519.4448942376974 137.96033983804026 L 514.1467503466721 135.12842292841754 L 508.39792922307487 133.3845371059225 L 502.41935483870964 132.79569892473117 L 496.4407804543444 133.3845371059225 L 490.6919593307472 135.12842292841754 L 485.39381543972183 137.96033983804026 L 480.74995347976704 141.77145885611117 L 476.93883446169616 146.41532081606593 L 474.1069175520734 151.71346470709133 L 472.3630317295784 157.46228583068853 L 471.7741935483871 163.44086021505376 L 472.3630317295784 169.41943459941896 L 474.1069175520734 175.1682557230162 L 476.93883446169616 180.46639961404156 L 480.74995347976704 185.11026157399633 L 485.39381543972183 188.92138059206724 L 490.6919593307472 191.75329750168999 L 496.4407804543444 193.49718332418502 L 502.41935483870964 194.08602150537632 L 508.39792922307487 193.49718332418502 L 514.1467503466721 191.75329750168999 L 519.4448942376974 188.92138059206724 L 524.0887561976522 185.11026157399635 L 527.8998752157231 180.46639961404156 L 530.7317921253459 175.16825572301622 L 531.1827956989247 173.68149619027446 L 531.1827956989247 221.47979413230618 L 530.7317921253459 219.99303459956445 L 527.8998752157231 214.69489070853908 L 524.0887561976522 210.05102874858432 L 519.4448942376974 206.23990973051338 L 514.1467503466721 203.40799282089068 L 508.39792922307487 201.66410699839562 L 502.41935483870964 201.0752688172043 L 496.4407804543444 201.66410699839562 L 490.6919593307472 203.40799282089068 L 485.39381543972183 206.23990973051338 L 480.74995347976704 210.05102874858432 L 476.93883446169616 214.69489070853908 L 474.1069175520734 219.99303459956445 L 472.3630317295784 225.74185572316165 L 471.7741935483871 231.72043010752688 L 472.3630317295784 237.6990044918921 L 474.1069175520734 243.4478256154893 L 476.93883446169616 248.74596950651468 L 480.74995347976704 253.38983146646945 L 485.39381543972183 257.2009504845404 L 490.6919593307472 260.0328673941631 L 496.4407804543444 261.7767532166581 L 502.41935483870964 262.36559139784947 L 508.39792922307487 261.7767532166581 L 514.1467503466721 260.0328673941631 L 519.4448942376974 257.2009504845404 L 524.0887561976522 253.38983146646947 L 527.8998752157231 248.74596950651468 L 530.7317921253459 243.44782561548934 L 531.1827956989247 241.96106608274755 L 531.1827956989247 289.7593640247795 L 530.7317921253459 288.27260449203754 L 527.8998752157231 282.9744606010122 L 524.0887561976522 278.3305986410574 L 519.4448942376974 274.5194796229865 L 514.1467503466721 271.6875627133638 L 508.39792922307487 269.94367689086874 L 502.41935483870964 269.35483870967744 L 496.4407804543444 269.94367689086874 L 490.6919593307472 271.6875627133638 L 485.39381543972183 274.5194796229865 L 480.74995347976704 278.3305986410574 L 476.93883446169616 282.9744606010122 L 474.1069175520734 288.27260449203754 L 472.3630317295784 294.02142561563477 L 471.7741935483871 300 L 472.3630317295784 305.97857438436523 L 474.1069175520734 311.7273955079624 L 476.93883446169616 317.0255393989878 L 480.74995347976704 321.6694013589426 L 485.39381543972183 325.4805203770135 L 490.6919593307472 328.3124372866362 L 496.4407804543444 330.05632310913126 L 502.41935483870964 330.64516129032256 L 508.39792922307487 330.05632310913126 L 514.1467503466721 328.3124372866362 L 519.4448942376974 325.4805203770135 L 524.0887561976522 321.6694013589426 L 527.8998752157231 317.0255393989878 L 530.7317921253459 311.72739550796246 L 531.1827956989247 310.24063597522064 L 531.1827956989247 358.03893391725245 L 530.7317921253459 356.5521743845107 L 527.8998752157231 351.2540304934853 L 524.0887561976522 346.61016853353055 L 519.4448942376974 342.7990495154596 L 514.1467503466721 339.9671326058369 L 508.39792922307487 338.2232467833419 L 502.41935483870964 337.63440860215053 L 496.4407804543444 338.2232467833419 L 490.6919593307472 339.9671326058369 L 485.39381543972183 342.7990495154596 L 480.74995347976704 346.61016853353055 L 476.93883446169616 351.2540304934853 L 474.1069175520734 356.5521743845107 L 472.3630317295784 362.3009955081079 L 471.7741935483871 368.2795698924731 L 472.3630317295784 374.2581442768384 L 474.1069175520734 380.00696540043555 L 476.93883446169616 385.3051092914609 L 480.74995347976704 389.9489712514157 L 485.39381543972183 393.7600902694866 L 490.6919593307472 396.5920071791093 L 496.4407804543444 398.3358930016044 L 502.41935483870964 398.9247311827957 L 508.39792922307487 398.3358930016044 L 514.1467503466721 396.5920071791093 L 519.4448942376974 393.7600902694866 L 524.0887561976522 389.94897125141574 L 527.8998752157231 385.3051092914609 L 530.7317921253459 380.00696540043555 L 531.1827956989247 378.5202058676938 L 531.1827956989247 426.31850380972554 L 530.7317921253459 424.8317442769838 L 527.8998752157231 419.5336003859584 L 524.0887561976522 414.88973842600365 L 519.4448942376974 411.07861940793276 L 514.1467503466721 408.24670249831 L 508.39792922307487 406.502816675815 L 502.41935483870964 405.9139784946236 L 496.4407804543444 406.502816675815 L 490.6919593307472 408.24670249831 L 485.39381543972183 411.0786194079327 L 480.74995347976704 414.88973842600365 L 476.93883446169616 419.5336003859584 L 474.1069175520734 424.8317442769838 L 472.3630317295784 430.580565400581 L 471.7741935483871 436.5591397849462 L 472.3630317295784 442.53771416931147 L 474.1069175520734 448.28653529290864 L 476.93883446169616 453.584679183934 L 480.74995347976704 458.22854114388883 L 485.39381543972183 462.03966016195966 L 490.6919593307472 464.8715770715824 L 496.4407804543444 466.6154628940775 L 502.41935483870964 467.2043010752688 L 508.39792922307487 466.6154628940775 L 514.1467503466721 464.8715770715824 L 519.4448942376974 462.0396601619597 L 524.0887561976522 458.22854114388883 L 527.8998752157231 453.58467918393404 L 530.7317921253459 448.28653529290864 L 531.1827956989247 446.7997757601669 L 531.1827956989247 494.5980737021986 L 530.7317921253459 493.11131416945693 L 527.8998752157231 487.8131702784316 L 524.0887561976523 483.1693083184768 L 519.4448942376974 479.3581893004059 L 514.1467503466721 476.52627239078316 L 508.39792922307487 474.7823865682881 L 502.41935483870964 474.1935483870968 L 496.44078045434446 474.7823865682881 L 490.69195933074724 476.52627239078316 L 485.39381543972183 479.3581893004059 L 480.7499534797671 483.16930831847674 L 476.93883446169616 487.8131702784316 L 474.10691755207347 493.11131416945693 L 472.36303172957844 498.8601352930541 L 471.7741935483871 504.8387096774194 L 472.36303172957844 510.81728406178456 L 474.10691755207347 516.5661051853817 L 476.93883446169616 521.8642490764072 L 480.7499534797671 526.5081110363619 L 485.39381543972183 530.3192300544329 L 490.6919593307472 533.1511469640556 L 496.4407804543444 534.8950327865506 L 502.41935483870964 535.483870967742 L 508.39792922307487 534.8950327865506 L 514.1467503466721 533.1511469640556 L 519.4448942376974 530.3192300544329 L 524.0887561976522 526.5081110363619 L 527.8998752157231 521.8642490764072 L 530.7317921253459 516.5661051853818 L 531.1827956989247 515.0793456526401 Z M 347.58064516129025 504.8387096774194 L 346.6199091814518 495.08419357661296 L 343.7746217868546 485.70453805916486 L 339.1541257764175 477.06019802643925 L 332.9359842206176 469.48337061809195 L 325.3591568122704 463.2652290622921 L 316.7148167795448 458.64473305185504 L 307.3351612620967 455.7994456572578 L 297.58064516129025 454.8387096774194 L 287.8261290604839 455.7994456572578 L 278.4464735430358 458.64473305185504 L 269.80213351031017 463.26522906229206 L 262.22530610196293 469.48337061809195 L 256.007164546163 477.06019802643925 L 251.38666853572596 485.70453805916486 L 248.54138114112874 495.08419357661296 L 247.58064516129028 504.8387096774194 L 248.54138114112874 514.5932257782258 L 251.38666853572593 523.9728812956739 L 256.007164546163 532.6172213283994 L 262.22530610196293 540.1940487367467 L 269.80213351031017 546.4121902925466 L 278.4464735430358 551.0326863029836 L 287.8261290604838 553.8779736975808 L 297.58064516129025 554.8387096774194 L 307.3351612620967 553.8779736975808 L 316.7148167795448 551.0326863029837 L 325.3591568122704 546.4121902925466 L 332.9359842206176 540.1940487367467 L 339.1541257764175 532.6172213283994 L 343.7746217868546 523.9728812956739 L 346.6199091814518 514.5932257782258 L 347.58064516129025 504.8387096774194 Z M 347.58064516129025 95.16129032258064 L 346.6199091814518 85.40677422177421 L 343.7746217868546 76.02711870432614 L 339.1541257764175 67.38277867160053 L 332.9359842206176 59.80595126325329 L 325.3591568122704 53.587809707453374 L 316.7148167795448 48.967313697016294 L 307.3351612620967 46.12202630241913 L 297.58064516129025 45.16129032258061 L 287.8261290604839 46.12202630241913 L 278.4464735430358 48.967313697016294 L 269.80213351031017 53.587809707453374 L 262.22530610196293 59.80595126325329 L 256.007164546163 67.38277867160053 L 251.38666853572596 76.02711870432614 L 248.54138114112874 85.40677422177421 L 247.58064516129028 95.16129032258064 L 248.54138114112874 104.91580642338707 L 251.38666853572593 114.29546194083511 L 256.007164546163 122.93980197356075 L 262.22530610196293 130.51662938190802 L 269.80213351031017 136.73477093770788 L 278.4464735430358 141.35526694814496 L 287.8261290604838 144.20055434274215 L 297.58064516129025 145.16129032258064 L 307.3351612620967 144.20055434274215 L 316.7148167795448 141.35526694814496 L 325.3591568122704 136.7347709377079 L 332.9359842206176 130.51662938190802 L 339.1541257764175 122.93980197356075 L 343.7746217868546 114.29546194083517 L 346.6199091814518 104.91580642338707 L 347.58064516129025 95.16129032258064 Z M 340.7936747390179 225.40115591397975 L 341.68245266832264 224.9260942133791 L 343.9229095343505 223.08739878166358 L 345.761604966066 220.84694191563568 L 347.1278789291806 218.29082311619428 L 347.9692262815071 215.51727259531384 L 348.25331451612857 212.6328763440868 L 347.9692262815071 209.74848009285984 L 347.1278789291806 206.97492957197937 L 345.761604966066 204.41881077253797 L 343.9229095343505 202.1783539065101 L 341.68245266832264 200.3396584747946 L 339.12633386888115 198.97338451167997 L 336.35278334800074 198.13203715935347 L 333.46838709677377 197.847948924732 L 330.58399084554674 198.13203715935347 L 327.8104403246663 198.97338451167997 L 325.2543215252249 200.3396584747946 L 323.013864659197 202.1783539065101 L 321.1751692274815 204.41881077253797 L 319.80889526436687 206.97492957197937 L 318.9675479120404 209.7484800928598 L 318.6834596774189 212.6328763440868 L 318.9675479120404 215.51727259531384 L 319.80889526436687 218.29082311619428 L 321.1751692274815 220.84694191563568 L 323.013864659197 223.08739878166358 L 325.2543215252249 224.9260942133791 L 326.14309945452965 225.40115591397975 L 325.2543215252249 225.8762176145804 L 323.013864659197 227.71491304629592 L 321.1751692274815 229.9553699123238 L 319.80889526436687 232.51148871176522 L 318.9675479120404 235.28503923264563 L 318.6834596774189 238.16943548387266 L 318.9675479120404 241.0538317350997 L 319.80889526436687 243.8273822559801 L 321.1751692274815 246.38350105542153 L 323.013864659197 248.6239579214494 L 325.2543215252249 250.4626533531649 L 326.14309945452675 250.93771505376407 L 325.2543215252249 251.4127767543632 L 323.013864659197 253.2514721860787 L 321.1751692274815 255.49192905210657 L 319.80889526436687 258.048047851548 L 318.9675479120404 260.8215983724284 L 318.6834596774189 263.70599462365544 L 318.9675479120404 266.5903908748825 L 319.80889526436687 269.3639413957629 L 321.1751692274815 271.9200601952043 L 323.013864659197 274.16051706123216 L 325.01783669520967 275.8051344086015 L 323.013864659197 277.44975175597085 L 321.1751692274815 279.6902086219987 L 319.80889526436687 282.2463274214401 L 318.9675479120404 285.01987794232053 L 318.6834596774189 287.90427419354756 L 318.9675479120404 290.7886704447746 L 319.80889526436687 293.562220965655 L 321.1751692274815 296.11833976509644 L 323.013864659197 298.3587966311243 L 325.0136767503789 300 L 323.013864659197 301.6412033688757 L 321.1751692274815 303.88166023490356 L 319.80889526436687 306.437779034345 L 318.9675479120404 309.2113295552254 L 318.6834596774189 312.09572580645244 L 318.9675479120404 314.98012205767947 L 319.80889526436687 317.7536725785599 L 321.1751692274815 320.3097913780013 L 323.013864659197 322.55024824402915 L 325.2543215252249 324.38894367574466 L 327.8104403246663 325.7552176388593 L 330.58399084554674 326.5965649911858 L 333.4683870967737 326.8806532258073 L 336.35278334800074 326.5965649911858 L 339.12633386888115 325.7552176388593 L 341.6824526683226 324.38894367574466 L 343.9229095343505 322.55024824402915 L 345.761604966066 320.3097913780013 L 347.1278789291806 317.7536725785599 L 347.9692262815071 314.98012205767947 L 348.25331451612857 312.09572580645244 L 347.9692262815071 309.2113295552254 L 347.1278789291806 306.437779034345 L 345.761604966066 303.88166023490356 L 343.9229095343505 301.6412033688757 L 341.92309744316856 300 L 343.9229095343505 298.35879663112433 L 345.761604966066 296.11833976509644 L 347.1278789291806 293.562220965655 L 347.9692262815071 290.7886704447746 L 348.25331451612857 287.90427419354756 L 347.9692262815071 285.01987794232053 L 347.1278789291806 282.2463274214401 L 345.761604966066 279.6902086219987 L 343.9229095343505 277.44975175597085 L 341.91893749833775 275.8051344086015 L 343.9229095343505 274.16051706123216 L 345.761604966066 271.9200601952043 L 347.1278789291806 269.3639413957629 L 347.9692262815071 266.5903908748825 L 348.25331451612857 263.70599462365544 L 347.9692262815071 260.8215983724284 L 347.1278789291806 258.048047851548 L 345.761604966066 255.49192905210657 L 343.9229095343505 253.2514721860787 L 341.68245266832264 251.4127767543632 L 340.79367473902073 250.93771505376404 L 341.6824526683226 250.4626533531649 L 343.9229095343505 248.6239579214494 L 345.761604966066 246.38350105542153 L 347.1278789291806 243.82738225598013 L 347.9692262815071 241.0538317350997 L 348.25331451612857 238.16943548387266 L 347.9692262815071 235.28503923264566 L 347.1278789291806 232.51148871176522 L 345.761604966066 229.9553699123238 L 343.9229095343505 227.71491304629592 L 341.68245266832264 225.8762176145804 L 340.7936747390179 225.40115591397975 Z M 287.3779778256516 300 L 285.3781657344697 301.6412033688757 L 283.5394703027542 303.88166023490356 L 282.17319633963956 306.437779034345 L 281.33184898731304 309.2113295552254 L 281.0477607526916 312.09572580645244 L 281.33184898731304 314.98012205767947 L 282.17319633963956 317.7536725785599 L 283.5394703027542 320.3097913780013 L 285.3781657344697 322.55024824402915 L 287.37797782564974 324.19145161290334 L 285.3781657344697 325.83265498177747 L 283.5394703027542 328.07311184780536 L 282.17319633963956 330.6292306472468 L 281.33184898731304 333.4027811681272 L 281.0477607526916 336.28717741935424 L 281.33184898731304 339.17157367058127 L 282.17319633963956 341.9451241914617 L 283.5394703027542 344.5012429909031 L 285.3781657344697 346.74169985693095 L 287.61862260049753 348.58039528864646 L 288.51378763432456 349.0588709677408 L 287.61862260049753 349.5373466468351 L 285.3781657344697 351.3760420785506 L 283.5394703027542 353.61649894457844 L 282.17319633963956 356.17261774401993 L 281.33184898731304 358.94616826490034 L 281.0477607526916 361.8305645161273 L 281.33184898731304 364.71496076735434 L 282.17319633963956 367.4885112882348 L 283.5394703027542 370.0446300876762 L 285.3781657344697 372.2850869537041 L 287.61862260049753 374.1237823854196 L 288.5074005298023 374.5988440860202 L 287.61862260049753 375.0739057866209 L 285.3781657344697 376.9126012183364 L 283.5394703027542 379.1530580843643 L 282.17319633963956 381.70917688380575 L 281.33184898731304 384.48272740468616 L 281.0477607526916 387.3671236559132 L 281.33184898731304 390.25151990714016 L 282.17319633963956 393.0250704280206 L 283.5394703027542 395.581189227462 L 285.3781657344697 397.8216460934899 L 287.61862260049753 399.6603415252054 L 290.17474139993897 401.02661548832003 L 292.9482919208194 401.8679628406465 L 295.8326881720464 402.152051075268 L 298.71708442327343 401.86796284064656 L 301.49063494415384 401.02661548832003 L 304.0467537435953 399.6603415252054 L 306.2872106096231 397.8216460934899 L 308.1259060413387 395.581189227462 L 309.4921800044533 393.0250704280206 L 310.33352735677977 390.25151990714016 L 310.61761559140126 387.3671236559132 L 310.33352735677977 384.48272740468616 L 309.4921800044533 381.70917688380575 L 308.1259060413387 379.1530580843643 L 306.2872106096231 376.9126012183364 L 304.04675374359533 375.0739057866209 L 303.1579758142906 374.5988440860202 L 304.0467537435953 374.1237823854196 L 306.2872106096231 372.2850869537041 L 308.1259060413387 370.0446300876762 L 309.4921800044533 367.4885112882348 L 310.33352735677977 364.71496076735434 L 310.61761559140126 361.8305645161273 L 310.33352735677977 358.94616826490034 L 309.4921800044533 356.17261774401993 L 308.1259060413387 353.61649894457844 L 306.2872106096231 351.3760420785506 L 304.04675374359533 349.5373466468351 L 303.15158870976825 349.0588709677408 L 304.0467537435953 348.58039528864646 L 306.2872106096231 346.74169985693095 L 308.1259060413387 344.5012429909031 L 309.4921800044533 341.9451241914617 L 310.33352735677977 339.17157367058127 L 310.61761559140126 336.28717741935424 L 310.33352735677977 333.4027811681272 L 309.4921800044533 330.6292306472468 L 308.1259060413387 328.07311184780536 L 306.2872106096231 325.8326549817775 L 304.2873985184431 324.19145161290334 L 306.2872106096231 322.55024824402915 L 308.1259060413387 320.3097913780013 L 309.4921800044533 317.7536725785599 L 310.33352735677977 314.98012205767947 L 310.61761559140126 312.09572580645244 L 310.33352735677977 309.2113295552254 L 309.4921800044533 306.437779034345 L 308.1259060413387 303.88166023490356 L 306.2872106096231 301.6412033688757 L 304.28739851844125 300 L 306.2872106096231 298.3587966311243 L 308.1259060413387 296.11833976509644 L 309.4921800044533 293.562220965655 L 310.33352735677977 290.7886704447746 L 310.61761559140126 287.90427419354756 L 310.33352735677977 285.01987794232053 L 309.4921800044533 282.2463274214401 L 308.1259060413387 279.6902086219987 L 306.2872106096231 277.44975175597085 L 304.04675374359533 275.61105632425534 L 301.49063494415384 274.2447823611407 L 298.71708442327343 273.4034350088142 L 295.8326881720464 273.1193467741927 L 292.94829192081943 273.4034350088142 L 290.17474139993897 274.2447823611407 L 287.61862260049753 275.61105632425534 L 285.3781657344697 277.44975175597085 L 283.5394703027542 279.6902086219987 L 282.17319633963956 282.2463274214401 L 281.33184898731304 285.01987794232053 L 281.0477607526916 287.90427419354756 L 281.33184898731304 290.7886704447746 L 282.17319633963956 293.562220965655 L 283.5394703027542 296.11833976509644 L 285.3781657344697 298.3587966311243 L 287.3779778256516 300 Z M 398.9784946236559 86.55913978494621 L 427.47311827956986 86.55913978494621 L 427.47311827956986 35.48387096774195 L 398.9784946236559 35.48387096774195 L 398.9784946236559 86.55913978494621 Z M 288.5074005298023 225.40115591397975 L 287.61862260049753 225.8762176145804 L 285.3781657344697 227.71491304629592 L 283.5394703027542 229.9553699123238 L 282.17319633963956 232.51148871176522 L 281.33184898731304 235.28503923264563 L 281.0477607526916 238.16943548387266 L 281.33184898731304 241.0538317350997 L 282.17319633963956 243.8273822559801 L 283.5394703027542 246.38350105542153 L 285.3781657344697 248.6239579214494 L 287.61862260049753 250.4626533531649 L 290.17474139993897 251.82892731627953 L 292.9482919208194 252.670274668606 L 295.8326881720464 252.9543629032275 L 298.71708442327343 252.670274668606 L 301.49063494415384 251.82892731627953 L 304.0467537435953 250.4626533531649 L 306.2872106096231 248.6239579214494 L 308.1259060413387 246.38350105542153 L 309.4921800044533 243.82738225598013 L 310.33352735677977 241.0538317350997 L 310.61761559140126 238.16943548387266 L 310.33352735677977 235.28503923264566 L 309.4921800044533 232.51148871176522 L 308.1259060413387 229.9553699123238 L 306.2872106096231 227.71491304629592 L 304.04675374359533 225.8762176145804 L 303.1579758142906 225.40115591397975 L 304.0467537435953 224.9260942133791 L 306.2872106096231 223.08739878166358 L 308.1259060413387 220.84694191563568 L 309.4921800044533 218.29082311619428 L 310.33352735677977 215.51727259531384 L 310.61761559140126 212.6328763440868 L 310.33352735677977 209.74848009285984 L 309.4921800044533 206.97492957197937 L 308.1259060413387 204.41881077253797 L 306.2872106096231 202.1783539065101 L 304.04675374359533 200.3396584747946 L 301.49063494415384 198.97338451167997 L 298.71708442327343 198.13203715935347 L 295.8326881720464 197.847948924732 L 292.94829192081943 198.13203715935347 L 290.17474139993897 198.97338451167997 L 287.61862260049753 200.3396584747946 L 285.3781657344697 202.1783539065101 L 283.5394703027542 204.41881077253797 L 282.17319633963956 206.97492957197937 L 281.33184898731304 209.7484800928598 L 281.0477607526916 212.6328763440868 L 281.33184898731304 215.51727259531384 L 282.17319633963956 218.29082311619428 L 283.5394703027542 220.84694191563568 L 285.3781657344697 223.08739878166358 L 287.61862260049753 224.9260942133791 L 288.5074005298023 225.40115591397975 Z M 340.7936747390179 374.5988440860203 L 341.6824526683226 374.1237823854196 L 343.9229095343505 372.2850869537041 L 345.761604966066 370.0446300876762 L 347.1278789291806 367.4885112882348 L 347.9692262815071 364.71496076735434 L 348.25331451612857 361.8305645161273 L 347.9692262815071 358.94616826490034 L 347.1278789291806 356.17261774401993 L 345.761604966066 353.61649894457844 L 343.9229095343505 351.3760420785506 L 341.68245266832264 349.5373466468351 L 339.12633386888115 348.17107268372047 L 336.35278334800074 347.329725331394 L 333.4683870967737 347.0456370967725 L 330.58399084554674 347.329725331394 L 327.8104403246663 348.17107268372047 L 325.2543215252249 349.5373466468351 L 323.013864659197 351.3760420785506 L 321.1751692274815 353.61649894457844 L 319.80889526436687 356.17261774401993 L 318.9675479120404 358.94616826490034 L 318.6834596774189 361.8305645161273 L 318.9675479120404 364.71496076735434 L 319.80889526436687 367.4885112882348 L 321.1751692274815 370.0446300876762 L 323.013864659197 372.2850869537041 L 325.2543215252249 374.1237823854196 L 326.1430994545296 374.5988440860202 L 325.25432152522484 375.0739057866209 L 323.013864659197 376.9126012183364 L 321.1751692274815 379.1530580843643 L 319.80889526436687 381.70917688380575 L 318.9675479120404 384.48272740468616 L 318.6834596774189 387.3671236559132 L 318.9675479120404 390.25151990714016 L 319.80889526436687 393.0250704280206 L 321.1751692274815 395.581189227462 L 323.013864659197 397.8216460934899 L 325.25432152522484 399.6603415252054 L 327.8104403246663 401.02661548832003 L 330.5839908455467 401.8679628406465 L 333.4683870967737 402.152051075268 L 336.35278334800074 401.86796284064656 L 339.12633386888115 401.02661548832003 L 341.6824526683226 399.6603415252054 L 343.9229095343505 397.8216460934899 L 345.761604966066 395.581189227462 L 347.12787892918055 393.0250704280206 L 347.9692262815071 390.25151990714016 L 348.25331451612857 387.3671236559132 L 347.9692262815071 384.48272740468616 L 347.1278789291806 381.70917688380575 L 345.761604966066 379.1530580843643 L 343.9229095343505 376.9126012183364 L 341.6824526683226 375.0739057866209 L 340.7936747390179 374.5988440860203 Z M 423.1182795698924 488.8440860215054 L 455.37634408602145 488.8440860215054 L 455.37634408602145 452.5537634408602 L 423.1182795698924 452.5537634408602 L 423.1182795698924 488.8440860215054 Z M 423.1182795698924 147.44623655913978 L 455.37634408602145 147.44623655913978 L 455.37634408602145 111.15591397849462 L 423.1182795698924 111.15591397849462 L 423.1182795698924 147.44623655913978 Z" fill="rgb(77, 127, 196)" fill-rule="evenodd" fill-opacity="0.5" data-type="pcb_copper_pour" data-pcb-layer="bottom"/><path class="pcb-silkscreen pcb-silkscreen-bottom" d="M 439.24731182795693 494.2204301075269 L 378.763440860215 494.2204301075269 L 378.763440860215 447.1774193548387 L 439.24731182795693 447.1774193548387" fill="none" stroke="#5da9e9" stroke-width="2.688172043010753" stroke-linecap="round" stroke-linejoin="round" data-pcb-component-id="pcb_component_2" data-pcb-silkscreen-path-id="pcb_silkscreen_path_8" data-type="pcb_silkscreen_path" data-pcb-layer="bottom"/><text x="0" y="0" dx="0" dy="0" fill="#5da9e9" font-family="Arial, sans-serif" font-size="10.752688172043012" text-anchor="middle" dominant-baseline="central" transform="matrix(-1,0,0,1,417.0698924731182,507.6612903225806)" class="pcb-silkscreen-text pcb-silkscreen-bottom" data-pcb-silkscreen-text-id="pcb_component_2" stroke="none" data-type="pcb_silkscreen_text" data-pcb-layer="bottom">R1</text><path class="pcb-silkscreen pcb-silkscreen-bottom" d="M 439.24731182795693 152.82258064516128 L 378.763440860215 152.82258064516128 L 378.763440860215 105.77956989247312 L 439.24731182795693 105.77956989247312" fill="none" stroke="#5da9e9" stroke-width="2.688172043010753" stroke-linecap="round" stroke-linejoin="round" data-pcb-component-id="pcb_component_3" data-pcb-silkscreen-path-id="pcb_silkscreen_path_9" data-type="pcb_silkscreen_path" data-pcb-layer="bottom"/><text x="0" y="0" dx="0" dy="0" fill="#5da9e9" font-family="Arial, sans-serif" font-size="10.752688172043012" text-anchor="middle" dominant-baseline="central" transform="matrix(-1,0,0,1,417.0698924731182,166.26344086021507)" class="pcb-silkscreen-text pcb-silkscreen-bottom" data-pcb-silkscreen-text-id="pcb_component_3" stroke="none" data-type="pcb_silkscreen_text" data-pcb-layer="bottom">R2</text><path class="pcb-silkscreen pcb-silkscreen-bottom" d="M 368.0645161290322 27.419354838709637 L 431.50537634408596 27.419354838709637 L 431.50537634408596 94.62365591397847 L 368.0645161290322 94.62365591397847 L 368.0645161290322 27.419354838709637 Z" fill="none" stroke="#5da9e9" stroke-width="4.032258064516129" stroke-linecap="round" stroke-linejoin="round" data-pcb-component-id="pcb_component_4" data-pcb-silkscreen-path-id="pcb_silkscreen_path_10" data-type="pcb_silkscreen_path" data-pcb-layer="bottom"/><text x="0" y="0" dx="0" dy="0" fill="#5da9e9" font-family="Arial, sans-serif" font-size="16.12903225806452" text-anchor="middle" dominant-baseline="central" transform="matrix(-1,0,0,1,399.7849462365591,110.75268817204298)" class="pcb-silkscreen-text pcb-silkscreen-bottom" data-pcb-silkscreen-text-id="pcb_component_4" stroke="none" data-type="pcb_silkscreen_text" data-pcb-layer="bottom">JP1</text><path class="pcb-copper-pour pcb-copper-pour-brep" d="M 531.1827956989247 515.0793456526401 L 531.1827956989247 567.741935483871 L 234.67741935483866 567.741935483871 L 234.67741935483866 32.258064516129025 L 531.1827956989247 32.258064516129025 L 531.1827956989247 84.92065434736 L 530.7317921253458 83.43389481461818 L 527.8998752157231 78.13575092359284 L 524.0887561976522 73.49188896363805 L 519.4448942376974 69.68076994556716 L 514.146750346672 66.84885303594444 L 508.3979292230748 65.10496721344941 L 502.41935483870964 64.51612903225805 L 496.4407804543444 65.10496721344941 L 490.6919593307472 66.84885303594444 L 485.39381543972183 69.68076994556716 L 480.74995347976704 73.49188896363805 L 476.93883446169616 78.13575092359284 L 474.1069175520734 83.43389481461818 L 472.3630317295783 89.18271593821538 L 471.7741935483871 95.16129032258064 L 472.3630317295783 101.13986470694584 L 474.1069175520734 106.88868583054307 L 476.9388344616961 112.18682972156842 L 480.749953479767 116.8306916815232 L 485.39381543972183 120.64181069959412 L 490.6919593307472 123.47372760921681 L 496.44078045434435 125.2176134317119 L 502.41935483870964 125.8064516129032 L 508.3979292230748 125.2176134317119 L 514.146750346672 123.47372760921681 L 519.4448942376974 120.64181069959412 L 524.0887561976522 116.83069168152323 L 527.8998752157231 112.18682972156844 L 530.7317921253458 106.8886858305431 L 531.1827956989247 105.40192629780111 L 531.1827956989247 153.2002242398331 L 530.7317921253459 151.71346470709133 L 527.8998752157231 146.41532081606593 L 524.0887561976522 141.7714588561112 L 519.4448942376974 137.96033983804026 L 514.1467503466721 135.12842292841754 L 508.39792922307487 133.3845371059225 L 502.41935483870964 132.79569892473117 L 496.4407804543444 133.3845371059225 L 490.6919593307472 135.12842292841754 L 485.39381543972183 137.96033983804026 L 480.74995347976704 141.77145885611117 L 476.93883446169616 146.41532081606593 L 474.1069175520734 151.71346470709133 L 472.3630317295784 157.46228583068853 L 471.7741935483871 163.44086021505376 L 472.3630317295784 169.41943459941896 L 474.1069175520734 175.1682557230162 L 476.93883446169616 180.46639961404156 L 480.74995347976704 185.11026157399633 L 485.39381543972183 188.92138059206724 L 490.6919593307472 191.75329750168999 L 496.4407804543444 193.49718332418502 L 502.41935483870964 194.08602150537632 L 508.39792922307487 193.49718332418502 L 514.1467503466721 191.75329750168999 L 519.4448942376974 188.92138059206724 L 524.0887561976522 185.11026157399635 L 527.8998752157231 180.46639961404156 L 530.7317921253459 175.16825572301622 L 531.1827956989247 173.68149619027446 L 531.1827956989247 221.47979413230618 L 530.7317921253459 219.99303459956445 L 527.8998752157231 214.69489070853908 L 524.0887561976522 210.05102874858432 L 519.4448942376974 206.23990973051338 L 514.1467503466721 203.40799282089068 L 508.39792922307487 201.66410699839562 L 502.41935483870964 201.0752688172043 L 496.4407804543444 201.66410699839562 L 490.6919593307472 203.40799282089068 L 485.39381543972183 206.23990973051338 L 480.74995347976704 210.05102874858432 L 476.93883446169616 214.69489070853908 L 474.1069175520734 219.99303459956445 L 472.3630317295784 225.74185572316165 L 471.7741935483871 231.72043010752688 L 472.3630317295784 237.6990044918921 L 474.1069175520734 243.4478256154893 L 476.93883446169616 248.74596950651468 L 480.74995347976704 253.38983146646945 L 485.39381543972183 257.2009504845404 L 490.6919593307472 260.0328673941631 L 496.4407804543444 261.7767532166581 L 502.41935483870964 262.36559139784947 L 508.39792922307487 261.7767532166581 L 514.1467503466721 260.0328673941631 L 519.4448942376974 257.2009504845404 L 524.0887561976522 253.38983146646947 L 527.8998752157231 248.74596950651468 L 530.7317921253459 243.44782561548934 L 531.1827956989247 241.96106608274755 L 531.1827956989247 289.7593640247795 L 530.7317921253459 288.27260449203754 L 527.8998752157231 282.9744606010122 L 524.0887561976522 278.3305986410574 L 519.4448942376974 274.5194796229865 L 514.1467503466721 271.6875627133638 L 508.39792922307487 269.94367689086874 L 502.41935483870964 269.35483870967744 L 496.4407804543444 269.94367689086874 L 490.6919593307472 271.6875627133638 L 485.39381543972183 274.5194796229865 L 480.74995347976704 278.3305986410574 L 476.93883446169616 282.9744606010122 L 474.1069175520734 288.27260449203754 L 472.3630317295784 294.02142561563477 L 471.7741935483871 300 L 472.3630317295784 305.97857438436523 L 474.1069175520734 311.7273955079624 L 476.93883446169616 317.0255393989878 L 480.74995347976704 321.6694013589426 L 485.39381543972183 325.4805203770135 L 490.6919593307472 328.3124372866362 L 496.4407804543444 330.05632310913126 L 502.41935483870964 330.64516129032256 L 508.39792922307487 330.05632310913126 L 514.1467503466721 328.3124372866362 L 519.4448942376974 325.4805203770135 L 524.0887561976522 321.6694013589426 L 527.8998752157231 317.0255393989878 L 530.7317921253459 311.72739550796246 L 531.1827956989247 310.24063597522064 L 531.1827956989247 358.03893391725245 L 530.7317921253459 356.5521743845107 L 527.8998752157231 351.2540304934853 L 524.0887561976522 346.61016853353055 L 519.4448942376974 342.7990495154596 L 514.1467503466721 339.9671326058369 L 508.39792922307487 338.2232467833419 L 502.41935483870964 337.63440860215053 L 496.4407804543444 338.2232467833419 L 490.6919593307472 339.9671326058369 L 485.39381543972183 342.7990495154596 L 480.74995347976704 346.61016853353055 L 476.93883446169616 351.2540304934853 L 474.1069175520734 356.5521743845107 L 472.3630317295784 362.3009955081079 L 471.7741935483871 368.2795698924731 L 472.3630317295784 374.2581442768384 L 474.1069175520734 380.00696540043555 L 476.93883446169616 385.3051092914609 L 480.74995347976704 389.9489712514157 L 485.39381543972183 393.7600902694866 L 490.6919593307472 396.5920071791093 L 496.4407804543444 398.3358930016044 L 502.41935483870964 398.9247311827957 L 508.39792922307487 398.3358930016044 L 514.1467503466721 396.5920071791093 L 519.4448942376974 393.7600902694866 L 524.0887561976522 389.94897125141574 L 527.8998752157231 385.3051092914609 L 530.7317921253459 380.00696540043555 L 531.1827956989247 378.5202058676938 L 531.1827956989247 426.31850380972554 L 530.7317921253459 424.8317442769838 L 527.8998752157231 419.5336003859584 L 524.0887561976522 414.88973842600365 L 519.4448942376974 411.07861940793276 L 514.1467503466721 408.24670249831 L 508.39792922307487 406.502816675815 L 502.41935483870964 405.9139784946236 L 496.4407804543444 406.502816675815 L 490.6919593307472 408.24670249831 L 485.39381543972183 411.0786194079327 L 480.74995347976704 414.88973842600365 L 476.93883446169616 419.5336003859584 L 474.1069175520734 424.8317442769838 L 472.3630317295784 430.580565400581 L 471.7741935483871 436.5591397849462 L 472.3630317295784 442.53771416931147 L 474.1069175520734 448.28653529290864 L 476.93883446169616 453.584679183934 L 480.74995347976704 458.22854114388883 L 485.39381543972183 462.03966016195966 L 490.6919593307472 464.8715770715824 L 496.4407804543444 466.6154628940775 L 502.41935483870964 467.2043010752688 L 508.39792922307487 466.6154628940775 L 514.1467503466721 464.8715770715824 L 519.4448942376974 462.0396601619597 L 524.0887561976522 458.22854114388883 L 527.8998752157231 453.58467918393404 L 530.7317921253459 448.28653529290864 L 531.1827956989247 446.7997757601669 L 531.1827956989247 494.5980737021986 L 530.7317921253459 493.11131416945693 L 527.8998752157231 487.8131702784316 L 524.0887561976523 483.1693083184768 L 519.4448942376974 479.3581893004059 L 514.1467503466721 476.52627239078316 L 508.39792922307487 474.7823865682881 L 502.41935483870964 474.1935483870968 L 496.44078045434446 474.7823865682881 L 490.69195933074724 476.52627239078316 L 485.39381543972183 479.3581893004059 L 480.7499534797671 483.16930831847674 L 476.93883446169616 487.8131702784316 L 474.10691755207347 493.11131416945693 L 472.36303172957844 498.8601352930541 L 471.7741935483871 504.8387096774194 L 472.36303172957844 510.81728406178456 L 474.10691755207347 516.5661051853817 L 476.93883446169616 521.8642490764072 L 480.7499534797671 526.5081110363619 L 485.39381543972183 530.3192300544329 L 490.6919593307472 533.1511469640556 L 496.4407804543444 534.8950327865506 L 502.41935483870964 535.483870967742 L 508.39792922307487 534.8950327865506 L 514.1467503466721 533.1511469640556 L 519.4448942376974 530.3192300544329 L 524.0887561976522 526.5081110363619 L 527.8998752157231 521.8642490764072 L 530.7317921253459 516.5661051853818 L 531.1827956989247 515.0793456526401 Z M 347.58064516129025 504.8387096774194 L 346.6199091814518 495.08419357661296 L 343.7746217868546 485.70453805916486 L 339.1541257764175 477.06019802643925 L 332.9359842206176 469.48337061809195 L 325.3591568122704 463.2652290622921 L 316.7148167795448 458.64473305185504 L 307.3351612620967 455.7994456572578 L 297.58064516129025 454.8387096774194 L 287.8261290604839 455.7994456572578 L 278.4464735430358 458.64473305185504 L 269.80213351031017 463.26522906229206 L 262.22530610196293 469.48337061809195 L 256.007164546163 477.06019802643925 L 251.38666853572596 485.70453805916486 L 248.54138114112874 495.08419357661296 L 247.58064516129028 504.8387096774194 L 248.54138114112874 514.5932257782258 L 251.38666853572593 523.9728812956739 L 256.007164546163 532.6172213283994 L 262.22530610196293 540.1940487367467 L 269.80213351031017 546.4121902925466 L 278.4464735430358 551.0326863029836 L 287.8261290604838 553.8779736975808 L 297.58064516129025 554.8387096774194 L 307.3351612620967 553.8779736975808 L 316.7148167795448 551.0326863029837 L 325.3591568122704 546.4121902925466 L 332.9359842206176 540.1940487367467 L 339.1541257764175 532.6172213283994 L 343.7746217868546 523.9728812956739 L 346.6199091814518 514.5932257782258 L 347.58064516129025 504.8387096774194 Z M 347.58064516129025 95.16129032258064 L 346.6199091814518 85.40677422177421 L 343.7746217868546 76.02711870432614 L 339.1541257764175 67.38277867160053 L 332.9359842206176 59.80595126325329 L 325.3591568122704 53.587809707453374 L 316.7148167795448 48.967313697016294 L 307.3351612620967 46.12202630241913 L 297.58064516129025 45.16129032258061 L 287.8261290604839 46.12202630241913 L 278.4464735430358 48.967313697016294 L 269.80213351031017 53.587809707453374 L 262.22530610196293 59.80595126325329 L 256.007164546163 67.38277867160053 L 251.38666853572596 76.02711870432614 L 248.54138114112874 85.40677422177421 L 247.58064516129028 95.16129032258064 L 248.54138114112874 104.91580642338707 L 251.38666853572593 114.29546194083511 L 256.007164546163 122.93980197356075 L 262.22530610196293 130.51662938190802 L 269.80213351031017 136.73477093770788 L 278.4464735430358 141.35526694814496 L 287.8261290604838 144.20055434274215 L 297.58064516129025 145.16129032258064 L 307.3351612620967 144.20055434274215 L 316.7148167795448 141.35526694814496 L 325.3591568122704 136.7347709377079 L 332.9359842206176 130.51662938190802 L 339.1541257764175 122.93980197356075 L 343.7746217868546 114.29546194083517 L 346.6199091814518 104.91580642338707 L 347.58064516129025 95.16129032258064 Z M 340.7936747390179 225.40115591397975 L 341.68245266832264 224.9260942133791 L 343.9229095343505 223.08739878166358 L 345.761604966066 220.84694191563568 L 347.1278789291806 218.29082311619428 L 347.9692262815071 215.51727259531384 L 348.25331451612857 212.6328763440868 L 347.9692262815071 209.74848009285984 L 347.1278789291806 206.97492957197937 L 345.761604966066 204.41881077253797 L 343.9229095343505 202.1783539065101 L 341.68245266832264 200.3396584747946 L 339.12633386888115 198.97338451167997 L 336.35278334800074 198.13203715935347 L 333.46838709677377 197.847948924732 L 330.58399084554674 198.13203715935347 L 327.8104403246663 198.97338451167997 L 325.2543215252249 200.3396584747946 L 323.013864659197 202.1783539065101 L 321.1751692274815 204.41881077253797 L 319.80889526436687 206.97492957197937 L 318.9675479120404 209.7484800928598 L 318.6834596774189 212.6328763440868 L 318.9675479120404 215.51727259531384 L 319.80889526436687 218.29082311619428 L 321.1751692274815 220.84694191563568 L 323.013864659197 223.08739878166358 L 325.2543215252249 224.9260942133791 L 326.14309945452965 225.40115591397975 L 325.2543215252249 225.8762176145804 L 323.013864659197 227.71491304629592 L 321.1751692274815 229.9553699123238 L 319.80889526436687 232.51148871176522 L 318.9675479120404 235.28503923264563 L 318.6834596774189 238.16943548387266 L 318.9675479120404 241.0538317350997 L 319.80889526436687 243.8273822559801 L 321.1751692274815 246.38350105542153 L 323.013864659197 248.6239579214494 L 325.2543215252249 250.4626533531649 L 326.14309945452675 250.93771505376407 L 325.2543215252249 251.4127767543632 L 323.013864659197 253.2514721860787 L 321.1751692274815 255.49192905210657 L 319.80889526436687 258.048047851548 L 318.9675479120404 260.8215983724284 L 318.6834596774189 263.70599462365544 L 318.9675479120404 266.5903908748825 L 319.80889526436687 269.3639413957629 L 321.1751692274815 271.9200601952043 L 323.013864659197 274.16051706123216 L 325.01783669520967 275.8051344086015 L 323.013864659197 277.44975175597085 L 321.1751692274815 279.6902086219987 L 319.80889526436687 282.2463274214401 L 318.9675479120404 285.01987794232053 L 318.6834596774189 287.90427419354756 L 318.9675479120404 290.7886704447746 L 319.80889526436687 293.562220965655 L 321.1751692274815 296.11833976509644 L 323.013864659197 298.3587966311243 L 325.0136767503789 300 L 323.013864659197 301.6412033688757 L 321.1751692274815 303.88166023490356 L 319.80889526436687 306.437779034345 L 318.9675479120404 309.2113295552254 L 318.6834596774189 312.09572580645244 L 318.9675479120404 314.98012205767947 L 319.80889526436687 317.7536725785599 L 321.1751692274815 320.3097913780013 L 323.013864659197 322.55024824402915 L 325.2543215252249 324.38894367574466 L 327.8104403246663 325.7552176388593 L 330.58399084554674 326.5965649911858 L 333.4683870967737 326.8806532258073 L 336.35278334800074 326.5965649911858 L 339.12633386888115 325.7552176388593 L 341.6824526683226 324.38894367574466 L 343.9229095343505 322.55024824402915 L 345.761604966066 320.3097913780013 L 347.1278789291806 317.7536725785599 L 347.9692262815071 314.98012205767947 L 348.25331451612857 312.09572580645244 L 347.9692262815071 309.2113295552254 L 347.1278789291806 306.437779034345 L 345.761604966066 303.88166023490356 L 343.9229095343505 301.6412033688757 L 341.92309744316856 300 L 343.9229095343505 298.35879663112433 L 345.761604966066 296.11833976509644 L 347.1278789291806 293.562220965655 L 347.9692262815071 290.7886704447746 L 348.25331451612857 287.90427419354756 L 347.9692262815071 285.01987794232053 L 347.1278789291806 282.2463274214401 L 345.761604966066 279.6902086219987 L 343.9229095343505 277.44975175597085 L 341.91893749833775 275.8051344086015 L 343.9229095343505 274.16051706123216 L 345.761604966066 271.9200601952043 L 347.1278789291806 269.3639413957629 L 347.9692262815071 266.5903908748825 L 348.25331451612857 263.70599462365544 L 347.9692262815071 260.8215983724284 L 347.1278789291806 258.048047851548 L 345.761604966066 255.49192905210657 L 343.9229095343505 253.2514721860787 L 341.68245266832264 251.4127767543632 L 340.79367473902073 250.93771505376404 L 341.6824526683226 250.4626533531649 L 343.9229095343505 248.6239579214494 L 345.761604966066 246.38350105542153 L 347.1278789291806 243.82738225598013 L 347.9692262815071 241.0538317350997 L 348.25331451612857 238.16943548387266 L 347.9692262815071 235.28503923264566 L 347.1278789291806 232.51148871176522 L 345.761604966066 229.9553699123238 L 343.9229095343505 227.71491304629592 L 341.68245266832264 225.8762176145804 L 340.7936747390179 225.40115591397975 Z M 287.3779778256516 300 L 285.3781657344697 301.6412033688757 L 283.5394703027542 303.88166023490356 L 282.17319633963956 306.437779034345 L 281.33184898731304 309.2113295552254 L 281.0477607526916 312.09572580645244 L 281.33184898731304 314.98012205767947 L 282.17319633963956 317.7536725785599 L 283.5394703027542 320.3097913780013 L 285.3781657344697 322.55024824402915 L 287.37797782564974 324.19145161290334 L 285.3781657344697 325.83265498177747 L 283.5394703027542 328.07311184780536 L 282.17319633963956 330.6292306472468 L 281.33184898731304 333.4027811681272 L 281.0477607526916 336.28717741935424 L 281.33184898731304 339.17157367058127 L 282.17319633963956 341.9451241914617 L 283.5394703027542 344.5012429909031 L 285.3781657344697 346.74169985693095 L 287.61862260049753 348.58039528864646 L 288.51378763432456 349.0588709677408 L 287.61862260049753 349.5373466468351 L 285.3781657344697 351.3760420785506 L 283.5394703027542 353.61649894457844 L 282.17319633963956 356.17261774401993 L 281.33184898731304 358.94616826490034 L 281.0477607526916 361.8305645161273 L 281.33184898731304 364.71496076735434 L 282.17319633963956 367.4885112882348 L 283.5394703027542 370.0446300876762 L 285.3781657344697 372.2850869537041 L 287.61862260049753 374.1237823854196 L 288.5074005298023 374.5988440860202 L 287.61862260049753 375.0739057866209 L 285.3781657344697 376.9126012183364 L 283.5394703027542 379.1530580843643 L 282.17319633963956 381.70917688380575 L 281.33184898731304 384.48272740468616 L 281.0477607526916 387.3671236559132 L 281.33184898731304 390.25151990714016 L 282.17319633963956 393.0250704280206 L 283.5394703027542 395.581189227462 L 285.3781657344697 397.8216460934899 L 287.61862260049753 399.6603415252054 L 290.17474139993897 401.02661548832003 L 292.9482919208194 401.8679628406465 L 295.8326881720464 402.152051075268 L 298.71708442327343 401.86796284064656 L 301.49063494415384 401.02661548832003 L 304.0467537435953 399.6603415252054 L 306.2872106096231 397.8216460934899 L 308.1259060413387 395.581189227462 L 309.4921800044533 393.0250704280206 L 310.33352735677977 390.25151990714016 L 310.61761559140126 387.3671236559132 L 310.33352735677977 384.48272740468616 L 309.4921800044533 381.70917688380575 L 308.1259060413387 379.1530580843643 L 306.2872106096231 376.9126012183364 L 304.04675374359533 375.0739057866209 L 303.1579758142906 374.5988440860202 L 304.0467537435953 374.1237823854196 L 306.2872106096231 372.2850869537041 L 308.1259060413387 370.0446300876762 L 309.4921800044533 367.4885112882348 L 310.33352735677977 364.71496076735434 L 310.61761559140126 361.8305645161273 L 310.33352735677977 358.94616826490034 L 309.4921800044533 356.17261774401993 L 308.1259060413387 353.61649894457844 L 306.2872106096231 351.3760420785506 L 304.04675374359533 349.5373466468351 L 303.15158870976825 349.0588709677408 L 304.0467537435953 348.58039528864646 L 306.2872106096231 346.74169985693095 L 308.1259060413387 344.5012429909031 L 309.4921800044533 341.9451241914617 L 310.33352735677977 339.17157367058127 L 310.61761559140126 336.28717741935424 L 310.33352735677977 333.4027811681272 L 309.4921800044533 330.6292306472468 L 308.1259060413387 328.07311184780536 L 306.2872106096231 325.8326549817775 L 304.2873985184431 324.19145161290334 L 306.2872106096231 322.55024824402915 L 308.1259060413387 320.3097913780013 L 309.4921800044533 317.7536725785599 L 310.33352735677977 314.98012205767947 L 310.61761559140126 312.09572580645244 L 310.33352735677977 309.2113295552254 L 309.4921800044533 306.437779034345 L 308.1259060413387 303.88166023490356 L 306.2872106096231 301.6412033688757 L 304.28739851844125 300 L 306.2872106096231 298.3587966311243 L 308.1259060413387 296.11833976509644 L 309.4921800044533 293.562220965655 L 310.33352735677977 290.7886704447746 L 310.61761559140126 287.90427419354756 L 310.33352735677977 285.01987794232053 L 309.4921800044533 282.2463274214401 L 308.1259060413387 279.6902086219987 L 306.2872106096231 277.44975175597085 L 304.04675374359533 275.61105632425534 L 301.49063494415384 274.2447823611407 L 298.71708442327343 273.4034350088142 L 295.8326881720464 273.1193467741927 L 292.94829192081943 273.4034350088142 L 290.17474139993897 274.2447823611407 L 287.61862260049753 275.61105632425534 L 285.3781657344697 277.44975175597085 L 283.5394703027542 279.6902086219987 L 282.17319633963956 282.2463274214401 L 281.33184898731304 285.01987794232053 L 281.0477607526916 287.90427419354756 L 281.33184898731304 290.7886704447746 L 282.17319633963956 293.562220965655 L 283.5394703027542 296.11833976509644 L 285.3781657344697 298.3587966311243 L 287.3779778256516 300 Z M 288.5074005298023 225.40115591397975 L 287.61862260049753 225.8762176145804 L 285.3781657344697 227.71491304629592 L 283.5394703027542 229.9553699123238 L 282.17319633963956 232.51148871176522 L 281.33184898731304 235.28503923264563 L 281.0477607526916 238.16943548387266 L 281.33184898731304 241.0538317350997 L 282.17319633963956 243.8273822559801 L 283.5394703027542 246.38350105542153 L 285.3781657344697 248.6239579214494 L 287.61862260049753 250.4626533531649 L 290.17474139993897 251.82892731627953 L 292.9482919208194 252.670274668606 L 295.8326881720464 252.9543629032275 L 298.71708442327343 252.670274668606 L 301.49063494415384 251.82892731627953 L 304.0467537435953 250.4626533531649 L 306.2872106096231 248.6239579214494 L 308.1259060413387 246.38350105542153 L 309.4921800044533 243.82738225598013 L 310.33352735677977 241.0538317350997 L 310.61761559140126 238.16943548387266 L 310.33352735677977 235.28503923264566 L 309.4921800044533 232.51148871176522 L 308.1259060413387 229.9553699123238 L 306.2872106096231 227.71491304629592 L 304.04675374359533 225.8762176145804 L 303.1579758142906 225.40115591397975 L 304.0467537435953 224.9260942133791 L 306.2872106096231 223.08739878166358 L 308.1259060413387 220.84694191563568 L 309.4921800044533 218.29082311619428 L 310.33352735677977 215.51727259531384 L 310.61761559140126 212.6328763440868 L 310.33352735677977 209.74848009285984 L 309.4921800044533 206.97492957197937 L 308.1259060413387 204.41881077253797 L 306.2872106096231 202.1783539065101 L 304.04675374359533 200.3396584747946 L 301.49063494415384 198.97338451167997 L 298.71708442327343 198.13203715935347 L 295.8326881720464 197.847948924732 L 292.94829192081943 198.13203715935347 L 290.17474139993897 198.97338451167997 L 287.61862260049753 200.3396584747946 L 285.3781657344697 202.1783539065101 L 283.5394703027542 204.41881077253797 L 282.17319633963956 206.97492957197937 L 281.33184898731304 209.7484800928598 L 281.0477607526916 212.6328763440868 L 281.33184898731304 215.51727259531384 L 282.17319633963956 218.29082311619428 L 283.5394703027542 220.84694191563568 L 285.3781657344697 223.08739878166358 L 287.61862260049753 224.9260942133791 L 288.5074005298023 225.40115591397975 Z M 340.7936747390179 374.5988440860203 L 341.6824526683226 374.1237823854196 L 343.9229095343505 372.2850869537041 L 345.761604966066 370.0446300876762 L 347.1278789291806 367.4885112882348 L 347.9692262815071 364.71496076735434 L 348.25331451612857 361.8305645161273 L 347.9692262815071 358.94616826490034 L 347.1278789291806 356.17261774401993 L 345.761604966066 353.61649894457844 L 343.9229095343505 351.3760420785506 L 341.68245266832264 349.5373466468351 L 339.12633386888115 348.17107268372047 L 336.35278334800074 347.329725331394 L 333.4683870967737 347.0456370967725 L 330.58399084554674 347.329725331394 L 327.8104403246663 348.17107268372047 L 325.2543215252249 349.5373466468351 L 323.013864659197 351.3760420785506 L 321.1751692274815 353.61649894457844 L 319.80889526436687 356.17261774401993 L 318.9675479120404 358.94616826490034 L 318.6834596774189 361.8305645161273 L 318.9675479120404 364.71496076735434 L 319.80889526436687 367.4885112882348 L 321.1751692274815 370.0446300876762 L 323.013864659197 372.2850869537041 L 325.2543215252249 374.1237823854196 L 326.1430994545296 374.5988440860202 L 325.25432152522484 375.0739057866209 L 323.013864659197 376.9126012183364 L 321.1751692274815 379.1530580843643 L 319.80889526436687 381.70917688380575 L 318.9675479120404 384.48272740468616 L 318.6834596774189 387.3671236559132 L 318.9675479120404 390.25151990714016 L 319.80889526436687 393.0250704280206 L 321.1751692274815 395.581189227462 L 323.013864659197 397.8216460934899 L 325.25432152522484 399.6603415252054 L 327.8104403246663 401.02661548832003 L 330.5839908455467 401.8679628406465 L 333.4683870967737 402.152051075268 L 336.35278334800074 401.86796284064656 L 339.12633386888115 401.02661548832003 L 341.6824526683226 399.6603415252054 L 343.9229095343505 397.8216460934899 L 345.761604966066 395.581189227462 L 347.12787892918055 393.0250704280206 L 347.9692262815071 390.25151990714016 L 348.25331451612857 387.3671236559132 L 347.9692262815071 384.48272740468616 L 347.1278789291806 381.70917688380575 L 345.761604966066 379.1530580843643 L 343.9229095343505 376.9126012183364 L 341.6824526683226 375.0739057866209 L 340.7936747390179 374.5988440860203 Z" fill="rgb(200, 52, 52)" fill-rule="evenodd" fill-opacity="0.5" data-type="pcb_copper_pour" data-pcb-layer="top"/><path class="pcb-silkscreen pcb-silkscreen-top" d="M 263.57537096774104 172.31242473117945 L 365.7257043010761 172.31242473117945" fill="none" stroke="#f2eda1" stroke-width="2.688172043010753" stroke-linecap="round" stroke-linejoin="round" data-pcb-component-id="pcb_component_0" data-pcb-silkscreen-path-id="pcb_silkscreen_path_0" data-type="pcb_silkscreen_path" data-pcb-layer="top"/><path class="pcb-silkscreen pcb-silkscreen-top" d="M 365.7099999999995 213.16204301074993 L 365.7099999999995 172.31242473117945" fill="none" stroke="#f2eda1" stroke-width="2.688172043010753" stroke-linecap="round" stroke-linejoin="round" data-pcb-component-id="pcb_component_0" data-pcb-silkscreen-path-id="pcb_silkscreen_path_1" data-type="pcb_silkscreen_path" data-pcb-layer="top"/><path class="pcb-silkscreen pcb-silkscreen-top" d="M 365.7099999999995 320.68870967741714 L 365.7099999999995 279.3181182795701" fill="none" stroke="#f2eda1" stroke-width="2.688172043010753" stroke-linecap="round" stroke-linejoin="round" data-pcb-component-id="pcb_component_0" data-pcb-silkscreen-path-id="pcb_silkscreen_path_2" data-type="pcb_silkscreen_path" data-pcb-layer="top"/><path class="pcb-silkscreen pcb-silkscreen-top" d="M 365.7099999999995 427.7135215053735 L 365.7099999999995 386.8447849462343" fill="none" stroke="#f2eda1" stroke-width="2.688172043010753" stroke-linecap="round" stroke-linejoin="round" data-pcb-component-id="pcb_component_0" data-pcb-silkscreen-path-id="pcb_silkscreen_path_3" data-type="pcb_silkscreen_path" data-pcb-layer="top"/><path class="pcb-silkscreen pcb-silkscreen-top" d="M 263.5637634408623 213.16067741935063 L 263.5637634408623 172.31242473117945" fill="none" stroke="#f2eda1" stroke-width="2.688172043010753" stroke-linecap="round" stroke-linejoin="round" data-pcb-component-id="pcb_component_0" data-pcb-silkscreen-path-id="pcb_silkscreen_path_4" data-type="pcb_silkscreen_path" data-pcb-layer="top"/><path class="pcb-silkscreen pcb-silkscreen-top" d="M 263.5637634408623 320.6873440860209 L 263.5637634408623 279.3194838709664" fill="none" stroke="#f2eda1" stroke-width="2.688172043010753" stroke-linecap="round" stroke-linejoin="round" data-pcb-component-id="pcb_component_0" data-pcb-silkscreen-path-id="pcb_silkscreen_path_5" data-type="pcb_silkscreen_path" data-pcb-layer="top"/><path class="pcb-silkscreen pcb-silkscreen-top" d="M 263.5637634408623 427.7135215053735 L 263.5637634408623 386.8461505376366" fill="none" stroke="#f2eda1" stroke-width="2.688172043010753" stroke-linecap="round" stroke-linejoin="round" data-pcb-component-id="pcb_component_0" data-pcb-silkscreen-path-id="pcb_silkscreen_path_6" data-type="pcb_silkscreen_path" data-pcb-layer="top"/><path class="pcb-silkscreen pcb-silkscreen-top" d="M 365.7099999999995 427.7135215053735 L 263.5637634408623 427.7135215053735" fill="none" stroke="#f2eda1" stroke-width="2.688172043010753" stroke-linecap="round" stroke-linejoin="round" data-pcb-component-id="pcb_component_0" data-pcb-silkscreen-path-id="pcb_silkscreen_path_7" data-type="pcb_silkscreen_path" data-pcb-layer="top"/><text x="0" y="0" dx="0" dy="0" fill="#f2eda1" font-family="Arial, sans-serif" font-size="15.483870967741938" text-anchor="end" dominant-baseline="central" transform="matrix(6.123233995736766e-17,1,-1,6.123233995736766e-17,464.51612903225805,95.16129032258064)" class="pcb-silkscreen-text pcb-silkscreen-top" data-pcb-silkscreen-text-id="pcb_component_1" stroke="none" data-type="pcb_silkscreen_text" data-pcb-layer="top">pin1</text><text x="0" y="0" dx="0" dy="0" fill="#f2eda1" font-family="Arial, sans-serif" font-size="15.483870967741938" text-anchor="end" dominant-baseline="central" transform="matrix(6.123233995736766e-17,1,-1,6.123233995736766e-17,464.51612903225805,163.44086021505376)" class="pcb-silkscreen-text pcb-silkscreen-top" data-pcb-silkscreen-text-id="pcb_component_1" stroke="none" data-type="pcb_silkscreen_text" data-pcb-layer="top">pin2</text><text x="0" y="0" dx="0" dy="0" fill="#f2eda1" font-family="Arial, sans-serif" font-size="15.483870967741938" text-anchor="end" dominant-baseline="central" transform="matrix(6.123233995736766e-17,1,-1,6.123233995736766e-17,464.51612903225805,231.72043010752688)" class="pcb-silkscreen-text pcb-silkscreen-top" data-pcb-silkscreen-text-id="pcb_component_1" stroke="none" data-type="pcb_silkscreen_text" data-pcb-layer="top">pin3</text><text x="0" y="0" dx="0" dy="0" fill="#f2eda1" font-family="Arial, sans-serif" font-size="15.483870967741938" text-anchor="end" dominant-baseline="central" transform="matrix(6.123233995736766e-17,1,-1,6.123233995736766e-17,464.51612903225805,300)" class="pcb-silkscreen-text pcb-silkscreen-top" data-pcb-silkscreen-text-id="pcb_component_1" stroke="none" data-type="pcb_silkscreen_text" data-pcb-layer="top">pin4</text><text x="0" y="0" dx="0" dy="0" fill="#f2eda1" font-family="Arial, sans-serif" font-size="15.483870967741938" text-anchor="end" dominant-baseline="central" transform="matrix(6.123233995736766e-17,1,-1,6.123233995736766e-17,464.51612903225805,368.2795698924731)" class="pcb-silkscreen-text pcb-silkscreen-top" data-pcb-silkscreen-text-id="pcb_component_1" stroke="none" data-type="pcb_silkscreen_text" data-pcb-layer="top">pin5</text><text x="0" y="0" dx="0" dy="0" fill="#f2eda1" font-family="Arial, sans-serif" font-size="15.483870967741938" text-anchor="end" dominant-baseline="central" transform="matrix(6.123233995736766e-17,1,-1,6.123233995736766e-17,464.51612903225805,436.5591397849462)" class="pcb-silkscreen-text pcb-silkscreen-top" data-pcb-silkscreen-text-id="pcb_component_1" stroke="none" data-type="pcb_silkscreen_text" data-pcb-layer="top">pin6</text><text x="0" y="0" dx="0" dy="0" fill="#f2eda1" font-family="Arial, sans-serif" font-size="15.483870967741938" text-anchor="end" dominant-baseline="central" transform="matrix(6.123233995736766e-17,1,-1,6.123233995736766e-17,464.51612903225805,504.8387096774194)" class="pcb-silkscreen-text pcb-silkscreen-top" data-pcb-silkscreen-text-id="pcb_component_1" stroke="none" data-type="pcb_silkscreen_text" data-pcb-layer="top">pin7</text><text x="0" y="0" dx="0" dy="0" fill="#f2eda1" font-family="Arial, sans-serif" font-size="18.817204301075268" text-anchor="middle" dominant-baseline="central" transform="matrix(-1.8369701987210297e-16,1,-1,-1.8369701987210297e-16,570.6989247311827,300)" class="pcb-silkscreen-text pcb-silkscreen-top" data-pcb-silkscreen-text-id="pcb_component_1" stroke="none" data-type="pcb_silkscreen_text" data-pcb-layer="top">J1</text><g data-type="pcb_plated_hole" data-pcb-layer="through"><path class="pcb-hole-outer" fill="rgb(200, 52, 52)" d="M13.440833333333334,-13.440833333333334 v26.881666666666668 a13.440833333333334,13.440833333333334 0 0 1 -26.881666666666668,0 v-26.881666666666668 a13.440833333333334,13.440833333333334 0 0 1 26.881666666666668,0 z" transform="translate(366.5293548387095 353.7667473118288)" data-type="pcb_plated_hole" data-pcb-layer="top"/><path class="pcb-hole-inner" fill="#FF26E2" d="M9.408924731182795,-13.440833333333332 v26.881666666666664 a9.408924731182795,9.408924731182795 0 0 1 -18.81784946236559,0 v-26.881666666666664 a9.408924731182795,9.408924731182795 0 0 1 18.81784946236559,0 z" transform="translate(366.5293548387095 353.7667473118288)" data-type="pcb_plated_hole_drill" data-pcb-layer="drill"/></g><g data-type="pcb_plated_hole" data-pcb-layer="through"><path class="pcb-hole-outer" fill="rgb(200, 52, 52)" d="M13.440833333333334,-13.440833333333334 v26.881666666666668 a13.440833333333334,13.440833333333334 0 0 1 -26.881666666666668,0 v-26.881666666666668 a13.440833333333334,13.440833333333334 0 0 1 26.881666666666668,0 z" transform="translate(366.5293548387095 246.2400806451585)" data-type="pcb_plated_hole" data-pcb-layer="top"/><path class="pcb-hole-inner" fill="#FF26E2" d="M9.408924731182795,-13.440833333333332 v26.881666666666664 a9.408924731182795,9.408924731182795 0 0 1 -18.81784946236559,0 v-26.881666666666664 a9.408924731182795,9.408924731182795 0 0 1 18.81784946236559,0 z" transform="translate(366.5293548387095 246.2400806451585)" data-type="pcb_plated_hole_drill" data-pcb-layer="drill"/></g><g data-type="pcb_plated_hole" data-pcb-layer="through"><path class="pcb-hole-outer" fill="rgb(200, 52, 52)" d="M13.440833333333334,-13.440833333333334 v26.881666666666668 a13.440833333333334,13.440833333333334 0 0 1 -26.881666666666668,0 v-26.881666666666668 a13.440833333333334,13.440833333333334 0 0 1 26.881666666666668,0 z" transform="translate(262.77172043011063 353.7667473118288)" data-type="pcb_plated_hole" data-pcb-layer="top"/><path class="pcb-hole-inner" fill="#FF26E2" d="M9.408924731182795,-13.440833333333332 v26.881666666666664 a9.408924731182795,9.408924731182795 0 0 1 -18.81784946236559,0 v-26.881666666666664 a9.408924731182795,9.408924731182795 0 0 1 18.81784946236559,0 z" transform="translate(262.77172043011063 353.7667473118288)" data-type="pcb_plated_hole_drill" data-pcb-layer="drill"/></g><g data-type="pcb_plated_hole" data-pcb-layer="through"><path class="pcb-hole-outer" fill="rgb(200, 52, 52)" d="M13.440833333333334,-13.440833333333334 v26.881666666666668 a13.440833333333334,13.440833333333334 0 0 1 -26.881666666666668,0 v-26.881666666666668 a13.440833333333334,13.440833333333334 0 0 1 26.881666666666668,0 z" transform="translate(262.77172043011063 246.2400806451585)" data-type="pcb_plated_hole" data-pcb-layer="top"/><path class="pcb-hole-inner" fill="#FF26E2" d="M9.408924731182795,-13.440833333333332 v26.881666666666664 a9.408924731182795,9.408924731182795 0 0 1 -18.81784946236559,0 v-26.881666666666664 a9.408924731182795,9.408924731182795 0 0 1 18.81784946236559,0 z" transform="translate(262.77172043011063 246.2400806451585)" data-type="pcb_plated_hole_drill" data-pcb-layer="drill"/></g><g data-type="pcb_plated_hole" data-pcb-layer="through"><circle class="pcb-hole-outer" fill="rgb(200, 52, 52)" cx="295.8326881720464" cy="387.3671236559132" r="9.408583333333334" data-type="pcb_plated_hole" data-pcb-layer="top"/><circle class="pcb-hole-inner" fill="#FF26E2" cx="295.8326881720464" cy="387.3671236559132" r="6.048204301075269" data-type="pcb_plated_hole_drill" data-pcb-layer="drill"/></g><g data-type="pcb_plated_hole" data-pcb-layer="through"><circle class="pcb-hole-outer" fill="rgb(200, 52, 52)" cx="295.8326881720464" cy="361.8305645161273" r="9.408583333333334" data-type="pcb_plated_hole" data-pcb-layer="top"/><circle class="pcb-hole-inner" fill="#FF26E2" cx="295.8326881720464" cy="361.8305645161273" r="6.048204301075269" data-type="pcb_plated_hole_drill" data-pcb-layer="drill"/></g><g data-type="pcb_plated_hole" data-pcb-layer="through"><circle class="pcb-hole-outer" fill="rgb(200, 52, 52)" cx="295.8326881720464" cy="336.28717741935424" r="9.408583333333334" data-type="pcb_plated_hole" data-pcb-layer="top"/><circle class="pcb-hole-inner" fill="#FF26E2" cx="295.8326881720464" cy="336.28717741935424" r="6.048204301075269" data-type="pcb_plated_hole_drill" data-pcb-layer="drill"/></g><g data-type="pcb_plated_hole" data-pcb-layer="through"><circle class="pcb-hole-outer" fill="rgb(200, 52, 52)" cx="295.8326881720464" cy="312.09572580645244" r="9.408583333333334" data-type="pcb_plated_hole" data-pcb-layer="top"/><circle class="pcb-hole-inner" fill="#FF26E2" cx="295.8326881720464" cy="312.09572580645244" r="6.048204301075269" data-type="pcb_plated_hole_drill" data-pcb-layer="drill"/></g><g data-type="pcb_plated_hole" data-pcb-layer="through"><circle class="pcb-hole-outer" fill="rgb(200, 52, 52)" cx="295.8326881720464" cy="287.90427419354756" r="9.408583333333334" data-type="pcb_plated_hole" data-pcb-layer="top"/><circle class="pcb-hole-inner" fill="#FF26E2" cx="295.8326881720464" cy="287.90427419354756" r="6.048204301075269" data-type="pcb_plated_hole_drill" data-pcb-layer="drill"/></g><g data-type="pcb_plated_hole" data-pcb-layer="through"><circle class="pcb-hole-outer" fill="rgb(200, 52, 52)" cx="295.8326881720464" cy="238.16943548387266" r="9.408583333333334" data-type="pcb_plated_hole" data-pcb-layer="top"/><circle class="pcb-hole-inner" fill="#FF26E2" cx="295.8326881720464" cy="238.16943548387266" r="6.048204301075269" data-type="pcb_plated_hole_drill" data-pcb-layer="drill"/></g><g data-type="pcb_plated_hole" data-pcb-layer="through"><circle class="pcb-hole-outer" fill="rgb(200, 52, 52)" cx="295.8326881720464" cy="212.6328763440868" r="9.408583333333334" data-type="pcb_plated_hole" data-pcb-layer="top"/><circle class="pcb-hole-inner" fill="#FF26E2" cx="295.8326881720464" cy="212.6328763440868" r="6.048204301075269" data-type="pcb_plated_hole_drill" data-pcb-layer="drill"/></g><g data-type="pcb_plated_hole" data-pcb-layer="through"><circle class="pcb-hole-outer" fill="rgb(200, 52, 52)" cx="333.46838709677377" cy="212.6328763440868" r="9.408583333333334" data-type="pcb_plated_hole" data-pcb-layer="top"/><circle class="pcb-hole-inner" fill="#FF26E2" cx="333.46838709677377" cy="212.6328763440868" r="6.048204301075269" data-type="pcb_plated_hole_drill" data-pcb-layer="drill"/></g><g data-type="pcb_plated_hole" data-pcb-layer="through"><circle class="pcb-hole-outer" fill="rgb(200, 52, 52)" cx="333.4683870967737" cy="263.70599462365544" r="9.408583333333334" data-type="pcb_plated_hole" data-pcb-layer="top"/><circle class="pcb-hole-inner" fill="#FF26E2" cx="333.4683870967737" cy="263.70599462365544" r="6.048204301075269" data-type="pcb_plated_hole_drill" data-pcb-layer="drill"/></g><g data-type="pcb_plated_hole" data-pcb-layer="through"><circle class="pcb-hole-outer" fill="rgb(200, 52, 52)" cx="333.4683870967737" cy="287.90427419354756" r="9.408583333333334" data-type="pcb_plated_hole" data-pcb-layer="top"/><circle class="pcb-hole-inner" fill="#FF26E2" cx="333.4683870967737" cy="287.90427419354756" r="6.048204301075269" data-type="pcb_plated_hole_drill" data-pcb-layer="drill"/></g><g data-type="pcb_plated_hole" data-pcb-layer="through"><circle class="pcb-hole-outer" fill="rgb(200, 52, 52)" cx="333.4683870967737" cy="312.09572580645244" r="9.408583333333334" data-type="pcb_plated_hole" data-pcb-layer="top"/><circle class="pcb-hole-inner" fill="#FF26E2" cx="333.4683870967737" cy="312.09572580645244" r="6.048204301075269" data-type="pcb_plated_hole_drill" data-pcb-layer="drill"/></g><g data-type="pcb_plated_hole" data-pcb-layer="through"><circle class="pcb-hole-outer" fill="rgb(200, 52, 52)" cx="333.4683870967737" cy="361.8305645161273" r="9.408583333333334" data-type="pcb_plated_hole" data-pcb-layer="top"/><circle class="pcb-hole-inner" fill="#FF26E2" cx="333.4683870967737" cy="361.8305645161273" r="6.048204301075269" data-type="pcb_plated_hole_drill" data-pcb-layer="drill"/></g><g data-type="pcb_plated_hole" data-pcb-layer="through"><circle class="pcb-hole-outer" fill="rgb(200, 52, 52)" cx="333.4683870967737" cy="387.3671236559132" r="9.408583333333334" data-type="pcb_plated_hole" data-pcb-layer="top"/><circle class="pcb-hole-inner" fill="#FF26E2" cx="333.4683870967737" cy="387.3671236559132" r="6.048204301075269" data-type="pcb_plated_hole_drill" data-pcb-layer="drill"/></g><g data-type="pcb_plated_hole" data-pcb-layer="through"><circle class="pcb-hole-outer" fill="rgb(200, 52, 52)" cx="333.4683870967737" cy="238.16943548387266" r="9.408583333333334" data-type="pcb_plated_hole" data-pcb-layer="top"/><circle class="pcb-hole-inner" fill="#FF26E2" cx="333.4683870967737" cy="238.16943548387266" r="6.048204301075269" data-type="pcb_plated_hole_drill" data-pcb-layer="drill"/></g><g data-type="pcb_plated_hole" data-pcb-layer="through"><circle class="pcb-hole-outer" fill="rgb(200, 52, 52)" cx="502.41935483870964" cy="95.16129032258064" r="25.268817204301076" data-type="pcb_plated_hole" data-pcb-layer="top"/><circle class="pcb-hole-inner" fill="#FF26E2" cx="502.41935483870964" cy="95.16129032258064" r="13.655913978494624" data-type="pcb_plated_hole_drill" data-pcb-layer="drill"/></g><g data-type="pcb_plated_hole" data-pcb-layer="through"><circle class="pcb-hole-outer" fill="rgb(200, 52, 52)" cx="502.41935483870964" cy="163.44086021505376" r="25.268817204301076" data-type="pcb_plated_hole" data-pcb-layer="top"/><circle class="pcb-hole-inner" fill="#FF26E2" cx="502.41935483870964" cy="163.44086021505376" r="13.655913978494624" data-type="pcb_plated_hole_drill" data-pcb-layer="drill"/></g><g data-type="pcb_plated_hole" data-pcb-layer="through"><circle class="pcb-hole-outer" fill="rgb(200, 52, 52)" cx="502.41935483870964" cy="231.72043010752688" r="25.268817204301076" data-type="pcb_plated_hole" data-pcb-layer="top"/><circle class="pcb-hole-inner" fill="#FF26E2" cx="502.41935483870964" cy="231.72043010752688" r="13.655913978494624" data-type="pcb_plated_hole_drill" data-pcb-layer="drill"/></g><g data-type="pcb_plated_hole" data-pcb-layer="through"><circle class="pcb-hole-outer" fill="rgb(200, 52, 52)" cx="502.41935483870964" cy="300" r="25.268817204301076" data-type="pcb_plated_hole" data-pcb-layer="top"/><circle class="pcb-hole-inner" fill="#FF26E2" cx="502.41935483870964" cy="300" r="13.655913978494624" data-type="pcb_plated_hole_drill" data-pcb-layer="drill"/></g><g data-type="pcb_plated_hole" data-pcb-layer="through"><circle class="pcb-hole-outer" fill="rgb(200, 52, 52)" cx="502.41935483870964" cy="368.2795698924731" r="25.268817204301076" data-type="pcb_plated_hole" data-pcb-layer="top"/><circle class="pcb-hole-inner" fill="#FF26E2" cx="502.41935483870964" cy="368.2795698924731" r="13.655913978494624" data-type="pcb_plated_hole_drill" data-pcb-layer="drill"/></g><g data-type="pcb_plated_hole" data-pcb-layer="through"><circle class="pcb-hole-outer" fill="rgb(200, 52, 52)" cx="502.41935483870964" cy="436.5591397849462" r="25.268817204301076" data-type="pcb_plated_hole" data-pcb-layer="top"/><circle class="pcb-hole-inner" fill="#FF26E2" cx="502.41935483870964" cy="436.5591397849462" r="13.655913978494624" data-type="pcb_plated_hole_drill" data-pcb-layer="drill"/></g><g data-type="pcb_plated_hole" data-pcb-layer="through"><circle class="pcb-hole-outer" fill="rgb(200, 52, 52)" cx="502.41935483870964" cy="504.8387096774194" r="25.268817204301076" data-type="pcb_plated_hole" data-pcb-layer="top"/><circle class="pcb-hole-inner" fill="#FF26E2" cx="502.41935483870964" cy="504.8387096774194" r="13.655913978494624" data-type="pcb_plated_hole_drill" data-pcb-layer="drill"/></g><circle class="pcb-hole" cx="297.58064516129025" cy="95.16129032258064" r="44.623655913978496" fill="#FF26E2" data-type="pcb_hole" data-pcb-layer="drill"/><circle class="pcb-hole" cx="297.58064516129025" cy="504.8387096774194" r="44.623655913978496" fill="#FF26E2" data-type="pcb_hole" data-pcb-layer="drill"/></svg>