<svg xmlns="http://www.w3.org/2000/svg" width="1200" height="600" style="background-color: rgb(245, 241, 237)" data-real-to-screen-transform="matrix(69.7674418605,0,0,-69.7674418605,408.9162790698,289.5348837209)" data-software-used-string="@tscircuit/core@0.0.555"><style>
              .boundary { fill: rgb(245, 241, 237); }
              .schematic-boundary { fill: none; stroke: #fff; }
              .component { fill: none; stroke: rgb(132, 0, 0); }
              .chip { fill: rgb(255, 255, 194); stroke: rgb(132, 0, 0); }
              .component-pin { fill: none; stroke: rgb(132, 0, 0); }
              .trace:hover {
                filter: invert(1);
              }
              .trace:hover .trace-crossing-outline {
                opacity: 0;
              }
              .trace:hover .trace-junction {
                filter: invert(1);
              }
              .text { font-family: sans-serif; fill: rgb(0, 150, 0); }
              .pin-number { fill: rgb(169, 0, 0); }
              .port-label { fill: rgb(0, 100, 100); }
              .component-name { fill: rgb(0, 100, 100); }
            </style><rect class="boundary" x="0" y="0" width="1200" height="600"/><g data-circuit-json-type="schematic_component" data-schematic-component-id="schematic_component_0"><rect class="component chip" x="367.0558139535" y="261.6279069767" width="83.72093023260004" height="55.81395348839999" stroke-width="1.39534883721px" fill="rgb(255, 255, 194)" stroke="rgb(132, 0, 0)"/><rect class="component-overlay" x="367.0558139535" y="261.6279069767" width="83.72093023260004" height="55.81395348839999" fill="transparent"/><text x="367.0558139535" y="326.511627906965" fill="#006464" text-anchor="start" dominant-baseline="middle" font-family="sans-serif" font-size="12.55813953489px" transform="rotate(0, 367.0558139535, 326.511627906965)">MCP4725A1T_E_CH</text><text x="367.0558139535" y="252.558139534835" fill="#006464" text-anchor="start" dominant-baseline="middle" font-family="sans-serif" font-size="12.55813953489px" transform="rotate(0, 367.0558139535, 252.558139534835)">U1</text><line class="component-pin" x1="340.54418604651" y1="275.58139534879996" x2="367.0558139535" y2="275.58139534879996" stroke-width="1.39534883721px"/><text class="pin-number" x="353.1023255814" y="274.18604651159" style="font-family: sans-serif;" fill="rgb(169, 0, 0)" text-anchor="middle" dominant-baseline="auto" font-size="10.465116279075px" transform="">1</text><text class="pin-number" x="374.03255813955" y="275.58139534879996" style="font-family: sans-serif;" fill="rgb(169, 0, 0)" text-anchor="start" dominant-baseline="middle" font-size="10.465116279075px" transform="">VOUT</text><line class="component-pin" x1="340.54418604651" y1="289.5348837209" x2="367.0558139535" y2="289.5348837209" stroke-width="1.39534883721px"/><text class="pin-number" x="353.1023255814" y="288.13953488369" style="font-family: sans-serif;" fill="rgb(169, 0, 0)" text-anchor="middle" dominant-baseline="auto" font-size="10.465116279075px" transform="">2</text><text class="pin-number" x="374.03255813955" y="289.5348837209" style="font-family: sans-serif;" fill="rgb(169, 0, 0)" text-anchor="start" dominant-baseline="middle" font-size="10.465116279075px" transform="">VSS</text><line class="component-pin" x1="340.54418604651" y1="303.488372093" x2="367.0558139535" y2="303.488372093" stroke-width="1.39534883721px"/><text class="pin-number" x="353.1023255814" y="302.09302325579" style="font-family: sans-serif;" fill="rgb(169, 0, 0)" text-anchor="middle" dominant-baseline="auto" font-size="10.465116279075px" transform="">3</text><text class="pin-number" x="374.03255813955" y="303.488372093" style="font-family: sans-serif;" fill="rgb(169, 0, 0)" text-anchor="start" dominant-baseline="middle" font-size="10.465116279075px" transform="">VDD</text><line class="component-pin" x1="477.28837209309" y1="303.488372093" x2="450.7767441861" y2="303.488372093" stroke-width="1.39534883721px"/><text class="pin-number" x="464.7302325582" y="302.09302325579" style="font-family: sans-serif;" fill="rgb(169, 0, 0)" text-anchor="middle" dominant-baseline="auto" font-size="10.465116279075px" transform="">4</text><text class="pin-number" x="443.80000000005" y="303.488372093" style="font-family: sans-serif;" fill="rgb(169, 0, 0)" text-anchor="end" dominant-baseline="middle" font-size="10.465116279075px" transform="">SDA</text><line class="component-pin" x1="477.28837209309" y1="289.5348837209" x2="450.7767441861" y2="289.5348837209" stroke-width="1.39534883721px"/><text class="pin-number" x="464.7302325582" y="288.13953488369" style="font-family: sans-serif;" fill="rgb(169, 0, 0)" text-anchor="middle" dominant-baseline="auto" font-size="10.465116279075px" transform="">5</text><text class="pin-number" x="443.80000000005" y="289.5348837209" style="font-family: sans-serif;" fill="rgb(169, 0, 0)" text-anchor="end" dominant-baseline="middle" font-size="10.465116279075px" transform="">SCL</text><line class="component-pin" x1="477.28837209309" y1="275.58139534879996" x2="450.7767441861" y2="275.58139534879996" stroke-width="1.39534883721px"/><text class="pin-number" x="464.7302325582" y="274.18604651159" style="font-family: sans-serif;" fill="rgb(169, 0, 0)" text-anchor="middle" dominant-baseline="auto" font-size="10.465116279075px" transform="">6</text><text class="pin-number" x="443.80000000005" y="275.58139534879996" style="font-family: sans-serif;" fill="rgb(169, 0, 0)" text-anchor="end" dominant-baseline="middle" font-size="10.465116279075px" transform="">A0</text></g><g data-circuit-json-type="schematic_component" data-schematic-component-id="schematic_component_1"><rect class="component-overlay" x="539.1775941861441" y="182.86168604642802" width="18.459306976753396" height="73.83720697678109" fill="transparent"/><path d="M 548.4072476745208 256.6988930232091 L 548.4072476745208 238.23959302319992" stroke="rgb(132, 0, 0)" fill="none" stroke-width="1.39534883721px" stroke-linecap="round"/><path d="M 548.4072476745208 201.3209930231814 L 548.4072476745208 182.86168604642802" stroke="rgb(132, 0, 0)" fill="none" stroke-width="1.39534883721px" stroke-linecap="round"/><path d="M 539.1775941861441 219.78029999993484 L 539.1775941861441 201.32099999992565 L 557.6369011628975 201.32099999992565 L 557.6369011628975 238.23960697668835 L 539.1775941861441 238.23960697668835 L 539.1775941861441 219.78029999993498" stroke="rgb(132, 0, 0)" fill="none" stroke-width="1.39534883721px" stroke-linecap="round"/><text x="567.636323255926" y="209.82558139527876" fill="rgb(15, 15, 15)" font-family="sans-serif" text-anchor="start" dominant-baseline="middle" font-size="12.55813953489px">R1</text><text x="567.636323255926" y="232.15116279063875" fill="rgb(15, 15, 15)" font-family="sans-serif" text-anchor="start" dominant-baseline="middle" font-size="12.55813953489px">4.7kΩ</text></g><g data-circuit-json-type="schematic_component" data-schematic-component-id="schematic_component_2"><rect class="component-overlay" x="608.9450360466441" y="182.86168604642802" width="18.459306976753396" height="73.83720697678109" fill="transparent"/><path d="M 618.1746895350208 256.6988930232091 L 618.1746895350208 238.23959302319992" stroke="rgb(132, 0, 0)" fill="none" stroke-width="1.39534883721px" stroke-linecap="round"/><path d="M 618.1746895350208 201.3209930231814 L 618.1746895350208 182.86168604642802" stroke="rgb(132, 0, 0)" fill="none" stroke-width="1.39534883721px" stroke-linecap="round"/><path d="M 608.9450360466441 219.78029999993484 L 608.9450360466441 201.32099999992565 L 627.4043430233975 201.32099999992565 L 627.4043430233975 238.23960697668835 L 608.9450360466441 238.23960697668835 L 608.9450360466441 219.78029999993498" stroke="rgb(132, 0, 0)" fill="none" stroke-width="1.39534883721px" stroke-linecap="round"/><text x="637.4037651164259" y="209.82558139527876" fill="rgb(15, 15, 15)" font-family="sans-serif" text-anchor="start" dominant-baseline="middle" font-size="12.55813953489px">R2</text><text x="637.4037651164259" y="232.15116279063875" fill="rgb(15, 15, 15)" font-family="sans-serif" text-anchor="start" dominant-baseline="middle" font-size="12.55813953489px">4.7kΩ</text></g><g data-circuit-json-type="schematic_component" data-schematic-component-id="schematic_component_3"><rect class="component-overlay" x="371.98482790699086" y="461.6566639535441" width="73.83720697678109" height="18.45930697675334" fill="transparent"/><path d="M 371.98482790699086 470.88631744192077 L 390.44412790700005 470.88631744192077" stroke="rgb(132, 0, 0)" fill="none" stroke-width="1.39534883721px" stroke-linecap="round"/><path d="M 427.3627279070186 470.88631744192077 L 445.82203488377195 470.88631744192077" stroke="rgb(132, 0, 0)" fill="none" stroke-width="1.39534883721px" stroke-linecap="round"/><path d="M 408.90342093026516 461.6566639535441 L 427.36272093027435 461.6566639535441 L 427.36272093027435 480.11597093029746 L 390.44411395351165 480.11597093029746 L 390.44411395351165 461.6566639535441 L 408.903420930265 461.6566639535441" stroke="rgb(132, 0, 0)" fill="none" stroke-width="1.39534883721px" stroke-linecap="round"/><text x="407.6953488372412" y="458.1248257819146" fill="rgb(15, 15, 15)" font-family="sans-serif" text-anchor="middle" dominant-baseline="auto" font-size="12.55813953489px">R3</text><text x="407.6953488372412" y="485.2052137530909" fill="rgb(15, 15, 15)" font-family="sans-serif" text-anchor="middle" dominant-baseline="hanging" font-size="12.55813953489px">10kΩ</text></g><g data-circuit-json-type="schematic_component" data-schematic-component-id="schematic_component_4"><rect class="component-overlay" x="739.3381034885698" y="252.1817093022767" width="36.9186000000185" height="73.83720697678112" fill="transparent"/><path d="M 757.7974034885791 326.0189162790578 L 757.7974034885791 294.63810697671653" stroke="rgb(132, 0, 0)" fill="none" stroke-width="1.39534883721px" stroke-linecap="round"/><path d="M 757.7974034885791 283.56252558136214 L 757.7974034885791 252.1817093022767" stroke="rgb(132, 0, 0)" fill="none" stroke-width="1.39534883721px" stroke-linecap="round"/><path d="M 776.2567034885883 294.6381069767165 L 739.3381034885698 294.63810697671653" stroke="rgb(132, 0, 0)" fill="none" stroke-width="1.39534883721px" stroke-linecap="round"/><path d="M 776.2567034885883 283.56252558136214 L 739.3381034885698 283.56252558136214" stroke="rgb(132, 0, 0)" fill="none" stroke-width="1.39534883721px" stroke-linecap="round"/><text x="771.2047732560275" y="275.6872286788" fill="rgb(15, 15, 15)" font-family="sans-serif" text-anchor="start" dominant-baseline="auto" font-size="12.55813953489px">C1</text><text x="771.2047732560275" y="303.382538763" fill="rgb(15, 15, 15)" font-family="sans-serif" text-anchor="start" dominant-baseline="hanging" font-size="12.55813953489px">100nF</text></g><g data-circuit-json-type="schematic_component" data-schematic-component-id="schematic_component_5"><rect class="component chip" x="143.79999999989997" y="261.6279069767" width="83.72093023260001" height="41.86046511630002" stroke-width="1.39534883721px" fill="rgb(255, 255, 194)" stroke="rgb(132, 0, 0)"/><rect class="component-overlay" x="143.79999999989997" y="261.6279069767" width="83.72093023260001" height="41.86046511630002" fill="transparent"/><text x="143.79999999989997" y="312.558139534865" fill="#006464" text-anchor="start" dominant-baseline="middle" font-family="sans-serif" font-size="12.55813953489px" transform="rotate(0, 143.79999999989997, 312.558139534865)"></text><text x="143.79999999989997" y="252.558139534835" fill="#006464" text-anchor="start" dominant-baseline="middle" font-family="sans-serif" font-size="12.55813953489px" transform="rotate(0, 143.79999999989997, 252.558139534835)">JP6</text><line class="component-pin" x1="254.03255813949" y1="289.5348837209" x2="227.52093023249998" y2="289.5348837209" stroke-width="1.39534883721px"/><text class="pin-number" x="241.47441860459998" y="288.13953488369" style="font-family: sans-serif;" fill="rgb(169, 0, 0)" text-anchor="middle" dominant-baseline="auto" font-size="10.465116279075px" transform="">1</text><text class="pin-number" x="220.54418604645" y="289.5348837209" style="font-family: sans-serif;" fill="rgb(169, 0, 0)" text-anchor="end" dominant-baseline="middle" font-size="10.465116279075px" transform="">GND</text><line class="component-pin" x1="254.03255813949" y1="275.58139534879996" x2="227.52093023249998" y2="275.58139534879996" stroke-width="1.39534883721px"/><text class="pin-number" x="241.47441860459998" y="274.18604651159" style="font-family: sans-serif;" fill="rgb(169, 0, 0)" text-anchor="middle" dominant-baseline="auto" font-size="10.465116279075px" transform="">2</text><text class="pin-number" x="220.54418604645" y="275.58139534879996" style="font-family: sans-serif;" fill="rgb(169, 0, 0)" text-anchor="end" dominant-baseline="middle" font-size="10.465116279075px" transform="">VOUT</text></g><g data-circuit-json-type="schematic_component" data-schematic-component-id="schematic_component_6"><rect class="component chip" x="925.1953488375" y="254.65116279064998" width="83.72093023260004" height="69.76744186049999" stroke-width="1.39534883721px" fill="rgb(255, 255, 194)" stroke="rgb(132, 0, 0)"/><rect class="component-overlay" x="925.1953488375" y="254.65116279064998" width="83.72093023260004" height="69.76744186049999" fill="transparent"/><text x="925.1953488375" y="333.48837209301496" fill="#006464" text-anchor="start" dominant-baseline="middle" font-family="sans-serif" font-size="12.55813953489px" transform="rotate(0, 925.1953488375, 333.48837209301496)"></text><text x="925.1953488375" y="245.58139534878498" fill="#006464" text-anchor="start" dominant-baseline="middle" font-family="sans-serif" font-size="12.55813953489px" transform="rotate(0, 925.1953488375, 245.58139534878498)">JP5</text><line class="component-pin" x1="1035.42790697709" y1="310.46511627905" x2="1008.9162790701" y2="310.46511627905" stroke-width="1.39534883721px"/><text class="pin-number" x="1022.8697674422001" y="309.06976744184" style="font-family: sans-serif;" fill="rgb(169, 0, 0)" text-anchor="middle" dominant-baseline="auto" font-size="10.465116279075px" transform="">1</text><text class="pin-number" x="1001.93953488405" y="310.46511627905" style="font-family: sans-serif;" fill="rgb(169, 0, 0)" text-anchor="end" dominant-baseline="middle" font-size="10.465116279075px" transform="">SCL</text><line class="component-pin" x1="1035.42790697709" y1="296.51162790694997" x2="1008.9162790701" y2="296.51162790694997" stroke-width="1.39534883721px"/><text class="pin-number" x="1022.8697674422001" y="295.11627906973996" style="font-family: sans-serif;" fill="rgb(169, 0, 0)" text-anchor="middle" dominant-baseline="auto" font-size="10.465116279075px" transform="">2</text><text class="pin-number" x="1001.93953488405" y="296.51162790694997" style="font-family: sans-serif;" fill="rgb(169, 0, 0)" text-anchor="end" dominant-baseline="middle" font-size="10.465116279075px" transform="">SDA</text><line class="component-pin" x1="1035.42790697709" y1="282.55813953485" x2="1008.9162790701" y2="282.55813953485" stroke-width="1.39534883721px"/><text class="pin-number" x="1022.8697674422001" y="281.16279069764" style="font-family: sans-serif;" fill="rgb(169, 0, 0)" text-anchor="middle" dominant-baseline="auto" font-size="10.465116279075px" transform="">3</text><text class="pin-number" x="1001.93953488405" y="282.55813953485" style="font-family: sans-serif;" fill="rgb(169, 0, 0)" text-anchor="end" dominant-baseline="middle" font-size="10.465116279075px" transform="">VCC</text><line class="component-pin" x1="1035.42790697709" y1="268.60465116275" x2="1008.9162790701" y2="268.60465116275" stroke-width="1.39534883721px"/><text class="pin-number" x="1022.8697674422001" y="267.20930232553997" style="font-family: sans-serif;" fill="rgb(169, 0, 0)" text-anchor="middle" dominant-baseline="auto" font-size="10.465116279075px" transform="">4</text><text class="pin-number" x="1001.93953488405" y="268.60465116275" style="font-family: sans-serif;" fill="rgb(169, 0, 0)" text-anchor="end" dominant-baseline="middle" font-size="10.465116279075px" transform="">GND</text></g><g data-circuit-json-type="schematic_component" data-schematic-component-id="schematic_component_7"><rect class="component-overlay" x="552.5032697675463" y="132.61543747663555" width="61.69541162793769" height="33.42685813955151" fill="transparent"/><path d="M 598.6937325582669 157.02578863943836 L 614.198681395484 157.02578863943836" stroke="rgb(132, 0, 0)" fill="none" stroke-width="1.39534883721px" stroke-linecap="round"/><path d="M 552.5032697675463 157.1454188719966 L 567.9703069768563 157.1454188719966" stroke="rgb(132, 0, 0)" fill="none" stroke-width="1.39534883721px" stroke-linecap="round"/><path d="M 574.995902325697 157.14487468595007 L 580.2013906977927 157.14487468595007" stroke="rgb(132, 0, 0)" fill="none" stroke-width="1.39534883721px" stroke-linecap="round"/><path d="M 583.5168651163989 148.12038631385258 L 583.5168651163989 132.61543747663555" stroke="rgb(132, 0, 0)" fill="none" stroke-width="1.39534883721px" stroke-linecap="round"/><path d="M 574.9500511629062 165.89600026734982 L 574.9500511629062 148.3155398022248" stroke="rgb(132, 0, 0)" fill="none" stroke-width="1.39534883721px" stroke-linecap="round"/><path d="M 580.3287023256996 165.5955188720008 L 580.3287023256996 148.60547933710862" stroke="rgb(132, 0, 0)" fill="none" stroke-width="1.39534883721px" stroke-linecap="round"/><path d="M 586.5747372094237 165.61493515107054 L 586.5747372094237 148.64528863943414" stroke="rgb(132, 0, 0)" fill="none" stroke-width="1.39534883721px" stroke-linecap="round"/><path d="M 580.4646232559322 165.64640026734972 L 586.5192302326794 165.64640026734972" stroke="rgb(132, 0, 0)" fill="none" stroke-width="1.39534883721px" stroke-linecap="round"/><path d="M 580.4781720931416 148.58267933710857 L 586.4941627908189 148.58267933710857" stroke="rgb(132, 0, 0)" fill="none" stroke-width="1.39534883721px" stroke-linecap="round"/><path d="M 591.7772953489612 165.90271887200097 L 591.7772953489612 148.32225840687596" stroke="rgb(132, 0, 0)" fill="none" stroke-width="1.39534883721px" stroke-linecap="round"/><path d="M 592.1014209303568 148.08776305803858 L 592.1014209303568 148.08776305803858 L 593.1916589688585 148.67568298646265 L 594.1724218895309 149.28516099705726 L 595.0473835978 149.9139653580395 L 595.8202179990924 150.55986433762635 L 596.4945989988344 151.22062620403497 L 597.0742005024522 151.8940192254823 L 597.5626964153723 152.5778116701855 L 597.9637606430211 153.26977180636158 L 598.281067090825 153.96766790222753 L 598.5182896642101 154.6692682260005 L 598.679102268603 155.37234104589749 L 598.7671788094299 156.07465463013557 L 598.7861931921171 156.7739772469318 L 598.7398193220913 157.4680771645032 L 598.6317311047786 158.15472265106686 L 598.4656024456054 158.8316819748398 L 598.245107249998 159.4967234040391 L 597.9739194233829 160.1476152068818 L 597.6557128711864 160.78212565158498 L 597.2941614988348 161.39802300636563 L 596.8929392117545 161.99307553944087 L 596.4557199153718 162.56505151902772 L 595.9861775151132 163.11171921334324 L 595.4879859164049 163.63084689060446 L 594.9648190246734 164.1202028190285 L 594.420350745345 164.57755526683232 L 593.858254983846 165.00067250223304 L 593.2822056456029 165.3873227934477 L 592.6958766360418 165.73527440869336 L 592.1029418605893 166.04229561618706 L 592.1029418605893 166.04229561618706" stroke="rgb(132, 0, 0)" fill="none" stroke-width="1.39534883721px" stroke-linecap="round"/><path d="M 574.6311302326735 148.07891654641068 L 574.6311302326735 148.07891654641068 L 573.5408921941718 148.66683647483475 L 572.5601292734995 149.27631448542937 L 571.6851675652302 149.9051188464116 L 570.9123331639379 150.55101782599849 L 570.2379521641959 151.21177969240708 L 569.6583506605781 151.88517271385444 L 569.169854747658 152.56896515855763 L 568.7687905200091 153.26092529473368 L 568.4514840722054 153.95882139059967 L 568.2142614988202 154.66042171437263 L 568.0534488944273 155.36349453426962 L 567.9653723536005 156.0658081185077 L 567.9463579709131 156.7651307353039 L 567.992731840939 157.4592306528753 L 568.1008200582517 158.14587613943897 L 568.266948717425 158.8228354632119 L 568.4874439130323 159.4878768924112 L 568.7586317396474 160.13876869525393 L 569.076838291844 160.77327913995708 L 569.4383896641955 161.38917649473774 L 569.8396119512759 161.98422902781297 L 570.2768312476585 162.55620500739983 L 570.746373647917 163.10287270171534 L 571.2445652466254 163.6220003789766 L 571.7677321383569 164.1113563074006 L 572.3122004176853 164.56870875520445 L 572.8742961791843 164.99182599060518 L 573.4503455174275 165.37847628181984 L 574.0366745269885 165.7264278970655 L 574.6296093024409 166.03344910455917 L 574.6296093024409 166.03344910455917" stroke="rgb(132, 0, 0)" fill="none" stroke-width="1.39534883721px" stroke-linecap="round"/><path d="M 586.5801720931446 157.14487468595007 L 591.7856604652403 157.14487468595007" stroke="rgb(132, 0, 0)" fill="none" stroke-width="1.39534883721px" stroke-linecap="round"/><text x="584.7745488373297" y="169.53981866990975" fill="rgb(15, 15, 15)" font-family="sans-serif" text-anchor="middle" dominant-baseline="hanging" font-size="12.55813953489px">SJ1</text></g><g data-circuit-json-type="schematic_component" data-schematic-component-id="schematic_component_8"><rect class="component-overlay" x="503.66606046519615" y="446.56892584888556" width="61.695411627937744" height="33.426858139551484" fill="transparent"/><path d="M 549.856523255917 470.9792770116884 L 565.3614720931339 470.9792770116884" stroke="rgb(132, 0, 0)" fill="none" stroke-width="1.39534883721px" stroke-linecap="round"/><path d="M 503.66606046519615 471.0989072442466 L 519.1330976745062 471.0989072442466" stroke="rgb(132, 0, 0)" fill="none" stroke-width="1.39534883721px" stroke-linecap="round"/><path d="M 534.6796558140488 462.07387468610256 L 534.6796558140488 446.56892584888556" stroke="rgb(132, 0, 0)" fill="none" stroke-width="1.39534883721px" stroke-linecap="round"/><path d="M 526.1128418605562 479.8494886395998 L 526.1128418605562 462.2690281744748" stroke="rgb(132, 0, 0)" fill="none" stroke-width="1.39534883721px" stroke-linecap="round"/><path d="M 531.4914930233496 479.5490072442508 L 531.4914930233496 462.5589677093586" stroke="rgb(132, 0, 0)" fill="none" stroke-width="1.39534883721px" stroke-linecap="round"/><path d="M 537.7375279070736 479.5684235233206 L 537.7375279070736 462.59877701168415" stroke="rgb(132, 0, 0)" fill="none" stroke-width="1.39534883721px" stroke-linecap="round"/><path d="M 531.6274139535822 479.5998886395997 L 537.6820209303294 479.5998886395997" stroke="rgb(132, 0, 0)" fill="none" stroke-width="1.39534883721px" stroke-linecap="round"/><path d="M 531.6409627907915 462.5361677093586 L 537.6569534884688 462.5361677093586" stroke="rgb(132, 0, 0)" fill="none" stroke-width="1.39534883721px" stroke-linecap="round"/><path d="M 542.9400860466111 479.856207244251 L 542.9400860466111 462.275746779126" stroke="rgb(132, 0, 0)" fill="none" stroke-width="1.39534883721px" stroke-linecap="round"/><path d="M 543.2642116280067 462.0412514302886 L 543.2642116280067 462.0412514302886 L 544.3544496665085 462.62917135871265 L 545.3352125871809 463.23864936930727 L 546.21017429545 463.86745373028947 L 546.9830086967423 464.51335270987636 L 547.6573896964843 465.174114576285 L 548.2369912001022 465.8475075977323 L 548.7254871130224 466.53130004243553 L 549.1265513406711 467.22326017861155 L 549.4438577884749 467.92115627447754 L 549.68108036186 468.62275659825053 L 549.8418929662529 469.3258294181475 L 549.9299695070798 470.0281430023856 L 549.9489838897671 470.7274656191818 L 549.9026100197412 471.42156553675323 L 549.7945218024286 472.10821102331687 L 549.6283931432554 472.78517034708983 L 549.407897947648 473.4502117762891 L 549.1367101210329 474.1011035791318 L 548.8185035688364 474.73561402383496 L 548.4569521964847 475.35151137861567 L 548.0557299094045 475.9465639116909 L 547.6185106130218 476.5185398912777 L 547.1489682127632 477.06520758559327 L 546.6507766140548 477.5843352628545 L 546.1276097223233 478.0736911912785 L 545.5831414429949 478.5310436390823 L 545.0210456814959 478.9541608744831 L 544.4449963432528 479.34081116569774 L 543.8586673336918 479.68876278094336 L 543.2657325582393 479.99578398843704 L 543.2657325582393 479.99578398843704" stroke="rgb(132, 0, 0)" fill="none" stroke-width="1.39534883721px" stroke-linecap="round"/><path d="M 525.7939209303235 462.0324049186607 L 525.7939209303235 462.0324049186607 L 524.7036828918217 462.62032484708476 L 523.7229199711494 463.2298028576794 L 522.8479582628802 463.8586072186616 L 522.0751238615878 464.50450619824846 L 521.4007428618459 465.1652680646571 L 520.821141358228 465.8386610861044 L 520.3326454453079 466.52245353080764 L 519.9315812176591 467.2144136669837 L 519.6142747698553 467.91230976284965 L 519.3770521964701 468.61391008662264 L 519.2162395920773 469.3169829065196 L 519.1281630512503 470.0192964907577 L 519.1091486685631 470.71861910755393 L 519.1555225385889 471.41271902512534 L 519.2636107559016 472.099364511689 L 519.4297394150748 472.77632383546194 L 519.6502346106822 473.4413652646612 L 519.9214224372973 474.0922570675039 L 520.2396289894939 474.7267675122071 L 520.6011803618454 475.3426648669878 L 521.0024026489258 475.937717400063 L 521.4396219453084 476.50969337964983 L 521.909164345567 477.0563610739654 L 522.4073559442753 477.5754887512266 L 522.9305228360068 478.0648446796506 L 523.4749911153352 478.52219712745443 L 524.0370868768342 478.9453143628552 L 524.6131362150774 479.33196465406985 L 525.1994652246384 479.67991626931547 L 525.7924000000909 479.9869374768092 L 525.7924000000909 479.9869374768092" stroke="rgb(132, 0, 0)" fill="none" stroke-width="1.39534883721px" stroke-linecap="round"/><text x="535.9373395349796" y="483.49330704215976" fill="rgb(15, 15, 15)" font-family="sans-serif" text-anchor="middle" dominant-baseline="hanging" font-size="12.55813953489px">SJ2</text></g><g class="trace" data-circuit-json-type="schematic_trace" data-schematic-trace-id="schematic_trace_0"><path d="M 339.1488372093 275.58139534879996 L 297.288372093 275.58139534879996 L 255.42790697669997 275.58139534879996" class="trace-invisible-hover-outline" stroke="rgb(0, 150, 0)" fill="none" stroke-width="11.16279069768px" stroke-linecap="round" opacity="0" stroke-linejoin="round"/><path d="M 339.1488372093 275.58139534879996 L 297.288372093 275.58139534879996 L 255.42790697669997 275.58139534879996" stroke="rgb(0, 150, 0)" fill="none" stroke-width="1.39534883721px" stroke-linecap="round" stroke-linejoin="round"/></g><g class="trace" data-circuit-json-type="schematic_trace" data-schematic-trace-id="schematic_trace_1"><path d="M 478.6837209303 275.58139534879996 L 534.7413581396304 275.58139534879996 L 534.7413581396304 438.49059767446283 L 534.7413581396304 446.33030026749003" class="trace-invisible-hover-outline" stroke="rgb(0, 150, 0)" fill="none" stroke-width="11.16279069768px" stroke-linecap="round" opacity="0" stroke-linejoin="round"/><path d="M 478.6837209303 275.58139534879996 L 534.7413581396304 275.58139534879996 L 534.7413581396304 438.49059767446283 L 534.7413581396304 446.33030026749003" stroke="rgb(0, 150, 0)" fill="none" stroke-width="1.39534883721px" stroke-linecap="round" stroke-linejoin="round"/></g><g class="trace" data-circuit-json-type="schematic_trace" data-schematic-trace-id="schematic_trace_2"><path d="M 548.4702267442883 181.30529999991563 L 550.3513645349869 181.30529999991563 L 550.3513645349869 157.07880491850815 L 552.2325023256856 157.07880491850815" class="trace-invisible-hover-outline" stroke="rgb(0, 150, 0)" fill="none" stroke-width="11.16279069768px" stroke-linecap="round" opacity="0" stroke-linejoin="round"/><path d="M 548.4702267442883 181.30529999991563 L 550.3513645349869 181.30529999991563 L 550.3513645349869 157.07880491850815 L 552.2325023256856 157.07880491850815" stroke="rgb(0, 150, 0)" fill="none" stroke-width="1.39534883721px" stroke-linecap="round" stroke-linejoin="round"/></g><g class="trace" data-circuit-json-type="schematic_trace" data-schematic-trace-id="schematic_trace_3"><path d="M 618.2376686047883 181.30529999991563 L 616.3374668606014 181.30529999991563 L 616.3374668606014 157.08748398827558 L 614.4372651164144 157.08748398827558" class="trace-invisible-hover-outline" stroke="rgb(0, 150, 0)" fill="none" stroke-width="11.16279069768px" stroke-linecap="round" opacity="0" stroke-linejoin="round"/><path d="M 618.2376686047883 181.30529999991563 L 616.3374668606014 181.30529999991563 L 616.3374668606014 157.08748398827558 L 614.4372651164144 157.08748398827558" stroke="rgb(0, 150, 0)" fill="none" stroke-width="1.39534883721px" stroke-linecap="round" stroke-linejoin="round"/></g><g class="trace" data-circuit-json-type="schematic_trace" data-schematic-trace-id="schematic_trace_4"><path d="M 447.3784209302844 470.9492965116883 L 475.38685697681 470.9492965116883 L 475.38685697681 471.03229329075816 L 503.3952930233356 471.03229329075816" class="trace-invisible-hover-outline" stroke="rgb(0, 150, 0)" fill="none" stroke-width="11.16279069768px" stroke-linecap="round" opacity="0" stroke-linejoin="round"/><path d="M 447.3784209302844 470.9492965116883 L 475.38685697681 470.9492965116883 L 475.38685697681 471.03229329075816 L 503.3952930233356 471.03229329075816" stroke="rgb(0, 150, 0)" fill="none" stroke-width="1.39534883721px" stroke-linecap="round" stroke-linejoin="round"/></g><path class="net-label" d="
    M 339.1488372093,289.5348837209
    L 335.381395348833,297.06976744183396
    L 300.9348837209088,297.06976744183396
    L 300.9348837209088,281.999999999966
    L 335.381395348833,281.999999999966
    Z
  " fill="rgba(255, 255, 255, 0.6)" stroke="rgb(132, 0, 0)" stroke-width="1.39534883721px"/><text class="net-label-text" x="332.869767441855" y="289.5348837209" fill="rgb(132, 0, 0)" text-anchor="end" dominant-baseline="central" font-family="sans-serif" font-variant-numeric="tabular-nums" font-size="12.55813953489px" transform="">GND</text><path class="net-label" d="
    M 339.1488372093,303.488372093
    L 335.381395348833,311.023255813934
    L 302.3302325581188,311.023255813934
    L 302.3302325581188,295.95348837206603
    L 335.381395348833,295.95348837206603
    Z
  " fill="rgba(255, 255, 255, 0.6)" stroke="rgb(132, 0, 0)" stroke-width="1.39534883721px"/><text class="net-label-text" x="332.869767441855" y="303.488372093" fill="rgb(132, 0, 0)" text-anchor="end" dominant-baseline="central" font-family="sans-serif" font-variant-numeric="tabular-nums" font-size="12.55813953489px" transform="">VCC</text><path class="net-label" d="
    M 478.6837209303,303.488372093
    L 482.451162790767,295.95348837206603
    L 515.0372093024112,295.95348837206603
    L 515.0372093024112,311.023255813934
    L 482.451162790767,311.023255813934
    Z
  " fill="rgba(255, 255, 255, 0.6)" stroke="rgb(132, 0, 0)" stroke-width="1.39534883721px"/><text class="net-label-text" x="484.962790697745" y="303.488372093" fill="rgb(132, 0, 0)" text-anchor="start" dominant-baseline="central" font-family="sans-serif" font-variant-numeric="tabular-nums" font-size="12.55813953489px" transform="">SDA</text><path class="net-label" d="
    M 478.6837209303,289.5348837209
    L 482.451162790767,281.999999999966
    L 513.6418604652013,281.999999999966
    L 513.6418604652013,297.06976744183396
    L 482.451162790767,297.06976744183396
    Z
  " fill="rgba(255, 255, 255, 0.6)" stroke="rgb(132, 0, 0)" stroke-width="1.39534883721px"/><text class="net-label-text" x="484.962790697745" y="289.5348837209" fill="rgb(132, 0, 0)" text-anchor="start" dominant-baseline="central" font-family="sans-serif" font-variant-numeric="tabular-nums" font-size="12.55813953489px" transform="">SCL</text><path class="net-label" d="
    M 548.4320988373116,258.22958372088436
    L 555.9669825582456,261.99702558135135
    L 555.9669825582456,293.18772325578556
    L 540.8972151163777,293.18772325578556
    L 540.8972151163777,261.99702558135135
    Z
  " fill="rgba(255, 255, 255, 0.6)" stroke="rgb(132, 0, 0)" stroke-width="1.39534883721px"/><text class="net-label-text" x="548.4320988373116" y="264.50865348832934" fill="rgb(132, 0, 0)" text-anchor="start" dominant-baseline="central" font-family="sans-serif" font-variant-numeric="tabular-nums" font-size="12.55813953489px" transform="rotate(90 548.4320988373116 264.50865348832934)">SCL</text><path class="net-label" d="
    M 618.1995406978117,258.22958372088436
    L 625.7344244187457,261.99702558135135
    L 625.7344244187457,294.58307209299556
    L 610.6646569768777,294.58307209299556
    L 610.6646569768777,261.99702558135135
    Z
  " fill="rgba(255, 255, 255, 0.6)" stroke="rgb(132, 0, 0)" stroke-width="1.39534883721px"/><text class="net-label-text" x="618.1995406978117" y="264.50865348832934" fill="rgb(132, 0, 0)" text-anchor="start" dominant-baseline="central" font-family="sans-serif" font-variant-numeric="tabular-nums" font-size="12.55813953489px" transform="rotate(90 618.1995406978117 264.50865348832934)">SDA</text><path class="net-label" d="
    M 370.4541372093156,470.91116860471163
    L 366.6866953488486,478.4460523256456
    L 332.2401837209244,478.4460523256456
    L 332.2401837209244,463.37628488377766
    L 366.6866953488486,463.37628488377766
    Z
  " fill="rgba(255, 255, 255, 0.6)" stroke="rgb(132, 0, 0)" stroke-width="1.39534883721px"/><text class="net-label-text" x="364.1750674418706" y="470.91116860471163" fill="rgb(132, 0, 0)" text-anchor="end" dominant-baseline="central" font-family="sans-serif" font-variant-numeric="tabular-nums" font-size="12.55813953489px" transform="">GND</text><rect class="component-overlay" x="751.2191500002037" y="221.46155581388913" width="12.926476744192314" height="28.57408604652599" fill="transparent"/><path d="M 757.580273256021 221.46155581388913 L 751.2191500002037 234.79206976738422" stroke="rgb(132, 0, 0)" fill="none" stroke-width="1.39534883721px" stroke-linecap="round"/><path d="M 757.784503488579 221.46850465109844 L 764.145626744396 234.79905348831446" stroke="rgb(132, 0, 0)" fill="none" stroke-width="1.39534883721px" stroke-linecap="round"/><path d="M 757.6538848839278 221.81330232551727 L 757.6538848839278 250.03564186041513" stroke="rgb(132, 0, 0)" fill="none" stroke-width="1.39534883721px" stroke-linecap="round"/><text x="757.34182209323" y="217.3730999999337" fill="rgb(15, 15, 15)" font-family="sans-serif" text-anchor="middle" dominant-baseline="ideographic" font-size="12.55813953489px">VCC</text><rect class="component-overlay" x="741.709303488571" y="327.915753488361" width="31.347997674434282" height="33.727632558156415" fill="transparent"/><path d="M 757.6967779071837 327.915753488361 L 757.6967779071837 350.91343255813996" stroke="rgb(132, 0, 0)" fill="none" stroke-width="1.39534883721px" stroke-linecap="round"/><path d="M 741.709303488571 350.91114418604695 L 773.0573011630053 350.91114418604695" stroke="rgb(132, 0, 0)" fill="none" stroke-width="1.39534883721px" stroke-linecap="round"/><path d="M 745.6278058141544 356.2772651162822 L 769.1387988374219 356.2772651162822" stroke="rgb(132, 0, 0)" fill="none" stroke-width="1.39534883721px" stroke-linecap="round"/><path d="M 753.464803488577 361.64338604651743 L 761.3018011629995 361.64338604651743" stroke="rgb(132, 0, 0)" fill="none" stroke-width="1.39534883721px" stroke-linecap="round"/><text x="756.1943220932294" y="369.81530930233544" fill="rgb(15, 15, 15)" font-family="sans-serif" text-anchor="middle" dominant-baseline="hanging" font-size="12.55813953489px">GND</text><path class="net-label" d="
    M 255.42790697669997,289.5348837209
    L 259.195348837167,281.999999999966
    L 293.64186046509116,281.999999999966
    L 293.64186046509116,297.06976744183396
    L 259.195348837167,297.06976744183396
    Z
  " fill="rgba(255, 255, 255, 0.6)" stroke="rgb(132, 0, 0)" stroke-width="1.39534883721px"/><text class="net-label-text" x="261.706976744145" y="289.5348837209" fill="rgb(132, 0, 0)" text-anchor="start" dominant-baseline="central" font-family="sans-serif" font-variant-numeric="tabular-nums" font-size="12.55813953489px" transform="">GND</text><path class="net-label" d="
    M 1036.8232558143,268.60465116275
    L 1040.590697674767,261.069767441816
    L 1075.037209302691,261.069767441816
    L 1075.037209302691,276.13953488368395
    L 1040.590697674767,276.13953488368395
    Z
  " fill="rgba(255, 255, 255, 0.6)" stroke="rgb(132, 0, 0)" stroke-width="1.39534883721px"/><text class="net-label-text" x="1043.102325581745" y="268.60465116275" fill="rgb(132, 0, 0)" text-anchor="start" dominant-baseline="central" font-family="sans-serif" font-variant-numeric="tabular-nums" font-size="12.55813953489px" transform="">GND</text><path class="net-label" d="
    M 1036.8232558143,296.51162790694997
    L 1040.590697674767,288.976744186016
    L 1073.1767441864113,288.976744186016
    L 1073.1767441864113,304.04651162788394
    L 1040.590697674767,304.04651162788394
    Z
  " fill="rgba(255, 255, 255, 0.6)" stroke="rgb(132, 0, 0)" stroke-width="1.39534883721px"/><text class="net-label-text" x="1043.102325581745" y="296.51162790694997" fill="rgb(132, 0, 0)" text-anchor="start" dominant-baseline="central" font-family="sans-serif" font-variant-numeric="tabular-nums" font-size="12.55813953489px" transform="">SDA</text><path class="net-label" d="
    M 1036.8232558143,310.46511627905
    L 1040.590697674767,302.930232558116
    L 1071.7813953492011,302.930232558116
    L 1071.7813953492011,317.99999999998397
    L 1040.590697674767,317.99999999998397
    Z
  " fill="rgba(255, 255, 255, 0.6)" stroke="rgb(132, 0, 0)" stroke-width="1.39534883721px"/><text class="net-label-text" x="1043.102325581745" y="310.46511627905" fill="rgb(132, 0, 0)" text-anchor="start" dominant-baseline="central" font-family="sans-serif" font-variant-numeric="tabular-nums" font-size="12.55813953489px" transform="">SCL</text><path class="net-label" d="
    M 1036.8232558143,282.55813953485
    L 1040.590697674767,275.023255813916
    L 1073.6418604654812,275.023255813916
    L 1073.6418604654812,290.093023255784
    L 1040.590697674767,290.093023255784
    Z
  " fill="rgba(255, 255, 255, 0.6)" stroke="rgb(132, 0, 0)" stroke-width="1.39534883721px"/><text class="net-label-text" x="1043.102325581745" y="282.55813953485" fill="rgb(132, 0, 0)" text-anchor="start" dominant-baseline="central" font-family="sans-serif" font-variant-numeric="tabular-nums" font-size="12.55813953489px" transform="">VCC</text><rect class="component-overlay" x="577.0633000001167" y="102.7599467789461" width="12.926476744192314" height="28.57408604652599" fill="transparent"/><path d="M 583.4244232559339 102.7599467789461 L 577.0633000001167 116.09046073244117" stroke="rgb(132, 0, 0)" fill="none" stroke-width="1.39534883721px" stroke-linecap="round"/><path d="M 583.628653488492 102.76689561615541 L 589.989776744309 116.09744445337142" stroke="rgb(132, 0, 0)" fill="none" stroke-width="1.39534883721px" stroke-linecap="round"/><path d="M 583.4980348838408 103.11169329057422 L 583.4980348838408 131.3340328254721" stroke="rgb(132, 0, 0)" fill="none" stroke-width="1.39534883721px" stroke-linecap="round"/><text x="583.1859720931429" y="98.67149096499064" fill="rgb(15, 15, 15)" font-family="sans-serif" text-anchor="middle" dominant-baseline="ideographic" font-size="12.55813953489px">VCC</text><path class="net-label" d="
    M 565.6000558140644,471.0409723605256
    L 569.3674976745314,463.5060886395916
    L 602.4186604652456,463.5060886395916
    L 602.4186604652456,478.57585608145956
    L 569.3674976745314,478.57585608145956
    Z
  " fill="rgba(255, 255, 255, 0.6)" stroke="rgb(132, 0, 0)" stroke-width="1.39534883721px"/><text class="net-label-text" x="571.8791255815094" y="471.0409723605256" fill="rgb(132, 0, 0)" text-anchor="start" dominant-baseline="central" font-family="sans-serif" font-variant-numeric="tabular-nums" font-size="12.55813953489px" transform="">VCC</text><text x="548.4511627908" y="45.34883720914999" fill="#000000" text-anchor="start" dominant-baseline="middle" font-family="sans-serif" font-size="20.93023255815px" transform="rotate(0, 548.4511627908, 45.34883720914999)">Vcc = 2.7V to 5.5V</text><text x="548.4511627908" y="533.72093023265" fill="#000000" text-anchor="start" dominant-baseline="middle" font-family="sans-serif" font-size="20.93023255815px" transform="rotate(0, 548.4511627908, 533.72093023265)">I2C Address</text><text x="548.4511627908" y="554.6511627908" fill="#000000" text-anchor="start" dominant-baseline="middle" font-family="sans-serif" font-size="20.93023255815px" transform="rotate(0, 548.4511627908, 554.6511627908)">GND = 1100000 (0x60) (Default)</text><text x="548.4511627908" y="512.7906976745" fill="#000000" text-anchor="start" dominant-baseline="middle" font-family="sans-serif" font-size="20.93023255815px" transform="rotate(0, 548.4511627908, 512.7906976745)">VCC - 1100001 (0x61)</text></svg>