<svg xmlns="http://www.w3.org/2000/svg" width="800" height="600" data-software-used-string="@tscircuit/core@0.0.611"><style></style><rect class="boundary" x="0" y="0" fill="#000" width="800" height="600"/><rect class="pcb-boundary" fill="none" stroke="#fff" stroke-width="0.3" x="177.51824817518246" y="21.89781021897801" width="444.96350364963513" height="556.2043795620439"/><path class="pcb-board" d="M 205.32846715328463 578.1021897810219 L 594.6715328467153 578.1021897810219 L 594.6715328467153 21.89781021897801 L 205.32846715328463 21.89781021897801 Z" fill="none" stroke="rgba(255, 255, 255, 0.5)" stroke-width="2.1897810218978107"/><rect class="pcb-pad" fill="rgb(200, 52, 52)" x="269.70802919708024" y="170.25547445255467" width="85.4014598540146" height="13.138686131386862" data-layer="top"/><rect class="pcb-pad" fill="rgb(200, 52, 52)" x="269.70802919708024" y="197.6277372262773" width="85.4014598540146" height="13.138686131386862" data-layer="top"/><rect class="pcb-pad" fill="rgb(200, 52, 52)" x="269.70802919708024" y="224.99999999999994" width="85.4014598540146" height="13.138686131386862" data-layer="top"/><rect class="pcb-pad" fill="rgb(200, 52, 52)" x="269.70802919708024" y="252.37226277372258" width="85.4014598540146" height="13.138686131386862" data-layer="top"/><rect class="pcb-pad" fill="rgb(200, 52, 52)" x="269.70802919708024" y="279.7445255474452" width="85.4014598540146" height="13.138686131386862" data-layer="top"/><rect class="pcb-pad" fill="rgb(200, 52, 52)" x="269.70802919708024" y="307.1167883211678" width="85.4014598540146" height="13.138686131386862" data-layer="top"/><rect class="pcb-pad" fill="rgb(200, 52, 52)" x="269.70802919708024" y="334.48905109489044" width="85.4014598540146" height="13.138686131386862" data-layer="top"/><rect class="pcb-pad" fill="rgb(200, 52, 52)" x="269.70802919708024" y="361.8613138686131" width="85.4014598540146" height="13.138686131386862" data-layer="top"/><rect class="pcb-pad" fill="rgb(200, 52, 52)" x="269.70802919708024" y="389.2335766423357" width="85.4014598540146" height="13.138686131386862" data-layer="top"/><rect class="pcb-pad" fill="rgb(200, 52, 52)" x="269.70802919708024" y="416.60583941605836" width="85.4014598540146" height="13.138686131386862" data-layer="top"/><rect class="pcb-pad" fill="rgb(200, 52, 52)" x="444.8905109489051" y="416.60583941605836" width="85.4014598540146" height="13.138686131386862" data-layer="top"/><rect class="pcb-pad" fill="rgb(200, 52, 52)" x="444.8905109489051" y="389.2335766423357" width="85.4014598540146" height="13.138686131386862" data-layer="top"/><rect class="pcb-pad" fill="rgb(200, 52, 52)" x="444.8905109489051" y="361.8613138686131" width="85.4014598540146" height="13.138686131386862" data-layer="top"/><rect class="pcb-pad" fill="rgb(200, 52, 52)" x="444.8905109489051" y="334.48905109489044" width="85.4014598540146" height="13.138686131386862" data-layer="top"/><rect class="pcb-pad" fill="rgb(200, 52, 52)" x="444.8905109489051" y="307.1167883211678" width="85.4014598540146" height="13.138686131386862" data-layer="top"/><rect class="pcb-pad" fill="rgb(200, 52, 52)" x="444.8905109489051" y="279.7445255474452" width="85.4014598540146" height="13.138686131386862" data-layer="top"/><rect class="pcb-pad" fill="rgb(200, 52, 52)" x="444.8905109489051" y="252.37226277372258" width="85.4014598540146" height="13.138686131386862" data-layer="top"/><rect class="pcb-pad" fill="rgb(200, 52, 52)" x="444.8905109489051" y="224.99999999999994" width="85.4014598540146" height="13.138686131386862" data-layer="top"/><rect class="pcb-pad" fill="rgb(200, 52, 52)" x="444.8905109489051" y="197.6277372262773" width="85.4014598540146" height="13.138686131386862" data-layer="top"/><rect class="pcb-pad" fill="rgb(200, 52, 52)" x="444.8905109489051" y="170.25547445255467" width="85.4014598540146" height="13.138686131386862" data-layer="top"/><path class="pcb-silkscreen pcb-silkscreen-top" d="M 357.29927007299267 436.5875912408759 L 357.29927007299267 163.41240875912402 L 385.7664233576642 163.41240875912402 L 386.8498898657153 168.85936272344466 L 389.9353414356659 173.47706732345807 L 394.55304603567936 176.56251889340876 L 400 177.6459854014598 L 405.44695396432064 176.56251889340876 L 410.0646585643341 173.47706732345807 L 413.1501101342847 168.85936272344466 L 414.2335766423358 163.41240875912402 L 442.70072992700733 163.41240875912402 L 442.70072992700733 436.5875912408759 L 357.29927007299267 436.5875912408759 Z" fill="none" stroke="#f2eda1" stroke-width="2.1897810218978107" stroke-linecap="round" stroke-linejoin="round" data-pcb-component-id="pcb_component_1" data-pcb-silkscreen-path-id="pcb_silkscreen_path_0"/><text x="0" y="0" dx="0" dy="0" fill="#f2eda1" font-family="Arial, sans-serif" font-size="32.846715328467155" text-anchor="middle" dominant-baseline="central" transform="matrix(1,0,0,1,268.6131386861314,43.79562043795613)" class="pcb-silkscreen-text pcb-silkscreen-top" data-pcb-silkscreen-text-id="null" stroke="none">1</text><text x="0" y="0" dx="0" dy="0" fill="#f2eda1" font-family="Arial, sans-serif" font-size="32.846715328467155" text-anchor="middle" dominant-baseline="central" transform="matrix(1,0,0,1,520.4379562043796,43.79562043795613)" class="pcb-silkscreen-text pcb-silkscreen-top" data-pcb-silkscreen-text-id="null" stroke="none">20</text><text x="0" y="0" dx="0" dy="0" fill="#f2eda1" font-family="Arial, sans-serif" font-size="32.846715328467155" text-anchor="middle" dominant-baseline="central" transform="matrix(1,0,0,1,400,551.8248175182482)" class="pcb-silkscreen-text pcb-silkscreen-top" data-pcb-silkscreen-text-id="null" stroke="none">SOIC-20</text><text x="0" y="0" dx="0" dy="0" fill="#f2eda1" font-family="Arial, sans-serif" font-size="15.328467153284672" text-anchor="middle" dominant-baseline="central" transform="matrix(-1.8369701987210297e-16,-1,1,-1.8369701987210297e-16,177.51824817518246,299.99999999999994)" class="pcb-silkscreen-text pcb-silkscreen-top" data-pcb-silkscreen-text-id="pcb_component_0" stroke="none">JP1</text><text x="0" y="0" dx="0" dy="0" fill="#f2eda1" font-family="Arial, sans-serif" font-size="27.14416058394161" text-anchor="middle" dominant-baseline="central" transform="matrix(1,0,0,1,400,154.65328467153276)" class="pcb-silkscreen-text pcb-silkscreen-top" data-pcb-silkscreen-text-id="pcb_component_1" stroke="none">U1</text><text x="0" y="0" dx="0" dy="0" fill="#f2eda1" font-family="Arial, sans-serif" font-size="15.328467153284672" text-anchor="middle" dominant-baseline="central" transform="matrix(6.123233995736766e-17,1,-1,6.123233995736766e-17,622.4817518248176,299.99999999999994)" class="pcb-silkscreen-text pcb-silkscreen-top" data-pcb-silkscreen-text-id="pcb_component_2" stroke="none">JP2</text><g><circle class="pcb-hole-outer" fill="rgb(200, 52, 52)" cx="233.13868613138683" cy="550.2919708029196" r="17.802919708029197"/><circle class="pcb-hole-inner" fill="#FF26E2" cx="233.13868613138683" cy="550.2919708029196" r="11.124087591240878"/></g><g><circle class="pcb-hole-outer" fill="rgb(200, 52, 52)" cx="233.13868613138683" cy="494.6715328467153" r="17.802919708029197"/><circle class="pcb-hole-inner" fill="#FF26E2" cx="233.13868613138683" cy="494.6715328467153" r="11.124087591240878"/></g><g><circle class="pcb-hole-outer" fill="rgb(200, 52, 52)" cx="233.13868613138683" cy="439.0510948905109" r="17.802919708029197"/><circle class="pcb-hole-inner" fill="#FF26E2" cx="233.13868613138683" cy="439.0510948905109" r="11.124087591240878"/></g><g><circle class="pcb-hole-outer" fill="rgb(200, 52, 52)" cx="233.13868613138683" cy="383.4306569343065" r="17.802919708029197"/><circle class="pcb-hole-inner" fill="#FF26E2" cx="233.13868613138683" cy="383.4306569343065" r="11.124087591240878"/></g><g><circle class="pcb-hole-outer" fill="rgb(200, 52, 52)" cx="233.13868613138683" cy="327.8102189781021" r="17.802919708029197"/><circle class="pcb-hole-inner" fill="#FF26E2" cx="233.13868613138683" cy="327.8102189781021" r="11.124087591240878"/></g><g><circle class="pcb-hole-outer" fill="rgb(200, 52, 52)" cx="233.13868613138683" cy="272.1897810218978" r="17.802919708029197"/><circle class="pcb-hole-inner" fill="#FF26E2" cx="233.13868613138683" cy="272.1897810218978" r="11.124087591240878"/></g><g><circle class="pcb-hole-outer" fill="rgb(200, 52, 52)" cx="233.13868613138683" cy="216.56934306569337" r="17.802919708029197"/><circle class="pcb-hole-inner" fill="#FF26E2" cx="233.13868613138683" cy="216.56934306569337" r="11.124087591240878"/></g><g><circle class="pcb-hole-outer" fill="rgb(200, 52, 52)" cx="233.13868613138683" cy="160.94890510948895" r="17.802919708029197"/><circle class="pcb-hole-inner" fill="#FF26E2" cx="233.13868613138683" cy="160.94890510948895" r="11.124087591240878"/></g><g><circle class="pcb-hole-outer" fill="rgb(200, 52, 52)" cx="233.13868613138686" cy="105.32846715328458" r="17.802919708029197"/><circle class="pcb-hole-inner" fill="#FF26E2" cx="233.13868613138686" cy="105.32846715328458" r="11.124087591240878"/></g><g><circle class="pcb-hole-outer" fill="rgb(200, 52, 52)" cx="233.13868613138686" cy="49.70802919708021" r="17.802919708029197"/><circle class="pcb-hole-inner" fill="#FF26E2" cx="233.13868613138686" cy="49.70802919708021" r="11.124087591240878"/></g><g><circle class="pcb-hole-outer" fill="rgb(200, 52, 52)" cx="566.8613138686133" cy="49.70802919708021" r="17.802919708029197"/><circle class="pcb-hole-inner" fill="#FF26E2" cx="566.8613138686133" cy="49.70802919708021" r="11.124087591240878"/></g><g><circle class="pcb-hole-outer" fill="rgb(200, 52, 52)" cx="566.8613138686133" cy="105.32846715328458" r="17.802919708029197"/><circle class="pcb-hole-inner" fill="#FF26E2" cx="566.8613138686133" cy="105.32846715328458" r="11.124087591240878"/></g><g><circle class="pcb-hole-outer" fill="rgb(200, 52, 52)" cx="566.8613138686131" cy="160.94890510948898" r="17.802919708029197"/><circle class="pcb-hole-inner" fill="#FF26E2" cx="566.8613138686131" cy="160.94890510948898" r="11.124087591240878"/></g><g><circle class="pcb-hole-outer" fill="rgb(200, 52, 52)" cx="566.8613138686131" cy="216.56934306569337" r="17.802919708029197"/><circle class="pcb-hole-inner" fill="#FF26E2" cx="566.8613138686131" cy="216.56934306569337" r="11.124087591240878"/></g><g><circle class="pcb-hole-outer" fill="rgb(200, 52, 52)" cx="566.8613138686131" cy="272.1897810218978" r="17.802919708029197"/><circle class="pcb-hole-inner" fill="#FF26E2" cx="566.8613138686131" cy="272.1897810218978" r="11.124087591240878"/></g><g><circle class="pcb-hole-outer" fill="rgb(200, 52, 52)" cx="566.8613138686131" cy="327.8102189781021" r="17.802919708029197"/><circle class="pcb-hole-inner" fill="#FF26E2" cx="566.8613138686131" cy="327.8102189781021" r="11.124087591240878"/></g><g><circle class="pcb-hole-outer" fill="rgb(200, 52, 52)" cx="566.8613138686131" cy="383.4306569343065" r="17.802919708029197"/><circle class="pcb-hole-inner" fill="#FF26E2" cx="566.8613138686131" cy="383.4306569343065" r="11.124087591240878"/></g><g><circle class="pcb-hole-outer" fill="rgb(200, 52, 52)" cx="566.8613138686131" cy="439.05109489051097" r="17.802919708029197"/><circle class="pcb-hole-inner" fill="#FF26E2" cx="566.8613138686131" cy="439.05109489051097" r="11.124087591240878"/></g><g><circle class="pcb-hole-outer" fill="rgb(200, 52, 52)" cx="566.8613138686131" cy="494.6715328467153" r="17.802919708029197"/><circle class="pcb-hole-inner" fill="#FF26E2" cx="566.8613138686131" cy="494.6715328467153" r="11.124087591240878"/></g><g><circle class="pcb-hole-outer" fill="rgb(200, 52, 52)" cx="566.8613138686131" cy="550.2919708029196" r="17.802919708029197"/><circle class="pcb-hole-inner" fill="#FF26E2" cx="566.8613138686131" cy="550.2919708029196" r="11.124087591240878"/></g></svg>