<svg xmlns="http://www.w3.org/2000/svg" width="800" height="600" data-software-used-string="@tscircuit/core@0.0.1015"><style></style><rect class="boundary" x="0" y="0" fill="#000" width="800" height="600" data-type="pcb_background" data-pcb-layer="global"/><rect class="pcb-boundary" fill="none" stroke="#fff" stroke-width="0.3" x="30.101731812834714" y="70.62480358619962" width="739.7965363743306" height="458.75039282760065" data-type="pcb_boundary" data-pcb-layer="global"/><path class="pcb-board" d="M 120.00187834806434 529.3751964138003 L 769.8982681871653 529.3751964138003 L 769.8982681871653 70.62480358619962 L 120.00187834806434 70.62480358619962 Z" fill="none" stroke="rgba(255, 255, 255, 0.5)" stroke-width="3.010173181283469" data-type="pcb_board" data-pcb-layer="board"/><path class="pcb-trace" stroke="rgb(77, 127, 196)" fill="none" d="M 693.4398693825652 147.08320239079973 L 570.6761589030893 269.8469128702756" stroke-width="4.515259771925203" stroke-linecap="round" stroke-linejoin="round" shape-rendering="crispEdges" data-type="pcb_trace" data-pcb-layer="bottom"/><path class="pcb-trace" stroke="rgb(77, 127, 196)" fill="none" d="M 570.6761589030893 269.8469128702756 L 259.3680466372431 269.8469128702756" stroke-width="4.515259771925203" stroke-linecap="round" stroke-linejoin="round" shape-rendering="crispEdges" data-type="pcb_trace" data-pcb-layer="bottom"/><path class="pcb-trace" stroke="rgb(77, 127, 196)" fill="none" d="M 259.3680466372431 269.8469128702756 L 256.8675914685882 269.8469128702756" stroke-width="4.515259771925203" stroke-linecap="round" stroke-linejoin="round" shape-rendering="crispEdges" data-type="pcb_trace" data-pcb-layer="bottom"/><path class="pcb-trace" stroke="rgb(77, 127, 196)" fill="none" d="M 256.8675914685882 269.8469128702756 L 226.7145043388648 299.9999999999991" stroke-width="4.515259771925203" stroke-linecap="round" stroke-linejoin="round" shape-rendering="crispEdges" data-type="pcb_trace" data-pcb-layer="bottom"/><text x="0" y="0" dx="0" dy="0" fill="#5da9e9" font-family="Arial, sans-serif" font-size="17.33859752419278" text-anchor="start" dominant-baseline="central" transform="matrix(-6.123233995736766e-17,-1,-1,6.123233995736766e-17,650.9964275264683,147.08320239079973)" class="pcb-silkscreen-text pcb-silkscreen-bottom" data-pcb-silkscreen-text-id="pcb_component_1" stroke="none" data-type="pcb_silkscreen_text" data-pcb-layer="bottom">GND</text><text x="0" y="0" dx="0" dy="0" fill="#5da9e9" font-family="Arial, sans-serif" font-size="17.33859752419278" text-anchor="start" dominant-baseline="central" transform="matrix(-6.123233995736766e-17,-1,-1,6.123233995736766e-17,650.9964275264683,223.54160119539983)" class="pcb-silkscreen-text pcb-silkscreen-bottom" data-pcb-silkscreen-text-id="pcb_component_1" stroke="none" data-type="pcb_silkscreen_text" data-pcb-layer="bottom">RING</text><text x="0" y="0" dx="0" dy="0" fill="#5da9e9" font-family="Arial, sans-serif" font-size="17.33859752419278" text-anchor="start" dominant-baseline="central" transform="matrix(-6.123233995736766e-17,-1,-1,6.123233995736766e-17,650.9964275264683,299.99999999999994)" class="pcb-silkscreen-text pcb-silkscreen-bottom" data-pcb-silkscreen-text-id="pcb_component_1" stroke="none" data-type="pcb_silkscreen_text" data-pcb-layer="bottom">RING_SHUNT</text><text x="0" y="0" dx="0" dy="0" fill="#5da9e9" font-family="Arial, sans-serif" font-size="17.33859752419278" text-anchor="start" dominant-baseline="central" transform="matrix(-6.123233995736766e-17,-1,-1,6.123233995736766e-17,650.9964275264683,376.45839880460005)" class="pcb-silkscreen-text pcb-silkscreen-bottom" data-pcb-silkscreen-text-id="pcb_component_1" stroke="none" data-type="pcb_silkscreen_text" data-pcb-layer="bottom">TIP_SHUNT</text><text x="0" y="0" dx="0" dy="0" fill="#5da9e9" font-family="Arial, sans-serif" font-size="17.33859752419278" text-anchor="start" dominant-baseline="central" transform="matrix(-6.123233995736766e-17,-1,-1,6.123233995736766e-17,650.9964275264683,452.91679760920016)" class="pcb-silkscreen-text pcb-silkscreen-bottom" data-pcb-silkscreen-text-id="pcb_component_1" stroke="none" data-type="pcb_silkscreen_text" data-pcb-layer="bottom">TIP</text><path class="pcb-trace" stroke="rgb(200, 52, 52)" fill="none" d="M 693.4398693825652 452.91679760920016 L 379.631301948065 452.91679760920016" stroke-width="4.515259771925203" stroke-linecap="round" stroke-linejoin="round" shape-rendering="crispEdges" data-type="pcb_trace" data-pcb-layer="top"/><path class="pcb-trace" stroke="rgb(200, 52, 52)" fill="none" d="M 379.631301948065 452.91679760920016 L 377.22286238571826 450.50835804685346" stroke-width="4.515259771925203" stroke-linecap="round" stroke-linejoin="round" shape-rendering="crispEdges" data-type="pcb_trace" data-pcb-layer="top"/><path class="pcb-trace" stroke="rgb(200, 52, 52)" fill="none" d="M 693.4398693825652 376.45839880460005 L 378.1021339719716 376.45839880460005" stroke-width="4.515259771925203" stroke-linecap="round" stroke-linejoin="round" shape-rendering="crispEdges" data-type="pcb_trace" data-pcb-layer="top"/><path class="pcb-trace" stroke="rgb(200, 52, 52)" fill="none" d="M 378.1021339719716 376.45839880460005 L 377.2228623857183 375.57912721834674" stroke-width="4.515259771925203" stroke-linecap="round" stroke-linejoin="round" shape-rendering="crispEdges" data-type="pcb_trace" data-pcb-layer="top"/><path class="pcb-trace" stroke="rgb(200, 52, 52)" fill="none" d="M 693.4398693825652 299.99999999999994 L 452.15209321422674 299.99999999999994" stroke-width="4.515259771925203" stroke-linecap="round" stroke-linejoin="round" shape-rendering="crispEdges" data-type="pcb_trace" data-pcb-layer="top"/><path class="pcb-trace" stroke="rgb(200, 52, 52)" fill="none" d="M 452.15209321422674 299.99999999999994 L 377.2228623857183 225.07076917149152" stroke-width="4.515259771925203" stroke-linecap="round" stroke-linejoin="round" shape-rendering="crispEdges" data-type="pcb_trace" data-pcb-layer="top"/><path class="pcb-trace" stroke="rgb(200, 52, 52)" fill="none" d="M 693.4398693825652 223.54160119539983 L 619.3899101403101 149.49164195314472" stroke-width="4.515259771925203" stroke-linecap="round" stroke-linejoin="round" shape-rendering="crispEdges" data-type="pcb_trace" data-pcb-layer="top"/><path class="pcb-trace" stroke="rgb(200, 52, 52)" fill="none" d="M 619.3899101403101 149.49164195314472 L 377.2228623857183 149.49164195314472" stroke-width="4.515259771925203" stroke-linecap="round" stroke-linejoin="round" shape-rendering="crispEdges" data-type="pcb_trace" data-pcb-layer="top"/><path class="pcb-silkscreen pcb-silkscreen-top" d="M 121.08722639030833 119.55817882114243 L 121.08722639030833 480.77900271758415 L 452.206378677378 480.77900271758415 L 452.206378677378 119.55817882114243 L 121.08722639030833 119.55817882114243 Z" fill="none" stroke="#f2eda1" stroke-width="3.010173181283469" stroke-linecap="round" stroke-linejoin="round" data-pcb-component-id="pcb_component_0" data-pcb-silkscreen-path-id="pcb_silkscreen_path_0" data-type="pcb_silkscreen_path" data-pcb-layer="top"/><path class="pcb-silkscreen pcb-silkscreen-top" d="M 120.40674664094752 374.81454323030016 L 30.101731812834714 374.81454323030016 L 30.101731812834714 224.30618518344494 L 120.40674664094752 224.30618518344494" fill="none" stroke="#f2eda1" stroke-width="3.010173181283469" stroke-linecap="round" stroke-linejoin="round" data-pcb-component-id="pcb_component_0" data-pcb-silkscreen-path-id="pcb_silkscreen_path_1" data-type="pcb_silkscreen_path" data-pcb-layer="top"/><path class="pcb-silkscreen pcb-silkscreen-top" d="M 151.2118355193212 126.89818510638509 L 143.9109103126495 125.6196017784772 L 137.4175367253526 122.04547480037354 L 132.43161925821022 116.56105038110488 L 129.4905774865602 109.75748091374223 L 128.9114189482048 102.36810613726237 L 130.75656969367463 95.18940827996954 L 134.827145538345 88.99516123189247 L 140.68438929133993 84.45302739218494 L 147.69696329592915 82.05259200876657 L 155.10899973673526 82.05259200876657 L 162.1215737413254 84.45302739218494 L 167.9788174943203 88.99516123189247 L 172.04939333899063 95.18940827996954 L 173.89454408446045 102.36810613726237 L 173.31538554610512 109.75748091374223 L 170.37434377445504 116.56105038110488 L 165.38842630731267 122.04547480037354 L 158.89505272001577 125.6196017784772 L 151.59412751334406 126.89818510638509" fill="none" stroke="#f2eda1" stroke-width="3.010173181283469" stroke-linecap="round" stroke-linejoin="round" data-pcb-component-id="pcb_component_0" data-pcb-silkscreen-path-id="pcb_silkscreen_path_2" data-type="pcb_silkscreen_path" data-pcb-layer="top"/><path class="pcb-silkscreen pcb-silkscreen-top" d="M 227.67023432392108 126.89818510638509 L 220.36930911725022 125.6196017784772 L 213.87593552995162 122.04547480037354 L 208.89001806281095 116.56105038110488 L 205.94897629116005 109.75748091374223 L 205.36981775280555 102.36810613726237 L 207.21496849827537 95.18940827996954 L 211.285544342944 88.99516123189247 L 217.14278809594063 84.45302739218494 L 224.15536210052986 82.05259200876657 L 231.56739854133517 82.05259200876657 L 238.5799725459244 84.45302739218494 L 244.43721629892102 88.99516123189247 L 248.50779214358965 95.18940827996954 L 250.35294288905945 102.36810613726237 L 249.77378435070497 109.75748091374223 L 246.83274257905407 116.56105038110488 L 241.8468251119134 122.04547480037354 L 235.3534515246165 125.6196017784772 L 228.05252631794394 126.89818510638509" fill="none" stroke="#f2eda1" stroke-width="3.010173181283469" stroke-linecap="round" stroke-linejoin="round" data-pcb-component-id="pcb_component_0" data-pcb-silkscreen-path-id="pcb_silkscreen_path_3" data-type="pcb_silkscreen_path" data-pcb-layer="top"/><path class="pcb-silkscreen pcb-silkscreen-top" d="M 151.2118355193212 427.9149012000947 L 143.9109103126495 426.6363178721885 L 137.4175367253526 423.062190894084 L 132.43161925821022 417.57776647481444 L 129.4905774865602 410.7741970074527 L 128.9114189482048 403.38482223097367 L 130.75656969367463 396.20612437367913 L 134.827145538345 390.01187732560203 L 140.68438929133993 385.4697434858954 L 147.69696329592915 383.06930810247616 L 155.10899973673526 383.06930810247616 L 162.1215737413254 385.4697434858954 L 167.9788174943203 390.0118773256021 L 172.04939333899063 396.20612437367913 L 173.89454408446045 403.38482223097367 L 173.31538554610512 410.7741970074527 L 170.37434377445504 417.57776647481444 L 165.38842630731267 423.062190894084 L 158.89505272001577 426.6363178721885 L 151.59412751334406 427.9149012000947" fill="none" stroke="#f2eda1" stroke-width="3.010173181283469" stroke-linecap="round" stroke-linejoin="round" data-pcb-component-id="pcb_component_0" data-pcb-silkscreen-path-id="pcb_silkscreen_path_4" data-type="pcb_silkscreen_path" data-pcb-layer="top"/><path class="pcb-silkscreen pcb-silkscreen-top" d="M 226.90565033587535 427.9149012000947 L 219.61069485341093 426.62529786436124 L 213.12589964935594 423.04383399938456 L 208.14949606310125 417.5561332421106 L 205.21730378240113 410.75306770636263 L 204.64503802710226 403.367137557765 L 206.4943158371031 396.1936012027919 L 210.5660216379596 390.00484816797547 L 216.42174642746377 385.46723431879957 L 223.43099218151144 383.06933394262836 L 230.8390588830662 383.06933394262836 L 237.848304637113 385.46723431879957 L 243.70402942661804 390.00484816797547 L 247.7757352274754 396.1936012027919 L 249.62501303747453 403.367137557765 L 249.0527472821765 410.75306770636263 L 246.12055500147554 417.5561332421106 L 241.1441514152217 423.04383399938456 L 234.6593562111667 426.62529786436124 L 227.3644007287023 427.9149012000947" fill="none" stroke="#f2eda1" stroke-width="3.010173181283469" stroke-linecap="round" stroke-linejoin="round" data-pcb-component-id="pcb_component_0" data-pcb-silkscreen-path-id="pcb_silkscreen_path_5" data-type="pcb_silkscreen_path" data-pcb-layer="top"/><path class="pcb-silkscreen pcb-silkscreen-top" d="M 377.60515437974203 277.4447723526419 L 370.3042291730686 276.166189024734 L 363.8108555857726 272.5920620466295 L 358.8249381186319 267.1076376273608 L 355.883896346981 260.3040681599982 L 355.30473780862565 252.9146933835192 L 357.14988855409626 245.7359955262255 L 361.2204643987658 239.5417484781493 L 367.07770815176156 234.99961463844176 L 374.0902821563517 232.5991792550234 L 381.5023185971561 232.5991792550234 L 388.51489260174617 234.99961463844176 L 394.37213635474194 239.54174847814932 L 398.44271219941146 245.73599552622636 L 400.2878629448812 252.91469338352005 L 399.7087044065259 260.3040681599991 L 396.7676626348759 267.10763762736167 L 391.78174516773436 272.59206204663036 L 385.28837158043655 276.16618902473573 L 377.9874463737649 277.4447723526419" fill="none" stroke="#f2eda1" stroke-width="3.010173181283469" stroke-linecap="round" stroke-linejoin="round" data-pcb-component-id="pcb_component_0" data-pcb-silkscreen-path-id="pcb_silkscreen_path_6" data-type="pcb_silkscreen_path" data-pcb-layer="top"/><text x="0" y="0" dx="0" dy="0" fill="#f2eda1" font-family="Arial, sans-serif" font-size="17.33859752419278" text-anchor="end" dominant-baseline="central" transform="matrix(6.123233995736766e-17,1,-1,6.123233995736766e-17,650.9964275264683,147.08320239079973)" class="pcb-silkscreen-text pcb-silkscreen-top" data-pcb-silkscreen-text-id="pcb_component_1" stroke="none" data-type="pcb_silkscreen_text" data-pcb-layer="top">GND</text><text x="0" y="0" dx="0" dy="0" fill="#f2eda1" font-family="Arial, sans-serif" font-size="17.33859752419278" text-anchor="end" dominant-baseline="central" transform="matrix(6.123233995736766e-17,1,-1,6.123233995736766e-17,650.9964275264683,223.54160119539983)" class="pcb-silkscreen-text pcb-silkscreen-top" data-pcb-silkscreen-text-id="pcb_component_1" stroke="none" data-type="pcb_silkscreen_text" data-pcb-layer="top">RING</text><text x="0" y="0" dx="0" dy="0" fill="#f2eda1" font-family="Arial, sans-serif" font-size="17.33859752419278" text-anchor="end" dominant-baseline="central" transform="matrix(6.123233995736766e-17,1,-1,6.123233995736766e-17,650.9964275264683,299.99999999999994)" class="pcb-silkscreen-text pcb-silkscreen-top" data-pcb-silkscreen-text-id="pcb_component_1" stroke="none" data-type="pcb_silkscreen_text" data-pcb-layer="top">RING_SHUNT</text><text x="0" y="0" dx="0" dy="0" fill="#f2eda1" font-family="Arial, sans-serif" font-size="17.33859752419278" text-anchor="end" dominant-baseline="central" transform="matrix(6.123233995736766e-17,1,-1,6.123233995736766e-17,650.9964275264683,376.45839880460005)" class="pcb-silkscreen-text pcb-silkscreen-top" data-pcb-silkscreen-text-id="pcb_component_1" stroke="none" data-type="pcb_silkscreen_text" data-pcb-layer="top">TIP_SHUNT</text><text x="0" y="0" dx="0" dy="0" fill="#f2eda1" font-family="Arial, sans-serif" font-size="17.33859752419278" text-anchor="end" dominant-baseline="central" transform="matrix(6.123233995736766e-17,1,-1,6.123233995736766e-17,650.9964275264683,452.91679760920016)" class="pcb-silkscreen-text pcb-silkscreen-top" data-pcb-silkscreen-text-id="pcb_component_1" stroke="none" data-type="pcb_silkscreen_text" data-pcb-layer="top">TIP</text><text x="0" y="0" dx="0" dy="0" fill="#f2eda1" font-family="Arial, sans-serif" font-size="21.071212268984283" text-anchor="middle" dominant-baseline="central" transform="matrix(-1.8369701987210297e-16,1,-1,-1.8369701987210297e-16,769.8982681871653,299.99999999999994)" class="pcb-silkscreen-text pcb-silkscreen-top" data-pcb-silkscreen-text-id="pcb_component_1" stroke="none" data-type="pcb_silkscreen_text" data-pcb-layer="top">JP1</text><g data-type="pcb_plated_hole" data-pcb-layer="through"><path class="pcb-hole-outer" fill="rgb(200, 52, 52)" d="M-12.040668643748425,-18.061002965622638 h24.08133728749685 a18.061002965622638,18.061002965622638 0 0 1 0,36.122005931245276 h-24.08133728749685 a18.061002965622638,18.061002965622638 0 0 1 0,-36.122005931245276 z" transform="translate(226.7145043388648 299.9999999999991)" data-type="pcb_plated_hole" data-pcb-layer="top"/><path class="pcb-hole-inner" fill="#FF26E2" d="M-12.040668643748427,-12.040668643748424 h24.081337287496854 a12.040668643748424,12.040668643748424 0 0 1 0,24.081337287496847 h-24.081337287496854 a12.040668643748424,12.040668643748424 0 0 1 0,-24.081337287496847 z" transform="translate(226.7145043388648 299.9999999999991)" data-type="pcb_plated_hole_drill" data-pcb-layer="drill"/></g><g data-type="pcb_plated_hole" data-pcb-layer="through"><path class="pcb-hole-outer" fill="rgb(200, 52, 52)" d="M-12.040668643748425,-18.061002965622638 h24.08133728749685 a18.061002965622638,18.061002965622638 0 0 1 0,36.122005931245276 h-24.08133728749685 a18.061002965622638,18.061002965622638 0 0 1 0,-36.122005931245276 z" transform="translate(377.2228623857183 149.49164195314472)" data-type="pcb_plated_hole" data-pcb-layer="top"/><path class="pcb-hole-inner" fill="#FF26E2" d="M-12.040668643748427,-12.040668643748424 h24.081337287496854 a12.040668643748424,12.040668643748424 0 0 1 0,24.081337287496847 h-24.081337287496854 a12.040668643748424,12.040668643748424 0 0 1 0,-24.081337287496847 z" transform="translate(377.2228623857183 149.49164195314472)" data-type="pcb_plated_hole_drill" data-pcb-layer="drill"/></g><g data-type="pcb_plated_hole" data-pcb-layer="through"><path class="pcb-hole-outer" fill="rgb(200, 52, 52)" d="M-12.040668643748425,-18.061002965622638 h24.08133728749685 a18.061002965622638,18.061002965622638 0 0 1 0,36.122005931245276 h-24.08133728749685 a18.061002965622638,18.061002965622638 0 0 1 0,-36.122005931245276 z" transform="translate(377.2228623857183 225.07076917149152)" data-type="pcb_plated_hole" data-pcb-layer="top"/><path class="pcb-hole-inner" fill="#FF26E2" d="M-12.040668643748427,-12.040668643748424 h24.081337287496854 a12.040668643748424,12.040668643748424 0 0 1 0,24.081337287496847 h-24.081337287496854 a12.040668643748424,12.040668643748424 0 0 1 0,-24.081337287496847 z" transform="translate(377.2228623857183 225.07076917149152)" data-type="pcb_plated_hole_drill" data-pcb-layer="drill"/></g><g data-type="pcb_plated_hole" data-pcb-layer="through"><path class="pcb-hole-outer" fill="rgb(200, 52, 52)" d="M-12.040668643748425,-18.061002965622638 h24.08133728749685 a18.061002965622638,18.061002965622638 0 0 1 0,36.122005931245276 h-24.08133728749685 a18.061002965622638,18.061002965622638 0 0 1 0,-36.122005931245276 z" transform="translate(377.2228623857183 375.57912721834674)" data-type="pcb_plated_hole" data-pcb-layer="top"/><path class="pcb-hole-inner" fill="#FF26E2" d="M-12.040668643748427,-12.040668643748424 h24.081337287496854 a12.040668643748424,12.040668643748424 0 0 1 0,24.081337287496847 h-24.081337287496854 a12.040668643748424,12.040668643748424 0 0 1 0,-24.081337287496847 z" transform="translate(377.2228623857183 375.57912721834674)" data-type="pcb_plated_hole_drill" data-pcb-layer="drill"/></g><g data-type="pcb_plated_hole" data-pcb-layer="through"><path class="pcb-hole-outer" fill="rgb(200, 52, 52)" d="M-12.040668643748425,-18.061002965622638 h24.08133728749685 a18.061002965622638,18.061002965622638 0 0 1 0,36.122005931245276 h-24.08133728749685 a18.061002965622638,18.061002965622638 0 0 1 0,-36.122005931245276 z" transform="translate(377.22286238571826 450.50835804685346)" data-type="pcb_plated_hole" data-pcb-layer="top"/><path class="pcb-hole-inner" fill="#FF26E2" d="M-12.040668643748427,-12.040668643748424 h24.081337287496854 a12.040668643748424,12.040668643748424 0 0 1 0,24.081337287496847 h-24.081337287496854 a12.040668643748424,12.040668643748424 0 0 1 0,-24.081337287496847 z" transform="translate(377.22286238571826 450.50835804685346)" data-type="pcb_plated_hole_drill" data-pcb-layer="drill"/></g><g data-type="pcb_plated_hole" data-pcb-layer="through"><circle class="pcb-hole-outer" fill="rgb(200, 52, 52)" cx="693.4398693825652" cy="147.08320239079973" r="28.295627904064606" data-type="pcb_plated_hole" data-pcb-layer="top"/><circle class="pcb-hole-inner" fill="#FF26E2" cx="693.4398693825652" cy="147.08320239079973" r="15.291679760920022" data-type="pcb_plated_hole_drill" data-pcb-layer="drill"/></g><g data-type="pcb_plated_hole" data-pcb-layer="through"><circle class="pcb-hole-outer" fill="rgb(200, 52, 52)" cx="693.4398693825652" cy="223.54160119539983" r="28.295627904064606" data-type="pcb_plated_hole" data-pcb-layer="top"/><circle class="pcb-hole-inner" fill="#FF26E2" cx="693.4398693825652" cy="223.54160119539983" r="15.291679760920022" data-type="pcb_plated_hole_drill" data-pcb-layer="drill"/></g><g data-type="pcb_plated_hole" data-pcb-layer="through"><circle class="pcb-hole-outer" fill="rgb(200, 52, 52)" cx="693.4398693825652" cy="299.99999999999994" r="28.295627904064606" data-type="pcb_plated_hole" data-pcb-layer="top"/><circle class="pcb-hole-inner" fill="#FF26E2" cx="693.4398693825652" cy="299.99999999999994" r="15.291679760920022" data-type="pcb_plated_hole_drill" data-pcb-layer="drill"/></g><g data-type="pcb_plated_hole" data-pcb-layer="through"><circle class="pcb-hole-outer" fill="rgb(200, 52, 52)" cx="693.4398693825652" cy="376.45839880460005" r="28.295627904064606" data-type="pcb_plated_hole" data-pcb-layer="top"/><circle class="pcb-hole-inner" fill="#FF26E2" cx="693.4398693825652" cy="376.45839880460005" r="15.291679760920022" data-type="pcb_plated_hole_drill" data-pcb-layer="drill"/></g><g data-type="pcb_plated_hole" data-pcb-layer="through"><circle class="pcb-hole-outer" fill="rgb(200, 52, 52)" cx="693.4398693825652" cy="452.91679760920016" r="28.295627904064606" data-type="pcb_plated_hole" data-pcb-layer="top"/><circle class="pcb-hole-inner" fill="#FF26E2" cx="693.4398693825652" cy="452.91679760920016" r="15.291679760920022" data-type="pcb_plated_hole_drill" data-pcb-layer="drill"/></g><circle class="pcb-hole" cx="151.45650239549502" cy="450.5083580468543" r="18.061002965622638" fill="#FF26E2" data-type="pcb_hole" data-pcb-layer="drill"/><circle class="pcb-hole" cx="151.45650239549502" cy="149.49164195314472" r="18.061002965622638" fill="#FF26E2" data-type="pcb_hole" data-pcb-layer="drill"/><circle class="pcb-hole" cx="226.71450433886395" cy="149.49164195314472" r="18.061002965622638" fill="#FF26E2" data-type="pcb_hole" data-pcb-layer="drill"/><circle class="pcb-hole" cx="226.71450433886395" cy="450.5083580468543" r="18.061002965622638" fill="#FF26E2" data-type="pcb_hole" data-pcb-layer="drill"/><circle class="pcb-hole" cx="377.22286238571917" cy="299.99999999999994" r="18.061002965622638" fill="#FF26E2" data-type="pcb_hole" data-pcb-layer="drill"/></svg>