<svg xmlns="http://www.w3.org/2000/svg" width="1200" height="600" style="background-color: rgb(245, 241, 237)" data-real-to-screen-transform="matrix(71.4285714286,0,0,-71.4285714286,421.4285714286,289.2857142857)"><style>
              .boundary { fill: rgb(245, 241, 237); }
              .schematic-boundary { fill: none; stroke: #fff; }
              .component { fill: none; stroke: rgb(132, 0, 0); }
              .chip { fill: rgb(255, 255, 194); stroke: rgb(132, 0, 0); }
              .component-pin { fill: none; stroke: rgb(132, 0, 0); }
              .trace:hover {
                filter: invert(1);
              }
              .trace:hover .trace-crossing-outline {
                opacity: 0;
              }
              .text { font-family: sans-serif; fill: rgb(0, 150, 0); }
              .pin-number { fill: rgb(169, 0, 0); }
              .port-label { fill: rgb(0, 100, 100); }
              .component-name { fill: rgb(0, 100, 100); }
            </style><rect class="boundary" x="0" y="0" width="1200" height="600"/><g data-circuit-json-type="schematic_component" data-schematic-component-id="schematic_component_0"><rect class="component chip" x="378.57142857144" y="260.71428571426003" width="85.71428571432" height="57.14285714287996" stroke-width="1.428571428572px" fill="rgb(255, 255, 194)" stroke="rgb(132, 0, 0)"/><rect class="component-overlay" x="378.57142857144" y="260.71428571426003" width="85.71428571432" height="57.14285714287996" fill="transparent"/><text x="378.57142857144" y="327.142857142858" fill="#006464" text-anchor="start" dominant-baseline="middle" font-family="sans-serif" font-size="12.857142857147998px" transform="rotate(0, 378.57142857144, 327.142857142858)">MCP4725A1T_E_CH</text><text x="378.57142857144" y="251.428571428542" fill="#006464" text-anchor="start" dominant-baseline="middle" font-family="sans-serif" font-size="12.857142857147998px" transform="rotate(0, 378.57142857144, 251.428571428542)">U1</text><line class="component-pin" x1="351.428571428572" y1="274.99999999998" x2="378.57142857144" y2="274.99999999998" stroke-width="1.428571428572px"/><circle class="component-pin" cx="350" cy="274.99999999998" r="1.428571428572" stroke-width="1.428571428572px"/><text class="pin-number" x="364.28571428571996" y="273.57142857140803" style="font-family: sans-serif;" fill="rgb(169, 0, 0)" text-anchor="middle" dominant-baseline="auto" font-size="10.714285714289998px" transform="">1</text><text class="pin-number" x="385.7142857143" y="274.99999999998" style="font-family: sans-serif;" fill="rgb(169, 0, 0)" text-anchor="start" dominant-baseline="middle" font-size="10.714285714289998px" transform="">VOUT</text><line class="component-pin" x1="351.428571428572" y1="289.2857142857" x2="378.57142857144" y2="289.2857142857" stroke-width="1.428571428572px"/><circle class="component-pin" cx="350" cy="289.2857142857" r="1.428571428572" stroke-width="1.428571428572px"/><text class="pin-number" x="364.28571428571996" y="287.857142857128" style="font-family: sans-serif;" fill="rgb(169, 0, 0)" text-anchor="middle" dominant-baseline="auto" font-size="10.714285714289998px" transform="">2</text><text class="pin-number" x="385.7142857143" y="289.2857142857" style="font-family: sans-serif;" fill="rgb(169, 0, 0)" text-anchor="start" dominant-baseline="middle" font-size="10.714285714289998px" transform="">VSS</text><line class="component-pin" x1="351.428571428572" y1="303.57142857142003" x2="378.57142857144" y2="303.57142857142003" stroke-width="1.428571428572px"/><circle class="component-pin" cx="350" cy="303.57142857142003" r="1.428571428572" stroke-width="1.428571428572px"/><text class="pin-number" x="364.28571428571996" y="302.142857142848" style="font-family: sans-serif;" fill="rgb(169, 0, 0)" text-anchor="middle" dominant-baseline="auto" font-size="10.714285714289998px" transform="">3</text><text class="pin-number" x="385.7142857143" y="303.57142857142003" style="font-family: sans-serif;" fill="rgb(169, 0, 0)" text-anchor="start" dominant-baseline="middle" font-size="10.714285714289998px" transform="">VDD</text><line class="component-pin" x1="491.42857142862795" y1="303.57142857142003" x2="464.28571428576" y2="303.57142857142003" stroke-width="1.428571428572px"/><circle class="component-pin" cx="492.85714285719996" cy="303.57142857142003" r="1.428571428572" stroke-width="1.428571428572px"/><text class="pin-number" x="478.57142857148" y="302.142857142848" style="font-family: sans-serif;" fill="rgb(169, 0, 0)" text-anchor="middle" dominant-baseline="auto" font-size="10.714285714289998px" transform="">4</text><text class="pin-number" x="457.14285714289997" y="303.57142857142003" style="font-family: sans-serif;" fill="rgb(169, 0, 0)" text-anchor="end" dominant-baseline="middle" font-size="10.714285714289998px" transform="">SDA</text><line class="component-pin" x1="491.42857142862795" y1="289.2857142857" x2="464.28571428576" y2="289.2857142857" stroke-width="1.428571428572px"/><circle class="component-pin" cx="492.85714285719996" cy="289.2857142857" r="1.428571428572" stroke-width="1.428571428572px"/><text class="pin-number" x="478.57142857148" y="287.857142857128" style="font-family: sans-serif;" fill="rgb(169, 0, 0)" text-anchor="middle" dominant-baseline="auto" font-size="10.714285714289998px" transform="">5</text><text class="pin-number" x="457.14285714289997" y="289.2857142857" style="font-family: sans-serif;" fill="rgb(169, 0, 0)" text-anchor="end" dominant-baseline="middle" font-size="10.714285714289998px" transform="">SCL</text><line class="component-pin" x1="491.42857142862795" y1="274.99999999998" x2="464.28571428576" y2="274.99999999998" stroke-width="1.428571428572px"/><circle class="component-pin" cx="492.85714285719996" cy="274.99999999998" r="1.428571428572" stroke-width="1.428571428572px"/><text class="pin-number" x="478.57142857148" y="273.57142857140803" style="font-family: sans-serif;" fill="rgb(169, 0, 0)" text-anchor="middle" dominant-baseline="auto" font-size="10.714285714289998px" transform="">6</text><text class="pin-number" x="457.14285714289997" y="274.99999999998" style="font-family: sans-serif;" fill="rgb(169, 0, 0)" text-anchor="end" dominant-baseline="middle" font-size="10.714285714289998px" transform="">A0</text></g><g data-circuit-json-type="schematic_component" data-schematic-component-id="schematic_component_1"><rect class="component-overlay" x="551.5390642857948" y="178.8226785713701" width="18.898814285721755" height="75.59523571431592" fill="transparent"/><path d="M 560.9884714286557 254.417914285686 L 560.9884714286557 235.51910714282135" stroke="rgb(132, 0, 0)" fill="none" stroke-width="1.428571428572px"/><path d="M 560.9884714286557 197.72149285709187 L 560.9884714286557 178.8226785713701" stroke="rgb(132, 0, 0)" fill="none" stroke-width="1.428571428572px"/><path d="M 551.5390642857948 216.62030714281377 L 551.5390642857948 197.72149999994912 L 570.4378785715165 197.72149999994912 L 570.4378785715165 235.5191214285357 L 551.5390642857948 235.5191214285357 L 551.5390642857948 216.6203071428139" stroke="rgb(132, 0, 0)" fill="none" stroke-width="1.428571428572px"/><text x="580.6753821429494" y="206.42857142852404" fill="rgb(15, 15, 15)" font-family="sans-serif" text-anchor="start" dominant-baseline="middle" font-size="12.857142857147998px">R1</text><text x="580.6753821429494" y="229.28571428567602" fill="rgb(15, 15, 15)" font-family="sans-serif" text-anchor="start" dominant-baseline="middle" font-size="12.857142857147998px">4.7kΩ</text><circle cx="561.0139142857987" cy="255.98504999997243" r="1.428571428572px" stroke-width="1.428571428572px" fill="none" stroke="rgb(132, 0, 0)"/><circle cx="561.0529500000844" cy="177.2292357142266" r="1.428571428572px" stroke-width="1.428571428572px" fill="none" stroke="rgb(132, 0, 0)"/></g><g data-circuit-json-type="schematic_component" data-schematic-component-id="schematic_component_2"><rect class="component-overlay" x="622.9676357143948" y="178.8226785713701" width="18.898814285721755" height="75.59523571431592" fill="transparent"/><path d="M 632.4170428572556 254.417914285686 L 632.4170428572556 235.51910714282135" stroke="rgb(132, 0, 0)" fill="none" stroke-width="1.428571428572px"/><path d="M 632.4170428572556 197.72149285709187 L 632.4170428572556 178.8226785713701" stroke="rgb(132, 0, 0)" fill="none" stroke-width="1.428571428572px"/><path d="M 622.9676357143948 216.62030714281377 L 622.9676357143948 197.72149999994912 L 641.8664500001165 197.72149999994912 L 641.8664500001165 235.5191214285357 L 622.9676357143948 235.5191214285357 L 622.9676357143948 216.6203071428139" stroke="rgb(132, 0, 0)" fill="none" stroke-width="1.428571428572px"/><text x="652.1039535715494" y="206.42857142852404" fill="rgb(15, 15, 15)" font-family="sans-serif" text-anchor="start" dominant-baseline="middle" font-size="12.857142857147998px">R2</text><text x="652.1039535715494" y="229.28571428567602" fill="rgb(15, 15, 15)" font-family="sans-serif" text-anchor="start" dominant-baseline="middle" font-size="12.857142857147998px">4.7kΩ</text><circle cx="632.4424857143987" cy="255.98504999997243" r="1.428571428572px" stroke-width="1.428571428572px" fill="none" stroke="rgb(132, 0, 0)"/><circle cx="632.4815214286843" cy="177.2292357142266" r="1.428571428572px" stroke-width="1.428571428572px" fill="none" stroke="rgb(132, 0, 0)"/></g><g data-circuit-json-type="schematic_component" data-schematic-component-id="schematic_component_3"><rect class="component-overlay" x="384.867800000014" y="465.610492857199" width="75.59523571431595" height="18.898814285721812" fill="transparent"/><path d="M 384.867800000014 475.05990000005994 L 403.7666071428787 475.05990000005994" stroke="rgb(132, 0, 0)" fill="none" stroke-width="1.428571428572px"/><path d="M 441.5642214286081 475.05990000005994 L 460.4630357143299 475.05990000005994" stroke="rgb(132, 0, 0)" fill="none" stroke-width="1.428571428572px"/><path d="M 422.66540714288624 465.610492857199 L 441.5642142857509 465.610492857199 L 441.5642142857509 484.5093071429208 L 403.7665928571643 484.5093071429208 L 403.7665928571643 465.610492857199 L 422.6654071428861 465.610492857199" stroke="rgb(132, 0, 0)" fill="none" stroke-width="1.428571428572px"/><text x="421.4285714286" y="461.99393334005487" fill="rgb(15, 15, 15)" font-family="sans-serif" text-anchor="middle" dominant-baseline="auto" font-size="12.857142857147998px">R3</text><text x="421.4285714286" y="489.7203523743517" fill="rgb(15, 15, 15)" font-family="sans-serif" text-anchor="middle" dominant-baseline="hanging" font-size="12.857142857147998px">10kΩ</text><circle cx="383.3006642857276" cy="475.08534285720293" r="1.428571428572px" stroke-width="1.428571428572px" fill="none" stroke="rgb(132, 0, 0)"/><circle cx="462.0564785714734" cy="475.1243785714886" r="1.428571428572px" stroke-width="1.428571428572px" fill="none" stroke="rgb(132, 0, 0)"/></g><g data-circuit-json-type="schematic_component" data-schematic-component-id="schematic_component_4"><rect class="component-overlay" x="758.4381178573061" y="251.93301428568503" width="37.79761428572942" height="75.59523571431595" fill="transparent"/><path d="M 777.3369250001707 251.93301428568503 L 777.3369250001707 284.0609857142693" stroke="rgb(132, 0, 0)" fill="none" stroke-width="1.428571428572px"/><path d="M 777.3369250001707 295.40027142855956 L 777.3369250001707 327.528250000001" stroke="rgb(132, 0, 0)" fill="none" stroke-width="1.428571428572px"/><path d="M 758.4381178573061 284.06098571426935 L 796.2357321430355 284.0609857142693" stroke="rgb(132, 0, 0)" fill="none" stroke-width="1.428571428572px"/><path d="M 758.4381178573061 295.40027142855956 L 796.2357321430355 295.40027142855956" stroke="rgb(132, 0, 0)" fill="none" stroke-width="1.428571428572px"/><text x="793.5325250001773" y="275.10583332998" fill="rgb(15, 15, 15)" font-family="sans-serif" text-anchor="start" dominant-baseline="auto" font-size="12.857142857147998px">C1</text><text x="793.5325250001773" y="303.46559524142" fill="rgb(15, 15, 15)" font-family="sans-serif" text-anchor="start" dominant-baseline="hanging" font-size="12.857142857147998px">100nF</text><circle cx="777.4014107144565" cy="328.6578071428586" r="1.428571428572px" stroke-width="1.428571428572px" fill="none" stroke="rgb(132, 0, 0)"/><circle cx="777.3623607144565" cy="249.91362142854138" r="1.428571428572px" stroke-width="1.428571428572px" fill="none" stroke="rgb(132, 0, 0)"/></g><g data-circuit-json-type="schematic_component" data-schematic-component-id="schematic_component_5"><rect class="component chip" x="164.28571428563998" y="260.71428571426003" width="85.71428571432003" height="28.57142857143998" stroke-width="1.428571428572px" fill="rgb(255, 255, 194)" stroke="rgb(132, 0, 0)"/><rect class="component-overlay" x="164.28571428563998" y="260.71428571426003" width="85.71428571432003" height="28.57142857143998" fill="transparent"/><text x="164.28571428563998" y="298.571428571418" fill="#006464" text-anchor="start" dominant-baseline="middle" font-family="sans-serif" font-size="12.857142857147998px" transform="rotate(0, 164.28571428563998, 298.571428571418)"></text><text x="164.28571428563998" y="251.428571428542" fill="#006464" text-anchor="start" dominant-baseline="middle" font-family="sans-serif" font-size="12.857142857147998px" transform="rotate(0, 164.28571428563998, 251.428571428542)">JP6</text><line class="component-pin" x1="137.14285714277202" y1="274.99999999998" x2="164.28571428563998" y2="274.99999999998" stroke-width="1.428571428572px"/><circle class="component-pin" cx="135.7142857142" cy="274.99999999998" r="1.428571428572" stroke-width="1.428571428572px"/><text class="pin-number" x="149.99999999992002" y="273.57142857140803" style="font-family: sans-serif;" fill="rgb(169, 0, 0)" text-anchor="middle" dominant-baseline="auto" font-size="10.714285714289998px" transform="">1</text><text class="pin-number" x="171.4285714285" y="274.99999999998" style="font-family: sans-serif;" fill="rgb(169, 0, 0)" text-anchor="start" dominant-baseline="middle" font-size="10.714285714289998px" transform="">GND</text><line class="component-pin" x1="277.142857142828" y1="274.99999999998" x2="249.99999999996" y2="274.99999999998" stroke-width="1.428571428572px"/><circle class="component-pin" cx="278.5714285714" cy="274.99999999998" r="1.428571428572" stroke-width="1.428571428572px"/><text class="pin-number" x="264.28571428568" y="273.57142857140803" style="font-family: sans-serif;" fill="rgb(169, 0, 0)" text-anchor="middle" dominant-baseline="auto" font-size="10.714285714289998px" transform="">2</text><text class="pin-number" x="242.8571428571" y="274.99999999998" style="font-family: sans-serif;" fill="rgb(169, 0, 0)" text-anchor="end" dominant-baseline="middle" font-size="10.714285714289998px" transform="">VOUT</text></g><g data-circuit-json-type="schematic_component" data-schematic-component-id="schematic_component_6"><rect class="component chip" x="950.00000000024" y="267.85714285712004" width="85.71428571432" height="42.85714285715994" stroke-width="1.428571428572px" fill="rgb(255, 255, 194)" stroke="rgb(132, 0, 0)"/><rect class="component-overlay" x="950.00000000024" y="267.85714285712004" width="85.71428571432" height="42.85714285715994" fill="transparent"/><text x="950.00000000024" y="319.999999999998" fill="#006464" text-anchor="start" dominant-baseline="middle" font-family="sans-serif" font-size="12.857142857147998px" transform="rotate(0, 950.00000000024, 319.999999999998)"></text><text x="950.00000000024" y="258.571428571402" fill="#006464" text-anchor="start" dominant-baseline="middle" font-family="sans-serif" font-size="12.857142857147998px" transform="rotate(0, 950.00000000024, 258.571428571402)">JP5</text><line class="component-pin" x1="922.8571428573719" y1="282.14285714284" x2="950.00000000024" y2="282.14285714284" stroke-width="1.428571428572px"/><circle class="component-pin" cx="921.4285714288" cy="282.14285714284" r="1.428571428572" stroke-width="1.428571428572px"/><text class="pin-number" x="935.71428571452" y="280.714285714268" style="font-family: sans-serif;" fill="rgb(169, 0, 0)" text-anchor="middle" dominant-baseline="auto" font-size="10.714285714289998px" transform="">1</text><text class="pin-number" x="957.1428571431" y="282.14285714284" style="font-family: sans-serif;" fill="rgb(169, 0, 0)" text-anchor="start" dominant-baseline="middle" font-size="10.714285714289998px" transform="">SCL</text><line class="component-pin" x1="922.8571428573719" y1="296.42857142856" x2="950.00000000024" y2="296.42857142856" stroke-width="1.428571428572px"/><circle class="component-pin" cx="921.4285714288" cy="296.42857142856" r="1.428571428572" stroke-width="1.428571428572px"/><text class="pin-number" x="935.71428571452" y="294.999999999988" style="font-family: sans-serif;" fill="rgb(169, 0, 0)" text-anchor="middle" dominant-baseline="auto" font-size="10.714285714289998px" transform="">2</text><text class="pin-number" x="957.1428571431" y="296.42857142856" style="font-family: sans-serif;" fill="rgb(169, 0, 0)" text-anchor="start" dominant-baseline="middle" font-size="10.714285714289998px" transform="">SDA</text><line class="component-pin" x1="1062.857142857428" y1="296.42857142856" x2="1035.71428571456" y2="296.42857142856" stroke-width="1.428571428572px"/><circle class="component-pin" cx="1064.2857142859998" cy="296.42857142856" r="1.428571428572" stroke-width="1.428571428572px"/><text class="pin-number" x="1050.0000000002801" y="294.999999999988" style="font-family: sans-serif;" fill="rgb(169, 0, 0)" text-anchor="middle" dominant-baseline="auto" font-size="10.714285714289998px" transform="">3</text><text class="pin-number" x="1028.5714285717" y="296.42857142856" style="font-family: sans-serif;" fill="rgb(169, 0, 0)" text-anchor="end" dominant-baseline="middle" font-size="10.714285714289998px" transform="">VCC</text><line class="component-pin" x1="1062.857142857428" y1="282.14285714284" x2="1035.71428571456" y2="282.14285714284" stroke-width="1.428571428572px"/><circle class="component-pin" cx="1064.2857142859998" cy="282.14285714284" r="1.428571428572" stroke-width="1.428571428572px"/><text class="pin-number" x="1050.0000000002801" y="280.714285714268" style="font-family: sans-serif;" fill="rgb(169, 0, 0)" text-anchor="middle" dominant-baseline="auto" font-size="10.714285714289998px" transform="">4</text><text class="pin-number" x="1028.5714285717" y="282.14285714284" style="font-family: sans-serif;" fill="rgb(169, 0, 0)" text-anchor="end" dominant-baseline="middle" font-size="10.714285714289998px" transform="">GND</text></g><g data-circuit-json-type="schematic_component" data-schematic-component-id="schematic_component_7"><rect class="component-overlay" x="568.4343000000873" y="128.63009074992155" width="63.16435000002525" height="34.22273571429932" fill="transparent"/><path d="M 615.7245357143919 153.62164074993146 L 631.5986500001126 153.62164074993146" stroke="rgb(132, 0, 0)" fill="none" stroke-width="1.428571428572px"/><path d="M 568.4343000000873 153.74411932136013 L 584.2696000000936 153.74411932136013" stroke="rgb(132, 0, 0)" fill="none" stroke-width="1.428571428572px"/><path d="M 591.462471428668 153.74356217850297 L 596.7919000000987 153.74356217850297" stroke="rgb(132, 0, 0)" fill="none" stroke-width="1.428571428572px"/><path d="M 600.1863142858142 144.50420503564214 L 600.1863142858142 128.63009074992155" stroke="rgb(132, 0, 0)" fill="none" stroke-width="1.428571428572px"/><path d="M 591.4155285715251 162.70304789279228 L 591.4155285715251 144.70400503564227" stroke="rgb(132, 0, 0)" fill="none" stroke-width="1.428571428572px"/><path d="M 596.9222428572415 162.3954121785064 L 596.9222428572415 145.0008478927852" stroke="rgb(132, 0, 0)" fill="none" stroke-width="1.428571428572px"/><path d="M 603.3169928572441 162.41529074993494 L 603.3169928572441 145.04160503564228" stroke="rgb(132, 0, 0)" fill="none" stroke-width="1.428571428572px"/><path d="M 597.0614000000987 162.44750503564933 L 603.2601642858154 162.44750503564933" stroke="rgb(132, 0, 0)" fill="none" stroke-width="1.428571428572px"/><path d="M 597.0752714286701 144.9775050356423 L 603.2345000001011 144.9775050356423" stroke="rgb(132, 0, 0)" fill="none" stroke-width="1.428571428572px"/><path d="M 608.6434214286749 162.70992646422084 L 608.6434214286749 144.71088360707083" stroke="rgb(132, 0, 0)" fill="none" stroke-width="1.428571428572px"/><path d="M 608.9752642858178 144.47080503564212 L 608.9752642858178 144.47080503564212 L 610.0914603728553 145.0727230576 L 611.0955747916388 145.6967124493992 L 611.9913689215333 146.3404883427857 L 612.782604141904 147.00176586950553 L 613.4730418321159 147.67826016130476 L 614.0664433715341 148.36768634992936 L 614.5665701395237 149.06775956712542 L 614.9771835154498 149.77619494463892 L 615.3020448786775 150.49070761421592 L 615.5449156085717 151.20901270760245 L 615.7095570844978 151.92882535654454 L 615.7997306858206 152.6478606927882 L 615.8191977919053 153.3638338480795 L 615.7717197821169 154.07445995416447 L 615.6610580358205 154.77745414278908 L 615.4909739323813 155.4705315456994 L 615.2652288511642 156.15140729464147 L 614.9875841715345 156.81779652136132 L 614.6618012728571 157.46741435760498 L 614.2916415344972 158.09797593511846 L 613.8808663358197 158.7071963856478 L 613.43323705619 159.29279084093903 L 612.9525150749729 159.8524744327382 L 612.4424617715335 160.38396229279132 L 611.906838525237 160.8849695528444 L 611.3494067154484 161.35321134464354 L 610.7739277215328 161.78640279993473 L 610.1841629228553 162.18225905046398 L 609.5838736987811 162.53849522797734 L 608.976821428675 162.85282646422084 L 608.976821428675 162.85282646422087" stroke="rgb(132, 0, 0)" fill="none" stroke-width="1.428571428572px"/><path d="M 591.0890142858107 144.46174789278498 L 591.0890142858107 144.46174789278498 L 589.9728181987732 145.0636659147429 L 588.9687037799897 145.6876553065421 L 588.0729096500952 146.33143119992857 L 587.2816744297245 146.99270872664843 L 586.5912367395125 147.66920301844763 L 585.9978352000943 148.35862920707225 L 585.4977084321047 149.0587024242683 L 585.0870950561787 149.76713780178181 L 584.762233692951 150.48165047135882 L 584.5193629630567 151.19995556474535 L 584.3547214871307 151.91976821368743 L 584.2645478858079 152.6388035499311 L 584.2450807797233 153.3547767052224 L 584.2925587895116 154.06540281130734 L 584.403220535808 154.76839699993195 L 584.5733046392472 155.4614744028423 L 584.7990497204643 156.14235015178437 L 585.076694400094 156.8087393785042 L 585.4024772987714 157.45835721474785 L 585.7726370371313 158.08891879226132 L 586.1834122358086 158.69813924279066 L 586.6310415154385 159.2837336980819 L 587.1117634966556 159.84341728988107 L 587.621816800095 160.3749051499342 L 588.1574400463915 160.8759124099873 L 588.71487185618 161.34415420178644 L 589.2903508500956 161.7773456570776 L 589.8801156487731 162.17320190760685 L 590.4804048728474 162.52943808512023 L 591.0874571429536 162.84376932136374 L 591.0874571429536 162.84376932136374" stroke="rgb(132, 0, 0)" fill="none" stroke-width="1.428571428572px"/><path d="M 603.3225571429584 153.74356217850297 L 608.6519857143891 153.74356217850297" stroke="rgb(132, 0, 0)" fill="none" stroke-width="1.428571428572px"/><text x="601.4739428572433" y="166.4347646342223" fill="rgb(15, 15, 15)" font-family="sans-serif" text-anchor="middle" dominant-baseline="hanging" font-size="12.857142857147998px">SJ1</text><circle cx="600.2494857143857" cy="128.38578360706427" r="1.428571428572px" stroke-width="1.428571428572px" fill="none" stroke="rgb(132, 0, 0)"/><circle cx="631.842914285827" cy="153.68480503564575" r="1.428571428572px" stroke-width="1.428571428572px" fill="none" stroke="rgb(132, 0, 0)"/><circle cx="568.1570857143729" cy="153.67591932136003" r="1.428571428572px" stroke-width="1.428571428572px" fill="none" stroke="rgb(132, 0, 0)"/></g><g data-circuit-json-type="schematic_component" data-schematic-component-id="schematic_component_8"><rect class="component-overlay" x="532.7200142857873" y="450.0586621786215" width="63.16435000002525" height="34.22273571429929" fill="transparent"/><path d="M 580.0102500000919 475.0502121786314 L 595.8843642858126 475.0502121786314" stroke="rgb(132, 0, 0)" fill="none" stroke-width="1.428571428572px"/><path d="M 532.7200142857873 475.1726907500601 L 548.5553142857937 475.1726907500601" stroke="rgb(132, 0, 0)" fill="none" stroke-width="1.428571428572px"/><path d="M 564.4720285715142 465.9327764643421 L 564.4720285715142 450.0586621786215" stroke="rgb(132, 0, 0)" fill="none" stroke-width="1.428571428572px"/><path d="M 555.7012428572251 484.1316193214922 L 555.701242857225 466.1325764643422" stroke="rgb(132, 0, 0)" fill="none" stroke-width="1.428571428572px"/><path d="M 561.2079571429415 483.82398360720634 L 561.2079571429415 466.4294193214851" stroke="rgb(132, 0, 0)" fill="none" stroke-width="1.428571428572px"/><path d="M 567.6027071429442 483.8438621786349 L 567.6027071429442 466.4701764643422" stroke="rgb(132, 0, 0)" fill="none" stroke-width="1.428571428572px"/><path d="M 561.3471142857987 483.87607646434924 L 567.5458785715155 483.87607646434924" stroke="rgb(132, 0, 0)" fill="none" stroke-width="1.428571428572px"/><path d="M 561.3609857143701 466.4060764643422 L 567.5202142858011 466.4060764643422" stroke="rgb(132, 0, 0)" fill="none" stroke-width="1.428571428572px"/><path d="M 572.9291357143749 484.1384978929208 L 572.9291357143749 466.13945503577077" stroke="rgb(132, 0, 0)" fill="none" stroke-width="1.428571428572px"/><path d="M 573.2609785715179 465.899376464342 L 573.2609785715179 465.899376464342 L 574.3771746585553 466.50129448629997 L 575.3812890773388 467.12528387809914 L 576.2770832072333 467.7690597714856 L 577.068318427604 468.4303372982055 L 577.7587561178159 469.1068315900047 L 578.3521576572341 469.7962577786293 L 578.8522844252237 470.49633099582536 L 579.2628978011498 471.2047663733389 L 579.5877591643775 471.9192790429159 L 579.8306298942717 472.6375841363024 L 579.9952713701978 473.3573967852445 L 580.0854449715206 474.07643212148815 L 580.1049120776053 474.79240527677945 L 580.0574340678169 475.5030313828644 L 579.9467723215205 476.206025571489 L 579.7766882180813 476.89910297439934 L 579.5509431368642 477.5799787233414 L 579.2732984572345 478.24636795006126 L 578.9475155585571 478.8959857863049 L 578.5773558201972 479.5265473638184 L 578.1665806215198 480.13576781434773 L 577.71895134189 480.721362269639 L 577.2382293606729 481.28104586143814 L 576.7281760572336 481.81253372149126 L 576.1925528109371 482.31354098154435 L 575.6351210011484 482.7817827733435 L 575.0596420072328 483.2149742286347 L 574.4698772085553 483.6108304791639 L 573.8695879844811 483.9670666566773 L 573.262535714375 484.2813978929208 L 573.262535714375 484.2813978929208" stroke="rgb(132, 0, 0)" fill="none" stroke-width="1.428571428572px"/><path d="M 555.3747285715107 465.8903193214849 L 555.3747285715107 465.8903193214849 L 554.2585324844732 466.4922373434428 L 553.2544180656897 467.11622673524204 L 552.3586239357952 467.7600026286285 L 551.5673887154245 468.42128015534837 L 550.8769510252125 469.0977744471476 L 550.2835494857943 469.7872006357722 L 549.7834227178047 470.48727385296826 L 549.3728093418787 471.1957092304817 L 549.047947978651 471.91022190005873 L 548.8050772487567 472.6285269934453 L 548.6404357728308 473.3483396423874 L 548.5502621715079 474.06737497863105 L 548.5307950654233 474.78334813392235 L 548.5782730752117 475.4939742400073 L 548.688934821508 476.1969684286319 L 548.8590189249472 476.89004583154224 L 549.0847640061643 477.5709215804843 L 549.362408685794 478.23731080720415 L 549.6881915844714 478.8869286434478 L 550.0583513228313 479.5174902209613 L 550.4691265215087 480.1267106714906 L 550.9167558011385 480.71230512678187 L 551.3974777823556 481.27198871858104 L 551.907531085795 481.80347657863416 L 552.4431543320915 482.30448383868725 L 553.00058614188 482.7727256304864 L 553.5760651357956 483.20591708577757 L 554.1658299344731 483.6017733363068 L 554.7661191585474 483.9580095138202 L 555.3731714286534 484.2723407500637 L 555.3731714286536 484.2723407500637" stroke="rgb(132, 0, 0)" fill="none" stroke-width="1.428571428572px"/><text x="565.7596571429433" y="487.86333606292226" fill="rgb(15, 15, 15)" font-family="sans-serif" text-anchor="middle" dominant-baseline="hanging" font-size="12.857142857147998px">SJ2</text><circle cx="564.5352000000858" cy="449.8143550357642" r="1.428571428572px" stroke-width="1.428571428572px" fill="none" stroke="rgb(132, 0, 0)"/><circle cx="596.128628571527" cy="475.11337646434566" r="1.428571428572px" stroke-width="1.428571428572px" fill="none" stroke="rgb(132, 0, 0)"/><circle cx="532.4428000000729" cy="475.10449075006" r="1.428571428572px" stroke-width="1.428571428572px" fill="none" stroke="rgb(132, 0, 0)"/></g><g class="trace" data-circuit-json-type="schematic_trace" data-schematic-trace-id="schematic_trace_0"><path d="M 350 274.99999999998 L 278.5714285714 274.99999999998" class="trace-invisible-hover-outline" stroke="rgb(0, 150, 0)" fill="none" stroke-width="11.428571428576px" stroke-linecap="round" opacity="0" stroke-linejoin="round"/><path d="M 350 274.99999999998 L 278.5714285714 274.99999999998" stroke="rgb(0, 150, 0)" fill="none" stroke-width="1.428571428572px" stroke-linecap="round" stroke-linejoin="round"/></g><g class="trace" data-circuit-json-type="schematic_trace" data-schematic-trace-id="schematic_trace_1"><path d="M 492.85714285719996 274.99999999998 L 564.5352000000858 274.99999999998 L 564.5352000000858 441.7879928571896 L 564.5352000000858 449.81435503576427" class="trace-invisible-hover-outline" stroke="rgb(0, 150, 0)" fill="none" stroke-width="11.428571428576px" stroke-linecap="round" opacity="0" stroke-linejoin="round"/><path d="M 492.85714285719996 274.99999999998 L 564.5352000000858 274.99999999998 L 564.5352000000858 441.7879928571896 L 564.5352000000858 449.81435503576427" stroke="rgb(0, 150, 0)" fill="none" stroke-width="1.428571428572px" stroke-linecap="round" stroke-linejoin="round"/></g><g class="trace" data-circuit-json-type="schematic_trace" data-schematic-trace-id="schematic_trace_2"><path d="M 462.0564785714734 475.1243785714886 L 532.4428000000729 475.1243785714886" class="trace-invisible-hover-outline" stroke="rgb(0, 150, 0)" fill="none" stroke-width="11.428571428576px" stroke-linecap="round" opacity="0" stroke-linejoin="round"/><path d="M 462.0564785714734 475.1243785714886 L 532.4428000000729 475.1243785714886" stroke="rgb(0, 150, 0)" fill="none" stroke-width="1.428571428572px" stroke-linecap="round" stroke-linejoin="round"/></g><g class="trace" data-circuit-json-type="schematic_trace" data-schematic-trace-id="schematic_trace_3"><path d="M 561.0529500000844 177.2292357142266 L 561.0529500000844 153.67591932136003 L 568.1570857143729 153.67591932136003" class="trace-invisible-hover-outline" stroke="rgb(0, 150, 0)" fill="none" stroke-width="11.428571428576px" stroke-linecap="round" opacity="0" stroke-linejoin="round"/><path d="M 561.0529500000844 177.2292357142266 L 561.0529500000844 153.67591932136003 L 568.1570857143729 153.67591932136003" stroke="rgb(0, 150, 0)" fill="none" stroke-width="1.428571428572px" stroke-linecap="round" stroke-linejoin="round"/></g><g class="trace" data-circuit-json-type="schematic_trace" data-schematic-trace-id="schematic_trace_4"><path d="M 632.4815214286843 177.2292357142266 L 632.4815214286843 153.68480503564575" class="trace-invisible-hover-outline" stroke="rgb(0, 150, 0)" fill="none" stroke-width="11.428571428576px" stroke-linecap="round" opacity="0" stroke-linejoin="round"/><path d="M 632.4815214286843 177.2292357142266 L 632.4815214286843 153.68480503564575" stroke="rgb(0, 150, 0)" fill="none" stroke-width="1.428571428572px" stroke-linecap="round" stroke-linejoin="round"/></g><path class="net-label" d="
    M 350,289.2857142857
    L 346.1428571428556,296.9999999999888
    L 310.8761904761748,296.9999999999888
    L 310.8761904761748,281.5714285714112
    L 346.1428571428556,281.5714285714112
    Z
  " fill="#FFFFFF99" stroke="rgb(132, 0, 0)" stroke-width="1.428571428572px"/><text class="net-label-text" x="343.571428571426" y="289.2857142857" fill="rgb(132, 0, 0)" text-anchor="end" dominant-baseline="central" font-family="sans-serif" font-variant-numeric="tabular-nums" font-size="12.857142857147998px" transform="">GND</text><path class="net-label" d="
    M 350,303.57142857142003
    L 346.1428571428556,311.2857142857088
    L 312.30476190474684,311.2857142857088
    L 312.30476190474684,295.85714285713124
    L 346.1428571428556,295.85714285713124
    Z
  " fill="#FFFFFF99" stroke="rgb(132, 0, 0)" stroke-width="1.428571428572px"/><text class="net-label-text" x="343.571428571426" y="303.57142857142003" fill="rgb(132, 0, 0)" text-anchor="end" dominant-baseline="central" font-family="sans-serif" font-variant-numeric="tabular-nums" font-size="12.857142857147998px" transform="">VCC</text><path class="net-label" d="
    M 492.85714285719996,303.57142857142003
    L 496.7142857143444,295.85714285713124
    L 530.0761904762625,295.85714285713124
    L 530.0761904762625,311.2857142857088
    L 496.7142857143444,311.2857142857088
    Z
  " fill="#FFFFFF99" stroke="rgb(132, 0, 0)" stroke-width="1.428571428572px"/><text class="net-label-text" x="499.28571428577396" y="303.57142857142003" fill="rgb(132, 0, 0)" text-anchor="start" dominant-baseline="central" font-family="sans-serif" font-variant-numeric="tabular-nums" font-size="12.857142857147998px" transform="">SDA</text><path class="net-label" d="
    M 492.85714285719996,289.2857142857
    L 496.7142857143444,281.5714285714112
    L 528.6476190476905,281.5714285714112
    L 528.6476190476905,296.9999999999888
    L 496.7142857143444,296.9999999999888
    Z
  " fill="#FFFFFF99" stroke="rgb(132, 0, 0)" stroke-width="1.428571428572px"/><text class="net-label-text" x="499.28571428577396" y="289.2857142857" fill="rgb(132, 0, 0)" text-anchor="start" dominant-baseline="central" font-family="sans-serif" font-variant-numeric="tabular-nums" font-size="12.857142857147998px" transform="">SCL</text><path class="net-label" d="
    M 135.7142857142,274.99999999998
    L 131.8571428570556,282.7142857142688
    L 96.59047619037483,282.7142857142688
    L 96.59047619037483,267.2857142856912
    L 131.8571428570556,267.2857142856912
    Z
  " fill="#FFFFFF99" stroke="rgb(132, 0, 0)" stroke-width="1.428571428572px"/><text class="net-label-text" x="129.285714285626" y="274.99999999998" fill="rgb(132, 0, 0)" text-anchor="end" dominant-baseline="central" font-family="sans-serif" font-variant-numeric="tabular-nums" font-size="12.857142857147998px" transform="">GND</text><path class="net-label" d="
    M 383.3006642857276,475.08534285720293
    L 379.44352142858315,482.7996285714917
    L 344.1768547619024,482.7996285714917
    L 344.1768547619024,467.37105714291414
    L 379.44352142858315,467.37105714291414
    Z
  " fill="#FFFFFF99" stroke="rgb(132, 0, 0)" stroke-width="1.428571428572px"/><text class="net-label-text" x="376.8720928571536" y="475.08534285720293" fill="rgb(132, 0, 0)" text-anchor="end" dominant-baseline="central" font-family="sans-serif" font-variant-numeric="tabular-nums" font-size="12.857142857147998px" transform="">GND</text><path class="net-label" d="
    M 596.128628571527,475.1133764643457
    L 599.9857714286713,467.3990907500569
    L 633.8238666667802,467.3990907500569
    L 633.8238666667802,482.8276621786345
    L 599.9857714286713,482.8276621786345
    Z
  " fill="#FFFFFF99" stroke="rgb(132, 0, 0)" stroke-width="1.428571428572px"/><text class="net-label-text" x="602.5572000001009" y="475.1133764643457" fill="rgb(132, 0, 0)" text-anchor="start" dominant-baseline="central" font-family="sans-serif" font-variant-numeric="tabular-nums" font-size="12.857142857147998px" transform="">VCC</text><path class="net-label" d="
    M 777.4014107144566,328.65780714285864
    L 785.1156964287454,332.51495000000307
    L 785.1156964287454,366.3530452381118
    L 769.6871250001677,366.3530452381118
    L 769.6871250001677,332.51495000000307
    Z
  " fill="#FFFFFF99" stroke="rgb(132, 0, 0)" stroke-width="1.428571428572px"/><text class="net-label-text" x="777.4014107144566" y="335.08637857143265" fill="rgb(132, 0, 0)" text-anchor="start" dominant-baseline="central" font-family="sans-serif" font-variant-numeric="tabular-nums" font-size="12.857142857147998px" transform="rotate(90 777.4014107144566 335.08637857143265)">VCC</text><path class="net-label" d="
    M 777.3623607144566,249.91362142854138
    L 769.6480750001678,246.05647857139698
    L 769.6480750001678,210.7898119047162
    L 785.0766464287454,210.7898119047162
    L 785.0766464287454,246.05647857139698
    Z
  " fill="#FFFFFF99" stroke="rgb(132, 0, 0)" stroke-width="1.428571428572px"/><text class="net-label-text" x="777.3623607144566" y="243.48504999996737" fill="rgb(132, 0, 0)" text-anchor="start" dominant-baseline="central" font-family="sans-serif" font-variant-numeric="tabular-nums" font-size="12.857142857147998px" transform="rotate(-90 777.3623607144566 243.48504999996737)">GND</text><path class="net-label" d="
    M 921.4285714288,282.14285714284
    L 917.5714285716556,289.8571428571288
    L 885.6380952383095,289.8571428571288
    L 885.6380952383095,274.4285714285512
    L 917.5714285716556,274.4285714285512
    Z
  " fill="#FFFFFF99" stroke="rgb(132, 0, 0)" stroke-width="1.428571428572px"/><text class="net-label-text" x="915.000000000226" y="282.14285714284" fill="rgb(132, 0, 0)" text-anchor="end" dominant-baseline="central" font-family="sans-serif" font-variant-numeric="tabular-nums" font-size="12.857142857147998px" transform="">SCL</text><path class="net-label" d="
    M 921.4285714288,296.42857142856
    L 917.5714285716556,304.1428571428488
    L 884.2095238097374,304.1428571428488
    L 884.2095238097374,288.7142857142712
    L 917.5714285716556,288.7142857142712
    Z
  " fill="#FFFFFF99" stroke="rgb(132, 0, 0)" stroke-width="1.428571428572px"/><text class="net-label-text" x="915.000000000226" y="296.42857142856" fill="rgb(132, 0, 0)" text-anchor="end" dominant-baseline="central" font-family="sans-serif" font-variant-numeric="tabular-nums" font-size="12.857142857147998px" transform="">SDA</text><path class="net-label" d="
    M 1064.2857142859998,296.42857142856
    L 1068.1428571431443,288.7142857142712
    L 1101.980952381253,288.7142857142712
    L 1101.980952381253,304.1428571428488
    L 1068.1428571431443,304.1428571428488
    Z
  " fill="#FFFFFF99" stroke="rgb(132, 0, 0)" stroke-width="1.428571428572px"/><text class="net-label-text" x="1070.7142857145739" y="296.42857142856" fill="rgb(132, 0, 0)" text-anchor="start" dominant-baseline="central" font-family="sans-serif" font-variant-numeric="tabular-nums" font-size="12.857142857147998px" transform="">VCC</text><path class="net-label" d="
    M 1064.2857142859998,282.14285714284
    L 1068.1428571431443,274.4285714285512
    L 1103.409523809825,274.4285714285512
    L 1103.409523809825,289.8571428571288
    L 1068.1428571431443,289.8571428571288
    Z
  " fill="#FFFFFF99" stroke="rgb(132, 0, 0)" stroke-width="1.428571428572px"/><text class="net-label-text" x="1070.7142857145739" y="282.14285714284" fill="rgb(132, 0, 0)" text-anchor="start" dominant-baseline="central" font-family="sans-serif" font-variant-numeric="tabular-nums" font-size="12.857142857147998px" transform="">GND</text><path class="net-label" d="
    M 561.0139142857987,255.98504999997243
    L 568.7282000000876,259.84219285711686
    L 568.7282000000876,291.7755261904629
    L 553.2996285715099,291.7755261904629
    L 553.2996285715099,259.84219285711686
    Z
  " fill="#FFFFFF99" stroke="rgb(132, 0, 0)" stroke-width="1.428571428572px"/><text class="net-label-text" x="561.0139142857987" y="262.41362142854643" fill="rgb(132, 0, 0)" text-anchor="start" dominant-baseline="central" font-family="sans-serif" font-variant-numeric="tabular-nums" font-size="12.857142857147998px" transform="rotate(90 561.0139142857987 262.41362142854643)">SCL</text><path class="net-label" d="
    M 632.4424857143987,255.98504999997243
    L 640.1567714286875,259.84219285711686
    L 640.1567714286875,293.20409761903494
    L 624.7282000001098,293.20409761903494
    L 624.7282000001098,259.84219285711686
    Z
  " fill="#FFFFFF99" stroke="rgb(132, 0, 0)" stroke-width="1.428571428572px"/><text class="net-label-text" x="632.4424857143987" y="262.41362142854643" fill="rgb(132, 0, 0)" text-anchor="start" dominant-baseline="central" font-family="sans-serif" font-variant-numeric="tabular-nums" font-size="12.857142857147998px" transform="rotate(90 632.4424857143987 262.41362142854643)">SDA</text><path class="net-label" d="
    M 600.2494857143859,128.38578360706424
    L 592.535200000097,124.52864074991984
    L 592.535200000097,90.69054551181108
    L 607.9637714286747,90.69054551181108
    L 607.9637714286747,124.52864074991984
    Z
  " fill="#FFFFFF99" stroke="rgb(132, 0, 0)" stroke-width="1.428571428572px"/><text class="net-label-text" x="600.2494857143859" y="121.95721217849024" fill="rgb(132, 0, 0)" text-anchor="start" dominant-baseline="central" font-family="sans-serif" font-variant-numeric="tabular-nums" font-size="12.857142857147998px" transform="rotate(-90 600.2494857143859 121.95721217849024)">VCC</text><text x="564.2857142857999" y="39.28571428560002" fill="#000000" text-anchor="undefined" dominant-baseline="undefined" font-family="sans-serif" font-size="12.857142857147998px" transform="rotate(0, 564.2857142857999, 39.28571428560002)">Vcc = 2.7V to 5.5V</text><text x="564.2857142857999" y="539.2857142857999" fill="#000000" text-anchor="undefined" dominant-baseline="undefined" font-family="sans-serif" font-size="12.857142857147998px" transform="rotate(0, 564.2857142857999, 539.2857142857999)">I2C Address</text><text x="564.2857142857999" y="560.7142857143799" fill="#000000" text-anchor="undefined" dominant-baseline="undefined" font-family="sans-serif" font-size="12.857142857147998px" transform="rotate(0, 564.2857142857999, 560.7142857143799)">GND = 1100000 (0x60) (Default)</text><text x="564.2857142857999" y="517.85714285722" fill="#000000" text-anchor="undefined" dominant-baseline="undefined" font-family="sans-serif" font-size="12.857142857147998px" transform="rotate(0, 564.2857142857999, 517.85714285722)">VCC - 1100001 (0x61)</text></svg>