<svg xmlns="http://www.w3.org/2000/svg" width="1200" height="600" style="background-color: rgb(245, 241, 237)" data-real-to-screen-transform="matrix(69.7674418605,0,0,-69.7674418605,403.6046511628,289.5348837209)"><style>
              .boundary { fill: rgb(245, 241, 237); }
              .schematic-boundary { fill: none; stroke: #fff; }
              .component { fill: none; stroke: rgb(132, 0, 0); }
              .chip { fill: rgb(255, 255, 194); stroke: rgb(132, 0, 0); }
              .component-pin { fill: none; stroke: rgb(132, 0, 0); }
              .trace:hover {
                filter: invert(1);
              }
              .trace:hover .trace-crossing-outline {
                opacity: 0;
              }
              .trace:hover .trace-junction {
                filter: invert(1);
              }
              .text { font-family: sans-serif; fill: rgb(0, 150, 0); }
              .pin-number { fill: rgb(169, 0, 0); }
              .port-label { fill: rgb(0, 100, 100); }
              .component-name { fill: rgb(0, 100, 100); }
            </style><rect class="boundary" x="0" y="0" width="1200" height="600"/><g data-circuit-json-type="schematic_component" data-schematic-component-id="schematic_component_0"><rect class="component chip" x="361.7441860465" y="261.6279069767" width="83.72093023260004" height="55.81395348839999" stroke-width="1.39534883721px" fill="rgb(255, 255, 194)" stroke="rgb(132, 0, 0)"/><rect class="component-overlay" x="361.7441860465" y="261.6279069767" width="83.72093023260004" height="55.81395348839999" fill="transparent"/><text x="361.7441860465" y="326.511627906965" fill="#006464" text-anchor="start" dominant-baseline="middle" font-family="sans-serif" font-size="12.55813953489px" transform="rotate(0, 361.7441860465, 326.511627906965)">MCP4725A1T_E_CH</text><text x="361.7441860465" y="252.558139534835" fill="#006464" text-anchor="start" dominant-baseline="middle" font-family="sans-serif" font-size="12.55813953489px" transform="rotate(0, 361.7441860465, 252.558139534835)">U1</text><line class="component-pin" x1="335.23255813951" y1="275.58139534879996" x2="361.7441860465" y2="275.58139534879996" stroke-width="1.39534883721px"/><circle class="component-pin" cx="333.8372093023" cy="275.58139534879996" r="1.39534883721" stroke-width="1.39534883721px"/><text class="pin-number" x="347.7906976744" y="274.18604651159" style="font-family: sans-serif;" fill="rgb(169, 0, 0)" text-anchor="middle" dominant-baseline="auto" font-size="10.465116279075px" transform="">1</text><text class="pin-number" x="368.72093023255" y="275.58139534879996" style="font-family: sans-serif;" fill="rgb(169, 0, 0)" text-anchor="start" dominant-baseline="middle" font-size="10.465116279075px" transform="">VOUT</text><line class="component-pin" x1="335.23255813951" y1="289.5348837209" x2="361.7441860465" y2="289.5348837209" stroke-width="1.39534883721px"/><circle class="component-pin" cx="333.8372093023" cy="289.5348837209" r="1.39534883721" stroke-width="1.39534883721px"/><text class="pin-number" x="347.7906976744" y="288.13953488369" style="font-family: sans-serif;" fill="rgb(169, 0, 0)" text-anchor="middle" dominant-baseline="auto" font-size="10.465116279075px" transform="">2</text><text class="pin-number" x="368.72093023255" y="289.5348837209" style="font-family: sans-serif;" fill="rgb(169, 0, 0)" text-anchor="start" dominant-baseline="middle" font-size="10.465116279075px" transform="">VSS</text><line class="component-pin" x1="335.23255813951" y1="303.488372093" x2="361.7441860465" y2="303.488372093" stroke-width="1.39534883721px"/><circle class="component-pin" cx="333.8372093023" cy="303.488372093" r="1.39534883721" stroke-width="1.39534883721px"/><text class="pin-number" x="347.7906976744" y="302.09302325579" style="font-family: sans-serif;" fill="rgb(169, 0, 0)" text-anchor="middle" dominant-baseline="auto" font-size="10.465116279075px" transform="">3</text><text class="pin-number" x="368.72093023255" y="303.488372093" style="font-family: sans-serif;" fill="rgb(169, 0, 0)" text-anchor="start" dominant-baseline="middle" font-size="10.465116279075px" transform="">VDD</text><line class="component-pin" x1="471.97674418609" y1="303.488372093" x2="445.4651162791" y2="303.488372093" stroke-width="1.39534883721px"/><circle class="component-pin" cx="473.3720930233" cy="303.488372093" r="1.39534883721" stroke-width="1.39534883721px"/><text class="pin-number" x="459.4186046512" y="302.09302325579" style="font-family: sans-serif;" fill="rgb(169, 0, 0)" text-anchor="middle" dominant-baseline="auto" font-size="10.465116279075px" transform="">4</text><text class="pin-number" x="438.48837209305" y="303.488372093" style="font-family: sans-serif;" fill="rgb(169, 0, 0)" text-anchor="end" dominant-baseline="middle" font-size="10.465116279075px" transform="">SDA</text><line class="component-pin" x1="471.97674418609" y1="289.5348837209" x2="445.4651162791" y2="289.5348837209" stroke-width="1.39534883721px"/><circle class="component-pin" cx="473.3720930233" cy="289.5348837209" r="1.39534883721" stroke-width="1.39534883721px"/><text class="pin-number" x="459.4186046512" y="288.13953488369" style="font-family: sans-serif;" fill="rgb(169, 0, 0)" text-anchor="middle" dominant-baseline="auto" font-size="10.465116279075px" transform="">5</text><text class="pin-number" x="438.48837209305" y="289.5348837209" style="font-family: sans-serif;" fill="rgb(169, 0, 0)" text-anchor="end" dominant-baseline="middle" font-size="10.465116279075px" transform="">SCL</text><line class="component-pin" x1="471.97674418609" y1="275.58139534879996" x2="445.4651162791" y2="275.58139534879996" stroke-width="1.39534883721px"/><circle class="component-pin" cx="473.3720930233" cy="275.58139534879996" r="1.39534883721" stroke-width="1.39534883721px"/><text class="pin-number" x="459.4186046512" y="274.18604651159" style="font-family: sans-serif;" fill="rgb(169, 0, 0)" text-anchor="middle" dominant-baseline="auto" font-size="10.465116279075px" transform="">6</text><text class="pin-number" x="438.48837209305" y="275.58139534879996" style="font-family: sans-serif;" fill="rgb(169, 0, 0)" text-anchor="end" dominant-baseline="middle" font-size="10.465116279075px" transform="">A0</text></g><g data-circuit-json-type="schematic_component" data-schematic-component-id="schematic_component_1"><rect class="component-overlay" x="533.8659662791441" y="182.86168604642802" width="18.459306976753396" height="73.83720697678109" fill="transparent"/><path d="M 543.0956197675208 256.6988930232091 L 543.0956197675208 238.23959302319992" stroke="rgb(132, 0, 0)" fill="none" stroke-width="1.39534883721px"/><path d="M 543.0956197675208 201.3209930231814 L 543.0956197675208 182.86168604642802" stroke="rgb(132, 0, 0)" fill="none" stroke-width="1.39534883721px"/><path d="M 533.8659662791441 219.78029999993484 L 533.8659662791441 201.32099999992565 L 552.3252732558975 201.32099999992565 L 552.3252732558975 238.23960697668835 L 533.8659662791441 238.23960697668835 L 533.8659662791441 219.78029999993498" stroke="rgb(132, 0, 0)" fill="none" stroke-width="1.39534883721px"/><text x="562.324695348926" y="209.82558139527876" fill="rgb(15, 15, 15)" font-family="sans-serif" text-anchor="start" dominant-baseline="middle" font-size="12.55813953489px">R1</text><text x="562.324695348926" y="232.15116279063875" fill="rgb(15, 15, 15)" font-family="sans-serif" text-anchor="start" dominant-baseline="middle" font-size="12.55813953489px">4.7kΩ</text><circle cx="543.1204709303116" cy="258.22958372088436" r="1.39534883721px" stroke-width="1.39534883721px" fill="none" stroke="rgb(132, 0, 0)"/><circle cx="543.1585988372883" cy="181.30529999991563" r="1.39534883721px" stroke-width="1.39534883721px" fill="none" stroke="rgb(132, 0, 0)"/></g><g data-circuit-json-type="schematic_component" data-schematic-component-id="schematic_component_2"><rect class="component-overlay" x="603.6334081396441" y="182.86168604642802" width="18.459306976753396" height="73.83720697678109" fill="transparent"/><path d="M 612.8630616280208 256.6988930232091 L 612.8630616280208 238.23959302319992" stroke="rgb(132, 0, 0)" fill="none" stroke-width="1.39534883721px"/><path d="M 612.8630616280208 201.3209930231814 L 612.8630616280208 182.86168604642802" stroke="rgb(132, 0, 0)" fill="none" stroke-width="1.39534883721px"/><path d="M 603.6334081396441 219.78029999993484 L 603.6334081396441 201.32099999992565 L 622.0927151163975 201.32099999992565 L 622.0927151163975 238.23960697668835 L 603.6334081396441 238.23960697668835 L 603.6334081396441 219.78029999993498" stroke="rgb(132, 0, 0)" fill="none" stroke-width="1.39534883721px"/><text x="632.0921372094259" y="209.82558139527876" fill="rgb(15, 15, 15)" font-family="sans-serif" text-anchor="start" dominant-baseline="middle" font-size="12.55813953489px">R2</text><text x="632.0921372094259" y="232.15116279063875" fill="rgb(15, 15, 15)" font-family="sans-serif" text-anchor="start" dominant-baseline="middle" font-size="12.55813953489px">4.7kΩ</text><circle cx="612.8879127908116" cy="258.22958372088436" r="1.39534883721px" stroke-width="1.39534883721px" fill="none" stroke="rgb(132, 0, 0)"/><circle cx="612.9260406977883" cy="181.30529999991563" r="1.39534883721px" stroke-width="1.39534883721px" fill="none" stroke="rgb(132, 0, 0)"/></g><g data-circuit-json-type="schematic_component" data-schematic-component-id="schematic_component_3"><rect class="component-overlay" x="366.67319999999086" y="464.9357337209876" width="73.83720697678109" height="18.45930697675334" fill="transparent"/><path d="M 366.67319999999086 474.16538720936427 L 385.13250000000005 474.16538720936427" stroke="rgb(132, 0, 0)" fill="none" stroke-width="1.39534883721px"/><path d="M 422.0511000000186 474.16538720936427 L 440.51040697677195 474.16538720936427" stroke="rgb(132, 0, 0)" fill="none" stroke-width="1.39534883721px"/><path d="M 403.59179302326515 464.9357337209876 L 422.05109302327435 464.9357337209876 L 422.05109302327435 483.39504069774097 L 385.13248604651164 483.39504069774097 L 385.13248604651164 464.9357337209876 L 403.591793023265 464.9357337209876" stroke="rgb(132, 0, 0)" fill="none" stroke-width="1.39534883721px"/><text x="402.3837209302412" y="461.4038955493581" fill="rgb(15, 15, 15)" font-family="sans-serif" text-anchor="middle" dominant-baseline="auto" font-size="12.55813953489px">R3</text><text x="402.3837209302412" y="488.4842835205344" fill="rgb(15, 15, 15)" font-family="sans-serif" text-anchor="middle" dominant-baseline="hanging" font-size="12.55813953489px">10kΩ</text><circle cx="365.1425093023156" cy="474.1902383721552" r="1.39534883721px" stroke-width="1.39534883721px" fill="none" stroke="rgb(132, 0, 0)"/><circle cx="442.06679302328433" cy="474.2283662791318" r="1.39534883721px" stroke-width="1.39534883721px" fill="none" stroke="rgb(132, 0, 0)"/></g><g data-circuit-json-type="schematic_component" data-schematic-component-id="schematic_component_4"><rect class="component-overlay" x="733.9386453490117" y="253.05085116274216" width="36.9186000000185" height="73.83720697678115" fill="transparent"/><path d="M 752.3979453490208 253.05085116274216 L 752.3979453490208 284.43166046508344" stroke="rgb(132, 0, 0)" fill="none" stroke-width="1.39534883721px"/><path d="M 752.3979453490208 295.50724186043783 L 752.3979453490208 326.8880581395233" stroke="rgb(132, 0, 0)" fill="none" stroke-width="1.39534883721px"/><path d="M 733.9386453490117 284.4316604650835 L 770.8572453490302 284.43166046508344" stroke="rgb(132, 0, 0)" fill="none" stroke-width="1.39534883721px"/><path d="M 733.9386453490117 295.50724186043783 L 770.8572453490302 295.50724186043783" stroke="rgb(132, 0, 0)" fill="none" stroke-width="1.39534883721px"/><text x="768.2169034885638" y="275.68722867879995" fill="rgb(15, 15, 15)" font-family="sans-serif" text-anchor="start" dominant-baseline="auto" font-size="12.55813953489px">C1</text><text x="768.2169034885638" y="303.38253876299996" fill="rgb(15, 15, 15)" font-family="sans-serif" text-anchor="start" dominant-baseline="hanging" font-size="12.55813953489px">100nF</text><circle cx="752.4609313955325" cy="327.9913465116169" r="1.39534883721px" stroke-width="1.39534883721px" fill="none" stroke="rgb(132, 0, 0)"/><circle cx="752.4227895350674" cy="251.07842093018306" r="1.39534883721px" stroke-width="1.39534883721px" fill="none" stroke="rgb(132, 0, 0)"/></g><g data-circuit-json-type="schematic_component" data-schematic-component-id="schematic_component_5"><rect class="component chip" x="152.441860465" y="254.65116279064998" width="83.72093023260001" height="41.86046511629999" stroke-width="1.39534883721px" fill="rgb(255, 255, 194)" stroke="rgb(132, 0, 0)"/><rect class="component-overlay" x="152.441860465" y="254.65116279064998" width="83.72093023260001" height="41.86046511629999" fill="transparent"/><text x="152.441860465" y="305.58139534881497" fill="#006464" text-anchor="start" dominant-baseline="middle" font-family="sans-serif" font-size="12.55813953489px" transform="rotate(0, 152.441860465, 305.58139534881497)"></text><text x="152.441860465" y="245.58139534878498" fill="#006464" text-anchor="start" dominant-baseline="middle" font-family="sans-serif" font-size="12.55813953489px" transform="rotate(0, 152.441860465, 245.58139534878498)">JP6</text><line class="component-pin" x1="262.67441860458996" y1="282.55813953485" x2="236.1627906976" y2="282.55813953485" stroke-width="1.39534883721px"/><circle class="component-pin" cx="264.06976744179997" cy="282.55813953485" r="1.39534883721" stroke-width="1.39534883721px"/><text class="pin-number" x="250.11627906969997" y="281.16279069764" style="font-family: sans-serif;" fill="rgb(169, 0, 0)" text-anchor="middle" dominant-baseline="auto" font-size="10.465116279075px" transform="">1</text><text class="pin-number" x="229.18604651155" y="282.55813953485" style="font-family: sans-serif;" fill="rgb(169, 0, 0)" text-anchor="end" dominant-baseline="middle" font-size="10.465116279075px" transform="">GND</text><line class="component-pin" x1="262.67441860458996" y1="268.60465116275" x2="236.1627906976" y2="268.60465116275" stroke-width="1.39534883721px"/><circle class="component-pin" cx="264.06976744179997" cy="268.60465116275" r="1.39534883721" stroke-width="1.39534883721px"/><text class="pin-number" x="250.11627906969997" y="267.20930232553997" style="font-family: sans-serif;" fill="rgb(169, 0, 0)" text-anchor="middle" dominant-baseline="auto" font-size="10.465116279075px" transform="">2</text><text class="pin-number" x="229.18604651155" y="268.60465116275" style="font-family: sans-serif;" fill="rgb(169, 0, 0)" text-anchor="end" dominant-baseline="middle" font-size="10.465116279075px" transform="">VOUT</text></g><g data-circuit-json-type="schematic_component" data-schematic-component-id="schematic_component_6"><rect class="component chip" x="919.8837209305" y="254.65116279064998" width="83.72093023260004" height="69.76744186049999" stroke-width="1.39534883721px" fill="rgb(255, 255, 194)" stroke="rgb(132, 0, 0)"/><rect class="component-overlay" x="919.8837209305" y="254.65116279064998" width="83.72093023260004" height="69.76744186049999" fill="transparent"/><text x="919.8837209305" y="333.48837209301496" fill="#006464" text-anchor="start" dominant-baseline="middle" font-family="sans-serif" font-size="12.55813953489px" transform="rotate(0, 919.8837209305, 333.48837209301496)"></text><text x="919.8837209305" y="245.58139534878498" fill="#006464" text-anchor="start" dominant-baseline="middle" font-family="sans-serif" font-size="12.55813953489px" transform="rotate(0, 919.8837209305, 245.58139534878498)">JP5</text><line class="component-pin" x1="1030.11627907009" y1="310.46511627905" x2="1003.6046511631" y2="310.46511627905" stroke-width="1.39534883721px"/><circle class="component-pin" cx="1031.5116279073" cy="310.46511627905" r="1.39534883721" stroke-width="1.39534883721px"/><text class="pin-number" x="1017.5581395352001" y="309.06976744184" style="font-family: sans-serif;" fill="rgb(169, 0, 0)" text-anchor="middle" dominant-baseline="auto" font-size="10.465116279075px" transform="">1</text><text class="pin-number" x="996.62790697705" y="310.46511627905" style="font-family: sans-serif;" fill="rgb(169, 0, 0)" text-anchor="end" dominant-baseline="middle" font-size="10.465116279075px" transform="">SCL</text><line class="component-pin" x1="1030.11627907009" y1="296.51162790694997" x2="1003.6046511631" y2="296.51162790694997" stroke-width="1.39534883721px"/><circle class="component-pin" cx="1031.5116279073" cy="296.51162790694997" r="1.39534883721" stroke-width="1.39534883721px"/><text class="pin-number" x="1017.5581395352001" y="295.11627906973996" style="font-family: sans-serif;" fill="rgb(169, 0, 0)" text-anchor="middle" dominant-baseline="auto" font-size="10.465116279075px" transform="">2</text><text class="pin-number" x="996.62790697705" y="296.51162790694997" style="font-family: sans-serif;" fill="rgb(169, 0, 0)" text-anchor="end" dominant-baseline="middle" font-size="10.465116279075px" transform="">SDA</text><line class="component-pin" x1="1030.11627907009" y1="282.55813953485" x2="1003.6046511631" y2="282.55813953485" stroke-width="1.39534883721px"/><circle class="component-pin" cx="1031.5116279073" cy="282.55813953485" r="1.39534883721" stroke-width="1.39534883721px"/><text class="pin-number" x="1017.5581395352001" y="281.16279069764" style="font-family: sans-serif;" fill="rgb(169, 0, 0)" text-anchor="middle" dominant-baseline="auto" font-size="10.465116279075px" transform="">3</text><text class="pin-number" x="996.62790697705" y="282.55813953485" style="font-family: sans-serif;" fill="rgb(169, 0, 0)" text-anchor="end" dominant-baseline="middle" font-size="10.465116279075px" transform="">VCC</text><line class="component-pin" x1="1030.11627907009" y1="268.60465116275" x2="1003.6046511631" y2="268.60465116275" stroke-width="1.39534883721px"/><circle class="component-pin" cx="1031.5116279073" cy="268.60465116275" r="1.39534883721" stroke-width="1.39534883721px"/><text class="pin-number" x="1017.5581395352001" y="267.20930232553997" style="font-family: sans-serif;" fill="rgb(169, 0, 0)" text-anchor="middle" dominant-baseline="auto" font-size="10.465116279075px" transform="">4</text><text class="pin-number" x="996.62790697705" y="268.60465116275" style="font-family: sans-serif;" fill="rgb(169, 0, 0)" text-anchor="end" dominant-baseline="middle" font-size="10.465116279075px" transform="">GND</text></g><g data-circuit-json-type="schematic_component" data-schematic-component-id="schematic_component_7"><rect class="component-overlay" x="547.1916418605463" y="132.61543747663555" width="61.69541162793769" height="33.42685813955151" fill="transparent"/><path d="M 593.3821046512669 157.02578863943836 L 608.887053488484 157.02578863943836" stroke="rgb(132, 0, 0)" fill="none" stroke-width="1.39534883721px"/><path d="M 547.1916418605463 157.1454188719966 L 562.6586790698562 157.1454188719966" stroke="rgb(132, 0, 0)" fill="none" stroke-width="1.39534883721px"/><path d="M 569.684274418697 157.14487468595007 L 574.8897627907927 157.14487468595007" stroke="rgb(132, 0, 0)" fill="none" stroke-width="1.39534883721px"/><path d="M 578.2052372093989 148.12038631385258 L 578.2052372093989 132.61543747663555" stroke="rgb(132, 0, 0)" fill="none" stroke-width="1.39534883721px"/><path d="M 569.6384232559062 165.89600026734982 L 569.6384232559062 148.3155398022248" stroke="rgb(132, 0, 0)" fill="none" stroke-width="1.39534883721px"/><path d="M 575.0170744186996 165.5955188720008 L 575.0170744186996 148.60547933710862" stroke="rgb(132, 0, 0)" fill="none" stroke-width="1.39534883721px"/><path d="M 581.2631093024237 165.61493515107054 L 581.2631093024237 148.64528863943414" stroke="rgb(132, 0, 0)" fill="none" stroke-width="1.39534883721px"/><path d="M 575.1529953489322 165.64640026734972 L 581.2076023256794 165.64640026734972" stroke="rgb(132, 0, 0)" fill="none" stroke-width="1.39534883721px"/><path d="M 575.1665441861416 148.58267933710857 L 581.1825348838189 148.58267933710857" stroke="rgb(132, 0, 0)" fill="none" stroke-width="1.39534883721px"/><path d="M 586.4656674419612 165.90271887200097 L 586.4656674419612 148.32225840687596" stroke="rgb(132, 0, 0)" fill="none" stroke-width="1.39534883721px"/><path d="M 586.7897930233568 148.08776305803858 L 586.7897930233568 148.08776305803858 L 587.8800310618585 148.67568298646265 L 588.8607939825309 149.28516099705726 L 589.7357556908 149.9139653580395 L 590.5085900920924 150.55986433762635 L 591.1829710918344 151.22062620403497 L 591.7625725954522 151.8940192254823 L 592.2510685083723 152.5778116701855 L 592.6521327360211 153.26977180636158 L 592.969439183825 153.96766790222753 L 593.2066617572101 154.6692682260005 L 593.367474361603 155.37234104589749 L 593.4555509024299 156.07465463013557 L 593.4745652851171 156.7739772469318 L 593.4281914150913 157.4680771645032 L 593.3201031977786 158.15472265106686 L 593.1539745386054 158.8316819748398 L 592.933479342998 159.4967234040391 L 592.6622915163829 160.1476152068818 L 592.3440849641864 160.78212565158498 L 591.9825335918348 161.39802300636563 L 591.5813113047545 161.99307553944087 L 591.1440920083718 162.56505151902772 L 590.6745496081132 163.11171921334324 L 590.1763580094049 163.63084689060446 L 589.6531911176734 164.1202028190285 L 589.108722838345 164.57755526683232 L 588.546627076846 165.00067250223304 L 587.9705777386029 165.3873227934477 L 587.3842487290418 165.73527440869336 L 586.7913139535893 166.04229561618706 L 586.7913139535893 166.04229561618706" stroke="rgb(132, 0, 0)" fill="none" stroke-width="1.39534883721px"/><path d="M 569.3195023256735 148.07891654641068 L 569.3195023256735 148.07891654641068 L 568.2292642871718 148.66683647483475 L 567.2485013664995 149.27631448542937 L 566.3735396582302 149.9051188464116 L 565.6007052569379 150.55101782599849 L 564.9263242571959 151.21177969240708 L 564.3467227535781 151.88517271385444 L 563.858226840658 152.56896515855763 L 563.4571626130091 153.26092529473368 L 563.1398561652054 153.95882139059967 L 562.9026335918202 154.66042171437263 L 562.7418209874273 155.36349453426962 L 562.6537444466005 156.0658081185077 L 562.6347300639131 156.7651307353039 L 562.681103933939 157.4592306528753 L 562.7891921512517 158.14587613943897 L 562.955320810425 158.8228354632119 L 563.1758160060323 159.4878768924112 L 563.4470038326474 160.13876869525393 L 563.765210384844 160.77327913995708 L 564.1267617571955 161.38917649473774 L 564.5279840442759 161.98422902781297 L 564.9652033406585 162.55620500739983 L 565.434745740917 163.10287270171534 L 565.9329373396254 163.6220003789766 L 566.4561042313569 164.1113563074006 L 567.0005725106853 164.56870875520445 L 567.5626682721843 164.99182599060518 L 568.1387176104275 165.37847628181984 L 568.7250466199885 165.7264278970655 L 569.3179813954409 166.03344910455917 L 569.3179813954409 166.03344910455917" stroke="rgb(132, 0, 0)" fill="none" stroke-width="1.39534883721px"/><path d="M 581.2685441861446 157.14487468595007 L 586.4740325582403 157.14487468595007" stroke="rgb(132, 0, 0)" fill="none" stroke-width="1.39534883721px"/><text x="579.4629209303297" y="169.53981866990975" fill="rgb(15, 15, 15)" font-family="sans-serif" text-anchor="middle" dominant-baseline="hanging" font-size="12.55813953489px">SJ1</text><circle cx="578.2669395349803" cy="132.37681189524005" r="1.39534883721px" stroke-width="1.39534883721px" fill="none" stroke="rgb(132, 0, 0)"/><circle cx="609.1256372094144" cy="157.08748398827558" r="1.39534883721px" stroke-width="1.39534883721px" fill="none" stroke="rgb(132, 0, 0)"/><circle cx="546.9208744186856" cy="157.07880491850815" r="1.39534883721px" stroke-width="1.39534883721px" fill="none" stroke="rgb(132, 0, 0)"/></g><g data-circuit-json-type="schematic_component" data-schematic-component-id="schematic_component_8"><rect class="component-overlay" x="512.3079209302962" y="446.56892584888556" width="61.6954116279378" height="33.426858139551484" fill="transparent"/><path d="M 558.4983837210169 470.9792770116884 L 574.003332558234 470.97927701168834" stroke="rgb(132, 0, 0)" fill="none" stroke-width="1.39534883721px"/><path d="M 512.3079209302962 471.0989072442466 L 527.7749581396063 471.0989072442466" stroke="rgb(132, 0, 0)" fill="none" stroke-width="1.39534883721px"/><path d="M 543.3215162791489 462.07387468610256 L 543.3215162791489 446.56892584888556" stroke="rgb(132, 0, 0)" fill="none" stroke-width="1.39534883721px"/><path d="M 534.7547023256562 479.8494886395998 L 534.7547023256562 462.2690281744748" stroke="rgb(132, 0, 0)" fill="none" stroke-width="1.39534883721px"/><path d="M 540.1333534884496 479.5490072442508 L 540.1333534884496 462.5589677093586" stroke="rgb(132, 0, 0)" fill="none" stroke-width="1.39534883721px"/><path d="M 546.3793883721737 479.5684235233206 L 546.3793883721737 462.59877701168415" stroke="rgb(132, 0, 0)" fill="none" stroke-width="1.39534883721px"/><path d="M 540.2692744186822 479.5998886395997 L 546.3238813954295 479.5998886395997" stroke="rgb(132, 0, 0)" fill="none" stroke-width="1.39534883721px"/><path d="M 540.2828232558916 462.5361677093586 L 546.2988139535689 462.5361677093586" stroke="rgb(132, 0, 0)" fill="none" stroke-width="1.39534883721px"/><path d="M 551.5819465117112 479.856207244251 L 551.5819465117112 462.275746779126" stroke="rgb(132, 0, 0)" fill="none" stroke-width="1.39534883721px"/><path d="M 551.9060720931068 462.0412514302886 L 551.9060720931068 462.0412514302886 L 552.9963101316085 462.62917135871265 L 553.977073052281 463.23864936930727 L 554.85203476055 463.86745373028947 L 555.6248691618424 464.51335270987636 L 556.2992501615844 465.174114576285 L 556.8788516652023 465.8475075977323 L 557.3673475781225 466.53130004243553 L 557.7684118057712 467.22326017861155 L 558.085718253575 467.92115627447754 L 558.3229408269601 468.62275659825053 L 558.483753431353 469.3258294181475 L 558.5718299721799 470.0281430023856 L 558.5908443548672 470.72746561918177 L 558.5444704848413 471.42156553675323 L 558.4363822675286 472.10821102331687 L 558.2702536083555 472.78517034708983 L 558.0497584127481 473.4502117762891 L 557.7785705861329 474.1011035791318 L 557.4603640339365 474.73561402383496 L 557.0988126615848 475.35151137861567 L 556.6975903745046 475.9465639116909 L 556.2603710781218 476.5185398912777 L 555.7908286778633 477.06520758559327 L 555.2926370791549 477.5843352628545 L 554.7694701874234 478.0736911912785 L 554.225001908095 478.5310436390823 L 553.662906146596 478.9541608744831 L 553.0868568083529 479.34081116569774 L 552.5005277987918 479.68876278094336 L 551.9075930233394 479.99578398843704 L 551.9075930233394 479.99578398843704" stroke="rgb(132, 0, 0)" fill="none" stroke-width="1.39534883721px"/><path d="M 534.4357813954235 462.0324049186607 L 534.4357813954235 462.0324049186607 L 533.3455433569218 462.62032484708476 L 532.3647804362495 463.2298028576794 L 531.4898187279803 463.8586072186616 L 530.7169843266879 464.50450619824846 L 530.0426033269459 465.1652680646571 L 529.4630018233281 465.8386610861044 L 528.974505910408 466.52245353080764 L 528.5734416827592 467.21441366698366 L 528.2561352349554 467.91230976284965 L 528.0189126615702 468.61391008662264 L 527.8581000571774 469.3169829065196 L 527.7700235163504 470.0192964907577 L 527.7510091336632 470.71861910755393 L 527.797383003689 471.41271902512534 L 527.9054712210017 472.099364511689 L 528.071599880175 472.77632383546194 L 528.2920950757823 473.4413652646612 L 528.5632829023974 474.0922570675039 L 528.881489454594 474.72676751220706 L 529.2430408269455 475.3426648669878 L 529.6442631140259 475.937717400063 L 530.0814824104085 476.50969337964983 L 530.5510248106671 477.0563610739654 L 531.0492164093754 477.5754887512266 L 531.5723833011069 478.0648446796506 L 532.1168515804353 478.52219712745443 L 532.6789473419343 478.9453143628552 L 533.2549966801776 479.33196465406985 L 533.8413256897385 479.67991626931547 L 534.434260465191 479.9869374768092 L 534.434260465191 479.9869374768092" stroke="rgb(132, 0, 0)" fill="none" stroke-width="1.39534883721px"/><text x="544.5792000000797" y="483.49330704215976" fill="rgb(15, 15, 15)" font-family="sans-serif" text-anchor="middle" dominant-baseline="hanging" font-size="12.55813953489px">SJ2</text><circle cx="543.3832186047304" cy="446.33030026749003" r="1.39534883721px" stroke-width="1.39534883721px" fill="none" stroke="rgb(132, 0, 0)"/><circle cx="574.2419162791645" cy="471.0409723605256" r="1.39534883721px" stroke-width="1.39534883721px" fill="none" stroke="rgb(132, 0, 0)"/><circle cx="512.0371534884356" cy="471.03229329075816" r="1.39534883721px" stroke-width="1.39534883721px" fill="none" stroke="rgb(132, 0, 0)"/></g><g class="trace" data-circuit-json-type="schematic_trace" data-schematic-trace-id="schematic_trace_0"><path d="M 333.8372093023 275.58139534879996 L 291.976744186 275.58139534879996 L 291.976744186 268.60465116275 L 264.06976744179997 268.60465116275" class="trace-invisible-hover-outline" stroke="rgb(0, 150, 0)" fill="none" stroke-width="11.16279069768px" stroke-linecap="round" opacity="0" stroke-linejoin="round"/><path d="M 333.8372093023 275.58139534879996 L 291.976744186 275.58139534879996 L 291.976744186 268.60465116275 L 264.06976744179997 268.60465116275" stroke="rgb(0, 150, 0)" fill="none" stroke-width="1.39534883721px" stroke-linecap="round" stroke-linejoin="round"/></g><g class="trace" data-circuit-json-type="schematic_trace" data-schematic-trace-id="schematic_trace_1"><path d="M 473.3720930233 275.58139534879996 L 543.3832186047304 275.58139534879996 L 543.3832186047304 438.49059767446283 L 543.3832186047304 446.33030026749003" class="trace-invisible-hover-outline" stroke="rgb(0, 150, 0)" fill="none" stroke-width="11.16279069768px" stroke-linecap="round" opacity="0" stroke-linejoin="round"/><path d="M 473.3720930233 275.58139534879996 L 543.3832186047304 275.58139534879996 L 543.3832186047304 438.49059767446283 L 543.3832186047304 446.33030026749003" stroke="rgb(0, 150, 0)" fill="none" stroke-width="1.39534883721px" stroke-linecap="round" stroke-linejoin="round"/></g><g class="trace" data-circuit-json-type="schematic_trace" data-schematic-trace-id="schematic_trace_2"><path d="M 442.0667930232844 474.2283662791318 L 512.0371534884356 474.2283662791318 L 512.0371534884356 471.03229329075816" class="trace-invisible-hover-outline" stroke="rgb(0, 150, 0)" fill="none" stroke-width="11.16279069768px" stroke-linecap="round" opacity="0" stroke-linejoin="round"/><path d="M 442.0667930232844 474.2283662791318 L 512.0371534884356 474.2283662791318 L 512.0371534884356 471.03229329075816" stroke="rgb(0, 150, 0)" fill="none" stroke-width="1.39534883721px" stroke-linecap="round" stroke-linejoin="round"/></g><g class="trace" data-circuit-json-type="schematic_trace" data-schematic-trace-id="schematic_trace_3"><path d="M 543.1585988372883 181.30529999991563 L 543.1585988372883 157.07880491850815 L 546.9208744186856 157.07880491850815" class="trace-invisible-hover-outline" stroke="rgb(0, 150, 0)" fill="none" stroke-width="11.16279069768px" stroke-linecap="round" opacity="0" stroke-linejoin="round"/><path d="M 543.1585988372883 181.30529999991563 L 543.1585988372883 157.07880491850815 L 546.9208744186856 157.07880491850815" stroke="rgb(0, 150, 0)" fill="none" stroke-width="1.39534883721px" stroke-linecap="round" stroke-linejoin="round"/></g><g class="trace" data-circuit-json-type="schematic_trace" data-schematic-trace-id="schematic_trace_4"><path d="M 612.9260406977883 181.30529999991563 L 612.9260406977883 157.08748398827558 L 609.1256372094144 157.08748398827558" class="trace-invisible-hover-outline" stroke="rgb(0, 150, 0)" fill="none" stroke-width="11.16279069768px" stroke-linecap="round" opacity="0" stroke-linejoin="round"/><path d="M 612.9260406977883 181.30529999991563 L 612.9260406977883 157.08748398827558 L 609.1256372094144 157.08748398827558" stroke="rgb(0, 150, 0)" fill="none" stroke-width="1.39534883721px" stroke-linecap="round" stroke-linejoin="round"/></g><path class="net-label" d="
    M 333.8372093023,289.5348837209
    L 330.069767441833,297.06976744183396
    L 295.62325581390877,297.06976744183396
    L 295.62325581390877,281.999999999966
    L 330.069767441833,281.999999999966
    Z
  " fill="rgba(255, 255, 255, 0.6)" stroke="rgb(132, 0, 0)" stroke-width="1.39534883721px"/><text class="net-label-text" x="327.558139534855" y="289.5348837209" fill="rgb(132, 0, 0)" text-anchor="end" dominant-baseline="central" font-family="sans-serif" font-variant-numeric="tabular-nums" font-size="12.55813953489px" transform="">GND</text><path class="net-label" d="
    M 333.8372093023,303.488372093
    L 330.069767441833,311.023255813934
    L 297.0186046511188,311.023255813934
    L 297.0186046511188,295.95348837206603
    L 330.069767441833,295.95348837206603
    Z
  " fill="rgba(255, 255, 255, 0.6)" stroke="rgb(132, 0, 0)" stroke-width="1.39534883721px"/><text class="net-label-text" x="327.558139534855" y="303.488372093" fill="rgb(132, 0, 0)" text-anchor="end" dominant-baseline="central" font-family="sans-serif" font-variant-numeric="tabular-nums" font-size="12.55813953489px" transform="">VCC</text><path class="net-label" d="
    M 473.3720930233,303.488372093
    L 477.139534883767,295.95348837206603
    L 509.7255813954112,295.95348837206603
    L 509.7255813954112,311.023255813934
    L 477.139534883767,311.023255813934
    Z
  " fill="rgba(255, 255, 255, 0.6)" stroke="rgb(132, 0, 0)" stroke-width="1.39534883721px"/><text class="net-label-text" x="479.651162790745" y="303.488372093" fill="rgb(132, 0, 0)" text-anchor="start" dominant-baseline="central" font-family="sans-serif" font-variant-numeric="tabular-nums" font-size="12.55813953489px" transform="">SDA</text><path class="net-label" d="
    M 473.3720930233,289.5348837209
    L 477.139534883767,281.999999999966
    L 508.3302325582012,281.999999999966
    L 508.3302325582012,297.06976744183396
    L 477.139534883767,297.06976744183396
    Z
  " fill="rgba(255, 255, 255, 0.6)" stroke="rgb(132, 0, 0)" stroke-width="1.39534883721px"/><text class="net-label-text" x="479.651162790745" y="289.5348837209" fill="rgb(132, 0, 0)" text-anchor="start" dominant-baseline="central" font-family="sans-serif" font-variant-numeric="tabular-nums" font-size="12.55813953489px" transform="">SCL</text><path class="net-label" d="
    M 264.06976744179997,282.55813953485
    L 267.83720930226696,275.023255813916
    L 302.2837209301912,275.023255813916
    L 302.2837209301912,290.093023255784
    L 267.83720930226696,290.093023255784
    Z
  " fill="rgba(255, 255, 255, 0.6)" stroke="rgb(132, 0, 0)" stroke-width="1.39534883721px"/><text class="net-label-text" x="270.34883720924495" y="282.55813953485" fill="rgb(132, 0, 0)" text-anchor="start" dominant-baseline="central" font-family="sans-serif" font-variant-numeric="tabular-nums" font-size="12.55813953489px" transform="">GND</text><path class="net-label" d="
    M 365.1425093023156,474.19023837215514
    L 361.3750674418486,481.7251220930891
    L 326.9285558139244,481.7251220930891
    L 326.9285558139244,466.65535465122116
    L 361.3750674418486,466.65535465122116
    Z
  " fill="rgba(255, 255, 255, 0.6)" stroke="rgb(132, 0, 0)" stroke-width="1.39534883721px"/><text class="net-label-text" x="358.8634395348706" y="474.19023837215514" fill="rgb(132, 0, 0)" text-anchor="end" dominant-baseline="central" font-family="sans-serif" font-variant-numeric="tabular-nums" font-size="12.55813953489px" transform="">GND</text><path class="net-label" d="
    M 574.2419162791643,471.0409723605256
    L 578.0093581396313,463.5060886395916
    L 611.0605209303455,463.5060886395916
    L 611.0605209303455,478.57585608145956
    L 578.0093581396313,478.57585608145956
    Z
  " fill="rgba(255, 255, 255, 0.6)" stroke="rgb(132, 0, 0)" stroke-width="1.39534883721px"/><text class="net-label-text" x="580.5209860466093" y="471.0409723605256" fill="rgb(132, 0, 0)" text-anchor="start" dominant-baseline="central" font-family="sans-serif" font-variant-numeric="tabular-nums" font-size="12.55813953489px" transform="">VCC</text><path class="net-label" d="
    M 752.4609313955325,327.9913465116169
    L 759.9958151164665,331.75878837208387
    L 759.9958151164665,364.8099511627981
    L 744.9260476745985,364.8099511627981
    L 744.9260476745985,331.75878837208387
    Z
  " fill="rgba(255, 255, 255, 0.6)" stroke="rgb(132, 0, 0)" stroke-width="1.39534883721px"/><text class="net-label-text" x="752.4609313955325" y="334.27041627906186" fill="rgb(132, 0, 0)" text-anchor="start" dominant-baseline="central" font-family="sans-serif" font-variant-numeric="tabular-nums" font-size="12.55813953489px" transform="rotate(90 752.4609313955325 334.27041627906186)">VCC</text><path class="net-label" d="
    M 752.4227895350675,251.07842093018306
    L 744.8879058141335,247.31097906971607
    L 744.8879058141335,212.86446744179187
    L 759.9576732560015,212.86446744179187
    L 759.9576732560015,247.31097906971607
    Z
  " fill="rgba(255, 255, 255, 0.6)" stroke="rgb(132, 0, 0)" stroke-width="1.39534883721px"/><text class="net-label-text" x="752.4227895350675" y="244.79935116273805" fill="rgb(132, 0, 0)" text-anchor="start" dominant-baseline="central" font-family="sans-serif" font-variant-numeric="tabular-nums" font-size="12.55813953489px" transform="rotate(-90 752.4227895350675 244.79935116273805)">GND</text><path class="net-label" d="
    M 1031.5116279073,310.46511627905
    L 1035.279069767767,302.930232558116
    L 1066.4697674422011,302.930232558116
    L 1066.4697674422011,317.99999999998397
    L 1035.279069767767,317.99999999998397
    Z
  " fill="rgba(255, 255, 255, 0.6)" stroke="rgb(132, 0, 0)" stroke-width="1.39534883721px"/><text class="net-label-text" x="1037.790697674745" y="310.46511627905" fill="rgb(132, 0, 0)" text-anchor="start" dominant-baseline="central" font-family="sans-serif" font-variant-numeric="tabular-nums" font-size="12.55813953489px" transform="">SCL</text><path class="net-label" d="
    M 1031.5116279073,296.51162790694997
    L 1035.279069767767,288.976744186016
    L 1067.8651162794113,288.976744186016
    L 1067.8651162794113,304.04651162788394
    L 1035.279069767767,304.04651162788394
    Z
  " fill="rgba(255, 255, 255, 0.6)" stroke="rgb(132, 0, 0)" stroke-width="1.39534883721px"/><text class="net-label-text" x="1037.790697674745" y="296.51162790694997" fill="rgb(132, 0, 0)" text-anchor="start" dominant-baseline="central" font-family="sans-serif" font-variant-numeric="tabular-nums" font-size="12.55813953489px" transform="">SDA</text><path class="net-label" d="
    M 1031.5116279073,282.55813953485
    L 1035.279069767767,275.023255813916
    L 1068.3302325584812,275.023255813916
    L 1068.3302325584812,290.093023255784
    L 1035.279069767767,290.093023255784
    Z
  " fill="rgba(255, 255, 255, 0.6)" stroke="rgb(132, 0, 0)" stroke-width="1.39534883721px"/><text class="net-label-text" x="1037.790697674745" y="282.55813953485" fill="rgb(132, 0, 0)" text-anchor="start" dominant-baseline="central" font-family="sans-serif" font-variant-numeric="tabular-nums" font-size="12.55813953489px" transform="">VCC</text><path class="net-label" d="
    M 1031.5116279073,268.60465116275
    L 1035.279069767767,261.069767441816
    L 1069.725581395691,261.069767441816
    L 1069.725581395691,276.13953488368395
    L 1035.279069767767,276.13953488368395
    Z
  " fill="rgba(255, 255, 255, 0.6)" stroke="rgb(132, 0, 0)" stroke-width="1.39534883721px"/><text class="net-label-text" x="1037.790697674745" y="268.60465116275" fill="rgb(132, 0, 0)" text-anchor="start" dominant-baseline="central" font-family="sans-serif" font-variant-numeric="tabular-nums" font-size="12.55813953489px" transform="">GND</text><path class="net-label" d="
    M 543.1204709303116,258.22958372088436
    L 550.6553546512456,261.99702558135135
    L 550.6553546512456,293.18772325578556
    L 535.5855872093776,293.18772325578556
    L 535.5855872093776,261.99702558135135
    Z
  " fill="rgba(255, 255, 255, 0.6)" stroke="rgb(132, 0, 0)" stroke-width="1.39534883721px"/><text class="net-label-text" x="543.1204709303116" y="264.50865348832934" fill="rgb(132, 0, 0)" text-anchor="start" dominant-baseline="central" font-family="sans-serif" font-variant-numeric="tabular-nums" font-size="12.55813953489px" transform="rotate(90 543.1204709303116 264.50865348832934)">SCL</text><path class="net-label" d="
    M 612.8879127908117,258.22958372088436
    L 620.4227965117457,261.99702558135135
    L 620.4227965117457,294.58307209299556
    L 605.3530290698777,294.58307209299556
    L 605.3530290698777,261.99702558135135
    Z
  " fill="rgba(255, 255, 255, 0.6)" stroke="rgb(132, 0, 0)" stroke-width="1.39534883721px"/><text class="net-label-text" x="612.8879127908117" y="264.50865348832934" fill="rgb(132, 0, 0)" text-anchor="start" dominant-baseline="central" font-family="sans-serif" font-variant-numeric="tabular-nums" font-size="12.55813953489px" transform="rotate(90 612.8879127908117 264.50865348832934)">SDA</text><rect class="component-overlay" x="571.7516720931167" y="102.7599467789461" width="12.926476744192314" height="28.57408604652599" fill="transparent"/><path d="M 578.1127953489339 102.7599467789461 L 571.7516720931167 116.09046073244117" stroke="rgb(132, 0, 0)" fill="none" stroke-width="1.39534883721px"/><path d="M 578.317025581492 102.76689561615541 L 584.678148837309 116.09744445337142" stroke="rgb(132, 0, 0)" fill="none" stroke-width="1.39534883721px"/><path d="M 578.1864069768408 103.11169329057422 L 578.1864069768408 131.3340328254721" stroke="rgb(132, 0, 0)" fill="none" stroke-width="1.39534883721px"/><text x="577.8743441861429" y="98.67149096499064" fill="rgb(15, 15, 15)" font-family="sans-serif" text-anchor="middle" dominant-baseline="ideographic" font-size="12.55813953489px">VCC</text><text x="543.1395348838" y="45.34883720914999" fill="#000000" text-anchor="start" dominant-baseline="middle" font-family="sans-serif" font-size="20.93023255815px" transform="rotate(0, 543.1395348838, 45.34883720914999)">Vcc = 2.7V to 5.5V</text><text x="543.1395348838" y="533.72093023265" fill="#000000" text-anchor="start" dominant-baseline="middle" font-family="sans-serif" font-size="20.93023255815px" transform="rotate(0, 543.1395348838, 533.72093023265)">I2C Address</text><text x="543.1395348838" y="554.6511627908" fill="#000000" text-anchor="start" dominant-baseline="middle" font-family="sans-serif" font-size="20.93023255815px" transform="rotate(0, 543.1395348838, 554.6511627908)">GND = 1100000 (0x60) (Default)</text><text x="543.1395348838" y="512.7906976745" fill="#000000" text-anchor="start" dominant-baseline="middle" font-family="sans-serif" font-size="20.93023255815px" transform="rotate(0, 543.1395348838, 512.7906976745)">VCC - 1100001 (0x61)</text></svg>