<svg xmlns="http://www.w3.org/2000/svg" width="1200" height="600" style="background-color: rgb(245, 241, 237)" data-real-to-screen-transform="matrix(69.7674418605,0,0,-69.7674418605,417.5581395349,289.5348837209)"><style>
              .boundary { fill: rgb(245, 241, 237); }
              .schematic-boundary { fill: none; stroke: #fff; }
              .component { fill: none; stroke: rgb(132, 0, 0); }
              .chip { fill: rgb(255, 255, 194); stroke: rgb(132, 0, 0); }
              .component-pin { fill: none; stroke: rgb(132, 0, 0); }
              .trace:hover {
                filter: invert(1);
              }
              .trace:hover .trace-crossing-outline {
                opacity: 0;
              }
              .trace:hover .trace-junction {
                filter: invert(1);
              }
              .text { font-family: sans-serif; fill: rgb(0, 150, 0); }
              .pin-number { fill: rgb(169, 0, 0); }
              .port-label { fill: rgb(0, 100, 100); }
              .component-name { fill: rgb(0, 100, 100); }
            </style><rect class="boundary" x="0" y="0" width="1200" height="600"/><g data-circuit-json-type="schematic_component" data-schematic-component-id="schematic_component_0"><rect class="component chip" x="375.6976744186" y="261.6279069767" width="83.72093023260004" height="55.81395348839999" stroke-width="1.39534883721px" fill="rgb(255, 255, 194)" stroke="rgb(132, 0, 0)"/><rect class="component-overlay" x="375.6976744186" y="261.6279069767" width="83.72093023260004" height="55.81395348839999" fill="transparent"/><text x="375.6976744186" y="326.511627906965" fill="#006464" text-anchor="start" dominant-baseline="middle" font-family="sans-serif" font-size="12.55813953489px" transform="rotate(0, 375.6976744186, 326.511627906965)">MCP4725A1T_E_CH</text><text x="375.6976744186" y="252.558139534835" fill="#006464" text-anchor="start" dominant-baseline="middle" font-family="sans-serif" font-size="12.55813953489px" transform="rotate(0, 375.6976744186, 252.558139534835)">U1</text><line class="component-pin" x1="349.18604651161" y1="275.58139534879996" x2="375.6976744186" y2="275.58139534879996" stroke-width="1.39534883721px"/><circle class="component-pin" cx="347.7906976744" cy="275.58139534879996" r="1.39534883721" stroke-width="1.39534883721px"/><text class="pin-number" x="361.74418604650003" y="274.18604651159" style="font-family: sans-serif;" fill="rgb(169, 0, 0)" text-anchor="middle" dominant-baseline="auto" font-size="10.465116279075px" transform="">1</text><text class="pin-number" x="382.67441860465004" y="275.58139534879996" style="font-family: sans-serif;" fill="rgb(169, 0, 0)" text-anchor="start" dominant-baseline="middle" font-size="10.465116279075px" transform="">VOUT</text><line class="component-pin" x1="349.18604651161" y1="289.5348837209" x2="375.6976744186" y2="289.5348837209" stroke-width="1.39534883721px"/><circle class="component-pin" cx="347.7906976744" cy="289.5348837209" r="1.39534883721" stroke-width="1.39534883721px"/><text class="pin-number" x="361.74418604650003" y="288.13953488369" style="font-family: sans-serif;" fill="rgb(169, 0, 0)" text-anchor="middle" dominant-baseline="auto" font-size="10.465116279075px" transform="">2</text><text class="pin-number" x="382.67441860465004" y="289.5348837209" style="font-family: sans-serif;" fill="rgb(169, 0, 0)" text-anchor="start" dominant-baseline="middle" font-size="10.465116279075px" transform="">VSS</text><line class="component-pin" x1="349.18604651161" y1="303.488372093" x2="375.6976744186" y2="303.488372093" stroke-width="1.39534883721px"/><circle class="component-pin" cx="347.7906976744" cy="303.488372093" r="1.39534883721" stroke-width="1.39534883721px"/><text class="pin-number" x="361.74418604650003" y="302.09302325579" style="font-family: sans-serif;" fill="rgb(169, 0, 0)" text-anchor="middle" dominant-baseline="auto" font-size="10.465116279075px" transform="">3</text><text class="pin-number" x="382.67441860465004" y="303.488372093" style="font-family: sans-serif;" fill="rgb(169, 0, 0)" text-anchor="start" dominant-baseline="middle" font-size="10.465116279075px" transform="">VDD</text><line class="component-pin" x1="485.93023255819" y1="303.488372093" x2="459.41860465120004" y2="303.488372093" stroke-width="1.39534883721px"/><circle class="component-pin" cx="487.32558139540004" cy="303.488372093" r="1.39534883721" stroke-width="1.39534883721px"/><text class="pin-number" x="473.3720930233" y="302.09302325579" style="font-family: sans-serif;" fill="rgb(169, 0, 0)" text-anchor="middle" dominant-baseline="auto" font-size="10.465116279075px" transform="">4</text><text class="pin-number" x="452.44186046515" y="303.488372093" style="font-family: sans-serif;" fill="rgb(169, 0, 0)" text-anchor="end" dominant-baseline="middle" font-size="10.465116279075px" transform="">SDA</text><line class="component-pin" x1="485.93023255819" y1="289.5348837209" x2="459.41860465120004" y2="289.5348837209" stroke-width="1.39534883721px"/><circle class="component-pin" cx="487.32558139540004" cy="289.5348837209" r="1.39534883721" stroke-width="1.39534883721px"/><text class="pin-number" x="473.3720930233" y="288.13953488369" style="font-family: sans-serif;" fill="rgb(169, 0, 0)" text-anchor="middle" dominant-baseline="auto" font-size="10.465116279075px" transform="">5</text><text class="pin-number" x="452.44186046515" y="289.5348837209" style="font-family: sans-serif;" fill="rgb(169, 0, 0)" text-anchor="end" dominant-baseline="middle" font-size="10.465116279075px" transform="">SCL</text><line class="component-pin" x1="485.93023255819" y1="275.58139534879996" x2="459.41860465120004" y2="275.58139534879996" stroke-width="1.39534883721px"/><circle class="component-pin" cx="487.32558139540004" cy="275.58139534879996" r="1.39534883721" stroke-width="1.39534883721px"/><text class="pin-number" x="473.3720930233" y="274.18604651159" style="font-family: sans-serif;" fill="rgb(169, 0, 0)" text-anchor="middle" dominant-baseline="auto" font-size="10.465116279075px" transform="">6</text><text class="pin-number" x="452.44186046515" y="275.58139534879996" style="font-family: sans-serif;" fill="rgb(169, 0, 0)" text-anchor="end" dominant-baseline="middle" font-size="10.465116279075px" transform="">A0</text></g><g data-circuit-json-type="schematic_component" data-schematic-component-id="schematic_component_1"><rect class="component-overlay" x="547.8194546512441" y="182.86168604642802" width="18.459306976753396" height="73.83720697678109" fill="transparent"/><path d="M 557.0491081396208 256.6988930232091 L 557.0491081396208 238.23959302319992" stroke="rgb(132, 0, 0)" fill="none" stroke-width="1.39534883721px" stroke-linecap="round"/><path d="M 557.0491081396208 201.3209930231814 L 557.0491081396208 182.86168604642802" stroke="rgb(132, 0, 0)" fill="none" stroke-width="1.39534883721px" stroke-linecap="round"/><path d="M 547.8194546512441 219.78029999993484 L 547.8194546512441 201.32099999992565 L 566.2787616279975 201.32099999992565 L 566.2787616279975 238.23960697668835 L 547.8194546512441 238.23960697668835 L 547.8194546512441 219.78029999993498" stroke="rgb(132, 0, 0)" fill="none" stroke-width="1.39534883721px" stroke-linecap="round"/><text x="576.2781837210259" y="209.82558139527876" fill="rgb(15, 15, 15)" font-family="sans-serif" text-anchor="start" dominant-baseline="middle" font-size="12.55813953489px">R1</text><text x="576.2781837210259" y="232.15116279063875" fill="rgb(15, 15, 15)" font-family="sans-serif" text-anchor="start" dominant-baseline="middle" font-size="12.55813953489px">4.7kΩ</text><circle cx="557.0739593024116" cy="258.22958372088436" r="1.39534883721px" stroke-width="1.39534883721px" fill="none" stroke="rgb(132, 0, 0)"/><circle cx="557.1120872093883" cy="181.30529999991563" r="1.39534883721px" stroke-width="1.39534883721px" fill="none" stroke="rgb(132, 0, 0)"/></g><g data-circuit-json-type="schematic_component" data-schematic-component-id="schematic_component_2"><rect class="component-overlay" x="617.5868965117442" y="182.86168604642802" width="18.459306976753396" height="73.83720697678109" fill="transparent"/><path d="M 626.8165500001209 256.6988930232091 L 626.8165500001209 238.23959302319992" stroke="rgb(132, 0, 0)" fill="none" stroke-width="1.39534883721px" stroke-linecap="round"/><path d="M 626.8165500001209 201.3209930231814 L 626.8165500001209 182.86168604642802" stroke="rgb(132, 0, 0)" fill="none" stroke-width="1.39534883721px" stroke-linecap="round"/><path d="M 617.5868965117442 219.78029999993484 L 617.5868965117442 201.32099999992565 L 636.0462034884976 201.32099999992565 L 636.0462034884976 238.23960697668835 L 617.5868965117442 238.23960697668835 L 617.5868965117442 219.78029999993498" stroke="rgb(132, 0, 0)" fill="none" stroke-width="1.39534883721px" stroke-linecap="round"/><text x="646.045625581526" y="209.82558139527876" fill="rgb(15, 15, 15)" font-family="sans-serif" text-anchor="start" dominant-baseline="middle" font-size="12.55813953489px">R2</text><text x="646.045625581526" y="232.15116279063875" fill="rgb(15, 15, 15)" font-family="sans-serif" text-anchor="start" dominant-baseline="middle" font-size="12.55813953489px">4.7kΩ</text><circle cx="626.8414011629117" cy="258.22958372088436" r="1.39534883721px" stroke-width="1.39534883721px" fill="none" stroke="rgb(132, 0, 0)"/><circle cx="626.8795290698883" cy="181.30529999991563" r="1.39534883721px" stroke-width="1.39534883721px" fill="none" stroke="rgb(132, 0, 0)"/></g><g data-circuit-json-type="schematic_component" data-schematic-component-id="schematic_component_3"><rect class="component-overlay" x="380.6266883720909" y="464.9357337209876" width="73.83720697678109" height="18.45930697675334" fill="transparent"/><path d="M 380.6266883720909 474.16538720936427 L 399.0859883721001 474.16538720936427" stroke="rgb(132, 0, 0)" fill="none" stroke-width="1.39534883721px" stroke-linecap="round"/><path d="M 436.00458837211863 474.16538720936427 L 454.463895348872 474.16538720936427" stroke="rgb(132, 0, 0)" fill="none" stroke-width="1.39534883721px" stroke-linecap="round"/><path d="M 417.5452813953652 464.9357337209876 L 436.0045813953744 464.9357337209876 L 436.0045813953744 483.39504069774097 L 399.08597441861167 483.39504069774097 L 399.08597441861167 464.9357337209876 L 417.545281395365 464.9357337209876" stroke="rgb(132, 0, 0)" fill="none" stroke-width="1.39534883721px" stroke-linecap="round"/><text x="416.33720930234125" y="461.4038955493581" fill="rgb(15, 15, 15)" font-family="sans-serif" text-anchor="middle" dominant-baseline="auto" font-size="12.55813953489px">R3</text><text x="416.33720930234125" y="488.4842835205344" fill="rgb(15, 15, 15)" font-family="sans-serif" text-anchor="middle" dominant-baseline="hanging" font-size="12.55813953489px">10kΩ</text><circle cx="379.0959976744156" cy="474.1902383721552" r="1.39534883721px" stroke-width="1.39534883721px" fill="none" stroke="rgb(132, 0, 0)"/><circle cx="456.02028139538436" cy="474.2283662791318" r="1.39534883721px" stroke-width="1.39534883721px" fill="none" stroke="rgb(132, 0, 0)"/></g><g data-circuit-json-type="schematic_component" data-schematic-component-id="schematic_component_4"><rect class="component-overlay" x="747.9799639536698" y="252.1817093022767" width="36.9186000000185" height="73.83720697678112" fill="transparent"/><path d="M 766.4392639536791 326.0189162790578 L 766.4392639536791 294.63810697671653" stroke="rgb(132, 0, 0)" fill="none" stroke-width="1.39534883721px" stroke-linecap="round"/><path d="M 766.4392639536791 283.56252558136214 L 766.4392639536791 252.1817093022767" stroke="rgb(132, 0, 0)" fill="none" stroke-width="1.39534883721px" stroke-linecap="round"/><path d="M 784.8985639536883 294.6381069767165 L 747.9799639536698 294.63810697671653" stroke="rgb(132, 0, 0)" fill="none" stroke-width="1.39534883721px" stroke-linecap="round"/><path d="M 784.8985639536883 283.56252558136214 L 747.9799639536698 283.56252558136214" stroke="rgb(132, 0, 0)" fill="none" stroke-width="1.39534883721px" stroke-linecap="round"/><text x="779.8466337211274" y="275.6872286788" fill="rgb(15, 15, 15)" font-family="sans-serif" text-anchor="start" dominant-baseline="auto" font-size="12.55813953489px">C1</text><text x="779.8466337211274" y="303.382538763" fill="rgb(15, 15, 15)" font-family="sans-serif" text-anchor="start" dominant-baseline="hanging" font-size="12.55813953489px">100nF</text><circle cx="766.3762779071674" cy="251.07842093018306" r="1.39534883721px" stroke-width="1.39534883721px" fill="none" stroke="rgb(132, 0, 0)"/><circle cx="766.4144197676325" cy="327.9913465116169" r="1.39534883721px" stroke-width="1.39534883721px" fill="none" stroke="rgb(132, 0, 0)"/></g><g data-circuit-json-type="schematic_component" data-schematic-component-id="schematic_component_5"><rect class="component chip" x="166.39534883710002" y="254.65116279064998" width="83.72093023260001" height="41.86046511629999" stroke-width="1.39534883721px" fill="rgb(255, 255, 194)" stroke="rgb(132, 0, 0)"/><rect class="component-overlay" x="166.39534883710002" y="254.65116279064998" width="83.72093023260001" height="41.86046511629999" fill="transparent"/><text x="166.39534883710002" y="305.58139534881497" fill="#006464" text-anchor="start" dominant-baseline="middle" font-family="sans-serif" font-size="12.55813953489px" transform="rotate(0, 166.39534883710002, 305.58139534881497)"></text><text x="166.39534883710002" y="245.58139534878498" fill="#006464" text-anchor="start" dominant-baseline="middle" font-family="sans-serif" font-size="12.55813953489px" transform="rotate(0, 166.39534883710002, 245.58139534878498)">JP6</text><line class="component-pin" x1="276.62790697669004" y1="282.55813953485" x2="250.11627906970003" y2="282.55813953485" stroke-width="1.39534883721px"/><circle class="component-pin" cx="278.02325581390005" cy="282.55813953485" r="1.39534883721" stroke-width="1.39534883721px"/><text class="pin-number" x="264.06976744179997" y="281.16279069764" style="font-family: sans-serif;" fill="rgb(169, 0, 0)" text-anchor="middle" dominant-baseline="auto" font-size="10.465116279075px" transform="">1</text><text class="pin-number" x="243.13953488365001" y="282.55813953485" style="font-family: sans-serif;" fill="rgb(169, 0, 0)" text-anchor="end" dominant-baseline="middle" font-size="10.465116279075px" transform="">GND</text><line class="component-pin" x1="276.62790697669004" y1="268.60465116275" x2="250.11627906970003" y2="268.60465116275" stroke-width="1.39534883721px"/><circle class="component-pin" cx="278.02325581390005" cy="268.60465116275" r="1.39534883721" stroke-width="1.39534883721px"/><text class="pin-number" x="264.06976744179997" y="267.20930232553997" style="font-family: sans-serif;" fill="rgb(169, 0, 0)" text-anchor="middle" dominant-baseline="auto" font-size="10.465116279075px" transform="">2</text><text class="pin-number" x="243.13953488365001" y="268.60465116275" style="font-family: sans-serif;" fill="rgb(169, 0, 0)" text-anchor="end" dominant-baseline="middle" font-size="10.465116279075px" transform="">VOUT</text></g><g data-circuit-json-type="schematic_component" data-schematic-component-id="schematic_component_6"><rect class="component chip" x="933.8372093026001" y="254.65116279064998" width="83.72093023260004" height="69.76744186049999" stroke-width="1.39534883721px" fill="rgb(255, 255, 194)" stroke="rgb(132, 0, 0)"/><rect class="component-overlay" x="933.8372093026001" y="254.65116279064998" width="83.72093023260004" height="69.76744186049999" fill="transparent"/><text x="933.8372093026001" y="333.48837209301496" fill="#006464" text-anchor="start" dominant-baseline="middle" font-family="sans-serif" font-size="12.55813953489px" transform="rotate(0, 933.8372093026001, 333.48837209301496)"></text><text x="933.8372093026001" y="245.58139534878498" fill="#006464" text-anchor="start" dominant-baseline="middle" font-family="sans-serif" font-size="12.55813953489px" transform="rotate(0, 933.8372093026001, 245.58139534878498)">JP5</text><line class="component-pin" x1="1044.0697674421901" y1="310.46511627905" x2="1017.5581395352001" y2="310.46511627905" stroke-width="1.39534883721px"/><circle class="component-pin" cx="1045.4651162794" cy="310.46511627905" r="1.39534883721" stroke-width="1.39534883721px"/><text class="pin-number" x="1031.5116279073002" y="309.06976744184" style="font-family: sans-serif;" fill="rgb(169, 0, 0)" text-anchor="middle" dominant-baseline="auto" font-size="10.465116279075px" transform="">1</text><text class="pin-number" x="1010.58139534915" y="310.46511627905" style="font-family: sans-serif;" fill="rgb(169, 0, 0)" text-anchor="end" dominant-baseline="middle" font-size="10.465116279075px" transform="">SCL</text><line class="component-pin" x1="1044.0697674421901" y1="296.51162790694997" x2="1017.5581395352001" y2="296.51162790694997" stroke-width="1.39534883721px"/><circle class="component-pin" cx="1045.4651162794" cy="296.51162790694997" r="1.39534883721" stroke-width="1.39534883721px"/><text class="pin-number" x="1031.5116279073002" y="295.11627906973996" style="font-family: sans-serif;" fill="rgb(169, 0, 0)" text-anchor="middle" dominant-baseline="auto" font-size="10.465116279075px" transform="">2</text><text class="pin-number" x="1010.58139534915" y="296.51162790694997" style="font-family: sans-serif;" fill="rgb(169, 0, 0)" text-anchor="end" dominant-baseline="middle" font-size="10.465116279075px" transform="">SDA</text><line class="component-pin" x1="1044.0697674421901" y1="282.55813953485" x2="1017.5581395352001" y2="282.55813953485" stroke-width="1.39534883721px"/><circle class="component-pin" cx="1045.4651162794" cy="282.55813953485" r="1.39534883721" stroke-width="1.39534883721px"/><text class="pin-number" x="1031.5116279073002" y="281.16279069764" style="font-family: sans-serif;" fill="rgb(169, 0, 0)" text-anchor="middle" dominant-baseline="auto" font-size="10.465116279075px" transform="">3</text><text class="pin-number" x="1010.58139534915" y="282.55813953485" style="font-family: sans-serif;" fill="rgb(169, 0, 0)" text-anchor="end" dominant-baseline="middle" font-size="10.465116279075px" transform="">VCC</text><line class="component-pin" x1="1044.0697674421901" y1="268.60465116275" x2="1017.5581395352001" y2="268.60465116275" stroke-width="1.39534883721px"/><circle class="component-pin" cx="1045.4651162794" cy="268.60465116275" r="1.39534883721" stroke-width="1.39534883721px"/><text class="pin-number" x="1031.5116279073002" y="267.20930232553997" style="font-family: sans-serif;" fill="rgb(169, 0, 0)" text-anchor="middle" dominant-baseline="auto" font-size="10.465116279075px" transform="">4</text><text class="pin-number" x="1010.58139534915" y="268.60465116275" style="font-family: sans-serif;" fill="rgb(169, 0, 0)" text-anchor="end" dominant-baseline="middle" font-size="10.465116279075px" transform="">GND</text></g><g data-circuit-json-type="schematic_component" data-schematic-component-id="schematic_component_7"><rect class="component-overlay" x="561.1451302326461" y="132.61543747663555" width="61.6954116279378" height="33.42685813955151" fill="transparent"/><path d="M 607.3355930233669 157.02578863943836 L 622.8405418605839 157.02578863943836" stroke="rgb(132, 0, 0)" fill="none" stroke-width="1.39534883721px" stroke-linecap="round"/><path d="M 561.1451302326461 157.1454188719966 L 576.6121674419562 157.1454188719966" stroke="rgb(132, 0, 0)" fill="none" stroke-width="1.39534883721px" stroke-linecap="round"/><path d="M 583.637762790797 157.14487468595007 L 588.8432511628927 157.14487468595007" stroke="rgb(132, 0, 0)" fill="none" stroke-width="1.39534883721px" stroke-linecap="round"/><path d="M 592.1587255814989 148.12038631385258 L 592.1587255814989 132.61543747663555" stroke="rgb(132, 0, 0)" fill="none" stroke-width="1.39534883721px" stroke-linecap="round"/><path d="M 583.5919116280062 165.89600026734982 L 583.5919116280062 148.3155398022248" stroke="rgb(132, 0, 0)" fill="none" stroke-width="1.39534883721px" stroke-linecap="round"/><path d="M 588.9705627907996 165.5955188720008 L 588.9705627907996 148.60547933710862" stroke="rgb(132, 0, 0)" fill="none" stroke-width="1.39534883721px" stroke-linecap="round"/><path d="M 595.2165976745237 165.61493515107054 L 595.2165976745237 148.64528863943414" stroke="rgb(132, 0, 0)" fill="none" stroke-width="1.39534883721px" stroke-linecap="round"/><path d="M 589.1064837210322 165.64640026734972 L 595.1610906977794 165.64640026734972" stroke="rgb(132, 0, 0)" fill="none" stroke-width="1.39534883721px" stroke-linecap="round"/><path d="M 589.1200325582415 148.58267933710857 L 595.1360232559189 148.58267933710857" stroke="rgb(132, 0, 0)" fill="none" stroke-width="1.39534883721px" stroke-linecap="round"/><path d="M 600.4191558140611 165.90271887200097 L 600.4191558140611 148.32225840687596" stroke="rgb(132, 0, 0)" fill="none" stroke-width="1.39534883721px" stroke-linecap="round"/><path d="M 600.7432813954567 148.08776305803858 L 600.7432813954567 148.08776305803858 L 601.8335194339585 148.67568298646265 L 602.8142823546309 149.28516099705726 L 603.6892440629 149.9139653580395 L 604.4620784641924 150.55986433762635 L 605.1364594639343 151.22062620403497 L 605.7160609675523 151.8940192254823 L 606.2045568804723 152.5778116701855 L 606.6056211081211 153.26977180636158 L 606.9229275559248 153.96766790222753 L 607.1601501293101 154.6692682260005 L 607.3209627337029 155.37234104589749 L 607.4090392745298 156.07465463013557 L 607.4280536572171 156.7739772469318 L 607.3816797871913 157.4680771645032 L 607.2735915698786 158.15472265106686 L 607.1074629107054 158.8316819748398 L 606.886967715098 159.4967234040391 L 606.6157798884828 160.1476152068818 L 606.2975733362864 160.78212565158498 L 605.9360219639348 161.39802300636563 L 605.5347996768545 161.99307553944087 L 605.0975803804718 162.56505151902772 L 604.6280379802132 163.11171921334324 L 604.1298463815049 163.63084689060446 L 603.6066794897733 164.1202028190285 L 603.062211210445 164.57755526683232 L 602.500115448946 165.00067250223304 L 601.9240661107028 165.3873227934477 L 601.3377371011418 165.73527440869336 L 600.7448023256893 166.04229561618706 L 600.7448023256893 166.04229561618706" stroke="rgb(132, 0, 0)" fill="none" stroke-width="1.39534883721px" stroke-linecap="round"/><path d="M 583.2729906977736 148.07891654641068 L 583.2729906977736 148.07891654641068 L 582.1827526592717 148.66683647483475 L 581.2019897385994 149.27631448542937 L 580.3270280303302 149.9051188464116 L 579.5541936290379 150.55101782599849 L 578.8798126292959 151.21177969240708 L 578.3002111256781 151.88517271385444 L 577.8117152127579 152.56896515855763 L 577.4106509851091 153.26092529473368 L 577.0933445373054 153.95882139059967 L 576.8561219639201 154.66042171437263 L 576.6953093595273 155.36349453426962 L 576.6072328187004 156.0658081185077 L 576.5882184360131 156.7651307353039 L 576.6345923060389 157.4592306528753 L 576.7426805233516 158.14587613943897 L 576.9088091825249 158.8228354632119 L 577.1293043781322 159.4878768924112 L 577.4004922047474 160.13876869525393 L 577.7186987569439 160.77327913995708 L 578.0802501292955 161.38917649473774 L 578.4814724163758 161.98422902781297 L 578.9186917127585 162.55620500739983 L 579.388234113017 163.10287270171534 L 579.8864257117253 163.6220003789766 L 580.4095926034569 164.1113563074006 L 580.9540608827853 164.56870875520445 L 581.5161566442843 164.99182599060518 L 582.0922059825275 165.37847628181984 L 582.6785349920884 165.7264278970655 L 583.2714697675409 166.03344910455917 L 583.2714697675409 166.03344910455917" stroke="rgb(132, 0, 0)" fill="none" stroke-width="1.39534883721px" stroke-linecap="round"/><path d="M 595.2220325582446 157.14487468595007 L 600.4275209303403 157.14487468595007" stroke="rgb(132, 0, 0)" fill="none" stroke-width="1.39534883721px" stroke-linecap="round"/><text x="593.4164093024297" y="169.53981866990975" fill="rgb(15, 15, 15)" font-family="sans-serif" text-anchor="middle" dominant-baseline="hanging" font-size="12.55813953489px">SJ1</text><circle cx="592.2204279070803" cy="132.37681189524005" r="1.39534883721px" stroke-width="1.39534883721px" fill="none" stroke="rgb(132, 0, 0)"/><circle cx="623.0791255815143" cy="157.08748398827558" r="1.39534883721px" stroke-width="1.39534883721px" fill="none" stroke="rgb(132, 0, 0)"/><circle cx="560.8743627907857" cy="157.07880491850815" r="1.39534883721px" stroke-width="1.39534883721px" fill="none" stroke="rgb(132, 0, 0)"/></g><g data-circuit-json-type="schematic_component" data-schematic-component-id="schematic_component_8"><rect class="component-overlay" x="526.2614093023961" y="446.56892584888556" width="61.6954116279378" height="33.426858139551484" fill="transparent"/><path d="M 572.4518720931169 470.9792770116884 L 587.956820930334 470.97927701168834" stroke="rgb(132, 0, 0)" fill="none" stroke-width="1.39534883721px" stroke-linecap="round"/><path d="M 526.2614093023961 471.0989072442466 L 541.7284465117062 471.0989072442466" stroke="rgb(132, 0, 0)" fill="none" stroke-width="1.39534883721px" stroke-linecap="round"/><path d="M 557.2750046512489 462.07387468610256 L 557.2750046512489 446.56892584888556" stroke="rgb(132, 0, 0)" fill="none" stroke-width="1.39534883721px" stroke-linecap="round"/><path d="M 548.7081906977562 479.8494886395998 L 548.7081906977562 462.2690281744748" stroke="rgb(132, 0, 0)" fill="none" stroke-width="1.39534883721px" stroke-linecap="round"/><path d="M 554.0868418605496 479.5490072442508 L 554.0868418605496 462.5589677093586" stroke="rgb(132, 0, 0)" fill="none" stroke-width="1.39534883721px" stroke-linecap="round"/><path d="M 560.3328767442737 479.5684235233206 L 560.3328767442737 462.59877701168415" stroke="rgb(132, 0, 0)" fill="none" stroke-width="1.39534883721px" stroke-linecap="round"/><path d="M 554.2227627907822 479.5998886395997 L 560.2773697675294 479.5998886395997" stroke="rgb(132, 0, 0)" fill="none" stroke-width="1.39534883721px" stroke-linecap="round"/><path d="M 554.2363116279915 462.5361677093586 L 560.2523023256689 462.5361677093586" stroke="rgb(132, 0, 0)" fill="none" stroke-width="1.39534883721px" stroke-linecap="round"/><path d="M 565.5354348838111 479.856207244251 L 565.5354348838111 462.275746779126" stroke="rgb(132, 0, 0)" fill="none" stroke-width="1.39534883721px" stroke-linecap="round"/><path d="M 565.8595604652068 462.0412514302886 L 565.8595604652068 462.0412514302886 L 566.9497985037085 462.62917135871265 L 567.9305614243809 463.23864936930727 L 568.80552313265 463.86745373028947 L 569.5783575339424 464.51335270987636 L 570.2527385336844 465.174114576285 L 570.8323400373023 465.8475075977323 L 571.3208359502223 466.53130004243553 L 571.7219001778711 467.22326017861155 L 572.039206625675 467.92115627447754 L 572.2764291990601 468.62275659825053 L 572.4372418034529 469.3258294181475 L 572.5253183442799 470.0281430023856 L 572.5443327269671 470.72746561918177 L 572.4979588569413 471.42156553675323 L 572.3898706396286 472.10821102331687 L 572.2237419804554 472.78517034708983 L 572.003246784848 473.4502117762891 L 571.7320589582329 474.1011035791318 L 571.4138524060364 474.73561402383496 L 571.0523010336848 475.35151137861567 L 570.6510787466045 475.9465639116909 L 570.2138594502219 476.5185398912777 L 569.7443170499632 477.06520758559327 L 569.2461254512549 477.5843352628545 L 568.7229585595234 478.0736911912785 L 568.178490280195 478.5310436390823 L 567.616394518696 478.9541608744831 L 567.0403451804528 479.34081116569774 L 566.4540161708918 479.68876278094336 L 565.8610813954393 479.99578398843704 L 565.8610813954393 479.99578398843704" stroke="rgb(132, 0, 0)" fill="none" stroke-width="1.39534883721px" stroke-linecap="round"/><path d="M 548.3892697675235 462.0324049186607 L 548.3892697675235 462.0324049186607 L 547.2990317290217 462.62032484708476 L 546.3182688083494 463.2298028576794 L 545.4433071000802 463.8586072186616 L 544.6704726987879 464.50450619824846 L 543.9960916990459 465.1652680646571 L 543.4164901954281 465.8386610861044 L 542.9279942825079 466.52245353080764 L 542.5269300548591 467.21441366698366 L 542.2096236070554 467.91230976284965 L 541.9724010336702 468.61391008662264 L 541.8115884292773 469.3169829065196 L 541.7235118884504 470.0192964907577 L 541.7044975057631 470.71861910755393 L 541.750871375789 471.41271902512534 L 541.8589595931016 472.099364511689 L 542.0250882522748 472.77632383546194 L 542.2455834478823 473.4413652646612 L 542.5167712744974 474.0922570675039 L 542.834977826694 474.72676751220706 L 543.1965291990455 475.3426648669878 L 543.5977514861258 475.937717400063 L 544.0349707825085 476.50969337964983 L 544.504513182767 477.0563610739654 L 545.0027047814754 477.5754887512266 L 545.5258716732069 478.0648446796506 L 546.0703399525353 478.52219712745443 L 546.6324357140343 478.9453143628552 L 547.2084850522774 479.33196465406985 L 547.7948140618385 479.67991626931547 L 548.3877488372909 479.9869374768092 L 548.3877488372909 479.9869374768092" stroke="rgb(132, 0, 0)" fill="none" stroke-width="1.39534883721px" stroke-linecap="round"/><text x="558.5326883721797" y="483.49330704215976" fill="rgb(15, 15, 15)" font-family="sans-serif" text-anchor="middle" dominant-baseline="hanging" font-size="12.55813953489px">SJ2</text><circle cx="557.3367069768303" cy="446.33030026749003" r="1.39534883721px" stroke-width="1.39534883721px" fill="none" stroke="rgb(132, 0, 0)"/><circle cx="588.1954046512644" cy="471.0409723605256" r="1.39534883721px" stroke-width="1.39534883721px" fill="none" stroke="rgb(132, 0, 0)"/><circle cx="525.9906418605356" cy="471.03229329075816" r="1.39534883721px" stroke-width="1.39534883721px" fill="none" stroke="rgb(132, 0, 0)"/></g><g class="trace" data-circuit-json-type="schematic_trace" data-schematic-trace-id="schematic_trace_0"><path d="M 347.7906976744 275.58139534879996 L 305.9302325581 275.58139534879996 L 305.9302325581 268.60465116275 L 278.02325581390005 268.60465116275" class="trace-invisible-hover-outline" stroke="rgb(0, 150, 0)" fill="none" stroke-width="11.16279069768px" stroke-linecap="round" opacity="0" stroke-linejoin="round"/><path d="M 347.7906976744 275.58139534879996 L 305.9302325581 275.58139534879996 L 305.9302325581 268.60465116275 L 278.02325581390005 268.60465116275" stroke="rgb(0, 150, 0)" fill="none" stroke-width="1.39534883721px" stroke-linecap="round" stroke-linejoin="round"/></g><g class="trace" data-circuit-json-type="schematic_trace" data-schematic-trace-id="schematic_trace_1"><path d="M 487.32558139540004 275.58139534879996 L 557.3367069768303 275.58139534879996 L 557.3367069768303 438.49059767446283 L 557.3367069768303 446.33030026749003" class="trace-invisible-hover-outline" stroke="rgb(0, 150, 0)" fill="none" stroke-width="11.16279069768px" stroke-linecap="round" opacity="0" stroke-linejoin="round"/><path d="M 487.32558139540004 275.58139534879996 L 557.3367069768303 275.58139534879996 L 557.3367069768303 438.49059767446283 L 557.3367069768303 446.33030026749003" stroke="rgb(0, 150, 0)" fill="none" stroke-width="1.39534883721px" stroke-linecap="round" stroke-linejoin="round"/></g><g class="trace" data-circuit-json-type="schematic_trace" data-schematic-trace-id="schematic_trace_2"><path d="M 557.1120872093884 181.30529999991563 L 557.1120872093884 157.07880491850815 L 560.8743627907857 157.07880491850815" class="trace-invisible-hover-outline" stroke="rgb(0, 150, 0)" fill="none" stroke-width="11.16279069768px" stroke-linecap="round" opacity="0" stroke-linejoin="round"/><path d="M 557.1120872093884 181.30529999991563 L 557.1120872093884 157.07880491850815 L 560.8743627907857 157.07880491850815" stroke="rgb(0, 150, 0)" fill="none" stroke-width="1.39534883721px" stroke-linecap="round" stroke-linejoin="round"/></g><g class="trace" data-circuit-json-type="schematic_trace" data-schematic-trace-id="schematic_trace_3"><path d="M 626.8795290698883 181.30529999991563 L 626.8795290698883 157.08748398827558 L 623.0791255815144 157.08748398827558" class="trace-invisible-hover-outline" stroke="rgb(0, 150, 0)" fill="none" stroke-width="11.16279069768px" stroke-linecap="round" opacity="0" stroke-linejoin="round"/><path d="M 626.8795290698883 181.30529999991563 L 626.8795290698883 157.08748398827558 L 623.0791255815144 157.08748398827558" stroke="rgb(0, 150, 0)" fill="none" stroke-width="1.39534883721px" stroke-linecap="round" stroke-linejoin="round"/></g><g class="trace" data-circuit-json-type="schematic_trace" data-schematic-trace-id="schematic_trace_4"><path d="M 456.02028139538436 474.2283662791318 L 525.9906418605357 474.2283662791318 L 525.9906418605357 471.03229329075816" class="trace-invisible-hover-outline" stroke="rgb(0, 150, 0)" fill="none" stroke-width="11.16279069768px" stroke-linecap="round" opacity="0" stroke-linejoin="round"/><path d="M 456.02028139538436 474.2283662791318 L 525.9906418605357 474.2283662791318 L 525.9906418605357 471.03229329075816" stroke="rgb(0, 150, 0)" fill="none" stroke-width="1.39534883721px" stroke-linecap="round" stroke-linejoin="round"/></g><path class="net-label" d="
    M 347.7906976744,289.5348837209
    L 344.023255813933,297.06976744183396
    L 309.5767441860088,297.06976744183396
    L 309.5767441860088,281.999999999966
    L 344.023255813933,281.999999999966
    Z
  " fill="rgba(255, 255, 255, 0.6)" stroke="rgb(132, 0, 0)" stroke-width="1.39534883721px"/><text class="net-label-text" x="341.511627906955" y="289.5348837209" fill="rgb(132, 0, 0)" text-anchor="end" dominant-baseline="central" font-family="sans-serif" font-variant-numeric="tabular-nums" font-size="12.55813953489px" transform="">GND</text><path class="net-label" d="
    M 347.7906976744,303.488372093
    L 344.023255813933,311.023255813934
    L 310.9720930232188,311.023255813934
    L 310.9720930232188,295.95348837206603
    L 344.023255813933,295.95348837206603
    Z
  " fill="rgba(255, 255, 255, 0.6)" stroke="rgb(132, 0, 0)" stroke-width="1.39534883721px"/><text class="net-label-text" x="341.511627906955" y="303.488372093" fill="rgb(132, 0, 0)" text-anchor="end" dominant-baseline="central" font-family="sans-serif" font-variant-numeric="tabular-nums" font-size="12.55813953489px" transform="">VCC</text><path class="net-label" d="
    M 487.32558139540004,303.488372093
    L 491.093023255867,295.95348837206603
    L 523.6790697675112,295.95348837206603
    L 523.6790697675112,311.023255813934
    L 491.093023255867,311.023255813934
    Z
  " fill="rgba(255, 255, 255, 0.6)" stroke="rgb(132, 0, 0)" stroke-width="1.39534883721px"/><text class="net-label-text" x="493.604651162845" y="303.488372093" fill="rgb(132, 0, 0)" text-anchor="start" dominant-baseline="central" font-family="sans-serif" font-variant-numeric="tabular-nums" font-size="12.55813953489px" transform="">SDA</text><path class="net-label" d="
    M 487.32558139540004,289.5348837209
    L 491.093023255867,281.999999999966
    L 522.2837209303012,281.999999999966
    L 522.2837209303012,297.06976744183396
    L 491.093023255867,297.06976744183396
    Z
  " fill="rgba(255, 255, 255, 0.6)" stroke="rgb(132, 0, 0)" stroke-width="1.39534883721px"/><text class="net-label-text" x="493.604651162845" y="289.5348837209" fill="rgb(132, 0, 0)" text-anchor="start" dominant-baseline="central" font-family="sans-serif" font-variant-numeric="tabular-nums" font-size="12.55813953489px" transform="">SCL</text><path class="net-label" d="
    M 557.0739593024117,258.22958372088436
    L 564.6088430233457,261.99702558135135
    L 564.6088430233457,293.18772325578556
    L 549.5390755814777,293.18772325578556
    L 549.5390755814777,261.99702558135135
    Z
  " fill="rgba(255, 255, 255, 0.6)" stroke="rgb(132, 0, 0)" stroke-width="1.39534883721px"/><text class="net-label-text" x="557.0739593024117" y="264.50865348832934" fill="rgb(132, 0, 0)" text-anchor="start" dominant-baseline="central" font-family="sans-serif" font-variant-numeric="tabular-nums" font-size="12.55813953489px" transform="rotate(90 557.0739593024117 264.50865348832934)">SCL</text><path class="net-label" d="
    M 626.8414011629117,258.22958372088436
    L 634.3762848838456,261.99702558135135
    L 634.3762848838456,294.58307209299556
    L 619.3065174419777,294.58307209299556
    L 619.3065174419777,261.99702558135135
    Z
  " fill="rgba(255, 255, 255, 0.6)" stroke="rgb(132, 0, 0)" stroke-width="1.39534883721px"/><text class="net-label-text" x="626.8414011629117" y="264.50865348832934" fill="rgb(132, 0, 0)" text-anchor="start" dominant-baseline="central" font-family="sans-serif" font-variant-numeric="tabular-nums" font-size="12.55813953489px" transform="rotate(90 626.8414011629117 264.50865348832934)">SDA</text><path class="net-label" d="
    M 379.0959976744157,474.19023837215514
    L 375.3285558139487,481.7251220930891
    L 340.8820441860245,481.7251220930891
    L 340.8820441860245,466.65535465122116
    L 375.3285558139487,466.65535465122116
    Z
  " fill="rgba(255, 255, 255, 0.6)" stroke="rgb(132, 0, 0)" stroke-width="1.39534883721px"/><text class="net-label-text" x="372.8169279069707" y="474.19023837215514" fill="rgb(132, 0, 0)" text-anchor="end" dominant-baseline="central" font-family="sans-serif" font-variant-numeric="tabular-nums" font-size="12.55813953489px" transform="">GND</text><rect class="component-overlay" x="759.8610104653037" y="221.46155581388913" width="12.926476744192314" height="28.57408604652599" fill="transparent"/><path d="M 766.2221337211209 221.46155581388913 L 759.8610104653037 234.79206976738422" stroke="rgb(132, 0, 0)" fill="none" stroke-width="1.39534883721px" stroke-linecap="round"/><path d="M 766.426363953679 221.46850465109844 L 772.787487209496 234.79905348831446" stroke="rgb(132, 0, 0)" fill="none" stroke-width="1.39534883721px" stroke-linecap="round"/><path d="M 766.2957453490278 221.81330232551727 L 766.2957453490278 250.03564186041513" stroke="rgb(132, 0, 0)" fill="none" stroke-width="1.39534883721px" stroke-linecap="round"/><text x="765.98368255833" y="217.3730999999337" fill="rgb(15, 15, 15)" font-family="sans-serif" text-anchor="middle" dominant-baseline="ideographic" font-size="12.55813953489px">VCC</text><rect class="component-overlay" x="750.351163953671" y="327.915753488361" width="31.347997674434282" height="33.727632558156415" fill="transparent"/><path d="M 766.3386383722836 327.915753488361 L 766.3386383722836 350.91343255813996" stroke="rgb(132, 0, 0)" fill="none" stroke-width="1.39534883721px" stroke-linecap="round"/><path d="M 750.351163953671 350.91114418604695 L 781.6991616281052 350.91114418604695" stroke="rgb(132, 0, 0)" fill="none" stroke-width="1.39534883721px" stroke-linecap="round"/><path d="M 754.2696662792544 356.2772651162822 L 777.7806593025218 356.2772651162822" stroke="rgb(132, 0, 0)" fill="none" stroke-width="1.39534883721px" stroke-linecap="round"/><path d="M 762.106663953677 361.64338604651743 L 769.9436616280994 361.64338604651743" stroke="rgb(132, 0, 0)" fill="none" stroke-width="1.39534883721px" stroke-linecap="round"/><text x="764.8361825583294" y="369.81530930233544" fill="rgb(15, 15, 15)" font-family="sans-serif" text-anchor="middle" dominant-baseline="hanging" font-size="12.55813953489px">GND</text><text x="557.0930232559" y="45.34883720914999" fill="#000000" text-anchor="start" dominant-baseline="middle" font-family="sans-serif" font-size="20.93023255815px" transform="rotate(0, 557.0930232559, 45.34883720914999)">Vcc = 2.7V to 5.5V</text><text x="557.0930232559" y="533.72093023265" fill="#000000" text-anchor="start" dominant-baseline="middle" font-family="sans-serif" font-size="20.93023255815px" transform="rotate(0, 557.0930232559, 533.72093023265)">I2C Address</text><text x="557.0930232559" y="554.6511627908" fill="#000000" text-anchor="start" dominant-baseline="middle" font-family="sans-serif" font-size="20.93023255815px" transform="rotate(0, 557.0930232559, 554.6511627908)">GND = 1100000 (0x60) (Default)</text><text x="557.0930232559" y="512.7906976745" fill="#000000" text-anchor="start" dominant-baseline="middle" font-family="sans-serif" font-size="20.93023255815px" transform="rotate(0, 557.0930232559, 512.7906976745)">VCC - 1100001 (0x61)</text></svg>