<svg xmlns="http://www.w3.org/2000/svg" width="800" height="600" data-software-used-string="@tscircuit/core@0.0.783"><style></style><rect class="boundary" x="0" y="0" fill="#000" width="800" height="600" data-type="pcb_background" data-pcb-layer="global"/><rect class="pcb-boundary" fill="none" stroke="#fff" stroke-width="0.3" x="125" y="25" width="550" height="550" data-type="pcb_boundary" data-pcb-layer="global"/><rect class="pcb-pad" fill="rgb(77, 127, 196)" x="620.625" y="512.5" width="8.75" height="48.75" data-type="pcb_smtpad" data-pcb-layer="bottom"/><rect class="pcb-pad" fill="rgb(77, 127, 196)" x="608.125" y="512.5" width="8.75" height="48.75" data-type="pcb_smtpad" data-pcb-layer="bottom"/><rect class="pcb-pad" fill="rgb(77, 127, 196)" x="595.625" y="512.5" width="8.75" height="48.75" data-type="pcb_smtpad" data-pcb-layer="bottom"/><rect class="pcb-pad" fill="rgb(77, 127, 196)" x="583.125" y="512.5" width="8.75" height="48.75" data-type="pcb_smtpad" data-pcb-layer="bottom"/><rect class="pcb-pad" fill="rgb(77, 127, 196)" x="570.625" y="512.5" width="8.75" height="48.75" data-type="pcb_smtpad" data-pcb-layer="bottom"/><rect class="pcb-pad" fill="rgb(77, 127, 196)" x="558.125" y="512.5" width="8.75" height="48.75" data-type="pcb_smtpad" data-pcb-layer="bottom"/><rect class="pcb-pad" fill="rgb(77, 127, 196)" x="545.625" y="512.5" width="8.75" height="48.75" data-type="pcb_smtpad" data-pcb-layer="bottom"/><rect class="pcb-pad" fill="rgb(77, 127, 196)" x="533.125" y="512.5" width="8.75" height="48.75" data-type="pcb_smtpad" data-pcb-layer="bottom"/><rect class="pcb-pad" fill="rgb(77, 127, 196)" x="520.625" y="512.5" width="8.75" height="48.75" data-type="pcb_smtpad" data-pcb-layer="bottom"/><rect class="pcb-pad" fill="rgb(77, 127, 196)" x="508.125" y="512.5" width="8.75" height="48.75" data-type="pcb_smtpad" data-pcb-layer="bottom"/><rect class="pcb-pad" fill="rgb(77, 127, 196)" x="495.625" y="512.5" width="8.75" height="48.75" data-type="pcb_smtpad" data-pcb-layer="bottom"/><rect class="pcb-pad" fill="rgb(77, 127, 196)" x="433.125" y="512.5" width="8.75" height="48.75" data-type="pcb_smtpad" data-pcb-layer="bottom"/><rect class="pcb-pad" fill="rgb(77, 127, 196)" x="420.625" y="512.5" width="8.75" height="48.75" data-type="pcb_smtpad" data-pcb-layer="bottom"/><rect class="pcb-pad" fill="rgb(77, 127, 196)" x="408.125" y="512.5" width="8.75" height="48.75" data-type="pcb_smtpad" data-pcb-layer="bottom"/><rect class="pcb-pad" fill="rgb(77, 127, 196)" x="395.625" y="512.5" width="8.75" height="48.75" data-type="pcb_smtpad" data-pcb-layer="bottom"/><rect class="pcb-pad" fill="rgb(77, 127, 196)" x="383.125" y="512.5" width="8.75" height="48.75" data-type="pcb_smtpad" data-pcb-layer="bottom"/><rect class="pcb-pad" fill="rgb(77, 127, 196)" x="370.625" y="512.5" width="8.75" height="48.75" data-type="pcb_smtpad" data-pcb-layer="bottom"/><rect class="pcb-pad" fill="rgb(77, 127, 196)" x="358.125" y="512.5" width="8.75" height="48.75" data-type="pcb_smtpad" data-pcb-layer="bottom"/><rect class="pcb-pad" fill="rgb(77, 127, 196)" x="345.625" y="512.5" width="8.75" height="48.75" data-type="pcb_smtpad" data-pcb-layer="bottom"/><rect class="pcb-pad" fill="rgb(77, 127, 196)" x="333.125" y="512.5" width="8.75" height="48.75" data-type="pcb_smtpad" data-pcb-layer="bottom"/><rect class="pcb-pad" fill="rgb(77, 127, 196)" x="320.625" y="512.5" width="8.75" height="48.75" data-type="pcb_smtpad" data-pcb-layer="bottom"/><rect class="pcb-pad" fill="rgb(77, 127, 196)" x="308.125" y="512.5" width="8.75" height="48.75" data-type="pcb_smtpad" data-pcb-layer="bottom"/><rect class="pcb-pad" fill="rgb(77, 127, 196)" x="295.625" y="512.5" width="8.75" height="48.75" data-type="pcb_smtpad" data-pcb-layer="bottom"/><rect class="pcb-pad" fill="rgb(77, 127, 196)" x="283.125" y="512.5" width="8.75" height="48.75" data-type="pcb_smtpad" data-pcb-layer="bottom"/><rect class="pcb-pad" fill="rgb(77, 127, 196)" x="270.625" y="512.5" width="8.75" height="48.75" data-type="pcb_smtpad" data-pcb-layer="bottom"/><rect class="pcb-pad" fill="rgb(77, 127, 196)" x="258.125" y="512.5" width="8.75" height="48.75" data-type="pcb_smtpad" data-pcb-layer="bottom"/><rect class="pcb-pad" fill="rgb(77, 127, 196)" x="245.625" y="512.5" width="8.75" height="48.75" data-type="pcb_smtpad" data-pcb-layer="bottom"/><rect class="pcb-pad" fill="rgb(77, 127, 196)" x="233.125" y="512.5" width="8.75" height="48.75" data-type="pcb_smtpad" data-pcb-layer="bottom"/><rect class="pcb-pad" fill="rgb(77, 127, 196)" x="220.625" y="512.5" width="8.75" height="48.75" data-type="pcb_smtpad" data-pcb-layer="bottom"/><rect class="pcb-pad" fill="rgb(77, 127, 196)" x="208.125" y="512.5" width="8.75" height="48.75" data-type="pcb_smtpad" data-pcb-layer="bottom"/><rect class="pcb-pad" fill="rgb(77, 127, 196)" x="195.625" y="512.5" width="8.75" height="48.75" data-type="pcb_smtpad" data-pcb-layer="bottom"/><rect class="pcb-pad" fill="rgb(77, 127, 196)" x="183.125" y="512.5" width="8.75" height="48.75" data-type="pcb_smtpad" data-pcb-layer="bottom"/><rect class="pcb-pad" fill="rgb(77, 127, 196)" x="170.625" y="512.5" width="8.75" height="48.75" data-type="pcb_smtpad" data-pcb-layer="bottom"/><rect class="pcb-pad" fill="rgb(77, 127, 196)" x="472.5" y="207.375" width="25" height="15" data-type="pcb_smtpad" data-pcb-layer="bottom"/><rect class="pcb-pad" fill="rgb(77, 127, 196)" x="472.5" y="239.125" width="25" height="15" data-type="pcb_smtpad" data-pcb-layer="bottom"/><rect class="pcb-pad" fill="rgb(77, 127, 196)" x="472.5" y="270.875" width="25" height="15" data-type="pcb_smtpad" data-pcb-layer="bottom"/><rect class="pcb-pad" fill="rgb(77, 127, 196)" x="472.5" y="302.625" width="25" height="15" data-type="pcb_smtpad" data-pcb-layer="bottom"/><rect class="pcb-pad" fill="rgb(77, 127, 196)" x="365" y="302.625" width="25" height="15" data-type="pcb_smtpad" data-pcb-layer="bottom"/><rect class="pcb-pad" fill="rgb(77, 127, 196)" x="365" y="270.875" width="25" height="15" data-type="pcb_smtpad" data-pcb-layer="bottom"/><rect class="pcb-pad" fill="rgb(77, 127, 196)" x="365" y="239.125" width="25" height="15" data-type="pcb_smtpad" data-pcb-layer="bottom"/><rect class="pcb-pad" fill="rgb(77, 127, 196)" x="365" y="207.375" width="25" height="15" data-type="pcb_smtpad" data-pcb-layer="bottom"/><rect class="pcb-pad" fill="rgb(77, 127, 196)" x="597.25" y="129.5" width="13.5" height="16" data-type="pcb_smtpad" data-pcb-layer="bottom"/><rect class="pcb-pad" fill="rgb(77, 127, 196)" x="571.75" y="129.5" width="13.5" height="16" data-type="pcb_smtpad" data-pcb-layer="bottom"/><rect class="pcb-pad" fill="rgb(77, 127, 196)" x="581.7" y="256.75" width="19.1" height="20" data-type="pcb_smtpad" data-pcb-layer="bottom"/><rect class="pcb-pad" fill="rgb(77, 127, 196)" x="557.95" y="171.75" width="19.1" height="20" data-type="pcb_smtpad" data-pcb-layer="bottom"/><rect class="pcb-pad" fill="rgb(77, 127, 196)" x="605.45" y="171.75" width="19.1" height="20" data-type="pcb_smtpad" data-pcb-layer="bottom"/><rect class="pcb-pad" fill="rgb(77, 127, 196)" x="597.25" y="86.49999999999997" width="13.5" height="16" data-type="pcb_smtpad" data-pcb-layer="bottom"/><rect class="pcb-pad" fill="rgb(77, 127, 196)" x="571.75" y="86.49999999999997" width="13.5" height="16" data-type="pcb_smtpad" data-pcb-layer="bottom"/><rect class="pcb-pad" fill="rgb(77, 127, 196)" x="545.9" y="269.675" width="16" height="13.5" data-type="pcb_smtpad" data-pcb-layer="bottom"/><rect class="pcb-pad" fill="rgb(77, 127, 196)" x="545.9" y="295.175" width="16" height="13.5" data-type="pcb_smtpad" data-pcb-layer="bottom"/><rect class="pcb-pad" fill="rgb(77, 127, 196)" x="382.75" y="369.5" width="13.5" height="16" data-type="pcb_smtpad" data-pcb-layer="bottom"/><rect class="pcb-pad" fill="rgb(77, 127, 196)" x="357.25" y="369.5" width="13.5" height="16" data-type="pcb_smtpad" data-pcb-layer="bottom"/><path class="pcb-silkscreen pcb-silkscreen-bottom" d="M 470 325.5625 L 470 199.4375 L 444.1666666666667 199.4375 L 443.1834439616041 204.38049433471576 L 440.38346259032625 208.57096259032625 L 436.19299433471576 211.3709439616041 L 431.25 212.35416666666669 L 426.30700566528424 211.3709439616041 L 422.11653740967375 208.57096259032625 L 419.3165560383959 204.38049433471576 L 418.3333333333333 199.4375 L 392.5 199.4375 L 392.5 325.5625 L 470 325.5625 Z" fill="none" stroke="#5da9e9" stroke-width="2.5" stroke-linecap="round" stroke-linejoin="round" data-pcb-component-id="pcb_component_2" data-pcb-silkscreen-path-id="pcb_silkscreen_path_0" data-type="pcb_silkscreen_path" data-pcb-layer="bottom"/><text x="0" y="0" dx="0" dy="0" fill="#5da9e9" font-family="Arial, sans-serif" font-size="15.510416666666666" text-anchor="middle" dominant-baseline="central" transform="matrix(-1,0,0,1,431.25,189.4375)" class="pcb-silkscreen-text pcb-silkscreen-bottom" data-pcb-silkscreen-text-id="pcb_component_2" stroke="none" data-type="pcb_silkscreen_text" data-pcb-layer="bottom">U2</text><path class="pcb-silkscreen pcb-silkscreen-bottom" d="M 578.5 119.5 L 615.75 119.5 L 615.75 155.5 L 578.5 155.5" fill="none" stroke="#5da9e9" stroke-width="2.5" stroke-linecap="round" stroke-linejoin="round" data-pcb-component-id="pcb_component_13" data-pcb-silkscreen-path-id="pcb_silkscreen_path_9" data-type="pcb_silkscreen_path" data-pcb-layer="bottom"/><text x="0" y="0" dx="0" dy="0" fill="#5da9e9" font-family="Arial, sans-serif" font-size="10" text-anchor="middle" dominant-baseline="central" transform="matrix(-1,0,0,1,591.25,107)" class="pcb-silkscreen-text pcb-silkscreen-bottom" data-pcb-silkscreen-text-id="pcb_component_13" stroke="none" data-type="pcb_silkscreen_text" data-pcb-layer="bottom">R5</text><text x="0" y="0" dx="0" dy="0" fill="#5da9e9" font-family="Arial, sans-serif" font-size="12.5" text-anchor="middle" dominant-baseline="central" transform="matrix(-6.123233995736766e-17,1,1,6.123233995736766e-17,641.25,224.25)" class="pcb-silkscreen-text pcb-silkscreen-bottom" data-pcb-silkscreen-text-id="pcb_component_14" stroke="none" data-type="pcb_silkscreen_text" data-pcb-layer="bottom">Q1</text><path class="pcb-silkscreen pcb-silkscreen-bottom" d="M 578.5 76.49999999999997 L 615.75 76.49999999999997 L 615.75 112.49999999999997 L 578.5 112.49999999999997" fill="none" stroke="#5da9e9" stroke-width="2.5" stroke-linecap="round" stroke-linejoin="round" data-pcb-component-id="pcb_component_15" data-pcb-silkscreen-path-id="pcb_silkscreen_path_10" data-type="pcb_silkscreen_path" data-pcb-layer="bottom"/><text x="0" y="0" dx="0" dy="0" fill="#5da9e9" font-family="Arial, sans-serif" font-size="10" text-anchor="middle" dominant-baseline="central" transform="matrix(-1,0,0,1,591.25,63.99999999999997)" class="pcb-silkscreen-text pcb-silkscreen-bottom" data-pcb-silkscreen-text-id="pcb_component_15" stroke="none" data-type="pcb_silkscreen_text" data-pcb-layer="bottom">R1</text><path class="pcb-silkscreen pcb-silkscreen-bottom" d="M 535.9 301.925 L 535.9 264.675 L 571.9 264.675 L 571.9 301.925" fill="none" stroke="#5da9e9" stroke-width="2.5" stroke-linecap="round" stroke-linejoin="round" data-pcb-component-id="pcb_component_20" data-pcb-silkscreen-path-id="pcb_silkscreen_path_15" data-type="pcb_silkscreen_path" data-pcb-layer="bottom"/><text x="0" y="0" dx="0" dy="0" fill="#5da9e9" font-family="Arial, sans-serif" font-size="10" text-anchor="middle" dominant-baseline="central" transform="matrix(1.8369701987210297e-16,-1,-1,-1.8369701987210297e-16,523.4,289.175)" class="pcb-silkscreen-text pcb-silkscreen-bottom" data-pcb-silkscreen-text-id="pcb_component_20" stroke="none" data-type="pcb_silkscreen_text" data-pcb-layer="bottom">C20</text><path class="pcb-silkscreen pcb-silkscreen-bottom" d="M 364 359.5 L 401.25 359.5 L 401.25 395.5 L 364 395.5" fill="none" stroke="#5da9e9" stroke-width="2.5" stroke-linecap="round" stroke-linejoin="round" data-pcb-component-id="pcb_component_21" data-pcb-silkscreen-path-id="pcb_silkscreen_path_16" data-type="pcb_silkscreen_path" data-pcb-layer="bottom"/><text x="0" y="0" dx="0" dy="0" fill="#5da9e9" font-family="Arial, sans-serif" font-size="10" text-anchor="middle" dominant-baseline="central" transform="matrix(-1,0,0,1,376.75,347)" class="pcb-silkscreen-text pcb-silkscreen-bottom" data-pcb-silkscreen-text-id="pcb_component_21" stroke="none" data-type="pcb_silkscreen_text" data-pcb-layer="bottom">R11</text><path class="pcb-board" d="M 175 25 L 650 25 L 654.8772580504033 25.480367989919216 L 659.5670858091273 26.903011687217827 L 663.8892558254901 29.213259692436395 L 667.6776695296637 32.32233047033628 L 670.7867403075636 36.11074417450999 L 673.0969883127822 40.43291419087274 L 674.5196320100808 45.12274194959679 L 675 50 L 675 462.5 L 674.7598160050404 464.93862902520164 L 674.0484941563911 467.28354290456366 L 672.8933701537818 469.444627912745 L 671.3388347648317 471.33883476483186 L 669.4446279127451 472.8933701537818 L 667.2835429045637 474.0484941563911 L 664.9386290252016 474.7598160050404 L 662.5 475 L 660.0613709747984 475.2401839949596 L 657.7164570954363 475.9515058436089 L 655.555372087255 477.1066298462182 L 653.6611652351681 478.66116523516814 L 652.1066298462182 480.555372087255 L 650.9515058436089 482.71645709543634 L 650.2401839949596 485.06137097479836 L 650 487.5 L 650 575 L 482 575 L 482 500 L 481.711779150976 497.0736452155097 L 480.85819289507344 494.259748613597 L 479.4720440725145 491.6664466596703 L 477.60660160373493 489.39339849075816 L 475.33355339470086 487.5279560708673 L 472.7402514109609 486.14180730408503 L 469.92635479068935 485.2882211087036 L 467 485.0000003226196 L 464.07364520931065 485.2882211087036 L 461.2597485890391 486.14180730408503 L 458.66644660529914 487.5279560708673 L 456.39339839626507 489.39339849075816 L 454.5279559274855 491.6664466596703 L 453.14180710492656 494.259748613597 L 452.288220849024 497.0736452155097 L 452 500 L 452 575 L 150 575 L 150 487.5 L 149.7598160050404 485.06137097479836 L 149.0484941563911 482.71645709543634 L 147.8933701537818 480.555372087255 L 146.33883476483183 478.66116523516814 L 144.444627912745 477.1066298462182 L 142.28354290456366 475.9515058436089 L 139.93862902520158 475.2401839949596 L 137.5 475 L 135.06137097479842 474.7598160050404 L 132.71645709543634 474.0484941563911 L 130.55537208725497 472.8933701537818 L 128.6611652351682 471.33883476483186 L 127.1066298462182 469.444627912745 L 125.95150584360891 467.28354290456366 L 125.24018399495958 464.93862902520164 L 125 462.5 L 125 50 L 125.48036798991922 45.12274194959679 L 126.90301168721783 40.43291419087274 L 129.2132596924364 36.11074417450999 L 132.32233047033628 32.32233047033628 L 136.11074417451 29.213259692436395 L 140.43291419087274 26.903011687217827 L 145.1227419495968 25.480367989919216 L 150 25 Z" fill="none" stroke="rgba(255, 255, 255, 0.5)" stroke-width="2.5" data-type="pcb_board" data-pcb-layer="board"/><g data-type="pcb_plated_hole" data-pcb-layer="through"><circle class="pcb-hole-outer" fill="rgb(200, 52, 52)" cx="505" cy="25" r="70.25" data-type="pcb_plated_hole" data-pcb-layer="top"/><circle class="pcb-hole-inner" fill="#FF26E2" cx="505" cy="25" r="47.75" data-type="pcb_plated_hole_drill" data-pcb-layer="drill"/></g><rect class="pcb-pad" fill="rgb(200, 52, 52)" x="626.875" y="525" width="8.75" height="36.25" data-type="pcb_smtpad" data-pcb-layer="top"/><rect class="pcb-pad" fill="rgb(200, 52, 52)" x="614.375" y="525" width="8.75" height="36.25" data-type="pcb_smtpad" data-pcb-layer="top"/><rect class="pcb-pad" fill="rgb(200, 52, 52)" x="601.875" y="525" width="8.75" height="36.25" data-type="pcb_smtpad" data-pcb-layer="top"/><rect class="pcb-pad" fill="rgb(200, 52, 52)" x="589.375" y="525" width="8.75" height="36.25" data-type="pcb_smtpad" data-pcb-layer="top"/><rect class="pcb-pad" fill="rgb(200, 52, 52)" x="576.875" y="525" width="8.75" height="36.25" data-type="pcb_smtpad" data-pcb-layer="top"/><rect class="pcb-pad" fill="rgb(200, 52, 52)" x="564.375" y="525" width="8.75" height="36.25" data-type="pcb_smtpad" data-pcb-layer="top"/><rect class="pcb-pad" fill="rgb(200, 52, 52)" x="551.875" y="525" width="8.75" height="36.25" data-type="pcb_smtpad" data-pcb-layer="top"/><rect class="pcb-pad" fill="rgb(200, 52, 52)" x="539.375" y="525" width="8.75" height="36.25" data-type="pcb_smtpad" data-pcb-layer="top"/><rect class="pcb-pad" fill="rgb(200, 52, 52)" x="526.875" y="525" width="8.75" height="36.25" data-type="pcb_smtpad" data-pcb-layer="top"/><rect class="pcb-pad" fill="rgb(200, 52, 52)" x="514.375" y="525" width="8.75" height="36.25" data-type="pcb_smtpad" data-pcb-layer="top"/><rect class="pcb-pad" fill="rgb(200, 52, 52)" x="501.875" y="525" width="8.75" height="36.25" data-type="pcb_smtpad" data-pcb-layer="top"/><rect class="pcb-pad" fill="rgb(200, 52, 52)" x="489.375" y="525" width="8.75" height="36.25" data-type="pcb_smtpad" data-pcb-layer="top"/><rect class="pcb-pad" fill="rgb(200, 52, 52)" x="426.875" y="525" width="8.75" height="36.25" data-type="pcb_smtpad" data-pcb-layer="top"/><rect class="pcb-pad" fill="rgb(200, 52, 52)" x="414.375" y="525" width="8.75" height="36.25" data-type="pcb_smtpad" data-pcb-layer="top"/><rect class="pcb-pad" fill="rgb(200, 52, 52)" x="401.875" y="525" width="8.75" height="36.25" data-type="pcb_smtpad" data-pcb-layer="top"/><rect class="pcb-pad" fill="rgb(200, 52, 52)" x="389.375" y="525" width="8.75" height="36.25" data-type="pcb_smtpad" data-pcb-layer="top"/><rect class="pcb-pad" fill="rgb(200, 52, 52)" x="376.875" y="525" width="8.75" height="36.25" data-type="pcb_smtpad" data-pcb-layer="top"/><rect class="pcb-pad" fill="rgb(200, 52, 52)" x="364.375" y="525" width="8.75" height="36.25" data-type="pcb_smtpad" data-pcb-layer="top"/><rect class="pcb-pad" fill="rgb(200, 52, 52)" x="351.875" y="525" width="8.75" height="36.25" data-type="pcb_smtpad" data-pcb-layer="top"/><rect class="pcb-pad" fill="rgb(200, 52, 52)" x="339.375" y="525" width="8.75" height="36.25" data-type="pcb_smtpad" data-pcb-layer="top"/><rect class="pcb-pad" fill="rgb(200, 52, 52)" x="326.875" y="525" width="8.75" height="36.25" data-type="pcb_smtpad" data-pcb-layer="top"/><rect class="pcb-pad" fill="rgb(200, 52, 52)" x="314.375" y="525" width="8.75" height="36.25" data-type="pcb_smtpad" data-pcb-layer="top"/><rect class="pcb-pad" fill="rgb(200, 52, 52)" x="301.875" y="525" width="8.75" height="36.25" data-type="pcb_smtpad" data-pcb-layer="top"/><rect class="pcb-pad" fill="rgb(200, 52, 52)" x="289.375" y="525" width="8.75" height="36.25" data-type="pcb_smtpad" data-pcb-layer="top"/><rect class="pcb-pad" fill="rgb(200, 52, 52)" x="276.875" y="525" width="8.75" height="36.25" data-type="pcb_smtpad" data-pcb-layer="top"/><rect class="pcb-pad" fill="rgb(200, 52, 52)" x="264.375" y="525" width="8.75" height="36.25" data-type="pcb_smtpad" data-pcb-layer="top"/><rect class="pcb-pad" fill="rgb(200, 52, 52)" x="251.875" y="525" width="8.75" height="36.25" data-type="pcb_smtpad" data-pcb-layer="top"/><rect class="pcb-pad" fill="rgb(200, 52, 52)" x="239.375" y="525" width="8.75" height="36.25" data-type="pcb_smtpad" data-pcb-layer="top"/><rect class="pcb-pad" fill="rgb(200, 52, 52)" x="226.875" y="525" width="8.75" height="36.25" data-type="pcb_smtpad" data-pcb-layer="top"/><rect class="pcb-pad" fill="rgb(200, 52, 52)" x="214.375" y="525" width="8.75" height="36.25" data-type="pcb_smtpad" data-pcb-layer="top"/><rect class="pcb-pad" fill="rgb(200, 52, 52)" x="201.875" y="525" width="8.75" height="36.25" data-type="pcb_smtpad" data-pcb-layer="top"/><rect class="pcb-pad" fill="rgb(200, 52, 52)" x="189.375" y="525" width="8.75" height="36.25" data-type="pcb_smtpad" data-pcb-layer="top"/><rect class="pcb-pad" fill="rgb(200, 52, 52)" x="176.875" y="525" width="8.75" height="36.25" data-type="pcb_smtpad" data-pcb-layer="top"/><rect class="pcb-pad" fill="rgb(200, 52, 52)" x="164.375" y="525" width="8.75" height="36.25" data-type="pcb_smtpad" data-pcb-layer="top"/><rect class="pcb-pad" fill="rgb(200, 52, 52)" x="253.125" y="203.125" width="37.5" height="6.25" data-type="pcb_smtpad" data-pcb-layer="top"/><rect class="pcb-pad" fill="rgb(200, 52, 52)" x="253.125" y="215.625" width="37.5" height="6.25" data-type="pcb_smtpad" data-pcb-layer="top"/><rect class="pcb-pad" fill="rgb(200, 52, 52)" x="253.125" y="228.125" width="37.5" height="6.25" data-type="pcb_smtpad" data-pcb-layer="top"/><rect class="pcb-pad" fill="rgb(200, 52, 52)" x="253.125" y="240.625" width="37.5" height="6.25" data-type="pcb_smtpad" data-pcb-layer="top"/><rect class="pcb-pad" fill="rgb(200, 52, 52)" x="253.125" y="253.125" width="37.5" height="6.25" data-type="pcb_smtpad" data-pcb-layer="top"/><rect class="pcb-pad" fill="rgb(200, 52, 52)" x="253.125" y="265.625" width="37.5" height="6.25" data-type="pcb_smtpad" data-pcb-layer="top"/><rect class="pcb-pad" fill="rgb(200, 52, 52)" x="253.125" y="278.125" width="37.5" height="6.25" data-type="pcb_smtpad" data-pcb-layer="top"/><rect class="pcb-pad" fill="rgb(200, 52, 52)" x="253.125" y="290.625" width="37.5" height="6.25" data-type="pcb_smtpad" data-pcb-layer="top"/><rect class="pcb-pad" fill="rgb(200, 52, 52)" x="253.125" y="303.125" width="37.5" height="6.25" data-type="pcb_smtpad" data-pcb-layer="top"/><rect class="pcb-pad" fill="rgb(200, 52, 52)" x="253.125" y="315.625" width="37.5" height="6.25" data-type="pcb_smtpad" data-pcb-layer="top"/><rect class="pcb-pad" fill="rgb(200, 52, 52)" x="253.125" y="328.125" width="37.5" height="6.25" data-type="pcb_smtpad" data-pcb-layer="top"/><rect class="pcb-pad" fill="rgb(200, 52, 52)" x="253.125" y="340.625" width="37.5" height="6.25" data-type="pcb_smtpad" data-pcb-layer="top"/><rect class="pcb-pad" fill="rgb(200, 52, 52)" x="253.125" y="353.125" width="37.5" height="6.25" data-type="pcb_smtpad" data-pcb-layer="top"/><rect class="pcb-pad" fill="rgb(200, 52, 52)" x="253.125" y="365.625" width="37.5" height="6.25" data-type="pcb_smtpad" data-pcb-layer="top"/><rect class="pcb-pad" fill="rgb(200, 52, 52)" x="253.125" y="378.125" width="37.5" height="6.25" data-type="pcb_smtpad" data-pcb-layer="top"/><rect class="pcb-pad" fill="rgb(200, 52, 52)" x="253.125" y="390.625" width="37.5" height="6.25" data-type="pcb_smtpad" data-pcb-layer="top"/><rect class="pcb-pad" fill="rgb(200, 52, 52)" x="303.125" y="409.375" width="6.25" height="37.5" data-type="pcb_smtpad" data-pcb-layer="top"/><rect class="pcb-pad" fill="rgb(200, 52, 52)" x="315.625" y="409.375" width="6.25" height="37.5" data-type="pcb_smtpad" data-pcb-layer="top"/><rect class="pcb-pad" fill="rgb(200, 52, 52)" x="328.125" y="409.375" width="6.25" height="37.5" data-type="pcb_smtpad" data-pcb-layer="top"/><rect class="pcb-pad" fill="rgb(200, 52, 52)" x="340.625" y="409.375" width="6.25" height="37.5" data-type="pcb_smtpad" data-pcb-layer="top"/><rect class="pcb-pad" fill="rgb(200, 52, 52)" x="353.125" y="409.375" width="6.25" height="37.5" data-type="pcb_smtpad" data-pcb-layer="top"/><rect class="pcb-pad" fill="rgb(200, 52, 52)" x="365.625" y="409.375" width="6.25" height="37.5" data-type="pcb_smtpad" data-pcb-layer="top"/><rect class="pcb-pad" fill="rgb(200, 52, 52)" x="378.125" y="409.375" width="6.25" height="37.5" data-type="pcb_smtpad" data-pcb-layer="top"/><rect class="pcb-pad" fill="rgb(200, 52, 52)" x="390.625" y="409.375" width="6.25" height="37.5" data-type="pcb_smtpad" data-pcb-layer="top"/><rect class="pcb-pad" fill="rgb(200, 52, 52)" x="403.125" y="409.375" width="6.25" height="37.5" data-type="pcb_smtpad" data-pcb-layer="top"/><rect class="pcb-pad" fill="rgb(200, 52, 52)" x="415.625" y="409.375" width="6.25" height="37.5" data-type="pcb_smtpad" data-pcb-layer="top"/><rect class="pcb-pad" fill="rgb(200, 52, 52)" x="428.125" y="409.375" width="6.25" height="37.5" data-type="pcb_smtpad" data-pcb-layer="top"/><rect class="pcb-pad" fill="rgb(200, 52, 52)" x="440.625" y="409.375" width="6.25" height="37.5" data-type="pcb_smtpad" data-pcb-layer="top"/><rect class="pcb-pad" fill="rgb(200, 52, 52)" x="453.125" y="409.375" width="6.25" height="37.5" data-type="pcb_smtpad" data-pcb-layer="top"/><rect class="pcb-pad" fill="rgb(200, 52, 52)" x="465.625" y="409.375" width="6.25" height="37.5" data-type="pcb_smtpad" data-pcb-layer="top"/><rect class="pcb-pad" fill="rgb(200, 52, 52)" x="478.125" y="409.375" width="6.25" height="37.5" data-type="pcb_smtpad" data-pcb-layer="top"/><rect class="pcb-pad" fill="rgb(200, 52, 52)" x="490.625" y="409.375" width="6.25" height="37.5" data-type="pcb_smtpad" data-pcb-layer="top"/><rect class="pcb-pad" fill="rgb(200, 52, 52)" x="509.375" y="390.625" width="37.5" height="6.25" data-type="pcb_smtpad" data-pcb-layer="top"/><rect class="pcb-pad" fill="rgb(200, 52, 52)" x="509.375" y="378.125" width="37.5" height="6.25" data-type="pcb_smtpad" data-pcb-layer="top"/><rect class="pcb-pad" fill="rgb(200, 52, 52)" x="509.375" y="365.625" width="37.5" height="6.25" data-type="pcb_smtpad" data-pcb-layer="top"/><rect class="pcb-pad" fill="rgb(200, 52, 52)" x="509.375" y="353.125" width="37.5" height="6.25" data-type="pcb_smtpad" data-pcb-layer="top"/><rect class="pcb-pad" fill="rgb(200, 52, 52)" x="509.375" y="340.625" width="37.5" height="6.25" data-type="pcb_smtpad" data-pcb-layer="top"/><rect class="pcb-pad" fill="rgb(200, 52, 52)" x="509.375" y="328.125" width="37.5" height="6.25" data-type="pcb_smtpad" data-pcb-layer="top"/><rect class="pcb-pad" fill="rgb(200, 52, 52)" x="509.375" y="315.625" width="37.5" height="6.25" data-type="pcb_smtpad" data-pcb-layer="top"/><rect class="pcb-pad" fill="rgb(200, 52, 52)" x="509.375" y="303.125" width="37.5" height="6.25" data-type="pcb_smtpad" data-pcb-layer="top"/><rect class="pcb-pad" fill="rgb(200, 52, 52)" x="509.375" y="290.625" width="37.5" height="6.25" data-type="pcb_smtpad" data-pcb-layer="top"/><rect class="pcb-pad" fill="rgb(200, 52, 52)" x="509.375" y="278.125" width="37.5" height="6.25" data-type="pcb_smtpad" data-pcb-layer="top"/><rect class="pcb-pad" fill="rgb(200, 52, 52)" x="509.375" y="265.625" width="37.5" height="6.25" data-type="pcb_smtpad" data-pcb-layer="top"/><rect class="pcb-pad" fill="rgb(200, 52, 52)" x="509.375" y="253.125" width="37.5" height="6.25" data-type="pcb_smtpad" data-pcb-layer="top"/><rect class="pcb-pad" fill="rgb(200, 52, 52)" x="509.375" y="240.625" width="37.5" height="6.25" data-type="pcb_smtpad" data-pcb-layer="top"/><rect class="pcb-pad" fill="rgb(200, 52, 52)" x="509.375" y="228.125" width="37.5" height="6.25" data-type="pcb_smtpad" data-pcb-layer="top"/><rect class="pcb-pad" fill="rgb(200, 52, 52)" x="509.375" y="215.625" width="37.5" height="6.25" data-type="pcb_smtpad" data-pcb-layer="top"/><rect class="pcb-pad" fill="rgb(200, 52, 52)" x="509.375" y="203.125" width="37.5" height="6.25" data-type="pcb_smtpad" data-pcb-layer="top"/><rect class="pcb-pad" fill="rgb(200, 52, 52)" x="490.625" y="153.125" width="6.25" height="37.5" data-type="pcb_smtpad" data-pcb-layer="top"/><rect class="pcb-pad" fill="rgb(200, 52, 52)" x="478.125" y="153.125" width="6.25" height="37.5" data-type="pcb_smtpad" data-pcb-layer="top"/><rect class="pcb-pad" fill="rgb(200, 52, 52)" x="465.625" y="153.125" width="6.25" height="37.5" data-type="pcb_smtpad" data-pcb-layer="top"/><rect class="pcb-pad" fill="rgb(200, 52, 52)" x="453.125" y="153.125" width="6.25" height="37.5" data-type="pcb_smtpad" data-pcb-layer="top"/><rect class="pcb-pad" fill="rgb(200, 52, 52)" x="440.625" y="153.125" width="6.25" height="37.5" data-type="pcb_smtpad" data-pcb-layer="top"/><rect class="pcb-pad" fill="rgb(200, 52, 52)" x="428.125" y="153.125" width="6.25" height="37.5" data-type="pcb_smtpad" data-pcb-layer="top"/><rect class="pcb-pad" fill="rgb(200, 52, 52)" x="415.625" y="153.125" width="6.25" height="37.5" data-type="pcb_smtpad" data-pcb-layer="top"/><rect class="pcb-pad" fill="rgb(200, 52, 52)" x="403.125" y="153.125" width="6.25" height="37.5" data-type="pcb_smtpad" data-pcb-layer="top"/><rect class="pcb-pad" fill="rgb(200, 52, 52)" x="390.625" y="153.125" width="6.25" height="37.5" data-type="pcb_smtpad" data-pcb-layer="top"/><rect class="pcb-pad" fill="rgb(200, 52, 52)" x="378.125" y="153.125" width="6.25" height="37.5" data-type="pcb_smtpad" data-pcb-layer="top"/><rect class="pcb-pad" fill="rgb(200, 52, 52)" x="365.625" y="153.125" width="6.25" height="37.5" data-type="pcb_smtpad" data-pcb-layer="top"/><rect class="pcb-pad" fill="rgb(200, 52, 52)" x="353.125" y="153.125" width="6.25" height="37.5" data-type="pcb_smtpad" data-pcb-layer="top"/><rect class="pcb-pad" fill="rgb(200, 52, 52)" x="340.625" y="153.125" width="6.25" height="37.5" data-type="pcb_smtpad" data-pcb-layer="top"/><rect class="pcb-pad" fill="rgb(200, 52, 52)" x="328.125" y="153.125" width="6.25" height="37.5" data-type="pcb_smtpad" data-pcb-layer="top"/><rect class="pcb-pad" fill="rgb(200, 52, 52)" x="315.625" y="153.125" width="6.25" height="37.5" data-type="pcb_smtpad" data-pcb-layer="top"/><rect class="pcb-pad" fill="rgb(200, 52, 52)" x="303.125" y="153.125" width="6.25" height="37.5" data-type="pcb_smtpad" data-pcb-layer="top"/><rect class="pcb-pad" fill="rgb(200, 52, 52)" x="184.875" y="267.5" width="18.75" height="35" data-type="pcb_smtpad" data-pcb-layer="top"/><rect class="pcb-pad" fill="rgb(200, 52, 52)" x="184.875" y="322.5" width="18.75" height="35" data-type="pcb_smtpad" data-pcb-layer="top"/><rect class="pcb-pad" fill="rgb(200, 52, 52)" x="147.375" y="267.5" width="18.75" height="35" data-type="pcb_smtpad" data-pcb-layer="top"/><rect class="pcb-pad" fill="rgb(200, 52, 52)" x="147.375" y="322.5" width="18.75" height="35" data-type="pcb_smtpad" data-pcb-layer="top"/><rect class="pcb-pad" fill="rgb(200, 52, 52)" x="161.75" y="213.25" width="13.5" height="16" data-type="pcb_smtpad" data-pcb-layer="top"/><rect class="pcb-pad" fill="rgb(200, 52, 52)" x="187.25" y="213.25" width="13.5" height="16" data-type="pcb_smtpad" data-pcb-layer="top"/><rect class="pcb-pad" fill="rgb(200, 52, 52)" x="151.75" y="404.25" width="16" height="13.5" data-type="pcb_smtpad" data-pcb-layer="top"/><rect class="pcb-pad" fill="rgb(200, 52, 52)" x="151.75" y="378.75" width="16" height="13.5" data-type="pcb_smtpad" data-pcb-layer="top"/><rect class="pcb-pad" fill="rgb(200, 52, 52)" x="148.75000000000003" y="122" width="25" height="27.500000000000004" data-type="pcb_smtpad" data-pcb-layer="top"/><rect class="pcb-pad" fill="rgb(200, 52, 52)" x="196.25" y="122" width="25" height="27.500000000000004" data-type="pcb_smtpad" data-pcb-layer="top"/><rect class="pcb-pad" fill="rgb(200, 52, 52)" x="161.5" y="173.75" width="13.5" height="16" data-type="pcb_smtpad" data-pcb-layer="top"/><rect class="pcb-pad" fill="rgb(200, 52, 52)" x="187" y="173.75" width="13.5" height="16" data-type="pcb_smtpad" data-pcb-layer="top"/><rect class="pcb-pad" fill="rgb(200, 52, 52)" x="161.5" y="80.625" width="13.5" height="16" data-type="pcb_smtpad" data-pcb-layer="top"/><rect class="pcb-pad" fill="rgb(200, 52, 52)" x="187" y="80.625" width="13.5" height="16" data-type="pcb_smtpad" data-pcb-layer="top"/><rect class="pcb-pad" fill="rgb(200, 52, 52)" x="533" y="460.25" width="13.5" height="16" data-type="pcb_smtpad" data-pcb-layer="top"/><rect class="pcb-pad" fill="rgb(200, 52, 52)" x="558.5" y="460.25" width="13.5" height="16" data-type="pcb_smtpad" data-pcb-layer="top"/><rect class="pcb-pad" fill="rgb(200, 52, 52)" x="611.75" y="210.75" width="13.5" height="16" data-type="pcb_smtpad" data-pcb-layer="top"/><rect class="pcb-pad" fill="rgb(200, 52, 52)" x="637.25" y="210.75" width="13.5" height="16" data-type="pcb_smtpad" data-pcb-layer="top"/><rect class="pcb-pad" fill="rgb(200, 52, 52)" x="611.75" y="290.125" width="13.5" height="16" data-type="pcb_smtpad" data-pcb-layer="top"/><rect class="pcb-pad" fill="rgb(200, 52, 52)" x="637.25" y="290.125" width="13.5" height="16" data-type="pcb_smtpad" data-pcb-layer="top"/><rect class="pcb-pad" fill="rgb(200, 52, 52)" x="611.75" y="250.75" width="13.5" height="16" data-type="pcb_smtpad" data-pcb-layer="top"/><rect class="pcb-pad" fill="rgb(200, 52, 52)" x="637.25" y="250.75" width="13.5" height="16" data-type="pcb_smtpad" data-pcb-layer="top"/><rect class="pcb-pad" fill="rgb(200, 52, 52)" x="232" y="404.75" width="16" height="13.5" data-type="pcb_smtpad" data-pcb-layer="top"/><rect class="pcb-pad" fill="rgb(200, 52, 52)" x="232" y="379.25" width="16" height="13.5" data-type="pcb_smtpad" data-pcb-layer="top"/><rect class="pcb-pad" fill="rgb(200, 52, 52)" x="192" y="404.5" width="16" height="13.5" data-type="pcb_smtpad" data-pcb-layer="top"/><rect class="pcb-pad" fill="rgb(200, 52, 52)" x="192" y="379" width="16" height="13.5" data-type="pcb_smtpad" data-pcb-layer="top"/><rect class="pcb-pad" fill="rgb(200, 52, 52)" x="603.75" y="59.25" width="13.5" height="16" data-type="pcb_smtpad" data-pcb-layer="top"/><rect class="pcb-pad" fill="rgb(200, 52, 52)" x="629.25" y="59.25" width="13.5" height="16" data-type="pcb_smtpad" data-pcb-layer="top"/><rect class="pcb-pad" fill="rgb(200, 52, 52)" x="603.75" y="123.25" width="13.5" height="16" data-type="pcb_smtpad" data-pcb-layer="top"/><rect class="pcb-pad" fill="rgb(200, 52, 52)" x="629.25" y="123.25" width="13.5" height="16" data-type="pcb_smtpad" data-pcb-layer="top"/><rect class="pcb-pad" fill="rgb(200, 52, 52)" x="151.75" y="454.25" width="16" height="13.5" data-type="pcb_smtpad" data-pcb-layer="top"/><rect class="pcb-pad" fill="rgb(200, 52, 52)" x="151.75" y="428.75" width="16" height="13.5" data-type="pcb_smtpad" data-pcb-layer="top"/><rect class="pcb-pad" fill="rgb(200, 52, 52)" x="192" y="454.5" width="16" height="13.5" data-type="pcb_smtpad" data-pcb-layer="top"/><rect class="pcb-pad" fill="rgb(200, 52, 52)" x="192" y="429" width="16" height="13.5" data-type="pcb_smtpad" data-pcb-layer="top"/><rect class="pcb-pad" fill="rgb(200, 52, 52)" x="232" y="454.75" width="16" height="13.5" data-type="pcb_smtpad" data-pcb-layer="top"/><rect class="pcb-pad" fill="rgb(200, 52, 52)" x="232" y="429.25" width="16" height="13.5" data-type="pcb_smtpad" data-pcb-layer="top"/><rect class="pcb-pad" fill="rgb(200, 52, 52)" x="318" y="95.75" width="13.5" height="16" data-type="pcb_smtpad" data-pcb-layer="top"/><rect class="pcb-pad" fill="rgb(200, 52, 52)" x="343.5" y="95.75" width="13.5" height="16" data-type="pcb_smtpad" data-pcb-layer="top"/><rect class="pcb-pad" fill="rgb(200, 52, 52)" x="533" y="420.75" width="13.5" height="16" data-type="pcb_smtpad" data-pcb-layer="top"/><rect class="pcb-pad" fill="rgb(200, 52, 52)" x="558.5" y="420.75" width="13.5" height="16" data-type="pcb_smtpad" data-pcb-layer="top"/><rect class="pcb-pad" fill="rgb(200, 52, 52)" x="611.75" y="171.25" width="13.5" height="16" data-type="pcb_smtpad" data-pcb-layer="top"/><rect class="pcb-pad" fill="rgb(200, 52, 52)" x="637.25" y="171.25" width="13.5" height="16" data-type="pcb_smtpad" data-pcb-layer="top"/><rect class="pcb-pad" fill="rgb(200, 52, 52)" x="318" y="54.5" width="13.5" height="16" data-type="pcb_smtpad" data-pcb-layer="top"/><rect class="pcb-pad" fill="rgb(200, 52, 52)" x="343.5" y="54.5" width="13.5" height="16" data-type="pcb_smtpad" data-pcb-layer="top"/><path class="pcb-silkscreen pcb-silkscreen-top" d="M 194 203.25 L 156.75 203.25 L 156.75 239.25 L 194 239.25" fill="none" stroke="#f2eda1" stroke-width="2.5" stroke-linecap="round" stroke-linejoin="round" data-pcb-component-id="pcb_component_4" data-pcb-silkscreen-path-id="pcb_silkscreen_path_1" data-type="pcb_silkscreen_path" data-pcb-layer="top"/><text x="0" y="0" dx="0" dy="0" fill="#f2eda1" font-family="Arial, sans-serif" font-size="10" text-anchor="middle" dominant-baseline="central" transform="matrix(1,0,0,1,181.25,190.75)" class="pcb-silkscreen-text pcb-silkscreen-top" data-pcb-silkscreen-text-id="pcb_component_4" stroke="none" data-type="pcb_silkscreen_text" data-pcb-layer="top">C1</text><path class="pcb-silkscreen pcb-silkscreen-top" d="M 141.75 385.5 L 141.75 422.75 L 177.75000000000003 422.75 L 177.75000000000003 385.5" fill="none" stroke="#f2eda1" stroke-width="2.5" stroke-linecap="round" stroke-linejoin="round" data-pcb-component-id="pcb_component_5" data-pcb-silkscreen-path-id="pcb_silkscreen_path_2" data-type="pcb_silkscreen_path" data-pcb-layer="top"/><text x="0" y="0" dx="0" dy="0" fill="#f2eda1" font-family="Arial, sans-serif" font-size="10" text-anchor="middle" dominant-baseline="central" transform="matrix(6.123233995736766e-17,-1,1,6.123233995736766e-17,129.25,398.25)" class="pcb-silkscreen-text pcb-silkscreen-top" data-pcb-silkscreen-text-id="pcb_component_5" stroke="none" data-type="pcb_silkscreen_text" data-pcb-layer="top">C2</text><path class="pcb-silkscreen pcb-silkscreen-top" d="M 193.75 163.75 L 156.5 163.75 L 156.5 199.75 L 193.75 199.75" fill="none" stroke="#f2eda1" stroke-width="2.5" stroke-linecap="round" stroke-linejoin="round" data-pcb-component-id="pcb_component_7" data-pcb-silkscreen-path-id="pcb_silkscreen_path_3" data-type="pcb_silkscreen_path" data-pcb-layer="top"/><text x="0" y="0" dx="0" dy="0" fill="#f2eda1" font-family="Arial, sans-serif" font-size="10" text-anchor="middle" dominant-baseline="central" transform="matrix(1,0,0,1,181,151.25)" class="pcb-silkscreen-text pcb-silkscreen-top" data-pcb-silkscreen-text-id="pcb_component_7" stroke="none" data-type="pcb_silkscreen_text" data-pcb-layer="top">C3</text><path class="pcb-silkscreen pcb-silkscreen-top" d="M 193.75 70.62499999999997 L 156.5 70.62499999999997 L 156.5 106.625 L 193.75 106.625" fill="none" stroke="#f2eda1" stroke-width="2.5" stroke-linecap="round" stroke-linejoin="round" data-pcb-component-id="pcb_component_8" data-pcb-silkscreen-path-id="pcb_silkscreen_path_4" data-type="pcb_silkscreen_path" data-pcb-layer="top"/><text x="0" y="0" dx="0" dy="0" fill="#f2eda1" font-family="Arial, sans-serif" font-size="10" text-anchor="middle" dominant-baseline="central" transform="matrix(1,0,0,1,181,58.12499999999997)" class="pcb-silkscreen-text pcb-silkscreen-top" data-pcb-silkscreen-text-id="pcb_component_8" stroke="none" data-type="pcb_silkscreen_text" data-pcb-layer="top">C4</text><path class="pcb-silkscreen pcb-silkscreen-top" d="M 565.25 450.25 L 528 450.25 L 528 486.25 L 565.25 486.25" fill="none" stroke="#f2eda1" stroke-width="2.5" stroke-linecap="round" stroke-linejoin="round" data-pcb-component-id="pcb_component_9" data-pcb-silkscreen-path-id="pcb_silkscreen_path_5" data-type="pcb_silkscreen_path" data-pcb-layer="top"/><text x="0" y="0" dx="0" dy="0" fill="#f2eda1" font-family="Arial, sans-serif" font-size="10" text-anchor="middle" dominant-baseline="central" transform="matrix(1,0,0,1,552.5,437.75)" class="pcb-silkscreen-text pcb-silkscreen-top" data-pcb-silkscreen-text-id="pcb_component_9" stroke="none" data-type="pcb_silkscreen_text" data-pcb-layer="top">C5</text><path class="pcb-silkscreen pcb-silkscreen-top" d="M 644 200.75 L 606.75 200.75 L 606.75 236.75 L 644 236.75" fill="none" stroke="#f2eda1" stroke-width="2.5" stroke-linecap="round" stroke-linejoin="round" data-pcb-component-id="pcb_component_10" data-pcb-silkscreen-path-id="pcb_silkscreen_path_6" data-type="pcb_silkscreen_path" data-pcb-layer="top"/><text x="0" y="0" dx="0" dy="0" fill="#f2eda1" font-family="Arial, sans-serif" font-size="10" text-anchor="middle" dominant-baseline="central" transform="matrix(1,0,0,1,631.25,188.25)" class="pcb-silkscreen-text pcb-silkscreen-top" data-pcb-silkscreen-text-id="pcb_component_10" stroke="none" data-type="pcb_silkscreen_text" data-pcb-layer="top">C6</text><path class="pcb-silkscreen pcb-silkscreen-top" d="M 644 280.125 L 606.75 280.125 L 606.75 316.125 L 644 316.125" fill="none" stroke="#f2eda1" stroke-width="2.5" stroke-linecap="round" stroke-linejoin="round" data-pcb-component-id="pcb_component_11" data-pcb-silkscreen-path-id="pcb_silkscreen_path_7" data-type="pcb_silkscreen_path" data-pcb-layer="top"/><text x="0" y="0" dx="0" dy="0" fill="#f2eda1" font-family="Arial, sans-serif" font-size="10" text-anchor="middle" dominant-baseline="central" transform="matrix(1,0,0,1,631.25,267.625)" class="pcb-silkscreen-text pcb-silkscreen-top" data-pcb-silkscreen-text-id="pcb_component_11" stroke="none" data-type="pcb_silkscreen_text" data-pcb-layer="top">R2</text><path class="pcb-silkscreen pcb-silkscreen-top" d="M 644 240.75 L 606.75 240.75 L 606.75 276.75 L 644 276.75" fill="none" stroke="#f2eda1" stroke-width="2.5" stroke-linecap="round" stroke-linejoin="round" data-pcb-component-id="pcb_component_12" data-pcb-silkscreen-path-id="pcb_silkscreen_path_8" data-type="pcb_silkscreen_path" data-pcb-layer="top"/><text x="0" y="0" dx="0" dy="0" fill="#f2eda1" font-family="Arial, sans-serif" font-size="10" text-anchor="middle" dominant-baseline="central" transform="matrix(1,0,0,1,631.25,228.25)" class="pcb-silkscreen-text pcb-silkscreen-top" data-pcb-silkscreen-text-id="pcb_component_12" stroke="none" data-type="pcb_silkscreen_text" data-pcb-layer="top">R3</text><path class="pcb-silkscreen pcb-silkscreen-top" d="M 222 386 L 222 423.25 L 258 423.25 L 258 386" fill="none" stroke="#f2eda1" stroke-width="2.5" stroke-linecap="round" stroke-linejoin="round" data-pcb-component-id="pcb_component_16" data-pcb-silkscreen-path-id="pcb_silkscreen_path_11" data-type="pcb_silkscreen_path" data-pcb-layer="top"/><text x="0" y="0" dx="0" dy="0" fill="#f2eda1" font-family="Arial, sans-serif" font-size="10" text-anchor="middle" dominant-baseline="central" transform="matrix(6.123233995736766e-17,-1,1,6.123233995736766e-17,209.5,398.75)" class="pcb-silkscreen-text pcb-silkscreen-top" data-pcb-silkscreen-text-id="pcb_component_16" stroke="none" data-type="pcb_silkscreen_text" data-pcb-layer="top">R4</text><path class="pcb-silkscreen pcb-silkscreen-top" d="M 181.99999999999997 385.75 L 181.99999999999997 423 L 218 423 L 218 385.75" fill="none" stroke="#f2eda1" stroke-width="2.5" stroke-linecap="round" stroke-linejoin="round" data-pcb-component-id="pcb_component_17" data-pcb-silkscreen-path-id="pcb_silkscreen_path_12" data-type="pcb_silkscreen_path" data-pcb-layer="top"/><text x="0" y="0" dx="0" dy="0" fill="#f2eda1" font-family="Arial, sans-serif" font-size="10" text-anchor="middle" dominant-baseline="central" transform="matrix(6.123233995736766e-17,-1,1,6.123233995736766e-17,169.49999999999997,398.5)" class="pcb-silkscreen-text pcb-silkscreen-top" data-pcb-silkscreen-text-id="pcb_component_17" stroke="none" data-type="pcb_silkscreen_text" data-pcb-layer="top">C15</text><path class="pcb-silkscreen pcb-silkscreen-top" d="M 636 49.24999999999997 L 598.75 49.24999999999997 L 598.75 85.25 L 636 85.25" fill="none" stroke="#f2eda1" stroke-width="2.5" stroke-linecap="round" stroke-linejoin="round" data-pcb-component-id="pcb_component_18" data-pcb-silkscreen-path-id="pcb_silkscreen_path_13" data-type="pcb_silkscreen_path" data-pcb-layer="top"/><text x="0" y="0" dx="0" dy="0" fill="#f2eda1" font-family="Arial, sans-serif" font-size="10" text-anchor="middle" dominant-baseline="central" transform="matrix(1,0,0,1,623.25,36.75)" class="pcb-silkscreen-text pcb-silkscreen-top" data-pcb-silkscreen-text-id="pcb_component_18" stroke="none" data-type="pcb_silkscreen_text" data-pcb-layer="top">D5</text><path class="pcb-silkscreen pcb-silkscreen-top" d="M 636 113.25 L 598.75 113.25 L 598.75 149.25 L 636 149.25" fill="none" stroke="#f2eda1" stroke-width="2.5" stroke-linecap="round" stroke-linejoin="round" data-pcb-component-id="pcb_component_19" data-pcb-silkscreen-path-id="pcb_silkscreen_path_14" data-type="pcb_silkscreen_path" data-pcb-layer="top"/><text x="0" y="0" dx="0" dy="0" fill="#f2eda1" font-family="Arial, sans-serif" font-size="10" text-anchor="middle" dominant-baseline="central" transform="matrix(1,0,0,1,623.25,100.75)" class="pcb-silkscreen-text pcb-silkscreen-top" data-pcb-silkscreen-text-id="pcb_component_19" stroke="none" data-type="pcb_silkscreen_text" data-pcb-layer="top">R12</text><path class="pcb-silkscreen pcb-silkscreen-top" d="M 141.75 435.5 L 141.75 472.75 L 177.75000000000003 472.75 L 177.75000000000003 435.5" fill="none" stroke="#f2eda1" stroke-width="2.5" stroke-linecap="round" stroke-linejoin="round" data-pcb-component-id="pcb_component_22" data-pcb-silkscreen-path-id="pcb_silkscreen_path_17" data-type="pcb_silkscreen_path" data-pcb-layer="top"/><text x="0" y="0" dx="0" dy="0" fill="#f2eda1" font-family="Arial, sans-serif" font-size="10" text-anchor="middle" dominant-baseline="central" transform="matrix(6.123233995736766e-17,-1,1,6.123233995736766e-17,129.25,448.25)" class="pcb-silkscreen-text pcb-silkscreen-top" data-pcb-silkscreen-text-id="pcb_component_22" stroke="none" data-type="pcb_silkscreen_text" data-pcb-layer="top">C8</text><path class="pcb-silkscreen pcb-silkscreen-top" d="M 181.99999999999997 435.75 L 181.99999999999997 473 L 218 473 L 218 435.75" fill="none" stroke="#f2eda1" stroke-width="2.5" stroke-linecap="round" stroke-linejoin="round" data-pcb-component-id="pcb_component_23" data-pcb-silkscreen-path-id="pcb_silkscreen_path_18" data-type="pcb_silkscreen_path" data-pcb-layer="top"/><text x="0" y="0" dx="0" dy="0" fill="#f2eda1" font-family="Arial, sans-serif" font-size="10" text-anchor="middle" dominant-baseline="central" transform="matrix(6.123233995736766e-17,-1,1,6.123233995736766e-17,169.49999999999997,448.5)" class="pcb-silkscreen-text pcb-silkscreen-top" data-pcb-silkscreen-text-id="pcb_component_23" stroke="none" data-type="pcb_silkscreen_text" data-pcb-layer="top">C9</text><path class="pcb-silkscreen pcb-silkscreen-top" d="M 222 436 L 222 473.25 L 258 473.25 L 258 436" fill="none" stroke="#f2eda1" stroke-width="2.5" stroke-linecap="round" stroke-linejoin="round" data-pcb-component-id="pcb_component_24" data-pcb-silkscreen-path-id="pcb_silkscreen_path_19" data-type="pcb_silkscreen_path" data-pcb-layer="top"/><text x="0" y="0" dx="0" dy="0" fill="#f2eda1" font-family="Arial, sans-serif" font-size="10" text-anchor="middle" dominant-baseline="central" transform="matrix(6.123233995736766e-17,-1,1,6.123233995736766e-17,209.5,448.75)" class="pcb-silkscreen-text pcb-silkscreen-top" data-pcb-silkscreen-text-id="pcb_component_24" stroke="none" data-type="pcb_silkscreen_text" data-pcb-layer="top">C10</text><path class="pcb-silkscreen pcb-silkscreen-top" d="M 350.25 85.75 L 313 85.75 L 313 121.75 L 350.25 121.75" fill="none" stroke="#f2eda1" stroke-width="2.5" stroke-linecap="round" stroke-linejoin="round" data-pcb-component-id="pcb_component_25" data-pcb-silkscreen-path-id="pcb_silkscreen_path_20" data-type="pcb_silkscreen_path" data-pcb-layer="top"/><text x="0" y="0" dx="0" dy="0" fill="#f2eda1" font-family="Arial, sans-serif" font-size="10" text-anchor="middle" dominant-baseline="central" transform="matrix(1,0,0,1,337.5,73.25)" class="pcb-silkscreen-text pcb-silkscreen-top" data-pcb-silkscreen-text-id="pcb_component_25" stroke="none" data-type="pcb_silkscreen_text" data-pcb-layer="top">C11</text><path class="pcb-silkscreen pcb-silkscreen-top" d="M 565.25 410.75 L 528 410.75 L 528 446.75 L 565.25 446.75" fill="none" stroke="#f2eda1" stroke-width="2.5" stroke-linecap="round" stroke-linejoin="round" data-pcb-component-id="pcb_component_26" data-pcb-silkscreen-path-id="pcb_silkscreen_path_21" data-type="pcb_silkscreen_path" data-pcb-layer="top"/><text x="0" y="0" dx="0" dy="0" fill="#f2eda1" font-family="Arial, sans-serif" font-size="10" text-anchor="middle" dominant-baseline="central" transform="matrix(1,0,0,1,552.5,398.25)" class="pcb-silkscreen-text pcb-silkscreen-top" data-pcb-silkscreen-text-id="pcb_component_26" stroke="none" data-type="pcb_silkscreen_text" data-pcb-layer="top">C12</text><path class="pcb-silkscreen pcb-silkscreen-top" d="M 644 161.25 L 606.75 161.25 L 606.75 197.25 L 644 197.25" fill="none" stroke="#f2eda1" stroke-width="2.5" stroke-linecap="round" stroke-linejoin="round" data-pcb-component-id="pcb_component_27" data-pcb-silkscreen-path-id="pcb_silkscreen_path_22" data-type="pcb_silkscreen_path" data-pcb-layer="top"/><text x="0" y="0" dx="0" dy="0" fill="#f2eda1" font-family="Arial, sans-serif" font-size="10" text-anchor="middle" dominant-baseline="central" transform="matrix(1,0,0,1,631.25,148.75)" class="pcb-silkscreen-text pcb-silkscreen-top" data-pcb-silkscreen-text-id="pcb_component_27" stroke="none" data-type="pcb_silkscreen_text" data-pcb-layer="top">C13</text><path class="pcb-silkscreen pcb-silkscreen-top" d="M 350.25 44.49999999999997 L 313 44.49999999999997 L 313 80.50000000000003 L 350.25 80.50000000000003" fill="none" stroke="#f2eda1" stroke-width="2.5" stroke-linecap="round" stroke-linejoin="round" data-pcb-component-id="pcb_component_28" data-pcb-silkscreen-path-id="pcb_silkscreen_path_23" data-type="pcb_silkscreen_path" data-pcb-layer="top"/><text x="0" y="0" dx="0" dy="0" fill="#f2eda1" font-family="Arial, sans-serif" font-size="10" text-anchor="middle" dominant-baseline="central" transform="matrix(1,0,0,1,337.5,32)" class="pcb-silkscreen-text pcb-silkscreen-top" data-pcb-silkscreen-text-id="pcb_component_28" stroke="none" data-type="pcb_silkscreen_text" data-pcb-layer="top">C14</text></svg>