<svg xmlns="http://www.w3.org/2000/svg" width="800" height="600" data-software-used-string="@tscircuit/core@0.0.616"><style></style><rect class="boundary" x="0" y="0" fill="#000" width="800" height="600"/><rect class="pcb-boundary" fill="none" stroke="#fff" stroke-width="0.3" x="125" y="25" width="550" height="550"/><path class="pcb-board" d="M 175 25 L 650 25 L 654.8772580504033 25.480367989919216 L 659.5670858091273 26.903011687217827 L 663.8892558254901 29.213259692436395 L 667.6776695296637 32.32233047033628 L 670.7867403075636 36.11074417450999 L 673.0969883127822 40.43291419087274 L 674.5196320100808 45.12274194959679 L 675 50 L 675 462.5 L 674.7598160050404 464.93862902520164 L 674.0484941563911 467.28354290456366 L 672.8933701537818 469.444627912745 L 671.3388347648317 471.33883476483186 L 669.4446279127451 472.8933701537818 L 667.2835429045637 474.0484941563911 L 664.9386290252016 474.7598160050404 L 662.5 475 L 660.0613709747984 475.2401839949596 L 657.7164570954363 475.9515058436089 L 655.555372087255 477.1066298462182 L 653.6611652351681 478.66116523516814 L 652.1066298462182 480.555372087255 L 650.9515058436089 482.71645709543634 L 650.2401839949596 485.06137097479836 L 650 487.5 L 650 575 L 482 575 L 482 500 L 481.711779150976 497.0736452155097 L 480.85819289507344 494.259748613597 L 479.4720440725145 491.6664466596703 L 477.60660160373493 489.39339849075816 L 475.33355339470086 487.5279560708673 L 472.7402514109609 486.14180730408503 L 469.92635479068935 485.2882211087036 L 467 485.0000003226196 L 464.07364520931065 485.2882211087036 L 461.2597485890391 486.14180730408503 L 458.66644660529914 487.5279560708673 L 456.39339839626507 489.39339849075816 L 454.5279559274855 491.6664466596703 L 453.14180710492656 494.259748613597 L 452.288220849024 497.0736452155097 L 452 500 L 452 575 L 150 575 L 150 487.5 L 149.7598160050404 485.06137097479836 L 149.0484941563911 482.71645709543634 L 147.8933701537818 480.555372087255 L 146.33883476483183 478.66116523516814 L 144.444627912745 477.1066298462182 L 142.28354290456366 475.9515058436089 L 139.93862902520158 475.2401839949596 L 137.5 475 L 135.06137097479842 474.7598160050404 L 132.71645709543634 474.0484941563911 L 130.55537208725497 472.8933701537818 L 128.6611652351682 471.33883476483186 L 127.1066298462182 469.444627912745 L 125.95150584360891 467.28354290456366 L 125.24018399495958 464.93862902520164 L 125 462.5 L 125 50 L 125.48036798991922 45.12274194959679 L 126.90301168721783 40.43291419087274 L 129.2132596924364 36.11074417450999 L 132.32233047033628 32.32233047033628 L 136.11074417451 29.213259692436395 L 140.43291419087274 26.903011687217827 L 145.1227419495968 25.480367989919216 L 150 25 Z" fill="none" stroke="rgba(255, 255, 255, 0.5)" stroke-width="2.5"/><rect class="pcb-pad" fill="rgb(77, 127, 196)" x="620.625" y="512.5" width="8.75" height="48.75" data-layer="bottom"/><rect class="pcb-pad" fill="rgb(77, 127, 196)" x="608.125" y="512.5" width="8.75" height="48.75" data-layer="bottom"/><rect class="pcb-pad" fill="rgb(77, 127, 196)" x="595.625" y="512.5" width="8.75" height="48.75" data-layer="bottom"/><rect class="pcb-pad" fill="rgb(77, 127, 196)" x="583.125" y="512.5" width="8.75" height="48.75" data-layer="bottom"/><rect class="pcb-pad" fill="rgb(77, 127, 196)" x="570.625" y="512.5" width="8.75" height="48.75" data-layer="bottom"/><rect class="pcb-pad" fill="rgb(77, 127, 196)" x="558.125" y="512.5" width="8.75" height="48.75" data-layer="bottom"/><rect class="pcb-pad" fill="rgb(77, 127, 196)" x="545.625" y="512.5" width="8.75" height="48.75" data-layer="bottom"/><rect class="pcb-pad" fill="rgb(77, 127, 196)" x="533.125" y="512.5" width="8.75" height="48.75" data-layer="bottom"/><rect class="pcb-pad" fill="rgb(77, 127, 196)" x="520.625" y="512.5" width="8.75" height="48.75" data-layer="bottom"/><rect class="pcb-pad" fill="rgb(77, 127, 196)" x="508.125" y="512.5" width="8.75" height="48.75" data-layer="bottom"/><rect class="pcb-pad" fill="rgb(77, 127, 196)" x="495.625" y="512.5" width="8.75" height="48.75" data-layer="bottom"/><rect class="pcb-pad" fill="rgb(77, 127, 196)" x="433.125" y="512.5" width="8.75" height="48.75" data-layer="bottom"/><rect class="pcb-pad" fill="rgb(77, 127, 196)" x="420.625" y="512.5" width="8.75" height="48.75" data-layer="bottom"/><rect class="pcb-pad" fill="rgb(77, 127, 196)" x="408.125" y="512.5" width="8.75" height="48.75" data-layer="bottom"/><rect class="pcb-pad" fill="rgb(77, 127, 196)" x="395.625" y="512.5" width="8.75" height="48.75" data-layer="bottom"/><rect class="pcb-pad" fill="rgb(77, 127, 196)" x="383.125" y="512.5" width="8.75" height="48.75" data-layer="bottom"/><rect class="pcb-pad" fill="rgb(77, 127, 196)" x="370.625" y="512.5" width="8.75" height="48.75" data-layer="bottom"/><rect class="pcb-pad" fill="rgb(77, 127, 196)" x="358.125" y="512.5" width="8.75" height="48.75" data-layer="bottom"/><rect class="pcb-pad" fill="rgb(77, 127, 196)" x="345.625" y="512.5" width="8.75" height="48.75" data-layer="bottom"/><rect class="pcb-pad" fill="rgb(77, 127, 196)" x="333.125" y="512.5" width="8.75" height="48.75" data-layer="bottom"/><rect class="pcb-pad" fill="rgb(77, 127, 196)" x="320.625" y="512.5" width="8.75" height="48.75" data-layer="bottom"/><rect class="pcb-pad" fill="rgb(77, 127, 196)" x="308.125" y="512.5" width="8.75" height="48.75" data-layer="bottom"/><rect class="pcb-pad" fill="rgb(77, 127, 196)" x="295.625" y="512.5" width="8.75" height="48.75" data-layer="bottom"/><rect class="pcb-pad" fill="rgb(77, 127, 196)" x="283.125" y="512.5" width="8.75" height="48.75" data-layer="bottom"/><rect class="pcb-pad" fill="rgb(77, 127, 196)" x="270.625" y="512.5" width="8.75" height="48.75" data-layer="bottom"/><rect class="pcb-pad" fill="rgb(77, 127, 196)" x="258.125" y="512.5" width="8.75" height="48.75" data-layer="bottom"/><rect class="pcb-pad" fill="rgb(77, 127, 196)" x="245.625" y="512.5" width="8.75" height="48.75" data-layer="bottom"/><rect class="pcb-pad" fill="rgb(77, 127, 196)" x="233.125" y="512.5" width="8.75" height="48.75" data-layer="bottom"/><rect class="pcb-pad" fill="rgb(77, 127, 196)" x="220.625" y="512.5" width="8.75" height="48.75" data-layer="bottom"/><rect class="pcb-pad" fill="rgb(77, 127, 196)" x="208.125" y="512.5" width="8.75" height="48.75" data-layer="bottom"/><rect class="pcb-pad" fill="rgb(77, 127, 196)" x="195.625" y="512.5" width="8.75" height="48.75" data-layer="bottom"/><rect class="pcb-pad" fill="rgb(77, 127, 196)" x="183.125" y="512.5" width="8.75" height="48.75" data-layer="bottom"/><rect class="pcb-pad" fill="rgb(77, 127, 196)" x="170.625" y="512.5" width="8.75" height="48.75" data-layer="bottom"/><rect class="pcb-pad" fill="rgb(200, 52, 52)" x="626.875" y="525" width="8.75" height="36.25" data-layer="top"/><rect class="pcb-pad" fill="rgb(200, 52, 52)" x="614.375" y="525" width="8.75" height="36.25" data-layer="top"/><rect class="pcb-pad" fill="rgb(200, 52, 52)" x="601.875" y="525" width="8.75" height="36.25" data-layer="top"/><rect class="pcb-pad" fill="rgb(200, 52, 52)" x="589.375" y="525" width="8.75" height="36.25" data-layer="top"/><rect class="pcb-pad" fill="rgb(200, 52, 52)" x="576.875" y="525" width="8.75" height="36.25" data-layer="top"/><rect class="pcb-pad" fill="rgb(200, 52, 52)" x="564.375" y="525" width="8.75" height="36.25" data-layer="top"/><rect class="pcb-pad" fill="rgb(200, 52, 52)" x="551.875" y="525" width="8.75" height="36.25" data-layer="top"/><rect class="pcb-pad" fill="rgb(200, 52, 52)" x="539.375" y="525" width="8.75" height="36.25" data-layer="top"/><rect class="pcb-pad" fill="rgb(200, 52, 52)" x="526.875" y="525" width="8.75" height="36.25" data-layer="top"/><rect class="pcb-pad" fill="rgb(200, 52, 52)" x="514.375" y="525" width="8.75" height="36.25" data-layer="top"/><rect class="pcb-pad" fill="rgb(200, 52, 52)" x="501.875" y="525" width="8.75" height="36.25" data-layer="top"/><rect class="pcb-pad" fill="rgb(200, 52, 52)" x="489.375" y="525" width="8.75" height="36.25" data-layer="top"/><rect class="pcb-pad" fill="rgb(200, 52, 52)" x="426.875" y="525" width="8.75" height="36.25" data-layer="top"/><rect class="pcb-pad" fill="rgb(200, 52, 52)" x="414.375" y="525" width="8.75" height="36.25" data-layer="top"/><rect class="pcb-pad" fill="rgb(200, 52, 52)" x="401.875" y="525" width="8.75" height="36.25" data-layer="top"/><rect class="pcb-pad" fill="rgb(200, 52, 52)" x="389.375" y="525" width="8.75" height="36.25" data-layer="top"/><rect class="pcb-pad" fill="rgb(200, 52, 52)" x="376.875" y="525" width="8.75" height="36.25" data-layer="top"/><rect class="pcb-pad" fill="rgb(200, 52, 52)" x="364.375" y="525" width="8.75" height="36.25" data-layer="top"/><rect class="pcb-pad" fill="rgb(200, 52, 52)" x="351.875" y="525" width="8.75" height="36.25" data-layer="top"/><rect class="pcb-pad" fill="rgb(200, 52, 52)" x="339.375" y="525" width="8.75" height="36.25" data-layer="top"/><rect class="pcb-pad" fill="rgb(200, 52, 52)" x="326.875" y="525" width="8.75" height="36.25" data-layer="top"/><rect class="pcb-pad" fill="rgb(200, 52, 52)" x="314.375" y="525" width="8.75" height="36.25" data-layer="top"/><rect class="pcb-pad" fill="rgb(200, 52, 52)" x="301.875" y="525" width="8.75" height="36.25" data-layer="top"/><rect class="pcb-pad" fill="rgb(200, 52, 52)" x="289.375" y="525" width="8.75" height="36.25" data-layer="top"/><rect class="pcb-pad" fill="rgb(200, 52, 52)" x="276.875" y="525" width="8.75" height="36.25" data-layer="top"/><rect class="pcb-pad" fill="rgb(200, 52, 52)" x="264.375" y="525" width="8.75" height="36.25" data-layer="top"/><rect class="pcb-pad" fill="rgb(200, 52, 52)" x="251.875" y="525" width="8.75" height="36.25" data-layer="top"/><rect class="pcb-pad" fill="rgb(200, 52, 52)" x="239.375" y="525" width="8.75" height="36.25" data-layer="top"/><rect class="pcb-pad" fill="rgb(200, 52, 52)" x="226.875" y="525" width="8.75" height="36.25" data-layer="top"/><rect class="pcb-pad" fill="rgb(200, 52, 52)" x="214.375" y="525" width="8.75" height="36.25" data-layer="top"/><rect class="pcb-pad" fill="rgb(200, 52, 52)" x="201.875" y="525" width="8.75" height="36.25" data-layer="top"/><rect class="pcb-pad" fill="rgb(200, 52, 52)" x="189.375" y="525" width="8.75" height="36.25" data-layer="top"/><rect class="pcb-pad" fill="rgb(200, 52, 52)" x="176.875" y="525" width="8.75" height="36.25" data-layer="top"/><rect class="pcb-pad" fill="rgb(200, 52, 52)" x="164.375" y="525" width="8.75" height="36.25" data-layer="top"/><rect class="pcb-pad" fill="rgb(200, 52, 52)" x="253.125" y="188.125" width="7.5" height="36.25" data-layer="top"/><rect class="pcb-pad" fill="rgb(200, 52, 52)" x="253.125" y="200.625" width="7.5" height="36.25" data-layer="top"/><rect class="pcb-pad" fill="rgb(200, 52, 52)" x="253.125" y="213.125" width="7.5" height="36.25" data-layer="top"/><rect class="pcb-pad" fill="rgb(200, 52, 52)" x="253.125" y="225.625" width="7.5" height="36.25" data-layer="top"/><rect class="pcb-pad" fill="rgb(200, 52, 52)" x="253.125" y="238.125" width="7.5" height="36.25" data-layer="top"/><rect class="pcb-pad" fill="rgb(200, 52, 52)" x="253.125" y="250.625" width="7.5" height="36.25" data-layer="top"/><rect class="pcb-pad" fill="rgb(200, 52, 52)" x="253.125" y="263.125" width="7.5" height="36.25" data-layer="top"/><rect class="pcb-pad" fill="rgb(200, 52, 52)" x="253.125" y="275.625" width="7.5" height="36.25" data-layer="top"/><rect class="pcb-pad" fill="rgb(200, 52, 52)" x="253.125" y="288.125" width="7.5" height="36.25" data-layer="top"/><rect class="pcb-pad" fill="rgb(200, 52, 52)" x="253.125" y="300.625" width="7.5" height="36.25" data-layer="top"/><rect class="pcb-pad" fill="rgb(200, 52, 52)" x="253.125" y="313.125" width="7.5" height="36.25" data-layer="top"/><rect class="pcb-pad" fill="rgb(200, 52, 52)" x="253.125" y="325.625" width="7.5" height="36.25" data-layer="top"/><rect class="pcb-pad" fill="rgb(200, 52, 52)" x="253.125" y="338.125" width="7.5" height="36.25" data-layer="top"/><rect class="pcb-pad" fill="rgb(200, 52, 52)" x="253.125" y="350.625" width="7.5" height="36.25" data-layer="top"/><rect class="pcb-pad" fill="rgb(200, 52, 52)" x="253.125" y="363.125" width="7.5" height="36.25" data-layer="top"/><rect class="pcb-pad" fill="rgb(200, 52, 52)" x="253.125" y="375.625" width="7.5" height="36.25" data-layer="top"/><rect class="pcb-pad" fill="rgb(200, 52, 52)" x="288.125" y="439.375" width="36.25" height="7.5" data-layer="top"/><rect class="pcb-pad" fill="rgb(200, 52, 52)" x="300.625" y="439.375" width="36.25" height="7.5" data-layer="top"/><rect class="pcb-pad" fill="rgb(200, 52, 52)" x="313.125" y="439.375" width="36.25" height="7.5" data-layer="top"/><rect class="pcb-pad" fill="rgb(200, 52, 52)" x="325.625" y="439.375" width="36.25" height="7.5" data-layer="top"/><rect class="pcb-pad" fill="rgb(200, 52, 52)" x="338.125" y="439.375" width="36.25" height="7.5" data-layer="top"/><rect class="pcb-pad" fill="rgb(200, 52, 52)" x="350.625" y="439.375" width="36.25" height="7.5" data-layer="top"/><rect class="pcb-pad" fill="rgb(200, 52, 52)" x="363.125" y="439.375" width="36.25" height="7.5" data-layer="top"/><rect class="pcb-pad" fill="rgb(200, 52, 52)" x="375.625" y="439.375" width="36.25" height="7.5" data-layer="top"/><rect class="pcb-pad" fill="rgb(200, 52, 52)" x="388.125" y="439.375" width="36.25" height="7.5" data-layer="top"/><rect class="pcb-pad" fill="rgb(200, 52, 52)" x="400.625" y="439.375" width="36.25" height="7.5" data-layer="top"/><rect class="pcb-pad" fill="rgb(200, 52, 52)" x="413.125" y="439.375" width="36.25" height="7.5" data-layer="top"/><rect class="pcb-pad" fill="rgb(200, 52, 52)" x="425.625" y="439.375" width="36.25" height="7.5" data-layer="top"/><rect class="pcb-pad" fill="rgb(200, 52, 52)" x="438.125" y="439.375" width="36.25" height="7.5" data-layer="top"/><rect class="pcb-pad" fill="rgb(200, 52, 52)" x="450.625" y="439.375" width="36.25" height="7.5" data-layer="top"/><rect class="pcb-pad" fill="rgb(200, 52, 52)" x="463.125" y="439.375" width="36.25" height="7.5" data-layer="top"/><rect class="pcb-pad" fill="rgb(200, 52, 52)" x="475.625" y="439.375" width="36.25" height="7.5" data-layer="top"/><rect class="pcb-pad" fill="rgb(200, 52, 52)" x="539.375" y="375.625" width="7.5" height="36.25" data-layer="top"/><rect class="pcb-pad" fill="rgb(200, 52, 52)" x="539.375" y="363.125" width="7.5" height="36.25" data-layer="top"/><rect class="pcb-pad" fill="rgb(200, 52, 52)" x="539.375" y="350.625" width="7.5" height="36.25" data-layer="top"/><rect class="pcb-pad" fill="rgb(200, 52, 52)" x="539.375" y="338.125" width="7.5" height="36.25" data-layer="top"/><rect class="pcb-pad" fill="rgb(200, 52, 52)" x="539.375" y="325.625" width="7.5" height="36.25" data-layer="top"/><rect class="pcb-pad" fill="rgb(200, 52, 52)" x="539.375" y="313.125" width="7.5" height="36.25" data-layer="top"/><rect class="pcb-pad" fill="rgb(200, 52, 52)" x="539.375" y="300.625" width="7.5" height="36.25" data-layer="top"/><rect class="pcb-pad" fill="rgb(200, 52, 52)" x="539.375" y="288.125" width="7.5" height="36.25" data-layer="top"/><rect class="pcb-pad" fill="rgb(200, 52, 52)" x="539.375" y="275.625" width="7.5" height="36.25" data-layer="top"/><rect class="pcb-pad" fill="rgb(200, 52, 52)" x="539.375" y="263.125" width="7.5" height="36.25" data-layer="top"/><rect class="pcb-pad" fill="rgb(200, 52, 52)" x="539.375" y="250.625" width="7.5" height="36.25" data-layer="top"/><rect class="pcb-pad" fill="rgb(200, 52, 52)" x="539.375" y="238.125" width="7.5" height="36.25" data-layer="top"/><rect class="pcb-pad" fill="rgb(200, 52, 52)" x="539.375" y="225.625" width="7.5" height="36.25" data-layer="top"/><rect class="pcb-pad" fill="rgb(200, 52, 52)" x="539.375" y="213.125" width="7.5" height="36.25" data-layer="top"/><rect class="pcb-pad" fill="rgb(200, 52, 52)" x="539.375" y="200.625" width="7.5" height="36.25" data-layer="top"/><rect class="pcb-pad" fill="rgb(200, 52, 52)" x="539.375" y="188.125" width="7.5" height="36.25" data-layer="top"/><rect class="pcb-pad" fill="rgb(200, 52, 52)" x="475.625" y="153.125" width="36.25" height="7.5" data-layer="top"/><rect class="pcb-pad" fill="rgb(200, 52, 52)" x="463.125" y="153.125" width="36.25" height="7.5" data-layer="top"/><rect class="pcb-pad" fill="rgb(200, 52, 52)" x="450.625" y="153.125" width="36.25" height="7.5" data-layer="top"/><rect class="pcb-pad" fill="rgb(200, 52, 52)" x="438.125" y="153.125" width="36.25" height="7.5" data-layer="top"/><rect class="pcb-pad" fill="rgb(200, 52, 52)" x="425.625" y="153.125" width="36.25" height="7.5" data-layer="top"/><rect class="pcb-pad" fill="rgb(200, 52, 52)" x="413.125" y="153.125" width="36.25" height="7.5" data-layer="top"/><rect class="pcb-pad" fill="rgb(200, 52, 52)" x="400.625" y="153.125" width="36.25" height="7.5" data-layer="top"/><rect class="pcb-pad" fill="rgb(200, 52, 52)" x="388.125" y="153.125" width="36.25" height="7.5" data-layer="top"/><rect class="pcb-pad" fill="rgb(200, 52, 52)" x="375.625" y="153.125" width="36.25" height="7.5" data-layer="top"/><rect class="pcb-pad" fill="rgb(200, 52, 52)" x="363.125" y="153.125" width="36.25" height="7.5" data-layer="top"/><rect class="pcb-pad" fill="rgb(200, 52, 52)" x="350.625" y="153.125" width="36.25" height="7.5" data-layer="top"/><rect class="pcb-pad" fill="rgb(200, 52, 52)" x="338.125" y="153.125" width="36.25" height="7.5" data-layer="top"/><rect class="pcb-pad" fill="rgb(200, 52, 52)" x="325.625" y="153.125" width="36.25" height="7.5" data-layer="top"/><rect class="pcb-pad" fill="rgb(200, 52, 52)" x="313.125" y="153.125" width="36.25" height="7.5" data-layer="top"/><rect class="pcb-pad" fill="rgb(200, 52, 52)" x="300.625" y="153.125" width="36.25" height="7.5" data-layer="top"/><rect class="pcb-pad" fill="rgb(200, 52, 52)" x="288.125" y="153.125" width="36.25" height="7.5" data-layer="top"/><rect class="pcb-pad" fill="rgb(200, 52, 52)" x="237.6125" y="314.37375" width="14.524999999999999" height="31.887500000000003" data-layer="top"/><rect class="pcb-pad" fill="rgb(200, 52, 52)" x="269.3625" y="314.37375" width="14.524999999999999" height="31.887500000000003" data-layer="top"/><rect class="pcb-pad" fill="rgb(200, 52, 52)" x="301.1125" y="314.37375" width="14.524999999999999" height="31.887500000000003" data-layer="top"/><rect class="pcb-pad" fill="rgb(200, 52, 52)" x="332.8625" y="314.37375" width="14.524999999999999" height="31.887500000000003" data-layer="top"/><rect class="pcb-pad" fill="rgb(200, 52, 52)" x="332.8625" y="163.73875" width="14.524999999999999" height="31.887500000000003" data-layer="top"/><rect class="pcb-pad" fill="rgb(200, 52, 52)" x="301.1125" y="163.73875" width="14.524999999999999" height="31.887500000000003" data-layer="top"/><rect class="pcb-pad" fill="rgb(200, 52, 52)" x="269.3625" y="163.73875" width="14.524999999999999" height="31.887500000000003" data-layer="top"/><rect class="pcb-pad" fill="rgb(200, 52, 52)" x="237.6125" y="163.73875" width="14.524999999999999" height="31.887500000000003" data-layer="top"/><rect class="pcb-pad" fill="rgb(200, 52, 52)" x="238.75" y="212.5" width="107.5" height="85" data-layer="top"/><rect class="pcb-pad" fill="rgb(200, 52, 52)" x="342.5" y="487.5" width="15" height="15" data-layer="top"/><rect class="pcb-pad" fill="rgb(200, 52, 52)" x="367.5" y="487.5" width="15" height="15" data-layer="top"/><rect class="pcb-pad" fill="rgb(200, 52, 52)" x="417.5" y="487.5" width="15" height="15" data-layer="top"/><rect class="pcb-pad" fill="rgb(200, 52, 52)" x="442.5" y="487.5" width="15" height="15" data-layer="top"/><rect class="pcb-pad" fill="rgb(200, 52, 52)" x="378.75" y="141.25" width="15" height="30" data-layer="top"/><rect class="pcb-pad" fill="rgb(200, 52, 52)" x="426.25" y="141.25" width="15" height="30" data-layer="top"/><rect class="pcb-pad" fill="rgb(200, 52, 52)" x="402.5" y="188.75" width="15" height="30" data-layer="top"/><rect class="pcb-pad" fill="rgb(200, 52, 52)" x="352.5" y="172.5" width="15" height="15" data-layer="top"/><rect class="pcb-pad" fill="rgb(200, 52, 52)" x="377.5" y="172.5" width="15" height="15" data-layer="top"/><rect class="pcb-pad" fill="rgb(200, 52, 52)" x="425" y="172.5" width="15" height="15" data-layer="top"/><rect class="pcb-pad" fill="rgb(200, 52, 52)" x="450" y="172.5" width="15" height="15" data-layer="top"/><rect class="pcb-pad" fill="rgb(200, 52, 52)" x="285" y="272.5" width="15" height="15" data-layer="top"/><rect class="pcb-pad" fill="rgb(200, 52, 52)" x="310" y="272.5" width="15" height="15" data-layer="top"/><rect class="pcb-pad" fill="rgb(200, 52, 52)" x="395" y="202.5" width="15" height="15" data-layer="top"/><rect class="pcb-pad" fill="rgb(200, 52, 52)" x="420" y="202.5" width="15" height="15" data-layer="top"/><rect class="pcb-pad" fill="rgb(200, 52, 52)" x="275" y="100" width="30" height="40" data-layer="top"/><rect class="pcb-pad" fill="rgb(200, 52, 52)" x="345" y="100" width="30" height="40" data-layer="top"/><rect class="pcb-pad" fill="rgb(200, 52, 52)" x="335" y="102.5" width="15" height="15" data-layer="top"/><rect class="pcb-pad" fill="rgb(200, 52, 52)" x="360" y="102.5" width="15" height="15" data-layer="top"/><rect class="pcb-pad" fill="rgb(200, 52, 52)" x="275" y="102.5" width="15" height="15" data-layer="top"/><rect class="pcb-pad" fill="rgb(200, 52, 52)" x="300" y="102.5" width="15" height="15" data-layer="top"/><rect class="pcb-pad" fill="rgb(200, 52, 52)" x="427.5" y="400" width="25" height="30" data-layer="top"/><rect class="pcb-pad" fill="rgb(200, 52, 52)" x="482.5" y="400" width="25" height="30" data-layer="top"/><rect class="pcb-pad" fill="rgb(200, 52, 52)" x="475" y="397.5" width="15" height="15" data-layer="top"/><rect class="pcb-pad" fill="rgb(200, 52, 52)" x="500" y="397.5" width="15" height="15" data-layer="top"/><rect class="pcb-pad" fill="rgb(200, 52, 52)" x="417.5" y="397.5" width="15" height="15" data-layer="top"/><rect class="pcb-pad" fill="rgb(200, 52, 52)" x="442.5" y="397.5" width="15" height="15" data-layer="top"/><rect class="pcb-pad" fill="rgb(200, 52, 52)" x="342.5" y="247.5" width="15" height="15" data-layer="top"/><rect class="pcb-pad" fill="rgb(200, 52, 52)" x="367.5" y="247.5" width="15" height="15" data-layer="top"/><rect class="pcb-pad" fill="rgb(200, 52, 52)" x="342.5" y="332.5" width="15" height="15" data-layer="top"/><rect class="pcb-pad" fill="rgb(200, 52, 52)" x="367.5" y="332.5" width="15" height="15" data-layer="top"/><rect class="pcb-pad" fill="rgb(200, 52, 52)" x="392.5" y="247.5" width="15" height="15" data-layer="top"/><rect class="pcb-pad" fill="rgb(200, 52, 52)" x="417.5" y="247.5" width="15" height="15" data-layer="top"/><rect class="pcb-pad" fill="rgb(200, 52, 52)" x="392.5" y="337.5" width="15" height="15" data-layer="top"/><rect class="pcb-pad" fill="rgb(200, 52, 52)" x="417.5" y="337.5" width="15" height="15" data-layer="top"/><rect class="pcb-pad" fill="rgb(200, 52, 52)" x="365" y="287.5" width="15" height="15" data-layer="top"/><rect class="pcb-pad" fill="rgb(200, 52, 52)" x="390" y="287.5" width="15" height="15" data-layer="top"/><rect class="pcb-pad" fill="rgb(200, 52, 52)" x="385" y="222.5" width="15" height="15" data-layer="top"/><rect class="pcb-pad" fill="rgb(200, 52, 52)" x="410" y="222.5" width="15" height="15" data-layer="top"/><rect class="pcb-pad" fill="rgb(200, 52, 52)" x="385" y="362.5" width="15" height="15" data-layer="top"/><rect class="pcb-pad" fill="rgb(200, 52, 52)" x="410" y="362.5" width="15" height="15" data-layer="top"/><rect class="pcb-pad" fill="rgb(200, 52, 52)" x="415" y="267.5" width="15" height="15" data-layer="top"/><rect class="pcb-pad" fill="rgb(200, 52, 52)" x="440" y="267.5" width="15" height="15" data-layer="top"/><rect class="pcb-pad" fill="rgb(200, 52, 52)" x="415" y="317.5" width="15" height="15" data-layer="top"/><rect class="pcb-pad" fill="rgb(200, 52, 52)" x="440" y="317.5" width="15" height="15" data-layer="top"/><rect class="pcb-pad" fill="rgb(200, 52, 52)" x="257.5" y="252.5" width="15" height="15" data-layer="top"/><rect class="pcb-pad" fill="rgb(200, 52, 52)" x="282.5" y="252.5" width="15" height="15" data-layer="top"/><rect class="pcb-pad" fill="rgb(200, 52, 52)" x="497.5" y="137.5" width="15" height="15" data-layer="top"/><rect class="pcb-pad" fill="rgb(200, 52, 52)" x="522.5" y="137.5" width="15" height="15" data-layer="top"/><rect class="pcb-pad" fill="rgb(200, 52, 52)" x="520" y="132.5" width="27.500000000000004" height="25" data-layer="top"/><rect class="pcb-pad" fill="rgb(200, 52, 52)" x="562.5" y="132.5" width="27.500000000000004" height="25" data-layer="top"/><path class="pcb-silkscreen pcb-silkscreen-top" d="M 375 477.5 L 337.5 477.5 L 337.5 512.5 L 375 512.5" fill="none" stroke="#f2eda1" stroke-width="2.5" stroke-linecap="round" stroke-linejoin="round" data-pcb-component-id="pcb_component_3" data-pcb-silkscreen-path-id="pcb_silkscreen_path_0"/><path class="pcb-silkscreen pcb-silkscreen-top" d="M 450 477.5 L 412.5 477.5 L 412.5 512.5 L 450 512.5" fill="none" stroke="#f2eda1" stroke-width="2.5" stroke-linecap="round" stroke-linejoin="round" data-pcb-component-id="pcb_component_4" data-pcb-silkscreen-path-id="pcb_silkscreen_path_1"/><path class="pcb-silkscreen pcb-silkscreen-top" d="M 385 162.5 L 347.5 162.5 L 347.5 197.5 L 385 197.5" fill="none" stroke="#f2eda1" stroke-width="2.5" stroke-linecap="round" stroke-linejoin="round" data-pcb-component-id="pcb_component_6" data-pcb-silkscreen-path-id="pcb_silkscreen_path_2"/><path class="pcb-silkscreen pcb-silkscreen-top" d="M 457.5 162.5 L 420 162.5 L 420 197.5 L 457.5 197.5" fill="none" stroke="#f2eda1" stroke-width="2.5" stroke-linecap="round" stroke-linejoin="round" data-pcb-component-id="pcb_component_7" data-pcb-silkscreen-path-id="pcb_silkscreen_path_3"/><path class="pcb-silkscreen pcb-silkscreen-top" d="M 317.5 262.5 L 280 262.5 L 280 297.5 L 317.5 297.5" fill="none" stroke="#f2eda1" stroke-width="2.5" stroke-linecap="round" stroke-linejoin="round" data-pcb-component-id="pcb_component_8" data-pcb-silkscreen-path-id="pcb_silkscreen_path_4"/><path class="pcb-silkscreen pcb-silkscreen-top" d="M 427.5 192.5 L 390 192.5 L 390 227.5 L 427.5 227.5" fill="none" stroke="#f2eda1" stroke-width="2.5" stroke-linecap="round" stroke-linejoin="round" data-pcb-component-id="pcb_component_9" data-pcb-silkscreen-path-id="pcb_silkscreen_path_5"/><path class="pcb-silkscreen pcb-silkscreen-top" d="M 367.5 92.50000000000003 L 330 92.50000000000003 L 330 127.5 L 367.5 127.5" fill="none" stroke="#f2eda1" stroke-width="2.5" stroke-linecap="round" stroke-linejoin="round" data-pcb-component-id="pcb_component_11" data-pcb-silkscreen-path-id="pcb_silkscreen_path_6"/><path class="pcb-silkscreen pcb-silkscreen-top" d="M 307.5 92.50000000000003 L 270 92.50000000000003 L 270 127.5 L 307.5 127.5" fill="none" stroke="#f2eda1" stroke-width="2.5" stroke-linecap="round" stroke-linejoin="round" data-pcb-component-id="pcb_component_12" data-pcb-silkscreen-path-id="pcb_silkscreen_path_7"/><path class="pcb-silkscreen pcb-silkscreen-top" d="M 507.5 387.5 L 470 387.5 L 470 422.5 L 507.5 422.5" fill="none" stroke="#f2eda1" stroke-width="2.5" stroke-linecap="round" stroke-linejoin="round" data-pcb-component-id="pcb_component_14" data-pcb-silkscreen-path-id="pcb_silkscreen_path_8"/><path class="pcb-silkscreen pcb-silkscreen-top" d="M 450 387.5 L 412.5 387.5 L 412.5 422.5 L 450 422.5" fill="none" stroke="#f2eda1" stroke-width="2.5" stroke-linecap="round" stroke-linejoin="round" data-pcb-component-id="pcb_component_15" data-pcb-silkscreen-path-id="pcb_silkscreen_path_9"/><path class="pcb-silkscreen pcb-silkscreen-top" d="M 375 237.5 L 337.5 237.5 L 337.5 272.5 L 375 272.5" fill="none" stroke="#f2eda1" stroke-width="2.5" stroke-linecap="round" stroke-linejoin="round" data-pcb-component-id="pcb_component_16" data-pcb-silkscreen-path-id="pcb_silkscreen_path_10"/><path class="pcb-silkscreen pcb-silkscreen-top" d="M 375 322.5 L 337.5 322.5 L 337.5 357.5 L 375 357.5" fill="none" stroke="#f2eda1" stroke-width="2.5" stroke-linecap="round" stroke-linejoin="round" data-pcb-component-id="pcb_component_17" data-pcb-silkscreen-path-id="pcb_silkscreen_path_11"/><path class="pcb-silkscreen pcb-silkscreen-top" d="M 425 237.5 L 387.5 237.5 L 387.5 272.5 L 425 272.5" fill="none" stroke="#f2eda1" stroke-width="2.5" stroke-linecap="round" stroke-linejoin="round" data-pcb-component-id="pcb_component_18" data-pcb-silkscreen-path-id="pcb_silkscreen_path_12"/><path class="pcb-silkscreen pcb-silkscreen-top" d="M 425 327.5 L 387.5 327.5 L 387.5 362.5 L 425 362.5" fill="none" stroke="#f2eda1" stroke-width="2.5" stroke-linecap="round" stroke-linejoin="round" data-pcb-component-id="pcb_component_19" data-pcb-silkscreen-path-id="pcb_silkscreen_path_13"/><path class="pcb-silkscreen pcb-silkscreen-top" d="M 397.5 277.5 L 360 277.5 L 360 312.5 L 397.5 312.5" fill="none" stroke="#f2eda1" stroke-width="2.5" stroke-linecap="round" stroke-linejoin="round" data-pcb-component-id="pcb_component_20" data-pcb-silkscreen-path-id="pcb_silkscreen_path_14"/><path class="pcb-silkscreen pcb-silkscreen-top" d="M 417.5 212.5 L 380 212.5 L 380 247.5 L 417.5 247.5" fill="none" stroke="#f2eda1" stroke-width="2.5" stroke-linecap="round" stroke-linejoin="round" data-pcb-component-id="pcb_component_21" data-pcb-silkscreen-path-id="pcb_silkscreen_path_15"/><path class="pcb-silkscreen pcb-silkscreen-top" d="M 417.5 352.5 L 380 352.5 L 380 387.5 L 417.5 387.5" fill="none" stroke="#f2eda1" stroke-width="2.5" stroke-linecap="round" stroke-linejoin="round" data-pcb-component-id="pcb_component_22" data-pcb-silkscreen-path-id="pcb_silkscreen_path_16"/><path class="pcb-silkscreen pcb-silkscreen-top" d="M 447.5 257.5 L 410 257.5 L 410 292.5 L 447.5 292.5" fill="none" stroke="#f2eda1" stroke-width="2.5" stroke-linecap="round" stroke-linejoin="round" data-pcb-component-id="pcb_component_23" data-pcb-silkscreen-path-id="pcb_silkscreen_path_17"/><path class="pcb-silkscreen pcb-silkscreen-top" d="M 447.5 307.5 L 410 307.5 L 410 342.5 L 447.5 342.5" fill="none" stroke="#f2eda1" stroke-width="2.5" stroke-linecap="round" stroke-linejoin="round" data-pcb-component-id="pcb_component_24" data-pcb-silkscreen-path-id="pcb_silkscreen_path_18"/><path class="pcb-silkscreen pcb-silkscreen-top" d="M 290 242.5 L 252.5 242.5 L 252.5 277.5 L 290 277.5" fill="none" stroke="#f2eda1" stroke-width="2.5" stroke-linecap="round" stroke-linejoin="round" data-pcb-component-id="pcb_component_25" data-pcb-silkscreen-path-id="pcb_silkscreen_path_19"/><path class="pcb-silkscreen pcb-silkscreen-top" d="M 530 127.5 L 492.5 127.5 L 492.5 162.5 L 530 162.5" fill="none" stroke="#f2eda1" stroke-width="2.5" stroke-linecap="round" stroke-linejoin="round" data-pcb-component-id="pcb_component_26" data-pcb-silkscreen-path-id="pcb_silkscreen_path_20"/><path class="pcb-silkscreen pcb-silkscreen-top" d="M 576.25 122.5 L 515 122.5 L 515 167.5 L 576.25 167.5" fill="none" stroke="#f2eda1" stroke-width="2.5" stroke-linecap="round" stroke-linejoin="round" data-pcb-component-id="pcb_component_27" data-pcb-silkscreen-path-id="pcb_silkscreen_path_21"/><text x="0" y="0" dx="0" dy="0" fill="#f2eda1" font-family="Arial, sans-serif" font-size="10" text-anchor="middle" dominant-baseline="central" transform="matrix(1,0,0,1,362.5,465)" class="pcb-silkscreen-text pcb-silkscreen-top" data-pcb-silkscreen-text-id="pcb_component_3" stroke="none">R2</text><text x="0" y="0" dx="0" dy="0" fill="#f2eda1" font-family="Arial, sans-serif" font-size="10" text-anchor="middle" dominant-baseline="central" transform="matrix(1,0,0,1,437.5,465)" class="pcb-silkscreen-text pcb-silkscreen-top" data-pcb-silkscreen-text-id="pcb_component_4" stroke="none">R3</text><text x="0" y="0" dx="0" dy="0" fill="#f2eda1" font-family="Arial, sans-serif" font-size="10" text-anchor="middle" dominant-baseline="central" transform="matrix(1,0,0,1,372.5,150)" class="pcb-silkscreen-text pcb-silkscreen-top" data-pcb-silkscreen-text-id="pcb_component_6" stroke="none">R1</text><text x="0" y="0" dx="0" dy="0" fill="#f2eda1" font-family="Arial, sans-serif" font-size="10" text-anchor="middle" dominant-baseline="central" transform="matrix(1,0,0,1,445,150)" class="pcb-silkscreen-text pcb-silkscreen-top" data-pcb-silkscreen-text-id="pcb_component_7" stroke="none">R5</text><text x="0" y="0" dx="0" dy="0" fill="#f2eda1" font-family="Arial, sans-serif" font-size="10" text-anchor="middle" dominant-baseline="central" transform="matrix(1,0,0,1,305,250)" class="pcb-silkscreen-text pcb-silkscreen-top" data-pcb-silkscreen-text-id="pcb_component_8" stroke="none">R11</text><text x="0" y="0" dx="0" dy="0" fill="#f2eda1" font-family="Arial, sans-serif" font-size="10" text-anchor="middle" dominant-baseline="central" transform="matrix(1,0,0,1,415,180)" class="pcb-silkscreen-text pcb-silkscreen-top" data-pcb-silkscreen-text-id="pcb_component_9" stroke="none">C15</text><text x="0" y="0" dx="0" dy="0" fill="#f2eda1" font-family="Arial, sans-serif" font-size="10" text-anchor="middle" dominant-baseline="central" transform="matrix(1,0,0,1,355,80.00000000000003)" class="pcb-silkscreen-text pcb-silkscreen-top" data-pcb-silkscreen-text-id="pcb_component_11" stroke="none">C1</text><text x="0" y="0" dx="0" dy="0" fill="#f2eda1" font-family="Arial, sans-serif" font-size="10" text-anchor="middle" dominant-baseline="central" transform="matrix(1,0,0,1,295,80.00000000000003)" class="pcb-silkscreen-text pcb-silkscreen-top" data-pcb-silkscreen-text-id="pcb_component_12" stroke="none">C2</text><text x="0" y="0" dx="0" dy="0" fill="#f2eda1" font-family="Arial, sans-serif" font-size="10" text-anchor="middle" dominant-baseline="central" transform="matrix(1,0,0,1,495,375)" class="pcb-silkscreen-text pcb-silkscreen-top" data-pcb-silkscreen-text-id="pcb_component_14" stroke="none">C3</text><text x="0" y="0" dx="0" dy="0" fill="#f2eda1" font-family="Arial, sans-serif" font-size="10" text-anchor="middle" dominant-baseline="central" transform="matrix(1,0,0,1,437.5,375)" class="pcb-silkscreen-text pcb-silkscreen-top" data-pcb-silkscreen-text-id="pcb_component_15" stroke="none">C4</text><text x="0" y="0" dx="0" dy="0" fill="#f2eda1" font-family="Arial, sans-serif" font-size="10" text-anchor="middle" dominant-baseline="central" transform="matrix(1,0,0,1,362.5,225)" class="pcb-silkscreen-text pcb-silkscreen-top" data-pcb-silkscreen-text-id="pcb_component_16" stroke="none">C5</text><text x="0" y="0" dx="0" dy="0" fill="#f2eda1" font-family="Arial, sans-serif" font-size="10" text-anchor="middle" dominant-baseline="central" transform="matrix(1,0,0,1,362.5,310)" class="pcb-silkscreen-text pcb-silkscreen-top" data-pcb-silkscreen-text-id="pcb_component_17" stroke="none">C6</text><text x="0" y="0" dx="0" dy="0" fill="#f2eda1" font-family="Arial, sans-serif" font-size="10" text-anchor="middle" dominant-baseline="central" transform="matrix(1,0,0,1,412.5,225)" class="pcb-silkscreen-text pcb-silkscreen-top" data-pcb-silkscreen-text-id="pcb_component_18" stroke="none">C8</text><text x="0" y="0" dx="0" dy="0" fill="#f2eda1" font-family="Arial, sans-serif" font-size="10" text-anchor="middle" dominant-baseline="central" transform="matrix(1,0,0,1,412.5,315)" class="pcb-silkscreen-text pcb-silkscreen-top" data-pcb-silkscreen-text-id="pcb_component_19" stroke="none">C9</text><text x="0" y="0" dx="0" dy="0" fill="#f2eda1" font-family="Arial, sans-serif" font-size="10" text-anchor="middle" dominant-baseline="central" transform="matrix(1,0,0,1,385,265)" class="pcb-silkscreen-text pcb-silkscreen-top" data-pcb-silkscreen-text-id="pcb_component_20" stroke="none">C10</text><text x="0" y="0" dx="0" dy="0" fill="#f2eda1" font-family="Arial, sans-serif" font-size="10" text-anchor="middle" dominant-baseline="central" transform="matrix(1,0,0,1,405,200)" class="pcb-silkscreen-text pcb-silkscreen-top" data-pcb-silkscreen-text-id="pcb_component_21" stroke="none">C11</text><text x="0" y="0" dx="0" dy="0" fill="#f2eda1" font-family="Arial, sans-serif" font-size="10" text-anchor="middle" dominant-baseline="central" transform="matrix(1,0,0,1,405,340)" class="pcb-silkscreen-text pcb-silkscreen-top" data-pcb-silkscreen-text-id="pcb_component_22" stroke="none">C12</text><text x="0" y="0" dx="0" dy="0" fill="#f2eda1" font-family="Arial, sans-serif" font-size="10" text-anchor="middle" dominant-baseline="central" transform="matrix(1,0,0,1,435,245)" class="pcb-silkscreen-text pcb-silkscreen-top" data-pcb-silkscreen-text-id="pcb_component_23" stroke="none">C13</text><text x="0" y="0" dx="0" dy="0" fill="#f2eda1" font-family="Arial, sans-serif" font-size="10" text-anchor="middle" dominant-baseline="central" transform="matrix(1,0,0,1,435,295)" class="pcb-silkscreen-text pcb-silkscreen-top" data-pcb-silkscreen-text-id="pcb_component_24" stroke="none">C14</text><text x="0" y="0" dx="0" dy="0" fill="#f2eda1" font-family="Arial, sans-serif" font-size="10" text-anchor="middle" dominant-baseline="central" transform="matrix(1,0,0,1,277.5,230)" class="pcb-silkscreen-text pcb-silkscreen-top" data-pcb-silkscreen-text-id="pcb_component_25" stroke="none">C20</text><text x="0" y="0" dx="0" dy="0" fill="#f2eda1" font-family="Arial, sans-serif" font-size="10" text-anchor="middle" dominant-baseline="central" transform="matrix(1,0,0,1,517.5,115)" class="pcb-silkscreen-text pcb-silkscreen-top" data-pcb-silkscreen-text-id="pcb_component_26" stroke="none">R12</text><text x="0" y="0" dx="0" dy="0" fill="#f2eda1" font-family="Arial, sans-serif" font-size="10" text-anchor="middle" dominant-baseline="central" transform="matrix(1,0,0,1,555,110)" class="pcb-silkscreen-text pcb-silkscreen-top" data-pcb-silkscreen-text-id="pcb_component_27" stroke="none">D5</text><g><circle class="pcb-hole-outer" fill="rgb(200, 52, 52)" cx="505" cy="25" r="70.25"/><circle class="pcb-hole-inner" fill="#FF26E2" cx="505" cy="25" r="47.75"/></g></svg>