<svg xmlns="http://www.w3.org/2000/svg" width="800" height="600" data-software-used-string="@tscircuit/core@0.0.1112"><style></style><rect class="boundary" x="0" y="0" fill="#000" width="800" height="600" data-type="pcb_background" data-pcb-layer="global"/><rect class="pcb-boundary" fill="none" stroke="#fff" stroke-width="0.3" x="125" y="25" width="550" height="550" data-type="pcb_boundary" data-pcb-layer="global"/><path class="pcb-board" d="M 125 575 L 675 575 L 675 25 L 125 25 Z" fill="none" stroke="rgba(255, 255, 255, 0.5)" stroke-width="2.5" data-type="pcb_board" data-pcb-layer="board"/><rect class="pcb-pad" fill="rgb(200, 52, 52)" x="262.5" y="150.625" width="15" height="11.25" data-type="pcb_smtpad" data-pcb-layer="top"/><rect class="pcb-pad" fill="rgb(200, 52, 52)" x="262.5" y="163.125" width="15" height="11.25" data-type="pcb_smtpad" data-pcb-layer="top"/><rect class="pcb-pad" fill="rgb(200, 52, 52)" x="262.5" y="175.625" width="15" height="11.25" data-type="pcb_smtpad" data-pcb-layer="top"/><rect class="pcb-pad" fill="rgb(200, 52, 52)" x="262.5" y="188.125" width="15" height="11.25" data-type="pcb_smtpad" data-pcb-layer="top"/><rect class="pcb-pad" fill="rgb(200, 52, 52)" x="262.5" y="200.625" width="15" height="11.25" data-type="pcb_smtpad" data-pcb-layer="top"/><rect class="pcb-pad" fill="rgb(200, 52, 52)" x="262.5" y="213.125" width="15" height="11.25" data-type="pcb_smtpad" data-pcb-layer="top"/><rect class="pcb-pad" fill="rgb(200, 52, 52)" x="262.5" y="225.625" width="15" height="11.25" data-type="pcb_smtpad" data-pcb-layer="top"/><rect class="pcb-pad" fill="rgb(200, 52, 52)" x="262.5" y="238.125" width="15" height="11.25" data-type="pcb_smtpad" data-pcb-layer="top"/><rect class="pcb-pad" fill="rgb(200, 52, 52)" x="262.5" y="250.625" width="15" height="11.25" data-type="pcb_smtpad" data-pcb-layer="top"/><rect class="pcb-pad" fill="rgb(200, 52, 52)" x="262.5" y="263.125" width="15" height="11.25" data-type="pcb_smtpad" data-pcb-layer="top"/><rect class="pcb-pad" fill="rgb(200, 52, 52)" x="262.5" y="275.625" width="15" height="11.25" data-type="pcb_smtpad" data-pcb-layer="top"/><rect class="pcb-pad" fill="rgb(200, 52, 52)" x="262.5" y="288.125" width="15" height="11.25" data-type="pcb_smtpad" data-pcb-layer="top"/><rect class="pcb-pad" fill="rgb(200, 52, 52)" x="262.5" y="300.625" width="15" height="11.25" data-type="pcb_smtpad" data-pcb-layer="top"/><rect class="pcb-pad" fill="rgb(200, 52, 52)" x="262.5" y="313.125" width="15" height="11.25" data-type="pcb_smtpad" data-pcb-layer="top"/><rect class="pcb-pad" fill="rgb(200, 52, 52)" x="262.5" y="325.625" width="15" height="11.25" data-type="pcb_smtpad" data-pcb-layer="top"/><rect class="pcb-pad" fill="rgb(200, 52, 52)" x="262.5" y="338.125" width="15" height="11.25" data-type="pcb_smtpad" data-pcb-layer="top"/><rect class="pcb-pad" fill="rgb(200, 52, 52)" x="300.625" y="372.5" width="11.25" height="15" data-type="pcb_smtpad" data-pcb-layer="top"/><rect class="pcb-pad" fill="rgb(200, 52, 52)" x="313.125" y="372.5" width="11.25" height="15" data-type="pcb_smtpad" data-pcb-layer="top"/><rect class="pcb-pad" fill="rgb(200, 52, 52)" x="325.625" y="372.5" width="11.25" height="15" data-type="pcb_smtpad" data-pcb-layer="top"/><rect class="pcb-pad" fill="rgb(200, 52, 52)" x="338.125" y="372.5" width="11.25" height="15" data-type="pcb_smtpad" data-pcb-layer="top"/><rect class="pcb-pad" fill="rgb(200, 52, 52)" x="350.625" y="372.5" width="11.25" height="15" data-type="pcb_smtpad" data-pcb-layer="top"/><rect class="pcb-pad" fill="rgb(200, 52, 52)" x="363.125" y="372.5" width="11.25" height="15" data-type="pcb_smtpad" data-pcb-layer="top"/><rect class="pcb-pad" fill="rgb(200, 52, 52)" x="375.625" y="372.5" width="11.25" height="15" data-type="pcb_smtpad" data-pcb-layer="top"/><rect class="pcb-pad" fill="rgb(200, 52, 52)" x="388.125" y="372.5" width="11.25" height="15" data-type="pcb_smtpad" data-pcb-layer="top"/><rect class="pcb-pad" fill="rgb(200, 52, 52)" x="400.625" y="372.5" width="11.25" height="15" data-type="pcb_smtpad" data-pcb-layer="top"/><rect class="pcb-pad" fill="rgb(200, 52, 52)" x="413.125" y="372.5" width="11.25" height="15" data-type="pcb_smtpad" data-pcb-layer="top"/><rect class="pcb-pad" fill="rgb(200, 52, 52)" x="425.625" y="372.5" width="11.25" height="15" data-type="pcb_smtpad" data-pcb-layer="top"/><rect class="pcb-pad" fill="rgb(200, 52, 52)" x="438.125" y="372.5" width="11.25" height="15" data-type="pcb_smtpad" data-pcb-layer="top"/><rect class="pcb-pad" fill="rgb(200, 52, 52)" x="450.625" y="372.5" width="11.25" height="15" data-type="pcb_smtpad" data-pcb-layer="top"/><rect class="pcb-pad" fill="rgb(200, 52, 52)" x="463.125" y="372.5" width="11.25" height="15" data-type="pcb_smtpad" data-pcb-layer="top"/><rect class="pcb-pad" fill="rgb(200, 52, 52)" x="475.625" y="372.5" width="11.25" height="15" data-type="pcb_smtpad" data-pcb-layer="top"/><rect class="pcb-pad" fill="rgb(200, 52, 52)" x="488.125" y="372.5" width="11.25" height="15" data-type="pcb_smtpad" data-pcb-layer="top"/><rect class="pcb-pad" fill="rgb(200, 52, 52)" x="522.5" y="338.125" width="15" height="11.25" data-type="pcb_smtpad" data-pcb-layer="top"/><rect class="pcb-pad" fill="rgb(200, 52, 52)" x="522.5" y="325.625" width="15" height="11.25" data-type="pcb_smtpad" data-pcb-layer="top"/><rect class="pcb-pad" fill="rgb(200, 52, 52)" x="522.5" y="313.125" width="15" height="11.25" data-type="pcb_smtpad" data-pcb-layer="top"/><rect class="pcb-pad" fill="rgb(200, 52, 52)" x="522.5" y="300.625" width="15" height="11.25" data-type="pcb_smtpad" data-pcb-layer="top"/><rect class="pcb-pad" fill="rgb(200, 52, 52)" x="522.5" y="288.125" width="15" height="11.25" data-type="pcb_smtpad" data-pcb-layer="top"/><rect class="pcb-pad" fill="rgb(200, 52, 52)" x="522.5" y="275.625" width="15" height="11.25" data-type="pcb_smtpad" data-pcb-layer="top"/><rect class="pcb-pad" fill="rgb(200, 52, 52)" x="522.5" y="263.125" width="15" height="11.25" data-type="pcb_smtpad" data-pcb-layer="top"/><rect class="pcb-pad" fill="rgb(200, 52, 52)" x="522.5" y="250.625" width="15" height="11.25" data-type="pcb_smtpad" data-pcb-layer="top"/><rect class="pcb-pad" fill="rgb(200, 52, 52)" x="522.5" y="238.125" width="15" height="11.25" data-type="pcb_smtpad" data-pcb-layer="top"/><rect class="pcb-pad" fill="rgb(200, 52, 52)" x="522.5" y="225.625" width="15" height="11.25" data-type="pcb_smtpad" data-pcb-layer="top"/><rect class="pcb-pad" fill="rgb(200, 52, 52)" x="522.5" y="213.125" width="15" height="11.25" data-type="pcb_smtpad" data-pcb-layer="top"/><rect class="pcb-pad" fill="rgb(200, 52, 52)" x="522.5" y="200.625" width="15" height="11.25" data-type="pcb_smtpad" data-pcb-layer="top"/><rect class="pcb-pad" fill="rgb(200, 52, 52)" x="522.5" y="188.125" width="15" height="11.25" data-type="pcb_smtpad" data-pcb-layer="top"/><rect class="pcb-pad" fill="rgb(200, 52, 52)" x="522.5" y="175.625" width="15" height="11.25" data-type="pcb_smtpad" data-pcb-layer="top"/><rect class="pcb-pad" fill="rgb(200, 52, 52)" x="522.5" y="163.125" width="15" height="11.25" data-type="pcb_smtpad" data-pcb-layer="top"/><rect class="pcb-pad" fill="rgb(200, 52, 52)" x="522.5" y="150.625" width="15" height="11.25" data-type="pcb_smtpad" data-pcb-layer="top"/><rect class="pcb-pad" fill="rgb(200, 52, 52)" x="488.125" y="112.5" width="11.25" height="15" data-type="pcb_smtpad" data-pcb-layer="top"/><rect class="pcb-pad" fill="rgb(200, 52, 52)" x="475.625" y="112.5" width="11.25" height="15" data-type="pcb_smtpad" data-pcb-layer="top"/><rect class="pcb-pad" fill="rgb(200, 52, 52)" x="463.125" y="112.5" width="11.25" height="15" data-type="pcb_smtpad" data-pcb-layer="top"/><rect class="pcb-pad" fill="rgb(200, 52, 52)" x="450.625" y="112.5" width="11.25" height="15" data-type="pcb_smtpad" data-pcb-layer="top"/><rect class="pcb-pad" fill="rgb(200, 52, 52)" x="438.125" y="112.5" width="11.25" height="15" data-type="pcb_smtpad" data-pcb-layer="top"/><rect class="pcb-pad" fill="rgb(200, 52, 52)" x="425.625" y="112.5" width="11.25" height="15" data-type="pcb_smtpad" data-pcb-layer="top"/><rect class="pcb-pad" fill="rgb(200, 52, 52)" x="413.125" y="112.5" width="11.25" height="15" data-type="pcb_smtpad" data-pcb-layer="top"/><rect class="pcb-pad" fill="rgb(200, 52, 52)" x="400.625" y="112.5" width="11.25" height="15" data-type="pcb_smtpad" data-pcb-layer="top"/><rect class="pcb-pad" fill="rgb(200, 52, 52)" x="388.125" y="112.5" width="11.25" height="15" data-type="pcb_smtpad" data-pcb-layer="top"/><rect class="pcb-pad" fill="rgb(200, 52, 52)" x="375.625" y="112.5" width="11.25" height="15" data-type="pcb_smtpad" data-pcb-layer="top"/><rect class="pcb-pad" fill="rgb(200, 52, 52)" x="363.125" y="112.5" width="11.25" height="15" data-type="pcb_smtpad" data-pcb-layer="top"/><rect class="pcb-pad" fill="rgb(200, 52, 52)" x="350.625" y="112.5" width="11.25" height="15" data-type="pcb_smtpad" data-pcb-layer="top"/><rect class="pcb-pad" fill="rgb(200, 52, 52)" x="338.125" y="112.5" width="11.25" height="15" data-type="pcb_smtpad" data-pcb-layer="top"/><rect class="pcb-pad" fill="rgb(200, 52, 52)" x="325.625" y="112.5" width="11.25" height="15" data-type="pcb_smtpad" data-pcb-layer="top"/><rect class="pcb-pad" fill="rgb(200, 52, 52)" x="313.125" y="112.5" width="11.25" height="15" data-type="pcb_smtpad" data-pcb-layer="top"/><rect class="pcb-pad" fill="rgb(200, 52, 52)" x="300.625" y="112.5" width="11.25" height="15" data-type="pcb_smtpad" data-pcb-layer="top"/><rect class="pcb-pad" fill="rgb(200, 52, 52)" x="476.25" y="369.875" width="25" height="15" data-type="pcb_smtpad" data-pcb-layer="top"/><rect class="pcb-pad" fill="rgb(200, 52, 52)" x="476.25" y="401.625" width="25" height="15" data-type="pcb_smtpad" data-pcb-layer="top"/><rect class="pcb-pad" fill="rgb(200, 52, 52)" x="476.25" y="433.375" width="25" height="15" data-type="pcb_smtpad" data-pcb-layer="top"/><rect class="pcb-pad" fill="rgb(200, 52, 52)" x="476.25" y="465.125" width="25" height="15" data-type="pcb_smtpad" data-pcb-layer="top"/><rect class="pcb-pad" fill="rgb(200, 52, 52)" x="548.75" y="465.125" width="25" height="15" data-type="pcb_smtpad" data-pcb-layer="top"/><rect class="pcb-pad" fill="rgb(200, 52, 52)" x="548.75" y="433.375" width="25" height="15" data-type="pcb_smtpad" data-pcb-layer="top"/><rect class="pcb-pad" fill="rgb(200, 52, 52)" x="548.75" y="401.625" width="25" height="15" data-type="pcb_smtpad" data-pcb-layer="top"/><rect class="pcb-pad" fill="rgb(200, 52, 52)" x="548.75" y="369.875" width="25" height="15" data-type="pcb_smtpad" data-pcb-layer="top"/><rect class="pcb-pad" fill="rgb(200, 52, 52)" x="230.5" y="192" width="13.5" height="16" data-type="pcb_smtpad" data-pcb-layer="top"/><rect class="pcb-pad" fill="rgb(200, 52, 52)" x="256" y="192" width="13.5" height="16" data-type="pcb_smtpad" data-pcb-layer="top"/><rect class="pcb-pad" fill="rgb(200, 52, 52)" x="230.5" y="142" width="13.5" height="16" data-type="pcb_smtpad" data-pcb-layer="top"/><rect class="pcb-pad" fill="rgb(200, 52, 52)" x="256" y="142" width="13.5" height="16" data-type="pcb_smtpad" data-pcb-layer="top"/><rect class="pcb-pad" fill="rgb(200, 52, 52)" x="230.5" y="317" width="13.5" height="16" data-type="pcb_smtpad" data-pcb-layer="top"/><rect class="pcb-pad" fill="rgb(200, 52, 52)" x="256" y="317" width="13.5" height="16" data-type="pcb_smtpad" data-pcb-layer="top"/><rect class="pcb-pad" fill="rgb(200, 52, 52)" x="230.5" y="367" width="13.5" height="16" data-type="pcb_smtpad" data-pcb-layer="top"/><rect class="pcb-pad" fill="rgb(200, 52, 52)" x="256" y="367" width="13.5" height="16" data-type="pcb_smtpad" data-pcb-layer="top"/><rect class="pcb-pad" fill="rgb(200, 52, 52)" x="429.625" y="68.75000000000003" width="33" height="15" data-type="pcb_smtpad" data-pcb-layer="top"/><rect class="pcb-pad" fill="rgb(200, 52, 52)" x="429.625" y="116.25" width="33" height="15" data-type="pcb_smtpad" data-pcb-layer="top"/><rect class="pcb-pad" fill="rgb(200, 52, 52)" x="487.25" y="92.5" width="33" height="15" data-type="pcb_smtpad" data-pcb-layer="top"/><rect class="pcb-pad" fill="rgb(200, 52, 52)" x="480.5" y="67" width="13.5" height="16" data-type="pcb_smtpad" data-pcb-layer="top"/><rect class="pcb-pad" fill="rgb(200, 52, 52)" x="506" y="67" width="13.5" height="16" data-type="pcb_smtpad" data-pcb-layer="top"/><rect class="pcb-pad" fill="rgb(200, 52, 52)" x="505.5" y="67" width="13.5" height="16" data-type="pcb_smtpad" data-pcb-layer="top"/><rect class="pcb-pad" fill="rgb(200, 52, 52)" x="531" y="67" width="13.5" height="16" data-type="pcb_smtpad" data-pcb-layer="top"/><rect class="pcb-pad" fill="rgb(200, 52, 52)" x="430.5" y="92" width="13.5" height="16" data-type="pcb_smtpad" data-pcb-layer="top"/><rect class="pcb-pad" fill="rgb(200, 52, 52)" x="456" y="92" width="13.5" height="16" data-type="pcb_smtpad" data-pcb-layer="top"/><rect class="pcb-pad" fill="rgb(200, 52, 52)" x="330.5" y="442" width="13.5" height="16" data-type="pcb_smtpad" data-pcb-layer="top"/><rect class="pcb-pad" fill="rgb(200, 52, 52)" x="356" y="442" width="13.5" height="16" data-type="pcb_smtpad" data-pcb-layer="top"/><rect class="pcb-pad" fill="rgb(200, 52, 52)" x="305.5" y="442" width="13.5" height="16" data-type="pcb_smtpad" data-pcb-layer="top"/><rect class="pcb-pad" fill="rgb(200, 52, 52)" x="331" y="442" width="13.5" height="16" data-type="pcb_smtpad" data-pcb-layer="top"/><rect class="pcb-pad" fill="rgb(200, 52, 52)" x="530.5" y="367" width="13.5" height="16" data-type="pcb_smtpad" data-pcb-layer="top"/><rect class="pcb-pad" fill="rgb(200, 52, 52)" x="556" y="367" width="13.5" height="16" data-type="pcb_smtpad" data-pcb-layer="top"/><rect class="pcb-pad" fill="rgb(200, 52, 52)" x="505.5" y="317" width="13.5" height="16" data-type="pcb_smtpad" data-pcb-layer="top"/><rect class="pcb-pad" fill="rgb(200, 52, 52)" x="531" y="317" width="13.5" height="16" data-type="pcb_smtpad" data-pcb-layer="top"/><rect class="pcb-pad" fill="rgb(200, 52, 52)" x="505.5" y="367" width="13.5" height="16" data-type="pcb_smtpad" data-pcb-layer="top"/><rect class="pcb-pad" fill="rgb(200, 52, 52)" x="531" y="367" width="13.5" height="16" data-type="pcb_smtpad" data-pcb-layer="top"/><rect class="pcb-pad" fill="rgb(200, 52, 52)" x="305.5" y="167" width="13.5" height="16" data-type="pcb_smtpad" data-pcb-layer="top"/><rect class="pcb-pad" fill="rgb(200, 52, 52)" x="331" y="167" width="13.5" height="16" data-type="pcb_smtpad" data-pcb-layer="top"/><rect class="pcb-pad" fill="rgb(200, 52, 52)" x="305.5" y="217" width="13.5" height="16" data-type="pcb_smtpad" data-pcb-layer="top"/><rect class="pcb-pad" fill="rgb(200, 52, 52)" x="331" y="217" width="13.5" height="16" data-type="pcb_smtpad" data-pcb-layer="top"/><rect class="pcb-pad" fill="rgb(200, 52, 52)" x="305.5" y="267" width="13.5" height="16" data-type="pcb_smtpad" data-pcb-layer="top"/><rect class="pcb-pad" fill="rgb(200, 52, 52)" x="331" y="267" width="13.5" height="16" data-type="pcb_smtpad" data-pcb-layer="top"/><rect class="pcb-pad" fill="rgb(200, 52, 52)" x="455.5" y="167" width="13.5" height="16" data-type="pcb_smtpad" data-pcb-layer="top"/><rect class="pcb-pad" fill="rgb(200, 52, 52)" x="481" y="167" width="13.5" height="16" data-type="pcb_smtpad" data-pcb-layer="top"/><rect class="pcb-pad" fill="rgb(200, 52, 52)" x="455.5" y="217" width="13.5" height="16" data-type="pcb_smtpad" data-pcb-layer="top"/><rect class="pcb-pad" fill="rgb(200, 52, 52)" x="481" y="217" width="13.5" height="16" data-type="pcb_smtpad" data-pcb-layer="top"/><rect class="pcb-pad" fill="rgb(200, 52, 52)" x="455.5" y="267" width="13.5" height="16" data-type="pcb_smtpad" data-pcb-layer="top"/><rect class="pcb-pad" fill="rgb(200, 52, 52)" x="481" y="267" width="13.5" height="16" data-type="pcb_smtpad" data-pcb-layer="top"/><rect class="pcb-pad" fill="rgb(200, 52, 52)" x="305.5" y="317" width="13.5" height="16" data-type="pcb_smtpad" data-pcb-layer="top"/><rect class="pcb-pad" fill="rgb(200, 52, 52)" x="331" y="317" width="13.5" height="16" data-type="pcb_smtpad" data-pcb-layer="top"/><rect class="pcb-pad" fill="rgb(200, 52, 52)" x="305.5" y="367" width="13.5" height="16" data-type="pcb_smtpad" data-pcb-layer="top"/><rect class="pcb-pad" fill="rgb(200, 52, 52)" x="331" y="367" width="13.5" height="16" data-type="pcb_smtpad" data-pcb-layer="top"/><rect class="pcb-pad" fill="rgb(200, 52, 52)" x="455.5" y="317" width="13.5" height="16" data-type="pcb_smtpad" data-pcb-layer="top"/><rect class="pcb-pad" fill="rgb(200, 52, 52)" x="481" y="317" width="13.5" height="16" data-type="pcb_smtpad" data-pcb-layer="top"/><rect class="pcb-pad" fill="rgb(200, 52, 52)" x="455.5" y="367" width="13.5" height="16" data-type="pcb_smtpad" data-pcb-layer="top"/><rect class="pcb-pad" fill="rgb(200, 52, 52)" x="481" y="367" width="13.5" height="16" data-type="pcb_smtpad" data-pcb-layer="top"/><path class="pcb-silkscreen pcb-silkscreen-top" d="M 297.5 125 L 275 125 L 275 147.5" fill="none" stroke="#f2eda1" stroke-width="2.5" stroke-linecap="round" stroke-linejoin="round" data-pcb-component-id="pcb_component_0" data-pcb-silkscreen-path-id="pcb_silkscreen_path_0" data-type="pcb_silkscreen_path" data-pcb-layer="top"/><path class="pcb-silkscreen pcb-silkscreen-top" d="M 262.5 125.625 L 267.5 130.625 L 272.5 125.625 L 262.5 125.625 Z" fill="none" stroke="#f2eda1" stroke-width="2.5" stroke-linecap="round" stroke-linejoin="round" data-pcb-component-id="pcb_component_0" data-pcb-silkscreen-path-id="pcb_silkscreen_path_1" data-type="pcb_silkscreen_path" data-pcb-layer="top"/><path class="pcb-silkscreen pcb-silkscreen-top" d="M 297.5 375 L 275 375 L 275 352.5" fill="none" stroke="#f2eda1" stroke-width="2.5" stroke-linecap="round" stroke-linejoin="round" data-pcb-component-id="pcb_component_0" data-pcb-silkscreen-path-id="pcb_silkscreen_path_2" data-type="pcb_silkscreen_path" data-pcb-layer="top"/><path class="pcb-silkscreen pcb-silkscreen-top" d="M 502.5 375 L 525 375 L 525 352.5" fill="none" stroke="#f2eda1" stroke-width="2.5" stroke-linecap="round" stroke-linejoin="round" data-pcb-component-id="pcb_component_0" data-pcb-silkscreen-path-id="pcb_silkscreen_path_3" data-type="pcb_silkscreen_path" data-pcb-layer="top"/><path class="pcb-silkscreen pcb-silkscreen-top" d="M 502.5 125 L 525 125 L 525 147.5" fill="none" stroke="#f2eda1" stroke-width="2.5" stroke-linecap="round" stroke-linejoin="round" data-pcb-component-id="pcb_component_0" data-pcb-silkscreen-path-id="pcb_silkscreen_path_4" data-type="pcb_silkscreen_path" data-pcb-layer="top"/><text x="0" y="0" dx="0" dy="0" fill="#f2eda1" font-family="Arial, sans-serif" font-size="12.5" text-anchor="middle" dominant-baseline="central" transform="matrix(1,0,0,1,400,107)" class="pcb-silkscreen-text pcb-silkscreen-top" data-pcb-silkscreen-text-id="pcb_component_0" stroke="none" data-type="pcb_silkscreen_text" data-pcb-layer="top">U1</text><path class="pcb-silkscreen pcb-silkscreen-top" d="M 503.75 488.0625 L 503.75 361.9375 L 517.9166666666666 361.9375 L 518.4558533113784 364.64817431258604 L 519.9913269665954 366.9461730334047 L 522.2893256874139 368.4816466886216 L 525 369.0208333333333 L 527.7106743125861 368.4816466886216 L 530.0086730334046 366.9461730334047 L 531.5441466886216 364.64817431258604 L 532.0833333333334 361.9375 L 546.25 361.9375 L 546.25 488.0625 L 503.75 488.0625 Z" fill="none" stroke="#f2eda1" stroke-width="2.5" stroke-linecap="round" stroke-linejoin="round" data-pcb-component-id="pcb_component_1" data-pcb-silkscreen-path-id="pcb_silkscreen_path_5" data-type="pcb_silkscreen_path" data-pcb-layer="top"/><text x="0" y="0" dx="0" dy="0" fill="#f2eda1" font-family="Arial, sans-serif" font-size="15.510416666666666" text-anchor="middle" dominant-baseline="central" transform="matrix(1,0,0,1,525,351.9375)" class="pcb-silkscreen-text pcb-silkscreen-top" data-pcb-silkscreen-text-id="pcb_component_1" stroke="none" data-type="pcb_silkscreen_text" data-pcb-layer="top">U2</text><path class="pcb-silkscreen pcb-silkscreen-top" d="M 262.75 182 L 225.5 182 L 225.5 218 L 262.75 218" fill="none" stroke="#f2eda1" stroke-width="2.5" stroke-linecap="round" stroke-linejoin="round" data-pcb-component-id="pcb_component_2" data-pcb-silkscreen-path-id="pcb_silkscreen_path_6" data-type="pcb_silkscreen_path" data-pcb-layer="top"/><text x="0" y="0" dx="0" dy="0" fill="#f2eda1" font-family="Arial, sans-serif" font-size="10" text-anchor="middle" dominant-baseline="central" transform="matrix(1,0,0,1,250,169.5)" class="pcb-silkscreen-text pcb-silkscreen-top" data-pcb-silkscreen-text-id="pcb_component_2" stroke="none" data-type="pcb_silkscreen_text" data-pcb-layer="top">C1</text><path class="pcb-silkscreen pcb-silkscreen-top" d="M 262.75 132 L 225.5 132 L 225.5 168 L 262.75 168" fill="none" stroke="#f2eda1" stroke-width="2.5" stroke-linecap="round" stroke-linejoin="round" data-pcb-component-id="pcb_component_3" data-pcb-silkscreen-path-id="pcb_silkscreen_path_7" data-type="pcb_silkscreen_path" data-pcb-layer="top"/><text x="0" y="0" dx="0" dy="0" fill="#f2eda1" font-family="Arial, sans-serif" font-size="10" text-anchor="middle" dominant-baseline="central" transform="matrix(1,0,0,1,250,119.5)" class="pcb-silkscreen-text pcb-silkscreen-top" data-pcb-silkscreen-text-id="pcb_component_3" stroke="none" data-type="pcb_silkscreen_text" data-pcb-layer="top">C2</text><path class="pcb-silkscreen pcb-silkscreen-top" d="M 262.75 307 L 225.5 307 L 225.5 343 L 262.75 343" fill="none" stroke="#f2eda1" stroke-width="2.5" stroke-linecap="round" stroke-linejoin="round" data-pcb-component-id="pcb_component_4" data-pcb-silkscreen-path-id="pcb_silkscreen_path_8" data-type="pcb_silkscreen_path" data-pcb-layer="top"/><text x="0" y="0" dx="0" dy="0" fill="#f2eda1" font-family="Arial, sans-serif" font-size="10" text-anchor="middle" dominant-baseline="central" transform="matrix(1,0,0,1,250,294.5)" class="pcb-silkscreen-text pcb-silkscreen-top" data-pcb-silkscreen-text-id="pcb_component_4" stroke="none" data-type="pcb_silkscreen_text" data-pcb-layer="top">C3</text><path class="pcb-silkscreen pcb-silkscreen-top" d="M 262.75 357 L 225.5 357 L 225.5 393 L 262.75 393" fill="none" stroke="#f2eda1" stroke-width="2.5" stroke-linecap="round" stroke-linejoin="round" data-pcb-component-id="pcb_component_5" data-pcb-silkscreen-path-id="pcb_silkscreen_path_9" data-type="pcb_silkscreen_path" data-pcb-layer="top"/><text x="0" y="0" dx="0" dy="0" fill="#f2eda1" font-family="Arial, sans-serif" font-size="10" text-anchor="middle" dominant-baseline="central" transform="matrix(1,0,0,1,250,344.5)" class="pcb-silkscreen-text pcb-silkscreen-top" data-pcb-silkscreen-text-id="pcb_component_5" stroke="none" data-type="pcb_silkscreen_text" data-pcb-layer="top">C4</text><text x="0" y="0" dx="0" dy="0" fill="#f2eda1" font-family="Arial, sans-serif" font-size="12.5" text-anchor="middle" dominant-baseline="central" transform="matrix(1,0,0,1,475,50)" class="pcb-silkscreen-text pcb-silkscreen-top" data-pcb-silkscreen-text-id="pcb_component_6" stroke="none" data-type="pcb_silkscreen_text" data-pcb-layer="top">Q1</text><path class="pcb-silkscreen pcb-silkscreen-top" d="M 512.75 56.99999999999997 L 475.5 56.99999999999997 L 475.5 93.00000000000003 L 512.75 93.00000000000003" fill="none" stroke="#f2eda1" stroke-width="2.5" stroke-linecap="round" stroke-linejoin="round" data-pcb-component-id="pcb_component_7" data-pcb-silkscreen-path-id="pcb_silkscreen_path_10" data-type="pcb_silkscreen_path" data-pcb-layer="top"/><text x="0" y="0" dx="0" dy="0" fill="#f2eda1" font-family="Arial, sans-serif" font-size="10" text-anchor="middle" dominant-baseline="central" transform="matrix(1,0,0,1,500,44.49999999999997)" class="pcb-silkscreen-text pcb-silkscreen-top" data-pcb-silkscreen-text-id="pcb_component_7" stroke="none" data-type="pcb_silkscreen_text" data-pcb-layer="top">R1</text><path class="pcb-silkscreen pcb-silkscreen-top" d="M 537.75 56.99999999999997 L 500.5 56.99999999999997 L 500.5 93.00000000000003 L 537.75 93.00000000000003" fill="none" stroke="#f2eda1" stroke-width="2.5" stroke-linecap="round" stroke-linejoin="round" data-pcb-component-id="pcb_component_8" data-pcb-silkscreen-path-id="pcb_silkscreen_path_11" data-type="pcb_silkscreen_path" data-pcb-layer="top"/><text x="0" y="0" dx="0" dy="0" fill="#f2eda1" font-family="Arial, sans-serif" font-size="10" text-anchor="middle" dominant-baseline="central" transform="matrix(1,0,0,1,525,44.49999999999997)" class="pcb-silkscreen-text pcb-silkscreen-top" data-pcb-silkscreen-text-id="pcb_component_8" stroke="none" data-type="pcb_silkscreen_text" data-pcb-layer="top">R4</text><path class="pcb-silkscreen pcb-silkscreen-top" d="M 462.75 81.99999999999997 L 425.5 81.99999999999997 L 425.5 118 L 462.75 118" fill="none" stroke="#f2eda1" stroke-width="2.5" stroke-linecap="round" stroke-linejoin="round" data-pcb-component-id="pcb_component_9" data-pcb-silkscreen-path-id="pcb_silkscreen_path_12" data-type="pcb_silkscreen_path" data-pcb-layer="top"/><text x="0" y="0" dx="0" dy="0" fill="#f2eda1" font-family="Arial, sans-serif" font-size="10" text-anchor="middle" dominant-baseline="central" transform="matrix(1,0,0,1,450,69.49999999999997)" class="pcb-silkscreen-text pcb-silkscreen-top" data-pcb-silkscreen-text-id="pcb_component_9" stroke="none" data-type="pcb_silkscreen_text" data-pcb-layer="top">C15</text><path class="pcb-silkscreen pcb-silkscreen-top" d="M 362.75 432 L 325.5 432 L 325.5 468 L 362.75 468" fill="none" stroke="#f2eda1" stroke-width="2.5" stroke-linecap="round" stroke-linejoin="round" data-pcb-component-id="pcb_component_10" data-pcb-silkscreen-path-id="pcb_silkscreen_path_13" data-type="pcb_silkscreen_path" data-pcb-layer="top"/><text x="0" y="0" dx="0" dy="0" fill="#f2eda1" font-family="Arial, sans-serif" font-size="10" text-anchor="middle" dominant-baseline="central" transform="matrix(1,0,0,1,350,419.5)" class="pcb-silkscreen-text pcb-silkscreen-top" data-pcb-silkscreen-text-id="pcb_component_10" stroke="none" data-type="pcb_silkscreen_text" data-pcb-layer="top">R2</text><path class="pcb-silkscreen pcb-silkscreen-top" d="M 337.75 432 L 300.5 432 L 300.5 468 L 337.75 468" fill="none" stroke="#f2eda1" stroke-width="2.5" stroke-linecap="round" stroke-linejoin="round" data-pcb-component-id="pcb_component_11" data-pcb-silkscreen-path-id="pcb_silkscreen_path_14" data-type="pcb_silkscreen_path" data-pcb-layer="top"/><text x="0" y="0" dx="0" dy="0" fill="#f2eda1" font-family="Arial, sans-serif" font-size="10" text-anchor="middle" dominant-baseline="central" transform="matrix(1,0,0,1,325,419.5)" class="pcb-silkscreen-text pcb-silkscreen-top" data-pcb-silkscreen-text-id="pcb_component_11" stroke="none" data-type="pcb_silkscreen_text" data-pcb-layer="top">R3</text><path class="pcb-silkscreen pcb-silkscreen-top" d="M 562.75 357 L 525.5 357 L 525.5 393 L 562.75 393" fill="none" stroke="#f2eda1" stroke-width="2.5" stroke-linecap="round" stroke-linejoin="round" data-pcb-component-id="pcb_component_12" data-pcb-silkscreen-path-id="pcb_silkscreen_path_15" data-type="pcb_silkscreen_path" data-pcb-layer="top"/><text x="0" y="0" dx="0" dy="0" fill="#f2eda1" font-family="Arial, sans-serif" font-size="10" text-anchor="middle" dominant-baseline="central" transform="matrix(1,0,0,1,550,344.5)" class="pcb-silkscreen-text pcb-silkscreen-top" data-pcb-silkscreen-text-id="pcb_component_12" stroke="none" data-type="pcb_silkscreen_text" data-pcb-layer="top">R11</text><path class="pcb-silkscreen pcb-silkscreen-top" d="M 537.75 307 L 500.5 307 L 500.5 343 L 537.75 343" fill="none" stroke="#f2eda1" stroke-width="2.5" stroke-linecap="round" stroke-linejoin="round" data-pcb-component-id="pcb_component_13" data-pcb-silkscreen-path-id="pcb_silkscreen_path_16" data-type="pcb_silkscreen_path" data-pcb-layer="top"/><text x="0" y="0" dx="0" dy="0" fill="#f2eda1" font-family="Arial, sans-serif" font-size="10" text-anchor="middle" dominant-baseline="central" transform="matrix(1,0,0,1,525,294.5)" class="pcb-silkscreen-text pcb-silkscreen-top" data-pcb-silkscreen-text-id="pcb_component_13" stroke="none" data-type="pcb_silkscreen_text" data-pcb-layer="top">D5</text><path class="pcb-silkscreen pcb-silkscreen-top" d="M 537.75 357 L 500.5 357 L 500.5 393 L 537.75 393" fill="none" stroke="#f2eda1" stroke-width="2.5" stroke-linecap="round" stroke-linejoin="round" data-pcb-component-id="pcb_component_14" data-pcb-silkscreen-path-id="pcb_silkscreen_path_17" data-type="pcb_silkscreen_path" data-pcb-layer="top"/><text x="0" y="0" dx="0" dy="0" fill="#f2eda1" font-family="Arial, sans-serif" font-size="10" text-anchor="middle" dominant-baseline="central" transform="matrix(1,0,0,1,525,344.5)" class="pcb-silkscreen-text pcb-silkscreen-top" data-pcb-silkscreen-text-id="pcb_component_14" stroke="none" data-type="pcb_silkscreen_text" data-pcb-layer="top">R12</text><path class="pcb-silkscreen pcb-silkscreen-top" d="M 337.75 157 L 300.5 157 L 300.5 193 L 337.75 193" fill="none" stroke="#f2eda1" stroke-width="2.5" stroke-linecap="round" stroke-linejoin="round" data-pcb-component-id="pcb_component_15" data-pcb-silkscreen-path-id="pcb_silkscreen_path_18" data-type="pcb_silkscreen_path" data-pcb-layer="top"/><text x="0" y="0" dx="0" dy="0" fill="#f2eda1" font-family="Arial, sans-serif" font-size="10" text-anchor="middle" dominant-baseline="central" transform="matrix(1,0,0,1,325,144.5)" class="pcb-silkscreen-text pcb-silkscreen-top" data-pcb-silkscreen-text-id="pcb_component_15" stroke="none" data-type="pcb_silkscreen_text" data-pcb-layer="top">C5</text><path class="pcb-silkscreen pcb-silkscreen-top" d="M 337.75 207 L 300.5 207 L 300.5 243 L 337.75 243" fill="none" stroke="#f2eda1" stroke-width="2.5" stroke-linecap="round" stroke-linejoin="round" data-pcb-component-id="pcb_component_16" data-pcb-silkscreen-path-id="pcb_silkscreen_path_19" data-type="pcb_silkscreen_path" data-pcb-layer="top"/><text x="0" y="0" dx="0" dy="0" fill="#f2eda1" font-family="Arial, sans-serif" font-size="10" text-anchor="middle" dominant-baseline="central" transform="matrix(1,0,0,1,325,194.5)" class="pcb-silkscreen-text pcb-silkscreen-top" data-pcb-silkscreen-text-id="pcb_component_16" stroke="none" data-type="pcb_silkscreen_text" data-pcb-layer="top">C6</text><path class="pcb-silkscreen pcb-silkscreen-top" d="M 337.75 257 L 300.5 257 L 300.5 293 L 337.75 293" fill="none" stroke="#f2eda1" stroke-width="2.5" stroke-linecap="round" stroke-linejoin="round" data-pcb-component-id="pcb_component_17" data-pcb-silkscreen-path-id="pcb_silkscreen_path_20" data-type="pcb_silkscreen_path" data-pcb-layer="top"/><text x="0" y="0" dx="0" dy="0" fill="#f2eda1" font-family="Arial, sans-serif" font-size="10" text-anchor="middle" dominant-baseline="central" transform="matrix(1,0,0,1,325,244.5)" class="pcb-silkscreen-text pcb-silkscreen-top" data-pcb-silkscreen-text-id="pcb_component_17" stroke="none" data-type="pcb_silkscreen_text" data-pcb-layer="top">C7</text><path class="pcb-silkscreen pcb-silkscreen-top" d="M 487.75 157 L 450.5 157 L 450.5 193 L 487.75 193" fill="none" stroke="#f2eda1" stroke-width="2.5" stroke-linecap="round" stroke-linejoin="round" data-pcb-component-id="pcb_component_18" data-pcb-silkscreen-path-id="pcb_silkscreen_path_21" data-type="pcb_silkscreen_path" data-pcb-layer="top"/><text x="0" y="0" dx="0" dy="0" fill="#f2eda1" font-family="Arial, sans-serif" font-size="10" text-anchor="middle" dominant-baseline="central" transform="matrix(1,0,0,1,475,144.5)" class="pcb-silkscreen-text pcb-silkscreen-top" data-pcb-silkscreen-text-id="pcb_component_18" stroke="none" data-type="pcb_silkscreen_text" data-pcb-layer="top">C8</text><path class="pcb-silkscreen pcb-silkscreen-top" d="M 487.75 207 L 450.5 207 L 450.5 243 L 487.75 243" fill="none" stroke="#f2eda1" stroke-width="2.5" stroke-linecap="round" stroke-linejoin="round" data-pcb-component-id="pcb_component_19" data-pcb-silkscreen-path-id="pcb_silkscreen_path_22" data-type="pcb_silkscreen_path" data-pcb-layer="top"/><text x="0" y="0" dx="0" dy="0" fill="#f2eda1" font-family="Arial, sans-serif" font-size="10" text-anchor="middle" dominant-baseline="central" transform="matrix(1,0,0,1,475,194.5)" class="pcb-silkscreen-text pcb-silkscreen-top" data-pcb-silkscreen-text-id="pcb_component_19" stroke="none" data-type="pcb_silkscreen_text" data-pcb-layer="top">C9</text><path class="pcb-silkscreen pcb-silkscreen-top" d="M 487.75 257 L 450.5 257 L 450.5 293 L 487.75 293" fill="none" stroke="#f2eda1" stroke-width="2.5" stroke-linecap="round" stroke-linejoin="round" data-pcb-component-id="pcb_component_20" data-pcb-silkscreen-path-id="pcb_silkscreen_path_23" data-type="pcb_silkscreen_path" data-pcb-layer="top"/><text x="0" y="0" dx="0" dy="0" fill="#f2eda1" font-family="Arial, sans-serif" font-size="10" text-anchor="middle" dominant-baseline="central" transform="matrix(1,0,0,1,475,244.5)" class="pcb-silkscreen-text pcb-silkscreen-top" data-pcb-silkscreen-text-id="pcb_component_20" stroke="none" data-type="pcb_silkscreen_text" data-pcb-layer="top">C10</text><path class="pcb-silkscreen pcb-silkscreen-top" d="M 337.75 307 L 300.5 307 L 300.5 343 L 337.75 343" fill="none" stroke="#f2eda1" stroke-width="2.5" stroke-linecap="round" stroke-linejoin="round" data-pcb-component-id="pcb_component_21" data-pcb-silkscreen-path-id="pcb_silkscreen_path_24" data-type="pcb_silkscreen_path" data-pcb-layer="top"/><text x="0" y="0" dx="0" dy="0" fill="#f2eda1" font-family="Arial, sans-serif" font-size="10" text-anchor="middle" dominant-baseline="central" transform="matrix(1,0,0,1,325,294.5)" class="pcb-silkscreen-text pcb-silkscreen-top" data-pcb-silkscreen-text-id="pcb_component_21" stroke="none" data-type="pcb_silkscreen_text" data-pcb-layer="top">C11</text><path class="pcb-silkscreen pcb-silkscreen-top" d="M 337.75 357 L 300.5 357 L 300.5 393 L 337.75 393" fill="none" stroke="#f2eda1" stroke-width="2.5" stroke-linecap="round" stroke-linejoin="round" data-pcb-component-id="pcb_component_22" data-pcb-silkscreen-path-id="pcb_silkscreen_path_25" data-type="pcb_silkscreen_path" data-pcb-layer="top"/><text x="0" y="0" dx="0" dy="0" fill="#f2eda1" font-family="Arial, sans-serif" font-size="10" text-anchor="middle" dominant-baseline="central" transform="matrix(1,0,0,1,325,405.5)" class="pcb-silkscreen-text pcb-silkscreen-top" data-pcb-silkscreen-text-id="pcb_component_22" stroke="none" data-type="pcb_silkscreen_text" data-pcb-layer="top">C12</text><path class="pcb-silkscreen pcb-silkscreen-top" d="M 487.75 307 L 450.5 307 L 450.5 343 L 487.75 343" fill="none" stroke="#f2eda1" stroke-width="2.5" stroke-linecap="round" stroke-linejoin="round" data-pcb-component-id="pcb_component_23" data-pcb-silkscreen-path-id="pcb_silkscreen_path_26" data-type="pcb_silkscreen_path" data-pcb-layer="top"/><text x="0" y="0" dx="0" dy="0" fill="#f2eda1" font-family="Arial, sans-serif" font-size="10" text-anchor="middle" dominant-baseline="central" transform="matrix(1,0,0,1,475,294.5)" class="pcb-silkscreen-text pcb-silkscreen-top" data-pcb-silkscreen-text-id="pcb_component_23" stroke="none" data-type="pcb_silkscreen_text" data-pcb-layer="top">C13</text><path class="pcb-silkscreen pcb-silkscreen-top" d="M 487.75 357 L 450.5 357 L 450.5 393 L 487.75 393" fill="none" stroke="#f2eda1" stroke-width="2.5" stroke-linecap="round" stroke-linejoin="round" data-pcb-component-id="pcb_component_24" data-pcb-silkscreen-path-id="pcb_silkscreen_path_27" data-type="pcb_silkscreen_path" data-pcb-layer="top"/><text x="0" y="0" dx="0" dy="0" fill="#f2eda1" font-family="Arial, sans-serif" font-size="10" text-anchor="middle" dominant-baseline="central" transform="matrix(1,0,0,1,475,344.5)" class="pcb-silkscreen-text pcb-silkscreen-top" data-pcb-silkscreen-text-id="pcb_component_24" stroke="none" data-type="pcb_silkscreen_text" data-pcb-layer="top">C14</text><circle class="pcb-hole" cx="400" cy="75" r="25.624999999999996" fill="#FF26E2" data-type="pcb_hole" data-pcb-layer="drill"/></svg>