<svg xmlns="http://www.w3.org/2000/svg" width="800" height="600" data-software-used-string="@tscircuit/core@0.0.783"><style></style><rect class="boundary" x="0" y="0" fill="#000" width="800" height="600" data-type="pcb_background" data-pcb-layer="global"/><rect class="pcb-boundary" fill="none" stroke="#fff" stroke-width="0.3" x="125" y="25" width="550" height="550" data-type="pcb_boundary" data-pcb-layer="global"/><rect class="pcb-pad" fill="rgb(77, 127, 196)" x="597.5" y="282.375" width="25" height="15" data-type="pcb_smtpad" data-pcb-layer="bottom"/><rect class="pcb-pad" fill="rgb(77, 127, 196)" x="597.5" y="314.125" width="25" height="15" data-type="pcb_smtpad" data-pcb-layer="bottom"/><rect class="pcb-pad" fill="rgb(77, 127, 196)" x="597.5" y="345.875" width="25" height="15" data-type="pcb_smtpad" data-pcb-layer="bottom"/><rect class="pcb-pad" fill="rgb(77, 127, 196)" x="597.5" y="377.625" width="25" height="15" data-type="pcb_smtpad" data-pcb-layer="bottom"/><rect class="pcb-pad" fill="rgb(77, 127, 196)" x="490" y="377.625" width="25" height="15" data-type="pcb_smtpad" data-pcb-layer="bottom"/><rect class="pcb-pad" fill="rgb(77, 127, 196)" x="490" y="345.875" width="25" height="15" data-type="pcb_smtpad" data-pcb-layer="bottom"/><rect class="pcb-pad" fill="rgb(77, 127, 196)" x="490" y="314.125" width="25" height="15" data-type="pcb_smtpad" data-pcb-layer="bottom"/><rect class="pcb-pad" fill="rgb(77, 127, 196)" x="490" y="282.375" width="25" height="15" data-type="pcb_smtpad" data-pcb-layer="bottom"/><rect class="pcb-pad" fill="rgb(77, 127, 196)" x="571.75" y="161.25" width="13.5" height="16" data-type="pcb_smtpad" data-pcb-layer="bottom"/><rect class="pcb-pad" fill="rgb(77, 127, 196)" x="597.25" y="161.25" width="13.5" height="16" data-type="pcb_smtpad" data-pcb-layer="bottom"/><rect class="pcb-pad" fill="rgb(77, 127, 196)" x="538.75" y="214.7" width="20" height="19.1" data-type="pcb_smtpad" data-pcb-layer="bottom"/><rect class="pcb-pad" fill="rgb(77, 127, 196)" x="623.75" y="190.95" width="20" height="19.1" data-type="pcb_smtpad" data-pcb-layer="bottom"/><rect class="pcb-pad" fill="rgb(77, 127, 196)" x="623.75" y="238.45" width="20" height="19.1" data-type="pcb_smtpad" data-pcb-layer="bottom"/><rect class="pcb-pad" fill="rgb(77, 127, 196)" x="597.25" y="136.5" width="13.5" height="16" data-type="pcb_smtpad" data-pcb-layer="bottom"/><rect class="pcb-pad" fill="rgb(77, 127, 196)" x="571.75" y="136.5" width="13.5" height="16" data-type="pcb_smtpad" data-pcb-layer="bottom"/><rect class="pcb-pad" fill="rgb(77, 127, 196)" x="545.9" y="295.175" width="16" height="13.5" data-type="pcb_smtpad" data-pcb-layer="bottom"/><rect class="pcb-pad" fill="rgb(77, 127, 196)" x="545.9" y="269.675" width="16" height="13.5" data-type="pcb_smtpad" data-pcb-layer="bottom"/><rect class="pcb-pad" fill="rgb(77, 127, 196)" x="307.25" y="369.5" width="13.5" height="16" data-type="pcb_smtpad" data-pcb-layer="bottom"/><rect class="pcb-pad" fill="rgb(77, 127, 196)" x="332.75" y="369.5" width="13.5" height="16" data-type="pcb_smtpad" data-pcb-layer="bottom"/><rect class="pcb-pad" fill="rgb(77, 127, 196)" x="613.75" y="503.125" width="10" height="56.25" data-type="pcb_smtpad" data-pcb-layer="bottom"/><rect class="pcb-pad" fill="rgb(77, 127, 196)" x="602.5" y="503.125" width="10" height="56.25" data-type="pcb_smtpad" data-pcb-layer="bottom"/><rect class="pcb-pad" fill="rgb(77, 127, 196)" x="591.25" y="503.125" width="10" height="56.25" data-type="pcb_smtpad" data-pcb-layer="bottom"/><rect class="pcb-pad" fill="rgb(77, 127, 196)" x="580" y="503.125" width="10" height="56.25" data-type="pcb_smtpad" data-pcb-layer="bottom"/><rect class="pcb-pad" fill="rgb(77, 127, 196)" x="568.75" y="503.125" width="10" height="56.25" data-type="pcb_smtpad" data-pcb-layer="bottom"/><rect class="pcb-pad" fill="rgb(77, 127, 196)" x="557.5" y="503.125" width="10" height="56.25" data-type="pcb_smtpad" data-pcb-layer="bottom"/><rect class="pcb-pad" fill="rgb(77, 127, 196)" x="546.25" y="503.125" width="10" height="56.25" data-type="pcb_smtpad" data-pcb-layer="bottom"/><rect class="pcb-pad" fill="rgb(77, 127, 196)" x="535" y="503.125" width="10" height="56.25" data-type="pcb_smtpad" data-pcb-layer="bottom"/><rect class="pcb-pad" fill="rgb(77, 127, 196)" x="523.75" y="503.125" width="10" height="56.25" data-type="pcb_smtpad" data-pcb-layer="bottom"/><rect class="pcb-pad" fill="rgb(77, 127, 196)" x="512.5" y="503.125" width="10" height="56.25" data-type="pcb_smtpad" data-pcb-layer="bottom"/><rect class="pcb-pad" fill="rgb(77, 127, 196)" x="501.25" y="503.125" width="10" height="56.25" data-type="pcb_smtpad" data-pcb-layer="bottom"/><rect class="pcb-pad" fill="rgb(77, 127, 196)" x="490" y="503.125" width="10" height="56.25" data-type="pcb_smtpad" data-pcb-layer="bottom"/><rect class="pcb-pad" fill="rgb(77, 127, 196)" x="428.75" y="503.125" width="10" height="56.25" data-type="pcb_smtpad" data-pcb-layer="bottom"/><rect class="pcb-pad" fill="rgb(77, 127, 196)" x="417.5" y="503.125" width="10" height="56.25" data-type="pcb_smtpad" data-pcb-layer="bottom"/><rect class="pcb-pad" fill="rgb(77, 127, 196)" x="406.25" y="503.125" width="10" height="56.25" data-type="pcb_smtpad" data-pcb-layer="bottom"/><rect class="pcb-pad" fill="rgb(77, 127, 196)" x="395" y="503.125" width="10" height="56.25" data-type="pcb_smtpad" data-pcb-layer="bottom"/><rect class="pcb-pad" fill="rgb(77, 127, 196)" x="383.75" y="503.125" width="10" height="56.25" data-type="pcb_smtpad" data-pcb-layer="bottom"/><rect class="pcb-pad" fill="rgb(77, 127, 196)" x="372.5" y="503.125" width="10" height="56.25" data-type="pcb_smtpad" data-pcb-layer="bottom"/><rect class="pcb-pad" fill="rgb(77, 127, 196)" x="361.25" y="503.125" width="10" height="56.25" data-type="pcb_smtpad" data-pcb-layer="bottom"/><rect class="pcb-pad" fill="rgb(77, 127, 196)" x="350" y="503.125" width="10" height="56.25" data-type="pcb_smtpad" data-pcb-layer="bottom"/><rect class="pcb-pad" fill="rgb(77, 127, 196)" x="338.75" y="503.125" width="10" height="56.25" data-type="pcb_smtpad" data-pcb-layer="bottom"/><rect class="pcb-pad" fill="rgb(77, 127, 196)" x="327.5" y="503.125" width="10" height="56.25" data-type="pcb_smtpad" data-pcb-layer="bottom"/><rect class="pcb-pad" fill="rgb(77, 127, 196)" x="316.25" y="503.125" width="10" height="56.25" data-type="pcb_smtpad" data-pcb-layer="bottom"/><rect class="pcb-pad" fill="rgb(77, 127, 196)" x="305" y="503.125" width="10" height="56.25" data-type="pcb_smtpad" data-pcb-layer="bottom"/><rect class="pcb-pad" fill="rgb(77, 127, 196)" x="293.75" y="503.125" width="10" height="56.25" data-type="pcb_smtpad" data-pcb-layer="bottom"/><rect class="pcb-pad" fill="rgb(77, 127, 196)" x="282.5" y="503.125" width="10" height="56.25" data-type="pcb_smtpad" data-pcb-layer="bottom"/><rect class="pcb-pad" fill="rgb(77, 127, 196)" x="271.25" y="503.125" width="10" height="56.25" data-type="pcb_smtpad" data-pcb-layer="bottom"/><rect class="pcb-pad" fill="rgb(77, 127, 196)" x="260" y="503.125" width="10" height="56.25" data-type="pcb_smtpad" data-pcb-layer="bottom"/><rect class="pcb-pad" fill="rgb(77, 127, 196)" x="248.75" y="503.125" width="10" height="56.25" data-type="pcb_smtpad" data-pcb-layer="bottom"/><rect class="pcb-pad" fill="rgb(77, 127, 196)" x="237.49999999999997" y="503.125" width="10" height="56.25" data-type="pcb_smtpad" data-pcb-layer="bottom"/><rect class="pcb-pad" fill="rgb(77, 127, 196)" x="226.25" y="503.125" width="10" height="56.25" data-type="pcb_smtpad" data-pcb-layer="bottom"/><rect class="pcb-pad" fill="rgb(77, 127, 196)" x="214.99999999999997" y="503.125" width="10" height="56.25" data-type="pcb_smtpad" data-pcb-layer="bottom"/><rect class="pcb-pad" fill="rgb(77, 127, 196)" x="203.75" y="503.125" width="10" height="56.25" data-type="pcb_smtpad" data-pcb-layer="bottom"/><rect class="pcb-pad" fill="rgb(77, 127, 196)" x="192.5" y="503.125" width="10" height="56.25" data-type="pcb_smtpad" data-pcb-layer="bottom"/><rect class="pcb-pad" fill="rgb(77, 127, 196)" x="181.24999999999997" y="503.125" width="10" height="56.25" data-type="pcb_smtpad" data-pcb-layer="bottom"/><rect class="pcb-pad" fill="rgb(77, 127, 196)" x="170" y="503.125" width="10" height="56.25" data-type="pcb_smtpad" data-pcb-layer="bottom"/><path class="pcb-silkscreen pcb-silkscreen-bottom" d="M 595 400.5625 L 595 274.4375 L 569.1666666666666 274.4375 L 568.1834439616041 279.38049433471576 L 565.3834625903262 283.57096259032625 L 561.1929943347158 286.3709439616041 L 556.25 287.3541666666667 L 551.3070056652842 286.3709439616041 L 547.1165374096738 283.57096259032625 L 544.3165560383959 279.38049433471576 L 543.3333333333334 274.4375 L 517.5 274.4375 L 517.5 400.5625 L 595 400.5625 Z" fill="none" stroke="#5da9e9" stroke-width="2.5" stroke-linecap="round" stroke-linejoin="round" data-pcb-component-id="pcb_component_2" data-pcb-silkscreen-path-id="pcb_silkscreen_path_5" data-type="pcb_silkscreen_path" data-pcb-layer="bottom"/><text x="0" y="0" dx="0" dy="0" fill="#5da9e9" font-family="Arial, sans-serif" font-size="15.510416666666666" text-anchor="middle" dominant-baseline="central" transform="matrix(-1,0,0,1,556.25,264.4375)" class="pcb-silkscreen-text pcb-silkscreen-bottom" data-pcb-silkscreen-text-id="pcb_component_2" stroke="none" data-type="pcb_silkscreen_text" data-pcb-layer="bottom">U2</text><path class="pcb-silkscreen pcb-silkscreen-bottom" d="M 604 187.25 L 566.75 187.25 L 566.75 151.25 L 604 151.25" fill="none" stroke="#5da9e9" stroke-width="2.5" stroke-linecap="round" stroke-linejoin="round" data-pcb-component-id="pcb_component_13" data-pcb-silkscreen-path-id="pcb_silkscreen_path_14" data-type="pcb_silkscreen_path" data-pcb-layer="bottom"/><text x="0" y="0" dx="0" dy="0" fill="#5da9e9" font-family="Arial, sans-serif" font-size="10" text-anchor="middle" dominant-baseline="central" transform="matrix(-1,0,0,1,591.25,199.75)" class="pcb-silkscreen-text pcb-silkscreen-bottom" data-pcb-silkscreen-text-id="pcb_component_13" stroke="none" data-type="pcb_silkscreen_text" data-pcb-layer="bottom">R5</text><text x="0" y="0" dx="0" dy="0" fill="#5da9e9" font-family="Arial, sans-serif" font-size="12.5" text-anchor="middle" dominant-baseline="central" transform="matrix(-1,0,0,1,591.25,274.25)" class="pcb-silkscreen-text pcb-silkscreen-bottom" data-pcb-silkscreen-text-id="pcb_component_14" stroke="none" data-type="pcb_silkscreen_text" data-pcb-layer="bottom">Q1</text><path class="pcb-silkscreen pcb-silkscreen-bottom" d="M 578.5 126.5 L 615.75 126.5 L 615.75 162.5 L 578.5 162.5" fill="none" stroke="#5da9e9" stroke-width="2.5" stroke-linecap="round" stroke-linejoin="round" data-pcb-component-id="pcb_component_15" data-pcb-silkscreen-path-id="pcb_silkscreen_path_15" data-type="pcb_silkscreen_path" data-pcb-layer="bottom"/><text x="0" y="0" dx="0" dy="0" fill="#5da9e9" font-family="Arial, sans-serif" font-size="10" text-anchor="middle" dominant-baseline="central" transform="matrix(-1,0,0,1,591.25,114)" class="pcb-silkscreen-text pcb-silkscreen-bottom" data-pcb-silkscreen-text-id="pcb_component_15" stroke="none" data-type="pcb_silkscreen_text" data-pcb-layer="bottom">R1</text><path class="pcb-silkscreen pcb-silkscreen-bottom" d="M 571.9 276.425 L 571.9 313.675 L 535.9 313.675 L 535.9 276.425" fill="none" stroke="#5da9e9" stroke-width="2.5" stroke-linecap="round" stroke-linejoin="round" data-pcb-component-id="pcb_component_20" data-pcb-silkscreen-path-id="pcb_silkscreen_path_20" data-type="pcb_silkscreen_path" data-pcb-layer="bottom"/><text x="0" y="0" dx="0" dy="0" fill="#5da9e9" font-family="Arial, sans-serif" font-size="10" text-anchor="middle" dominant-baseline="central" transform="matrix(-6.123233995736766e-17,1,1,6.123233995736766e-17,584.4,289.175)" class="pcb-silkscreen-text pcb-silkscreen-bottom" data-pcb-silkscreen-text-id="pcb_component_20" stroke="none" data-type="pcb_silkscreen_text" data-pcb-layer="bottom">C20</text><path class="pcb-silkscreen pcb-silkscreen-bottom" d="M 339.5 395.5 L 302.25 395.5 L 302.25 359.5 L 339.5 359.5" fill="none" stroke="#5da9e9" stroke-width="2.5" stroke-linecap="round" stroke-linejoin="round" data-pcb-component-id="pcb_component_21" data-pcb-silkscreen-path-id="pcb_silkscreen_path_21" data-type="pcb_silkscreen_path" data-pcb-layer="bottom"/><text x="0" y="0" dx="0" dy="0" fill="#5da9e9" font-family="Arial, sans-serif" font-size="10" text-anchor="middle" dominant-baseline="central" transform="matrix(-1,0,0,1,326.75,408)" class="pcb-silkscreen-text pcb-silkscreen-bottom" data-pcb-silkscreen-text-id="pcb_component_21" stroke="none" data-type="pcb_silkscreen_text" data-pcb-layer="bottom">R11</text><path class="pcb-board" d="M 125 75 L 137.5 52.5 L 152.5 37.5 L 170.00000000000003 27.5 L 187.5 25 L 612.5 25 L 630 27.5 L 647.5 37.5 L 662.5 52.5 L 675 75 L 675 512.5 L 662.5 512.5 L 656.25 514.175 L 651.675 518.75 L 650 525 L 650 575 L 477.5 575 L 477.5 521.25 L 473.75 516.25 L 470 513.75 L 455 513.75 L 451.25 516.25 L 447.5 521.25 L 447.5 575 L 150 575 L 150 525 L 148.325 518.75 L 143.75 514.175 L 137.5 512.5 L 125 512.5 L 125 75 Z" fill="none" stroke="rgba(255, 255, 255, 0.5)" stroke-width="2.5" data-type="pcb_board" data-pcb-layer="board"/><rect class="pcb-pad" fill="rgb(200, 52, 52)" x="495.75" y="104.25000000000003" width="12.5" height="56.25" data-type="pcb_smtpad" data-pcb-layer="top"/><rect class="pcb-pad" fill="rgb(200, 52, 52)" x="483.25" y="104.25000000000003" width="12.5" height="56.25" data-type="pcb_smtpad" data-pcb-layer="top"/><rect class="pcb-pad" fill="rgb(200, 52, 52)" x="470.75" y="104.25000000000003" width="12.5" height="56.25" data-type="pcb_smtpad" data-pcb-layer="top"/><rect class="pcb-pad" fill="rgb(200, 52, 52)" x="458.25" y="104.25" width="12.5" height="56.25" data-type="pcb_smtpad" data-pcb-layer="top"/><rect class="pcb-pad" fill="rgb(200, 52, 52)" x="445.75" y="104.25" width="12.5" height="56.25" data-type="pcb_smtpad" data-pcb-layer="top"/><rect class="pcb-pad" fill="rgb(200, 52, 52)" x="433.25" y="104.25" width="12.5" height="56.25" data-type="pcb_smtpad" data-pcb-layer="top"/><rect class="pcb-pad" fill="rgb(200, 52, 52)" x="420.75" y="104.25" width="12.5" height="56.25" data-type="pcb_smtpad" data-pcb-layer="top"/><rect class="pcb-pad" fill="rgb(200, 52, 52)" x="408.25000000000006" y="104.25" width="12.5" height="56.25" data-type="pcb_smtpad" data-pcb-layer="top"/><rect class="pcb-pad" fill="rgb(200, 52, 52)" x="395.75000000000006" y="104.25" width="12.5" height="56.25" data-type="pcb_smtpad" data-pcb-layer="top"/><rect class="pcb-pad" fill="rgb(200, 52, 52)" x="383.25" y="104.25" width="12.5" height="56.25" data-type="pcb_smtpad" data-pcb-layer="top"/><rect class="pcb-pad" fill="rgb(200, 52, 52)" x="370.75" y="104.25" width="12.5" height="56.25" data-type="pcb_smtpad" data-pcb-layer="top"/><rect class="pcb-pad" fill="rgb(200, 52, 52)" x="358.25" y="104.25" width="12.5" height="56.25" data-type="pcb_smtpad" data-pcb-layer="top"/><rect class="pcb-pad" fill="rgb(200, 52, 52)" x="345.75000000000006" y="104.25" width="12.5" height="56.25" data-type="pcb_smtpad" data-pcb-layer="top"/><rect class="pcb-pad" fill="rgb(200, 52, 52)" x="333.25000000000006" y="104.24999999999997" width="12.5" height="56.25" data-type="pcb_smtpad" data-pcb-layer="top"/><rect class="pcb-pad" fill="rgb(200, 52, 52)" x="320.75" y="104.24999999999997" width="12.5" height="56.25" data-type="pcb_smtpad" data-pcb-layer="top"/><rect class="pcb-pad" fill="rgb(200, 52, 52)" x="308.25" y="104.24999999999997" width="12.5" height="56.25" data-type="pcb_smtpad" data-pcb-layer="top"/><rect class="pcb-pad" fill="rgb(200, 52, 52)" x="227.00000000000003" y="185.49999999999997" width="56.25" height="12.5" data-type="pcb_smtpad" data-pcb-layer="top"/><rect class="pcb-pad" fill="rgb(200, 52, 52)" x="227.00000000000003" y="197.99999999999997" width="56.25" height="12.5" data-type="pcb_smtpad" data-pcb-layer="top"/><rect class="pcb-pad" fill="rgb(200, 52, 52)" x="227.00000000000003" y="210.49999999999997" width="56.25" height="12.5" data-type="pcb_smtpad" data-pcb-layer="top"/><rect class="pcb-pad" fill="rgb(200, 52, 52)" x="227" y="222.99999999999997" width="56.25" height="12.5" data-type="pcb_smtpad" data-pcb-layer="top"/><rect class="pcb-pad" fill="rgb(200, 52, 52)" x="227" y="235.49999999999997" width="56.25" height="12.5" data-type="pcb_smtpad" data-pcb-layer="top"/><rect class="pcb-pad" fill="rgb(200, 52, 52)" x="227" y="247.99999999999997" width="56.25" height="12.5" data-type="pcb_smtpad" data-pcb-layer="top"/><rect class="pcb-pad" fill="rgb(200, 52, 52)" x="227" y="260.5" width="56.25" height="12.5" data-type="pcb_smtpad" data-pcb-layer="top"/><rect class="pcb-pad" fill="rgb(200, 52, 52)" x="227" y="273" width="56.25" height="12.5" data-type="pcb_smtpad" data-pcb-layer="top"/><rect class="pcb-pad" fill="rgb(200, 52, 52)" x="227" y="285.5" width="56.25" height="12.5" data-type="pcb_smtpad" data-pcb-layer="top"/><rect class="pcb-pad" fill="rgb(200, 52, 52)" x="227" y="298" width="56.25" height="12.5" data-type="pcb_smtpad" data-pcb-layer="top"/><rect class="pcb-pad" fill="rgb(200, 52, 52)" x="227" y="310.5" width="56.25" height="12.5" data-type="pcb_smtpad" data-pcb-layer="top"/><rect class="pcb-pad" fill="rgb(200, 52, 52)" x="227" y="323" width="56.25" height="12.5" data-type="pcb_smtpad" data-pcb-layer="top"/><rect class="pcb-pad" fill="rgb(200, 52, 52)" x="227" y="335.49999999999994" width="56.25" height="12.5" data-type="pcb_smtpad" data-pcb-layer="top"/><rect class="pcb-pad" fill="rgb(200, 52, 52)" x="226.99999999999997" y="347.99999999999994" width="56.25" height="12.5" data-type="pcb_smtpad" data-pcb-layer="top"/><rect class="pcb-pad" fill="rgb(200, 52, 52)" x="226.99999999999997" y="360.5" width="56.25" height="12.5" data-type="pcb_smtpad" data-pcb-layer="top"/><rect class="pcb-pad" fill="rgb(200, 52, 52)" x="226.99999999999997" y="373" width="56.25" height="12.5" data-type="pcb_smtpad" data-pcb-layer="top"/><rect class="pcb-pad" fill="rgb(200, 52, 52)" x="308.25" y="410.5" width="12.5" height="56.25" data-type="pcb_smtpad" data-pcb-layer="top"/><rect class="pcb-pad" fill="rgb(200, 52, 52)" x="320.75" y="410.5" width="12.5" height="56.25" data-type="pcb_smtpad" data-pcb-layer="top"/><rect class="pcb-pad" fill="rgb(200, 52, 52)" x="333.25" y="410.5" width="12.5" height="56.25" data-type="pcb_smtpad" data-pcb-layer="top"/><rect class="pcb-pad" fill="rgb(200, 52, 52)" x="345.75" y="410.5" width="12.5" height="56.25" data-type="pcb_smtpad" data-pcb-layer="top"/><rect class="pcb-pad" fill="rgb(200, 52, 52)" x="358.25" y="410.5" width="12.5" height="56.25" data-type="pcb_smtpad" data-pcb-layer="top"/><rect class="pcb-pad" fill="rgb(200, 52, 52)" x="370.75" y="410.5" width="12.5" height="56.25" data-type="pcb_smtpad" data-pcb-layer="top"/><rect class="pcb-pad" fill="rgb(200, 52, 52)" x="383.25" y="410.5" width="12.5" height="56.25" data-type="pcb_smtpad" data-pcb-layer="top"/><rect class="pcb-pad" fill="rgb(200, 52, 52)" x="395.75" y="410.5" width="12.5" height="56.25" data-type="pcb_smtpad" data-pcb-layer="top"/><rect class="pcb-pad" fill="rgb(200, 52, 52)" x="408.25" y="410.5" width="12.5" height="56.25" data-type="pcb_smtpad" data-pcb-layer="top"/><rect class="pcb-pad" fill="rgb(200, 52, 52)" x="420.75" y="410.5" width="12.5" height="56.25" data-type="pcb_smtpad" data-pcb-layer="top"/><rect class="pcb-pad" fill="rgb(200, 52, 52)" x="433.25" y="410.5" width="12.5" height="56.25" data-type="pcb_smtpad" data-pcb-layer="top"/><rect class="pcb-pad" fill="rgb(200, 52, 52)" x="445.75" y="410.5" width="12.5" height="56.25" data-type="pcb_smtpad" data-pcb-layer="top"/><rect class="pcb-pad" fill="rgb(200, 52, 52)" x="458.25" y="410.5" width="12.5" height="56.25" data-type="pcb_smtpad" data-pcb-layer="top"/><rect class="pcb-pad" fill="rgb(200, 52, 52)" x="470.75" y="410.5" width="12.5" height="56.25" data-type="pcb_smtpad" data-pcb-layer="top"/><rect class="pcb-pad" fill="rgb(200, 52, 52)" x="483.25" y="410.5" width="12.5" height="56.25" data-type="pcb_smtpad" data-pcb-layer="top"/><rect class="pcb-pad" fill="rgb(200, 52, 52)" x="495.74999999999994" y="410.5" width="12.5" height="56.25" data-type="pcb_smtpad" data-pcb-layer="top"/><rect class="pcb-pad" fill="rgb(200, 52, 52)" x="533.25" y="373" width="56.25" height="12.5" data-type="pcb_smtpad" data-pcb-layer="top"/><rect class="pcb-pad" fill="rgb(200, 52, 52)" x="533.25" y="360.5" width="56.25" height="12.5" data-type="pcb_smtpad" data-pcb-layer="top"/><rect class="pcb-pad" fill="rgb(200, 52, 52)" x="533.25" y="348" width="56.25" height="12.5" data-type="pcb_smtpad" data-pcb-layer="top"/><rect class="pcb-pad" fill="rgb(200, 52, 52)" x="533.25" y="335.5" width="56.25" height="12.5" data-type="pcb_smtpad" data-pcb-layer="top"/><rect class="pcb-pad" fill="rgb(200, 52, 52)" x="533.25" y="323.00000000000006" width="56.25" height="12.5" data-type="pcb_smtpad" data-pcb-layer="top"/><rect class="pcb-pad" fill="rgb(200, 52, 52)" x="533.25" y="310.5" width="56.25" height="12.5" data-type="pcb_smtpad" data-pcb-layer="top"/><rect class="pcb-pad" fill="rgb(200, 52, 52)" x="533.25" y="298" width="56.25" height="12.5" data-type="pcb_smtpad" data-pcb-layer="top"/><rect class="pcb-pad" fill="rgb(200, 52, 52)" x="533.25" y="285.5" width="56.25" height="12.5" data-type="pcb_smtpad" data-pcb-layer="top"/><rect class="pcb-pad" fill="rgb(200, 52, 52)" x="533.25" y="273" width="56.25" height="12.5" data-type="pcb_smtpad" data-pcb-layer="top"/><rect class="pcb-pad" fill="rgb(200, 52, 52)" x="533.25" y="260.5" width="56.25" height="12.5" data-type="pcb_smtpad" data-pcb-layer="top"/><rect class="pcb-pad" fill="rgb(200, 52, 52)" x="533.25" y="248.00000000000003" width="56.25" height="12.5" data-type="pcb_smtpad" data-pcb-layer="top"/><rect class="pcb-pad" fill="rgb(200, 52, 52)" x="533.25" y="235.50000000000003" width="56.25" height="12.5" data-type="pcb_smtpad" data-pcb-layer="top"/><rect class="pcb-pad" fill="rgb(200, 52, 52)" x="533.25" y="223.00000000000003" width="56.25" height="12.5" data-type="pcb_smtpad" data-pcb-layer="top"/><rect class="pcb-pad" fill="rgb(200, 52, 52)" x="533.25" y="210.50000000000003" width="56.25" height="12.5" data-type="pcb_smtpad" data-pcb-layer="top"/><rect class="pcb-pad" fill="rgb(200, 52, 52)" x="533.25" y="198.00000000000003" width="56.25" height="12.5" data-type="pcb_smtpad" data-pcb-layer="top"/><rect class="pcb-pad" fill="rgb(200, 52, 52)" x="533.25" y="185.50000000000006" width="56.25" height="12.5" data-type="pcb_smtpad" data-pcb-layer="top"/><rect class="pcb-pad" fill="rgb(200, 52, 52)" x="166.75" y="251" width="30" height="35" data-type="pcb_smtpad" data-pcb-layer="top"/><rect class="pcb-pad" fill="rgb(200, 52, 52)" x="166.75" y="306" width="30" height="35" data-type="pcb_smtpad" data-pcb-layer="top"/><rect class="pcb-pad" fill="rgb(200, 52, 52)" x="187.25" y="199" width="13.5" height="16" data-type="pcb_smtpad" data-pcb-layer="top"/><rect class="pcb-pad" fill="rgb(200, 52, 52)" x="161.75" y="199" width="13.5" height="16" data-type="pcb_smtpad" data-pcb-layer="top"/><rect class="pcb-pad" fill="rgb(200, 52, 52)" x="151.75" y="378.75" width="16" height="13.5" data-type="pcb_smtpad" data-pcb-layer="top"/><rect class="pcb-pad" fill="rgb(200, 52, 52)" x="151.75" y="404.25" width="16" height="13.5" data-type="pcb_smtpad" data-pcb-layer="top"/><rect class="pcb-pad" fill="rgb(200, 52, 52)" x="148.75000000000003" y="122" width="25" height="27.500000000000004" data-type="pcb_smtpad" data-pcb-layer="top"/><rect class="pcb-pad" fill="rgb(200, 52, 52)" x="196.25" y="122" width="25" height="27.500000000000004" data-type="pcb_smtpad" data-pcb-layer="top"/><rect class="pcb-pad" fill="rgb(200, 52, 52)" x="187" y="173.75" width="13.5" height="16" data-type="pcb_smtpad" data-pcb-layer="top"/><rect class="pcb-pad" fill="rgb(200, 52, 52)" x="161.5" y="173.75" width="13.5" height="16" data-type="pcb_smtpad" data-pcb-layer="top"/><rect class="pcb-pad" fill="rgb(200, 52, 52)" x="187" y="80.625" width="13.5" height="16" data-type="pcb_smtpad" data-pcb-layer="top"/><rect class="pcb-pad" fill="rgb(200, 52, 52)" x="161.5" y="80.625" width="13.5" height="16" data-type="pcb_smtpad" data-pcb-layer="top"/><rect class="pcb-pad" fill="rgb(200, 52, 52)" x="533" y="460.25" width="13.5" height="16" data-type="pcb_smtpad" data-pcb-layer="top"/><rect class="pcb-pad" fill="rgb(200, 52, 52)" x="558.5" y="460.25" width="13.5" height="16" data-type="pcb_smtpad" data-pcb-layer="top"/><rect class="pcb-pad" fill="rgb(200, 52, 52)" x="611.75" y="196.25" width="13.5" height="16" data-type="pcb_smtpad" data-pcb-layer="top"/><rect class="pcb-pad" fill="rgb(200, 52, 52)" x="637.25" y="196.25" width="13.5" height="16" data-type="pcb_smtpad" data-pcb-layer="top"/><rect class="pcb-pad" fill="rgb(200, 52, 52)" x="637.25" y="242.25" width="13.5" height="16" data-type="pcb_smtpad" data-pcb-layer="top"/><rect class="pcb-pad" fill="rgb(200, 52, 52)" x="611.75" y="242.25" width="13.5" height="16" data-type="pcb_smtpad" data-pcb-layer="top"/><rect class="pcb-pad" fill="rgb(200, 52, 52)" x="637.25" y="219.25" width="13.5" height="16" data-type="pcb_smtpad" data-pcb-layer="top"/><rect class="pcb-pad" fill="rgb(200, 52, 52)" x="611.75" y="219.25" width="13.5" height="16" data-type="pcb_smtpad" data-pcb-layer="top"/><rect class="pcb-pad" fill="rgb(200, 52, 52)" x="201.5" y="379.25" width="16" height="13.5" data-type="pcb_smtpad" data-pcb-layer="top"/><rect class="pcb-pad" fill="rgb(200, 52, 52)" x="201.5" y="404.75" width="16" height="13.5" data-type="pcb_smtpad" data-pcb-layer="top"/><rect class="pcb-pad" fill="rgb(200, 52, 52)" x="176.75" y="379" width="16" height="13.5" data-type="pcb_smtpad" data-pcb-layer="top"/><rect class="pcb-pad" fill="rgb(200, 52, 52)" x="176.75" y="404.5" width="16" height="13.5" data-type="pcb_smtpad" data-pcb-layer="top"/><rect class="pcb-pad" fill="rgb(200, 52, 52)" x="603.75" y="59.25" width="13.5" height="16" data-type="pcb_smtpad" data-pcb-layer="top"/><rect class="pcb-pad" fill="rgb(200, 52, 52)" x="629.25" y="59.25" width="13.5" height="16" data-type="pcb_smtpad" data-pcb-layer="top"/><rect class="pcb-pad" fill="rgb(200, 52, 52)" x="629.25" y="123.25" width="13.5" height="16" data-type="pcb_smtpad" data-pcb-layer="top"/><rect class="pcb-pad" fill="rgb(200, 52, 52)" x="603.75" y="123.25" width="13.5" height="16" data-type="pcb_smtpad" data-pcb-layer="top"/><rect class="pcb-pad" fill="rgb(200, 52, 52)" x="488.75" y="515.625" width="10" height="43.75" data-type="pcb_smtpad" data-pcb-layer="top"/><rect class="pcb-pad" fill="rgb(200, 52, 52)" x="500" y="515.625" width="10" height="43.75" data-type="pcb_smtpad" data-pcb-layer="top"/><rect class="pcb-pad" fill="rgb(200, 52, 52)" x="511.25" y="515.625" width="10" height="43.75" data-type="pcb_smtpad" data-pcb-layer="top"/><rect class="pcb-pad" fill="rgb(200, 52, 52)" x="522.5" y="515.625" width="10" height="43.75" data-type="pcb_smtpad" data-pcb-layer="top"/><rect class="pcb-pad" fill="rgb(200, 52, 52)" x="533.75" y="515.625" width="10" height="43.75" data-type="pcb_smtpad" data-pcb-layer="top"/><rect class="pcb-pad" fill="rgb(200, 52, 52)" x="545" y="515.625" width="10" height="43.75" data-type="pcb_smtpad" data-pcb-layer="top"/><rect class="pcb-pad" fill="rgb(200, 52, 52)" x="556.25" y="515.625" width="10" height="43.75" data-type="pcb_smtpad" data-pcb-layer="top"/><rect class="pcb-pad" fill="rgb(200, 52, 52)" x="567.5" y="515.625" width="10" height="43.75" data-type="pcb_smtpad" data-pcb-layer="top"/><rect class="pcb-pad" fill="rgb(200, 52, 52)" x="578.75" y="515.625" width="10" height="43.75" data-type="pcb_smtpad" data-pcb-layer="top"/><rect class="pcb-pad" fill="rgb(200, 52, 52)" x="590" y="515.625" width="10" height="43.75" data-type="pcb_smtpad" data-pcb-layer="top"/><rect class="pcb-pad" fill="rgb(200, 52, 52)" x="601.25" y="515.625" width="10" height="43.75" data-type="pcb_smtpad" data-pcb-layer="top"/><rect class="pcb-pad" fill="rgb(200, 52, 52)" x="612.5" y="515.625" width="10" height="43.75" data-type="pcb_smtpad" data-pcb-layer="top"/><rect class="pcb-pad" fill="rgb(200, 52, 52)" x="167.5" y="515.625" width="10" height="43.75" data-type="pcb_smtpad" data-pcb-layer="top"/><rect class="pcb-pad" fill="rgb(200, 52, 52)" x="178.75000000000003" y="515.625" width="10" height="43.75" data-type="pcb_smtpad" data-pcb-layer="top"/><rect class="pcb-pad" fill="rgb(200, 52, 52)" x="190.00000000000003" y="515.625" width="10" height="43.75" data-type="pcb_smtpad" data-pcb-layer="top"/><rect class="pcb-pad" fill="rgb(200, 52, 52)" x="201.25" y="515.625" width="10" height="43.75" data-type="pcb_smtpad" data-pcb-layer="top"/><rect class="pcb-pad" fill="rgb(200, 52, 52)" x="212.5" y="515.625" width="10" height="43.75" data-type="pcb_smtpad" data-pcb-layer="top"/><rect class="pcb-pad" fill="rgb(200, 52, 52)" x="223.75" y="515.625" width="10" height="43.75" data-type="pcb_smtpad" data-pcb-layer="top"/><rect class="pcb-pad" fill="rgb(200, 52, 52)" x="235" y="515.625" width="10" height="43.75" data-type="pcb_smtpad" data-pcb-layer="top"/><rect class="pcb-pad" fill="rgb(200, 52, 52)" x="246.25000000000003" y="515.625" width="10" height="43.75" data-type="pcb_smtpad" data-pcb-layer="top"/><rect class="pcb-pad" fill="rgb(200, 52, 52)" x="257.5" y="515.625" width="10" height="43.75" data-type="pcb_smtpad" data-pcb-layer="top"/><rect class="pcb-pad" fill="rgb(200, 52, 52)" x="268.75" y="515.625" width="10" height="43.75" data-type="pcb_smtpad" data-pcb-layer="top"/><rect class="pcb-pad" fill="rgb(200, 52, 52)" x="280" y="515.625" width="10" height="43.75" data-type="pcb_smtpad" data-pcb-layer="top"/><rect class="pcb-pad" fill="rgb(200, 52, 52)" x="291.25" y="515.625" width="10" height="43.75" data-type="pcb_smtpad" data-pcb-layer="top"/><rect class="pcb-pad" fill="rgb(200, 52, 52)" x="302.5" y="515.625" width="10" height="43.75" data-type="pcb_smtpad" data-pcb-layer="top"/><rect class="pcb-pad" fill="rgb(200, 52, 52)" x="313.75" y="515.625" width="10" height="43.75" data-type="pcb_smtpad" data-pcb-layer="top"/><rect class="pcb-pad" fill="rgb(200, 52, 52)" x="325" y="515.625" width="10" height="43.75" data-type="pcb_smtpad" data-pcb-layer="top"/><rect class="pcb-pad" fill="rgb(200, 52, 52)" x="336.25" y="515.625" width="10" height="43.75" data-type="pcb_smtpad" data-pcb-layer="top"/><rect class="pcb-pad" fill="rgb(200, 52, 52)" x="347.5" y="515.625" width="10" height="43.75" data-type="pcb_smtpad" data-pcb-layer="top"/><rect class="pcb-pad" fill="rgb(200, 52, 52)" x="358.75" y="515.625" width="10" height="43.75" data-type="pcb_smtpad" data-pcb-layer="top"/><rect class="pcb-pad" fill="rgb(200, 52, 52)" x="370" y="515.625" width="10" height="43.75" data-type="pcb_smtpad" data-pcb-layer="top"/><rect class="pcb-pad" fill="rgb(200, 52, 52)" x="381.25" y="515.625" width="10" height="43.75" data-type="pcb_smtpad" data-pcb-layer="top"/><rect class="pcb-pad" fill="rgb(200, 52, 52)" x="392.5" y="515.625" width="10" height="43.75" data-type="pcb_smtpad" data-pcb-layer="top"/><rect class="pcb-pad" fill="rgb(200, 52, 52)" x="403.75" y="515.625" width="10" height="43.75" data-type="pcb_smtpad" data-pcb-layer="top"/><rect class="pcb-pad" fill="rgb(200, 52, 52)" x="415" y="515.625" width="10" height="43.75" data-type="pcb_smtpad" data-pcb-layer="top"/><rect class="pcb-pad" fill="rgb(200, 52, 52)" x="426.25" y="515.625" width="10" height="43.75" data-type="pcb_smtpad" data-pcb-layer="top"/><path class="pcb-silkscreen pcb-silkscreen-top" d="M 533.25 185.5 L 533.25 160.50000000000003 L 508.25 160.50000000000003" fill="none" stroke="#f2eda1" stroke-width="2.5" stroke-linecap="round" stroke-linejoin="round" data-pcb-component-id="pcb_component_1" data-pcb-silkscreen-path-id="pcb_silkscreen_path_0" data-type="pcb_silkscreen_path" data-pcb-layer="top"/><path class="pcb-silkscreen pcb-silkscreen-top" d="M 532 127.37500000000003 L 527 132.37500000000003 L 532 137.37500000000003 L 532 127.37500000000003 Z" fill="none" stroke="#f2eda1" stroke-width="2.5" stroke-linecap="round" stroke-linejoin="round" data-pcb-component-id="pcb_component_1" data-pcb-silkscreen-path-id="pcb_silkscreen_path_1" data-type="pcb_silkscreen_path" data-pcb-layer="top"/><path class="pcb-silkscreen pcb-silkscreen-top" d="M 283.25 185.49999999999997 L 283.25 160.49999999999997 L 308.25 160.49999999999997" fill="none" stroke="#f2eda1" stroke-width="2.5" stroke-linecap="round" stroke-linejoin="round" data-pcb-component-id="pcb_component_1" data-pcb-silkscreen-path-id="pcb_silkscreen_path_2" data-type="pcb_silkscreen_path" data-pcb-layer="top"/><path class="pcb-silkscreen pcb-silkscreen-top" d="M 283.25 385.5 L 283.25 410.5 L 308.25 410.5" fill="none" stroke="#f2eda1" stroke-width="2.5" stroke-linecap="round" stroke-linejoin="round" data-pcb-component-id="pcb_component_1" data-pcb-silkscreen-path-id="pcb_silkscreen_path_3" data-type="pcb_silkscreen_path" data-pcb-layer="top"/><path class="pcb-silkscreen pcb-silkscreen-top" d="M 533.25 385.5 L 533.25 410.5 L 508.25 410.5" fill="none" stroke="#f2eda1" stroke-width="2.5" stroke-linecap="round" stroke-linejoin="round" data-pcb-component-id="pcb_component_1" data-pcb-silkscreen-path-id="pcb_silkscreen_path_4" data-type="pcb_silkscreen_path" data-pcb-layer="top"/><text x="0" y="0" dx="0" dy="0" fill="#f2eda1" font-family="Arial, sans-serif" font-size="12.5" text-anchor="middle" dominant-baseline="central" transform="matrix(-1.8369701987210297e-16,1,-1,-1.8369701987210297e-16,600.75,285.50000000000006)" class="pcb-silkscreen-text pcb-silkscreen-top" data-pcb-silkscreen-text-id="pcb_component_1" stroke="none" data-type="pcb_silkscreen_text" data-pcb-layer="top">U1</text><path class="pcb-silkscreen pcb-silkscreen-top" d="M 168.5 225 L 205.75 225 L 205.75 189 L 168.5 189" fill="none" stroke="#f2eda1" stroke-width="2.5" stroke-linecap="round" stroke-linejoin="round" data-pcb-component-id="pcb_component_4" data-pcb-silkscreen-path-id="pcb_silkscreen_path_6" data-type="pcb_silkscreen_path" data-pcb-layer="top"/><text x="0" y="0" dx="0" dy="0" fill="#f2eda1" font-family="Arial, sans-serif" font-size="10" text-anchor="middle" dominant-baseline="central" transform="matrix(-1,-1.2246467991473532e-16,1.2246467991473532e-16,-1,181.25,237.5)" class="pcb-silkscreen-text pcb-silkscreen-top" data-pcb-silkscreen-text-id="pcb_component_4" stroke="none" data-type="pcb_silkscreen_text" data-pcb-layer="top">C1</text><path class="pcb-silkscreen pcb-silkscreen-top" d="M 177.75000000000003 411 L 177.75000000000003 373.75 L 141.75000000000006 373.75 L 141.75 411" fill="none" stroke="#f2eda1" stroke-width="2.5" stroke-linecap="round" stroke-linejoin="round" data-pcb-component-id="pcb_component_5" data-pcb-silkscreen-path-id="pcb_silkscreen_path_7" data-type="pcb_silkscreen_path" data-pcb-layer="top"/><text x="0" y="0" dx="0" dy="0" fill="#f2eda1" font-family="Arial, sans-serif" font-size="10" text-anchor="middle" dominant-baseline="central" transform="matrix(-1.8369701987210297e-16,1,-1,-1.8369701987210297e-16,129.25,398.25)" class="pcb-silkscreen-text pcb-silkscreen-top" data-pcb-silkscreen-text-id="pcb_component_5" stroke="none" data-type="pcb_silkscreen_text" data-pcb-layer="top">C2</text><path class="pcb-silkscreen pcb-silkscreen-top" d="M 168.25 199.75 L 205.5 199.75 L 205.50000000000003 163.75 L 168.25 163.75" fill="none" stroke="#f2eda1" stroke-width="2.5" stroke-linecap="round" stroke-linejoin="round" data-pcb-component-id="pcb_component_7" data-pcb-silkscreen-path-id="pcb_silkscreen_path_8" data-type="pcb_silkscreen_path" data-pcb-layer="top"/><text x="0" y="0" dx="0" dy="0" fill="#f2eda1" font-family="Arial, sans-serif" font-size="10" text-anchor="middle" dominant-baseline="central" transform="matrix(-1,-1.2246467991473532e-16,1.2246467991473532e-16,-1,181,212.25)" class="pcb-silkscreen-text pcb-silkscreen-top" data-pcb-silkscreen-text-id="pcb_component_7" stroke="none" data-type="pcb_silkscreen_text" data-pcb-layer="top">C3</text><path class="pcb-silkscreen pcb-silkscreen-top" d="M 168.25 106.625 L 205.5 106.625 L 205.50000000000003 70.62499999999997 L 168.25 70.62499999999997" fill="none" stroke="#f2eda1" stroke-width="2.5" stroke-linecap="round" stroke-linejoin="round" data-pcb-component-id="pcb_component_8" data-pcb-silkscreen-path-id="pcb_silkscreen_path_9" data-type="pcb_silkscreen_path" data-pcb-layer="top"/><text x="0" y="0" dx="0" dy="0" fill="#f2eda1" font-family="Arial, sans-serif" font-size="10" text-anchor="middle" dominant-baseline="central" transform="matrix(-1,-1.2246467991473532e-16,1.2246467991473532e-16,-1,181,58.12499999999997)" class="pcb-silkscreen-text pcb-silkscreen-top" data-pcb-silkscreen-text-id="pcb_component_8" stroke="none" data-type="pcb_silkscreen_text" data-pcb-layer="top">C4</text><path class="pcb-silkscreen pcb-silkscreen-top" d="M 565.25 450.25 L 528 450.25 L 528 486.25 L 565.25 486.25" fill="none" stroke="#f2eda1" stroke-width="2.5" stroke-linecap="round" stroke-linejoin="round" data-pcb-component-id="pcb_component_9" data-pcb-silkscreen-path-id="pcb_silkscreen_path_10" data-type="pcb_silkscreen_path" data-pcb-layer="top"/><text x="0" y="0" dx="0" dy="0" fill="#f2eda1" font-family="Arial, sans-serif" font-size="10" text-anchor="middle" dominant-baseline="central" transform="matrix(1,0,0,1,552.5,437.75)" class="pcb-silkscreen-text pcb-silkscreen-top" data-pcb-silkscreen-text-id="pcb_component_9" stroke="none" data-type="pcb_silkscreen_text" data-pcb-layer="top">C5</text><path class="pcb-silkscreen pcb-silkscreen-top" d="M 644 186.25 L 606.75 186.25 L 606.75 222.25 L 644 222.25" fill="none" stroke="#f2eda1" stroke-width="2.5" stroke-linecap="round" stroke-linejoin="round" data-pcb-component-id="pcb_component_10" data-pcb-silkscreen-path-id="pcb_silkscreen_path_11" data-type="pcb_silkscreen_path" data-pcb-layer="top"/><text x="0" y="0" dx="0" dy="0" fill="#f2eda1" font-family="Arial, sans-serif" font-size="10" text-anchor="middle" dominant-baseline="central" transform="matrix(1,0,0,1,631.25,173.75)" class="pcb-silkscreen-text pcb-silkscreen-top" data-pcb-silkscreen-text-id="pcb_component_10" stroke="none" data-type="pcb_silkscreen_text" data-pcb-layer="top">C6</text><path class="pcb-silkscreen pcb-silkscreen-top" d="M 618.5 268.25 L 655.75 268.25 L 655.75 232.25 L 618.5 232.25" fill="none" stroke="#f2eda1" stroke-width="2.5" stroke-linecap="round" stroke-linejoin="round" data-pcb-component-id="pcb_component_11" data-pcb-silkscreen-path-id="pcb_silkscreen_path_12" data-type="pcb_silkscreen_path" data-pcb-layer="top"/><text x="0" y="0" dx="0" dy="0" fill="#f2eda1" font-family="Arial, sans-serif" font-size="10" text-anchor="middle" dominant-baseline="central" transform="matrix(-1,-1.2246467991473532e-16,1.2246467991473532e-16,-1,631.25,280.75)" class="pcb-silkscreen-text pcb-silkscreen-top" data-pcb-silkscreen-text-id="pcb_component_11" stroke="none" data-type="pcb_silkscreen_text" data-pcb-layer="top">R2</text><path class="pcb-silkscreen pcb-silkscreen-top" d="M 618.5 245.25 L 655.75 245.25 L 655.75 209.25 L 618.5 209.25" fill="none" stroke="#f2eda1" stroke-width="2.5" stroke-linecap="round" stroke-linejoin="round" data-pcb-component-id="pcb_component_12" data-pcb-silkscreen-path-id="pcb_silkscreen_path_13" data-type="pcb_silkscreen_path" data-pcb-layer="top"/><text x="0" y="0" dx="0" dy="0" fill="#f2eda1" font-family="Arial, sans-serif" font-size="10" text-anchor="middle" dominant-baseline="central" transform="matrix(-1,-1.2246467991473532e-16,1.2246467991473532e-16,-1,631.25,257.75)" class="pcb-silkscreen-text pcb-silkscreen-top" data-pcb-silkscreen-text-id="pcb_component_12" stroke="none" data-type="pcb_silkscreen_text" data-pcb-layer="top">R3</text><path class="pcb-silkscreen pcb-silkscreen-top" d="M 227.5 411.5 L 227.5 374.25 L 191.5 374.25 L 191.5 411.5" fill="none" stroke="#f2eda1" stroke-width="2.5" stroke-linecap="round" stroke-linejoin="round" data-pcb-component-id="pcb_component_16" data-pcb-silkscreen-path-id="pcb_silkscreen_path_16" data-type="pcb_silkscreen_path" data-pcb-layer="top"/><text x="0" y="0" dx="0" dy="0" fill="#f2eda1" font-family="Arial, sans-serif" font-size="10" text-anchor="middle" dominant-baseline="central" transform="matrix(-1.8369701987210297e-16,1,-1,-1.8369701987210297e-16,240,398.75)" class="pcb-silkscreen-text pcb-silkscreen-top" data-pcb-silkscreen-text-id="pcb_component_16" stroke="none" data-type="pcb_silkscreen_text" data-pcb-layer="top">R4</text><path class="pcb-silkscreen pcb-silkscreen-top" d="M 202.75 411.25 L 202.75000000000003 374 L 166.75000000000006 374 L 166.75 411.25" fill="none" stroke="#f2eda1" stroke-width="2.5" stroke-linecap="round" stroke-linejoin="round" data-pcb-component-id="pcb_component_17" data-pcb-silkscreen-path-id="pcb_silkscreen_path_17" data-type="pcb_silkscreen_path" data-pcb-layer="top"/><text x="0" y="0" dx="0" dy="0" fill="#f2eda1" font-family="Arial, sans-serif" font-size="10" text-anchor="middle" dominant-baseline="central" transform="matrix(-1.8369701987210297e-16,1,-1,-1.8369701987210297e-16,215.25,398.5)" class="pcb-silkscreen-text pcb-silkscreen-top" data-pcb-silkscreen-text-id="pcb_component_17" stroke="none" data-type="pcb_silkscreen_text" data-pcb-layer="top">C15</text><path class="pcb-silkscreen pcb-silkscreen-top" d="M 636 49.24999999999997 L 598.75 49.24999999999997 L 598.75 85.25 L 636 85.25" fill="none" stroke="#f2eda1" stroke-width="2.5" stroke-linecap="round" stroke-linejoin="round" data-pcb-component-id="pcb_component_18" data-pcb-silkscreen-path-id="pcb_silkscreen_path_18" data-type="pcb_silkscreen_path" data-pcb-layer="top"/><text x="0" y="0" dx="0" dy="0" fill="#f2eda1" font-family="Arial, sans-serif" font-size="10" text-anchor="middle" dominant-baseline="central" transform="matrix(1,0,0,1,623.25,36.75)" class="pcb-silkscreen-text pcb-silkscreen-top" data-pcb-silkscreen-text-id="pcb_component_18" stroke="none" data-type="pcb_silkscreen_text" data-pcb-layer="top">D5</text><path class="pcb-silkscreen pcb-silkscreen-top" d="M 610.5 149.25 L 647.75 149.25 L 647.75 113.25 L 610.5 113.25" fill="none" stroke="#f2eda1" stroke-width="2.5" stroke-linecap="round" stroke-linejoin="round" data-pcb-component-id="pcb_component_19" data-pcb-silkscreen-path-id="pcb_silkscreen_path_19" data-type="pcb_silkscreen_path" data-pcb-layer="top"/><text x="0" y="0" dx="0" dy="0" fill="#f2eda1" font-family="Arial, sans-serif" font-size="10" text-anchor="middle" dominant-baseline="central" transform="matrix(-1,-1.2246467991473532e-16,1.2246467991473532e-16,-1,623.25,161.75)" class="pcb-silkscreen-text pcb-silkscreen-top" data-pcb-silkscreen-text-id="pcb_component_19" stroke="none" data-type="pcb_silkscreen_text" data-pcb-layer="top">R12</text><circle class="pcb-hole" cx="500" cy="25" r="25" fill="#FF26E2" data-type="pcb_hole" data-pcb-layer="drill"/></svg>