<svg xmlns="http://www.w3.org/2000/svg" width="1200" height="600" style="background-color: rgb(245, 241, 237)" data-real-to-screen-transform="matrix(66.6111573689,0,0,-66.6111573689,583.8467943381,202.6722175964)"><style>
              .boundary { fill: rgb(245, 241, 237); }
              .schematic-boundary { fill: none; stroke: #fff; }
              .component { fill: none; stroke: rgb(132, 0, 0); }
              .chip { fill: rgb(255, 255, 194); stroke: rgb(132, 0, 0); }
              .component-pin { fill: none; stroke: rgb(132, 0, 0); }
              /* Basic per-trace hover fallback */
              .trace:hover {
                filter: invert(1);
              }
              .trace:hover .trace-crossing-outline {
                opacity: 0;
              }
              .trace:hover .trace-junction {
                filter: invert(1);
              }
              /* Net-hover highlighting: when a trace or its overlays are hovered,
                 invert color for all traces (base + overlays) sharing the same
                 subcircuit connectivity key. Also hide crossing outline during hover. */
              svg:has(:is(g.trace[data-subcircuit-connectivity-map-key="unnamedsubcircuit54000_connectivity_net2"], g.trace-overlays[data-subcircuit-connectivity-map-key="unnamedsubcircuit54000_connectivity_net2"]):hover) :is(g.trace[data-subcircuit-connectivity-map-key="unnamedsubcircuit54000_connectivity_net2"], g.trace-overlays[data-subcircuit-connectivity-map-key="unnamedsubcircuit54000_connectivity_net2"]) { filter: invert(1); }
svg:has(:is(g.trace[data-subcircuit-connectivity-map-key="unnamedsubcircuit54000_connectivity_net2"], g.trace-overlays[data-subcircuit-connectivity-map-key="unnamedsubcircuit54000_connectivity_net2"]):hover) g.trace-overlays[data-subcircuit-connectivity-map-key="unnamedsubcircuit54000_connectivity_net2"] .trace-crossing-outline { opacity: 0; }
svg:has(:is(g.trace[data-subcircuit-connectivity-map-key="unnamedsubcircuit54000_connectivity_net3"], g.trace-overlays[data-subcircuit-connectivity-map-key="unnamedsubcircuit54000_connectivity_net3"]):hover) :is(g.trace[data-subcircuit-connectivity-map-key="unnamedsubcircuit54000_connectivity_net3"], g.trace-overlays[data-subcircuit-connectivity-map-key="unnamedsubcircuit54000_connectivity_net3"]) { filter: invert(1); }
svg:has(:is(g.trace[data-subcircuit-connectivity-map-key="unnamedsubcircuit54000_connectivity_net3"], g.trace-overlays[data-subcircuit-connectivity-map-key="unnamedsubcircuit54000_connectivity_net3"]):hover) g.trace-overlays[data-subcircuit-connectivity-map-key="unnamedsubcircuit54000_connectivity_net3"] .trace-crossing-outline { opacity: 0; }
svg:has(:is(g.trace[data-subcircuit-connectivity-map-key="unnamedsubcircuit54000_connectivity_net7"], g.trace-overlays[data-subcircuit-connectivity-map-key="unnamedsubcircuit54000_connectivity_net7"]):hover) :is(g.trace[data-subcircuit-connectivity-map-key="unnamedsubcircuit54000_connectivity_net7"], g.trace-overlays[data-subcircuit-connectivity-map-key="unnamedsubcircuit54000_connectivity_net7"]) { filter: invert(1); }
svg:has(:is(g.trace[data-subcircuit-connectivity-map-key="unnamedsubcircuit54000_connectivity_net7"], g.trace-overlays[data-subcircuit-connectivity-map-key="unnamedsubcircuit54000_connectivity_net7"]):hover) g.trace-overlays[data-subcircuit-connectivity-map-key="unnamedsubcircuit54000_connectivity_net7"] .trace-crossing-outline { opacity: 0; }
svg:has(:is(g.trace[data-subcircuit-connectivity-map-key="unnamedsubcircuit54000_connectivity_net8"], g.trace-overlays[data-subcircuit-connectivity-map-key="unnamedsubcircuit54000_connectivity_net8"]):hover) :is(g.trace[data-subcircuit-connectivity-map-key="unnamedsubcircuit54000_connectivity_net8"], g.trace-overlays[data-subcircuit-connectivity-map-key="unnamedsubcircuit54000_connectivity_net8"]) { filter: invert(1); }
svg:has(:is(g.trace[data-subcircuit-connectivity-map-key="unnamedsubcircuit54000_connectivity_net8"], g.trace-overlays[data-subcircuit-connectivity-map-key="unnamedsubcircuit54000_connectivity_net8"]):hover) g.trace-overlays[data-subcircuit-connectivity-map-key="unnamedsubcircuit54000_connectivity_net8"] .trace-crossing-outline { opacity: 0; }
svg:has(:is(g.trace[data-subcircuit-connectivity-map-key="undefined"], g.trace-overlays[data-subcircuit-connectivity-map-key="undefined"]):hover) :is(g.trace[data-subcircuit-connectivity-map-key="undefined"], g.trace-overlays[data-subcircuit-connectivity-map-key="undefined"]) { filter: invert(1); }
svg:has(:is(g.trace[data-subcircuit-connectivity-map-key="undefined"], g.trace-overlays[data-subcircuit-connectivity-map-key="undefined"]):hover) g.trace-overlays[data-subcircuit-connectivity-map-key="undefined"] .trace-crossing-outline { opacity: 0; }
              .text { font-family: sans-serif; fill: rgb(0, 150, 0); }
              .pin-number { fill: rgb(169, 0, 0); }
              .port-label { fill: rgb(0, 100, 100); }
              .component-name { fill: rgb(0, 100, 100); }
            </style><rect class="boundary" x="0" y="0" width="1200" height="600"/><g class="trace" data-layer="base" data-circuit-json-type="schematic_trace" data-schematic-trace-id="schematic_trace_0" data-subcircuit-connectivity-map-key="unnamedsubcircuit54000_connectivity_net2"><path d="M 385.34554537877807 299.258395781305 L 385.34554537877807 269.2833749653 L 354.03830141539504 269.2833749653" class="trace-invisible-hover-outline" stroke="rgb(0, 150, 0)" fill="none" stroke-width="10.657785179024px" stroke-linecap="round" opacity="0" stroke-linejoin="round"/><path d="M 385.34554537877807 299.258395781305 L 385.34554537877807 269.2833749653 L 354.03830141539504 269.2833749653" stroke="rgb(0, 150, 0)" fill="none" stroke-width="1.332223147378px" stroke-linecap="round" stroke-linejoin="round"/></g><g class="trace" data-layer="base" data-circuit-json-type="schematic_trace" data-schematic-trace-id="schematic_trace_1" data-subcircuit-connectivity-map-key="unnamedsubcircuit54000_connectivity_net3"><path d="M 252.12323064097802 299.258395781305 L 252.12323064097802 269.28337496529997 L 280.7660283096051 269.28337496529997" class="trace-invisible-hover-outline" stroke="rgb(0, 150, 0)" fill="none" stroke-width="10.657785179024px" stroke-linecap="round" opacity="0" stroke-linejoin="round"/><path d="M 252.12323064097802 299.258395781305 L 252.12323064097802 269.28337496529997 L 280.7660283096051 269.28337496529997" stroke="rgb(0, 150, 0)" fill="none" stroke-width="1.332223147378px" stroke-linecap="round" stroke-linejoin="round"/></g><g class="trace" data-layer="base" data-circuit-json-type="schematic_trace" data-schematic-trace-id="schematic_trace_2" data-subcircuit-connectivity-map-key="unnamedsubcircuit54000_connectivity_net7"><path d="M 197.50208159848006 402.50568970309996 L 252.7893422146671 402.50568970309996 L 252.7893422146671 372.530668887095" class="trace-invisible-hover-outline" stroke="rgb(0, 150, 0)" fill="none" stroke-width="10.657785179024px" stroke-linecap="round" opacity="0" stroke-linejoin="round"/><path d="M 197.50208159848006 402.50568970309996 L 252.7893422146671 402.50568970309996 L 252.7893422146671 372.530668887095" stroke="rgb(0, 150, 0)" fill="none" stroke-width="1.332223147378px" stroke-linecap="round" stroke-linejoin="round"/></g><g class="trace" data-layer="base" data-circuit-json-type="schematic_trace" data-schematic-trace-id="schematic_trace_3" data-subcircuit-connectivity-map-key="unnamedsubcircuit54000_connectivity_net8"><path d="M 437.30224812652 402.50568970309996 L 386.0116569524671 402.50568970309996 L 386.0116569524671 372.530668887095" class="trace-invisible-hover-outline" stroke="rgb(0, 150, 0)" fill="none" stroke-width="10.657785179024px" stroke-linecap="round" opacity="0" stroke-linejoin="round"/><path d="M 437.30224812652 402.50568970309996 L 386.0116569524671 402.50568970309996 L 386.0116569524671 372.530668887095" stroke="rgb(0, 150, 0)" fill="none" stroke-width="1.332223147378px" stroke-linecap="round" stroke-linejoin="round"/></g><g class="trace" data-layer="base" data-circuit-json-type="schematic_trace" data-schematic-trace-id="schematic_trace_4"><path d="M 650.457951707 202.6722175964 L 823.64696086614 202.6722175964 L 823.64696086614 235.97779628085 L 1040.133222315065 235.97779628085" class="trace-invisible-hover-outline" stroke="rgb(0, 150, 0)" fill="none" stroke-width="10.657785179024px" stroke-linecap="round" opacity="0" stroke-linejoin="round"/><path d="M 650.457951707 202.6722175964 L 823.64696086614 202.6722175964 L 823.64696086614 235.97779628085 L 1040.133222315065 235.97779628085" stroke="rgb(0, 150, 0)" fill="none" stroke-width="1.332223147378px" stroke-linecap="round" stroke-linejoin="round"/></g><g class="trace" data-layer="base" data-circuit-json-type="schematic_trace" data-schematic-trace-id="schematic_trace_5"><path d="M 324.06328059939005 495.76131001956 L 324.06328059939005 434.1459894533275 L 386.01165695246704 434.1459894533275 L 386.01165695246704 372.530668887095" class="trace-invisible-hover-outline" stroke="rgb(0, 150, 0)" fill="none" stroke-width="10.657785179024px" stroke-linecap="round" opacity="0" stroke-linejoin="round"/><path d="M 324.06328059939005 495.76131001956 L 324.06328059939005 434.1459894533275 L 386.01165695246704 434.1459894533275 L 386.01165695246704 372.530668887095" stroke="rgb(0, 150, 0)" fill="none" stroke-width="1.332223147378px" stroke-linecap="round" stroke-linejoin="round"/></g><g class="trace" data-layer="base" data-circuit-json-type="schematic_trace" data-schematic-trace-id="schematic_trace_6"><path d="M 50.957535386900076 166.036081043505 L 50.957535386900076 152.713849569725 L 284.0965861780501 152.713849569725 L 284.0965861780501 182.68887038573 L 517.2356369692001 182.68887038573" class="trace-invisible-hover-outline" stroke="rgb(0, 150, 0)" fill="none" stroke-width="10.657785179024px" stroke-linecap="round" opacity="0" stroke-linejoin="round"/><path d="M 50.957535386900076 166.036081043505 L 50.957535386900076 152.713849569725 L 284.0965861780501 152.713849569725 L 284.0965861780501 182.68887038573 L 517.2356369692001 182.68887038573" stroke="rgb(0, 150, 0)" fill="none" stroke-width="1.332223147378px" stroke-linecap="round" stroke-linejoin="round"/></g><g class="trace" data-layer="base" data-circuit-json-type="schematic_trace" data-schematic-trace-id="schematic_trace_7"><path d="M 1040.133222315065 182.68887038573 L 945.2123230643825 182.68887038573 L 945.2123230643825 86.10269220082499 L 850.2914238137 86.10269220082499 L 850.2914238137 99.42492367460501" class="trace-invisible-hover-outline" stroke="rgb(0, 150, 0)" fill="none" stroke-width="10.657785179024px" stroke-linecap="round" opacity="0" stroke-linejoin="round"/><path d="M 1040.133222315065 182.68887038573 L 945.2123230643825 182.68887038573 L 945.2123230643825 86.10269220082499 L 850.2914238137 86.10269220082499 L 850.2914238137 99.42492367460501" stroke="rgb(0, 150, 0)" fill="none" stroke-width="1.332223147378px" stroke-linecap="round" stroke-linejoin="round"/></g><g class="trace" data-layer="base" data-circuit-json-type="schematic_trace" data-schematic-trace-id="schematic_trace_8"><path d="M 50.957535386900076 239.308354149295 L 50.957535386900076 240.30752150982852 L 284.0965861780501 240.30752150982852 L 284.0965861780501 196.01110185950998 L 517.2356369692001 196.01110185950998" class="trace-invisible-hover-outline" stroke="rgb(0, 150, 0)" fill="none" stroke-width="10.657785179024px" stroke-linecap="round" opacity="0" stroke-linejoin="round"/><path d="M 50.957535386900076 239.308354149295 L 50.957535386900076 240.30752150982852 L 284.0965861780501 240.30752150982852 L 284.0965861780501 196.01110185950998 L 517.2356369692001 196.01110185950998" stroke="rgb(0, 150, 0)" fill="none" stroke-width="1.332223147378px" stroke-linecap="round" stroke-linejoin="round"/></g><g class="trace" data-layer="base" data-circuit-json-type="schematic_trace" data-schematic-trace-id="schematic_trace_9"><path d="M 650.457951707 189.34998612262 L 836.96919233992 189.34998612262 L 836.96919233992 209.3999444906589 L 863.61365528748 209.3999444906589 L 863.61365528748 196.01110185951 L 1040.133222315065 196.01110185951" class="trace-invisible-hover-outline" stroke="rgb(0, 150, 0)" fill="none" stroke-width="10.657785179024px" stroke-linecap="round" opacity="0" stroke-linejoin="round"/><path d="M 650.457951707 189.34998612262 L 836.96919233992 189.34998612262 L 836.96919233992 209.3999444906589 L 863.61365528748 209.3999444906589 L 863.61365528748 196.01110185951 L 1040.133222315065 196.01110185951" stroke="rgb(0, 150, 0)" fill="none" stroke-width="1.332223147378px" stroke-linecap="round" stroke-linejoin="round"/></g><g class="trace-overlays" data-layer="overlay" data-circuit-json-type="schematic_trace" data-schematic-trace-id="schematic_trace_0" data-subcircuit-connectivity-map-key="unnamedsubcircuit54000_connectivity_net2"/><g class="trace-overlays" data-layer="overlay" data-circuit-json-type="schematic_trace" data-schematic-trace-id="schematic_trace_1" data-subcircuit-connectivity-map-key="unnamedsubcircuit54000_connectivity_net3"/><g class="trace-overlays" data-layer="overlay" data-circuit-json-type="schematic_trace" data-schematic-trace-id="schematic_trace_2" data-subcircuit-connectivity-map-key="unnamedsubcircuit54000_connectivity_net7"/><g class="trace-overlays" data-layer="overlay" data-circuit-json-type="schematic_trace" data-schematic-trace-id="schematic_trace_3" data-subcircuit-connectivity-map-key="unnamedsubcircuit54000_connectivity_net8"><circle cx="386.0116569524671" cy="402.50568970309996" r="1.9983347210669997" class="trace-junction" fill="rgb(0, 150, 0)"/></g><g class="trace-overlays" data-layer="overlay" data-circuit-json-type="schematic_trace" data-schematic-trace-id="schematic_trace_4"/><g class="trace-overlays" data-layer="overlay" data-circuit-json-type="schematic_trace" data-schematic-trace-id="schematic_trace_5"><circle cx="386.0116569524671" cy="402.50568970309996" r="1.9983347210669997" class="trace-junction" fill="rgb(0, 150, 0)"/></g><g class="trace-overlays" data-layer="overlay" data-circuit-json-type="schematic_trace" data-schematic-trace-id="schematic_trace_6"/><g class="trace-overlays" data-layer="overlay" data-circuit-json-type="schematic_trace" data-schematic-trace-id="schematic_trace_7"/><g class="trace-overlays" data-layer="overlay" data-circuit-json-type="schematic_trace" data-schematic-trace-id="schematic_trace_8"/><g class="trace-overlays" data-layer="overlay" data-circuit-json-type="schematic_trace" data-schematic-trace-id="schematic_trace_9"/><g data-circuit-json-type="schematic_component" data-schematic-component-id="schematic_component_0"><rect class="component-overlay" x="32.972522897297075" y="166.036081043505" width="35.303913405517" height="73.27227310578999" fill="transparent"/><path d="M 50.957535386900076 239.30835414929498 L 50.957535386900076 207.334998612223" stroke="rgb(132, 0, 0)" fill="none" stroke-width="1.332223147378px" stroke-linecap="round"/><path d="M 50.957535386900076 196.677213433199 L 50.957535386900076 166.036081043505" stroke="rgb(132, 0, 0)" fill="none" stroke-width="1.332223147378px" stroke-linecap="round"/><path d="M 68.27643630281408 207.334998612223 L 32.972522897297075 207.334998612223" stroke="rgb(132, 0, 0)" fill="none" stroke-width="1.332223147378px" stroke-linecap="round"/><path d="M 68.27643630281408 196.677213433199 L 32.972522897297075 196.677213433199" stroke="rgb(132, 0, 0)" fill="none" stroke-width="1.332223147378px" stroke-linecap="round"/><text x="57.285595336945576" y="189.34998612261998" stroke="rgb(245, 241, 237)" stroke-width="1.332223147378px" paint-order="stroke" fill="rgb(15, 15, 15)" font-family="sans-serif" text-anchor="start" dominant-baseline="ideographic" font-size="11.990008326401998px">C1</text><text x="57.285595336945576" y="215.99444907018" fill="rgb(15, 15, 15)" font-family="sans-serif" text-anchor="start" dominant-baseline="hanging" font-size="11.990008326401998px">0.1uF</text></g><g data-circuit-json-type="schematic_component" data-schematic-component-id="schematic_component_1"><rect class="component-overlay" x="280.7660283096051" y="251.964474049386" width="73.27227310578996" height="35.303913405516994" fill="transparent"/><path d="M 354.03830141539504 269.2833749653 L 322.06494587832304 269.2833749653" stroke="rgb(132, 0, 0)" fill="none" stroke-width="1.332223147378px" stroke-linecap="round"/><path d="M 311.4071606992991 269.2833749653 L 280.7660283096051 269.2833749653" stroke="rgb(132, 0, 0)" fill="none" stroke-width="1.332223147378px" stroke-linecap="round"/><path d="M 322.06494587832304 251.964474049386 L 322.06494587832304 287.268387454903" stroke="rgb(132, 0, 0)" fill="none" stroke-width="1.332223147378px" stroke-linecap="round"/><path d="M 311.4071606992991 251.964474049386 L 311.4071606992991 287.268387454903" stroke="rgb(132, 0, 0)" fill="none" stroke-width="1.332223147378px" stroke-linecap="round"/><text x="316.73605328881104" y="242.63891201774004" stroke="rgb(245, 241, 237)" stroke-width="1.332223147378px" paint-order="stroke" fill="rgb(15, 15, 15)" font-family="sans-serif" text-anchor="middle" dominant-baseline="ideographic" font-size="11.990008326401998px">C2</text><text x="317.40216486250006" y="298.592284207616" fill="rgb(15, 15, 15)" font-family="sans-serif" text-anchor="middle" dominant-baseline="hanging" font-size="11.990008326401998px">10nF</text></g><g data-circuit-json-type="schematic_component" data-schematic-component-id="schematic_component_2"><rect class="component chip" x="1066.777685262625" y="156.04440743817003" width="99.91673605334995" height="93.25562031645995" stroke-width="1.332223147378px" fill="rgb(255, 255, 194)" stroke="rgb(132, 0, 0)"/><rect class="component-overlay" x="1066.777685262625" y="156.04440743817003" width="99.91673605334995" height="93.25562031645995" fill="transparent"/><text x="1066.777685262625" y="257.959478212587" fill="#006464" text-anchor="start" dominant-baseline="middle" font-family="sans-serif" font-size="11.990008326401998px" transform="rotate(0, 1066.777685262625, 257.959478212587)"></text><text x="1066.777685262625" y="147.38495698021302" fill="#006464" text-anchor="start" dominant-baseline="middle" font-family="sans-serif" font-size="11.990008326401998px" transform="rotate(0, 1066.777685262625, 147.38495698021302)">JP1</text><line class="component-pin" x1="1066.777685262625" y1="169.36663891195002" x2="1040.133222315065" y2="169.36663891195002" stroke-width="1.332223147378px"/><g data-schematic-port-id="source_port_4"><rect x="1038.800999167687" y="168.03441576457203" width="2.664446294756" height="2.664446294756" opacity="0"/></g><text class="pin-number" x="1053.455453788845" y="168.034415764572" style="font-family: sans-serif;" fill="rgb(169, 0, 0)" text-anchor="middle" dominant-baseline="auto" font-size="9.991673605334999px" transform="">1</text><text class="pin-number" x="1073.438800999515" y="169.36663891195002" style="font-family: sans-serif;" fill="rgb(169, 0, 0)" text-anchor="start" dominant-baseline="middle" font-size="9.991673605334999px" transform="">GND</text><line class="component-pin" x1="1066.777685262625" y1="182.68887038573" x2="1040.133222315065" y2="182.68887038573" stroke-width="1.332223147378px"/><g data-schematic-port-id="source_port_5"><rect x="1038.800999167687" y="181.35664723835202" width="2.664446294756" height="2.664446294756" opacity="0"/></g><text class="pin-number" x="1053.455453788845" y="181.356647238352" style="font-family: sans-serif;" fill="rgb(169, 0, 0)" text-anchor="middle" dominant-baseline="auto" font-size="9.991673605334999px" transform="">2</text><text class="pin-number" x="1073.438800999515" y="182.68887038573" style="font-family: sans-serif;" fill="rgb(169, 0, 0)" text-anchor="start" dominant-baseline="middle" font-size="9.991673605334999px" transform="">VCC</text><line class="component-pin" x1="1066.777685262625" y1="196.01110185951" x2="1040.133222315065" y2="196.01110185951" stroke-width="1.332223147378px"/><g data-schematic-port-id="source_port_6"><rect x="1038.800999167687" y="194.67887871213202" width="2.664446294756" height="2.664446294756" opacity="0"/></g><text class="pin-number" x="1053.455453788845" y="194.67887871213202" style="font-family: sans-serif;" fill="rgb(169, 0, 0)" text-anchor="middle" dominant-baseline="auto" font-size="9.991673605334999px" transform="">3</text><text class="pin-number" x="1073.438800999515" y="196.01110185951" style="font-family: sans-serif;" fill="rgb(169, 0, 0)" text-anchor="start" dominant-baseline="middle" font-size="9.991673605334999px" transform="">SCK</text><line class="component-pin" x1="1066.777685262625" y1="209.33333333329" x2="1040.133222315065" y2="209.33333333329" stroke-width="1.332223147378px"/><g data-schematic-port-id="source_port_7"><rect x="1038.800999167687" y="208.001110185912" width="2.664446294756" height="2.664446294756" opacity="0"/></g><text class="pin-number" x="1053.455453788845" y="208.001110185912" style="font-family: sans-serif;" fill="rgb(169, 0, 0)" text-anchor="middle" dominant-baseline="auto" font-size="9.991673605334999px" transform="">4</text><text class="pin-number" x="1073.438800999515" y="209.33333333329" style="font-family: sans-serif;" fill="rgb(169, 0, 0)" text-anchor="start" dominant-baseline="middle" font-size="9.991673605334999px" transform="">SO</text><line class="component-pin" x1="1066.777685262625" y1="222.65556480707" x2="1041.4654454624429" y2="222.65556480707" stroke-width="1.332223147378px"/><g data-schematic-port-id="source_port_8"><circle class="component-pin" cx="1040.133222315065" cy="222.65556480707" r="1.332223147378" stroke-width="1.332223147378px"/><rect x="1038.800999167687" y="221.323341659692" width="2.664446294756" height="2.664446294756" opacity="0"/></g><text class="pin-number" x="1053.455453788845" y="221.323341659692" style="font-family: sans-serif;" fill="rgb(169, 0, 0)" text-anchor="middle" dominant-baseline="auto" font-size="9.991673605334999px" transform="">5</text><text class="pin-number" x="1073.438800999515" y="222.65556480707" style="font-family: sans-serif;" fill="rgb(169, 0, 0)" text-anchor="start" dominant-baseline="middle" font-size="9.991673605334999px" transform="">NC</text><line class="component-pin" x1="1066.777685262625" y1="235.97779628085" x2="1040.133222315065" y2="235.97779628085" stroke-width="1.332223147378px"/><g data-schematic-port-id="source_port_9"><rect x="1038.800999167687" y="234.645573133472" width="2.664446294756" height="2.664446294756" opacity="0"/></g><text class="pin-number" x="1053.455453788845" y="234.645573133472" style="font-family: sans-serif;" fill="rgb(169, 0, 0)" text-anchor="middle" dominant-baseline="auto" font-size="9.991673605334999px" transform="">6</text><text class="pin-number" x="1073.438800999515" y="235.97779628085" style="font-family: sans-serif; text-decoration: overline;" fill="rgb(169, 0, 0)" text-anchor="start" dominant-baseline="middle" font-size="7.993338884267999px" transform="">CS</text></g><g data-circuit-json-type="schematic_component" data-schematic-component-id="schematic_component_3"><rect class="component chip" x="543.8800999167601" y="169.36663891195002" width="79.93338884267996" height="66.61115736889997" stroke-width="1.332223147378px" fill="rgb(255, 255, 194)" stroke="rgb(132, 0, 0)"/><rect class="component-overlay" x="543.8800999167601" y="169.36663891195002" width="79.93338884267996" height="66.61115736889997" fill="transparent"/><text x="543.8800999167601" y="244.637246738807" fill="#006464" text-anchor="start" dominant-baseline="middle" font-family="sans-serif" font-size="11.990008326401998px" transform="rotate(0, 543.8800999167601, 244.637246738807)">MAX31855KASA_T</text><text x="543.8800999167601" y="160.707188453993" fill="#006464" text-anchor="start" dominant-baseline="middle" font-family="sans-serif" font-size="11.990008326401998px" transform="rotate(0, 543.8800999167601, 160.707188453993)">U1</text><line class="component-pin" x1="543.8800999167601" y1="196.01110185951" x2="517.2356369692001" y2="196.01110185951" stroke-width="1.332223147378px"/><g data-schematic-port-id="source_port_10"><rect x="515.903413821822" y="194.67887871213202" width="2.664446294756" height="2.664446294756" opacity="0"/></g><text class="pin-number" x="530.5578684429801" y="194.678878712132" style="font-family: sans-serif;" fill="rgb(169, 0, 0)" text-anchor="middle" dominant-baseline="auto" font-size="9.991673605334999px" transform="">1</text><text class="pin-number" x="550.54121565365" y="196.01110185951" style="font-family: sans-serif;" fill="rgb(169, 0, 0)" text-anchor="start" dominant-baseline="middle" font-size="9.991673605334999px" transform="">GND</text><line class="component-pin" x1="543.8800999167601" y1="209.33333333329" x2="517.2356369692001" y2="209.33333333329" stroke-width="1.332223147378px"/><g data-schematic-port-id="source_port_11"><rect x="515.903413821822" y="208.001110185912" width="2.664446294756" height="2.664446294756" opacity="0"/></g><text class="pin-number" x="530.5578684429801" y="208.001110185912" style="font-family: sans-serif;" fill="rgb(169, 0, 0)" text-anchor="middle" dominant-baseline="auto" font-size="9.991673605334999px" transform="">2</text><text class="pin-number" x="550.54121565365" y="209.33333333329" style="font-family: sans-serif;" fill="rgb(169, 0, 0)" text-anchor="start" dominant-baseline="middle" font-size="9.991673605334999px" transform="">T_NEG</text><line class="component-pin" x1="543.8800999167601" y1="222.65556480707" x2="517.2356369692001" y2="222.65556480707" stroke-width="1.332223147378px"/><g data-schematic-port-id="source_port_12"><rect x="515.903413821822" y="221.323341659692" width="2.664446294756" height="2.664446294756" opacity="0"/></g><text class="pin-number" x="530.5578684429801" y="221.323341659692" style="font-family: sans-serif;" fill="rgb(169, 0, 0)" text-anchor="middle" dominant-baseline="auto" font-size="9.991673605334999px" transform="">3</text><text class="pin-number" x="550.54121565365" y="222.65556480707" style="font-family: sans-serif;" fill="rgb(169, 0, 0)" text-anchor="start" dominant-baseline="middle" font-size="9.991673605334999px" transform="">T_POS</text><line class="component-pin" x1="543.8800999167601" y1="182.68887038573" x2="517.2356369692001" y2="182.68887038573" stroke-width="1.332223147378px"/><g data-schematic-port-id="source_port_13"><rect x="515.903413821822" y="181.35664723835202" width="2.664446294756" height="2.664446294756" opacity="0"/></g><text class="pin-number" x="530.5578684429801" y="181.356647238352" style="font-family: sans-serif;" fill="rgb(169, 0, 0)" text-anchor="middle" dominant-baseline="auto" font-size="9.991673605334999px" transform="">4</text><text class="pin-number" x="550.54121565365" y="182.68887038573" style="font-family: sans-serif;" fill="rgb(169, 0, 0)" text-anchor="start" dominant-baseline="middle" font-size="9.991673605334999px" transform="">VCC</text><line class="component-pin" x1="623.81348875944" y1="189.34998612262" x2="650.457951707" y2="189.34998612262" stroke-width="1.332223147378px"/><g data-schematic-port-id="source_port_14"><rect x="649.125728559622" y="188.01776297524202" width="2.664446294756" height="2.664446294756" opacity="0"/></g><text class="pin-number" x="637.13572023322" y="188.017762975242" style="font-family: sans-serif;" fill="rgb(169, 0, 0)" text-anchor="middle" dominant-baseline="auto" font-size="9.991673605334999px" transform="">5</text><text class="pin-number" x="617.15237302255" y="189.34998612262" style="font-family: sans-serif;" fill="rgb(169, 0, 0)" text-anchor="end" dominant-baseline="middle" font-size="9.991673605334999px" transform="">SCK</text><line class="component-pin" x1="623.81348875944" y1="202.6722175964" x2="650.457951707" y2="202.6722175964" stroke-width="1.332223147378px"/><g data-schematic-port-id="source_port_15"><rect x="649.125728559622" y="201.33999444902202" width="2.664446294756" height="2.664446294756" opacity="0"/></g><text class="pin-number" x="637.13572023322" y="201.33999444902202" style="font-family: sans-serif;" fill="rgb(169, 0, 0)" text-anchor="middle" dominant-baseline="auto" font-size="9.991673605334999px" transform="">6</text><text class="pin-number" x="617.15237302255" y="202.6722175964" style="font-family: sans-serif;" fill="rgb(169, 0, 0)" text-anchor="end" dominant-baseline="middle" font-size="9.991673605334999px" transform="">CS</text><line class="component-pin" x1="623.81348875944" y1="215.99444907018" x2="650.457951707" y2="215.99444907018" stroke-width="1.332223147378px"/><g data-schematic-port-id="source_port_16"><rect x="649.125728559622" y="214.662225922802" width="2.664446294756" height="2.664446294756" opacity="0"/></g><text class="pin-number" x="637.13572023322" y="214.662225922802" style="font-family: sans-serif;" fill="rgb(169, 0, 0)" text-anchor="middle" dominant-baseline="auto" font-size="9.991673605334999px" transform="">7</text><text class="pin-number" x="617.15237302255" y="215.99444907018" style="font-family: sans-serif;" fill="rgb(169, 0, 0)" text-anchor="end" dominant-baseline="middle" font-size="9.991673605334999px" transform="">SO</text></g><g data-circuit-json-type="schematic_component" data-schematic-component-id="schematic_component_4"><rect class="component-overlay" x="437.30224812652006" y="395.84457396620996" width="19.98334721066999" height="13.322231473779993" fill="transparent"/><path d="M 437.30224812652006 402.50568970309996 L 450.62447960030005 402.50568970309996" stroke="rgb(132, 0, 0)" fill="none" stroke-width="1.332223147378px" stroke-linecap="round"/><path d="M 457.28559533719005 395.84457396620996 L 454.3954455345734 396.5042317986672 L 452.0777253457262 398.3525519721483 L 450.7914876790224 401.0234520081361 L 450.7914876790224 403.98792739806385 L 452.0777253457262 406.6588274340516 L 454.3954455345734 408.5071476075327 L 457.28559533719005 409.16680543998996" stroke="rgb(132, 0, 0)" fill="none" stroke-width="1.332223147378px" stroke-linecap="round"/><text x="458.95087427141254" y="402.50568970309996" stroke="rgb(245, 241, 237)" stroke-width="1.332223147378px" paint-order="stroke" fill="rgb(15, 15, 15)" font-family="sans-serif" text-anchor="start" dominant-baseline="middle" font-size="11.990008326401998px">TP1</text></g><g data-circuit-json-type="schematic_component" data-schematic-component-id="schematic_component_5"><rect class="component-overlay" x="177.51873438781007" y="395.84457396620996" width="19.98334721067002" height="13.322231473779993" fill="transparent"/><path d="M 197.5020815984801 402.50568970309996 L 184.17985012470007 402.50568970309996" stroke="rgb(132, 0, 0)" fill="none" stroke-width="1.332223147378px" stroke-linecap="round"/><path d="M 177.51873438781007 409.16680543998996 L 180.4088841904267 408.5071476075327 L 182.7266043792739 406.6588274340516 L 184.01284204597772 403.98792739806385 L 184.01284204597772 401.0234520081361 L 182.7266043792739 398.3525519721483 L 180.4088841904267 396.5042317986672 L 177.51873438781007 395.84457396620996" stroke="rgb(132, 0, 0)" fill="none" stroke-width="1.332223147378px" stroke-linecap="round"/><text x="175.85345545358757" y="402.50568970309996" stroke="rgb(245, 241, 237)" stroke-width="1.332223147378px" paint-order="stroke" fill="rgb(15, 15, 15)" font-family="sans-serif" text-anchor="end" dominant-baseline="middle" font-size="11.990008326401998px">TP2</text></g><g data-circuit-json-type="schematic_component" data-schematic-component-id="schematic_component_6"><rect class="component-overlay" x="245.46211490408808" y="299.258395781305" width="7.327227310579019" height="73.27227310578996" fill="transparent"/><path d="M 252.12323064097808 322.57230086042 L 252.12323064097808 322.57230086042 L 251.45711906728909 321.906189286731 L 251.45711906728909 321.906189286731 L 250.7910074936001 321.906189286731 L 250.7910074936001 321.906189286731 L 250.7910074936001 321.906189286731 L 250.1248959199111 321.240077713042 L 250.1248959199111 321.240077713042 L 249.4587843462221 321.240077713042 L 249.4587843462221 321.240077713042 L 248.79267277253308 320.573966139353 L 248.79267277253308 320.573966139353 L 248.79267277253308 320.573966139353 L 248.1265611988441 320.573966139353 L 248.1265611988441 319.907854565664 L 248.1265611988441 319.907854565664 L 247.4604496251551 319.907854565664 L 247.4604496251551 319.907854565664 L 247.4604496251551 319.241742991975 L 246.7943380514661 319.241742991975 L 246.7943380514661 319.241742991975 L 246.7943380514661 319.241742991975 L 246.7943380514661 318.575631418286 L 246.7943380514661 318.575631418286 L 246.1282264777771 318.575631418286 L 246.1282264777771 318.575631418286 L 246.1282264777771 317.909519844597 L 246.1282264777771 317.909519844597 L 246.1282264777771 317.909519844597 L 246.1282264777771 317.909519844597 L 246.1282264777771 317.243408270908 L 246.1282264777771 317.243408270908 L 246.1282264777771 317.243408270908 L 246.1282264777771 317.243408270908 L 246.1282264777771 316.577296697219 L 245.46211490408808 316.577296697219 L 245.46211490408808 316.577296697219 L 245.46211490408808 316.577296697219 L 245.46211490408808 315.91118512353 L 245.46211490408808 315.91118512353 L 245.46211490408808 315.91118512353 L 245.46211490408808 315.91118512353 L 245.46211490408808 315.245073549841 L 245.46211490408808 315.245073549841 L 246.1282264777771 315.245073549841 L 246.1282264777771 315.245073549841 L 246.1282264777771 314.578961976152 L 246.1282264777771 314.578961976152 L 246.1282264777771 314.578961976152 L 246.1282264777771 314.578961976152 L 246.1282264777771 313.912850402463 L 246.1282264777771 313.912850402463 L 246.1282264777771 313.912850402463 L 246.1282264777771 313.912850402463 L 246.12822647777708 313.246738828774 L 246.7943380514661 313.246738828774 L 246.7943380514661 313.246738828774 L 246.7943380514661 313.246738828774 L 246.7943380514661 312.580627255085 L 246.7943380514661 312.580627255085 L 247.4604496251551 312.580627255085 L 247.4604496251551 312.580627255085 L 247.4604496251551 311.914515681396 L 248.1265611988441 311.914515681396 L 248.1265611988441 311.914515681396 L 248.1265611988441 311.914515681396 L 248.79267277253308 311.248404107707 L 248.79267277253308 311.248404107707 L 248.79267277253308 311.248404107707 L 249.4587843462221 311.248404107707 L 249.4587843462221 310.582292534018 L 250.1248959199111 310.582292534018 L 250.1248959199111 310.582292534018 L 250.7910074936001 310.582292534018 L 250.7910074936001 309.91618096032903 L 250.7910074936001 309.91618096032903 L 251.45711906728909 309.91618096032903 L 251.45711906728909 309.91618096032903 L 252.12323064097808 309.25006938664 L 252.12323064097808 309.25006938664" stroke="rgb(132, 0, 0)" fill="none" stroke-width="1.332223147378px" stroke-linecap="round"/><path d="M 252.12323064097808 335.8945323342 L 252.12323064097808 335.8945323342 L 251.45711906728909 335.22842076051097 L 251.45711906728909 335.22842076051097 L 250.7910074936001 335.22842076051097 L 250.7910074936001 335.22842076051097 L 250.7910074936001 334.562309186822 L 250.1248959199111 334.562309186822 L 250.1248959199111 334.562309186822 L 249.4587843462221 334.562309186822 L 249.4587843462221 333.896197613133 L 248.79267277253308 333.896197613133 L 248.79267277253308 333.896197613133 L 248.79267277253308 333.896197613133 L 248.1265611988441 333.230086039444 L 248.1265611988441 333.230086039444 L 248.1265611988441 333.230086039444 L 247.4604496251551 333.230086039444 L 247.4604496251551 332.563974465755 L 247.4604496251551 332.563974465755 L 246.7943380514661 332.563974465755 L 246.7943380514661 332.563974465755 L 246.7943380514661 331.897862892066 L 246.7943380514661 331.897862892066 L 246.7943380514661 331.897862892066 L 246.1282264777771 331.897862892066 L 246.1282264777771 331.231751318377 L 246.1282264777771 331.231751318377 L 246.1282264777771 331.231751318377 L 246.1282264777771 331.231751318377 L 246.1282264777771 330.565639744688 L 246.1282264777771 330.565639744688 L 246.1282264777771 330.565639744688 L 246.1282264777771 330.565639744688 L 246.1282264777771 329.899528170999 L 246.1282264777771 329.899528170999 L 245.46211490408808 329.899528170999 L 245.46211490408808 329.899528170999 L 245.46211490408808 329.23341659731 L 245.46211490408808 329.23341659731 L 245.46211490408808 329.23341659731 L 245.46211490408808 329.23341659731 L 245.46211490408808 328.567305023621 L 245.46211490408808 328.567305023621 L 245.46211490408808 328.567305023621 L 246.1282264777771 328.567305023621 L 246.1282264777771 327.901193449932 L 246.1282264777771 327.901193449932 L 246.1282264777771 327.901193449932 L 246.1282264777771 327.901193449932 L 246.1282264777771 327.235081876243 L 246.1282264777771 327.235081876243 L 246.1282264777771 327.235081876243 L 246.1282264777771 327.235081876243 L 246.1282264777771 326.568970302554 L 246.1282264777771 326.568970302554 L 246.7943380514661 326.568970302554 L 246.7943380514661 326.568970302554 L 246.7943380514661 325.902858728865 L 246.7943380514661 325.902858728865 L 246.7943380514661 325.902858728865 L 247.4604496251551 325.902858728865 L 247.4604496251551 325.236747155176 L 247.4604496251551 325.236747155176 L 248.1265611988441 325.236747155176 L 248.1265611988441 325.236747155176 L 248.1265611988441 324.570635581487 L 248.79267277253308 324.570635581487 L 248.79267277253308 324.570635581487 L 248.79267277253308 324.570635581487 L 249.4587843462221 323.904524007798 L 249.4587843462221 323.904524007798 L 250.1248959199111 323.904524007798 L 250.1248959199111 323.904524007798 L 250.7910074936001 323.238412434109 L 250.7910074936001 323.238412434109 L 250.7910074936001 323.238412434109 L 251.45711906728909 323.238412434109 L 251.45711906728909 322.57230086042 L 252.12323064097808 322.57230086042 L 252.12323064097808 322.57230086042" stroke="rgb(132, 0, 0)" fill="none" stroke-width="1.332223147378px" stroke-linecap="round"/><path d="M 252.12323064097808 349.21676380798 L 252.12323064097808 349.21676380798 L 251.45711906728909 348.55065223429096 L 251.45711906728909 348.55065223429096 L 250.7910074936001 348.55065223429096 L 250.7910074936001 348.55065223429096 L 250.7910074936001 347.884540660602 L 250.1248959199111 347.884540660602 L 250.1248959199111 347.884540660602 L 249.4587843462221 347.884540660602 L 249.4587843462221 347.218429086913 L 248.79267277253308 347.218429086913 L 248.79267277253308 347.218429086913 L 248.79267277253308 347.218429086913 L 248.1265611988441 346.552317513224 L 248.1265611988441 346.552317513224 L 248.1265611988441 346.552317513224 L 247.4604496251551 346.552317513224 L 247.4604496251551 345.886205939535 L 247.4604496251551 345.886205939535 L 246.7943380514661 345.886205939535 L 246.7943380514661 345.886205939535 L 246.7943380514661 345.22009436584597 L 246.7943380514661 345.22009436584597 L 246.7943380514661 345.22009436584597 L 246.1282264777771 345.22009436584597 L 246.1282264777771 344.553982792157 L 246.1282264777771 344.553982792157 L 246.1282264777771 344.553982792157 L 246.1282264777771 344.553982792157 L 246.1282264777771 343.887871218468 L 246.1282264777771 343.887871218468 L 246.1282264777771 343.887871218468 L 246.1282264777771 343.887871218468 L 246.1282264777771 343.221759644779 L 246.1282264777771 343.221759644779 L 245.46211490408808 343.221759644779 L 245.46211490408808 343.221759644779 L 245.46211490408808 342.55564807109 L 245.46211490408808 342.55564807109 L 245.46211490408808 342.55564807109 L 245.46211490408808 342.55564807109 L 245.46211490408808 341.88953649740097 L 245.46211490408808 341.88953649740097 L 245.46211490408808 341.88953649740097 L 246.1282264777771 341.88953649740097 L 246.1282264777771 341.223424923712 L 246.1282264777771 341.223424923712 L 246.1282264777771 341.223424923712 L 246.1282264777771 341.223424923712 L 246.1282264777771 340.557313350023 L 246.1282264777771 340.557313350023 L 246.1282264777771 340.557313350023 L 246.1282264777771 340.557313350023 L 246.1282264777771 339.891201776334 L 246.1282264777771 339.891201776334 L 246.7943380514661 339.891201776334 L 246.7943380514661 339.891201776334 L 246.7943380514661 339.225090202645 L 246.7943380514661 339.225090202645 L 246.7943380514661 339.225090202645 L 247.4604496251551 339.225090202645 L 247.4604496251551 338.55897862895597 L 247.4604496251551 338.55897862895597 L 248.1265611988441 338.55897862895597 L 248.1265611988441 338.55897862895597 L 248.1265611988441 337.892867055267 L 248.79267277253308 337.892867055267 L 248.79267277253308 337.892867055267 L 248.79267277253308 337.892867055267 L 249.4587843462221 337.226755481578 L 249.4587843462221 337.226755481578 L 250.1248959199111 337.226755481578 L 250.1248959199111 337.226755481578 L 250.7910074936001 336.560643907889 L 250.7910074936001 336.560643907889 L 250.7910074936001 336.560643907889 L 251.45711906728909 336.560643907889 L 251.45711906728909 335.8945323342 L 252.12323064097808 335.8945323342 L 252.12323064097808 335.8945323342" stroke="rgb(132, 0, 0)" fill="none" stroke-width="1.332223147378px" stroke-linecap="round"/><path d="M 252.12323064097808 362.53899528176 L 252.12323064097808 361.87288370807096 L 251.45711906728909 361.87288370807096 L 251.45711906728909 361.87288370807096 L 250.7910074936001 361.87288370807096 L 250.7910074936001 361.87288370807096 L 250.7910074936001 361.206772134382 L 250.1248959199111 361.206772134382 L 250.1248959199111 361.206772134382 L 249.4587843462221 361.206772134382 L 249.4587843462221 360.54066056069297 L 248.79267277253308 360.54066056069297 L 248.79267277253308 360.54066056069297 L 248.79267277253308 360.54066056069297 L 248.1265611988441 359.874548987004 L 248.1265611988441 359.874548987004 L 248.1265611988441 359.874548987004 L 247.4604496251551 359.874548987004 L 247.4604496251551 359.208437413315 L 247.4604496251551 359.208437413315 L 246.7943380514661 359.208437413315 L 246.7943380514661 359.208437413315 L 246.7943380514661 358.54232583962596 L 246.7943380514661 358.54232583962596 L 246.7943380514661 358.54232583962596 L 246.1282264777771 358.54232583962596 L 246.1282264777771 357.876214265937 L 246.1282264777771 357.876214265937 L 246.1282264777771 357.876214265937 L 246.1282264777771 357.876214265937 L 246.1282264777771 357.210102692248 L 246.1282264777771 357.210102692248 L 246.1282264777771 357.210102692248 L 246.1282264777771 357.210102692248 L 246.1282264777771 356.543991118559 L 246.1282264777771 356.543991118559 L 245.46211490408808 356.543991118559 L 245.46211490408808 356.543991118559 L 245.46211490408808 355.87787954487 L 245.46211490408808 355.87787954487 L 245.46211490408808 355.87787954487 L 245.46211490408808 355.87787954487 L 245.46211490408808 355.21176797118096 L 245.46211490408808 355.21176797118096 L 245.46211490408808 355.21176797118096 L 246.1282264777771 355.21176797118096 L 246.1282264777771 354.545656397492 L 246.1282264777771 354.545656397492 L 246.1282264777771 354.545656397492 L 246.1282264777771 354.545656397492 L 246.1282264777771 353.879544823803 L 246.1282264777771 353.879544823803 L 246.1282264777771 353.879544823803 L 246.1282264777771 353.879544823803 L 246.1282264777771 353.213433250114 L 246.1282264777771 353.213433250114 L 246.7943380514661 353.213433250114 L 246.7943380514661 353.213433250114 L 246.7943380514661 352.547321676425 L 246.7943380514661 352.547321676425 L 246.7943380514661 352.547321676425 L 247.4604496251551 352.547321676425 L 247.4604496251551 351.88121010273596 L 247.4604496251551 351.88121010273596 L 248.1265611988441 351.88121010273596 L 248.1265611988441 351.88121010273596 L 248.1265611988441 351.215098529047 L 248.79267277253308 351.215098529047 L 248.79267277253308 351.215098529047 L 248.79267277253308 351.215098529047 L 249.4587843462221 350.548986955358 L 249.4587843462221 350.548986955358 L 250.1248959199111 350.548986955358 L 250.1248959199111 350.548986955358 L 250.7910074936001 349.882875381669 L 250.7910074936001 349.882875381669 L 250.7910074936001 349.882875381669 L 251.45711906728909 349.882875381669 L 251.45711906728909 349.21676380798 L 252.12323064097808 349.21676380798 L 252.12323064097808 349.21676380798" stroke="rgb(132, 0, 0)" fill="none" stroke-width="1.332223147378px" stroke-linecap="round"/><path d="M 252.12323064097808 309.25006938664 L 252.12323064097808 299.258395781305" stroke="rgb(132, 0, 0)" fill="none" stroke-width="1.332223147378px" stroke-linecap="round"/><path d="M 252.7893422146671 372.530668887095 L 252.7893422146671 362.53899528176" stroke="rgb(132, 0, 0)" fill="none" stroke-width="1.332223147378px" stroke-linecap="round"/><text x="235.4704412987531" y="335.8945323342" stroke="rgb(245, 241, 237)" stroke-width="1.332223147378px" paint-order="stroke" fill="rgb(15, 15, 15)" font-family="sans-serif" text-anchor="end" dominant-baseline="middle" font-size="11.990008326401998px">L1</text><text x="266.1115736884471" y="335.8945323342" fill="rgb(15, 15, 15)" font-family="sans-serif" text-anchor="start" dominant-baseline="middle" font-size="11.990008326401998px">470H</text></g><g data-circuit-json-type="schematic_component" data-schematic-component-id="schematic_component_7"><rect class="component-overlay" x="378.684429641888" y="299.258395781305" width="7.327227310579019" height="73.27227310578996" fill="transparent"/><path d="M 385.345545378778 322.57230086042 L 385.345545378778 322.57230086042 L 384.67943380508905 321.906189286731 L 384.67943380508905 321.906189286731 L 384.0133222314 321.906189286731 L 384.0133222314 321.906189286731 L 384.0133222314 321.906189286731 L 383.347210657711 321.240077713042 L 383.347210657711 321.240077713042 L 382.68109908402204 321.240077713042 L 382.68109908402204 321.240077713042 L 382.014987510333 320.573966139353 L 382.014987510333 320.573966139353 L 382.014987510333 320.573966139353 L 381.34887593664405 320.573966139353 L 381.34887593664405 319.907854565664 L 381.34887593664405 319.907854565664 L 380.682764362955 319.907854565664 L 380.682764362955 319.907854565664 L 380.682764362955 319.241742991975 L 380.016652789266 319.241742991975 L 380.016652789266 319.241742991975 L 380.016652789266 319.241742991975 L 380.016652789266 318.575631418286 L 380.016652789266 318.575631418286 L 379.35054121557704 318.575631418286 L 379.35054121557704 318.575631418286 L 379.35054121557704 317.909519844597 L 379.35054121557704 317.909519844597 L 379.35054121557704 317.909519844597 L 379.35054121557704 317.909519844597 L 379.35054121557704 317.243408270908 L 379.35054121557704 317.243408270908 L 379.35054121557704 317.243408270908 L 379.35054121557704 317.243408270908 L 379.35054121557704 316.577296697219 L 378.684429641888 316.577296697219 L 378.684429641888 316.577296697219 L 378.684429641888 316.577296697219 L 378.684429641888 315.91118512353 L 378.684429641888 315.91118512353 L 378.684429641888 315.91118512353 L 378.684429641888 315.91118512353 L 378.684429641888 315.245073549841 L 378.684429641888 315.245073549841 L 379.35054121557704 315.245073549841 L 379.35054121557704 315.245073549841 L 379.35054121557704 314.578961976152 L 379.35054121557704 314.578961976152 L 379.35054121557704 314.578961976152 L 379.35054121557704 314.578961976152 L 379.35054121557704 313.912850402463 L 379.35054121557704 313.912850402463 L 379.35054121557704 313.912850402463 L 379.35054121557704 313.912850402463 L 379.35054121557704 313.246738828774 L 380.016652789266 313.246738828774 L 380.016652789266 313.246738828774 L 380.016652789266 313.246738828774 L 380.016652789266 312.580627255085 L 380.016652789266 312.580627255085 L 380.682764362955 312.580627255085 L 380.682764362955 312.580627255085 L 380.682764362955 311.914515681396 L 381.34887593664405 311.914515681396 L 381.34887593664405 311.914515681396 L 381.34887593664405 311.914515681396 L 382.014987510333 311.248404107707 L 382.014987510333 311.248404107707 L 382.014987510333 311.248404107707 L 382.68109908402204 311.248404107707 L 382.68109908402204 310.582292534018 L 383.347210657711 310.582292534018 L 383.347210657711 310.582292534018 L 384.0133222314 310.582292534018 L 384.0133222314 309.91618096032903 L 384.0133222314 309.91618096032903 L 384.67943380508905 309.91618096032903 L 384.67943380508905 309.91618096032903 L 385.345545378778 309.25006938664 L 385.345545378778 309.25006938664" stroke="rgb(132, 0, 0)" fill="none" stroke-width="1.332223147378px" stroke-linecap="round"/><path d="M 385.345545378778 335.8945323342 L 385.345545378778 335.8945323342 L 384.67943380508905 335.22842076051097 L 384.67943380508905 335.22842076051097 L 384.0133222314 335.22842076051097 L 384.0133222314 335.22842076051097 L 384.0133222314 334.562309186822 L 383.347210657711 334.562309186822 L 383.347210657711 334.562309186822 L 382.68109908402204 334.562309186822 L 382.68109908402204 333.896197613133 L 382.014987510333 333.896197613133 L 382.014987510333 333.896197613133 L 382.014987510333 333.896197613133 L 381.34887593664405 333.230086039444 L 381.34887593664405 333.230086039444 L 381.34887593664405 333.230086039444 L 380.682764362955 333.230086039444 L 380.682764362955 332.563974465755 L 380.682764362955 332.563974465755 L 380.016652789266 332.563974465755 L 380.016652789266 332.563974465755 L 380.016652789266 331.897862892066 L 380.016652789266 331.897862892066 L 380.016652789266 331.897862892066 L 379.35054121557704 331.897862892066 L 379.35054121557704 331.231751318377 L 379.35054121557704 331.231751318377 L 379.35054121557704 331.231751318377 L 379.35054121557704 331.231751318377 L 379.35054121557704 330.565639744688 L 379.35054121557704 330.565639744688 L 379.35054121557704 330.565639744688 L 379.35054121557704 330.565639744688 L 379.35054121557704 329.899528170999 L 379.35054121557704 329.899528170999 L 378.684429641888 329.899528170999 L 378.684429641888 329.899528170999 L 378.684429641888 329.23341659731 L 378.684429641888 329.23341659731 L 378.684429641888 329.23341659731 L 378.684429641888 329.23341659731 L 378.684429641888 328.567305023621 L 378.684429641888 328.567305023621 L 378.684429641888 328.567305023621 L 379.35054121557704 328.567305023621 L 379.35054121557704 327.901193449932 L 379.35054121557704 327.901193449932 L 379.35054121557704 327.901193449932 L 379.35054121557704 327.901193449932 L 379.35054121557704 327.235081876243 L 379.35054121557704 327.235081876243 L 379.35054121557704 327.235081876243 L 379.35054121557704 327.235081876243 L 379.35054121557704 326.568970302554 L 379.35054121557704 326.568970302554 L 380.016652789266 326.568970302554 L 380.016652789266 326.568970302554 L 380.016652789266 325.902858728865 L 380.016652789266 325.902858728865 L 380.016652789266 325.902858728865 L 380.682764362955 325.902858728865 L 380.682764362955 325.236747155176 L 380.682764362955 325.236747155176 L 381.34887593664405 325.236747155176 L 381.34887593664405 325.236747155176 L 381.34887593664405 324.570635581487 L 382.014987510333 324.570635581487 L 382.014987510333 324.570635581487 L 382.014987510333 324.570635581487 L 382.68109908402204 323.904524007798 L 382.68109908402204 323.904524007798 L 383.347210657711 323.904524007798 L 383.347210657711 323.904524007798 L 384.0133222314 323.238412434109 L 384.0133222314 323.238412434109 L 384.0133222314 323.238412434109 L 384.67943380508905 323.238412434109 L 384.67943380508905 322.57230086042 L 385.345545378778 322.57230086042 L 385.345545378778 322.57230086042" stroke="rgb(132, 0, 0)" fill="none" stroke-width="1.332223147378px" stroke-linecap="round"/><path d="M 385.345545378778 349.21676380798 L 385.345545378778 349.21676380798 L 384.67943380508905 348.55065223429096 L 384.67943380508905 348.55065223429096 L 384.0133222314 348.55065223429096 L 384.0133222314 348.55065223429096 L 384.0133222314 347.884540660602 L 383.347210657711 347.884540660602 L 383.347210657711 347.884540660602 L 382.68109908402204 347.884540660602 L 382.68109908402204 347.218429086913 L 382.014987510333 347.218429086913 L 382.014987510333 347.218429086913 L 382.014987510333 347.218429086913 L 381.34887593664405 346.552317513224 L 381.34887593664405 346.552317513224 L 381.34887593664405 346.552317513224 L 380.682764362955 346.552317513224 L 380.682764362955 345.886205939535 L 380.682764362955 345.886205939535 L 380.016652789266 345.886205939535 L 380.016652789266 345.886205939535 L 380.016652789266 345.22009436584597 L 380.016652789266 345.22009436584597 L 380.016652789266 345.22009436584597 L 379.35054121557704 345.22009436584597 L 379.35054121557704 344.553982792157 L 379.35054121557704 344.553982792157 L 379.35054121557704 344.553982792157 L 379.35054121557704 344.553982792157 L 379.35054121557704 343.887871218468 L 379.35054121557704 343.887871218468 L 379.35054121557704 343.887871218468 L 379.35054121557704 343.887871218468 L 379.35054121557704 343.221759644779 L 379.35054121557704 343.221759644779 L 378.684429641888 343.221759644779 L 378.684429641888 343.221759644779 L 378.684429641888 342.55564807109 L 378.684429641888 342.55564807109 L 378.684429641888 342.55564807109 L 378.684429641888 342.55564807109 L 378.684429641888 341.88953649740097 L 378.684429641888 341.88953649740097 L 378.684429641888 341.88953649740097 L 379.35054121557704 341.88953649740097 L 379.35054121557704 341.223424923712 L 379.35054121557704 341.223424923712 L 379.35054121557704 341.223424923712 L 379.35054121557704 341.223424923712 L 379.35054121557704 340.557313350023 L 379.35054121557704 340.557313350023 L 379.35054121557704 340.557313350023 L 379.35054121557704 340.557313350023 L 379.35054121557704 339.891201776334 L 379.35054121557704 339.891201776334 L 380.016652789266 339.891201776334 L 380.016652789266 339.891201776334 L 380.016652789266 339.225090202645 L 380.016652789266 339.225090202645 L 380.016652789266 339.225090202645 L 380.682764362955 339.225090202645 L 380.682764362955 338.55897862895597 L 380.682764362955 338.55897862895597 L 381.34887593664405 338.55897862895597 L 381.34887593664405 338.55897862895597 L 381.34887593664405 337.892867055267 L 382.014987510333 337.892867055267 L 382.014987510333 337.892867055267 L 382.014987510333 337.892867055267 L 382.68109908402204 337.226755481578 L 382.68109908402204 337.226755481578 L 383.347210657711 337.226755481578 L 383.347210657711 337.226755481578 L 384.0133222314 336.560643907889 L 384.0133222314 336.560643907889 L 384.0133222314 336.560643907889 L 384.67943380508905 336.560643907889 L 384.67943380508905 335.8945323342 L 385.345545378778 335.8945323342 L 385.345545378778 335.8945323342" stroke="rgb(132, 0, 0)" fill="none" stroke-width="1.332223147378px" stroke-linecap="round"/><path d="M 385.345545378778 362.53899528176 L 385.345545378778 361.87288370807096 L 384.67943380508905 361.87288370807096 L 384.67943380508905 361.87288370807096 L 384.0133222314 361.87288370807096 L 384.0133222314 361.87288370807096 L 384.0133222314 361.206772134382 L 383.347210657711 361.206772134382 L 383.347210657711 361.206772134382 L 382.68109908402204 361.206772134382 L 382.68109908402204 360.54066056069297 L 382.014987510333 360.54066056069297 L 382.014987510333 360.54066056069297 L 382.014987510333 360.54066056069297 L 381.34887593664405 359.874548987004 L 381.34887593664405 359.874548987004 L 381.34887593664405 359.874548987004 L 380.682764362955 359.874548987004 L 380.682764362955 359.208437413315 L 380.682764362955 359.208437413315 L 380.016652789266 359.208437413315 L 380.016652789266 359.208437413315 L 380.016652789266 358.54232583962596 L 380.016652789266 358.54232583962596 L 380.016652789266 358.54232583962596 L 379.35054121557704 358.54232583962596 L 379.35054121557704 357.876214265937 L 379.35054121557704 357.876214265937 L 379.35054121557704 357.876214265937 L 379.35054121557704 357.876214265937 L 379.35054121557704 357.210102692248 L 379.35054121557704 357.210102692248 L 379.35054121557704 357.210102692248 L 379.35054121557704 357.210102692248 L 379.35054121557704 356.543991118559 L 379.35054121557704 356.543991118559 L 378.684429641888 356.543991118559 L 378.684429641888 356.543991118559 L 378.684429641888 355.87787954487 L 378.684429641888 355.87787954487 L 378.684429641888 355.87787954487 L 378.684429641888 355.87787954487 L 378.684429641888 355.21176797118096 L 378.684429641888 355.21176797118096 L 378.684429641888 355.21176797118096 L 379.35054121557704 355.21176797118096 L 379.35054121557704 354.545656397492 L 379.35054121557704 354.545656397492 L 379.35054121557704 354.545656397492 L 379.35054121557704 354.545656397492 L 379.35054121557704 353.879544823803 L 379.35054121557704 353.879544823803 L 379.35054121557704 353.879544823803 L 379.35054121557704 353.879544823803 L 379.35054121557704 353.213433250114 L 379.35054121557704 353.213433250114 L 380.016652789266 353.213433250114 L 380.016652789266 353.213433250114 L 380.016652789266 352.547321676425 L 380.016652789266 352.547321676425 L 380.016652789266 352.547321676425 L 380.682764362955 352.547321676425 L 380.682764362955 351.88121010273596 L 380.682764362955 351.88121010273596 L 381.34887593664405 351.88121010273596 L 381.34887593664405 351.88121010273596 L 381.34887593664405 351.215098529047 L 382.014987510333 351.215098529047 L 382.014987510333 351.215098529047 L 382.014987510333 351.215098529047 L 382.68109908402204 350.548986955358 L 382.68109908402204 350.548986955358 L 383.347210657711 350.548986955358 L 383.347210657711 350.548986955358 L 384.0133222314 349.882875381669 L 384.0133222314 349.882875381669 L 384.0133222314 349.882875381669 L 384.67943380508905 349.882875381669 L 384.67943380508905 349.21676380798 L 385.345545378778 349.21676380798 L 385.345545378778 349.21676380798" stroke="rgb(132, 0, 0)" fill="none" stroke-width="1.332223147378px" stroke-linecap="round"/><path d="M 385.345545378778 309.25006938664 L 385.345545378778 299.258395781305" stroke="rgb(132, 0, 0)" fill="none" stroke-width="1.332223147378px" stroke-linecap="round"/><path d="M 386.01165695246704 372.530668887095 L 386.01165695246704 362.53899528176" stroke="rgb(132, 0, 0)" fill="none" stroke-width="1.332223147378px" stroke-linecap="round"/><text x="368.692756036553" y="335.8945323342" stroke="rgb(245, 241, 237)" stroke-width="1.332223147378px" paint-order="stroke" fill="rgb(15, 15, 15)" font-family="sans-serif" text-anchor="end" dominant-baseline="middle" font-size="11.990008326401998px">L2</text><text x="399.33388842624703" y="335.8945323342" fill="rgb(15, 15, 15)" font-family="sans-serif" text-anchor="start" dominant-baseline="middle" font-size="11.990008326401998px">470H</text></g><g data-circuit-json-type="schematic_component" data-schematic-component-id="schematic_component_8"><rect class="component-overlay" x="841.631973355743" y="99.42492367460505" width="17.985012489603037" height="73.27227310578996" fill="transparent"/><path d="M 850.2914238137 172.69719678039502 L 850.2914238137 154.04607271710302" stroke="rgb(132, 0, 0)" fill="none" stroke-width="1.332223147378px" stroke-linecap="round"/><path d="M 850.2914238137 118.74215931158604 L 850.2914238137 99.42492367460505" stroke="rgb(132, 0, 0)" fill="none" stroke-width="1.332223147378px" stroke-linecap="round"/><path d="M 841.631973355743 136.06106022750004 L 841.631973355743 118.74215931158604 L 859.616985845346 118.74215931158604 L 859.616985845346 154.04607271710302 L 841.631973355743 154.04607271710302 L 841.631973355743 136.06106022750004" stroke="rgb(132, 0, 0)" fill="none" stroke-width="1.332223147378px" stroke-linecap="round"/><text x="868.906268110131" y="126.73549819585403" stroke="rgb(245, 241, 237)" stroke-width="1.332223147378px" paint-order="stroke" fill="rgb(15, 15, 15)" font-family="sans-serif" text-anchor="start" dominant-baseline="middle" font-size="11.990008326401998px">R1</text><text x="868.906268110131" y="148.05106855390204" fill="rgb(15, 15, 15)" font-family="sans-serif" text-anchor="start" dominant-baseline="middle" font-size="11.990008326401998px">10kΩ</text></g><g data-circuit-json-type="schematic_component" data-schematic-component-id="schematic_component_9"><rect class="component chip" x="297.41881765183007" y="522.4057729671199" width="39.96669442133998" height="26.6444629475601" stroke-width="1.332223147378px" fill="rgb(255, 255, 194)" stroke="rgb(132, 0, 0)"/><rect class="component-overlay" x="297.41881765183007" y="522.4057729671199" width="39.96669442133998" height="26.6444629475601" fill="transparent"/><text x="344.04662781006004" y="499.09186788800497" fill="#006464" text-anchor="start" dominant-baseline="middle" font-family="sans-serif" font-size="11.990008326401998px" transform="rotate(0, 344.04662781006004, 499.09186788800497)"></text><text x="344.04662781006004" y="485.769636414225" fill="#006464" text-anchor="start" dominant-baseline="middle" font-family="sans-serif" font-size="11.990008326401998px" transform="rotate(0, 344.04662781006004, 485.769636414225)">Thermo</text><line class="component-pin" x1="310.74104912561006" y1="522.40577296712" x2="310.74104912561006" y2="495.76131001956" stroke-width="1.332223147378px"/><g data-schematic-port-id="source_port_26"><rect x="309.4088259782321" y="494.42908687218204" width="2.664446294756" height="2.664446294756" opacity="0"/></g><text class="pin-number" x="309.40882597823213" y="509.08354149334" style="font-family: sans-serif;" fill="rgb(169, 0, 0)" text-anchor="middle" dominant-baseline="auto" font-size="9.991673605334999px" transform="rotate(-90 309.40882597823213 509.08354149334)">2</text><line class="component-pin" x1="324.06328059939005" y1="522.40577296712" x2="324.06328059939005" y2="495.76131001956" stroke-width="1.332223147378px"/><g data-schematic-port-id="source_port_27"><rect x="322.73105745201207" y="494.42908687218204" width="2.664446294756" height="2.664446294756" opacity="0"/></g><text class="pin-number" x="322.73105745201207" y="509.08354149334" style="font-family: sans-serif;" fill="rgb(169, 0, 0)" text-anchor="middle" dominant-baseline="auto" font-size="9.991673605334999px" transform="rotate(-90 322.73105745201207 509.08354149334)">1</text></g><g class="schematic-port-hover" data-schematic-port-id="source_port_0"><circle cx="50.957535386900076" cy="166.036081043505" r="2.664446294756" fill="red" opacity="0"/></g><g class="schematic-port-hover" data-schematic-port-id="source_port_1"><circle cx="50.957535386900076" cy="239.308354149295" r="2.664446294756" fill="red" opacity="0"/></g><g class="schematic-port-hover" data-schematic-port-id="source_port_2"><circle cx="280.7660283096051" cy="269.2833749653" r="2.664446294756" fill="red" opacity="0"/></g><g class="schematic-port-hover" data-schematic-port-id="source_port_3"><circle cx="354.03830141539504" cy="269.2833749653" r="2.664446294756" fill="red" opacity="0"/></g><g class="schematic-port-hover" data-schematic-port-id="source_port_4"><circle cx="1040.133222315065" cy="169.36663891195002" r="2.664446294756" fill="red" opacity="0"/></g><g class="schematic-port-hover" data-schematic-port-id="source_port_5"><circle cx="1040.133222315065" cy="182.68887038573" r="2.664446294756" fill="red" opacity="0"/></g><g class="schematic-port-hover" data-schematic-port-id="source_port_6"><circle cx="1040.133222315065" cy="196.01110185951" r="2.664446294756" fill="red" opacity="0"/></g><g class="schematic-port-hover" data-schematic-port-id="source_port_7"><circle cx="1040.133222315065" cy="209.33333333329" r="2.664446294756" fill="red" opacity="0"/></g><g class="schematic-port-hover" data-schematic-port-id="source_port_8"><circle cx="1040.133222315065" cy="222.65556480707" r="2.664446294756" fill="red" opacity="0"/></g><g class="schematic-port-hover" data-schematic-port-id="source_port_9"><circle cx="1040.133222315065" cy="235.97779628085" r="2.664446294756" fill="red" opacity="0"/></g><g class="schematic-port-hover" data-schematic-port-id="source_port_10"><circle cx="517.2356369692001" cy="196.01110185951" r="2.664446294756" fill="red" opacity="0"/></g><g class="schematic-port-hover" data-schematic-port-id="source_port_11"><circle cx="517.2356369692001" cy="209.33333333329" r="2.664446294756" fill="red" opacity="0"/></g><g class="schematic-port-hover" data-schematic-port-id="source_port_12"><circle cx="517.2356369692001" cy="222.65556480707" r="2.664446294756" fill="red" opacity="0"/></g><g class="schematic-port-hover" data-schematic-port-id="source_port_13"><circle cx="517.2356369692001" cy="182.68887038573" r="2.664446294756" fill="red" opacity="0"/></g><g class="schematic-port-hover" data-schematic-port-id="source_port_14"><circle cx="650.457951707" cy="189.34998612262" r="2.664446294756" fill="red" opacity="0"/></g><g class="schematic-port-hover" data-schematic-port-id="source_port_15"><circle cx="650.457951707" cy="202.6722175964" r="2.664446294756" fill="red" opacity="0"/></g><g class="schematic-port-hover" data-schematic-port-id="source_port_16"><circle cx="650.457951707" cy="215.99444907018" r="2.664446294756" fill="red" opacity="0"/></g><g class="schematic-port-hover" data-schematic-port-id="source_port_18"><circle cx="437.30224812652" cy="402.50568970309996" r="2.664446294756" fill="red" opacity="0"/></g><g class="schematic-port-hover" data-schematic-port-id="source_port_19"><circle cx="197.50208159848006" cy="402.50568970309996" r="2.664446294756" fill="red" opacity="0"/></g><g class="schematic-port-hover" data-schematic-port-id="source_port_20"><circle cx="252.12323064097802" cy="299.258395781305" r="2.664446294756" fill="red" opacity="0"/></g><g class="schematic-port-hover" data-schematic-port-id="source_port_21"><circle cx="252.7893422146671" cy="372.530668887095" r="2.664446294756" fill="red" opacity="0"/></g><g class="schematic-port-hover" data-schematic-port-id="source_port_22"><circle cx="385.34554537877807" cy="299.258395781305" r="2.664446294756" fill="red" opacity="0"/></g><g class="schematic-port-hover" data-schematic-port-id="source_port_23"><circle cx="386.0116569524671" cy="372.530668887095" r="2.664446294756" fill="red" opacity="0"/></g><g class="schematic-port-hover" data-schematic-port-id="source_port_24"><circle cx="850.2914238137" cy="172.69719678039502" r="2.664446294756" fill="red" opacity="0"/></g><g class="schematic-port-hover" data-schematic-port-id="source_port_25"><circle cx="850.2914238137" cy="99.42492367460503" r="2.664446294756" fill="red" opacity="0"/></g><g class="schematic-port-hover" data-schematic-port-id="source_port_26"><circle cx="310.74104912561006" cy="495.76131001956" r="2.664446294756" fill="red" opacity="0"/></g><g class="schematic-port-hover" data-schematic-port-id="source_port_27"><circle cx="324.06328059939005" cy="495.76131001956" r="2.664446294756" fill="red" opacity="0"/></g><rect class="component-overlay" x="42.96419650263208" y="140.723841243323" width="15.986677768535998" height="11.990008326402005" fill="transparent"/><path d="M 58.950874271168075 140.723841243323 L 42.96419650263208 140.723841243323" stroke="rgb(132, 0, 0)" fill="none" stroke-width="1.332223147378px" stroke-linecap="round"/><path d="M 50.957535386900076 140.723841243323 L 50.957535386900076 152.713849569725" stroke="rgb(132, 0, 0)" fill="none" stroke-width="1.332223147378px" stroke-linecap="round"/><text x="50.957535386900076" y="137.393283374878" fill="rgb(15, 15, 15)" font-family="sans-serif" text-anchor="middle" dominant-baseline="ideographic" font-size="11.990008326401998px">VCC</text><rect class="component-overlay" x="937.2189841801145" y="74.11268387442298" width="15.986677768536083" height="11.990008326402005" fill="transparent"/><path d="M 953.2056619486506 74.11268387442298 L 937.2189841801145 74.11268387442298" stroke="rgb(132, 0, 0)" fill="none" stroke-width="1.332223147378px" stroke-linecap="round"/><path d="M 945.2123230643825 74.11268387442298 L 945.2123230643825 86.10269220082499" stroke="rgb(132, 0, 0)" fill="none" stroke-width="1.332223147378px" stroke-linecap="round"/><text x="945.2123230643825" y="70.78212600597799" fill="rgb(15, 15, 15)" font-family="sans-serif" text-anchor="middle" dominant-baseline="ideographic" font-size="11.990008326401998px">VCC</text><rect class="component-overlay" x="42.96419650263208" y="240.3075215098285" width="15.986677768535998" height="11.990008326402005" fill="transparent"/><path d="M 42.96419650263208 252.2975298362305 L 58.950874271168075 252.2975298362305" stroke="rgb(132, 0, 0)" fill="none" stroke-width="1.332223147378px" stroke-linecap="round"/><path d="M 50.957535386900076 252.2975298362305 L 50.957535386900076 240.3075215098285" stroke="rgb(132, 0, 0)" fill="none" stroke-width="1.332223147378px" stroke-linecap="round"/><text x="50.957535386900076" y="255.6280877046755" fill="rgb(15, 15, 15)" font-family="sans-serif" text-anchor="middle" dominant-baseline="hanging" font-size="11.990008326401998px">GND</text><path class="net-label" d="
    M 1040.133222315065,169.36663891195002
    L 1036.5362198171445,176.56064390779122
    L 1003.6480710522062,176.56064390779122
    L 1003.6480710522062,162.17263391610882
    L 1036.5362198171445,162.17263391610882
    Z
  " fill="rgba(255, 255, 255, 0.6)" stroke="rgb(132, 0, 0)" stroke-width="1.332223147378px"/><text class="net-label-text" x="1034.138218151864" y="169.36663891195002" fill="rgb(132, 0, 0)" text-anchor="end" dominant-baseline="central" font-family="sans-serif" font-variant-numeric="tabular-nums" font-size="11.990008326401998px" transform="">GND</text><path class="net-label" d="
    M 252.12323064097802,284.27088537330246
    L 248.5262281430574,291.4648903691437
    L 87.73577574218203,291.46489036914363
    L 87.73577574218203,277.07688037746124
    L 248.52622814305744,277.07688037746124
    Z
  " fill="rgba(255, 255, 255, 0.6)" stroke="rgb(132, 0, 0)" stroke-width="1.332223147378px"/><text class="net-label-text" x="246.12822647777702" y="284.27088537330246" fill="rgb(132, 0, 0)" text-anchor="end" dominant-baseline="central" font-family="sans-serif" font-variant-numeric="tabular-nums" font-size="11.990008326401998px" transform="">C2_pin2/U1_T_NEG/L1_pin1</text><path class="net-label" d="
    M 517.2356369692001,209.33333333329
    L 513.6386344712795,216.5273383291312
    L 352.84818207040405,216.52733832913117
    L 352.84818207040405,202.13932833744877
    L 513.6386344712795,202.1393283374488
    Z
  " fill="rgba(255, 255, 255, 0.6)" stroke="rgb(132, 0, 0)" stroke-width="1.332223147378px"/><text class="net-label-text" x="511.2406328059991" y="209.33333333329" fill="rgb(132, 0, 0)" text-anchor="end" dominant-baseline="central" font-family="sans-serif" font-variant-numeric="tabular-nums" font-size="11.990008326401998px" transform="">C2_pin2/U1_T_NEG/L1_pin1</text><path class="net-label" d="
    M 385.34554537877807,284.2708853733025
    L 388.94254787669865,277.0768803774613
    L 549.2889258951147,277.0768803774613
    L 549.2889258951147,291.46489036914375
    L 388.94254787669865,291.46489036914375
    Z
  " fill="rgba(255, 255, 255, 0.6)" stroke="rgb(132, 0, 0)" stroke-width="1.332223147378px"/><text class="net-label-text" x="391.34054954197904" y="284.2708853733025" fill="rgb(132, 0, 0)" text-anchor="start" dominant-baseline="central" font-family="sans-serif" font-variant-numeric="tabular-nums" font-size="11.990008326401998px" transform="">C2_pin1/U1_T_POS/L2_pin1</text><path class="net-label" d="
    M 517.2356369692001,222.65556480707
    L 513.6386344712795,229.8495698029112
    L 353.2922564528634,229.84956980291116
    L 353.2922564528634,215.46155981122877
    L 513.6386344712795,215.4615598112288
    Z
  " fill="rgba(255, 255, 255, 0.6)" stroke="rgb(132, 0, 0)" stroke-width="1.332223147378px"/><text class="net-label-text" x="511.2406328059991" y="222.65556480707" fill="rgb(132, 0, 0)" text-anchor="end" dominant-baseline="central" font-family="sans-serif" font-variant-numeric="tabular-nums" font-size="11.990008326401998px" transform="">C2_pin1/U1_T_POS/L2_pin1</text><path class="net-label" d="
    M 650.457951707,215.99444907018
    L 654.0549542049206,208.8004440743388
    L 747.1507077436952,208.8004440743388
    L 747.1507077436952,223.1884540660212
    L 654.0549542049206,223.1884540660212
    Z
  " fill="rgba(255, 255, 255, 0.6)" stroke="rgb(132, 0, 0)" stroke-width="1.332223147378px"/><text class="net-label-text" x="656.452955870201" y="215.99444907018" fill="rgb(132, 0, 0)" text-anchor="start" dominant-baseline="central" font-family="sans-serif" font-variant-numeric="tabular-nums" font-size="11.990008326401998px" transform="">JP1_SO/U1_SO</text><path class="net-label" d="
    M 1040.133222315065,209.33333333329
    L 1036.5362198171445,216.5273383291312
    L 943.4404662783699,216.5273383291312
    L 943.4404662783699,202.1393283374488
    L 1036.5362198171445,202.1393283374488
    Z
  " fill="rgba(255, 255, 255, 0.6)" stroke="rgb(132, 0, 0)" stroke-width="1.332223147378px"/><text class="net-label-text" x="1034.138218151864" y="209.33333333329" fill="rgb(132, 0, 0)" text-anchor="end" dominant-baseline="central" font-family="sans-serif" font-variant-numeric="tabular-nums" font-size="11.990008326401998px" transform="">JP1_SO/U1_SO</text><path class="net-label" d="
    M 737.0524562865701,202.6722175964
    L 744.2464612824112,206.2692200943206
    L 744.2464612824112,359.8479045240564
    L 729.8584512907289,359.8479045240564
    L 729.8584512907289,206.26922009432062
    Z
  " fill="rgba(255, 255, 255, 0.6)" stroke="rgb(132, 0, 0)" stroke-width="1.332223147378px"/><text class="net-label-text" x="737.0524562865701" y="208.667221759601" fill="rgb(132, 0, 0)" text-anchor="start" dominant-baseline="central" font-family="sans-serif" font-variant-numeric="tabular-nums" font-size="11.990008326401998px" transform="rotate(90 737.0524562865701 208.667221759601)">JP1_N_CS/U1_CS/R1_pin1</text><path class="net-label" d="
    M 850.2914238137,172.69719678039502
    L 857.4854288095412,176.2941992783156
    L 857.4854288095412,329.8728837080514
    L 843.0974188178589,329.8728837080514
    L 843.0974188178589,176.29419927831563
    Z
  " fill="rgba(255, 255, 255, 0.6)" stroke="rgb(132, 0, 0)" stroke-width="1.332223147378px"/><text class="net-label-text" x="850.2914238137" y="178.69220094359602" fill="rgb(132, 0, 0)" text-anchor="start" dominant-baseline="central" font-family="sans-serif" font-variant-numeric="tabular-nums" font-size="11.990008326401998px" transform="rotate(90 850.2914238137 178.69220094359602)">JP1_N_CS/U1_CS/R1_pin1</text><path class="net-label" d="
    M 225.14571190657358,402.50568970309996
    L 217.95170691073238,398.9086872051794
    L 217.95170691073238,221.9184013321875
    L 232.33971690241478,221.9184013321875
    L 232.33971690241478,398.9086872051794
    Z
  " fill="rgba(255, 255, 255, 0.6)" stroke="rgb(132, 0, 0)" stroke-width="1.332223147378px"/><text class="net-label-text" x="225.14571190657358" y="396.510685539899" fill="rgb(132, 0, 0)" text-anchor="start" dominant-baseline="central" font-family="sans-serif" font-variant-numeric="tabular-nums" font-size="11.990008326401998px" transform="rotate(-90 225.14571190657358 396.510685539899)">TP2_pin1/L1_pin2/Thermo_pin2</text><path class="net-label" d="
    M 310.74104912561006,495.76131001956
    L 303.54704412976884,492.16430752163944
    L 303.5470441297689,315.17402164864757
    L 317.9350541214513,315.17402164864757
    L 317.9350541214513,492.16430752163944
    Z
  " fill="rgba(255, 255, 255, 0.6)" stroke="rgb(132, 0, 0)" stroke-width="1.332223147378px"/><text class="net-label-text" x="310.74104912561006" y="489.76630585635905" fill="rgb(132, 0, 0)" text-anchor="start" dominant-baseline="central" font-family="sans-serif" font-variant-numeric="tabular-nums" font-size="11.990008326401998px" transform="rotate(-90 310.74104912561006 489.76630585635905)">TP2_pin1/L1_pin2/Thermo_pin2</text></svg>