<svg xmlns="http://www.w3.org/2000/svg" width="1200" height="600" style="background-color: rgb(245, 241, 237)" data-real-to-screen-transform="matrix(68.708846264,0,0,-68.708846264,602.2330375036,199.6072144289)" data-software-used-string="@tscircuit/core@0.0.1112"><style>
              .boundary { fill: rgb(245, 241, 237); }
              .schematic-boundary { fill: none; stroke: #fff; }
              .component { fill: none; stroke: rgb(132, 0, 0); }
              .chip { fill: rgb(255, 255, 194); stroke: rgb(132, 0, 0); }
              .component-pin { fill: none; stroke: rgb(132, 0, 0); }
              /* Basic per-trace hover fallback */
              .trace:hover {
                filter: invert(1);
              }
              .trace:hover .trace-crossing-outline {
                opacity: 0;
              }
              .trace:hover .trace-junction {
                filter: invert(1);
              }
              /* Net-hover highlighting: when a trace or its overlays are hovered,
                 invert color for all traces (base + overlays) sharing the same
                 subcircuit connectivity key. Also hide crossing outline during hover. */
              svg:has(:is(g.trace[data-subcircuit-connectivity-map-key="unnamedsubcircuit107_connectivity_net2"], g.trace-overlays[data-subcircuit-connectivity-map-key="unnamedsubcircuit107_connectivity_net2"]):hover) :is(g.trace[data-subcircuit-connectivity-map-key="unnamedsubcircuit107_connectivity_net2"], g.trace-overlays[data-subcircuit-connectivity-map-key="unnamedsubcircuit107_connectivity_net2"]) { filter: invert(1); }
svg:has(:is(g.trace[data-subcircuit-connectivity-map-key="unnamedsubcircuit107_connectivity_net2"], g.trace-overlays[data-subcircuit-connectivity-map-key="unnamedsubcircuit107_connectivity_net2"]):hover) g.trace-overlays[data-subcircuit-connectivity-map-key="unnamedsubcircuit107_connectivity_net2"] .trace-crossing-outline { opacity: 0; }
svg:has(:is(g.trace[data-subcircuit-connectivity-map-key="unnamedsubcircuit107_connectivity_net3"], g.trace-overlays[data-subcircuit-connectivity-map-key="unnamedsubcircuit107_connectivity_net3"]):hover) :is(g.trace[data-subcircuit-connectivity-map-key="unnamedsubcircuit107_connectivity_net3"], g.trace-overlays[data-subcircuit-connectivity-map-key="unnamedsubcircuit107_connectivity_net3"]) { filter: invert(1); }
svg:has(:is(g.trace[data-subcircuit-connectivity-map-key="unnamedsubcircuit107_connectivity_net3"], g.trace-overlays[data-subcircuit-connectivity-map-key="unnamedsubcircuit107_connectivity_net3"]):hover) g.trace-overlays[data-subcircuit-connectivity-map-key="unnamedsubcircuit107_connectivity_net3"] .trace-crossing-outline { opacity: 0; }
svg:has(:is(g.trace[data-subcircuit-connectivity-map-key="unnamedsubcircuit107_connectivity_net7"], g.trace-overlays[data-subcircuit-connectivity-map-key="unnamedsubcircuit107_connectivity_net7"]):hover) :is(g.trace[data-subcircuit-connectivity-map-key="unnamedsubcircuit107_connectivity_net7"], g.trace-overlays[data-subcircuit-connectivity-map-key="unnamedsubcircuit107_connectivity_net7"]) { filter: invert(1); }
svg:has(:is(g.trace[data-subcircuit-connectivity-map-key="unnamedsubcircuit107_connectivity_net7"], g.trace-overlays[data-subcircuit-connectivity-map-key="unnamedsubcircuit107_connectivity_net7"]):hover) g.trace-overlays[data-subcircuit-connectivity-map-key="unnamedsubcircuit107_connectivity_net7"] .trace-crossing-outline { opacity: 0; }
svg:has(:is(g.trace[data-subcircuit-connectivity-map-key="unnamedsubcircuit107_connectivity_net8"], g.trace-overlays[data-subcircuit-connectivity-map-key="unnamedsubcircuit107_connectivity_net8"]):hover) :is(g.trace[data-subcircuit-connectivity-map-key="unnamedsubcircuit107_connectivity_net8"], g.trace-overlays[data-subcircuit-connectivity-map-key="unnamedsubcircuit107_connectivity_net8"]) { filter: invert(1); }
svg:has(:is(g.trace[data-subcircuit-connectivity-map-key="unnamedsubcircuit107_connectivity_net8"], g.trace-overlays[data-subcircuit-connectivity-map-key="unnamedsubcircuit107_connectivity_net8"]):hover) g.trace-overlays[data-subcircuit-connectivity-map-key="unnamedsubcircuit107_connectivity_net8"] .trace-crossing-outline { opacity: 0; }
svg:has(:is(g.trace[data-subcircuit-connectivity-map-key="undefined"], g.trace-overlays[data-subcircuit-connectivity-map-key="undefined"]):hover) :is(g.trace[data-subcircuit-connectivity-map-key="undefined"], g.trace-overlays[data-subcircuit-connectivity-map-key="undefined"]) { filter: invert(1); }
svg:has(:is(g.trace[data-subcircuit-connectivity-map-key="undefined"], g.trace-overlays[data-subcircuit-connectivity-map-key="undefined"]):hover) g.trace-overlays[data-subcircuit-connectivity-map-key="undefined"] .trace-crossing-outline { opacity: 0; }
              .text { font-family: sans-serif; fill: rgb(0, 150, 0); }
              .pin-number { fill: rgb(169, 0, 0); }
              .port-label { fill: rgb(0, 100, 100); }
              .component-name { fill: rgb(0, 100, 100); }
            </style><rect class="boundary" x="0" y="0" width="1200" height="600"/><g class="trace" data-layer="base" data-circuit-json-type="schematic_trace" data-schematic-trace-id="schematic_trace_0" data-subcircuit-connectivity-map-key="unnamedsubcircuit107_connectivity_net2"><path d="M 397.48067563688005 299.2350415117 L 397.48067563688005 268.3160606929 L 365.1875178928 268.3160606929" class="trace-invisible-hover-outline" stroke="rgb(0, 150, 0)" fill="none" stroke-width="10.99341540224px" stroke-linecap="round" opacity="0" stroke-linejoin="round"/><path d="M 397.48067563688005 299.2350415117 L 397.48067563688005 268.3160606929 L 365.1875178928 268.3160606929" stroke="rgb(0, 150, 0)" fill="none" stroke-width="1.37417692528px" stroke-linecap="round" stroke-linejoin="round"/></g><g class="trace" data-layer="base" data-circuit-json-type="schematic_trace" data-schematic-trace-id="schematic_trace_1" data-subcircuit-connectivity-map-key="unnamedsubcircuit107_connectivity_net3"><path d="M 260.06298310888 299.2350415117 L 260.06298310888 268.3160606929 L 289.6077870024 268.3160606929" class="trace-invisible-hover-outline" stroke="rgb(0, 150, 0)" fill="none" stroke-width="10.99341540224px" stroke-linecap="round" opacity="0" stroke-linejoin="round"/><path d="M 260.06298310888 299.2350415117 L 260.06298310888 268.3160606929 L 289.6077870024 268.3160606929" stroke="rgb(0, 150, 0)" fill="none" stroke-width="1.37417692528px" stroke-linecap="round" stroke-linejoin="round"/></g><g class="trace" data-layer="base" data-circuit-json-type="schematic_trace" data-schematic-trace-id="schematic_trace_2" data-subcircuit-connectivity-map-key="unnamedsubcircuit107_connectivity_net7"><path d="M 203.72172917240005 405.7337532209 L 260.75007157152004 405.7337532209 L 260.75007157152004 374.81477240209995" class="trace-invisible-hover-outline" stroke="rgb(0, 150, 0)" fill="none" stroke-width="10.99341540224px" stroke-linecap="round" opacity="0" stroke-linejoin="round"/><path d="M 203.72172917240005 405.7337532209 L 260.75007157152004 405.7337532209 L 260.75007157152004 374.81477240209995" stroke="rgb(0, 150, 0)" fill="none" stroke-width="1.37417692528px" stroke-linecap="round" stroke-linejoin="round"/></g><g class="trace" data-layer="base" data-circuit-json-type="schematic_trace" data-schematic-trace-id="schematic_trace_3" data-subcircuit-connectivity-map-key="unnamedsubcircuit107_connectivity_net8"><path d="M 451.0735757228 405.7337532209 L 398.16776409952 405.7337532209 L 398.16776409952 374.81477240209995" class="trace-invisible-hover-outline" stroke="rgb(0, 150, 0)" fill="none" stroke-width="10.99341540224px" stroke-linecap="round" opacity="0" stroke-linejoin="round"/><path d="M 451.0735757228 405.7337532209 L 398.16776409952 405.7337532209 L 398.16776409952 374.81477240209995" stroke="rgb(0, 150, 0)" fill="none" stroke-width="1.37417692528px" stroke-linecap="round" stroke-linejoin="round"/></g><g class="trace" data-layer="base" data-circuit-json-type="schematic_trace" data-schematic-trace-id="schematic_trace_4"><path d="M 670.9418837676001 185.8654451761 L 863.3266533068 185.8654451761 L 863.3266533068 206.546807901564 L 890.8101918124 206.546807901564 L 890.8101918124 192.7363298025 L 1110.6784998572 192.7363298025" class="trace-invisible-hover-outline" stroke="rgb(0, 150, 0)" fill="none" stroke-width="10.99341540224px" stroke-linecap="round" opacity="0" stroke-linejoin="round"/><path d="M 670.9418837676001 185.8654451761 L 863.3266533068 185.8654451761 L 863.3266533068 206.546807901564 L 890.8101918124 206.546807901564 L 890.8101918124 192.7363298025 L 1110.6784998572 192.7363298025" stroke="rgb(0, 150, 0)" fill="none" stroke-width="1.37417692528px" stroke-linecap="round" stroke-linejoin="round"/></g><g class="trace" data-layer="base" data-circuit-json-type="schematic_trace" data-schematic-trace-id="schematic_trace_5"><path d="M 670.9418837676001 199.6072144289 L 849.584884054 199.6072144289 L 849.584884054 233.9616375609 L 1110.6784998572 233.9616375609" class="trace-invisible-hover-outline" stroke="rgb(0, 150, 0)" fill="none" stroke-width="10.99341540224px" stroke-linecap="round" opacity="0" stroke-linejoin="round"/><path d="M 670.9418837676001 199.6072144289 L 849.584884054 199.6072144289 L 849.584884054 233.9616375609 L 1110.6784998572 233.9616375609" stroke="rgb(0, 150, 0)" fill="none" stroke-width="1.37417692528px" stroke-linecap="round" stroke-linejoin="round"/></g><g class="trace" data-layer="base" data-circuit-json-type="schematic_trace" data-schematic-trace-id="schematic_trace_6"><path d="M 334.26853707400005 501.9261379905 L 334.26853707400005 438.3704551963 L 398.16776409952 438.3704551963 L 398.16776409952 374.81477240209995" class="trace-invisible-hover-outline" stroke="rgb(0, 150, 0)" fill="none" stroke-width="10.99341540224px" stroke-linecap="round" opacity="0" stroke-linejoin="round"/><path d="M 334.26853707400005 501.9261379905 L 334.26853707400005 438.3704551963 L 398.16776409952 438.3704551963 L 398.16776409952 374.81477240209995" stroke="rgb(0, 150, 0)" fill="none" stroke-width="1.37417692528px" stroke-linecap="round" stroke-linejoin="round"/></g><g class="trace" data-layer="base" data-circuit-json-type="schematic_trace" data-schematic-trace-id="schematic_trace_7"><path d="M 52.56226739160002 161.8173489837 L 52.56226739160002 148.07557973089996 L 293.0432293156 148.07557973089996 L 293.0432293156 178.9945605497 L 533.5241912396 178.9945605497" class="trace-invisible-hover-outline" stroke="rgb(0, 150, 0)" fill="none" stroke-width="10.99341540224px" stroke-linecap="round" opacity="0" stroke-linejoin="round"/><path d="M 52.56226739160002 161.8173489837 L 52.56226739160002 148.07557973089996 L 293.0432293156 148.07557973089996 L 293.0432293156 178.9945605497 L 533.5241912396 178.9945605497" stroke="rgb(0, 150, 0)" fill="none" stroke-width="1.37417692528px" stroke-linecap="round" stroke-linejoin="round"/></g><g class="trace" data-layer="base" data-circuit-json-type="schematic_trace" data-schematic-trace-id="schematic_trace_8"><path d="M 1110.6784998572 178.9945605497 L 993.8734612084 178.9945605497 L 993.8734612084 79.36673346689997 L 877.0684225596001 79.36673346689997 L 877.0684225596001 93.10850271969998" class="trace-invisible-hover-outline" stroke="rgb(0, 150, 0)" fill="none" stroke-width="10.99341540224px" stroke-linecap="round" opacity="0" stroke-linejoin="round"/><path d="M 1110.6784998572 178.9945605497 L 993.8734612084 178.9945605497 L 993.8734612084 79.36673346689997 L 877.0684225596001 79.36673346689997 L 877.0684225596001 93.10850271969998" stroke="rgb(0, 150, 0)" fill="none" stroke-width="1.37417692528px" stroke-linecap="round" stroke-linejoin="round"/></g><g class="trace" data-layer="base" data-circuit-json-type="schematic_trace" data-schematic-trace-id="schematic_trace_9"><path d="M 52.56226739160002 237.3970798741 L 52.56226739160002 238.42771256806 L 293.0432293156 238.42771256806 L 293.0432293156 192.73632980249997 L 533.5241912396 192.73632980249997" class="trace-invisible-hover-outline" stroke="rgb(0, 150, 0)" fill="none" stroke-width="10.99341540224px" stroke-linecap="round" opacity="0" stroke-linejoin="round"/><path d="M 52.56226739160002 237.3970798741 L 52.56226739160002 238.42771256806 L 293.0432293156 238.42771256806 L 293.0432293156 192.73632980249997 L 533.5241912396 192.73632980249997" stroke="rgb(0, 150, 0)" fill="none" stroke-width="1.37417692528px" stroke-linecap="round" stroke-linejoin="round"/></g><g class="trace-overlays" data-layer="overlay" data-circuit-json-type="schematic_trace" data-schematic-trace-id="schematic_trace_0" data-subcircuit-connectivity-map-key="unnamedsubcircuit107_connectivity_net2"/><g class="trace-overlays" data-layer="overlay" data-circuit-json-type="schematic_trace" data-schematic-trace-id="schematic_trace_1" data-subcircuit-connectivity-map-key="unnamedsubcircuit107_connectivity_net3"/><g class="trace-overlays" data-layer="overlay" data-circuit-json-type="schematic_trace" data-schematic-trace-id="schematic_trace_2" data-subcircuit-connectivity-map-key="unnamedsubcircuit107_connectivity_net7"/><g class="trace-overlays" data-layer="overlay" data-circuit-json-type="schematic_trace" data-schematic-trace-id="schematic_trace_3" data-subcircuit-connectivity-map-key="unnamedsubcircuit107_connectivity_net8"><circle cx="398.16776409952" cy="405.7337532209" r="2.06126538792" class="trace-junction" fill="rgb(0, 150, 0)"/></g><g class="trace-overlays" data-layer="overlay" data-circuit-json-type="schematic_trace" data-schematic-trace-id="schematic_trace_4"/><g class="trace-overlays" data-layer="overlay" data-circuit-json-type="schematic_trace" data-schematic-trace-id="schematic_trace_5"/><g class="trace-overlays" data-layer="overlay" data-circuit-json-type="schematic_trace" data-schematic-trace-id="schematic_trace_6"><circle cx="398.16776409952" cy="405.7337532209" r="2.06126538792" class="trace-junction" fill="rgb(0, 150, 0)"/></g><g class="trace-overlays" data-layer="overlay" data-circuit-json-type="schematic_trace" data-schematic-trace-id="schematic_trace_7"/><g class="trace-overlays" data-layer="overlay" data-circuit-json-type="schematic_trace" data-schematic-trace-id="schematic_trace_8"/><g class="trace-overlays" data-layer="overlay" data-circuit-json-type="schematic_trace" data-schematic-trace-id="schematic_trace_9"/><g data-circuit-json-type="schematic_component" data-schematic-component-id="schematic_component_0"><rect class="component-overlay" x="34.010878900320016" y="161.81734898370001" width="36.41568851992" height="75.57973089039999" fill="transparent"/><path d="M 52.56226739160002 237.3970798741 L 52.56226739160002 204.41683366738002" stroke="rgb(132, 0, 0)" fill="none" stroke-width="1.37417692528px" stroke-linecap="round"/><path d="M 52.56226739160002 193.42341826514001 L 52.56226739160002 161.81734898370001" stroke="rgb(132, 0, 0)" fill="none" stroke-width="1.37417692528px" stroke-linecap="round"/><path d="M 70.42656742024002 204.41683366738 L 34.010878900320016 204.41683366738002" stroke="rgb(132, 0, 0)" fill="none" stroke-width="1.37417692528px" stroke-linecap="round"/><path d="M 70.42656742024002 193.42341826514001 L 34.010878900320016 193.42341826514001" stroke="rgb(132, 0, 0)" fill="none" stroke-width="1.37417692528px" stroke-linecap="round"/><text x="59.08960778668002" y="185.8654451761" stroke="rgb(245, 241, 237)" stroke-width="1.37417692528px" paint-order="stroke" fill="rgb(15, 15, 15)" font-family="sans-serif" text-anchor="start" dominant-baseline="ideographic" font-size="12.36759232752px">C1</text><text x="59.08960778668002" y="213.34898368170002" fill="rgb(15, 15, 15)" font-family="sans-serif" text-anchor="start" dominant-baseline="hanging" font-size="12.36759232752px">0.1uF</text></g><g data-circuit-json-type="schematic_component" data-schematic-component-id="schematic_component_1"><rect class="component-overlay" x="289.6077870024" y="250.45176066426" width="75.57973089040001" height="36.41568851991997" fill="transparent"/><path d="M 365.18751789280003 268.3160606929 L 332.20727168608005 268.3160606929" stroke="rgb(132, 0, 0)" fill="none" stroke-width="1.37417692528px" stroke-linecap="round"/><path d="M 321.21385628384 268.3160606929 L 289.6077870024 268.3160606929" stroke="rgb(132, 0, 0)" fill="none" stroke-width="1.37417692528px" stroke-linecap="round"/><path d="M 332.20727168608005 250.45176066426 L 332.20727168608005 286.86744918418" stroke="rgb(132, 0, 0)" fill="none" stroke-width="1.37417692528px" stroke-linecap="round"/><path d="M 321.21385628384 250.45176066426 L 321.21385628384 286.86744918418" stroke="rgb(132, 0, 0)" fill="none" stroke-width="1.37417692528px" stroke-linecap="round"/><text x="326.71056398496" y="240.83252218730001" stroke="rgb(245, 241, 237)" stroke-width="1.37417692528px" paint-order="stroke" fill="rgb(15, 15, 15)" font-family="sans-serif" text-anchor="middle" dominant-baseline="ideographic" font-size="12.36759232752px">C2</text><text x="327.3976524476" y="298.54795304905997" fill="rgb(15, 15, 15)" font-family="sans-serif" text-anchor="middle" dominant-baseline="hanging" font-size="12.36759232752px">10nF</text></g><g data-circuit-json-type="schematic_component" data-schematic-component-id="schematic_component_2"><rect class="component chip" x="1138.1620383628" y="151.5110220441" width="27.48353850559988" height="96.19238476959998" stroke-width="1.37417692528px" fill="rgb(255, 255, 194)" stroke="rgb(132, 0, 0)"/><rect class="component-overlay" x="1138.1620383628" y="151.5110220441" width="27.48353850559988" height="96.19238476959998" fill="transparent"/><text x="1138.1620383628" y="256.63555682802" fill="#006464" text-anchor="start" dominant-baseline="middle" font-family="sans-serif" font-size="12.36759232752px" transform="rotate(0, 1138.1620383628, 256.63555682802)"></text><text x="1138.1620383628" y="142.57887202978" fill="#006464" text-anchor="start" dominant-baseline="middle" font-family="sans-serif" font-size="12.36759232752px" transform="rotate(0, 1138.1620383628, 142.57887202978)">JP1</text><line class="component-pin" x1="1138.1620383628" y1="165.2527912969" x2="1110.6784998572" y2="165.2527912969" stroke-width="1.37417692528px"/><g data-schematic-port-id="source_port_4"><rect x="1109.30432293192" y="163.87861437162" width="2.74835385056" height="2.74835385056" opacity="0"/></g><text class="pin-number" x="1124.42026911" y="163.87861437162" style="font-family: sans-serif;" fill="rgb(169, 0, 0)" text-anchor="middle" dominant-baseline="auto" font-size="10.3063269396px" transform="">1</text><line class="component-pin" x1="1138.1620383628" y1="178.9945605497" x2="1110.6784998572" y2="178.9945605497" stroke-width="1.37417692528px"/><g data-schematic-port-id="source_port_5"><rect x="1109.30432293192" y="177.62038362442" width="2.74835385056" height="2.74835385056" opacity="0"/></g><text class="pin-number" x="1124.42026911" y="177.62038362442" style="font-family: sans-serif;" fill="rgb(169, 0, 0)" text-anchor="middle" dominant-baseline="auto" font-size="10.3063269396px" transform="">2</text><line class="component-pin" x1="1138.1620383628" y1="192.7363298025" x2="1110.6784998572" y2="192.7363298025" stroke-width="1.37417692528px"/><g data-schematic-port-id="source_port_6"><rect x="1109.30432293192" y="191.36215287721998" width="2.74835385056" height="2.74835385056" opacity="0"/></g><text class="pin-number" x="1124.42026911" y="191.36215287721998" style="font-family: sans-serif;" fill="rgb(169, 0, 0)" text-anchor="middle" dominant-baseline="auto" font-size="10.3063269396px" transform="">3</text><line class="component-pin" x1="1138.1620383628" y1="206.4780990553" x2="1110.6784998572" y2="206.4780990553" stroke-width="1.37417692528px"/><g data-schematic-port-id="source_port_7"><rect x="1109.30432293192" y="205.10392213001998" width="2.74835385056" height="2.74835385056" opacity="0"/></g><text class="pin-number" x="1124.42026911" y="205.10392213002" style="font-family: sans-serif;" fill="rgb(169, 0, 0)" text-anchor="middle" dominant-baseline="auto" font-size="10.3063269396px" transform="">4</text><line class="component-pin" x1="1138.1620383628" y1="220.2198683081" x2="1112.05267678248" y2="220.2198683081" stroke-width="1.37417692528px"/><g data-schematic-port-id="source_port_8"><circle class="component-pin" cx="1110.6784998572" cy="220.2198683081" r="1.37417692528" stroke-width="1.37417692528px"/><rect x="1109.30432293192" y="218.84569138281998" width="2.74835385056" height="2.74835385056" opacity="0"/></g><text class="pin-number" x="1124.42026911" y="218.84569138282" style="font-family: sans-serif;" fill="rgb(169, 0, 0)" text-anchor="middle" dominant-baseline="auto" font-size="10.3063269396px" transform="">5</text><line class="component-pin" x1="1138.1620383628" y1="233.9616375609" x2="1110.6784998572" y2="233.9616375609" stroke-width="1.37417692528px"/><g data-schematic-port-id="source_port_9"><rect x="1109.30432293192" y="232.58746063561998" width="2.74835385056" height="2.74835385056" opacity="0"/></g><text class="pin-number" x="1124.42026911" y="232.58746063562" style="font-family: sans-serif;" fill="rgb(169, 0, 0)" text-anchor="middle" dominant-baseline="auto" font-size="10.3063269396px" transform="">6</text></g><g data-circuit-json-type="schematic_component" data-schematic-component-id="schematic_component_3"><rect class="component chip" x="561.0077297452" y="165.2527912969" width="82.4506155168001" height="68.70884626399999" stroke-width="1.37417692528px" fill="rgb(255, 255, 194)" stroke="rgb(132, 0, 0)"/><rect class="component-overlay" x="561.0077297452" y="165.2527912969" width="82.4506155168001" height="68.70884626399999" fill="transparent"/><text x="561.0077297452" y="242.89378757522" fill="#006464" text-anchor="start" dominant-baseline="middle" font-family="sans-serif" font-size="12.36759232752px" transform="rotate(0, 561.0077297452, 242.89378757522)">MAX31855KASA_T</text><text x="561.0077297452" y="156.32064128258" fill="#006464" text-anchor="start" dominant-baseline="middle" font-family="sans-serif" font-size="12.36759232752px" transform="rotate(0, 561.0077297452, 156.32064128258)">U1</text><line class="component-pin" x1="561.0077297452" y1="192.7363298025" x2="533.5241912396" y2="192.7363298025" stroke-width="1.37417692528px"/><g data-schematic-port-id="source_port_10"><rect x="532.15001431432" y="191.36215287721998" width="2.74835385056" height="2.74835385056" opacity="0"/></g><text class="pin-number" x="547.2659604924" y="191.36215287721998" style="font-family: sans-serif;" fill="rgb(169, 0, 0)" text-anchor="middle" dominant-baseline="auto" font-size="10.3063269396px" transform="">1</text><text class="pin-number" x="567.8786143716001" y="192.7363298025" style="font-family: sans-serif;" fill="rgb(169, 0, 0)" text-anchor="start" dominant-baseline="middle" font-size="10.3063269396px" transform="">GND</text><line class="component-pin" x1="561.0077297452" y1="206.4780990553" x2="533.5241912396" y2="206.4780990553" stroke-width="1.37417692528px"/><g data-schematic-port-id="source_port_11"><rect x="532.15001431432" y="205.10392213001998" width="2.74835385056" height="2.74835385056" opacity="0"/></g><text class="pin-number" x="547.2659604924" y="205.10392213001998" style="font-family: sans-serif;" fill="rgb(169, 0, 0)" text-anchor="middle" dominant-baseline="auto" font-size="10.3063269396px" transform="">2</text><text class="pin-number" x="567.8786143716001" y="206.4780990553" style="font-family: sans-serif;" fill="rgb(169, 0, 0)" text-anchor="start" dominant-baseline="middle" font-size="10.3063269396px" transform="">T_NEG</text><line class="component-pin" x1="561.0077297452" y1="220.2198683081" x2="533.5241912396" y2="220.2198683081" stroke-width="1.37417692528px"/><g data-schematic-port-id="source_port_12"><rect x="532.15001431432" y="218.84569138281998" width="2.74835385056" height="2.74835385056" opacity="0"/></g><text class="pin-number" x="547.2659604924" y="218.84569138282" style="font-family: sans-serif;" fill="rgb(169, 0, 0)" text-anchor="middle" dominant-baseline="auto" font-size="10.3063269396px" transform="">3</text><text class="pin-number" x="567.8786143716001" y="220.2198683081" style="font-family: sans-serif;" fill="rgb(169, 0, 0)" text-anchor="start" dominant-baseline="middle" font-size="10.3063269396px" transform="">T_POS</text><line class="component-pin" x1="561.0077297452" y1="178.9945605497" x2="533.5241912396" y2="178.9945605497" stroke-width="1.37417692528px"/><g data-schematic-port-id="source_port_13"><rect x="532.15001431432" y="177.62038362442" width="2.74835385056" height="2.74835385056" opacity="0"/></g><text class="pin-number" x="547.2659604924" y="177.62038362442" style="font-family: sans-serif;" fill="rgb(169, 0, 0)" text-anchor="middle" dominant-baseline="auto" font-size="10.3063269396px" transform="">4</text><text class="pin-number" x="567.8786143716001" y="178.9945605497" style="font-family: sans-serif;" fill="rgb(169, 0, 0)" text-anchor="start" dominant-baseline="middle" font-size="10.3063269396px" transform="">VCC</text><line class="component-pin" x1="643.4583452620001" y1="185.8654451761" x2="670.9418837676001" y2="185.8654451761" stroke-width="1.37417692528px"/><g data-schematic-port-id="source_port_14"><rect x="669.56770684232" y="184.49126825081999" width="2.74835385056" height="2.74835385056" opacity="0"/></g><text class="pin-number" x="657.2001145148" y="184.49126825081999" style="font-family: sans-serif;" fill="rgb(169, 0, 0)" text-anchor="middle" dominant-baseline="auto" font-size="10.3063269396px" transform="">5</text><text class="pin-number" x="636.5874606356" y="185.8654451761" style="font-family: sans-serif;" fill="rgb(169, 0, 0)" text-anchor="end" dominant-baseline="middle" font-size="10.3063269396px" transform="">SCK</text><line class="component-pin" x1="643.4583452620001" y1="199.6072144289" x2="670.9418837676001" y2="199.6072144289" stroke-width="1.37417692528px"/><g data-schematic-port-id="source_port_15"><rect x="669.56770684232" y="198.23303750361998" width="2.74835385056" height="2.74835385056" opacity="0"/></g><text class="pin-number" x="657.2001145148" y="198.23303750361998" style="font-family: sans-serif;" fill="rgb(169, 0, 0)" text-anchor="middle" dominant-baseline="auto" font-size="10.3063269396px" transform="">6</text><text class="pin-number" x="636.5874606356" y="199.6072144289" style="font-family: sans-serif;" fill="rgb(169, 0, 0)" text-anchor="end" dominant-baseline="middle" font-size="10.3063269396px" transform="">CS</text><line class="component-pin" x1="643.4583452620001" y1="213.3489836817" x2="670.9418837676001" y2="213.3489836817" stroke-width="1.37417692528px"/><g data-schematic-port-id="source_port_16"><rect x="669.56770684232" y="211.97480675641998" width="2.74835385056" height="2.74835385056" opacity="0"/></g><text class="pin-number" x="657.2001145148" y="211.97480675642" style="font-family: sans-serif;" fill="rgb(169, 0, 0)" text-anchor="middle" dominant-baseline="auto" font-size="10.3063269396px" transform="">7</text><text class="pin-number" x="636.5874606356" y="213.3489836817" style="font-family: sans-serif;" fill="rgb(169, 0, 0)" text-anchor="end" dominant-baseline="middle" font-size="10.3063269396px" transform="">SO</text></g><g data-circuit-json-type="schematic_component" data-schematic-component-id="schematic_component_4"><rect class="component-overlay" x="451.07357572280006" y="398.86286859449996" width="20.612653879200025" height="13.741769252800054" fill="transparent"/><path d="M 451.07357572280006 405.7337532209 L 464.81534497560006 405.7337532209" stroke="rgb(132, 0, 0)" fill="none" stroke-width="1.37417692528px" stroke-linecap="round"/><path d="M 471.6862296020001 398.86286859449996 L 468.70506448925227 399.54330007756425 L 466.31435568867494 401.44982672659165 L 464.9876123983417 404.2048375567274 L 464.9876123983417 407.26266888507257 L 466.31435568867494 410.0176797152083 L 468.70506448925227 411.9242063642357 L 471.6862296020001 412.6046378473" stroke="rgb(132, 0, 0)" fill="none" stroke-width="1.37417692528px" stroke-linecap="round"/><text x="473.40395075860005" y="405.7337532209" stroke="rgb(245, 241, 237)" stroke-width="1.37417692528px" paint-order="stroke" fill="rgb(15, 15, 15)" font-family="sans-serif" text-anchor="start" dominant-baseline="middle" font-size="12.36759232752px">TP1</text></g><g data-circuit-json-type="schematic_component" data-schematic-component-id="schematic_component_5"><rect class="component-overlay" x="183.1090752932" y="398.86286859449996" width="20.612653879199996" height="13.741769252800054" fill="transparent"/><path d="M 203.7217291724 405.7337532209 L 189.9799599196 405.7337532209" stroke="rgb(132, 0, 0)" fill="none" stroke-width="1.37417692528px" stroke-linecap="round"/><path d="M 183.1090752932 412.6046378473 L 186.09024040594778 411.9242063642357 L 188.4809492065251 410.0176797152083 L 189.80769249685832 407.26266888507257 L 189.80769249685832 404.2048375567274 L 188.4809492065251 401.44982672659165 L 186.09024040594775 399.54330007756425 L 183.1090752932 398.86286859449996" stroke="rgb(132, 0, 0)" fill="none" stroke-width="1.37417692528px" stroke-linecap="round"/><text x="181.39135413659997" y="405.7337532209" stroke="rgb(245, 241, 237)" stroke-width="1.37417692528px" paint-order="stroke" fill="rgb(15, 15, 15)" font-family="sans-serif" text-anchor="end" dominant-baseline="middle" font-size="12.36759232752px">TP2</text></g><g data-circuit-json-type="schematic_component" data-schematic-component-id="schematic_component_6"><rect class="component-overlay" x="253.19209848248005" y="299.2350415117" width="7.55797308903999" height="75.57973089040001" fill="transparent"/><path d="M 260.06298310888 323.2831377041 L 260.06298310888 323.2831377041 L 259.37589464624006 322.59604924146 L 259.37589464624006 322.59604924146 L 258.68880618360004 322.59604924146 L 258.68880618360004 322.59604924146 L 258.68880618360004 322.59604924146 L 258.00171772096 321.90896077882 L 258.00171772096 321.90896077882 L 257.31462925832005 321.90896077882 L 257.31462925832005 321.90896077882 L 256.62754079568003 321.22187231618 L 256.62754079568003 321.22187231618 L 256.62754079568003 321.22187231618 L 255.94045233304004 321.22187231618 L 255.94045233304004 320.53478385354 L 255.94045233304004 320.53478385354 L 255.25336387040002 320.53478385354 L 255.25336387040002 320.53478385354 L 255.25336387040002 319.8476953909 L 254.56627540776003 319.8476953909 L 254.56627540776003 319.8476953909 L 254.56627540776003 319.8476953909 L 254.56627540776003 319.16060692826 L 254.56627540776003 319.16060692826 L 253.87918694512004 319.16060692826 L 253.87918694512004 319.16060692826 L 253.87918694512004 318.47351846562 L 253.87918694512004 318.47351846562 L 253.87918694512004 318.47351846562 L 253.87918694512004 318.47351846562 L 253.87918694512004 317.78643000298 L 253.87918694512004 317.78643000298 L 253.87918694512004 317.78643000298 L 253.87918694512004 317.78643000298 L 253.87918694512004 317.09934154034 L 253.19209848248005 317.09934154034 L 253.19209848248005 317.09934154034 L 253.19209848248005 317.09934154034 L 253.19209848248005 316.41225307770003 L 253.19209848248005 316.41225307770003 L 253.19209848248005 316.41225307770003 L 253.19209848248005 316.41225307770003 L 253.19209848248005 315.72516461506 L 253.19209848248005 315.72516461506 L 253.87918694512004 315.72516461506 L 253.87918694512004 315.72516461506 L 253.87918694512004 315.03807615242 L 253.87918694512004 315.03807615242 L 253.87918694512004 315.03807615242 L 253.87918694512004 315.03807615242 L 253.87918694512004 314.35098768978 L 253.87918694512004 314.35098768978 L 253.87918694512004 314.35098768978 L 253.87918694512004 314.35098768978 L 253.87918694512004 313.66389922714 L 254.56627540776003 313.66389922714 L 254.56627540776003 313.66389922714 L 254.56627540776003 313.66389922714 L 254.56627540776003 312.9768107645 L 254.56627540776003 312.9768107645 L 255.25336387040002 312.9768107645 L 255.25336387040002 312.9768107645 L 255.25336387040002 312.28972230186 L 255.94045233304004 312.28972230186 L 255.94045233304004 312.28972230186 L 255.94045233304004 312.28972230186 L 256.62754079568003 311.60263383922 L 256.62754079568003 311.60263383922 L 256.62754079568003 311.60263383922 L 257.31462925832005 311.60263383922 L 257.31462925832005 310.91554537658 L 258.00171772096 310.91554537658 L 258.00171772096 310.91554537658 L 258.68880618360004 310.91554537658 L 258.68880618360004 310.22845691394 L 258.68880618360004 310.22845691394 L 259.37589464624006 310.22845691394 L 259.37589464624006 310.22845691394 L 260.06298310888 309.5413684513 L 260.06298310888 309.5413684513" stroke="rgb(132, 0, 0)" fill="none" stroke-width="1.37417692528px" stroke-linecap="round"/><path d="M 260.06298310888 337.0249069569 L 260.06298310888 337.0249069569 L 259.37589464624006 336.33781849426 L 259.37589464624006 336.33781849426 L 258.68880618360004 336.33781849426 L 258.68880618360004 336.33781849426 L 258.68880618360004 335.65073003162 L 258.00171772096 335.65073003162 L 258.00171772096 335.65073003162 L 257.31462925832005 335.65073003162 L 257.31462925832005 334.96364156898 L 256.62754079568003 334.96364156898 L 256.62754079568003 334.96364156898 L 256.62754079568003 334.96364156898 L 255.94045233304004 334.27655310634 L 255.94045233304004 334.27655310634 L 255.94045233304004 334.27655310634 L 255.25336387040005 334.27655310634 L 255.25336387040005 333.5894646437 L 255.25336387040005 333.5894646437 L 254.56627540776003 333.5894646437 L 254.56627540776003 333.5894646437 L 254.56627540776003 332.90237618106 L 254.56627540776003 332.90237618106 L 254.56627540776003 332.90237618106 L 253.87918694512004 332.90237618106 L 253.87918694512004 332.21528771842 L 253.87918694512004 332.21528771842 L 253.87918694512004 332.21528771842 L 253.87918694512004 332.21528771842 L 253.87918694512004 331.52819925578 L 253.87918694512004 331.52819925578 L 253.87918694512004 331.52819925578 L 253.87918694512004 331.52819925578 L 253.87918694512004 330.84111079314 L 253.87918694512004 330.84111079314 L 253.19209848248005 330.84111079314 L 253.19209848248005 330.84111079314 L 253.19209848248005 330.15402233049997 L 253.19209848248005 330.15402233049997 L 253.19209848248005 330.15402233049997 L 253.19209848248005 330.15402233049997 L 253.19209848248005 329.46693386786 L 253.19209848248005 329.46693386786 L 253.19209848248005 329.46693386786 L 253.87918694512004 329.46693386786 L 253.87918694512004 328.77984540522 L 253.87918694512004 328.77984540522 L 253.87918694512004 328.77984540522 L 253.87918694512004 328.77984540522 L 253.87918694512004 328.09275694258 L 253.87918694512004 328.09275694258 L 253.87918694512004 328.09275694258 L 253.87918694512004 328.09275694258 L 253.87918694512004 327.40566847994 L 253.87918694512004 327.40566847994 L 254.56627540776003 327.40566847994 L 254.56627540776003 327.40566847994 L 254.56627540776003 326.7185800173 L 254.56627540776003 326.7185800173 L 254.56627540776003 326.7185800173 L 255.25336387040002 326.7185800173 L 255.25336387040002 326.03149155466 L 255.25336387040002 326.03149155466 L 255.94045233304004 326.03149155466 L 255.94045233304004 326.03149155466 L 255.94045233304004 325.34440309202 L 256.62754079568003 325.34440309202 L 256.62754079568003 325.34440309202 L 256.62754079568003 325.34440309202 L 257.31462925832005 324.65731462938 L 257.31462925832005 324.65731462938 L 258.00171772096 324.65731462938 L 258.00171772096 324.65731462938 L 258.68880618360004 323.97022616674 L 258.68880618360004 323.97022616674 L 258.68880618360004 323.97022616674 L 259.37589464624006 323.97022616674 L 259.37589464624006 323.2831377041 L 260.06298310888 323.2831377041 L 260.06298310888 323.2831377041" stroke="rgb(132, 0, 0)" fill="none" stroke-width="1.37417692528px" stroke-linecap="round"/><path d="M 260.06298310888 350.7666762097 L 260.06298310888 350.7666762097 L 259.37589464624006 350.07958774706 L 259.37589464624006 350.07958774706 L 258.68880618360004 350.07958774706 L 258.68880618360004 350.07958774706 L 258.68880618360004 349.39249928442 L 258.00171772096 349.39249928442 L 258.00171772096 349.39249928442 L 257.31462925832005 349.39249928442 L 257.31462925832005 348.70541082178 L 256.62754079568003 348.70541082178 L 256.62754079568003 348.70541082178 L 256.62754079568003 348.70541082178 L 255.94045233304004 348.01832235914 L 255.94045233304004 348.01832235914 L 255.94045233304004 348.01832235914 L 255.25336387040005 348.01832235914 L 255.25336387040005 347.3312338965 L 255.25336387040005 347.3312338965 L 254.56627540776003 347.3312338965 L 254.56627540776003 347.3312338965 L 254.56627540776003 346.64414543386 L 254.56627540776003 346.64414543386 L 254.56627540776003 346.64414543386 L 253.87918694512004 346.64414543386 L 253.87918694512004 345.95705697121997 L 253.87918694512004 345.95705697121997 L 253.87918694512004 345.95705697121997 L 253.87918694512004 345.95705697121997 L 253.87918694512004 345.26996850858 L 253.87918694512004 345.26996850858 L 253.87918694512004 345.26996850858 L 253.87918694512004 345.26996850858 L 253.87918694512004 344.58288004594 L 253.87918694512004 344.58288004594 L 253.19209848248005 344.58288004594 L 253.19209848248005 344.58288004594 L 253.19209848248005 343.8957915833 L 253.19209848248005 343.8957915833 L 253.19209848248005 343.8957915833 L 253.19209848248005 343.8957915833 L 253.19209848248005 343.20870312066 L 253.19209848248005 343.20870312066 L 253.19209848248005 343.20870312066 L 253.87918694512004 343.20870312066 L 253.87918694512004 342.52161465802 L 253.87918694512004 342.52161465802 L 253.87918694512004 342.52161465802 L 253.87918694512004 342.52161465802 L 253.87918694512004 341.83452619538 L 253.87918694512004 341.83452619538 L 253.87918694512004 341.83452619538 L 253.87918694512004 341.83452619538 L 253.87918694512004 341.14743773274 L 253.87918694512004 341.14743773274 L 254.56627540776003 341.14743773274 L 254.56627540776003 341.14743773274 L 254.56627540776003 340.4603492701 L 254.56627540776003 340.4603492701 L 254.56627540776003 340.4603492701 L 255.25336387040005 340.4603492701 L 255.25336387040005 339.77326080746 L 255.25336387040005 339.77326080746 L 255.94045233304004 339.77326080746 L 255.94045233304004 339.77326080746 L 255.94045233304004 339.08617234482 L 256.62754079568003 339.08617234482 L 256.62754079568003 339.08617234482 L 256.62754079568003 339.08617234482 L 257.31462925832005 338.39908388218 L 257.31462925832005 338.39908388218 L 258.00171772096 338.39908388218 L 258.00171772096 338.39908388218 L 258.68880618360004 337.71199541954 L 258.68880618360004 337.71199541954 L 258.68880618360004 337.71199541954 L 259.37589464624006 337.71199541954 L 259.37589464624006 337.0249069569 L 260.06298310888 337.0249069569 L 260.06298310888 337.0249069569" stroke="rgb(132, 0, 0)" fill="none" stroke-width="1.37417692528px" stroke-linecap="round"/><path d="M 260.06298310888 364.5084454625 L 260.06298310888 363.82135699986 L 259.37589464624006 363.82135699986 L 259.37589464624006 363.82135699986 L 258.68880618360004 363.82135699986 L 258.68880618360004 363.82135699986 L 258.68880618360004 363.13426853722 L 258.00171772096 363.13426853722 L 258.00171772096 363.13426853722 L 257.31462925832005 363.13426853722 L 257.31462925832005 362.44718007458 L 256.62754079568003 362.44718007458 L 256.62754079568003 362.44718007458 L 256.62754079568003 362.44718007458 L 255.94045233304004 361.76009161193997 L 255.94045233304004 361.76009161193997 L 255.94045233304004 361.76009161193997 L 255.25336387040005 361.76009161193997 L 255.25336387040005 361.0730031493 L 255.25336387040005 361.0730031493 L 254.56627540776003 361.0730031493 L 254.56627540776003 361.0730031493 L 254.56627540776003 360.38591468666 L 254.56627540776003 360.38591468666 L 254.56627540776003 360.38591468666 L 253.87918694512004 360.38591468666 L 253.87918694512004 359.69882622401997 L 253.87918694512004 359.69882622401997 L 253.87918694512004 359.69882622401997 L 253.87918694512004 359.69882622401997 L 253.87918694512004 359.01173776138 L 253.87918694512004 359.01173776138 L 253.87918694512004 359.01173776138 L 253.87918694512004 359.01173776138 L 253.87918694512004 358.32464929874 L 253.87918694512004 358.32464929874 L 253.19209848248005 358.32464929874 L 253.19209848248005 358.32464929874 L 253.19209848248005 357.63756083609996 L 253.19209848248005 357.63756083609996 L 253.19209848248005 357.63756083609996 L 253.19209848248005 357.63756083609996 L 253.19209848248005 356.95047237346 L 253.19209848248005 356.95047237346 L 253.19209848248005 356.95047237346 L 253.87918694512004 356.95047237346 L 253.87918694512004 356.26338391082 L 253.87918694512004 356.26338391082 L 253.87918694512004 356.26338391082 L 253.87918694512004 356.26338391082 L 253.87918694512004 355.57629544818 L 253.87918694512004 355.57629544818 L 253.87918694512004 355.57629544818 L 253.87918694512004 355.57629544818 L 253.87918694512004 354.88920698554 L 253.87918694512004 354.88920698554 L 254.56627540776003 354.88920698554 L 254.56627540776003 354.88920698554 L 254.56627540776003 354.2021185229 L 254.56627540776003 354.2021185229 L 254.56627540776003 354.2021185229 L 255.25336387040005 354.2021185229 L 255.25336387040005 353.51503006026 L 255.25336387040005 353.51503006026 L 255.94045233304004 353.51503006026 L 255.94045233304004 353.51503006026 L 255.94045233304004 352.82794159762 L 256.62754079568003 352.82794159762 L 256.62754079568003 352.82794159762 L 256.62754079568003 352.82794159762 L 257.31462925832005 352.14085313498 L 257.31462925832005 352.14085313498 L 258.00171772096 352.14085313498 L 258.00171772096 352.14085313498 L 258.68880618360004 351.45376467234 L 258.68880618360004 351.45376467234 L 258.68880618360004 351.45376467234 L 259.37589464624006 351.45376467234 L 259.37589464624006 350.7666762097 L 260.06298310888 350.7666762097 L 260.06298310888 350.7666762097" stroke="rgb(132, 0, 0)" fill="none" stroke-width="1.37417692528px" stroke-linecap="round"/><path d="M 260.06298310888 309.5413684513 L 260.06298310888 299.2350415117" stroke="rgb(132, 0, 0)" fill="none" stroke-width="1.37417692528px" stroke-linecap="round"/><path d="M 260.75007157152004 374.8147724021 L 260.75007157152004 364.5084454625" stroke="rgb(132, 0, 0)" fill="none" stroke-width="1.37417692528px" stroke-linecap="round"/><text x="242.88577154288004" y="337.0249069569" stroke="rgb(245, 241, 237)" stroke-width="1.37417692528px" paint-order="stroke" fill="rgb(15, 15, 15)" font-family="sans-serif" text-anchor="end" dominant-baseline="middle" font-size="12.36759232752px">L1</text><text x="274.49184082432004" y="337.0249069569" fill="rgb(15, 15, 15)" font-family="sans-serif" text-anchor="start" dominant-baseline="middle" font-size="12.36759232752px">470H</text></g><g data-circuit-json-type="schematic_component" data-schematic-component-id="schematic_component_7"><rect class="component-overlay" x="390.60979101048" y="299.2350415117" width="7.55797308903999" height="75.57973089040001" fill="transparent"/><path d="M 397.48067563688 323.2831377041 L 397.48067563688 323.2831377041 L 396.79358717424003 322.59604924146 L 396.79358717424003 322.59604924146 L 396.1064987116 322.59604924146 L 396.1064987116 322.59604924146 L 396.1064987116 322.59604924146 L 395.41941024896 321.90896077882 L 395.41941024896 321.90896077882 L 394.73232178632003 321.90896077882 L 394.73232178632003 321.90896077882 L 394.04523332368 321.22187231618 L 394.04523332368 321.22187231618 L 394.04523332368 321.22187231618 L 393.35814486104 321.22187231618 L 393.35814486104 320.53478385354 L 393.35814486104 320.53478385354 L 392.6710563984 320.53478385354 L 392.6710563984 320.53478385354 L 392.6710563984 319.8476953909 L 391.98396793576 319.8476953909 L 391.98396793576 319.8476953909 L 391.98396793576 319.8476953909 L 391.98396793576 319.16060692826 L 391.98396793576 319.16060692826 L 391.29687947312 319.16060692826 L 391.29687947312 319.16060692826 L 391.29687947312 318.47351846562 L 391.29687947312 318.47351846562 L 391.29687947312 318.47351846562 L 391.29687947312 318.47351846562 L 391.29687947312 317.78643000298 L 391.29687947312 317.78643000298 L 391.29687947312 317.78643000298 L 391.29687947312 317.78643000298 L 391.29687947312 317.09934154034 L 390.60979101048 317.09934154034 L 390.60979101048 317.09934154034 L 390.60979101048 317.09934154034 L 390.60979101048 316.41225307770003 L 390.60979101048 316.41225307770003 L 390.60979101048 316.41225307770003 L 390.60979101048 316.41225307770003 L 390.60979101048 315.72516461506 L 390.60979101048 315.72516461506 L 391.29687947312 315.72516461506 L 391.29687947312 315.72516461506 L 391.29687947312 315.03807615242 L 391.29687947312 315.03807615242 L 391.29687947312 315.03807615242 L 391.29687947312 315.03807615242 L 391.29687947312 314.35098768978 L 391.29687947312 314.35098768978 L 391.29687947312 314.35098768978 L 391.29687947312 314.35098768978 L 391.29687947312 313.66389922714 L 391.98396793576 313.66389922714 L 391.98396793576 313.66389922714 L 391.98396793576 313.66389922714 L 391.98396793576 312.9768107645 L 391.98396793576 312.9768107645 L 392.6710563984 312.9768107645 L 392.6710563984 312.9768107645 L 392.6710563984 312.28972230186 L 393.35814486104 312.28972230186 L 393.35814486104 312.28972230186 L 393.35814486104 312.28972230186 L 394.04523332368 311.60263383922 L 394.04523332368 311.60263383922 L 394.04523332368 311.60263383922 L 394.73232178632003 311.60263383922 L 394.73232178632003 310.91554537658 L 395.41941024896 310.91554537658 L 395.41941024896 310.91554537658 L 396.1064987116 310.91554537658 L 396.1064987116 310.22845691394 L 396.1064987116 310.22845691394 L 396.79358717424003 310.22845691394 L 396.79358717424003 310.22845691394 L 397.48067563688 309.5413684513 L 397.48067563688 309.5413684513" stroke="rgb(132, 0, 0)" fill="none" stroke-width="1.37417692528px" stroke-linecap="round"/><path d="M 397.48067563688 337.0249069569 L 397.48067563688 337.0249069569 L 396.79358717424003 336.33781849426 L 396.79358717424003 336.33781849426 L 396.1064987116 336.33781849426 L 396.1064987116 336.33781849426 L 396.1064987116 335.65073003162 L 395.41941024896 335.65073003162 L 395.41941024896 335.65073003162 L 394.73232178632003 335.65073003162 L 394.73232178632003 334.96364156898 L 394.04523332368 334.96364156898 L 394.04523332368 334.96364156898 L 394.04523332368 334.96364156898 L 393.35814486104 334.27655310634 L 393.35814486104 334.27655310634 L 393.35814486104 334.27655310634 L 392.6710563984 334.27655310634 L 392.6710563984 333.5894646437 L 392.6710563984 333.5894646437 L 391.98396793576 333.5894646437 L 391.98396793576 333.5894646437 L 391.98396793576 332.90237618106 L 391.98396793576 332.90237618106 L 391.98396793576 332.90237618106 L 391.29687947312 332.90237618106 L 391.29687947312 332.21528771842 L 391.29687947312 332.21528771842 L 391.29687947312 332.21528771842 L 391.29687947312 332.21528771842 L 391.29687947312 331.52819925578 L 391.29687947312 331.52819925578 L 391.29687947312 331.52819925578 L 391.29687947312 331.52819925578 L 391.29687947312 330.84111079314 L 391.29687947312 330.84111079314 L 390.60979101048 330.84111079314 L 390.60979101048 330.84111079314 L 390.60979101048 330.15402233049997 L 390.60979101048 330.15402233049997 L 390.60979101048 330.15402233049997 L 390.60979101048 330.15402233049997 L 390.60979101048 329.46693386786 L 390.60979101048 329.46693386786 L 390.60979101048 329.46693386786 L 391.29687947312 329.46693386786 L 391.29687947312 328.77984540522 L 391.29687947312 328.77984540522 L 391.29687947312 328.77984540522 L 391.29687947312 328.77984540522 L 391.29687947312 328.09275694258 L 391.29687947312 328.09275694258 L 391.29687947312 328.09275694258 L 391.29687947312 328.09275694258 L 391.29687947312 327.40566847994 L 391.29687947312 327.40566847994 L 391.98396793576 327.40566847994 L 391.98396793576 327.40566847994 L 391.98396793576 326.7185800173 L 391.98396793576 326.7185800173 L 391.98396793576 326.7185800173 L 392.6710563984 326.7185800173 L 392.6710563984 326.03149155466 L 392.6710563984 326.03149155466 L 393.35814486104 326.03149155466 L 393.35814486104 326.03149155466 L 393.35814486104 325.34440309202 L 394.04523332368 325.34440309202 L 394.04523332368 325.34440309202 L 394.04523332368 325.34440309202 L 394.73232178632003 324.65731462938 L 394.73232178632003 324.65731462938 L 395.41941024896 324.65731462938 L 395.41941024896 324.65731462938 L 396.1064987116 323.97022616674 L 396.1064987116 323.97022616674 L 396.1064987116 323.97022616674 L 396.79358717424003 323.97022616674 L 396.79358717424003 323.2831377041 L 397.48067563688 323.2831377041 L 397.48067563688 323.2831377041" stroke="rgb(132, 0, 0)" fill="none" stroke-width="1.37417692528px" stroke-linecap="round"/><path d="M 397.48067563688 350.7666762097 L 397.48067563688 350.7666762097 L 396.79358717424003 350.07958774706 L 396.79358717424003 350.07958774706 L 396.1064987116 350.07958774706 L 396.1064987116 350.07958774706 L 396.1064987116 349.39249928442 L 395.41941024896 349.39249928442 L 395.41941024896 349.39249928442 L 394.73232178632003 349.39249928442 L 394.73232178632003 348.70541082178 L 394.04523332368 348.70541082178 L 394.04523332368 348.70541082178 L 394.04523332368 348.70541082178 L 393.35814486104 348.01832235914 L 393.35814486104 348.01832235914 L 393.35814486104 348.01832235914 L 392.6710563984 348.01832235914 L 392.6710563984 347.3312338965 L 392.6710563984 347.3312338965 L 391.98396793576 347.3312338965 L 391.98396793576 347.3312338965 L 391.98396793576 346.64414543386 L 391.98396793576 346.64414543386 L 391.98396793576 346.64414543386 L 391.29687947312 346.64414543386 L 391.29687947312 345.95705697121997 L 391.29687947312 345.95705697121997 L 391.29687947312 345.95705697121997 L 391.29687947312 345.95705697121997 L 391.29687947312 345.26996850858 L 391.29687947312 345.26996850858 L 391.29687947312 345.26996850858 L 391.29687947312 345.26996850858 L 391.29687947312 344.58288004594 L 391.29687947312 344.58288004594 L 390.60979101048 344.58288004594 L 390.60979101048 344.58288004594 L 390.60979101048 343.8957915833 L 390.60979101048 343.8957915833 L 390.60979101048 343.8957915833 L 390.60979101048 343.8957915833 L 390.60979101048 343.20870312066 L 390.60979101048 343.20870312066 L 390.60979101048 343.20870312066 L 391.29687947312 343.20870312066 L 391.29687947312 342.52161465802 L 391.29687947312 342.52161465802 L 391.29687947312 342.52161465802 L 391.29687947312 342.52161465802 L 391.29687947312 341.83452619538 L 391.29687947312 341.83452619538 L 391.29687947312 341.83452619538 L 391.29687947312 341.83452619538 L 391.29687947312 341.14743773274 L 391.29687947312 341.14743773274 L 391.98396793576 341.14743773274 L 391.98396793576 341.14743773274 L 391.98396793576 340.4603492701 L 391.98396793576 340.4603492701 L 391.98396793576 340.4603492701 L 392.6710563984 340.4603492701 L 392.6710563984 339.77326080746 L 392.6710563984 339.77326080746 L 393.35814486104 339.77326080746 L 393.35814486104 339.77326080746 L 393.35814486104 339.08617234482 L 394.04523332368 339.08617234482 L 394.04523332368 339.08617234482 L 394.04523332368 339.08617234482 L 394.73232178632003 338.39908388218 L 394.73232178632003 338.39908388218 L 395.41941024896 338.39908388218 L 395.41941024896 338.39908388218 L 396.1064987116 337.71199541954 L 396.1064987116 337.71199541954 L 396.1064987116 337.71199541954 L 396.79358717424003 337.71199541954 L 396.79358717424003 337.0249069569 L 397.48067563688 337.0249069569 L 397.48067563688 337.0249069569" stroke="rgb(132, 0, 0)" fill="none" stroke-width="1.37417692528px" stroke-linecap="round"/><path d="M 397.48067563688 364.5084454625 L 397.48067563688 363.82135699986 L 396.79358717424003 363.82135699986 L 396.79358717424003 363.82135699986 L 396.1064987116 363.82135699986 L 396.1064987116 363.82135699986 L 396.1064987116 363.13426853722 L 395.41941024896 363.13426853722 L 395.41941024896 363.13426853722 L 394.73232178632003 363.13426853722 L 394.73232178632003 362.44718007458 L 394.04523332368 362.44718007458 L 394.04523332368 362.44718007458 L 394.04523332368 362.44718007458 L 393.35814486104 361.76009161193997 L 393.35814486104 361.76009161193997 L 393.35814486104 361.76009161193997 L 392.6710563984 361.76009161193997 L 392.6710563984 361.0730031493 L 392.6710563984 361.0730031493 L 391.98396793576 361.0730031493 L 391.98396793576 361.0730031493 L 391.98396793576 360.38591468666 L 391.98396793576 360.38591468666 L 391.98396793576 360.38591468666 L 391.29687947312 360.38591468666 L 391.29687947312 359.69882622401997 L 391.29687947312 359.69882622401997 L 391.29687947312 359.69882622401997 L 391.29687947312 359.69882622401997 L 391.29687947312 359.01173776138 L 391.29687947312 359.01173776138 L 391.29687947312 359.01173776138 L 391.29687947312 359.01173776138 L 391.29687947312 358.32464929874 L 391.29687947312 358.32464929874 L 390.60979101048 358.32464929874 L 390.60979101048 358.32464929874 L 390.60979101048 357.63756083609996 L 390.60979101048 357.63756083609996 L 390.60979101048 357.63756083609996 L 390.60979101048 357.63756083609996 L 390.60979101048 356.95047237346 L 390.60979101048 356.95047237346 L 390.60979101048 356.95047237346 L 391.29687947312 356.95047237346 L 391.29687947312 356.26338391082 L 391.29687947312 356.26338391082 L 391.29687947312 356.26338391082 L 391.29687947312 356.26338391082 L 391.29687947312 355.57629544818 L 391.29687947312 355.57629544818 L 391.29687947312 355.57629544818 L 391.29687947312 355.57629544818 L 391.29687947312 354.88920698554 L 391.29687947312 354.88920698554 L 391.98396793576 354.88920698554 L 391.98396793576 354.88920698554 L 391.98396793576 354.2021185229 L 391.98396793576 354.2021185229 L 391.98396793576 354.2021185229 L 392.6710563984 354.2021185229 L 392.6710563984 353.51503006026 L 392.6710563984 353.51503006026 L 393.35814486104 353.51503006026 L 393.35814486104 353.51503006026 L 393.35814486104 352.82794159762 L 394.04523332368 352.82794159762 L 394.04523332368 352.82794159762 L 394.04523332368 352.82794159762 L 394.73232178632003 352.14085313498 L 394.73232178632003 352.14085313498 L 395.41941024896 352.14085313498 L 395.41941024896 352.14085313498 L 396.1064987116 351.45376467234 L 396.1064987116 351.45376467234 L 396.1064987116 351.45376467234 L 396.79358717424003 351.45376467234 L 396.79358717424003 350.7666762097 L 397.48067563688 350.7666762097 L 397.48067563688 350.7666762097" stroke="rgb(132, 0, 0)" fill="none" stroke-width="1.37417692528px" stroke-linecap="round"/><path d="M 397.48067563688 309.5413684513 L 397.48067563688 299.2350415117" stroke="rgb(132, 0, 0)" fill="none" stroke-width="1.37417692528px" stroke-linecap="round"/><path d="M 398.16776409952 374.8147724021 L 398.16776409952 364.5084454625" stroke="rgb(132, 0, 0)" fill="none" stroke-width="1.37417692528px" stroke-linecap="round"/><text x="380.30346407088" y="337.0249069569" stroke="rgb(245, 241, 237)" stroke-width="1.37417692528px" paint-order="stroke" fill="rgb(15, 15, 15)" font-family="sans-serif" text-anchor="end" dominant-baseline="middle" font-size="12.36759232752px">L2</text><text x="411.90953335232" y="337.0249069569" fill="rgb(15, 15, 15)" font-family="sans-serif" text-anchor="start" dominant-baseline="middle" font-size="12.36759232752px">470H</text></g><g data-circuit-json-type="schematic_component" data-schematic-component-id="schematic_component_8"><rect class="component-overlay" x="868.13627254528" y="93.10850271970003" width="18.551388491280022" height="75.57973089039999" fill="transparent"/><path d="M 877.0684225596001 168.6882336101 L 877.0684225596001 149.44975665618003" stroke="rgb(132, 0, 0)" fill="none" stroke-width="1.37417692528px" stroke-linecap="round"/><path d="M 877.0684225596001 113.03406813626002 L 877.0684225596001 93.10850271970003" stroke="rgb(132, 0, 0)" fill="none" stroke-width="1.37417692528px" stroke-linecap="round"/><path d="M 868.13627254528 130.8983681649 L 868.13627254528 113.03406813626002 L 886.68766103656 113.03406813626002 L 886.68766103656 149.44975665618003 L 868.13627254528 149.44975665618003 L 868.13627254528 130.8983681649" stroke="rgb(132, 0, 0)" fill="none" stroke-width="1.37417692528px" stroke-linecap="round"/><text x="896.2694772404024" y="121.27912968794003" stroke="rgb(245, 241, 237)" stroke-width="1.37417692528px" paint-order="stroke" fill="rgb(15, 15, 15)" font-family="sans-serif" text-anchor="start" dominant-baseline="middle" font-size="12.36759232752px">R1</text><text x="896.2694772404024" y="143.26596049242002" fill="rgb(15, 15, 15)" font-family="sans-serif" text-anchor="start" dominant-baseline="middle" font-size="12.36759232752px">10kΩ</text></g><g data-circuit-json-type="schematic_component" data-schematic-component-id="schematic_component_9"><rect class="component chip" x="306.78499856840006" y="529.4096764961" width="41.225307758399936" height="27.483538505599995" stroke-width="1.37417692528px" fill="rgb(255, 255, 194)" stroke="rgb(132, 0, 0)"/><rect class="component-overlay" x="306.78499856840006" y="529.4096764961" width="41.225307758399936" height="27.483538505599995" fill="transparent"/><text x="354.8811909532" y="505.36158030370007" fill="#006464" text-anchor="start" dominant-baseline="middle" font-family="sans-serif" font-size="12.36759232752px" transform="rotate(0, 354.8811909532, 505.36158030370007)"></text><text x="354.8811909532" y="491.6198110509" fill="#006464" text-anchor="start" dominant-baseline="middle" font-family="sans-serif" font-size="12.36759232752px" transform="rotate(0, 354.8811909532, 491.6198110509)">Thermo</text><line class="component-pin" x1="320.52676782120005" y1="529.4096764961" x2="320.52676782120005" y2="501.9261379905" stroke-width="1.37417692528px"/><g data-schematic-port-id="source_port_26"><rect x="319.15259089592007" y="500.55196106522004" width="2.74835385056" height="2.74835385056" opacity="0"/></g><text class="pin-number" x="319.15259089592007" y="515.6679072433001" style="font-family: sans-serif;" fill="rgb(169, 0, 0)" text-anchor="middle" dominant-baseline="auto" font-size="10.3063269396px" transform="rotate(-90 319.15259089592007 515.6679072433001)">2</text><line class="component-pin" x1="334.26853707400005" y1="529.4096764961" x2="334.26853707400005" y2="501.9261379905" stroke-width="1.37417692528px"/><g data-schematic-port-id="source_port_27"><rect x="332.89436014872007" y="500.55196106522004" width="2.74835385056" height="2.74835385056" opacity="0"/></g><text class="pin-number" x="332.89436014872" y="515.6679072433001" style="font-family: sans-serif;" fill="rgb(169, 0, 0)" text-anchor="middle" dominant-baseline="auto" font-size="10.3063269396px" transform="rotate(-90 332.89436014872 515.6679072433001)">1</text></g><g class="schematic-port-hover" data-schematic-port-id="source_port_0"><circle cx="52.56226739160002" cy="161.8173489837" r="2.74835385056" fill="red" opacity="0"/></g><g class="schematic-port-hover" data-schematic-port-id="source_port_1"><circle cx="52.56226739160002" cy="237.3970798741" r="2.74835385056" fill="red" opacity="0"/></g><g class="schematic-port-hover" data-schematic-port-id="source_port_2"><circle cx="289.6077870024" cy="268.3160606929" r="2.74835385056" fill="red" opacity="0"/></g><g class="schematic-port-hover" data-schematic-port-id="source_port_3"><circle cx="365.1875178928" cy="268.3160606929" r="2.74835385056" fill="red" opacity="0"/></g><g class="schematic-port-hover" data-schematic-port-id="source_port_4"><circle cx="1110.6784998572" cy="165.2527912969" r="2.74835385056" fill="red" opacity="0"/></g><g class="schematic-port-hover" data-schematic-port-id="source_port_5"><circle cx="1110.6784998572" cy="178.9945605497" r="2.74835385056" fill="red" opacity="0"/></g><g class="schematic-port-hover" data-schematic-port-id="source_port_6"><circle cx="1110.6784998572" cy="192.7363298025" r="2.74835385056" fill="red" opacity="0"/></g><g class="schematic-port-hover" data-schematic-port-id="source_port_7"><circle cx="1110.6784998572" cy="206.4780990553" r="2.74835385056" fill="red" opacity="0"/></g><g class="schematic-port-hover" data-schematic-port-id="source_port_8"><circle cx="1110.6784998572" cy="220.2198683081" r="2.74835385056" fill="red" opacity="0"/></g><g class="schematic-port-hover" data-schematic-port-id="source_port_9"><circle cx="1110.6784998572" cy="233.9616375609" r="2.74835385056" fill="red" opacity="0"/></g><g class="schematic-port-hover" data-schematic-port-id="source_port_10"><circle cx="533.5241912396" cy="192.7363298025" r="2.74835385056" fill="red" opacity="0"/></g><g class="schematic-port-hover" data-schematic-port-id="source_port_11"><circle cx="533.5241912396" cy="206.4780990553" r="2.74835385056" fill="red" opacity="0"/></g><g class="schematic-port-hover" data-schematic-port-id="source_port_12"><circle cx="533.5241912396" cy="220.2198683081" r="2.74835385056" fill="red" opacity="0"/></g><g class="schematic-port-hover" data-schematic-port-id="source_port_13"><circle cx="533.5241912396" cy="178.9945605497" r="2.74835385056" fill="red" opacity="0"/></g><g class="schematic-port-hover" data-schematic-port-id="source_port_14"><circle cx="670.9418837676001" cy="185.8654451761" r="2.74835385056" fill="red" opacity="0"/></g><g class="schematic-port-hover" data-schematic-port-id="source_port_15"><circle cx="670.9418837676001" cy="199.6072144289" r="2.74835385056" fill="red" opacity="0"/></g><g class="schematic-port-hover" data-schematic-port-id="source_port_16"><circle cx="670.9418837676001" cy="213.3489836817" r="2.74835385056" fill="red" opacity="0"/></g><g class="schematic-port-hover" data-schematic-port-id="source_port_18"><circle cx="451.0735757228" cy="405.7337532209" r="2.74835385056" fill="red" opacity="0"/></g><g class="schematic-port-hover" data-schematic-port-id="source_port_19"><circle cx="203.72172917240005" cy="405.7337532209" r="2.74835385056" fill="red" opacity="0"/></g><g class="schematic-port-hover" data-schematic-port-id="source_port_20"><circle cx="260.06298310888" cy="299.2350415117" r="2.74835385056" fill="red" opacity="0"/></g><g class="schematic-port-hover" data-schematic-port-id="source_port_21"><circle cx="260.75007157152004" cy="374.81477240209995" r="2.74835385056" fill="red" opacity="0"/></g><g class="schematic-port-hover" data-schematic-port-id="source_port_22"><circle cx="397.48067563688005" cy="299.2350415117" r="2.74835385056" fill="red" opacity="0"/></g><g class="schematic-port-hover" data-schematic-port-id="source_port_23"><circle cx="398.16776409952" cy="374.81477240209995" r="2.74835385056" fill="red" opacity="0"/></g><g class="schematic-port-hover" data-schematic-port-id="source_port_24"><circle cx="877.0684225596001" cy="168.68823361009999" r="2.74835385056" fill="red" opacity="0"/></g><g class="schematic-port-hover" data-schematic-port-id="source_port_25"><circle cx="877.0684225596001" cy="93.1085027197" r="2.74835385056" fill="red" opacity="0"/></g><g class="schematic-port-hover" data-schematic-port-id="source_port_26"><circle cx="320.52676782120005" cy="501.9261379905" r="2.74835385056" fill="red" opacity="0"/></g><g class="schematic-port-hover" data-schematic-port-id="source_port_27"><circle cx="334.26853707400005" cy="501.9261379905" r="2.74835385056" fill="red" opacity="0"/></g><rect class="component-overlay" x="44.31720583992002" y="135.70798740337997" width="16.49012310335999" height="12.367592327520015" fill="transparent"/><path d="M 60.80732894328001 135.70798740337997 L 44.31720583992002 135.70798740337997" stroke="rgb(132, 0, 0)" fill="none" stroke-width="1.37417692528px" stroke-linecap="round"/><path d="M 52.56226739160002 135.70798740337997 L 52.56226739160002 148.0755797309" stroke="rgb(132, 0, 0)" fill="none" stroke-width="1.37417692528px" stroke-linecap="round"/><text x="52.56226739160002" y="132.27254509018" fill="rgb(15, 15, 15)" font-family="sans-serif" text-anchor="middle" dominant-baseline="ideographic" font-size="12.36759232752px">VCC</text><rect class="component-overlay" x="985.62839965672" y="66.99914113937996" width="16.49012310336002" height="12.367592327520015" fill="transparent"/><path d="M 1002.11852276008 66.99914113937996 L 985.62839965672 66.99914113937997" stroke="rgb(132, 0, 0)" fill="none" stroke-width="1.37417692528px" stroke-linecap="round"/><path d="M 993.8734612084 66.99914113937996 L 993.8734612084 79.36673346689997" stroke="rgb(132, 0, 0)" fill="none" stroke-width="1.37417692528px" stroke-linecap="round"/><text x="993.8734612084" y="63.563698826179966" fill="rgb(15, 15, 15)" font-family="sans-serif" text-anchor="middle" dominant-baseline="ideographic" font-size="12.36759232752px">VCC</text><rect class="component-overlay" x="44.31720583992002" y="238.42771256805997" width="16.49012310335999" height="12.367592327520015" fill="transparent"/><path d="M 44.31720583992002 250.79530489558 L 60.80732894328001 250.79530489558" stroke="rgb(132, 0, 0)" fill="none" stroke-width="1.37417692528px" stroke-linecap="round"/><path d="M 52.56226739160002 250.79530489558 L 52.56226739160002 238.42771256805997" stroke="rgb(132, 0, 0)" fill="none" stroke-width="1.37417692528px" stroke-linecap="round"/><text x="52.56226739160002" y="254.23074720877997" fill="rgb(15, 15, 15)" font-family="sans-serif" text-anchor="middle" dominant-baseline="hanging" font-size="12.36759232752px">GND</text><path class="net-label" d="
    M 1110.6784998572,165.2527912969
    L 1106.968222158944,172.673346693412
    L 1073.0443744635318,172.673346693412
    L 1073.0443744635318,157.83223590038799
    L 1106.968222158944,157.83223590038799
    Z
  " fill="rgba(255, 255, 255, 0.6)" stroke="rgb(132, 0, 0)" stroke-width="1.37417692528px"/><text class="net-label-text" x="1104.49470369344" y="165.2527912969" fill="rgb(132, 0, 0)" text-anchor="end" dominant-baseline="central" font-family="sans-serif" font-variant-numeric="tabular-nums" font-size="12.36759232752px" transform="">GND</text><path class="net-label" d="
    M 533.5241912396,206.4780990553
    L 529.8139135413439,213.89865445181198
    L 363.95991983954985,213.89865445181198
    L 363.95991983954985,199.05754365878798
    L 529.8139135413439,199.05754365878798
    Z
  " fill="rgba(255, 255, 255, 0.6)" stroke="rgb(132, 0, 0)" stroke-width="1.37417692528px"/><text class="net-label-text" x="527.34039507584" y="206.4780990553" fill="rgb(132, 0, 0)" text-anchor="end" dominant-baseline="central" font-family="sans-serif" font-variant-numeric="tabular-nums" font-size="12.36759232752px" transform="">C2_pin2/U1_T_NEG/L1_pin1</text><path class="net-label" d="
    M 533.5241912396,220.2198683081
    L 529.8139135413439,227.64042370461198
    L 364.41797881464316,227.64042370461198
    L 364.41797881464316,212.79931291158798
    L 529.8139135413439,212.79931291158798
    Z
  " fill="rgba(255, 255, 255, 0.6)" stroke="rgb(132, 0, 0)" stroke-width="1.37417692528px"/><text class="net-label-text" x="527.34039507584" y="220.2198683081" fill="rgb(132, 0, 0)" text-anchor="end" dominant-baseline="central" font-family="sans-serif" font-variant-numeric="tabular-nums" font-size="12.36759232752px" transform="">C2_pin1/U1_T_POS/L2_pin1</text><path class="net-label" d="
    M 767.1342685372,185.8654451761
    L 759.713713140688,182.155167477844
    L 759.713713140688,73.36616089317732
    L 774.554823933712,73.36616089317732
    L 774.554823933712,182.155167477844
    Z
  " fill="rgba(255, 255, 255, 0.6)" stroke="rgb(132, 0, 0)" stroke-width="1.37417692528px"/><text class="net-label-text" x="767.1342685372" y="179.68164901234" fill="rgb(132, 0, 0)" text-anchor="start" dominant-baseline="central" font-family="sans-serif" font-variant-numeric="tabular-nums" font-size="12.36759232752px" transform="rotate(-90 767.1342685372 179.68164901234)">JP1_pin3/U1_SCK</text><path class="net-label" d="
    M 670.9418837676001,213.3489836817
    L 674.6521614658561,205.92842828518798
    L 776.2862868595648,205.92842828518798
    L 776.2862868595648,220.769539078212
    L 674.6521614658561,220.769539078212
    Z
  " fill="rgba(255, 255, 255, 0.6)" stroke="rgb(132, 0, 0)" stroke-width="1.37417692528px"/><text class="net-label-text" x="677.1256799313601" y="213.3489836817" fill="rgb(132, 0, 0)" text-anchor="start" dominant-baseline="central" font-family="sans-serif" font-variant-numeric="tabular-nums" font-size="12.36759232752px" transform="">JP1_pin4/U1_SO</text><path class="net-label" d="
    M 1110.6784998572,206.4780990553
    L 1106.968222158944,213.89865445181198
    L 1005.3340967652352,213.89865445181198
    L 1005.3340967652352,199.05754365878798
    L 1106.968222158944,199.05754365878798
    Z
  " fill="rgba(255, 255, 255, 0.6)" stroke="rgb(132, 0, 0)" stroke-width="1.37417692528px"/><text class="net-label-text" x="1104.49470369344" y="206.4780990553" fill="rgb(132, 0, 0)" text-anchor="end" dominant-baseline="central" font-family="sans-serif" font-variant-numeric="tabular-nums" font-size="12.36759232752px" transform="">JP1_pin4/U1_SO</text><path class="net-label" d="
    M 760.2633839108,199.6072144289
    L 767.683939307312,203.317492127156
    L 767.683939307312,353.0294875466611
    L 752.842828514288,353.0294875466611
    L 752.842828514288,203.317492127156
    Z
  " fill="rgba(255, 255, 255, 0.6)" stroke="rgb(132, 0, 0)" stroke-width="1.37417692528px"/><text class="net-label-text" x="760.2633839108" y="205.79101059266" fill="rgb(132, 0, 0)" text-anchor="start" dominant-baseline="central" font-family="sans-serif" font-variant-numeric="tabular-nums" font-size="12.36759232752px" transform="rotate(90 760.2633839108 205.79101059266)">JP1_pin6/U1_CS/R1_pin1</text><path class="net-label" d="
    M 877.0684225596001,168.68823361009999
    L 884.4889779561121,172.39851130835598
    L 884.4889779561121,322.1105067278611
    L 869.6478671630881,322.1105067278611
    L 869.6478671630881,172.39851130835598
    Z
  " fill="rgba(255, 255, 255, 0.6)" stroke="rgb(132, 0, 0)" stroke-width="1.37417692528px"/><text class="net-label-text" x="877.0684225596001" y="174.87202977386" fill="rgb(132, 0, 0)" text-anchor="start" dominant-baseline="central" font-family="sans-serif" font-variant-numeric="tabular-nums" font-size="12.36759232752px" transform="rotate(90 877.0684225596001 174.87202977386)">JP1_pin6/U1_CS/R1_pin1</text><path class="net-label" d="
    M 320.52676782120005,501.9261379905
    L 313.10621242468807,498.21586029224403
    L 313.10621242468807,315.6518751790451
    L 327.94732321771204,315.6518751790451
    L 327.94732321771204,498.21586029224403
    Z
  " fill="rgba(255, 255, 255, 0.6)" stroke="rgb(132, 0, 0)" stroke-width="1.37417692528px"/><text class="net-label-text" x="320.52676782120005" y="495.74234182674" fill="rgb(132, 0, 0)" text-anchor="start" dominant-baseline="central" font-family="sans-serif" font-variant-numeric="tabular-nums" font-size="12.36759232752px" transform="rotate(-90 320.52676782120005 495.74234182674)">TP2_pin1/L1_pin2/Thermo_pin2</text></svg>