<svg xmlns="http://www.w3.org/2000/svg" width="800" height="600"><style></style><rect class="boundary" x="0" y="0" fill="#000" width="800" height="600"/><rect class="pcb-boundary" fill="none" stroke="#fff" stroke-width="0.3" x="126.88172043010752" y="26.88172043010752" width="546.236559139785" height="546.236559139785"/><path class="pcb-board" d="M 126.88172043010752 573.1182795698925 L 673.1182795698925 573.1182795698925 L 673.1182795698925 26.88172043010752 L 126.88172043010752 26.88172043010752 Z" fill="none" stroke="rgba(255, 255, 255, 0.5)" stroke-width="2.688172043010753"/><rect class="pcb-pad" fill="rgb(200, 52, 52)" x="269.842069892473" y="173.82003763440886" width="25.188333333333336" height="12.04315053763441"/><rect class="pcb-pad" fill="rgb(200, 52, 52)" x="269.842069892473" y="195.3212741935483" width="25.188333333333336" height="12.04315053763441"/><rect class="pcb-pad" fill="rgb(200, 52, 52)" x="269.842069892473" y="216.82933870967773" width="25.188333333333336" height="12.04315053763441"/><rect class="pcb-pad" fill="rgb(200, 52, 52)" x="269.842069892473" y="238.33057526881757" width="25.188333333333336" height="12.04315053763441"/><rect class="pcb-pad" fill="rgb(200, 52, 52)" x="269.842069892473" y="259.83863978494657" width="25.188333333333336" height="12.04315053763441"/><rect class="pcb-pad" fill="rgb(200, 52, 52)" x="269.842069892473" y="281.34670430107565" width="25.188333333333336" height="12.04315053763441"/><rect class="pcb-pad" fill="rgb(200, 52, 52)" x="269.842069892473" y="302.8479408602151" width="25.188333333333336" height="12.04315053763441"/><rect class="pcb-pad" fill="rgb(200, 52, 52)" x="269.842069892473" y="324.3560053763445" width="25.188333333333336" height="12.04315053763441"/><rect class="pcb-pad" fill="rgb(200, 52, 52)" x="269.842069892473" y="345.857241935484" width="25.188333333333336" height="12.04315053763441"/><rect class="pcb-pad" fill="rgb(200, 52, 52)" x="307.959822580645" y="370.8298118279574" width="12.04315053763441" height="25.188333333333336"/><rect class="pcb-pad" fill="rgb(200, 52, 52)" x="329.4610591397848" y="370.8298118279574" width="12.04315053763441" height="25.188333333333336"/><rect class="pcb-pad" fill="rgb(200, 52, 52)" x="350.96912365591425" y="370.8298118279574" width="12.04315053763441" height="25.188333333333336"/><rect class="pcb-pad" fill="rgb(200, 52, 52)" x="372.47036021505374" y="370.8298118279574" width="12.04315053763441" height="25.188333333333336"/><rect class="pcb-pad" fill="rgb(200, 52, 52)" x="393.97842473118277" y="370.8298118279574" width="12.04315053763441" height="25.188333333333336"/><rect class="pcb-pad" fill="rgb(200, 52, 52)" x="415.4864892473118" y="370.8298118279574" width="12.04315053763441" height="25.188333333333336"/><rect class="pcb-pad" fill="rgb(200, 52, 52)" x="436.9877258064517" y="370.8298118279574" width="12.04315053763441" height="25.188333333333336"/><rect class="pcb-pad" fill="rgb(200, 52, 52)" x="458.4957903225807" y="370.8298118279574" width="12.04315053763441" height="25.188333333333336"/><rect class="pcb-pad" fill="rgb(200, 52, 52)" x="479.99702688172096" y="370.8298118279574" width="12.04315053763441" height="25.188333333333336"/><rect class="pcb-pad" fill="rgb(200, 52, 52)" x="504.9695967741936" y="345.857241935484" width="25.188333333333336" height="12.04315053763441"/><rect class="pcb-pad" fill="rgb(200, 52, 52)" x="504.9695967741936" y="324.3560053763445" width="25.188333333333336" height="12.04315053763441"/><rect class="pcb-pad" fill="rgb(200, 52, 52)" x="504.9695967741936" y="302.8479408602151" width="25.188333333333336" height="12.04315053763441"/><rect class="pcb-pad" fill="rgb(200, 52, 52)" x="504.9695967741936" y="281.34670430107565" width="25.188333333333336" height="12.04315053763441"/><rect class="pcb-pad" fill="rgb(200, 52, 52)" x="504.9695967741936" y="259.83863978494657" width="25.188333333333336" height="12.04315053763441"/><rect class="pcb-pad" fill="rgb(200, 52, 52)" x="504.9695967741936" y="238.33057526881757" width="25.188333333333336" height="12.04315053763441"/><rect class="pcb-pad" fill="rgb(200, 52, 52)" x="504.9695967741936" y="216.82933870967773" width="25.188333333333336" height="12.04315053763441"/><rect class="pcb-pad" fill="rgb(200, 52, 52)" x="504.9695967741936" y="195.3212741935483" width="25.188333333333336" height="12.04315053763441"/><rect class="pcb-pad" fill="rgb(200, 52, 52)" x="504.9695967741936" y="173.82003763440886" width="25.188333333333336" height="12.04315053763441"/><rect class="pcb-pad" fill="rgb(200, 52, 52)" x="479.99702688172096" y="135.7022849462365" width="12.04315053763441" height="25.188333333333336"/><rect class="pcb-pad" fill="rgb(200, 52, 52)" x="458.4957903225807" y="135.7022849462365" width="12.04315053763441" height="25.188333333333336"/><rect class="pcb-pad" fill="rgb(200, 52, 52)" x="436.9877258064517" y="135.7022849462365" width="12.04315053763441" height="25.188333333333336"/><rect class="pcb-pad" fill="rgb(200, 52, 52)" x="415.4864892473118" y="135.7022849462365" width="12.04315053763441" height="25.188333333333336"/><rect class="pcb-pad" fill="rgb(200, 52, 52)" x="393.97842473118277" y="135.7022849462365" width="12.04315053763441" height="25.188333333333336"/><rect class="pcb-pad" fill="rgb(200, 52, 52)" x="372.47036021505374" y="135.7022849462365" width="12.04315053763441" height="25.188333333333336"/><rect class="pcb-pad" fill="rgb(200, 52, 52)" x="350.96912365591425" y="135.7022849462365" width="12.04315053763441" height="25.188333333333336"/><rect class="pcb-pad" fill="rgb(200, 52, 52)" x="329.4610591397848" y="135.7022849462365" width="12.04315053763441" height="25.188333333333336"/><rect class="pcb-pad" fill="rgb(200, 52, 52)" x="307.959822580645" y="135.7022849462365" width="12.04315053763441" height="25.188333333333336"/><rect class="pcb-pad" fill="rgb(200, 52, 52)" x="-13.440860215053764" y="-13.440860215053764" width="26.881720430107528" height="26.881720430107528" transform="translate(354.5698924731183 61.02150537634407) rotate(-180)"/><rect class="pcb-pad" fill="rgb(200, 52, 52)" x="-13.440860215053764" y="-13.440860215053764" width="26.881720430107528" height="26.881720430107528" transform="translate(308.8709677419355 61.02150537634407) rotate(-180)"/><rect class="pcb-pad" fill="rgb(200, 52, 52)" x="-13.440860215053764" y="-13.440860215053764" width="26.881720430107528" height="26.881720430107528" transform="translate(354.5698924731183 95.16129032258064) rotate(-180)"/><rect class="pcb-pad" fill="rgb(200, 52, 52)" x="-13.440860215053764" y="-13.440860215053764" width="26.881720430107528" height="26.881720430107528" transform="translate(308.8709677419355 95.16129032258064) rotate(-180)"/><rect class="pcb-pad" fill="rgb(200, 52, 52)" x="212.23118279569894" y="86.6263440860215" width="34.13978494623656" height="17.06989247311828"/><rect class="pcb-pad" fill="rgb(200, 52, 52)" x="212.23118279569894" y="64.77688172043008" width="34.13978494623656" height="17.06989247311828"/><rect class="pcb-pad" fill="rgb(200, 52, 52)" x="212.23118279569894" y="42.92741935483872" width="34.13978494623656" height="17.06989247311828"/><rect class="pcb-pad" fill="rgb(200, 52, 52)" x="198.79032258064515" y="229.56989247311827" width="26.881720430107528" height="26.881720430107528"/><rect class="pcb-pad" fill="rgb(200, 52, 52)" x="198.79032258064515" y="275.26881720430106" width="26.881720430107528" height="26.881720430107528"/><rect class="pcb-pad" fill="rgb(200, 52, 52)" x="147.5806451612903" y="229.56989247311827" width="26.881720430107528" height="26.881720430107528"/><rect class="pcb-pad" fill="rgb(200, 52, 52)" x="147.5806451612903" y="275.26881720430106" width="26.881720430107528" height="26.881720430107528"/><path class="pcb-trace" stroke="rgb(200, 52, 52)" fill="none" d="M 229.30107526881721 95.16129032258064 L 308.8709677419355 95.16129032258064" stroke-width="4.032258064516129" stroke-linecap="round" stroke-linejoin="round" shape-rendering="crispEdges" data-layer="top"/><path class="pcb-trace" stroke="rgb(200, 52, 52)" fill="none" d="M 308.8709677419355 95.16129032258064 L 308.8709677419355 95.16129032258064" stroke-width="4.032258064516129" stroke-linecap="round" stroke-linejoin="round" shape-rendering="crispEdges" data-layer="top"/><path class="pcb-trace" stroke="rgb(200, 52, 52)" fill="none" d="M 229.30107526881721 51.462365591397855 L 299.31182795698925 51.462365591397855" stroke-width="4.032258064516129" stroke-linecap="round" stroke-linejoin="round" shape-rendering="crispEdges" data-layer="top"/><path class="pcb-trace" stroke="rgb(200, 52, 52)" fill="none" d="M 299.31182795698925 51.462365591397855 L 308.8709677419355 61.02150537634407" stroke-width="4.032258064516129" stroke-linecap="round" stroke-linejoin="round" shape-rendering="crispEdges" data-layer="top"/><path class="pcb-silkscreen pcb-silkscreen-top" d="M 276.98411290322593 169.7205322580644 L 276.98411290322593 142.84432795698942 L 303.86031720430094 142.84432795698942" fill="none" stroke="#f2eda1" stroke-width="2.688172043010753" stroke-linecap="round" stroke-linejoin="round" data-pcb-component-id="null" data-pcb-silkscreen-path-id="pcb_silkscreen_path_0"/><path class="pcb-silkscreen pcb-silkscreen-top" d="M 523.0158870967745 169.7205322580644 L 523.0158870967745 142.84432795698942 L 496.13968279569906 142.84432795698942" fill="none" stroke="#f2eda1" stroke-width="2.688172043010753" stroke-linecap="round" stroke-linejoin="round" data-pcb-component-id="null" data-pcb-silkscreen-path-id="pcb_silkscreen_path_1"/><path class="pcb-silkscreen pcb-silkscreen-top" d="M 523.0158870967745 361.99989784946285 L 523.0158870967745 388.87610215053786 L 496.13968279569906 388.87610215053786" fill="none" stroke="#f2eda1" stroke-width="2.688172043010753" stroke-linecap="round" stroke-linejoin="round" data-pcb-component-id="null" data-pcb-silkscreen-path-id="pcb_silkscreen_path_2"/><path class="pcb-silkscreen pcb-silkscreen-top" d="M 276.98411290322593 361.99989784946285 L 276.98411290322593 388.87610215053786 L 303.86031720430094 388.87610215053786" fill="none" stroke="#f2eda1" stroke-width="2.688172043010753" stroke-linecap="round" stroke-linejoin="round" data-pcb-component-id="null" data-pcb-silkscreen-path-id="pcb_silkscreen_path_3"/><path class="pcb-silkscreen pcb-silkscreen-top" d="M 308.8709677419355 85.21505376344084 L 373.38709677419354 85.21505376344084 L 373.38709677419354 36.8279569892473 L 308.8709677419355 36.8279569892473" fill="none" stroke="#f2eda1" stroke-width="2.688172043010753" stroke-linecap="round" stroke-linejoin="round" data-pcb-component-id="pcb_component_1" data-pcb-silkscreen-path-id="pcb_silkscreen_path_4"/><path class="pcb-silkscreen pcb-silkscreen-top" d="M 308.8709677419355 119.35483870967741 L 373.38709677419354 119.35483870967741 L 373.38709677419354 70.96774193548387 L 308.8709677419355 70.96774193548387" fill="none" stroke="#f2eda1" stroke-width="2.688172043010753" stroke-linecap="round" stroke-linejoin="round" data-pcb-component-id="pcb_component_2" data-pcb-silkscreen-path-id="pcb_silkscreen_path_5"/><path class="pcb-silkscreen pcb-silkscreen-top" d="M 259.81182795698925 113.10483870967741 L 259.81182795698925 33.51881720430106 L 198.79032258064518 33.51881720430106 L 198.79032258064518 113.10483870967741 L 259.81182795698925 113.10483870967741 Z" fill="none" stroke="#f2eda1" stroke-width="4.032258064516129" stroke-linecap="round" stroke-linejoin="round" data-pcb-component-id="pcb_component_3" data-pcb-silkscreen-path-id="pcb_silkscreen_path_6"/><path class="pcb-silkscreen pcb-silkscreen-top" d="M 236.42473118279568 288.7096774193548 L 236.42473118279568 224.19354838709677 L 188.03763440860214 224.19354838709677 L 188.03763440860212 288.7096774193548" fill="none" stroke="#f2eda1" stroke-width="2.688172043010753" stroke-linecap="round" stroke-linejoin="round" data-pcb-component-id="pcb_component_4" data-pcb-silkscreen-path-id="pcb_silkscreen_path_7"/><path class="pcb-silkscreen pcb-silkscreen-top" d="M 185.21505376344084 288.7096774193548 L 185.21505376344084 224.19354838709677 L 136.8279569892473 224.19354838709677 L 136.8279569892473 288.7096774193548" fill="none" stroke="#f2eda1" stroke-width="2.688172043010753" stroke-linecap="round" stroke-linejoin="round" data-pcb-component-id="pcb_component_5" data-pcb-silkscreen-path-id="pcb_silkscreen_path_8"/><text x="0" y="0" dx="0" dy="0" fill="#f2eda1" font-family="Arial, sans-serif" font-size="10.752688172043012" text-anchor="middle" dominant-baseline="central" transform="matrix(-1,1.2246467991473532e-16,-1.2246467991473532e-16,-1,331.7204301075269,98.65591397849462)" class="pcb-silkscreen-text pcb-silkscreen-top" data-pcb-silkscreen-text-id="pcb_component_1" stroke="none">R1</text><text x="0" y="0" dx="0" dy="0" fill="#f2eda1" font-family="Arial, sans-serif" font-size="10.752688172043012" text-anchor="middle" dominant-baseline="central" transform="matrix(-1,1.2246467991473532e-16,-1.2246467991473532e-16,-1,331.7204301075269,132.79569892473117)" class="pcb-silkscreen-text pcb-silkscreen-top" data-pcb-silkscreen-text-id="pcb_component_2" stroke="none">R2</text><text x="0" y="0" dx="0" dy="0" fill="#f2eda1" font-family="Arial, sans-serif" font-size="16.12903225806452" text-anchor="middle" dominant-baseline="central" transform="matrix(-1.8369701987210297e-16,-1,1,-1.8369701987210297e-16,182.66129032258067,73.31182795698922)" class="pcb-silkscreen-text pcb-silkscreen-top" data-pcb-silkscreen-text-id="pcb_component_3" stroke="none">SJ1</text><text x="0" y="0" dx="0" dy="0" fill="#f2eda1" font-family="Arial, sans-serif" font-size="10.752688172043012" text-anchor="middle" dominant-baseline="central" transform="matrix(6.123233995736766e-17,1,-1,6.123233995736766e-17,249.86559139784944,265.86021505376345)" class="pcb-silkscreen-text pcb-silkscreen-top" data-pcb-silkscreen-text-id="pcb_component_4" stroke="none">C1</text><text x="0" y="0" dx="0" dy="0" fill="#f2eda1" font-family="Arial, sans-serif" font-size="10.752688172043012" text-anchor="middle" dominant-baseline="central" transform="matrix(6.123233995736766e-17,1,-1,6.123233995736766e-17,198.65591397849462,265.86021505376345)" class="pcb-silkscreen-text pcb-silkscreen-top" data-pcb-silkscreen-text-id="pcb_component_5" stroke="none">C2</text><text x="0" y="0" dx="0" dy="0" fill="#f2eda1" font-family="Arial, sans-serif" font-size="15.481720430107528" text-anchor="middle" dominant-baseline="central" transform="matrix(1,0,0,1,365.86021505376345,501.08333333333337)" class="pcb-silkscreen-text pcb-silkscreen-top" data-pcb-silkscreen-text-id="pcb_component_6" stroke="none">pin1</text><text x="0" y="0" dx="0" dy="0" fill="#f2eda1" font-family="Arial, sans-serif" font-size="15.481720430107528" text-anchor="middle" dominant-baseline="central" transform="matrix(1,0,0,1,434.13978494623655,501.08333333333337)" class="pcb-silkscreen-text pcb-silkscreen-top" data-pcb-silkscreen-text-id="pcb_component_6" stroke="none">pin2</text><text x="0" y="0" dx="0" dy="0" fill="#f2eda1" font-family="Arial, sans-serif" font-size="15.481720430107528" text-anchor="middle" dominant-baseline="central" transform="matrix(1,0,0,1,502.4193548387097,501.08333333333337)" class="pcb-silkscreen-text pcb-silkscreen-top" data-pcb-silkscreen-text-id="pcb_component_6" stroke="none">pin3</text><text x="0" y="0" dx="0" dy="0" fill="#f2eda1" font-family="Arial, sans-serif" font-size="15.481720430107528" text-anchor="middle" dominant-baseline="central" transform="matrix(1,0,0,1,570.6989247311828,501.08333333333337)" class="pcb-silkscreen-text pcb-silkscreen-top" data-pcb-silkscreen-text-id="pcb_component_6" stroke="none">pin4</text><text x="0" y="0" dx="0" dy="0" fill="#f2eda1" font-family="Arial, sans-serif" font-size="18.817204301075268" text-anchor="middle" dominant-baseline="central" transform="matrix(1,0,0,1,468.2795698924731,470.69892473118284)" class="pcb-silkscreen-text pcb-silkscreen-top" data-pcb-silkscreen-text-id="pcb_component_6" stroke="none">JP1</text><g><rect class="pcb-hole-outer-pad" fill="rgb(200, 52, 52)" x="340.5967741935484" y="513.7150537634409" width="50.526881720430104" height="50.526881720430104"/><circle class="pcb-hole-inner" fill="#FF26E2" cx="365.86021505376345" cy="538.9784946236559" r="13.655913978494624"/></g><g><circle class="pcb-hole-outer" fill="rgb(200, 52, 52)" cx="434.13978494623655" cy="538.9784946236559" r="25.263440860215052"/><circle class="pcb-hole-inner" fill="#FF26E2" cx="434.13978494623655" cy="538.9784946236559" r="13.655913978494624"/></g><g><circle class="pcb-hole-outer" fill="rgb(200, 52, 52)" cx="502.4193548387097" cy="538.9784946236559" r="25.263440860215052"/><circle class="pcb-hole-inner" fill="#FF26E2" cx="502.4193548387097" cy="538.9784946236559" r="13.655913978494624"/></g><g><circle class="pcb-hole-outer" fill="rgb(200, 52, 52)" cx="570.6989247311828" cy="538.9784946236559" r="25.263440860215052"/><circle class="pcb-hole-inner" fill="#FF26E2" cx="570.6989247311828" cy="538.9784946236559" r="13.655913978494624"/></g><circle class="pcb-hole" cx="195.16129032258064" cy="504.8387096774194" r="43.01075268817205" fill="#FF26E2"/><circle class="pcb-hole" cx="604.8387096774194" cy="95.16129032258064" r="43.01075268817205" fill="#FF26E2"/></svg>