<svg xmlns="http://www.w3.org/2000/svg" width="800" height="600"><style></style><rect class="boundary" x="0" y="0" fill="#000" width="800" height="600"/><rect class="pcb-boundary" fill="none" stroke="#fff" stroke-width="0.3" x="24.93765586034914" y="55.08884039900232" width="750.1246882793016" height="489.8223192019955"/><path class="pcb-board" d="M 24.93765586034914 544.9111596009978 L 775.0623441396508 544.9111596009978 L 775.0623441396508 55.08884039900232 L 24.93765586034914 55.08884039900232 Z" fill="none" stroke="rgba(255, 255, 255, 0.5)" stroke-width="2.493765586034913"/><rect class="pcb-pad" fill="rgb(200, 52, 52)" x="272.0230673316707" y="288.9069301745637" width="23.366733167082295" height="11.172199501246885"/><rect class="pcb-pad" fill="rgb(200, 52, 52)" x="272.0230673316707" y="308.8532144638402" width="23.366733167082295" height="11.172199501246885"/><rect class="pcb-pad" fill="rgb(200, 52, 52)" x="272.0230673316707" y="328.8058329177059" width="23.366733167082295" height="11.172199501246885"/><rect class="pcb-pad" fill="rgb(200, 52, 52)" x="272.0230673316707" y="348.75211720698275" width="23.366733167082295" height="11.172199501246885"/><rect class="pcb-pad" fill="rgb(200, 52, 52)" x="272.0230673316707" y="368.7047356608481" width="23.366733167082295" height="11.172199501246885"/><rect class="pcb-pad" fill="rgb(200, 52, 52)" x="272.0230673316707" y="388.6573541147134" width="23.366733167082295" height="11.172199501246885"/><rect class="pcb-pad" fill="rgb(200, 52, 52)" x="272.0230673316707" y="408.60363840399" width="23.366733167082295" height="11.172199501246885"/><rect class="pcb-pad" fill="rgb(200, 52, 52)" x="272.0230673316707" y="428.55625685785566" width="23.366733167082295" height="11.172199501246885"/><rect class="pcb-pad" fill="rgb(200, 52, 52)" x="272.0230673316707" y="448.50254114713215" width="23.366733167082295" height="11.172199501246885"/><rect class="pcb-pad" fill="rgb(200, 52, 52)" x="307.3841745635909" y="471.6691147132172" width="11.172199501246885" height="23.366733167082295"/><rect class="pcb-pad" fill="rgb(200, 52, 52)" x="327.33045885286776" y="471.6691147132172" width="11.172199501246885" height="23.366733167082295"/><rect class="pcb-pad" fill="rgb(200, 52, 52)" x="347.28307730673345" y="471.6691147132172" width="11.172199501246885" height="23.366733167082295"/><rect class="pcb-pad" fill="rgb(200, 52, 52)" x="367.22936159601" y="471.6691147132172" width="11.172199501246885" height="23.366733167082295"/><rect class="pcb-pad" fill="rgb(200, 52, 52)" x="387.18198004987534" y="471.6691147132172" width="11.172199501246885" height="23.366733167082295"/><rect class="pcb-pad" fill="rgb(200, 52, 52)" x="407.1345985037407" y="471.6691147132172" width="11.172199501246885" height="23.366733167082295"/><rect class="pcb-pad" fill="rgb(200, 52, 52)" x="427.08088279301757" y="471.6691147132172" width="11.172199501246885" height="23.366733167082295"/><rect class="pcb-pad" fill="rgb(200, 52, 52)" x="447.0335012468829" y="471.6691147132172" width="11.172199501246885" height="23.366733167082295"/><rect class="pcb-pad" fill="rgb(200, 52, 52)" x="466.97978553616014" y="471.6691147132172" width="11.172199501246885" height="23.366733167082295"/><rect class="pcb-pad" fill="rgb(200, 52, 52)" x="490.1463591022445" y="448.50254114713215" width="23.366733167082295" height="11.172199501246885"/><rect class="pcb-pad" fill="rgb(200, 52, 52)" x="490.1463591022445" y="428.55625685785566" width="23.366733167082295" height="11.172199501246885"/><rect class="pcb-pad" fill="rgb(200, 52, 52)" x="490.1463591022445" y="408.60363840399" width="23.366733167082295" height="11.172199501246885"/><rect class="pcb-pad" fill="rgb(200, 52, 52)" x="490.1463591022445" y="388.6573541147134" width="23.366733167082295" height="11.172199501246885"/><rect class="pcb-pad" fill="rgb(200, 52, 52)" x="490.1463591022445" y="368.7047356608481" width="23.366733167082295" height="11.172199501246885"/><rect class="pcb-pad" fill="rgb(200, 52, 52)" x="490.1463591022445" y="348.75211720698275" width="23.366733167082295" height="11.172199501246885"/><rect class="pcb-pad" fill="rgb(200, 52, 52)" x="490.1463591022445" y="328.8058329177059" width="23.366733167082295" height="11.172199501246885"/><rect class="pcb-pad" fill="rgb(200, 52, 52)" x="490.1463591022445" y="308.8532144638402" width="23.366733167082295" height="11.172199501246885"/><rect class="pcb-pad" fill="rgb(200, 52, 52)" x="490.1463591022445" y="288.9069301745637" width="23.366733167082295" height="11.172199501246885"/><rect class="pcb-pad" fill="rgb(200, 52, 52)" x="466.97978553616014" y="253.54582294264316" width="11.172199501246885" height="23.366733167082295"/><rect class="pcb-pad" fill="rgb(200, 52, 52)" x="447.0335012468829" y="253.54582294264316" width="11.172199501246885" height="23.366733167082295"/><rect class="pcb-pad" fill="rgb(200, 52, 52)" x="427.08088279301757" y="253.54582294264316" width="11.172199501246885" height="23.366733167082295"/><rect class="pcb-pad" fill="rgb(200, 52, 52)" x="407.1345985037407" y="253.54582294264316" width="11.172199501246885" height="23.366733167082295"/><rect class="pcb-pad" fill="rgb(200, 52, 52)" x="387.18198004987534" y="253.54582294264316" width="11.172199501246885" height="23.366733167082295"/><rect class="pcb-pad" fill="rgb(200, 52, 52)" x="367.22936159601" y="253.54582294264316" width="11.172199501246885" height="23.366733167082295"/><rect class="pcb-pad" fill="rgb(200, 52, 52)" x="347.28307730673345" y="253.54582294264316" width="11.172199501246885" height="23.366733167082295"/><rect class="pcb-pad" fill="rgb(200, 52, 52)" x="327.33045885286776" y="253.54582294264316" width="11.172199501246885" height="23.366733167082295"/><rect class="pcb-pad" fill="rgb(200, 52, 52)" x="307.3841745635909" y="253.54582294264316" width="11.172199501246885" height="23.366733167082295"/><rect class="pcb-pad" fill="rgb(200, 52, 52)" x="559.850374064838" y="329.40305486284274" width="14.962593516209479" height="14.962593516209479"/><rect class="pcb-pad" fill="rgb(200, 52, 52)" x="559.850374064838" y="304.4653990024936" width="14.962593516209479" height="14.962593516209479"/><rect class="pcb-pad" fill="rgb(200, 52, 52)" x="622.1945137157107" y="329.40305486284274" width="14.962593516209479" height="14.962593516209479"/><rect class="pcb-pad" fill="rgb(200, 52, 52)" x="622.1945137157107" y="304.4653990024936" width="14.962593516209479" height="14.962593516209479"/><rect class="pcb-pad" fill="rgb(200, 52, 52)" x="561.0972568578553" y="181.02400249376544" width="37.406483790523694" height="37.406483790523694"/><rect class="pcb-pad" fill="rgb(200, 52, 52)" x="624.4389027431422" y="181.02400249376544" width="37.406483790523694" height="37.406483790523694"/><rect class="pcb-pad" fill="rgb(200, 52, 52)" x="687.780548628429" y="181.02400249376544" width="37.406483790523694" height="37.406483790523694"/><rect class="pcb-pad" fill="rgb(200, 52, 52)" x="372.81795511221947" y="167.3082917705734" width="14.962593516209479" height="14.962593516209479"/><rect class="pcb-pad" fill="rgb(200, 52, 52)" x="397.75561097256855" y="167.3082917705734" width="14.962593516209479" height="14.962593516209479"/><rect class="pcb-pad" fill="rgb(200, 52, 52)" x="372.81795511221947" y="104.96415211970056" width="14.962593516209479" height="14.962593516209479"/><rect class="pcb-pad" fill="rgb(200, 52, 52)" x="397.75561097256855" y="104.96415211970056" width="14.962593516209479" height="14.962593516209479"/><path class="pcb-silkscreen pcb-silkscreen-top" d="M 278.64860349127196 285.10389775561066 L 278.64860349127196 260.17135910224437 L 303.5811421446383 260.17135910224437" fill="none" stroke="#f2eda1" stroke-width="2.493765586034913" stroke-linecap="round" stroke-linejoin="round" data-pcb-component-id="null" data-pcb-silkscreen-path-id="pcb_silkscreen_path_0"/><path class="pcb-silkscreen pcb-silkscreen-top" d="M 506.8875561097259 285.10389775561066 L 506.8875561097259 260.17135910224437 L 481.9550174563592 260.17135910224437" fill="none" stroke="#f2eda1" stroke-width="2.493765586034913" stroke-linecap="round" stroke-linejoin="round" data-pcb-component-id="null" data-pcb-silkscreen-path-id="pcb_silkscreen_path_1"/><path class="pcb-silkscreen pcb-silkscreen-top" d="M 506.8875561097259 463.477773067332 L 506.8875561097259 488.4103117206983 L 481.9550174563592 488.4103117206983" fill="none" stroke="#f2eda1" stroke-width="2.493765586034913" stroke-linecap="round" stroke-linejoin="round" data-pcb-component-id="null" data-pcb-silkscreen-path-id="pcb_silkscreen_path_2"/><path class="pcb-silkscreen pcb-silkscreen-top" d="M 278.64860349127196 463.477773067332 L 278.64860349127196 488.4103117206983 L 303.5811421446383 488.4103117206983" fill="none" stroke="#f2eda1" stroke-width="2.493765586034913" stroke-linecap="round" stroke-linejoin="round" data-pcb-component-id="null" data-pcb-silkscreen-path-id="pcb_silkscreen_path_3"/><path class="pcb-silkscreen pcb-silkscreen-top" d="M 549.8753117206983 311.94669576059835 L 549.8753117206983 349.353179551122 L 584.7880299251871 349.353179551122 L 584.7880299251871 311.94669576059835" fill="none" stroke="#f2eda1" stroke-width="2.493765586034913" stroke-linecap="round" stroke-linejoin="round" data-pcb-component-id="pcb_component_1" data-pcb-silkscreen-path-id="pcb_silkscreen_path_4"/><path class="pcb-silkscreen pcb-silkscreen-top" d="M 612.219451371571 311.94669576059835 L 612.219451371571 349.353179551122 L 647.1321695760598 349.353179551122 L 647.1321695760598 311.94669576059835" fill="none" stroke="#f2eda1" stroke-width="2.493765586034913" stroke-linecap="round" stroke-linejoin="round" data-pcb-component-id="pcb_component_2" data-pcb-silkscreen-path-id="pcb_silkscreen_path_5"/><path class="pcb-silkscreen pcb-silkscreen-top" d="M 552.3690773067332 230.8993142144637 L 733.9152119700748 230.8993142144637 L 733.9152119700748 168.55517456359087 L 552.3690773067332 168.55517456359087 L 552.3690773067332 230.8993142144637 Z" fill="none" stroke="#f2eda1" stroke-width="3.7406483790523692" stroke-linecap="round" stroke-linejoin="round" data-pcb-component-id="pcb_component_3" data-pcb-silkscreen-path-id="pcb_silkscreen_path_6"/><path class="pcb-silkscreen pcb-silkscreen-top" d="M 405.2369077306733 157.33322942643377 L 367.8304239401496 157.33322942643377 L 367.8304239401496 192.24594763092253 L 405.2369077306733 192.24594763092253" fill="none" stroke="#f2eda1" stroke-width="2.493765586034913" stroke-linecap="round" stroke-linejoin="round" data-pcb-component-id="pcb_component_4" data-pcb-silkscreen-path-id="pcb_silkscreen_path_7"/><path class="pcb-silkscreen pcb-silkscreen-top" d="M 405.2369077306733 94.98908977556096 L 367.8304239401496 94.98908977556096 L 367.8304239401496 129.90180798004968 L 405.2369077306733 129.90180798004968" fill="none" stroke="#f2eda1" stroke-width="2.493765586034913" stroke-linecap="round" stroke-linejoin="round" data-pcb-component-id="pcb_component_5" data-pcb-silkscreen-path-id="pcb_silkscreen_path_8"/><text x="0" y="0" dx="0" dy="0" fill="#f2eda1" font-family="Arial, sans-serif" font-size="9.975062344139651" text-anchor="middle" dominant-baseline="central" transform="matrix(-1.8369701987210297e-16,-1,1,-1.8369701987210297e-16,537.4064837905237,324.4155236907729)" class="pcb-silkscreen-text pcb-silkscreen-top" data-pcb-silkscreen-text-id="pcb_component_1" stroke="none">R1</text><text x="0" y="0" dx="0" dy="0" fill="#f2eda1" font-family="Arial, sans-serif" font-size="9.975062344139651" text-anchor="middle" dominant-baseline="central" transform="matrix(-1.8369701987210297e-16,-1,1,-1.8369701987210297e-16,599.7506234413966,324.4155236907729)" class="pcb-silkscreen-text pcb-silkscreen-top" data-pcb-silkscreen-text-id="pcb_component_2" stroke="none">R2</text><text x="0" y="0" dx="0" dy="0" fill="#f2eda1" font-family="Arial, sans-serif" font-size="14.962593516209479" text-anchor="middle" dominant-baseline="central" transform="matrix(1,0,0,1,643.142144638404,153.5925810473814)" class="pcb-silkscreen-text pcb-silkscreen-top" data-pcb-silkscreen-text-id="pcb_component_3" stroke="none">SJ1</text><text x="0" y="0" dx="0" dy="0" fill="#f2eda1" font-family="Arial, sans-serif" font-size="9.975062344139651" text-anchor="middle" dominant-baseline="central" transform="matrix(1,0,0,1,392.76807980049875,144.8644014962592)" class="pcb-silkscreen-text pcb-silkscreen-top" data-pcb-silkscreen-text-id="pcb_component_4" stroke="none">C1</text><text x="0" y="0" dx="0" dy="0" fill="#f2eda1" font-family="Arial, sans-serif" font-size="9.975062344139651" text-anchor="middle" dominant-baseline="central" transform="matrix(1,0,0,1,392.76807980049875,82.52026184538636)" class="pcb-silkscreen-text pcb-silkscreen-top" data-pcb-silkscreen-text-id="pcb_component_5" stroke="none">C2</text><text x="0" y="0" dx="0" dy="0" fill="#f2eda1" font-family="Arial, sans-serif" font-size="12.468827930174564" text-anchor="middle" dominant-baseline="central" transform="matrix(6.123233995736766e-17,1,-1,6.123233995736766e-17,121.57107231920196,279.278366583541)" class="pcb-silkscreen-text pcb-silkscreen-top" data-pcb-silkscreen-text-id="pcb_component_6" stroke="none">pin1</text><text x="0" y="0" dx="0" dy="0" fill="#f2eda1" font-family="Arial, sans-serif" font-size="12.468827930174564" text-anchor="middle" dominant-baseline="central" transform="matrix(6.123233995736766e-17,1,-1,6.123233995736766e-17,121.57107231920196,342.6200124688278)" class="pcb-silkscreen-text pcb-silkscreen-top" data-pcb-silkscreen-text-id="pcb_component_6" stroke="none">pin2</text><text x="0" y="0" dx="0" dy="0" fill="#f2eda1" font-family="Arial, sans-serif" font-size="12.468827930174564" text-anchor="middle" dominant-baseline="central" transform="matrix(6.123233995736766e-17,1,-1,6.123233995736766e-17,121.57107231920196,405.96165835411455)" class="pcb-silkscreen-text pcb-silkscreen-top" data-pcb-silkscreen-text-id="pcb_component_6" stroke="none">pin3</text><text x="0" y="0" dx="0" dy="0" fill="#f2eda1" font-family="Arial, sans-serif" font-size="12.468827930174564" text-anchor="middle" dominant-baseline="central" transform="matrix(6.123233995736766e-17,1,-1,6.123233995736766e-17,121.57107231920196,469.3033042394013)" class="pcb-silkscreen-text pcb-silkscreen-top" data-pcb-silkscreen-text-id="pcb_component_6" stroke="none">pin4</text><text x="0" y="0" dx="0" dy="0" fill="#f2eda1" font-family="Arial, sans-serif" font-size="17.456359102244388" text-anchor="middle" dominant-baseline="central" transform="matrix(6.123233995736766e-17,1,-1,6.123233995736766e-17,156.85785536159597,374.29083541147116)" class="pcb-silkscreen-text pcb-silkscreen-top" data-pcb-silkscreen-text-id="pcb_component_6" stroke="none">JP1</text><g><rect class="pcb-hole-outer-pad" fill="rgb(200, 52, 52)" x="74.81296758104736" y="260.5751246882792" width="37.406483790523694" height="37.406483790523694"/><circle class="pcb-hole-inner" fill="#FF26E2" cx="93.5162094763092" cy="279.278366583541" r="12.468827930174564"/></g><g><circle class="pcb-hole-outer" fill="rgb(200, 52, 52)" cx="93.5162094763092" cy="342.6200124688278" r="18.703241895261847"/><circle class="pcb-hole-inner" fill="#FF26E2" cx="93.5162094763092" cy="342.6200124688278" r="12.468827930174564"/></g><g><circle class="pcb-hole-outer" fill="rgb(200, 52, 52)" cx="93.5162094763092" cy="405.96165835411455" r="18.703241895261847"/><circle class="pcb-hole-inner" fill="#FF26E2" cx="93.5162094763092" cy="405.96165835411455" r="12.468827930174564"/></g><g><circle class="pcb-hole-outer" fill="rgb(200, 52, 52)" cx="93.5162094763092" cy="469.3033042394013" r="18.703241895261847"/><circle class="pcb-hole-inner" fill="#FF26E2" cx="93.5162094763092" cy="469.3033042394013" r="12.468827930174564"/></g><circle class="pcb-hole" cx="105.9850374064838" cy="124.91427680797989" r="39.900249376558605" fill="#FF26E2"/><circle class="pcb-hole" cx="679.5511221945137" cy="474.04145885286766" r="39.900249376558605" fill="#FF26E2"/></svg>