<svg xmlns="http://www.w3.org/2000/svg" width="800" height="600"><style></style><rect class="boundary" x="0" y="0" fill="#000" width="800" height="600" data-type="pcb_background" data-pcb-layer="global"/><rect class="pcb-boundary" fill="none" stroke="#fff" stroke-width="0.3" x="260.9489051094891" y="21.89781021897801" width="278.1021897810219" height="556.2043795620439" data-type="pcb_boundary" data-pcb-layer="global"/><path class="pcb-board" d="M 260.9489051094891 578.1021897810219 L 260.9489051094891 49.70802919708021 L 261.4832706690781 44.282524621303196 L 263.0658319790657 39.06551914371528 L 265.6357720958198 34.25749935908982 L 269.0943296618924 30.04323477138132 L 273.3085942496009 26.584677205308708 L 278.11661403422636 24.014737088554625 L 283.3336195118143 22.432175778567 L 288.7591240875913 21.89781021897801 L 511.2408759124088 21.89781021897801 L 516.6663804881858 22.432175778567 L 521.8833859657738 24.014737088554625 L 526.6914057503992 26.584677205308708 L 530.9056703381077 30.04323477138132 L 534.3642279041803 34.25749935908982 L 536.9341680209344 39.06551914371528 L 538.5167293309221 44.282524621303196 L 539.051094890511 49.70802919708021 L 539.051094890511 216.56934306569337 L 455.62043795620446 299.99999999999994 L 455.62043795620446 578.1021897810219 L 260.9489051094891 578.1021897810219 Z" fill="none" stroke="rgba(255, 255, 255, 0.5)" stroke-width="2.1897810218978107" data-type="pcb_board" data-pcb-layer="board"/><rect class="pcb-pad" fill="rgb(200, 52, 52)" x="447.07991970802993" y="141.78822043795617" width="87.59106569343066" height="38.3213693430657" data-type="pcb_smtpad" data-pcb-layer="top"/><rect class="pcb-pad" fill="rgb(200, 52, 52)" x="265.3290145985395" y="141.7882204379561" width="87.59106569343066" height="38.3213693430657" data-type="pcb_smtpad" data-pcb-layer="top"/><rect class="pcb-pad" fill="rgb(200, 52, 52)" x="402.9562262773715" y="300.82362481751676" width="21.897766423357666" height="43.79553284671533" data-type="pcb_smtpad" data-pcb-layer="top"/><rect class="pcb-pad" fill="rgb(200, 52, 52)" x="347.3357883211679" y="300.82362481751676" width="21.897766423357666" height="43.79553284671533" data-type="pcb_smtpad" data-pcb-layer="top"/><rect class="pcb-pad" fill="rgb(200, 52, 52)" x="291.7153503649643" y="300.82362481751676" width="21.897766423357666" height="43.79553284671533" data-type="pcb_smtpad" data-pcb-layer="top"/><path class="pcb-trace" stroke="rgb(200, 52, 52)" fill="none" d="M 490.8759124087592 160.94890510948898 L 490.8759124087592 245.75912408759118" stroke-width="3.2846715328467155" stroke-linecap="round" stroke-linejoin="round" shape-rendering="crispEdges" data-type="pcb_trace" data-pcb-layer="top"/><path class="pcb-trace" stroke="rgb(200, 52, 52)" fill="none" d="M 490.8759124087592 245.75912408759118 L 413.90510948905114 322.72992700729924" stroke-width="3.2846715328467155" stroke-linecap="round" stroke-linejoin="round" shape-rendering="crispEdges" data-type="pcb_trace" data-pcb-layer="top"/><path class="pcb-trace" stroke="rgb(200, 52, 52)" fill="none" d="M 309.12408759124094 160.94890510948898 L 309.12408759124094 316.27007299270065" stroke-width="3.2846715328467155" stroke-linecap="round" stroke-linejoin="round" shape-rendering="crispEdges" data-type="pcb_trace" data-pcb-layer="top"/><path class="pcb-trace" stroke="rgb(200, 52, 52)" fill="none" d="M 309.12408759124094 316.27007299270065 L 302.66423357664235 322.72992700729924" stroke-width="3.2846715328467155" stroke-linecap="round" stroke-linejoin="round" shape-rendering="crispEdges" data-type="pcb_trace" data-pcb-layer="top"/><path class="pcb-silkscreen pcb-silkscreen-top" d="M 427.8141124087579 29.562306569342297 L 458.4053532846714 29.562306569342297" fill="none" stroke="#f2eda1" stroke-width="2.1897810218978107" stroke-linecap="round" stroke-linejoin="round" data-pcb-component-id="pcb_component_0" data-pcb-silkscreen-path-id="pcb_silkscreen_path_0" data-type="pcb_silkscreen_path" data-pcb-layer="top"/><path class="pcb-silkscreen pcb-silkscreen-top" d="M 372.1936744525543 29.562306569342297 L 341.60243357664086 29.562306569342297" fill="none" stroke="#f2eda1" stroke-width="2.1897810218978107" stroke-linecap="round" stroke-linejoin="round" data-pcb-component-id="pcb_component_0" data-pcb-silkscreen-path-id="pcb_silkscreen_path_1" data-type="pcb_silkscreen_path" data-pcb-layer="top"/><path class="pcb-silkscreen pcb-silkscreen-top" d="M 332.776582481749 211.0918423357673 L 332.776582481749 188.84366715328386" fill="none" stroke="#f2eda1" stroke-width="2.1897810218978107" stroke-linecap="round" stroke-linejoin="round" data-pcb-component-id="pcb_component_0" data-pcb-silkscreen-path-id="pcb_silkscreen_path_2" data-type="pcb_silkscreen_path" data-pcb-layer="top"/><path class="pcb-silkscreen pcb-silkscreen-top" d="M 346.6627810218973 199.9443941605817 L 325.41577372262714 199.9443941605817 L 318.85256204379544 199.9443941605817" fill="none" stroke="#f2eda1" stroke-width="2.1897810218978107" stroke-linecap="round" stroke-linejoin="round" data-pcb-component-id="pcb_component_0" data-pcb-silkscreen-path-id="pcb_silkscreen_path_3" data-type="pcb_silkscreen_path" data-pcb-layer="top"/><path class="pcb-silkscreen pcb-silkscreen-top" d="M 302.7643503649636 186.4375270072995 L 304.3128188930398 191.63908953442706 L 306.1453098592631 196.74751241872474 L 308.25626471294373 201.74730012539965 L 310.6392802304011 206.62328664605565 L 313.2871279380554 211.36068150221257 L 316.19177603878313 215.94511460970307 L 319.34441377498683 220.36267986789164 L 322.73547815456004 224.59997734147362 L 326.3546829586018 228.64415390692224 L 330.1910499428898 232.48294224022848 L 334.23294213857264 236.10469802776822 L 338.4680991508784 239.49843528736545 L 342.8836743490118 242.65385969237641 L 347.46627383417297 245.56139979780616 L 352.2019970677113 248.21223607366716 L 357.0764790360435 250.59832765750213 L 362.07493382449474 252.71243674501778 L 367.18219946784427 254.5481505446906 L 372.38278394160596 256.09990072992633" fill="none" stroke="#f2eda1" stroke-width="2.1897810218978107" stroke-linecap="round" stroke-linejoin="round" data-pcb-component-id="pcb_component_0" data-pcb-silkscreen-path-id="pcb_silkscreen_path_4" data-type="pcb_silkscreen_path" data-pcb-layer="top"/><path class="pcb-silkscreen pcb-silkscreen-top" d="M 426.15161751824655 256.09990072992633 L 431.3531475799085 254.5514068977591 L 436.46153709942126 252.718893692471 L 441.46129077966134 250.60791968325603 L 446.3372428489933 248.22488809550782 L 451.0746030636837 245.57702738790132 L 455.65900157119256 242.67236932626977 L 460.0765324982921 239.5197246208281 L 464.31379613182014 236.12865620060893 L 468.35793956407383 232.50945020619375 L 472.1966956795842 228.67308478873784 L 475.81842036499165 224.63119680986733 L 479.2121278292039 220.3960465435867 L 482.36752392660804 215.98048048710737 L 485.2750373823734 211.39789239355406 L 487.9258488249961 206.66218264460736 L 490.3119175381719 201.78771608644468 L 492.42600585070585 196.78927845680013 L 494.26170109056756 191.68203153532272 L 495.8134350364958 186.48146715328403" fill="none" stroke="#f2eda1" stroke-width="2.1897810218978107" stroke-linecap="round" stroke-linejoin="round" data-pcb-component-id="pcb_component_0" data-pcb-silkscreen-path-id="pcb_silkscreen_path_5" data-type="pcb_silkscreen_path" data-pcb-layer="top"/><path class="pcb-silkscreen pcb-silkscreen-top" d="M 426.15161751824655 256.09990072992633 L 420.8816598782179 257.5053762416772 L 415.53927820616974 258.603908449693 L 410.14233432652816 259.3918244996936 L 404.7088724880677 259.8664900575824 L 399.25705903443446 260.02631811716435 L 393.8051216664217 259.87077430614704 L 388.37128849913165 259.4003786727743 L 382.97372711770794 258.61670394711024 L 377.6304838355064 257.5223702827021 L 372.3594233576646 256.12103649634963" fill="none" stroke="#f2eda1" stroke-width="2.1897810218978107" stroke-linecap="round" stroke-linejoin="round" data-pcb-component-id="pcb_component_0" data-pcb-silkscreen-path-id="pcb_silkscreen_path_6" data-type="pcb_silkscreen_path" data-pcb-layer="top"/><path class="pcb-silkscreen pcb-silkscreen-top" d="M 427.8141124087579 29.562306569342297 L 372.1936744525543 29.562306569342297" fill="none" stroke="#f2eda1" stroke-width="2.1897810218978107" stroke-linecap="round" stroke-linejoin="round" data-pcb-component-id="pcb_component_0" data-pcb-silkscreen-path-id="pcb_silkscreen_path_7" data-type="pcb_silkscreen_path" data-pcb-layer="top"/><path class="pcb-silkscreen pcb-silkscreen-top" d="M 495.1871489051048 135.44415328467156 L 493.7090135477317 130.45789764887468 L 491.9698643153788 125.55657238443587 L 489.9745456236238 120.75383017622477 L 487.7286154503214 116.06304910513512 L 485.2383298538363 111.49729538333511 L 482.5106255467281 107.0692869581863 L 479.553100573458 102.79135808632296 L 476.37399314600106 98.67542497645587 L 472.9821586962116 94.73295259666111 L 469.38704520894555 90.97492273862113 L 465.598666904626 87.4118034277407 L 461.62757634451646 84.05351976437737 L 457.4848350364951 80.90942627737434" fill="none" stroke="#f2eda1" stroke-width="2.1897810218978107" stroke-linecap="round" stroke-linejoin="round" data-pcb-component-id="pcb_component_0" data-pcb-silkscreen-path-id="pcb_silkscreen_path_8" data-type="pcb_silkscreen_path" data-pcb-layer="top"/><path class="pcb-silkscreen pcb-silkscreen-top" d="M 341.88832262773394 80.04119124087484 L 341.68616854103993 79.95745627647824 L 341.60243357664086 79.75530218977929" fill="none" stroke="#f2eda1" stroke-width="2.1897810218978107" stroke-linecap="round" stroke-linejoin="round" data-pcb-component-id="pcb_component_0" data-pcb-silkscreen-path-id="pcb_silkscreen_path_9" data-type="pcb_silkscreen_path" data-pcb-layer="top"/><path class="pcb-silkscreen pcb-silkscreen-top" d="M 341.60243357664086 79.75530218977929 L 341.60243357664086 29.562306569342297" fill="none" stroke="#f2eda1" stroke-width="2.1897810218978107" stroke-linecap="round" stroke-linejoin="round" data-pcb-component-id="pcb_component_0" data-pcb-silkscreen-path-id="pcb_silkscreen_path_10" data-type="pcb_silkscreen_path" data-pcb-layer="top"/><path class="pcb-silkscreen pcb-silkscreen-top" d="M 457.4848350364951 80.90942627737434 L 458.1357397319862 80.63981272468664 L 458.4053532846714 79.98890802919556" fill="none" stroke="#f2eda1" stroke-width="2.1897810218978107" stroke-linecap="round" stroke-linejoin="round" data-pcb-component-id="pcb_component_0" data-pcb-silkscreen-path-id="pcb_silkscreen_path_11" data-type="pcb_silkscreen_path" data-pcb-layer="top"/><path class="pcb-silkscreen pcb-silkscreen-top" d="M 458.4053532846714 79.98890802919556 L 458.4053532846714 29.562306569342297" fill="none" stroke="#f2eda1" stroke-width="2.1897810218978107" stroke-linecap="round" stroke-linejoin="round" data-pcb-component-id="pcb_component_0" data-pcb-silkscreen-path-id="pcb_silkscreen_path_12" data-type="pcb_silkscreen_path" data-pcb-layer="top"/><path class="pcb-silkscreen pcb-silkscreen-top" d="M 341.88832262773394 80.04119124087484 L 337.5818180299569 83.19086452148917 L 333.45210084861804 86.5690089274394 L 329.5112778609931 90.16572101009922 L 325.7709020776543 93.97045656262927 L 322.24193887336355 97.97206153164572 L 318.9347338407205 102.15880471667086 L 315.85898246080103 106.51841216163959 L 313.0237016796296 111.03810313749304 L 310.4372034738933 115.70462761048407 L 308.10707048336326 120.5043050862837 L 306.0401337814219 125.42306471605838 L 304.2424528489578 130.44648654688038 L 302.7192978102188 135.55984379562062" fill="none" stroke="#f2eda1" stroke-width="2.1897810218978107" stroke-linecap="round" stroke-linejoin="round" data-pcb-component-id="pcb_component_0" data-pcb-silkscreen-path-id="pcb_silkscreen_path_13" data-type="pcb_silkscreen_path" data-pcb-layer="top"/><path class="pcb-silkscreen pcb-silkscreen-top" d="M 413.93125109489 373.0856978102181 L 413.93125109489 350.53105401459857" fill="none" stroke="#f2eda1" stroke-width="2.1897810218978107" stroke-linecap="round" stroke-linejoin="round" data-pcb-component-id="pcb_component_1" data-pcb-silkscreen-path-id="pcb_silkscreen_path_14" data-type="pcb_silkscreen_path" data-pcb-layer="top"/><path class="pcb-silkscreen pcb-silkscreen-top" d="M 358.3108131386864 373.0856978102181 L 358.3108131386864 350.53105401459857" fill="none" stroke="#f2eda1" stroke-width="2.1897810218978107" stroke-linecap="round" stroke-linejoin="round" data-pcb-component-id="pcb_component_1" data-pcb-silkscreen-path-id="pcb_silkscreen_path_15" data-type="pcb_silkscreen_path" data-pcb-layer="top"/><path class="pcb-silkscreen pcb-silkscreen-top" d="M 302.68203211678804 373.0856978102181 L 302.68203211678804 350.53105401459857" fill="none" stroke="#f2eda1" stroke-width="2.1897810218978107" stroke-linecap="round" stroke-linejoin="round" data-pcb-component-id="pcb_component_1" data-pcb-silkscreen-path-id="pcb_silkscreen_path_16" data-type="pcb_silkscreen_path" data-pcb-layer="top"/><path class="pcb-silkscreen pcb-silkscreen-top" d="M 446.0948817518252 373.0856978102181 L 446.0948817518252 560.4648350364951" fill="none" stroke="#f2eda1" stroke-width="2.1897810218978107" stroke-linecap="round" stroke-linejoin="round" data-pcb-component-id="pcb_component_1" data-pcb-silkscreen-path-id="pcb_silkscreen_path_17" data-type="pcb_silkscreen_path" data-pcb-layer="top"/><path class="pcb-silkscreen pcb-silkscreen-top" d="M 270.47446131386585 560.4648350364951 L 446.0948817518252 560.4648350364951" fill="none" stroke="#f2eda1" stroke-width="2.1897810218978107" stroke-linecap="round" stroke-linejoin="round" data-pcb-component-id="pcb_component_1" data-pcb-silkscreen-path-id="pcb_silkscreen_path_18" data-type="pcb_silkscreen_path" data-pcb-layer="top"/><path class="pcb-silkscreen pcb-silkscreen-top" d="M 270.47446131386585 373.0856978102181 L 270.47446131386585 560.4648350364951" fill="none" stroke="#f2eda1" stroke-width="2.1897810218978107" stroke-linecap="round" stroke-linejoin="round" data-pcb-component-id="pcb_component_1" data-pcb-silkscreen-path-id="pcb_silkscreen_path_19" data-type="pcb_silkscreen_path" data-pcb-layer="top"/><path class="pcb-silkscreen pcb-silkscreen-top" d="M 270.47446131386585 373.0856978102181 L 446.0948817518252 373.0856978102181" fill="none" stroke="#f2eda1" stroke-width="2.1897810218978107" stroke-linecap="round" stroke-linejoin="round" data-pcb-component-id="pcb_component_1" data-pcb-silkscreen-path-id="pcb_silkscreen_path_20" data-type="pcb_silkscreen_path" data-pcb-layer="top"/></svg>