<svg xmlns="http://www.w3.org/2000/svg" width="1200" height="600" style="background-color: rgb(245, 241, 237)" data-real-to-screen-transform="matrix(46.3551912344,0,0,-46.3551912344,298.6912569762,122.8412567712)"><style>
              .boundary { fill: rgb(245, 241, 237); }
              .schematic-boundary { fill: none; stroke: #fff; }
              .component { fill: none; stroke: rgb(132, 0, 0); }
              .chip { fill: rgb(255, 255, 194); stroke: rgb(132, 0, 0); }
              .component-pin { fill: none; stroke: rgb(132, 0, 0); }
              .trace:hover {
                filter: invert(1);
              }
              .trace:hover .trace-crossing-outline {
                opacity: 0;
              }
              .trace:hover .trace-junction {
                filter: invert(1);
              }
              .text { font-family: sans-serif; fill: rgb(0, 150, 0); }
              .pin-number { fill: rgb(169, 0, 0); }
              .port-label { fill: rgb(0, 100, 100); }
              .component-name { fill: rgb(0, 100, 100); }
            </style><rect class="boundary" x="0" y="0" width="1200" height="600"/><g data-circuit-json-type="schematic_component" data-schematic-component-id="schematic_component_0"><rect class="component-overlay" x="255.44551866133358" y="144.67536305844897" width="12.264814104447709" height="49.059242511233606" fill="transparent"/><path d="M 261.5779257135574 193.73460556968257 L 261.5779257135574 181.46979610075397" stroke="rgb(132, 0, 0)" fill="none" stroke-width="0.9271038246880001px" stroke-linecap="round"/><path d="M 261.5779257135574 156.94017716289667 L 261.5779257135575 144.67536305844897" stroke="rgb(132, 0, 0)" fill="none" stroke-width="0.9271038246880001px" stroke-linecap="round"/><path d="M 255.44551866133358 169.20499126734447 L 255.44551866133358 156.94018179841586 L 267.7103327657813 156.94018179841586 L 267.7103327657813 181.46980537179226 L 255.44551866133358 181.46980537179226 L 255.44551866133358 169.20499126734455" stroke="rgb(132, 0, 0)" fill="none" stroke-width="0.9271038246880001px" stroke-linecap="round"/><text x="274.35419286721134" y="162.590833254698" fill="rgb(15, 15, 15)" font-family="sans-serif" text-anchor="start" dominant-baseline="middle" font-size="8.343934422192px">R7</text><text x="274.35419286721134" y="177.424494449706" fill="rgb(15, 15, 15)" font-family="sans-serif" text-anchor="start" dominant-baseline="middle" font-size="8.343934422192px">10kΩ</text><circle cx="261.59443743267525" cy="194.75163382984624" r="0.9271038246880001px" stroke-width="0.9271038246880001px" fill="none" stroke="rgb(132, 0, 0)"/><circle cx="261.6197705446848" cy="143.64126218135374" r="0.9271038246880001px" stroke-width="0.9271038246880001px" fill="none" stroke="rgb(132, 0, 0)"/></g><g data-circuit-json-type="schematic_component" data-schematic-component-id="schematic_component_1"><rect class="component-overlay" x="280.4855548648264" y="98.16498623259403" width="32.642013815352584" height="49.352568890326665" fill="transparent"/><path d="M 280.4855548648264 127.62972716587744 L 301.06058462536225 127.75131683248526" stroke="rgb(132, 0, 0)" fill="none" stroke-width="0.9271038246880001px" stroke-linecap="round"/><path d="M 312.7750930770709 98.16498623259403 L 312.7472799623302 117.92733532248488" stroke="rgb(132, 0, 0)" fill="none" stroke-width="0.9271038246880001px" stroke-linecap="round"/><path d="M 313.09975556543833 147.5175551229207 L 313.12756868017897 123.11365146369113" stroke="rgb(132, 0, 0)" fill="none" stroke-width="0.9271038246880001px" stroke-linecap="round"/><path d="M 303.0411333484476 117.8402895443849 L 313.11002787581583 117.89999503069483" stroke="rgb(132, 0, 0)" fill="none" stroke-width="0.9271038246880001px" stroke-linecap="round"/><path d="M 303.07103244679377 116.03762886766155 L 303.01123425010144 119.64295022110825" stroke="rgb(132, 0, 0)" fill="none" stroke-width="0.9271038246880001px" stroke-linecap="round"/><path d="M 303.0411333484476 127.58437324677371 L 313.11002787581583 127.64407873308365" stroke="rgb(132, 0, 0)" fill="none" stroke-width="0.9271038246880001px" stroke-linecap="round"/><path d="M 303.06739819980106 126.41207827357046 L 303.0076000031087 130.01739962701717" stroke="rgb(132, 0, 0)" fill="none" stroke-width="0.9271038246880001px" stroke-linecap="round"/><path d="M 303.07103244679377 121.224853570616 L 303.01123425010144 124.8301749240627" stroke="rgb(132, 0, 0)" fill="none" stroke-width="0.9271038246880001px" stroke-linecap="round"/><path d="M 308.07558988317 121.42206709620363 L 308.07558988317 124.73146154432904 L 311.40180663019436 123.09615237900012 L 308.07558988317 121.42206709620363" stroke="rgb(132, 0, 0)" fill="none" stroke-width="0.9271038246880001px" stroke-linecap="round"/><path d="M 303.0411333484476 123.02751424733935 L 313.11002787581583 123.08721973364926" stroke="rgb(132, 0, 0)" fill="none" stroke-width="0.9271038246880001px" stroke-linecap="round"/><path d="M 301.08839774010295 117.81293534603746 L 301.0605846253623 127.75131683248526" stroke="rgb(132, 0, 0)" fill="none" stroke-width="0.9271038246880001px" stroke-linecap="round"/><text x="298.6912569762" y="106.11051169268376" fill="rgb(15, 15, 15)" font-family="sans-serif" text-anchor="end" dominant-baseline="middle" font-size="8.343934422192px">Q1</text><text x="298.6912569762" y="142.53731561986612" fill="rgb(15, 15, 15)" font-family="sans-serif" text-anchor="end" dominant-baseline="middle" font-size="8.343934422192px"></text><circle cx="312.78217615029143" cy="97.25667480243249" r="0.9271038246880001px" stroke-width="0.9271038246880001px" fill="none" stroke="rgb(132, 0, 0)"/><circle cx="313.09269103429426" cy="148.4258387399675" r="0.9271038246880001px" stroke-width="0.9271038246880001px" fill="none" stroke="rgb(132, 0, 0)"/><circle cx="279.28709238617137" cy="127.59295359267122" r="0.9271038246880001px" stroke-width="0.9271038246880001px" fill="none" stroke="rgb(132, 0, 0)"/><circle cx="306.0252858683151" cy="122.68112044532121" r="13.375425615331107px" stroke-width="0.9271038246880001px" fill="none" stroke="rgb(132, 0, 0)"/></g><g data-circuit-json-type="schematic_component" data-schematic-component-id="schematic_component_2"><rect class="component chip" x="447.02786892628" y="104.29918027743999" width="74.16830597503997" height="37.08415298752" stroke-width="0.9271038246880001px" fill="rgb(255, 255, 194)" stroke="rgb(132, 0, 0)"/><rect class="component-overlay" x="447.02786892628" y="104.29918027743999" width="74.16830597503997" height="37.08415298752" fill="transparent"/><text x="447.02786892628" y="147.409508125432" fill="#006464" text-anchor="start" dominant-baseline="middle" font-family="sans-serif" font-size="8.343934422192px" transform="rotate(0, 447.02786892628, 147.409508125432)">TMAG5273</text><text x="447.02786892628" y="98.27300541696799" fill="#006464" text-anchor="start" dominant-baseline="middle" font-family="sans-serif" font-size="8.343934422192px" transform="rotate(0, 447.02786892628, 98.27300541696799)">U1</text><line class="component-pin" x1="538.811147570392" y1="113.57021852432" x2="521.19617490132" y2="113.57021852432" stroke-width="0.9271038246880001px"/><circle class="component-pin" cx="539.73825139508" cy="113.57021852432" r="0.9271038246880001" stroke-width="0.9271038246880001px"/><text class="pin-number" x="530.4672131482" y="112.643114699632" style="font-family: sans-serif;" fill="rgb(169, 0, 0)" text-anchor="middle" dominant-baseline="auto" font-size="6.95327868516px" transform="">1</text><text class="pin-number" x="516.56065577788" y="113.57021852432" style="font-family: sans-serif;" fill="rgb(169, 0, 0)" text-anchor="end" dominant-baseline="middle" font-size="6.95327868516px" transform="">SCL</text><line class="component-pin" x1="429.412896257208" y1="132.11229501808" x2="447.02786892628" y2="132.11229501808" stroke-width="0.9271038246880001px"/><circle class="component-pin" cx="428.48579243252004" cy="132.11229501808" r="0.9271038246880001" stroke-width="0.9271038246880001px"/><text class="pin-number" x="437.7568306794" y="131.185191193392" style="font-family: sans-serif;" fill="rgb(169, 0, 0)" text-anchor="middle" dominant-baseline="auto" font-size="6.95327868516px" transform="">2</text><text class="pin-number" x="451.66338804971997" y="132.11229501808" style="font-family: sans-serif;" fill="rgb(169, 0, 0)" text-anchor="start" dominant-baseline="middle" font-size="6.95327868516px" transform="">GND</text><line class="component-pin" x1="429.412896257208" y1="122.8412567712" x2="447.02786892628" y2="122.8412567712" stroke-width="0.9271038246880001px"/><circle class="component-pin" cx="428.48579243252004" cy="122.8412567712" r="0.9271038246880001" stroke-width="0.9271038246880001px"/><text class="pin-number" x="437.7568306794" y="121.91415294651199" style="font-family: sans-serif;" fill="rgb(169, 0, 0)" text-anchor="middle" dominant-baseline="auto" font-size="6.95327868516px" transform="">3</text><text class="pin-number" x="451.66338804971997" y="122.8412567712" style="font-family: sans-serif;" fill="rgb(169, 0, 0)" text-anchor="start" dominant-baseline="middle" font-size="6.95327868516px" transform="">TEST</text><line class="component-pin" x1="429.412896257208" y1="113.57021852432" x2="447.02786892628" y2="113.57021852432" stroke-width="0.9271038246880001px"/><circle class="component-pin" cx="428.48579243252004" cy="113.57021852432" r="0.9271038246880001" stroke-width="0.9271038246880001px"/><text class="pin-number" x="437.7568306794" y="112.643114699632" style="font-family: sans-serif;" fill="rgb(169, 0, 0)" text-anchor="middle" dominant-baseline="auto" font-size="6.95327868516px" transform="">4</text><text class="pin-number" x="451.66338804971997" y="113.57021852432" style="font-family: sans-serif;" fill="rgb(169, 0, 0)" text-anchor="start" dominant-baseline="middle" font-size="6.95327868516px" transform="">VCC</text><line class="component-pin" x1="538.811147570392" y1="132.11229501808" x2="521.19617490132" y2="132.11229501808" stroke-width="0.9271038246880001px"/><circle class="component-pin" cx="539.73825139508" cy="132.11229501808" r="0.9271038246880001" stroke-width="0.9271038246880001px"/><text class="pin-number" x="530.4672131482" y="131.185191193392" style="font-family: sans-serif;" fill="rgb(169, 0, 0)" text-anchor="middle" dominant-baseline="auto" font-size="6.95327868516px" transform="">5</text><text class="pin-number" x="516.56065577788" y="132.11229501808" style="font-family: sans-serif;" fill="rgb(169, 0, 0)" text-anchor="end" dominant-baseline="middle" font-size="6.95327868516px" transform="">N_INT</text><line class="component-pin" x1="538.811147570392" y1="122.8412567712" x2="521.19617490132" y2="122.8412567712" stroke-width="0.9271038246880001px"/><circle class="component-pin" cx="539.73825139508" cy="122.8412567712" r="0.9271038246880001" stroke-width="0.9271038246880001px"/><text class="pin-number" x="530.4672131482" y="121.91415294651199" style="font-family: sans-serif;" fill="rgb(169, 0, 0)" text-anchor="middle" dominant-baseline="auto" font-size="6.95327868516px" transform="">6</text><text class="pin-number" x="516.56065577788" y="122.8412567712" style="font-family: sans-serif;" fill="rgb(169, 0, 0)" text-anchor="end" dominant-baseline="middle" font-size="6.95327868516px" transform="">SDA</text></g><g data-circuit-json-type="schematic_component" data-schematic-component-id="schematic_component_3"><rect class="component-overlay" x="610.9419644231938" y="98.0228959826628" width="24.529618937857208" height="49.05924251123365" fill="transparent"/><path d="M 623.2067738921224 147.08213849389645 L 623.2067738921224 126.23196286026968" stroke="rgb(132, 0, 0)" fill="none" stroke-width="0.9271038246880001px" stroke-linecap="round"/><path d="M 623.2067738921224 118.87307625180868 L 623.2067738921224 98.0228959826628" stroke="rgb(132, 0, 0)" fill="none" stroke-width="0.9271038246880001px" stroke-linecap="round"/><path d="M 635.471583361051 126.23196286026966 L 610.9419644231938 126.23196286026968" stroke="rgb(132, 0, 0)" fill="none" stroke-width="0.9271038246880001px" stroke-linecap="round"/><path d="M 635.471583361051 118.87307625180868 L 610.9419644231938 118.87307625180868" stroke="rgb(132, 0, 0)" fill="none" stroke-width="0.9271038246880001px" stroke-linecap="round"/><text x="632.1149576085768" y="113.67605185432001" fill="rgb(15, 15, 15)" font-family="sans-serif" text-anchor="start" dominant-baseline="auto" font-size="8.343934422192px">C1</text><text x="632.1149576085768" y="132.00646168808" fill="rgb(15, 15, 15)" font-family="sans-serif" text-anchor="start" dominant-baseline="hanging" font-size="8.343934422192px">100nF</text><circle cx="623.164924425476" cy="97.28984425952022" r="0.9271038246880001px" stroke-width="0.9271038246880001px" fill="none" stroke="rgb(132, 0, 0)"/><circle cx="623.1902668085238" cy="148.39266928287978" r="0.9271038246880001px" stroke-width="0.9271038246880001px" fill="none" stroke="rgb(132, 0, 0)"/></g><g data-circuit-json-type="schematic_component" data-schematic-component-id="schematic_component_4"><rect class="component-overlay" x="741.7578924809321" y="111.29052911368268" width="40.99193732825211" height="22.209620420400626" fill="transparent"/><path d="M 772.4479633617101 127.50936222659963 L 782.7498298091842 127.50936222659963" stroke="rgb(132, 0, 0)" fill="none" stroke-width="0.9271038246880001px" stroke-linecap="round"/><path d="M 741.7578924809321 127.5888474730093 L 752.0345695174894 127.5888474730093" stroke="rgb(132, 0, 0)" fill="none" stroke-width="0.9271038246880001px" stroke-linecap="round"/><path d="M 756.7025465458319 127.58848590251766 L 760.1612000742128 127.58848590251765" stroke="rgb(132, 0, 0)" fill="none" stroke-width="0.9271038246880001px" stroke-linecap="round"/><path d="M 762.3640822010158 121.59239556115678 L 762.3640822010158 111.29052911368268" stroke="rgb(132, 0, 0)" fill="none" stroke-width="0.9271038246880001px" stroke-linecap="round"/><path d="M 756.6720819141525 133.40294733358394 L 756.6720819141525 121.72206030207767" stroke="rgb(132, 0, 0)" fill="none" stroke-width="0.9271038246880001px" stroke-linecap="round"/><path d="M 760.2457890271774 133.20330016045648 L 760.2457890271774 121.91470320580956" stroke="rgb(132, 0, 0)" fill="none" stroke-width="0.9271038246880001px" stroke-linecap="round"/><path d="M 764.3958070552239 133.21620081017699 L 764.3958070552239 121.94115347792787" stroke="rgb(132, 0, 0)" fill="none" stroke-width="0.9271038246880001px" stroke-linecap="round"/><path d="M 760.3360982107403 133.23710700142374 L 764.3589268650778 133.23710700142374" stroke="rgb(132, 0, 0)" fill="none" stroke-width="0.9271038246880001px" stroke-linecap="round"/><path d="M 760.3451003888779 121.89955432931414 L 764.3422714448673 121.89955432931414" stroke="rgb(132, 0, 0)" fill="none" stroke-width="0.9271038246880001px" stroke-linecap="round"/><path d="M 767.8525136655732 133.4074113384998 L 767.8525136655732 121.72652430699354" stroke="rgb(132, 0, 0)" fill="none" stroke-width="0.9271038246880001px" stroke-linecap="round"/><path d="M 768.0678706130099 121.57071987373556 L 768.0678706130099 121.57071987373556 L 768.7922513759856 121.96134822394947 L 769.4438941986404 122.36630029014054 L 770.0252401134109 122.78409325524078 L 770.5387301527342 123.21324430218213 L 770.9868053490469 123.6522706138966 L 771.371906734786 124.0996893733162 L 771.6964753423883 124.55401776337287 L 771.9629522042906 125.01377296699863 L 772.1737783529297 125.47747216712547 L 772.3313948207425 125.94363254668535 L 772.4382426401658 126.41077128861026 L 772.4967628436362 126.87740557583221 L 772.509396463591 127.34205259128318 L 772.4785845324666 127.80322951789513 L 772.4067680827001 128.25945353860007 L 772.2963881467281 128.70924183633 L 772.1498857569876 129.15111159401687 L 771.9697019459153 129.5835799945927 L 771.7582777459482 130.00516422098943 L 771.518054189523 130.4143814561391 L 771.2514723090766 130.80974888297368 L 770.9609731370457 131.18978368442515 L 770.6489977058671 131.5530030434255 L 770.317987047978 131.8979241429067 L 769.9703821958148 132.22306416580074 L 769.6086241818145 132.52694029503965 L 769.235154038414 132.80806971355537 L 768.85241279805 133.06496960427987 L 768.4628414931593 133.2961571501452 L 768.0688811561788 133.5001495340833 L 768.0688811561788 133.5001495340833" stroke="rgb(132, 0, 0)" fill="none" stroke-width="0.9271038246880001px" stroke-linecap="round"/><path d="M 756.4601830639818 121.56484203548706 L 756.4601830639818 121.56484203548706 L 755.7358023010062 121.95547038570096 L 755.0841594783515 122.36042245189205 L 754.502813563581 122.77821541699227 L 753.9893235242577 123.20736646393362 L 753.5412483279449 123.64639277564811 L 753.1561469422057 124.09381153506769 L 752.8315783346035 124.54813992512437 L 752.5651014727011 125.00789512875014 L 752.3542753240621 125.47159432887696 L 752.1966588562493 125.93775470843684 L 752.0898110368261 126.40489345036177 L 752.0312908333556 126.8715277375837 L 752.0186572134008 127.33617475303467 L 752.0494691445252 127.79735167964662 L 752.1212855942917 128.25357570035158 L 752.2316655302637 128.7033639980815 L 752.3781679200042 129.14523375576837 L 752.5583517310764 129.57770215634417 L 752.7697759310436 129.99928638274093 L 753.0099994874688 130.4085036178906 L 753.2765813679152 130.80387104472518 L 753.5670805399461 131.18390584617663 L 753.8790559711246 131.547125205177 L 754.2100666290138 131.89204630465818 L 754.557671481177 132.21718632755224 L 754.9194294951773 132.52106245679113 L 755.2928996385779 132.80219187530685 L 755.6756408789419 133.05909176603137 L 756.0652121838325 133.29027931189668 L 756.4591725208129 133.4942716958348 L 756.4591725208129 133.4942716958348" stroke="rgb(132, 0, 0)" fill="none" stroke-width="0.9271038246880001px" stroke-linecap="round"/><path d="M 764.3994181246211 127.58848590251765 L 767.8580716530022 127.58848590251765" stroke="rgb(132, 0, 0)" fill="none" stroke-width="0.9271038246880001px" stroke-linecap="round"/><text x="763.1997179623601" y="135.8079111767139" fill="rgb(15, 15, 15)" font-family="sans-serif" text-anchor="middle" dominant-baseline="hanging" font-size="8.343934422192px">I2C</text><circle cx="762.4050787321435" cy="111.13198045310365" r="0.9271038246880001px" stroke-width="0.9271038246880001px" fill="none" stroke="rgb(132, 0, 0)"/><circle cx="782.9083506566485" cy="127.5503541222082" r="0.9271038246880001px" stroke-width="0.9271038246880001px" fill="none" stroke="rgb(132, 0, 0)"/><circle cx="741.5779879837514" cy="127.54458753641865" r="0.9271038246880001px" stroke-width="0.9271038246880001px" fill="none" stroke="rgb(132, 0, 0)"/></g><g data-circuit-json-type="schematic_component" data-schematic-component-id="schematic_component_5"><rect class="component-overlay" x="709.7263927584536" y="144.67536305844897" width="12.264814104447737" height="49.059242511233606" fill="transparent"/><path d="M 715.8587998106775 193.73460556968257 L 715.8587998106775 181.46979610075397" stroke="rgb(132, 0, 0)" fill="none" stroke-width="0.9271038246880001px" stroke-linecap="round"/><path d="M 715.8587998106775 156.94017716289667 L 715.8587998106775 144.67536305844897" stroke="rgb(132, 0, 0)" fill="none" stroke-width="0.9271038246880001px" stroke-linecap="round"/><path d="M 709.7263927584536 169.20499126734447 L 709.7263927584536 156.94018179841586 L 721.9912068629013 156.94018179841586 L 721.9912068629013 181.46980537179226 L 709.7263927584536 181.46980537179226 L 709.7263927584536 169.20499126734455" stroke="rgb(132, 0, 0)" fill="none" stroke-width="0.9271038246880001px" stroke-linecap="round"/><text x="728.6350669643314" y="162.590833254698" fill="rgb(15, 15, 15)" font-family="sans-serif" text-anchor="start" dominant-baseline="middle" font-size="8.343934422192px">R2</text><text x="728.6350669643314" y="177.424494449706" fill="rgb(15, 15, 15)" font-family="sans-serif" text-anchor="start" dominant-baseline="middle" font-size="8.343934422192px">2.2kΩ</text><circle cx="715.8753115297952" cy="194.75163382984624" r="0.9271038246880001px" stroke-width="0.9271038246880001px" fill="none" stroke="rgb(132, 0, 0)"/><circle cx="715.9006446418048" cy="143.64126218135374" r="0.9271038246880001px" stroke-width="0.9271038246880001px" fill="none" stroke="rgb(132, 0, 0)"/></g><g data-circuit-json-type="schematic_component" data-schematic-component-id="schematic_component_6"><rect class="component-overlay" x="802.4367752272536" y="144.67536305844897" width="12.264814104447737" height="49.059242511233606" fill="transparent"/><path d="M 808.5691822794776 193.73460556968257 L 808.5691822794776 181.46979610075397" stroke="rgb(132, 0, 0)" fill="none" stroke-width="0.9271038246880001px" stroke-linecap="round"/><path d="M 808.5691822794776 156.94017716289667 L 808.5691822794776 144.67536305844897" stroke="rgb(132, 0, 0)" fill="none" stroke-width="0.9271038246880001px" stroke-linecap="round"/><path d="M 802.4367752272536 169.20499126734447 L 802.4367752272536 156.94018179841586 L 814.7015893317014 156.94018179841586 L 814.7015893317014 181.46980537179226 L 802.4367752272536 181.46980537179226 L 802.4367752272536 169.20499126734455" stroke="rgb(132, 0, 0)" fill="none" stroke-width="0.9271038246880001px" stroke-linecap="round"/><text x="821.3454494331314" y="162.590833254698" fill="rgb(15, 15, 15)" font-family="sans-serif" text-anchor="start" dominant-baseline="middle" font-size="8.343934422192px">R5</text><text x="821.3454494331314" y="177.424494449706" fill="rgb(15, 15, 15)" font-family="sans-serif" text-anchor="start" dominant-baseline="middle" font-size="8.343934422192px">2.2kΩ</text><circle cx="808.5856939985953" cy="194.75163382984624" r="0.9271038246880001px" stroke-width="0.9271038246880001px" fill="none" stroke="rgb(132, 0, 0)"/><circle cx="808.6110271106048" cy="143.64126218135374" r="0.9271038246880001px" stroke-width="0.9271038246880001px" fill="none" stroke="rgb(132, 0, 0)"/></g><g data-circuit-json-type="schematic_component" data-schematic-component-id="schematic_component_7"><rect class="component chip" x="196.70983626051998" y="368.52377031352" width="18.54207649376002" height="64.89726772816005" stroke-width="0.9271038246880001px" fill="rgb(255, 255, 194)" stroke="rgb(132, 0, 0)"/><rect class="component-overlay" x="196.70983626051998" y="368.52377031352" width="18.54207649376002" height="64.89726772816005" fill="transparent"/><text x="196.70983626051998" y="439.44721290215205" fill="#006464" text-anchor="start" dominant-baseline="middle" font-family="sans-serif" font-size="8.343934422192px" transform="rotate(0, 196.70983626051998, 439.44721290215205)"></text><text x="196.70983626051998" y="362.497595453048" fill="#006464" text-anchor="start" dominant-baseline="middle" font-family="sans-serif" font-size="8.343934422192px" transform="rotate(0, 196.70983626051998, 362.497595453048)">J3</text><line class="component-pin" x1="232.86688542335202" y1="424.1499997948" x2="215.25191275428" y2="424.1499997948" stroke-width="0.9271038246880001px"/><circle class="component-pin" cx="233.79398924804002" cy="424.1499997948" r="0.9271038246880001" stroke-width="0.9271038246880001px"/><text class="pin-number" x="224.52295100116" y="423.222895970112" style="font-family: sans-serif;" fill="rgb(169, 0, 0)" text-anchor="middle" dominant-baseline="auto" font-size="6.95327868516px" transform="">1</text><line class="component-pin" x1="232.86688542335202" y1="414.87896154792" x2="215.25191275428" y2="414.87896154792" stroke-width="0.9271038246880001px"/><circle class="component-pin" cx="233.79398924804002" cy="414.87896154792" r="0.9271038246880001" stroke-width="0.9271038246880001px"/><text class="pin-number" x="224.52295100116" y="413.951857723232" style="font-family: sans-serif;" fill="rgb(169, 0, 0)" text-anchor="middle" dominant-baseline="auto" font-size="6.95327868516px" transform="">2</text><line class="component-pin" x1="232.86688542335202" y1="405.60792330104" x2="215.25191275428" y2="405.60792330104" stroke-width="0.9271038246880001px"/><circle class="component-pin" cx="233.79398924804002" cy="405.60792330104" r="0.9271038246880001" stroke-width="0.9271038246880001px"/><text class="pin-number" x="224.52295100116" y="404.68081947635204" style="font-family: sans-serif;" fill="rgb(169, 0, 0)" text-anchor="middle" dominant-baseline="auto" font-size="6.95327868516px" transform="">3</text><line class="component-pin" x1="232.86688542335202" y1="396.33688505416" x2="215.25191275428" y2="396.33688505416" stroke-width="0.9271038246880001px"/><circle class="component-pin" cx="233.79398924804002" cy="396.33688505416" r="0.9271038246880001" stroke-width="0.9271038246880001px"/><text class="pin-number" x="224.52295100116" y="395.40978122947206" style="font-family: sans-serif;" fill="rgb(169, 0, 0)" text-anchor="middle" dominant-baseline="auto" font-size="6.95327868516px" transform="">4</text><line class="component-pin" x1="232.86688542335202" y1="387.06584680728" x2="215.25191275428" y2="387.06584680728" stroke-width="0.9271038246880001px"/><circle class="component-pin" cx="233.79398924804002" cy="387.06584680728" r="0.9271038246880001" stroke-width="0.9271038246880001px"/><text class="pin-number" x="224.52295100116" y="386.138742982592" style="font-family: sans-serif;" fill="rgb(169, 0, 0)" text-anchor="middle" dominant-baseline="auto" font-size="6.95327868516px" transform="">5</text><line class="component-pin" x1="232.86688542335202" y1="377.79480856040004" x2="215.25191275428" y2="377.79480856040004" stroke-width="0.9271038246880001px"/><circle class="component-pin" cx="233.79398924804002" cy="377.79480856040004" r="0.9271038246880001" stroke-width="0.9271038246880001px"/><text class="pin-number" x="224.52295100116" y="376.86770473571204" style="font-family: sans-serif;" fill="rgb(169, 0, 0)" text-anchor="middle" dominant-baseline="auto" font-size="6.95327868516px" transform="">6</text></g><g data-circuit-json-type="schematic_component" data-schematic-component-id="schematic_component_8"><rect class="component chip" x="405.30819681532" y="377.79480856040004" width="64.89726772816005" height="46.35519123439997" stroke-width="0.9271038246880001px" fill="rgb(255, 255, 194)" stroke="rgb(132, 0, 0)"/><rect class="component-overlay" x="405.30819681532" y="377.79480856040004" width="64.89726772816005" height="46.35519123439997" fill="transparent"/><text x="405.30819681532" y="430.176174655272" fill="#006464" text-anchor="start" dominant-baseline="middle" font-family="sans-serif" font-size="8.343934422192px" transform="rotate(0, 405.30819681532, 430.176174655272)"></text><text x="405.30819681532" y="371.76863369992805" fill="#006464" text-anchor="start" dominant-baseline="middle" font-family="sans-serif" font-size="8.343934422192px" transform="rotate(0, 405.30819681532, 371.76863369992805)">J1</text><line class="component-pin" x1="487.82043721255206" y1="414.87896154792" x2="470.20546454348005" y2="414.87896154792" stroke-width="0.9271038246880001px"/><circle class="component-pin" cx="488.74754103724" cy="414.87896154792" r="0.9271038246880001" stroke-width="0.9271038246880001px"/><text class="pin-number" x="479.47650279036" y="413.951857723232" style="font-family: sans-serif;" fill="rgb(169, 0, 0)" text-anchor="middle" dominant-baseline="auto" font-size="6.95327868516px" transform="">1</text><text class="pin-number" x="465.56994542003997" y="414.87896154792" style="font-family: sans-serif;" fill="rgb(169, 0, 0)" text-anchor="end" dominant-baseline="middle" font-size="6.95327868516px" transform="">GND</text><line class="component-pin" x1="487.82043721255206" y1="405.60792330104" x2="470.20546454348005" y2="405.60792330104" stroke-width="0.9271038246880001px"/><circle class="component-pin" cx="488.74754103724" cy="405.60792330104" r="0.9271038246880001" stroke-width="0.9271038246880001px"/><text class="pin-number" x="479.47650279036" y="404.68081947635204" style="font-family: sans-serif;" fill="rgb(169, 0, 0)" text-anchor="middle" dominant-baseline="auto" font-size="6.95327868516px" transform="">2</text><text class="pin-number" x="465.56994542003997" y="405.60792330104" style="font-family: sans-serif;" fill="rgb(169, 0, 0)" text-anchor="end" dominant-baseline="middle" font-size="6.95327868516px" transform="">VCC</text><line class="component-pin" x1="487.82043721255206" y1="396.33688505416" x2="470.20546454348005" y2="396.33688505416" stroke-width="0.9271038246880001px"/><circle class="component-pin" cx="488.74754103724" cy="396.33688505416" r="0.9271038246880001" stroke-width="0.9271038246880001px"/><text class="pin-number" x="479.47650279036" y="395.40978122947206" style="font-family: sans-serif;" fill="rgb(169, 0, 0)" text-anchor="middle" dominant-baseline="auto" font-size="6.95327868516px" transform="">3</text><text class="pin-number" x="465.56994542003997" y="396.33688505416" style="font-family: sans-serif;" fill="rgb(169, 0, 0)" text-anchor="end" dominant-baseline="middle" font-size="6.95327868516px" transform="">SDA</text><line class="component-pin" x1="487.82043721255206" y1="387.06584680728" x2="470.20546454348005" y2="387.06584680728" stroke-width="0.9271038246880001px"/><circle class="component-pin" cx="488.74754103724" cy="387.06584680728" r="0.9271038246880001" stroke-width="0.9271038246880001px"/><text class="pin-number" x="479.47650279036" y="386.138742982592" style="font-family: sans-serif;" fill="rgb(169, 0, 0)" text-anchor="middle" dominant-baseline="auto" font-size="6.95327868516px" transform="">4</text><text class="pin-number" x="465.56994542003997" y="387.06584680728" style="font-family: sans-serif;" fill="rgb(169, 0, 0)" text-anchor="end" dominant-baseline="middle" font-size="6.95327868516px" transform="">SCL</text></g><g data-circuit-json-type="schematic_component" data-schematic-component-id="schematic_component_9"><rect class="component chip" x="590.72896175292" y="377.79480856040004" width="64.89726772816005" height="46.35519123439997" stroke-width="0.9271038246880001px" fill="rgb(255, 255, 194)" stroke="rgb(132, 0, 0)"/><rect class="component-overlay" x="590.72896175292" y="377.79480856040004" width="64.89726772816005" height="46.35519123439997" fill="transparent"/><text x="590.72896175292" y="430.176174655272" fill="#006464" text-anchor="start" dominant-baseline="middle" font-family="sans-serif" font-size="8.343934422192px" transform="rotate(0, 590.72896175292, 430.176174655272)"></text><text x="590.72896175292" y="371.76863369992805" fill="#006464" text-anchor="start" dominant-baseline="middle" font-family="sans-serif" font-size="8.343934422192px" transform="rotate(0, 590.72896175292, 371.76863369992805)">J2</text><line class="component-pin" x1="673.241202150152" y1="414.87896154792" x2="655.6262294810799" y2="414.87896154792" stroke-width="0.9271038246880001px"/><circle class="component-pin" cx="674.16830597484" cy="414.87896154792" r="0.9271038246880001" stroke-width="0.9271038246880001px"/><text class="pin-number" x="664.8972677279601" y="413.951857723232" style="font-family: sans-serif;" fill="rgb(169, 0, 0)" text-anchor="middle" dominant-baseline="auto" font-size="6.95327868516px" transform="">1</text><text class="pin-number" x="650.99071035764" y="414.87896154792" style="font-family: sans-serif;" fill="rgb(169, 0, 0)" text-anchor="end" dominant-baseline="middle" font-size="6.95327868516px" transform="">GND</text><line class="component-pin" x1="673.241202150152" y1="405.60792330104" x2="655.6262294810799" y2="405.60792330104" stroke-width="0.9271038246880001px"/><circle class="component-pin" cx="674.16830597484" cy="405.60792330104" r="0.9271038246880001" stroke-width="0.9271038246880001px"/><text class="pin-number" x="664.8972677279601" y="404.68081947635204" style="font-family: sans-serif;" fill="rgb(169, 0, 0)" text-anchor="middle" dominant-baseline="auto" font-size="6.95327868516px" transform="">2</text><text class="pin-number" x="650.99071035764" y="405.60792330104" style="font-family: sans-serif;" fill="rgb(169, 0, 0)" text-anchor="end" dominant-baseline="middle" font-size="6.95327868516px" transform="">VCC</text><line class="component-pin" x1="673.241202150152" y1="396.33688505416" x2="655.6262294810799" y2="396.33688505416" stroke-width="0.9271038246880001px"/><circle class="component-pin" cx="674.16830597484" cy="396.33688505416" r="0.9271038246880001" stroke-width="0.9271038246880001px"/><text class="pin-number" x="664.8972677279601" y="395.40978122947206" style="font-family: sans-serif;" fill="rgb(169, 0, 0)" text-anchor="middle" dominant-baseline="auto" font-size="6.95327868516px" transform="">3</text><text class="pin-number" x="650.99071035764" y="396.33688505416" style="font-family: sans-serif;" fill="rgb(169, 0, 0)" text-anchor="end" dominant-baseline="middle" font-size="6.95327868516px" transform="">SDA</text><line class="component-pin" x1="673.241202150152" y1="387.06584680728" x2="655.6262294810799" y2="387.06584680728" stroke-width="0.9271038246880001px"/><circle class="component-pin" cx="674.16830597484" cy="387.06584680728" r="0.9271038246880001" stroke-width="0.9271038246880001px"/><text class="pin-number" x="664.8972677279601" y="386.138742982592" style="font-family: sans-serif;" fill="rgb(169, 0, 0)" text-anchor="middle" dominant-baseline="auto" font-size="6.95327868516px" transform="">4</text><text class="pin-number" x="650.99071035764" y="387.06584680728" style="font-family: sans-serif;" fill="rgb(169, 0, 0)" text-anchor="end" dominant-baseline="middle" font-size="6.95327868516px" transform="">SCL</text></g><g data-circuit-json-type="schematic_component" data-schematic-component-id="schematic_component_10"><rect class="component-overlay" x="848.7919664616535" y="376.451319230449" width="12.264814104447737" height="49.059242511233606" fill="transparent"/><path d="M 854.9243735138774 425.5105617416826 L 854.9243735138774 413.245752272754" stroke="rgb(132, 0, 0)" fill="none" stroke-width="0.9271038246880001px" stroke-linecap="round"/><path d="M 854.9243735138774 388.7161333348967 L 854.9243735138774 376.451319230449" stroke="rgb(132, 0, 0)" fill="none" stroke-width="0.9271038246880001px" stroke-linecap="round"/><path d="M 848.7919664616535 400.98094743934445 L 848.7919664616535 388.71613797041584 L 861.0567805661012 388.71613797041584 L 861.0567805661012 413.24576154379224 L 848.7919664616535 413.24576154379224 L 848.7919664616535 400.98094743934456" stroke="rgb(132, 0, 0)" fill="none" stroke-width="0.9271038246880001px" stroke-linecap="round"/><text x="867.7006406675313" y="394.366789426698" fill="rgb(15, 15, 15)" font-family="sans-serif" text-anchor="start" dominant-baseline="middle" font-size="8.343934422192px">R3</text><text x="867.7006406675313" y="409.200450621706" fill="rgb(15, 15, 15)" font-family="sans-serif" text-anchor="start" dominant-baseline="middle" font-size="8.343934422192px">4.7kΩ</text><circle cx="854.9408852329951" cy="426.52759000184625" r="0.9271038246880001px" stroke-width="0.9271038246880001px" fill="none" stroke="rgb(132, 0, 0)"/><circle cx="854.9662183450047" cy="375.41721835335375" r="0.9271038246880001px" stroke-width="0.9271038246880001px" fill="none" stroke="rgb(132, 0, 0)"/></g><g data-circuit-json-type="schematic_component" data-schematic-component-id="schematic_component_11"><rect class="component-overlay" x="839.9591029776766" y="436.8698271853664" width="21.2982031924264" height="48.77294821465091" fill="transparent"/><path d="M 855.124899117879 467.5318531754475 L 861.257306170103 455.2670437065189" stroke="rgb(132, 0, 0)" fill="none" stroke-width="0.9271038246880001px" stroke-linecap="round"/><path d="M 855.1352734096772 467.1507764193478 L 855.1352734096772 485.6427754000173" stroke="rgb(132, 0, 0)" fill="none" stroke-width="0.9271038246880001px" stroke-linecap="round"/><path d="M 848.992492065655 455.2670437065189 L 855.124899117879 467.5318531754475" stroke="rgb(132, 0, 0)" fill="none" stroke-width="0.9271038246880001px" stroke-linecap="round"/><path d="M 861.257306170103 455.2670437065189 L 848.992492065655 455.2670437065189" stroke="rgb(132, 0, 0)" fill="none" stroke-width="0.9271038246880001px" stroke-linecap="round"/><path d="M 848.992492065655 467.5318531754475 L 861.257306170103 467.5318531754475" stroke="rgb(132, 0, 0)" fill="none" stroke-width="0.9271038246880001px" stroke-linecap="round"/><path d="M 855.124899117879 455.172302966674 L 855.124899117879 436.8698271853664" stroke="rgb(132, 0, 0)" fill="none" stroke-width="0.9271038246880001px" stroke-linecap="round"/><path d="M 841.7213326566053 468.45369105041124 L 840.9388941127215 472.96601198210755 L 845.2389314461599 471.3758991282322" stroke="rgb(132, 0, 0)" fill="none" stroke-width="0.9271038246880001px" stroke-linecap="round"/><path d="M 847.2628547216834 464.9427766794325 L 846.8487637983864 465.5001283212393 L 842.6556678911257 471.1441741627706 L 842.6116304594531 471.1733779332482" stroke="rgb(132, 0, 0)" fill="none" stroke-width="0.9271038246880001px" stroke-linecap="round"/><path d="M 840.7415415215603 460.22720677624983 L 839.9591029776766 464.73952770794614 L 844.259140311115 463.14941485407076" stroke="rgb(132, 0, 0)" fill="none" stroke-width="0.9271038246880001px" stroke-linecap="round"/><path d="M 846.2830635866385 456.7162924052711 L 845.8689726633414 457.2736440470779 L 841.6758767560807 462.9176898886091 L 841.6318393244081 462.9468936590868" stroke="rgb(132, 0, 0)" fill="none" stroke-width="0.9271038246880001px" stroke-linecap="round"/><text x="864.2245900358802" y="470.5051910292" fill="rgb(15, 15, 15)" font-family="sans-serif" text-anchor="start" dominant-baseline="middle" font-size="8.343934422192px">red</text><text x="864.2245900358802" y="452.426666447784" fill="rgb(15, 15, 15)" font-family="sans-serif" text-anchor="start" dominant-baseline="middle" font-size="8.343934422192px">D1</text><circle cx="855.1590397162232" cy="436.3780681391562" r="0.9271038246880001px" stroke-width="0.9271038246880001px" fill="none" stroke="rgb(132, 0, 0)"/><circle cx="855.1800617954481" cy="486.0902374254838" r="0.9271038246880001px" stroke-width="0.9271038246880001px" fill="none" stroke="rgb(132, 0, 0)"/></g><g data-circuit-json-type="schematic_component" data-schematic-component-id="schematic_component_12"><rect class="component-overlay" x="848.9709229951737" y="510.33196281266066" width="11.935307498596217" height="40.84806008569876" fill="transparent"/><path d="M 854.9154431862863 522.3685100489129 L 854.9154431862863 510.33196281266066" stroke="rgb(132, 0, 0)" fill="none" stroke-width="0.9271038246880001px" stroke-linecap="round"/><path d="M 854.994928432696 551.1800228983594 L 854.994928432696 539.2080113593438" stroke="rgb(132, 0, 0)" fill="none" stroke-width="0.9271038246880001px" stroke-linecap="round"/><path d="M 854.9945668622044 533.8736321018157 L 854.9945668622044 527.7022125206489" stroke="rgb(132, 0, 0)" fill="none" stroke-width="0.9271038246880001px" stroke-linecap="round"/><path d="M 860.8090282932707 533.9617208717184 L 849.1281412617644 533.9617208717184" stroke="rgb(132, 0, 0)" fill="none" stroke-width="0.9271038246880001px" stroke-linecap="round"/><path d="M 860.8134922981865 527.6105590365403 L 849.1326052666802 527.6105590365403" stroke="rgb(132, 0, 0)" fill="none" stroke-width="0.9271038246880001px" stroke-linecap="round"/><path d="M 848.9768008334223 527.3952020891035 L 848.9768008334223 527.3952020891035 L 849.3674291836362 526.6708213261278 L 849.7723812498273 526.0191785034731 L 850.1901742149274 525.4378325887026 L 850.6193252618689 524.9243425493793 L 851.0583515735833 524.4762673530665 L 851.5057703330029 524.0911659673275 L 851.9600987230596 523.7665973597251 L 852.4198539266854 523.5001204978229 L 852.8835531268122 523.2892943491837 L 853.349713506372 523.1316778813709 L 853.816852248297 523.0248300619477 L 854.2834865355189 522.9663098584772 L 854.7481335509699 522.9536762385225 L 855.2093104775819 522.9844881696469 L 855.6655344982868 523.0563046194134 L 856.1153227960167 523.1666845553854 L 856.5571925537035 523.3131869451258 L 856.9896609542794 523.4933707561981 L 857.4112451806761 523.7047949561652 L 857.8204624158258 523.9450185125904 L 858.2158298426604 524.2116003930369 L 858.5958646441119 524.5020995650677 L 858.9590840031121 524.8140749962462 L 859.3040051025934 525.1450856541354 L 859.6291451254874 525.4926905062986 L 859.9330212547263 525.8544485202989 L 860.2141506732421 526.2279186636995 L 860.4710505639666 526.6106599040635 L 860.7022381098319 527.0002312089541 L 860.90623049377 527.3941915459346 L 860.90623049377 527.3941915459346" stroke="rgb(132, 0, 0)" fill="none" stroke-width="0.9271038246880001px" stroke-linecap="round"/><path d="M 848.9709229951737 534.1736197218892 L 848.9709229951737 534.1736197218892 L 849.3615513453876 534.8980004848648 L 849.7665034115787 535.5496433075195 L 850.184296376679 536.1309892222902 L 850.6134474236203 536.6444792616134 L 851.0524737353348 537.0925544579262 L 851.4998924947544 537.4776558436653 L 851.9542208848111 537.8022244512675 L 852.4139760884368 538.0687013131699 L 852.8776752885636 538.2795274618089 L 853.3438356681236 538.4371439296217 L 853.8109744100485 538.543991749045 L 854.2776086972705 538.6025119525156 L 854.7422557127214 538.6151455724702 L 855.2034326393333 538.5843336413459 L 855.6596566600383 538.5125171915793 L 856.1094449577682 538.4021372556074 L 856.5513147154551 538.2556348658668 L 856.9837831160308 538.0754510547946 L 857.4053673424277 537.8640268548274 L 857.8145845775773 537.6238032984022 L 858.2099520044119 537.3572214179558 L 858.5899868058633 537.0667222459249 L 858.9532061648637 536.7547468147465 L 859.2981272643449 536.4237361568572 L 859.623267287239 536.0761313046941 L 859.9271434164779 535.7143732906937 L 860.2082728349935 535.3409031472933 L 860.465172725718 534.9581619069291 L 860.6963602715834 534.5685906020385 L 860.9003526555215 534.1746302650581 L 860.9003526555215 534.1746302650581" stroke="rgb(132, 0, 0)" fill="none" stroke-width="0.9271038246880001px" stroke-linecap="round"/><text x="863.2619039664006" y="529.8103909917601" fill="rgb(15, 15, 15)" font-family="sans-serif" text-anchor="start" dominant-baseline="middle" font-size="8.343934422192px">LED</text><circle cx="854.9564350818949" cy="510.1017582974715" r="0.9271038246880001px" stroke-width="0.9271038246880001px" fill="none" stroke="rgb(132, 0, 0)"/><circle cx="854.9506684961053" cy="551.4321209703686" r="0.9271038246880001px" stroke-width="0.9271038246880001px" fill="none" stroke="rgb(132, 0, 0)"/></g><g data-circuit-json-type="schematic_component" data-schematic-component-id="schematic_component_13"><rect class="component-overlay" x="974.1299393280536" y="380.53742735634063" width="11.935307498596217" height="40.848060085698705" fill="transparent"/><path d="M 980.0744595191662 392.57397459259283 L 980.0744595191662 380.53742735634063" stroke="rgb(132, 0, 0)" fill="none" stroke-width="0.9271038246880001px" stroke-linecap="round"/><path d="M 980.153944765576 421.38548744203933 L 980.153944765576 409.4134759030237" stroke="rgb(132, 0, 0)" fill="none" stroke-width="0.9271038246880001px" stroke-linecap="round"/><path d="M 980.1535831950843 404.0790966454956 L 980.1535831950843 397.9076770643289" stroke="rgb(132, 0, 0)" fill="none" stroke-width="0.9271038246880001px" stroke-linecap="round"/><path d="M 985.9680446261506 404.16718541539836 L 974.2871575946443 404.16718541539836" stroke="rgb(132, 0, 0)" fill="none" stroke-width="0.9271038246880001px" stroke-linecap="round"/><path d="M 985.9725086310664 397.8160235802202 L 974.2916215995601 397.8160235802202" stroke="rgb(132, 0, 0)" fill="none" stroke-width="0.9271038246880001px" stroke-linecap="round"/><path d="M 974.1358171663022 397.60066663278343 L 974.1358171663022 397.60066663278343 L 974.5264455165161 396.87628586980776 L 974.9313975827072 396.22464304715305 L 975.3491905478074 395.6432971323825 L 975.7783415947488 395.12980709305924 L 976.2173679064632 394.68173189674644 L 976.6647866658828 394.2966305110073 L 977.1191150559395 393.97206190340506 L 977.5788702595653 393.7055850415028 L 978.0425694596921 393.4947588928637 L 978.5087298392519 393.3371424250509 L 978.9758685811769 393.23029460562765 L 979.4425028683988 393.1717744021571 L 979.9071498838498 393.1591407822024 L 980.3683268104618 393.18995271332676 L 980.8245508311667 393.26176916309333 L 981.2743391288966 393.37214909906527 L 981.7162088865834 393.5186514888058 L 982.1486772871593 393.698835299878 L 982.570261513556 393.91025949984515 L 982.9794787487057 394.15048305627033 L 983.3748461755403 394.4170649367168 L 983.7548809769918 394.7075641087477 L 984.118100335992 395.01953953992614 L 984.4630214354733 395.3505501978154 L 984.7881614583673 395.69815504997854 L 985.0920375876062 396.0599130639788 L 985.373167006122 396.4333832073794 L 985.6300668968465 396.8161244477434 L 985.8612544427118 397.205695752634 L 986.0652468266499 397.5996560896145 L 986.0652468266499 397.5996560896145" stroke="rgb(132, 0, 0)" fill="none" stroke-width="0.9271038246880001px" stroke-linecap="round"/><path d="M 974.1299393280536 404.3790842655691 L 974.1299393280536 404.3790842655691 L 974.5205676782676 405.10346502854475 L 974.9255197444587 405.75510785119945 L 975.3433127095589 406.33645376597 L 975.7724637565002 406.84994380529326 L 976.2114900682147 407.29801900160606 L 976.6589088276343 407.6831203873452 L 977.113237217691 408.00768899494744 L 977.5729924213167 408.2741658568497 L 978.0366916214435 408.48499200548883 L 978.5028520010035 408.6426084733016 L 978.9699907429284 408.74945629272486 L 979.4366250301504 408.8079764961954 L 979.9012720456013 408.8206101161501 L 980.3624489722132 408.78979818502575 L 980.8186729929182 408.7179817352592 L 981.2684612906481 408.60760179928724 L 981.710331048335 408.4610994095467 L 982.1427994489108 408.2809155984745 L 982.5643836753076 408.06949139850735 L 982.9736009104572 407.8292678420822 L 983.3689683372918 407.5626859616357 L 983.7490031387432 407.2721867896048 L 984.1122224977436 406.96021135842636 L 984.4571435972248 406.6292007005371 L 984.7822836201188 406.28159584837397 L 985.0861597493578 405.91983783437365 L 985.3672891678734 405.5463676909731 L 985.624189058598 405.1636264506091 L 985.8553766044633 404.7740551457184 L 986.0593689884014 404.380094808738 L 986.0593689884014 404.380094808738" stroke="rgb(132, 0, 0)" fill="none" stroke-width="0.9271038246880001px" stroke-linecap="round"/><text x="988.4209202992805" y="400.0158555354399" fill="rgb(15, 15, 15)" font-family="sans-serif" text-anchor="start" dominant-baseline="middle" font-size="8.343934422192px">INT_JP</text><circle cx="980.1154514147748" cy="380.3072228411515" r="0.9271038246880001px" stroke-width="0.9271038246880001px" fill="none" stroke="rgb(132, 0, 0)"/><circle cx="980.1096848289852" cy="421.6375855140485" r="0.9271038246880001px" stroke-width="0.9271038246880001px" fill="none" stroke="rgb(132, 0, 0)"/></g><g data-circuit-json-type="schematic_component" data-schematic-component-id="schematic_component_14"><rect class="component-overlay" x="973.9509827945336" y="445.984106082049" width="12.264814104447737" height="49.059242511233606" fill="transparent"/><path d="M 980.0833898467575 495.0433485932826 L 980.0833898467575 482.778539124354" stroke="rgb(132, 0, 0)" fill="none" stroke-width="0.9271038246880001px" stroke-linecap="round"/><path d="M 980.0833898467575 458.24892018649666 L 980.0833898467575 445.984106082049" stroke="rgb(132, 0, 0)" fill="none" stroke-width="0.9271038246880001px" stroke-linecap="round"/><path d="M 973.9509827945336 470.51373429094446 L 973.9509827945336 458.24892482201585 L 986.2157968989814 458.24892482201585 L 986.2157968989814 482.77854839539225 L 973.9509827945336 482.77854839539225 L 973.9509827945336 470.51373429094457" stroke="rgb(132, 0, 0)" fill="none" stroke-width="0.9271038246880001px" stroke-linecap="round"/><text x="992.8596570004114" y="463.899576278298" fill="rgb(15, 15, 15)" font-family="sans-serif" text-anchor="start" dominant-baseline="middle" font-size="8.343934422192px">R4</text><text x="992.8596570004114" y="478.733237473306" fill="rgb(15, 15, 15)" font-family="sans-serif" text-anchor="start" dominant-baseline="middle" font-size="8.343934422192px">10kΩ</text><circle cx="980.0999015658753" cy="496.06037685344626" r="0.9271038246880001px" stroke-width="0.9271038246880001px" fill="none" stroke="rgb(132, 0, 0)"/><circle cx="980.1252346778848" cy="444.95000520495375" r="0.9271038246880001px" stroke-width="0.9271038246880001px" fill="none" stroke="rgb(132, 0, 0)"/></g><g class="trace" data-circuit-json-type="schematic_trace" data-schematic-trace-id="schematic_trace_0"><path d="M 261.6197705446848 143.64126218135374 L 261.6197705446848 127.59295359267122 L 273.3462833453138 127.59295359267122 L 279.28709238617137 127.59295359267122" class="trace-invisible-hover-outline" stroke="rgb(0, 150, 0)" fill="none" stroke-width="7.416830597504001px" stroke-linecap="round" opacity="0" stroke-linejoin="round"/><path d="M 261.6197705446848 143.64126218135374 L 261.6197705446848 127.59295359267122 L 273.3462833453138 127.59295359267122 L 279.28709238617137 127.59295359267122" stroke="rgb(0, 150, 0)" fill="none" stroke-width="0.9271038246880001px" stroke-linecap="round" stroke-linejoin="round"/></g><g class="trace" data-circuit-json-type="schematic_trace" data-schematic-trace-id="schematic_trace_1"><path d="M 313.09269103429426 148.4258387399675 L 340.41092908716 148.4258387399675 L 340.41092908716 146.0188523884" class="trace-invisible-hover-outline" stroke="rgb(0, 150, 0)" fill="none" stroke-width="7.416830597504001px" stroke-linecap="round" opacity="0" stroke-linejoin="round"/><path d="M 313.09269103429426 148.4258387399675 L 340.41092908716 148.4258387399675 L 340.41092908716 146.0188523884" stroke="rgb(0, 150, 0)" fill="none" stroke-width="0.9271038246880001px" stroke-linecap="round" stroke-linejoin="round"/></g><g class="trace" data-circuit-json-type="schematic_trace" data-schematic-trace-id="schematic_trace_2"><path d="M 279.28709238617137 127.59295359267122 L 238.42950837148 127.59295359267122 L 238.42950837148 127.47677589464" class="trace-invisible-hover-outline" stroke="rgb(0, 150, 0)" fill="none" stroke-width="7.416830597504001px" stroke-linecap="round" opacity="0" stroke-linejoin="round"/><path d="M 279.28709238617137 127.59295359267122 L 238.42950837148 127.59295359267122 L 238.42950837148 127.47677589464" stroke="rgb(0, 150, 0)" fill="none" stroke-width="0.9271038246880001px" stroke-linecap="round" stroke-linejoin="round"/></g><g class="trace" data-circuit-json-type="schematic_trace" data-schematic-trace-id="schematic_trace_3"><path d="M 428.48579243252004 122.8412567712 L 428.48579243252004 122.8412567712 L 428.48579243252004 132.11229501808" class="trace-invisible-hover-outline" stroke="rgb(0, 150, 0)" fill="none" stroke-width="7.416830597504001px" stroke-linecap="round" opacity="0" stroke-linejoin="round"/><path d="M 428.48579243252004 122.8412567712 L 428.48579243252004 122.8412567712 L 428.48579243252004 132.11229501808" stroke="rgb(0, 150, 0)" fill="none" stroke-width="0.9271038246880001px" stroke-linecap="round" stroke-linejoin="round"/></g><g class="trace" data-circuit-json-type="schematic_trace" data-schematic-trace-id="schematic_trace_4"><path d="M 428.48579243252004 132.11229501808 L 414.57923506220004 132.11229501808 L 414.57923506220004 150.65437151184" class="trace-invisible-hover-outline" stroke="rgb(0, 150, 0)" fill="none" stroke-width="7.416830597504001px" stroke-linecap="round" opacity="0" stroke-linejoin="round"/><path d="M 428.48579243252004 132.11229501808 L 414.57923506220004 132.11229501808 L 414.57923506220004 150.65437151184" stroke="rgb(0, 150, 0)" fill="none" stroke-width="0.9271038246880001px" stroke-linecap="round" stroke-linejoin="round"/></g><g class="trace" data-circuit-json-type="schematic_trace" data-schematic-trace-id="schematic_trace_5"><path d="M 428.48579243252004 113.57021852432 L 414.57923506220004 113.57021852432 L 414.57923506220004 104.29918027743999" class="trace-invisible-hover-outline" stroke="rgb(0, 150, 0)" fill="none" stroke-width="7.416830597504001px" stroke-linecap="round" opacity="0" stroke-linejoin="round"/><path d="M 428.48579243252004 113.57021852432 L 414.57923506220004 113.57021852432 L 414.57923506220004 104.29918027743999" stroke="rgb(0, 150, 0)" fill="none" stroke-width="0.9271038246880001px" stroke-linecap="round" stroke-linejoin="round"/></g><g class="trace" data-circuit-json-type="schematic_trace" data-schematic-trace-id="schematic_trace_6"><path d="M 428.48579243252004 132.11229501808 L 414.57923506220004 132.11229501808 L 414.57923506220004 150.65437151184" class="trace-invisible-hover-outline" stroke="rgb(0, 150, 0)" fill="none" stroke-width="7.416830597504001px" stroke-linecap="round" opacity="0" stroke-linejoin="round"/><path d="M 428.48579243252004 132.11229501808 L 414.57923506220004 132.11229501808 L 414.57923506220004 150.65437151184" stroke="rgb(0, 150, 0)" fill="none" stroke-width="0.9271038246880001px" stroke-linecap="round" stroke-linejoin="round"/></g><g class="trace" data-circuit-json-type="schematic_trace" data-schematic-trace-id="schematic_trace_7"><path d="M 623.1649244254761 97.28984425952022 L 623.177595617 97.28984425952022 L 623.177595617 76.4860655368" class="trace-invisible-hover-outline" stroke="rgb(0, 150, 0)" fill="none" stroke-width="7.416830597504001px" stroke-linecap="round" opacity="0" stroke-linejoin="round"/><path d="M 623.1649244254761 97.28984425952022 L 623.177595617 97.28984425952022 L 623.177595617 76.4860655368" stroke="rgb(0, 150, 0)" fill="none" stroke-width="0.9271038246880001px" stroke-linecap="round" stroke-linejoin="round"/></g><g class="trace" data-circuit-json-type="schematic_trace" data-schematic-trace-id="schematic_trace_8"><path d="M 623.1902668085239 148.39266928287975 L 623.177595617 148.39266928287975 L 623.177595617 169.1964480056" class="trace-invisible-hover-outline" stroke="rgb(0, 150, 0)" fill="none" stroke-width="7.416830597504001px" stroke-linecap="round" opacity="0" stroke-linejoin="round"/><path d="M 623.1902668085239 148.39266928287975 L 623.177595617 148.39266928287975 L 623.177595617 169.1964480056" stroke="rgb(0, 150, 0)" fill="none" stroke-width="0.9271038246880001px" stroke-linecap="round" stroke-linejoin="round"/></g><g class="trace" data-circuit-json-type="schematic_trace" data-schematic-trace-id="schematic_trace_9"><path d="M 782.9083506566485 127.55035412220819 L 808.6110271106048 127.55035412220819 L 808.6110271106048 143.64126218135374" class="trace-invisible-hover-outline" stroke="rgb(0, 150, 0)" fill="none" stroke-width="7.416830597504001px" stroke-linecap="round" opacity="0" stroke-linejoin="round"/><path d="M 782.9083506566485 127.55035412220819 L 808.6110271106048 127.55035412220819 L 808.6110271106048 143.64126218135374" stroke="rgb(0, 150, 0)" fill="none" stroke-width="0.9271038246880001px" stroke-linecap="round" stroke-linejoin="round"/></g><g class="trace" data-circuit-json-type="schematic_trace" data-schematic-trace-id="schematic_trace_10"><path d="M 741.5779879837514 127.54458753641865 L 715.9006446418048 127.54458753641865 L 715.9006446418048 143.64126218135374" class="trace-invisible-hover-outline" stroke="rgb(0, 150, 0)" fill="none" stroke-width="7.416830597504001px" stroke-linecap="round" opacity="0" stroke-linejoin="round"/><path d="M 741.5779879837514 127.54458753641865 L 715.9006446418048 127.54458753641865 L 715.9006446418048 143.64126218135374" stroke="rgb(0, 150, 0)" fill="none" stroke-width="0.9271038246880001px" stroke-linecap="round" stroke-linejoin="round"/></g><g class="trace" data-circuit-json-type="schematic_trace" data-schematic-trace-id="schematic_trace_11"><path d="M 233.79398924804002 424.1499997948 L 252.3360657418 424.1499997948 L 252.3360657418 428.78551891824" class="trace-invisible-hover-outline" stroke="rgb(0, 150, 0)" fill="none" stroke-width="7.416830597504001px" stroke-linecap="round" opacity="0" stroke-linejoin="round"/><path d="M 233.79398924804002 424.1499997948 L 252.3360657418 424.1499997948 L 252.3360657418 428.78551891824" stroke="rgb(0, 150, 0)" fill="none" stroke-width="0.9271038246880001px" stroke-linecap="round" stroke-linejoin="round"/></g><g class="trace" data-circuit-json-type="schematic_trace" data-schematic-trace-id="schematic_trace_12"><path d="M 233.79398924804002 414.87896154792 L 280.14918048244 414.87896154792 L 280.14918048244 336.07513644944" class="trace-invisible-hover-outline" stroke="rgb(0, 150, 0)" fill="none" stroke-width="7.416830597504001px" stroke-linecap="round" opacity="0" stroke-linejoin="round"/><path d="M 233.79398924804002 414.87896154792 L 280.14918048244 414.87896154792 L 280.14918048244 336.07513644944" stroke="rgb(0, 150, 0)" fill="none" stroke-width="0.9271038246880001px" stroke-linecap="round" stroke-linejoin="round"/></g><g class="trace" data-circuit-json-type="schematic_trace" data-schematic-trace-id="schematic_trace_13"><path d="M 488.74754103724 414.87896154792 L 530.4672131482 414.87896154792 L 530.4672131482 424.1499997948" class="trace-invisible-hover-outline" stroke="rgb(0, 150, 0)" fill="none" stroke-width="7.416830597504001px" stroke-linecap="round" opacity="0" stroke-linejoin="round"/><path d="M 488.74754103724 414.87896154792 L 530.4672131482 414.87896154792 L 530.4672131482 424.1499997948" stroke="rgb(0, 150, 0)" fill="none" stroke-width="0.9271038246880001px" stroke-linecap="round" stroke-linejoin="round"/></g><g class="trace" data-circuit-json-type="schematic_trace" data-schematic-trace-id="schematic_trace_14"><path d="M 488.74754103724 405.60792330104 L 530.4672131482 405.60792330104 L 530.4672131482 354.6172129432" class="trace-invisible-hover-outline" stroke="rgb(0, 150, 0)" fill="none" stroke-width="7.416830597504001px" stroke-linecap="round" opacity="0" stroke-linejoin="round"/><path d="M 488.74754103724 405.60792330104 L 530.4672131482 405.60792330104 L 530.4672131482 354.6172129432" stroke="rgb(0, 150, 0)" fill="none" stroke-width="0.9271038246880001px" stroke-linecap="round" stroke-linejoin="round"/></g><g class="trace" data-circuit-json-type="schematic_trace" data-schematic-trace-id="schematic_trace_15"><path d="M 674.16830597484 414.87896154792 L 715.8879780858001 414.87896154792 L 715.8879780858001 424.1499997948" class="trace-invisible-hover-outline" stroke="rgb(0, 150, 0)" fill="none" stroke-width="7.416830597504001px" stroke-linecap="round" opacity="0" stroke-linejoin="round"/><path d="M 674.16830597484 414.87896154792 L 715.8879780858001 414.87896154792 L 715.8879780858001 424.1499997948" stroke="rgb(0, 150, 0)" fill="none" stroke-width="0.9271038246880001px" stroke-linecap="round" stroke-linejoin="round"/></g><g class="trace" data-circuit-json-type="schematic_trace" data-schematic-trace-id="schematic_trace_16"><path d="M 674.16830597484 405.60792330104 L 715.8879780858001 405.60792330104 L 715.8879780858001 354.6172129432" class="trace-invisible-hover-outline" stroke="rgb(0, 150, 0)" fill="none" stroke-width="7.416830597504001px" stroke-linecap="round" opacity="0" stroke-linejoin="round"/><path d="M 674.16830597484 405.60792330104 L 715.8879780858001 405.60792330104 L 715.8879780858001 354.6172129432" stroke="rgb(0, 150, 0)" fill="none" stroke-width="0.9271038246880001px" stroke-linecap="round" stroke-linejoin="round"/></g><g class="trace" data-circuit-json-type="schematic_trace" data-schematic-trace-id="schematic_trace_17"><path d="M 854.9408852329952 426.52759000184625 L 854.9408852329952 426.52759000184625 L 854.9408852329952 436.37806813915626" class="trace-invisible-hover-outline" stroke="rgb(0, 150, 0)" fill="none" stroke-width="7.416830597504001px" stroke-linecap="round" opacity="0" stroke-linejoin="round"/><path d="M 854.9408852329952 426.52759000184625 L 854.9408852329952 426.52759000184625 L 854.9408852329952 436.37806813915626" stroke="rgb(0, 150, 0)" fill="none" stroke-width="0.9271038246880001px" stroke-linecap="round" stroke-linejoin="round"/></g><g class="trace" data-circuit-json-type="schematic_trace" data-schematic-trace-id="schematic_trace_18"><path d="M 854.9662183450048 375.41721835335375 L 854.9535517890001 375.41721835335375 L 854.9535517890001 354.6172129432" class="trace-invisible-hover-outline" stroke="rgb(0, 150, 0)" fill="none" stroke-width="7.416830597504001px" stroke-linecap="round" opacity="0" stroke-linejoin="round"/><path d="M 854.9662183450048 375.41721835335375 L 854.9535517890001 375.41721835335375 L 854.9535517890001 354.6172129432" stroke="rgb(0, 150, 0)" fill="none" stroke-width="0.9271038246880001px" stroke-linecap="round" stroke-linejoin="round"/></g><g class="trace" data-circuit-json-type="schematic_trace" data-schematic-trace-id="schematic_trace_19"><path d="M 854.9564350818948 510.1017582974715 L 854.9564350818948 486.0902374254838" class="trace-invisible-hover-outline" stroke="rgb(0, 150, 0)" fill="none" stroke-width="7.416830597504001px" stroke-linecap="round" opacity="0" stroke-linejoin="round"/><path d="M 854.9564350818948 510.1017582974715 L 854.9564350818948 486.0902374254838" stroke="rgb(0, 150, 0)" fill="none" stroke-width="0.9271038246880001px" stroke-linecap="round" stroke-linejoin="round"/></g><g class="trace" data-circuit-json-type="schematic_trace" data-schematic-trace-id="schematic_trace_20"><path d="M 980.1096848289853 421.6375855140485 L 980.1096848289853 444.95000520495375" class="trace-invisible-hover-outline" stroke="rgb(0, 150, 0)" fill="none" stroke-width="7.416830597504001px" stroke-linecap="round" opacity="0" stroke-linejoin="round"/><path d="M 980.1096848289853 421.6375855140485 L 980.1096848289853 444.95000520495375" stroke="rgb(0, 150, 0)" fill="none" stroke-width="0.9271038246880001px" stroke-linecap="round" stroke-linejoin="round"/></g><g class="trace" data-circuit-json-type="schematic_trace" data-schematic-trace-id="schematic_trace_21"><path d="M 980.1154514147747 380.3072228411515 L 980.11256812188 380.3072228411515 L 980.11256812188 354.6172129432" class="trace-invisible-hover-outline" stroke="rgb(0, 150, 0)" fill="none" stroke-width="7.416830597504001px" stroke-linecap="round" opacity="0" stroke-linejoin="round"/><path d="M 980.1154514147747 380.3072228411515 L 980.11256812188 380.3072228411515 L 980.11256812188 354.6172129432" stroke="rgb(0, 150, 0)" fill="none" stroke-width="0.9271038246880001px" stroke-linecap="round" stroke-linejoin="round"/></g><g class="trace" data-circuit-json-type="schematic_trace" data-schematic-trace-id="schematic_trace_22"><path d="M 980.0999015658751 496.0603768534463 L 980.11256812188 496.0603768534463 L 980.11256812188 540.0379778808001" class="trace-invisible-hover-outline" stroke="rgb(0, 150, 0)" fill="none" stroke-width="7.416830597504001px" stroke-linecap="round" opacity="0" stroke-linejoin="round"/><path d="M 980.0999015658751 496.0603768534463 L 980.11256812188 496.0603768534463 L 980.11256812188 540.0379778808001" stroke="rgb(0, 150, 0)" fill="none" stroke-width="0.9271038246880001px" stroke-linecap="round" stroke-linejoin="round"/></g><rect class="component-overlay" x="336.08202637613994" y="126.34068432579079" width="8.588666654313897" height="18.985320196824233" fill="transparent"/><path d="M 340.3085119276468 126.34068432579079 L 336.08202637613994 135.19780316358148" stroke="rgb(132, 0, 0)" fill="none" stroke-width="0.9271038246880001px" stroke-linecap="round"/><path d="M 340.44420747894713 126.34530130283773 L 344.67069303045383 135.20244331822406" stroke="rgb(132, 0, 0)" fill="none" stroke-width="0.9271038246880001px" stroke-linecap="round"/><path d="M 340.35742128991814 126.57439329343728 L 340.35742128991814 145.32600452261502" stroke="rgb(132, 0, 0)" fill="none" stroke-width="0.9271038246880001px" stroke-linecap="round"/><text x="340.1500791550457" y="123.62421449322551" fill="rgb(15, 15, 15)" font-family="sans-serif" text-anchor="middle" dominant-baseline="ideographic" font-size="8.343934422192px">V3_3_SW</text><path class="net-label" d="
    M 238.42950837148,127.47677589464
    L 235.9263280448224,132.4831365479552
    L 196.2030195030239,132.48313654795518
    L 196.2030195030239,122.4704152413248
    L 235.9263280448224,122.4704152413248
    Z
  " fill="rgba(255, 255, 255, 0.6)" stroke="rgb(132, 0, 0)" stroke-width="0.9271038246880001px"/><text class="net-label-text" x="234.25754116038402" y="127.47677589464" fill="rgb(132, 0, 0)" text-anchor="end" dominant-baseline="central" font-family="sans-serif" font-variant-numeric="tabular-nums" font-size="8.343934422192px" transform="">DISABLE</text><rect class="component-overlay" x="410.25033235117996" y="84.6210122148308" width="8.588666654313897" height="18.985320196824247" fill="transparent"/><path d="M 414.47681790268683 84.6210122148308 L 410.25033235117996 93.47813105262149" stroke="rgb(132, 0, 0)" fill="none" stroke-width="0.9271038246880001px" stroke-linecap="round"/><path d="M 414.61251345398716 84.62562919187774 L 418.83899900549386 93.48277120726405" stroke="rgb(132, 0, 0)" fill="none" stroke-width="0.9271038246880001px" stroke-linecap="round"/><path d="M 414.52572726495816 84.85472118247729 L 414.52572726495816 103.60633241165505" stroke="rgb(132, 0, 0)" fill="none" stroke-width="0.9271038246880001px" stroke-linecap="round"/><text x="414.31838513008574" y="81.90454238226552" fill="rgb(15, 15, 15)" font-family="sans-serif" text-anchor="middle" dominant-baseline="ideographic" font-size="8.343934422192px">V3_3_SW</text><rect class="component-overlay" x="403.9064158323917" y="150.6041456621375" width="20.828374787189205" height="22.409462285331273" fill="transparent"/><path d="M 414.5288840534812 150.6041456621375 L 414.5288840534812 165.88436495638297" stroke="rgb(132, 0, 0)" fill="none" stroke-width="0.9271038246880001px" stroke-linecap="round"/><path d="M 403.9064158323917 165.8828445061105 L 424.7347906195809 165.8828445061105" stroke="rgb(132, 0, 0)" fill="none" stroke-width="0.9271038246880001px" stroke-linecap="round"/><path d="M 406.5099644191101 169.44822622678967 L 422.1312420328626 169.44822622678967" stroke="rgb(132, 0, 0)" fill="none" stroke-width="0.9271038246880001px" stroke-linecap="round"/><path d="M 411.7170569570276 173.01360794746878 L 416.92414949494514 173.01360794746878" stroke="rgb(132, 0, 0)" fill="none" stroke-width="0.9271038246880001px" stroke-linecap="round"/><text x="413.53061573921013" y="178.44323321642614" fill="rgb(15, 15, 15)" font-family="sans-serif" text-anchor="middle" dominant-baseline="hanging" font-size="8.343934422192px">GND</text><rect class="component-overlay" x="618.8486929059799" y="56.807897474190796" width="8.58866665431401" height="18.985320196824247" fill="transparent"/><path d="M 623.0751784574868 56.807897474190796 L 618.8486929059799 65.66501631198149" stroke="rgb(132, 0, 0)" fill="none" stroke-width="0.9271038246880001px" stroke-linecap="round"/><path d="M 623.2108740087872 56.81251445123774 L 627.4373595602939 65.66965646662405" stroke="rgb(132, 0, 0)" fill="none" stroke-width="0.9271038246880001px" stroke-linecap="round"/><path d="M 623.1240878197582 57.04160644183729 L 623.1240878197582 75.79321767101504" stroke="rgb(132, 0, 0)" fill="none" stroke-width="0.9271038246880001px" stroke-linecap="round"/><text x="622.9167456848858" y="54.091427641625515" fill="rgb(15, 15, 15)" font-family="sans-serif" text-anchor="middle" dominant-baseline="ideographic" font-size="8.343934422192px">V3_3_SW</text><rect class="component-overlay" x="612.5047763871917" y="169.14622215589753" width="20.828374787189205" height="22.409462285331273" fill="transparent"/><path d="M 623.1272446082812 169.14622215589753 L 623.1272446082812 184.426441450143" stroke="rgb(132, 0, 0)" fill="none" stroke-width="0.9271038246880001px" stroke-linecap="round"/><path d="M 612.5047763871917 184.42492099987052 L 633.3331511743809 184.42492099987052" stroke="rgb(132, 0, 0)" fill="none" stroke-width="0.9271038246880001px" stroke-linecap="round"/><path d="M 615.10832497391 187.9903027205497 L 630.7296025876625 187.9903027205497" stroke="rgb(132, 0, 0)" fill="none" stroke-width="0.9271038246880001px" stroke-linecap="round"/><path d="M 620.3154175118276 191.5556844412288 L 625.522510049745 191.5556844412288" stroke="rgb(132, 0, 0)" fill="none" stroke-width="0.9271038246880001px" stroke-linecap="round"/><text x="622.12897629401" y="196.98530971018616" fill="rgb(15, 15, 15)" font-family="sans-serif" text-anchor="middle" dominant-baseline="hanging" font-size="8.343934422192px">GND</text><rect class="component-overlay" x="241.66324651199173" y="428.7352930685375" width="20.828374787189176" height="22.409462285331244" fill="transparent"/><path d="M 252.2857147330812 428.7352930685375 L 252.2857147330812 444.01551236278294" stroke="rgb(132, 0, 0)" fill="none" stroke-width="0.9271038246880001px" stroke-linecap="round"/><path d="M 241.66324651199173 444.01399191251045 L 262.4916212991809 444.01399191251045" stroke="rgb(132, 0, 0)" fill="none" stroke-width="0.9271038246880001px" stroke-linecap="round"/><path d="M 244.26679509871008 447.5793736331896 L 259.88807271246253 447.5793736331896" stroke="rgb(132, 0, 0)" fill="none" stroke-width="0.9271038246880001px" stroke-linecap="round"/><path d="M 249.4738876366276 451.14475535386873 L 254.6809801745451 451.14475535386873" stroke="rgb(132, 0, 0)" fill="none" stroke-width="0.9271038246880001px" stroke-linecap="round"/><text x="251.28744641881013" y="456.57438062282614" fill="rgb(15, 15, 15)" font-family="sans-serif" text-anchor="middle" dominant-baseline="hanging" font-size="8.343934422192px">GND</text><rect class="component-overlay" x="275.82027777141997" y="316.3969683868308" width="8.588666654313897" height="18.98532019682426" fill="transparent"/><path d="M 280.04676332292684 316.3969683868308 L 275.82027777141997 325.2540872246215" stroke="rgb(132, 0, 0)" fill="none" stroke-width="0.9271038246880001px" stroke-linecap="round"/><path d="M 280.18245887422717 316.40158536387776 L 284.40894442573386 325.2587273792641" stroke="rgb(132, 0, 0)" fill="none" stroke-width="0.9271038246880001px" stroke-linecap="round"/><path d="M 280.09567268519817 316.6306773544773 L 280.09567268519817 335.38228858365505" stroke="rgb(132, 0, 0)" fill="none" stroke-width="0.9271038246880001px" stroke-linecap="round"/><text x="279.88833055032575" y="313.6804985542655" fill="rgb(15, 15, 15)" font-family="sans-serif" text-anchor="middle" dominant-baseline="ideographic" font-size="8.343934422192px">V3_3</text><rect class="component-overlay" x="519.7943939183917" y="424.0997739450975" width="20.828374787189205" height="22.409462285331244" fill="transparent"/><path d="M 530.4168621394813 424.0997739450975 L 530.4168621394813 439.379993239343" stroke="rgb(132, 0, 0)" fill="none" stroke-width="0.9271038246880001px" stroke-linecap="round"/><path d="M 519.7943939183917 439.3784727890705 L 540.6227687055809 439.3784727890705" stroke="rgb(132, 0, 0)" fill="none" stroke-width="0.9271038246880001px" stroke-linecap="round"/><path d="M 522.3979425051101 442.94385450974966 L 538.0192201188626 442.94385450974966" stroke="rgb(132, 0, 0)" fill="none" stroke-width="0.9271038246880001px" stroke-linecap="round"/><path d="M 527.6050350430277 446.50923623042877 L 532.8121275809451 446.50923623042877" stroke="rgb(132, 0, 0)" fill="none" stroke-width="0.9271038246880001px" stroke-linecap="round"/><text x="529.4185938252101" y="451.9388614993862" fill="rgb(15, 15, 15)" font-family="sans-serif" text-anchor="middle" dominant-baseline="hanging" font-size="8.343934422192px">GND</text><rect class="component-overlay" x="526.1383104371799" y="334.93904488059076" width="8.58866665431401" height="18.98532019682426" fill="transparent"/><path d="M 530.3647959886869 334.93904488059076 L 526.1383104371799 343.7961637183815" stroke="rgb(132, 0, 0)" fill="none" stroke-width="0.9271038246880001px" stroke-linecap="round"/><path d="M 530.5004915399873 334.9436618576377 L 534.726977091494 343.80080387302405" stroke="rgb(132, 0, 0)" fill="none" stroke-width="0.9271038246880001px" stroke-linecap="round"/><path d="M 530.4137053509583 335.1727538482373 L 530.4137053509583 353.924365077415" stroke="rgb(132, 0, 0)" fill="none" stroke-width="0.9271038246880001px" stroke-linecap="round"/><text x="530.2063632160858" y="332.2225750480255" fill="rgb(15, 15, 15)" font-family="sans-serif" text-anchor="middle" dominant-baseline="ideographic" font-size="8.343934422192px">V3_3</text><rect class="component-overlay" x="705.2151588559917" y="424.0997739450975" width="20.828374787189205" height="22.409462285331244" fill="transparent"/><path d="M 715.8376270770813 424.0997739450975 L 715.8376270770813 439.379993239343" stroke="rgb(132, 0, 0)" fill="none" stroke-width="0.9271038246880001px" stroke-linecap="round"/><path d="M 705.2151588559917 439.3784727890705 L 726.0435336431809 439.3784727890705" stroke="rgb(132, 0, 0)" fill="none" stroke-width="0.9271038246880001px" stroke-linecap="round"/><path d="M 707.8187074427101 442.94385450974966 L 723.4399850564625 442.94385450974966" stroke="rgb(132, 0, 0)" fill="none" stroke-width="0.9271038246880001px" stroke-linecap="round"/><path d="M 713.0257999806277 446.50923623042877 L 718.2328925185451 446.50923623042877" stroke="rgb(132, 0, 0)" fill="none" stroke-width="0.9271038246880001px" stroke-linecap="round"/><text x="714.8393587628101" y="451.9388614993862" fill="rgb(15, 15, 15)" font-family="sans-serif" text-anchor="middle" dominant-baseline="hanging" font-size="8.343934422192px">GND</text><rect class="component-overlay" x="711.5590753747798" y="334.93904488059076" width="8.58866665431401" height="18.98532019682426" fill="transparent"/><path d="M 715.7855609262867 334.93904488059076 L 711.5590753747798 343.7961637183815" stroke="rgb(132, 0, 0)" fill="none" stroke-width="0.9271038246880001px" stroke-linecap="round"/><path d="M 715.9212564775871 334.9436618576377 L 720.1477420290938 343.80080387302405" stroke="rgb(132, 0, 0)" fill="none" stroke-width="0.9271038246880001px" stroke-linecap="round"/><path d="M 715.8344702885581 335.1727538482373 L 715.8344702885581 353.924365077415" stroke="rgb(132, 0, 0)" fill="none" stroke-width="0.9271038246880001px" stroke-linecap="round"/><text x="715.6271281536857" y="332.2225750480255" fill="rgb(15, 15, 15)" font-family="sans-serif" text-anchor="middle" dominant-baseline="ideographic" font-size="8.343934422192px">V3_3</text><rect class="component-overlay" x="850.6246490779798" y="334.93904488059076" width="8.58866665431401" height="18.98532019682426" fill="transparent"/><path d="M 854.8511346294868 334.93904488059076 L 850.6246490779798 343.7961637183815" stroke="rgb(132, 0, 0)" fill="none" stroke-width="0.9271038246880001px" stroke-linecap="round"/><path d="M 854.9868301807871 334.9436618576377 L 859.2133157322938 343.80080387302405" stroke="rgb(132, 0, 0)" fill="none" stroke-width="0.9271038246880001px" stroke-linecap="round"/><path d="M 854.9000439917581 335.1727538482373 L 854.9000439917581 353.924365077415" stroke="rgb(132, 0, 0)" fill="none" stroke-width="0.9271038246880001px" stroke-linecap="round"/><text x="854.6927018568857" y="332.2225750480255" fill="rgb(15, 15, 15)" font-family="sans-serif" text-anchor="middle" dominant-baseline="ideographic" font-size="8.343934422192px">V3_3_SW</text><rect class="component-overlay" x="975.78366541086" y="334.93904488059076" width="8.58866665431401" height="18.98532019682426" fill="transparent"/><path d="M 980.0101509623669 334.93904488059076 L 975.78366541086 343.7961637183815" stroke="rgb(132, 0, 0)" fill="none" stroke-width="0.9271038246880001px" stroke-linecap="round"/><path d="M 980.1458465136673 334.9436618576377 L 984.372332065174 343.80080387302405" stroke="rgb(132, 0, 0)" fill="none" stroke-width="0.9271038246880001px" stroke-linecap="round"/><path d="M 980.0590603246383 335.1727538482373 L 980.0590603246383 353.924365077415" stroke="rgb(132, 0, 0)" fill="none" stroke-width="0.9271038246880001px" stroke-linecap="round"/><text x="979.8517181897658" y="332.2225750480255" fill="rgb(15, 15, 15)" font-family="sans-serif" text-anchor="middle" dominant-baseline="ideographic" font-size="8.343934422192px">V3_3_SW</text><path class="net-label" d="
    M 980.11256812188,540.0379778808001
    L 982.6157484485376,535.0316172274848
    L 1001.1763670187914,535.0316172274848
    L 1001.1763670187914,545.0443385341154
    L 982.6157484485376,545.0443385341154
    Z
  " fill="rgba(255, 255, 255, 0.6)" stroke="rgb(132, 0, 0)" stroke-width="0.9271038246880001px"/><text class="net-label-text" x="984.284535332976" y="540.0379778808001" fill="rgb(132, 0, 0)" text-anchor="start" dominant-baseline="central" font-family="sans-serif" font-variant-numeric="tabular-nums" font-size="8.343934422192px" transform="">INT</text><rect class="component-overlay" x="250.921618202867" y="194.70140798014378" width="20.828374787189176" height="22.409462285331273" fill="transparent"/><path d="M 261.54408642395646 194.70140798014378 L 261.54408642395646 209.98162727438924" stroke="rgb(132, 0, 0)" fill="none" stroke-width="0.9271038246880001px" stroke-linecap="round"/><path d="M 250.921618202867 209.98010682411677 L 271.74999299005617 209.98010682411677" stroke="rgb(132, 0, 0)" fill="none" stroke-width="0.9271038246880001px" stroke-linecap="round"/><path d="M 253.52516678958534 213.54548854479594 L 269.1464444033378 213.54548854479594" stroke="rgb(132, 0, 0)" fill="none" stroke-width="0.9271038246880001px" stroke-linecap="round"/><path d="M 258.73225932750285 217.11087026547506 L 263.9393518654204 217.11087026547506" stroke="rgb(132, 0, 0)" fill="none" stroke-width="0.9271038246880001px" stroke-linecap="round"/><text x="260.5458181096854" y="222.5404955344324" fill="rgb(15, 15, 15)" font-family="sans-serif" text-anchor="middle" dominant-baseline="hanging" font-size="8.343934422192px">GND</text><rect class="component-overlay" x="308.4532734392714" y="77.5785067398233" width="8.588666654313897" height="18.985320196824247" fill="transparent"/><path d="M 312.6797589907783 77.5785067398233 L 308.4532734392714 86.43562557761399" stroke="rgb(132, 0, 0)" fill="none" stroke-width="0.9271038246880001px" stroke-linecap="round"/><path d="M 312.8154545420786 77.58312371687023 L 317.0419400935853 86.44026573225655" stroke="rgb(132, 0, 0)" fill="none" stroke-width="0.9271038246880001px" stroke-linecap="round"/><path d="M 312.7286683530496 77.81221570746979 L 312.7286683530496 96.56382693664754" stroke="rgb(132, 0, 0)" fill="none" stroke-width="0.9271038246880001px" stroke-linecap="round"/><text x="312.5213262181772" y="74.86203690725802" fill="rgb(15, 15, 15)" font-family="sans-serif" text-anchor="middle" dominant-baseline="ideographic" font-size="8.343934422192px">V3_3</text><path class="net-label" d="
    M 539.73825139508,113.57021852432
    L 542.2414317217376,108.5638578710048
    L 562.9652925495967,108.5638578710048
    L 562.9652925495967,118.5765791776352
    L 542.2414317217376,118.5765791776352
    Z
  " fill="rgba(255, 255, 255, 0.6)" stroke="rgb(132, 0, 0)" stroke-width="0.9271038246880001px"/><text class="net-label-text" x="543.910218606176" y="113.57021852432" fill="rgb(132, 0, 0)" text-anchor="start" dominant-baseline="central" font-family="sans-serif" font-variant-numeric="tabular-nums" font-size="8.343934422192px" transform="">SCL</text><path class="net-label" d="
    M 539.73825139508,122.8412567712
    L 542.2414317217376,117.8348961178848
    L 563.8923963742848,117.8348961178848
    L 563.8923963742848,127.84761742451519
    L 542.2414317217376,127.84761742451519
    Z
  " fill="rgba(255, 255, 255, 0.6)" stroke="rgb(132, 0, 0)" stroke-width="0.9271038246880001px"/><text class="net-label-text" x="543.910218606176" y="122.8412567712" fill="rgb(132, 0, 0)" text-anchor="start" dominant-baseline="central" font-family="sans-serif" font-variant-numeric="tabular-nums" font-size="8.343934422192px" transform="">SDA</text><path class="net-label" d="
    M 539.73825139508,132.11229501808
    L 542.2414317217376,127.1059343647648
    L 571.0743606695345,127.1059343647648
    L 571.0743606695345,137.1186556713952
    L 542.2414317217376,137.1186556713952
    Z
  " fill="rgba(255, 255, 255, 0.6)" stroke="rgb(132, 0, 0)" stroke-width="0.9271038246880001px"/><text class="net-label-text" x="543.910218606176" y="132.11229501808" fill="rgb(132, 0, 0)" text-anchor="start" dominant-baseline="central" font-family="sans-serif" font-variant-numeric="tabular-nums" font-size="8.343934422192px" transform="">N_INT</text><rect class="component-overlay" x="758.0761760211234" y="91.45381239049448" width="8.58866665431401" height="18.985320196824247" fill="transparent"/><path d="M 762.3026615726303 91.45381239049448 L 758.0761760211234 100.31093122828517" stroke="rgb(132, 0, 0)" fill="none" stroke-width="0.9271038246880001px" stroke-linecap="round"/><path d="M 762.4383571239307 91.45842936754141 L 766.6648426754374 100.31557138292773" stroke="rgb(132, 0, 0)" fill="none" stroke-width="0.9271038246880001px" stroke-linecap="round"/><path d="M 762.3515709349017 91.68752135814097 L 762.3515709349017 110.43913258731872" stroke="rgb(132, 0, 0)" fill="none" stroke-width="0.9271038246880001px" stroke-linecap="round"/><text x="762.1442288000293" y="88.7373425579292" fill="rgb(15, 15, 15)" font-family="sans-serif" text-anchor="middle" dominant-baseline="ideographic" font-size="8.343934422192px">V3_3_SW</text><path class="net-label" d="
    M 715.8753115297952,194.75163382984624
    L 720.8816721831105,197.25481415650384
    L 720.8816721831105,218.90577880905093
    L 710.8689508764801,218.90577880905093
    L 710.86895087648,197.25481415650384
    Z
  " fill="rgba(255, 255, 255, 0.6)" stroke="rgb(132, 0, 0)" stroke-width="0.9271038246880001px"/><text class="net-label-text" x="715.8753115297952" y="198.92360104094223" fill="rgb(132, 0, 0)" text-anchor="start" dominant-baseline="central" font-family="sans-serif" font-variant-numeric="tabular-nums" font-size="8.343934422192px" transform="rotate(90 715.8753115297952 198.92360104094223)">SDA</text><path class="net-label" d="
    M 808.5856939985953,194.75163382984624
    L 813.5920546519105,197.25481415650384
    L 813.5920546519105,217.97867498436293
    L 803.5793333452801,217.97867498436293
    L 803.57933334528,197.25481415650384
    Z
  " fill="rgba(255, 255, 255, 0.6)" stroke="rgb(132, 0, 0)" stroke-width="0.9271038246880001px"/><text class="net-label-text" x="808.5856939985953" y="198.92360104094223" fill="rgb(132, 0, 0)" text-anchor="start" dominant-baseline="central" font-family="sans-serif" font-variant-numeric="tabular-nums" font-size="8.343934422192px" transform="rotate(90 808.5856939985953 198.92360104094223)">SCL</text><path class="net-label" d="
    M 233.79398924804002,405.60792330104
    L 236.29716957469762,400.6015626477248
    L 257.94813422724474,400.6015626477248
    L 257.94813422724474,410.6142839543552
    L 236.29716957469762,410.6142839543552
    Z
  " fill="rgba(255, 255, 255, 0.6)" stroke="rgb(132, 0, 0)" stroke-width="0.9271038246880001px"/><text class="net-label-text" x="237.965956459136" y="405.60792330104" fill="rgb(132, 0, 0)" text-anchor="start" dominant-baseline="central" font-family="sans-serif" font-variant-numeric="tabular-nums" font-size="8.343934422192px" transform="">SDA</text><path class="net-label" d="
    M 233.79398924804002,396.33688505416
    L 236.29716957469762,391.3305244008448
    L 257.02103040255673,391.3305244008448
    L 257.02103040255673,401.3432457074752
    L 236.29716957469762,401.3432457074752
    Z
  " fill="rgba(255, 255, 255, 0.6)" stroke="rgb(132, 0, 0)" stroke-width="0.9271038246880001px"/><text class="net-label-text" x="237.965956459136" y="396.33688505416" fill="rgb(132, 0, 0)" text-anchor="start" dominant-baseline="central" font-family="sans-serif" font-variant-numeric="tabular-nums" font-size="8.343934422192px" transform="">SCL</text><path class="net-label" d="
    M 233.79398924804002,387.06584680728
    L 236.29716957469762,382.0594861539648
    L 276.0204781164961,382.0594861539648
    L 276.0204781164961,392.0722074605952
    L 236.29716957469762,392.0722074605952
    Z
  " fill="rgba(255, 255, 255, 0.6)" stroke="rgb(132, 0, 0)" stroke-width="0.9271038246880001px"/><text class="net-label-text" x="237.965956459136" y="387.06584680728" fill="rgb(132, 0, 0)" text-anchor="start" dominant-baseline="central" font-family="sans-serif" font-variant-numeric="tabular-nums" font-size="8.343934422192px" transform="">DISABLE</text><path class="net-label" d="
    M 233.79398924804002,377.79480856040004
    L 236.29716957469762,372.78844790708484
    L 254.85778814495137,372.78844790708484
    L 254.85778814495137,382.80116921371524
    L 236.29716957469762,382.80116921371524
    Z
  " fill="rgba(255, 255, 255, 0.6)" stroke="rgb(132, 0, 0)" stroke-width="0.9271038246880001px"/><text class="net-label-text" x="237.965956459136" y="377.79480856040004" fill="rgb(132, 0, 0)" text-anchor="start" dominant-baseline="central" font-family="sans-serif" font-variant-numeric="tabular-nums" font-size="8.343934422192px" transform="">INT</text><path class="net-label" d="
    M 488.74754103724,396.33688505416
    L 491.25072136389764,391.3305244008448
    L 512.9016860164447,391.3305244008448
    L 512.9016860164447,401.3432457074752
    L 491.25072136389764,401.3432457074752
    Z
  " fill="rgba(255, 255, 255, 0.6)" stroke="rgb(132, 0, 0)" stroke-width="0.9271038246880001px"/><text class="net-label-text" x="492.919508248336" y="396.33688505416" fill="rgb(132, 0, 0)" text-anchor="start" dominant-baseline="central" font-family="sans-serif" font-variant-numeric="tabular-nums" font-size="8.343934422192px" transform="">SDA</text><path class="net-label" d="
    M 488.74754103724,387.06584680728
    L 491.25072136389764,382.0594861539648
    L 511.9745821917567,382.0594861539648
    L 511.9745821917567,392.0722074605952
    L 491.25072136389764,392.0722074605952
    Z
  " fill="rgba(255, 255, 255, 0.6)" stroke="rgb(132, 0, 0)" stroke-width="0.9271038246880001px"/><text class="net-label-text" x="492.919508248336" y="387.06584680728" fill="rgb(132, 0, 0)" text-anchor="start" dominant-baseline="central" font-family="sans-serif" font-variant-numeric="tabular-nums" font-size="8.343934422192px" transform="">SCL</text><path class="net-label" d="
    M 674.16830597484,396.33688505416
    L 676.6714863014976,391.3305244008448
    L 698.3224509540447,391.3305244008448
    L 698.3224509540447,401.3432457074752
    L 676.6714863014976,401.3432457074752
    Z
  " fill="rgba(255, 255, 255, 0.6)" stroke="rgb(132, 0, 0)" stroke-width="0.9271038246880001px"/><text class="net-label-text" x="678.340273185936" y="396.33688505416" fill="rgb(132, 0, 0)" text-anchor="start" dominant-baseline="central" font-family="sans-serif" font-variant-numeric="tabular-nums" font-size="8.343934422192px" transform="">SDA</text><path class="net-label" d="
    M 674.16830597484,387.06584680728
    L 676.6714863014976,382.0594861539648
    L 697.3953471293567,382.0594861539648
    L 697.3953471293567,392.0722074605952
    L 676.6714863014976,392.0722074605952
    Z
  " fill="rgba(255, 255, 255, 0.6)" stroke="rgb(132, 0, 0)" stroke-width="0.9271038246880001px"/><text class="net-label-text" x="678.340273185936" y="387.06584680728" fill="rgb(132, 0, 0)" text-anchor="start" dominant-baseline="central" font-family="sans-serif" font-variant-numeric="tabular-nums" font-size="8.343934422192px" transform="">SCL</text><rect class="component-overlay" x="844.2778492662969" y="551.3818951206662" width="20.828374787189205" height="22.4094622853313" fill="transparent"/><path d="M 854.9003174873865 551.3818951206662 L 854.9003174873865 566.6621144149117" stroke="rgb(132, 0, 0)" fill="none" stroke-width="0.9271038246880001px" stroke-linecap="round"/><path d="M 844.2778492662969 566.6605939646391 L 865.1062240534861 566.6605939646391" stroke="rgb(132, 0, 0)" fill="none" stroke-width="0.9271038246880001px" stroke-linecap="round"/><path d="M 846.8813978530153 570.2259756853183 L 862.5026754667678 570.2259756853183" stroke="rgb(132, 0, 0)" fill="none" stroke-width="0.9271038246880001px" stroke-linecap="round"/><path d="M 852.0884903909329 573.7913574059975 L 857.2955829288503 573.7913574059975" stroke="rgb(132, 0, 0)" fill="none" stroke-width="0.9271038246880001px" stroke-linecap="round"/><text x="853.9020491731153" y="579.2209826749548" fill="rgb(15, 15, 15)" font-family="sans-serif" text-anchor="middle" dominant-baseline="hanging" font-size="8.343934422192px">GND</text><text x="252.3360657418" y="30.130874302399988" fill="brown" text-anchor="middle" dominant-baseline="middle" font-family="sans-serif" font-size="13.90655737032px" transform="rotate(0, 252.3360657418, 30.130874302399988)">Power-On Reset</text><text x="507.28961753100003" y="30.130874302399988" fill="brown" text-anchor="middle" dominant-baseline="middle" font-family="sans-serif" font-size="13.90655737032px" transform="rotate(0, 507.28961753100003, 30.130874302399988)">Hall-Effect Sensor - TMAG5273</text><text x="762.2431693202" y="30.130874302399988" fill="brown" text-anchor="middle" dominant-baseline="middle" font-family="sans-serif" font-size="13.90655737032px" transform="rotate(0, 762.2431693202, 30.130874302399988)">I2C Pullup</text><text x="205.98087450740002" y="308.26202170880003" fill="brown" text-anchor="middle" dominant-baseline="middle" font-family="sans-serif" font-size="13.90655737032px" transform="rotate(0, 205.98087450740002, 308.26202170880003)">0.1 Header</text><text x="530.4672131482" y="308.26202170880003" fill="brown" text-anchor="middle" dominant-baseline="middle" font-family="sans-serif" font-size="13.90655737032px" transform="rotate(0, 530.4672131482, 308.26202170880003)">Qwiic Connectors</text><text x="854.9535517890001" y="308.26202170880003" fill="brown" text-anchor="middle" dominant-baseline="middle" font-family="sans-serif" font-size="13.90655737032px" transform="rotate(0, 854.9535517890001, 308.26202170880003)">Power LED</text><text x="994.0191254922001" y="308.26202170880003" fill="brown" text-anchor="middle" dominant-baseline="middle" font-family="sans-serif" font-size="13.90655737032px" transform="rotate(0, 994.0191254922001, 308.26202170880003)">INT Pullup</text></svg>